<?xml version="1.0" encoding="UTF-8"?>
<svg id="uuid-e0be12e9-df68-4d51-af18-1f928e07031d" data-name="Ebene 1" xmlns="http://www.w3.org/2000/svg" width="228.84mm" height="151.42mm" xmlns:xlink="http://www.w3.org/1999/xlink" viewBox="0 0 648.67 429.24">
  <defs>
    <style>
      .uuid-d64c2d76-cbcb-4ae1-b017-5200ad1ba080, .uuid-200a87e5-00b5-4850-a976-7b4e812a4b80, .uuid-5336e3be-4388-408c-a100-aefb30187a81, .uuid-37faa79f-a70e-4bdb-90ed-91f4fd349b9e, .uuid-0664e356-a5ce-4b75-956b-03bbad3e536a, .uuid-29b558ad-4bf6-4d6b-a2aa-2643f87cdbd9, .uuid-a0808ad5-580c-446f-9723-a5c4050adbb6, .uuid-80d24f51-c28f-45e0-a510-77173118026a {
        stroke: #010101;
      }

      .uuid-d64c2d76-cbcb-4ae1-b017-5200ad1ba080, .uuid-8ba9d0c3-4e27-4277-9448-6ef679a98fba, .uuid-f3a5044d-7446-403a-bcfc-6e3a19300158, .uuid-6a336ed1-854c-4285-9561-fe2b3a9bf69a, .uuid-b4d80183-1082-4cf3-b8d7-d73a360a6301, .uuid-37faa79f-a70e-4bdb-90ed-91f4fd349b9e, .uuid-0664e356-a5ce-4b75-956b-03bbad3e536a, .uuid-29b558ad-4bf6-4d6b-a2aa-2643f87cdbd9, .uuid-a0808ad5-580c-446f-9723-a5c4050adbb6, .uuid-80d24f51-c28f-45e0-a510-77173118026a, .uuid-12f0fe86-c72c-42f2-b718-7693b5b52f0f, .uuid-ff96bbd6-d860-45dc-a185-decee199d4fd {
        fill: none;
      }

      .uuid-d64c2d76-cbcb-4ae1-b017-5200ad1ba080, .uuid-f3a5044d-7446-403a-bcfc-6e3a19300158, .uuid-f996c48a-664a-44cd-9145-5ad727f8bfe1, .uuid-0664e356-a5ce-4b75-956b-03bbad3e536a, .uuid-29b558ad-4bf6-4d6b-a2aa-2643f87cdbd9, .uuid-47fdcb3a-9fd8-49e1-8b5d-cabdbfa88c4f, .uuid-a0808ad5-580c-446f-9723-a5c4050adbb6 {
        stroke-linecap: round;
      }

      .uuid-d64c2d76-cbcb-4ae1-b017-5200ad1ba080, .uuid-f996c48a-664a-44cd-9145-5ad727f8bfe1, .uuid-0664e356-a5ce-4b75-956b-03bbad3e536a, .uuid-29b558ad-4bf6-4d6b-a2aa-2643f87cdbd9, .uuid-47fdcb3a-9fd8-49e1-8b5d-cabdbfa88c4f, .uuid-a0808ad5-580c-446f-9723-a5c4050adbb6 {
        stroke-linejoin: round;
      }

      .uuid-d64c2d76-cbcb-4ae1-b017-5200ad1ba080, .uuid-e276db2d-1536-4893-974f-49e3bd58b3ec {
        stroke-width: .63px;
      }

      .uuid-200a87e5-00b5-4850-a976-7b4e812a4b80, .uuid-8ba9d0c3-4e27-4277-9448-6ef679a98fba, .uuid-f3a5044d-7446-403a-bcfc-6e3a19300158, .uuid-dd6802c4-285a-4b6b-bc91-e10f31e3485b, .uuid-cd8b4442-7571-419c-bedd-9809162a830c, .uuid-5336e3be-4388-408c-a100-aefb30187a81, .uuid-37faa79f-a70e-4bdb-90ed-91f4fd349b9e, .uuid-12f0fe86-c72c-42f2-b718-7693b5b52f0f {
        stroke-miterlimit: 10;
      }

      .uuid-200a87e5-00b5-4850-a976-7b4e812a4b80, .uuid-f3a5044d-7446-403a-bcfc-6e3a19300158, .uuid-5336e3be-4388-408c-a100-aefb30187a81 {
        stroke-width: .72px;
      }

      .uuid-200a87e5-00b5-4850-a976-7b4e812a4b80, .uuid-dd6802c4-285a-4b6b-bc91-e10f31e3485b, .uuid-cd8b4442-7571-419c-bedd-9809162a830c, .uuid-5336e3be-4388-408c-a100-aefb30187a81, .uuid-eee07b6e-3e0c-4a68-af29-0916580dc138, .uuid-e276db2d-1536-4893-974f-49e3bd58b3ec {
        fill: #fff;
      }

      .uuid-8ba9d0c3-4e27-4277-9448-6ef679a98fba {
        stroke-width: .23px;
      }

      .uuid-8ba9d0c3-4e27-4277-9448-6ef679a98fba, .uuid-b4d80183-1082-4cf3-b8d7-d73a360a6301, .uuid-12f0fe86-c72c-42f2-b718-7693b5b52f0f {
        stroke: #fff;
      }

      .uuid-def6040b-39bf-4235-8bd8-7cdd96f3a43a {
        fill: #080915;
      }

      .uuid-def6040b-39bf-4235-8bd8-7cdd96f3a43a, .uuid-f3a5044d-7446-403a-bcfc-6e3a19300158, .uuid-dd6802c4-285a-4b6b-bc91-e10f31e3485b, .uuid-cd8b4442-7571-419c-bedd-9809162a830c, .uuid-5336e3be-4388-408c-a100-aefb30187a81, .uuid-f996c48a-664a-44cd-9145-5ad727f8bfe1, .uuid-42e1182c-2e02-4f8e-a720-2843d9ebbd72, .uuid-12bc7c13-1faf-48ba-8c33-d2b9c6fe7734, .uuid-4945ed0c-c0df-46e5-9b24-124b99656be7, .uuid-d98507e3-6a91-43aa-afb0-8e54376181d7, .uuid-eee07b6e-3e0c-4a68-af29-0916580dc138, .uuid-47fdcb3a-9fd8-49e1-8b5d-cabdbfa88c4f, .uuid-ff96bbd6-d860-45dc-a185-decee199d4fd, .uuid-e276db2d-1536-4893-974f-49e3bd58b3ec {
        fill-rule: evenodd;
      }

      .uuid-def6040b-39bf-4235-8bd8-7cdd96f3a43a, .uuid-42e1182c-2e02-4f8e-a720-2843d9ebbd72, .uuid-6a336ed1-854c-4285-9561-fe2b3a9bf69a, .uuid-12bc7c13-1faf-48ba-8c33-d2b9c6fe7734, .uuid-4945ed0c-c0df-46e5-9b24-124b99656be7, .uuid-d98507e3-6a91-43aa-afb0-8e54376181d7, .uuid-eee07b6e-3e0c-4a68-af29-0916580dc138, .uuid-ff96bbd6-d860-45dc-a185-decee199d4fd {
        stroke-width: 0px;
      }

      .uuid-f3a5044d-7446-403a-bcfc-6e3a19300158, .uuid-dd6802c4-285a-4b6b-bc91-e10f31e3485b, .uuid-cd8b4442-7571-419c-bedd-9809162a830c, .uuid-47fdcb3a-9fd8-49e1-8b5d-cabdbfa88c4f, .uuid-e276db2d-1536-4893-974f-49e3bd58b3ec {
        stroke: #1e1e1c;
      }

      .uuid-1464585d-4ddd-4a95-ab13-d8cdbcd74958 {
        clip-path: url(#uuid-fbe14481-8665-4307-8d89-468e3a60f9fe);
      }

      .uuid-dd6802c4-285a-4b6b-bc91-e10f31e3485b {
        stroke-width: .63px;
      }

      .uuid-cd8b4442-7571-419c-bedd-9809162a830c {
        stroke-width: 1.44px;
      }

      .uuid-f996c48a-664a-44cd-9145-5ad727f8bfe1 {
        fill: rgba(255, 255, 255, .5);
        stroke: rgba(1, 1, 1, .5);
        stroke-width: 1.02px;
      }

      .uuid-42e1182c-2e02-4f8e-a720-2843d9ebbd72 {
        fill: #06070f;
      }

      .uuid-12bc7c13-1faf-48ba-8c33-d2b9c6fe7734 {
        fill: #cdcccc;
      }

      .uuid-b4d80183-1082-4cf3-b8d7-d73a360a6301 {
        stroke-width: 3.53px;
      }

      .uuid-b4d80183-1082-4cf3-b8d7-d73a360a6301, .uuid-80d24f51-c28f-45e0-a510-77173118026a, .uuid-e276db2d-1536-4893-974f-49e3bd58b3ec {
        stroke-miterlimit: 10;
      }

      .uuid-37faa79f-a70e-4bdb-90ed-91f4fd349b9e {
        stroke-width: 1.22px;
      }

      .uuid-4945ed0c-c0df-46e5-9b24-124b99656be7 {
        fill: #0a0d1c;
      }

      .uuid-d98507e3-6a91-43aa-afb0-8e54376181d7 {
        fill: #080914;
      }

      .uuid-0664e356-a5ce-4b75-956b-03bbad3e536a {
        stroke-width: 1.44px;
      }

      .uuid-29b558ad-4bf6-4d6b-a2aa-2643f87cdbd9 {
        stroke-width: 1.26px;
      }

      .uuid-47fdcb3a-9fd8-49e1-8b5d-cabdbfa88c4f {
        fill: #1e1e1c;
        stroke-width: .89px;
      }

      .uuid-98405b41-f682-48bd-b10d-0cfbb2869272 {
        clip-path: url(#uuid-bcb880d9-eb61-41df-9a6b-ec492209ed09);
      }

      .uuid-a0808ad5-580c-446f-9723-a5c4050adbb6 {
        stroke-width: .72px;
      }

      .uuid-80d24f51-c28f-45e0-a510-77173118026a {
        stroke-width: 1.19px;
      }

      .uuid-12f0fe86-c72c-42f2-b718-7693b5b52f0f {
        stroke-width: 3.64px;
      }
    </style>
    <clipPath id="uuid-fbe14481-8665-4307-8d89-468e3a60f9fe">
      <ellipse class="uuid-6a336ed1-854c-4285-9561-fe2b3a9bf69a" cx="128.42" cy="128.08" rx="117.96" ry="118.17"/>
    </clipPath>
    <clipPath id="uuid-bcb880d9-eb61-41df-9a6b-ec492209ed09">
      <ellipse class="uuid-6a336ed1-854c-4285-9561-fe2b3a9bf69a" cx="413.06" cy="131.59" rx="118.72" ry="118.94"/>
    </clipPath>
  </defs>
  <g>
    <ellipse class="uuid-8ba9d0c3-4e27-4277-9448-6ef679a98fba" cx="115.54" cy="130.29" rx="115.43" ry="115.64"/>
    <g class="uuid-1464585d-4ddd-4a95-ab13-d8cdbcd74958">
      <g>
        <path class="uuid-eee07b6e-3e0c-4a68-af29-0916580dc138" d="M201.57-12.33l-27.58.11v374.26l27.58.11.06.21-295.34-.02V-12.53l295.34-.02-.06.21h0Z"/>
        <path class="uuid-ff96bbd6-d860-45dc-a185-decee199d4fd" d="M144.64,110.59l.25,41.74-7.08.2.09-43.93,6.73,2Z"/>
        <path class="uuid-dd6802c4-285a-4b6b-bc91-e10f31e3485b" d="M149.55,224.86l2.09,4.16.02,1.63-2.98,2.38-5.16,3.79-1.91.41-2.68-.18-10.25-2.93-12.82-3.87-2.05-1.52-.32-.32v-.57l.59.32,22.06,6.57,1.71-.02,1.78-.6,2.7-1.8.13-.57-63.34-107.95,1.89-1.66,5.7-4.28,62.86,107.04h-.01Z"/>
        <path class="uuid-4945ed0c-c0df-46e5-9b24-124b99656be7" d="M82.63,95.09l.02-1.22.13.11s-.14,1.11-.14,1.11Z"/>
        <path class="uuid-4945ed0c-c0df-46e5-9b24-124b99656be7" d="M46.97,113.79l-.66-.11.47-.16.3.09-.11.18h0Z"/>
        <path class="uuid-4945ed0c-c0df-46e5-9b24-124b99656be7" d="M145.08,154.32l-.2-2h.23l-.04,2Z"/>
        <path class="uuid-def6040b-39bf-4235-8bd8-7cdd96f3a43a" d="M144.64,110.59l.43.09.06,41.64h-.23l-.25-41.74h0Z"/>
        <path class="uuid-def6040b-39bf-4235-8bd8-7cdd96f3a43a" d="M192.05-15.24l-.07,292.77h-.21l-.14-292.77.06-.21h.32l.06.21h0Z"/>
        <path class="uuid-def6040b-39bf-4235-8bd8-7cdd96f3a43a" d="M227.23-15.24l-.07,318.36-.28-.02-.07-318.34.06-.21h.32l.06.21h-.01Z"/>
        <path class="uuid-12bc7c13-1faf-48ba-8c33-d2b9c6fe7734" d="M45.79,109.21l1.8,2.97.3.96-.82.47-.3-.09-2.46-4.07-.11-.55.7-.04.89.36h0Z"/>
        <path class="uuid-12bc7c13-1faf-48ba-8c33-d2b9c6fe7734" d="M53.85,115.75l-2.7,1.91-.02.79,1.54,2.38.3.96-.89.62-3.06-4.88-.02-.3,2.05-1.5.34-.59,2.44.6h0Z"/>
        <path class="uuid-12bc7c13-1faf-48ba-8c33-d2b9c6fe7734" d="M52.08,125.9h-.57l-.71-.95h.34l.95.95Z"/>
        <path class="uuid-12bc7c13-1faf-48ba-8c33-d2b9c6fe7734" d="M53.65,127.29l-.7-.21-.38-.62h.34l.73.84h0Z"/>
        <path class="uuid-12bc7c13-1faf-48ba-8c33-d2b9c6fe7734" d="M57.47,132.43v.41l-.32-.07v-.66l.32.32h0Z"/>
        <path class="uuid-12bc7c13-1faf-48ba-8c33-d2b9c6fe7734" d="M60.45,137.5v.41l-.32-.09v-.64l.32.32h0Z"/>
        <g id="uuid-f67f698a-7740-43b7-96ba-6d25f5f2bcd3" data-name="uuid-1d83705c-1195-4b09-9f96-9913627280b2">
          <g>
            <path class="uuid-d64c2d76-cbcb-4ae1-b017-5200ad1ba080" d="M67.92,129.25l-.89.59-1.25.06-1.59-.49-1.14-.6"/>
            <path class="uuid-d64c2d76-cbcb-4ae1-b017-5200ad1ba080" d="M68.7,125.41l-.68-.36"/>
            <path class="uuid-d64c2d76-cbcb-4ae1-b017-5200ad1ba080" d="M72.47,118.68l2.31.7.21.04h.27l.43-.06.91-.27.79-.34.79-.43.73-.5,4.2-3.14"/>
          </g>
          <g>
            <path class="uuid-29b558ad-4bf6-4d6b-a2aa-2643f87cdbd9" d="M44.67,95.37l-.49-1.93-.18-1.48-.04-.79.02-1.32.45-1.89.47-.84.41-.75.6-.6.68-.57,4.37-3.25,1.34-.27,1.71.28,2.03.82,2.31,1.35,2.52,1.86,2.66,2.29,2.77,2.7,2.77,3.02,2.73,3.25,2.61,3.45,2.43,3.52,2.18,3.52,4.07,6.95.45.13.45.21.54.38.55.54.59.64.54.71.49.73,63.56,108.29.73,1.41.5,1.25.2,1.02-.11.7-.39.34-6.27,4.73-.54.36-.57.34-.59.28-.57.21-.52.13-1.68.14-.49-.06-1.35-.25-21.84-6.5-1.23-.57-.49-.27-1.13-.91-.88-1.14-1.14-1.97.06.07"/>
            <path class="uuid-29b558ad-4bf6-4d6b-a2aa-2643f87cdbd9" d="M85.31,180.24l1.22,2.05-31.81-54.22"/>
            <path class="uuid-29b558ad-4bf6-4d6b-a2aa-2643f87cdbd9" d="M81.69,174.04l-27.07-46.04"/>
            <path class="uuid-29b558ad-4bf6-4d6b-a2aa-2643f87cdbd9" d="M86.52,182.3l22.98,39.15-54.31-93.06"/>
            <path class="uuid-29b558ad-4bf6-4d6b-a2aa-2643f87cdbd9" d="M67.92,129.25l.5-1.09.09-.84.04-.79.2-1.3.34-1.34.43-1.14.38-.81.45-.81.52-.77.57-.7,1.05-1"/>
            <path class="uuid-29b558ad-4bf6-4d6b-a2aa-2643f87cdbd9" d="M82.9,176.11l1.2,2.05"/>
            <path class="uuid-29b558ad-4bf6-4d6b-a2aa-2643f87cdbd9" d="M91.55,190.86l.91,1.56"/>
            <path class="uuid-29b558ad-4bf6-4d6b-a2aa-2643f87cdbd9" d="M109.51,221.44l2.39,4.13"/>
          </g>
        </g>
        <g id="uuid-dc30198c-f0c1-4de2-bde5-4fab7fdebf5f" data-name="uuid-08a9837f-0606-4437-aa71-bc0cbdecbfea">
          <g>
            <path class="uuid-d64c2d76-cbcb-4ae1-b017-5200ad1ba080" d="M42.95,115.39l.11.13.18.11.06.02,5.7,1.68,3.02,5.14,1.11-.84"/>
            <path class="uuid-d64c2d76-cbcb-4ae1-b017-5200ad1ba080" d="M43.84,108.59l3.02,5.13"/>
            <path class="uuid-d64c2d76-cbcb-4ae1-b017-5200ad1ba080" d="M47.99,112.89h-.02"/>
            <path class="uuid-d64c2d76-cbcb-4ae1-b017-5200ad1ba080" d="M48.99,117.32l2.84-2.12"/>
            <path class="uuid-d64c2d76-cbcb-4ae1-b017-5200ad1ba080" d="M52.01,122.46l1.95.57"/>
            <path class="uuid-d64c2d76-cbcb-4ae1-b017-5200ad1ba080" d="M50.93,117.91l5.68,1.68.25.06h.39l.34-.06.38-.09.16-.06.41-.14.43-.18.59-.28.57-.34.41-.27,1.52-1.14-5.24-1.57"/>
            <path class="uuid-d64c2d76-cbcb-4ae1-b017-5200ad1ba080" d="M53.76,115.77v.02"/>
            <path class="uuid-d64c2d76-cbcb-4ae1-b017-5200ad1ba080" d="M62.06,117.09l-.7-1.29-1.23-2.05-.18-.27"/>
            <path class="uuid-d64c2d76-cbcb-4ae1-b017-5200ad1ba080" d="M76.44,88.89l.25.06.3.13.7.41.79.66.84.82.81.98.77,1.03.64,1.05.5,1,.3.88.13.7"/>
            <path class="uuid-d64c2d76-cbcb-4ae1-b017-5200ad1ba080" d="M82.06,97.3h0"/>
          </g>
          <g>
            <path class="uuid-29b558ad-4bf6-4d6b-a2aa-2643f87cdbd9" d="M47.99,112.87l-1.13.84-5.68-1.68-.14-.07-.14-.11-.09-.14-.43-.82-.55-1.2-.49-1.14-.39-1.07-.3-1.02-.13-.5-.23-.96-.11-.86-.04-1.37.09-.66.13-.62.2-.55.25-.59.3-.45.38-.54.49-.43.41-.32,7.57-5.7.64-.38.84-.07,1.02.18,1.18.47,1.3.73,1.45.96,1.52,1.22.7.64.88.79,1.63,1.61,1.63,1.77,1.61,1.89,1.54,2,1.48,2.03,1.35,2.07,1.23,2.05,1.09,2,.89,1.91.73,1.78.52,1.63.3,1.43"/>
            <path class="uuid-29b558ad-4bf6-4d6b-a2aa-2643f87cdbd9" d="M44.74,117.95l-.36-.49-1.43-2.07-.02-.07-.04-.18.04-.2.07-.21.07-.13.16-.25.07-.11.25-.28.28-.28.16-.13.34-.28.28-.21"/>
            <path class="uuid-29b558ad-4bf6-4d6b-a2aa-2643f87cdbd9" d="M43.84,108.59l1.95.57,3.02,5.14,5.7,1.68.11.04.27.02h.11l.34-.04.36-.07.54-.16.57-.23.43-.2.59-.32.41-.25.39-.28,1.34-1"/>
            <path class="uuid-29b558ad-4bf6-4d6b-a2aa-2643f87cdbd9" d="M44.43,117.54l-.02-.02.91,1.23.98,1.25,1,1.22,1,1.16,1.03,1.11,1.02,1.03,1,.95,1,.88.96.77.91.66.88.57.47.25.86.47.79.34,1.29.39.66.09.62.06.59-.06.64-.07,1.11-.39.55-.34,6.25-4.7"/>
            <path class="uuid-29b558ad-4bf6-4d6b-a2aa-2643f87cdbd9" d="M53.95,123.04l-3.02-5.13,2.84-2.14"/>
            <path class="uuid-29b558ad-4bf6-4d6b-a2aa-2643f87cdbd9" d="M69.19,94.13l6.86-5.13.39-.11,2.38.45.21.09.47.28.52.43.55.55.55.64.5.7.43.71.34.66.2.57.09.47-.21,2.16-.09.49-6.87,5.16"/>
          </g>
        </g>
        <g id="uuid-c49fba32-07c6-4b78-8931-5e746b531880" data-name="uuid-36e87831-0d41-4c63-9a00-41d9c8703df5">
          <g>
            <path class="uuid-d64c2d76-cbcb-4ae1-b017-5200ad1ba080" d="M131.1,359.5v-115.13l-3-.89"/>
            <path class="uuid-d64c2d76-cbcb-4ae1-b017-5200ad1ba080" d="M128.42,243.46l2.98.89-.3.02"/>
            <path class="uuid-d64c2d76-cbcb-4ae1-b017-5200ad1ba080" d="M131.41,244.35v115.15"/>
            <path class="uuid-d64c2d76-cbcb-4ae1-b017-5200ad1ba080" d="M131.1,40.35V-15.53"/>
            <path class="uuid-d64c2d76-cbcb-4ae1-b017-5200ad1ba080" d="M131.41,40.33V-15.53"/>
            <path class="uuid-d64c2d76-cbcb-4ae1-b017-5200ad1ba080" d="M137.69,152.7l7.48-.52"/>
            <path class="uuid-d64c2d76-cbcb-4ae1-b017-5200ad1ba080" d="M164,359.5V-15.53"/>
          </g>
          <g>
            <path class="uuid-29b558ad-4bf6-4d6b-a2aa-2643f87cdbd9" d="M-103.76,254.32l218,64.83v-90.22"/>
            <path class="uuid-29b558ad-4bf6-4d6b-a2aa-2643f87cdbd9" d="M114.24,164.99V-15.53"/>
            <path class="uuid-29b558ad-4bf6-4d6b-a2aa-2643f87cdbd9" d="M118.69,328.59v-97.59"/>
            <path class="uuid-29b558ad-4bf6-4d6b-a2aa-2643f87cdbd9" d="M118.72,172.63l-.04-.64v.59"/>
            <path class="uuid-29b558ad-4bf6-4d6b-a2aa-2643f87cdbd9" d="M118.69,171.99V-15.53"/>
            <path class="uuid-29b558ad-4bf6-4d6b-a2aa-2643f87cdbd9" d="M128.1,352.29v-108.81l.32-.02v.11"/>
            <path class="uuid-29b558ad-4bf6-4d6b-a2aa-2643f87cdbd9" d="M131.41,40.33l-.3.02-3-.89V-15.53"/>
            <path class="uuid-29b558ad-4bf6-4d6b-a2aa-2643f87cdbd9" d="M138.83,153.04l-1.14-.34v-44.2l7.48,2.21v44.22l-6.34-1.89"/>
            <path class="uuid-29b558ad-4bf6-4d6b-a2aa-2643f87cdbd9" d="M159.51,359.5V-15.53"/>
            <path class="uuid-29b558ad-4bf6-4d6b-a2aa-2643f87cdbd9" d="M191.84-15.53v375.03"/>
            <path class="uuid-29b558ad-4bf6-4d6b-a2aa-2643f87cdbd9" d="M226.97,331.29l21.4-1.56V-15.53"/>
            <path class="uuid-29b558ad-4bf6-4d6b-a2aa-2643f87cdbd9" d="M226.97,303.25V-15.53"/>
          </g>
        </g>
        <path class="uuid-47fdcb3a-9fd8-49e1-8b5d-cabdbfa88c4f" d="M138.2,61.19c.05-.92.84-1.89,1.63-1.8.72.09,1.17,1.06,1.19,1.8.03.88-.52,1.96-1.29,2.01-.79.05-1.58-1.02-1.53-2.01h0Z"/>
        <path class="uuid-e276db2d-1536-4893-974f-49e3bd58b3ec" d="M81.69,86.25c12.58-6.56,25.17-13.13,37.75-19.7-1.11-2.13-2.21-4.27-3.32-6.39,8.08.26,16.15.52,24.24.79-4.33,6.92-8.67,13.84-13,20.75-1.12-2.13-2.22-4.27-3.34-6.39-12.58,6.56-25.17,13.13-37.75,19.7-1.52-2.92-3.05-5.83-4.57-8.75Z"/>
      </g>
    </g>
    <ellipse class="uuid-b4d80183-1082-4cf3-b8d7-d73a360a6301" cx="128.3" cy="128.22" rx="115.43" ry="115.64"/>
    <g>
      <ellipse class="uuid-80d24f51-c28f-45e0-a510-77173118026a" cx="128.42" cy="128.08" rx="117.96" ry="118.17"/>
      <ellipse class="uuid-b4d80183-1082-4cf3-b8d7-d73a360a6301" cx="128.3" cy="128.22" rx="115.43" ry="115.64"/>
    </g>
  </g>
  <g>
    <g class="uuid-98405b41-f682-48bd-b10d-0cfbb2869272">
      <g>
        <g>
          <path class="uuid-eee07b6e-3e0c-4a68-af29-0916580dc138" d="M471.33,1.05l-.08-.24,177.42.02v428.41H42.73l-.04-42.15,1.57-.22-1.57-.12.04-385.92,428.17-.02-.06.24-20.96.12-.2,408.29-.33,1.73-.69,1.35-1.92,1.82-1.98.1,1.82.08.16-.18,15.98-.78,3.43-.18,2.18-.27,1.45-1.29,1.02-2.37.18-1.94.27-16.37,3.43-.27,12.59-.67,1.84-.27.78-.59,1.37-2.04.39-2.29v-63.64l2.8-.35,4.78-.33,2.12-1.35,1.41-2.69.43-1.61v-3.86l-.33-1.37-.37.39-1.47.29-11.69.57v-5.35l1.02-.35,1.27-.2V1.17l-20.27-.12Z"/>
          <path class="uuid-12bc7c13-1faf-48ba-8c33-d2b9c6fe7734" d="M402.84,102.26l-.16,5.35h-2.18v-5.59l2.27-.04.08.29Z"/>
          <path class="uuid-4945ed0c-c0df-46e5-9b24-124b99656be7" d="M471.31,341.07l-.14.37h-.18v-19.43h.27l.06,19.06Z"/>
          <path class="uuid-def6040b-39bf-4235-8bd8-7cdd96f3a43a" d="M403.8,102.17l-.96.08-.08-.29h1.06l-.02.2Z"/>
          <path class="uuid-def6040b-39bf-4235-8bd8-7cdd96f3a43a" d="M471.58,293.45l-.39.63-.2-.02v-3.04h.18l.41,2.43Z"/>
          <path class="uuid-def6040b-39bf-4235-8bd8-7cdd96f3a43a" d="M471.31,344.84v46l-.06.33h-.27v-49.74h.18l.14,3.41Z"/>
          <path class="uuid-5336e3be-4388-408c-a100-aefb30187a81" d="M394.82,237.63l24.88,1.71h4.67l3.37-2.08,1.16-1.55.33-122.33,1.22-1.16,5.59-.24.37-.41.02,103.11-.18,22.53-.2.9-1.02,2.02-1.61,1.2-1,.2-3.06.14h-5.47l-29.31-2.02-2.45-1.02-1.16-1.39,3.86.39Z"/>
          <path class="uuid-12bc7c13-1faf-48ba-8c33-d2b9c6fe7734" d="M503.17,311.23v3.86l-.43,1.61-1.41,2.69-2.12,1.35-4.78.33-3.35.02.55.33v63.64l-.39,2.29-1.37,2.04-.78.59-1.84.27-12.59.67-3.37-.06v-45.66l1.22-.22-1.22-.12-.14-3.41.14-.37,1.2-.76.51-.84,6.57-.33.12-.45-.04-.2-2.98.14-1.29-.16,6.27-4.33.22-37.59,7-.45.14,9.55v5.45l.14,22.41.12-22.41,11.69-.57,1.47-.29.37-.39.33,1.37Z"/>
          <path class="uuid-12bc7c13-1faf-48ba-8c33-d2b9c6fe7734" d="M171.09,395.66l.35.35-1.59,4.84-.8,1.65-4.78.35-2.06-.16,2.51-7.31,6.37.29Z"/>
          <path class="uuid-12bc7c13-1faf-48ba-8c33-d2b9c6fe7734" d="M406.25,412.3l-1.22,3.98-.96,2.43-7.02.31,2.65-7.47h2.73l2.37.16,1.45.59Z"/>
          <path class="uuid-eee07b6e-3e0c-4a68-af29-0916580dc138" d="M488.99,295.84l-.08.27-7,.45-.22,37.59-6.27,4.33,1.29.16,3.02.06-.12.45-6.57.33-.51.84-1.2.76-.06-19.06,1.84-.2,1.82-1.24-.33-.47-1.04-.69-.65.49-1.63.78-.06-26.57.39-.63,2.86-2.67,1.02-.35,6.63-.33,6.9,5.74Z"/>
          <path class="uuid-42e1182c-2e02-4f8e-a720-2843d9ebbd72" d="M489.41,305.21l.92.2-1.02.35-.27-.1-.14-9.55.08-.27.2.06.22,9.31Z"/>
          <path class="uuid-42e1182c-2e02-4f8e-a720-2843d9ebbd72" d="M491.64,321.41l-.55-.33,3.35-.02-2.8.35Z"/>
          <path class="uuid-42e1182c-2e02-4f8e-a720-2843d9ebbd72" d="M489.19,333.52l-.14-22.41h.27l-.12,22.41Z"/>
          <path class="uuid-42e1182c-2e02-4f8e-a720-2843d9ebbd72" d="M471.31,345.19v-.35l1.22.12-1.22.22Z"/>
          <path class="uuid-4945ed0c-c0df-46e5-9b24-124b99656be7" d="M433.35,96.11l-.18-1,.14.1.04.9Z"/>
          <path class="uuid-4945ed0c-c0df-46e5-9b24-124b99656be7" d="M399.1,97.95l1.29-.2,1.71.16-3,.04Z"/>
          <path class="uuid-4945ed0c-c0df-46e5-9b24-124b99656be7" d="M433.7,98.52l-.18-1.39.14.12.04,1.27Z"/>
          <path class="uuid-4945ed0c-c0df-46e5-9b24-124b99656be7" d="M393.84,101.07l-1.88-.06,1.92-.29-.04.35Z"/>
          <path class="uuid-4945ed0c-c0df-46e5-9b24-124b99656be7" d="M403.8,102.17l.02-.2.92.04-.94.16Z"/>
          <path class="uuid-4945ed0c-c0df-46e5-9b24-124b99656be7" d="M471.31,290.66l-.14.37h-.18v-8.88l.29.08.04,8.43Z"/>
          <path class="uuid-4945ed0c-c0df-46e5-9b24-124b99656be7" d="M471.25,320.66h-.27v-26.59l.2.02.06,26.57Z"/>
          <path class="uuid-4945ed0c-c0df-46e5-9b24-124b99656be7" d="M42.69,387.09v-.35l1.57.12-1.57.22Z"/>
          <path class="uuid-4945ed0c-c0df-46e5-9b24-124b99656be7" d="M471.25,391.17l.06-.33,3.37.06-3.43.27Z"/>
          <path class="uuid-4945ed0c-c0df-46e5-9b24-124b99656be7" d="M171.44,396.01l-.35-.35,2.29.06-1.94.29Z"/>
          <path class="uuid-4945ed0c-c0df-46e5-9b24-124b99656be7" d="M470.99,407.54v-16.37h.27l-.27,16.37Z"/>
          <path class="uuid-4945ed0c-c0df-46e5-9b24-124b99656be7" d="M446.58,414.54l-1.82-.08,1.98-.1-.16.18Z"/>
          <path class="uuid-d98507e3-6a91-43aa-afb0-8e54376181d7" d="M489.31,311.11h-.27v-5.45l.27.1v5.35Z"/>
          <path class="uuid-d98507e3-6a91-43aa-afb0-8e54376181d7" d="M479.72,338.7l-3.02-.06,2.98-.14.04.2Z"/>
          <path class="uuid-d98507e3-6a91-43aa-afb0-8e54376181d7" d="M159.92,402.89l2.29-.2,2.06.16-4.35.04Z"/>
          <path class="uuid-def6040b-39bf-4235-8bd8-7cdd96f3a43a" d="M401.39,92.28l-.94.08.06-.22.88.14Z"/>
          <path class="uuid-def6040b-39bf-4235-8bd8-7cdd96f3a43a" d="M403.02,98.07l-.29-.22.04-5.41.22.04.02,5.59Z"/>
          <path class="uuid-def6040b-39bf-4235-8bd8-7cdd96f3a43a" d="M471.33,1.05l.06,280.65.55.37-.67.16-.29-.08-.14-281.1.06-.24h.35l.08.24Z"/>
          <path class="uuid-def6040b-39bf-4235-8bd8-7cdd96f3a43a" d="M471.25,322h-.27v-1.35h.27v1.35Z"/>
          <path class="uuid-def6040b-39bf-4235-8bd8-7cdd96f3a43a" d="M404.8,411.7l2.29.02-.84.57-1.45-.59Z"/>
          <path class="uuid-12bc7c13-1faf-48ba-8c33-d2b9c6fe7734" d="M402.74,97.85l-.63.06-1.71-.16.06-5.39.94-.08,1.39.16-.04,5.41Z"/>
          <path class="uuid-12bc7c13-1faf-48ba-8c33-d2b9c6fe7734" d="M474.58,320.09l.33.47-1.82,1.24-1.84.2v-1.35l1.63-.78.65-.49,1.04.69Z"/>
          <path class="uuid-eee07b6e-3e0c-4a68-af29-0916580dc138" d="M479.68,288.1l.02.39-5.96.24-.98.37-1.45,1.55-.04-8.43.67-.16.59.18,7.14,5.86Z"/>
          <g id="uuid-2782d6f0-c600-4330-be01-35582274d1a4" data-name="Actor .0">
            <g>
              <path class="uuid-a0808ad5-580c-446f-9723-a5c4050adbb6" d="M470.94,320.64h.39l.57-.14.55-.27.53-.39.47-.49.43-.61.37-.67.29-.76.1-.41.1-.43.14-.86.04-.9-.02-.88-.12-.9-.2-.86-.29-.8-.35-.76-.41-.67-.47-.57-.53-.47-.55-.37-.57-.22-.47-.1"/>
              <path class="uuid-a0808ad5-580c-446f-9723-a5c4050adbb6" d="M502.29,309.07l.35,1.02.24,1.06.14,1.1.04,1.12-.06,1.1-.16,1.08-.27,1.04"/>
            </g>
            <path class="uuid-0664e356-a5ce-4b75-956b-03bbad3e536a" d="M489.07,305.55l8.12-.45.76-.02.73.14.71.31.69.45.65.59.59.71.51.84.45.94.29.71.29.8.2.86.1.78.02.12.02.9-.04.88-.14.88-.2.82-.24.8-.35.94-.47.86-.51.76-.61.61-.65.49-.69.33-.73.18-9.49.49"/>
          </g>
          <g id="uuid-43d4d0d5-9647-4f6f-9e0a-fce427eb2c63" data-name="Actor .1">
            <g>
              <path class="uuid-a0808ad5-580c-446f-9723-a5c4050adbb6" d="M383.59,410.15l.94.22.94-.1"/>
              <path class="uuid-a0808ad5-580c-446f-9723-a5c4050adbb6" d="M396.74,418.99l.1-.02.08-.04.08-.06.06-.08.04-.12,2.53-7.41"/>
              <path class="uuid-a0808ad5-580c-446f-9723-a5c4050adbb6" d="M403.82,418.6h-.04"/>
            </g>
            <path class="uuid-0664e356-a5ce-4b75-956b-03bbad3e536a" d="M406.41,411.7l-2.22,6.59-.06.1-.06.1-.08.06-.08.04-7.16.39-17.08-1.18-7.35-.49-.08-.02-.08-.06-.08-.08-.06-.1-.06-.12-2.51-7.76"/>
          </g>
          <g id="uuid-4e2f422a-eead-4983-b7a4-9522017fc719" data-name="Actor .2">
            <g>
              <path class="uuid-a0808ad5-580c-446f-9723-a5c4050adbb6" d="M407.63,120.18l-2.22-.14-2.16-.73-2.08-1.31-1.9-1.84-.69-.88"/>
              <path class="uuid-a0808ad5-580c-446f-9723-a5c4050adbb6" d="M409.76,119.75l-2.02-.67-2.08-1.31-.63-.59"/>
              <path class="uuid-a0808ad5-580c-446f-9723-a5c4050adbb6" d="M417.19,75.72h-.1"/>
              <path class="uuid-a0808ad5-580c-446f-9723-a5c4050adbb6" d="M422.35,109.77l3.51.22,1.86.04,1.59-.02,4.47-.2"/>
            </g>
            <g>
              <path class="uuid-0664e356-a5ce-4b75-956b-03bbad3e536a" d="M393.06,107.91l-.67.18-.53.29-.76.55-.41.45-.67,1.29-.12.47-.04.84-.04.41-.16,121.03.14,1.39.47,1.33.71,1.14,1.02,1.04,1.18.76,1.39.47.12.02,1.22.12,30.33,2.08,5.9-.31,1.08-.14,1-.55.86-.94.67-1.27.41-1.47.14-1.61.16-122.33-.08-.84-.2-.76-.33-.67-.43-.53-.51-.35-.53-.14-.61-.04v-7.86l-.2-3.94-.59-3.86-1-3.71-1.37-3.45-1.67-3.1-2-2.69-2.2-2.22-2.41-1.67-2.55-1.08-2.59-.49-5.63.22-1.84.35-.59.12-1.8.65-1.71.96-.47.33-1.61,1.22-1.49,1.49-1.37,1.76-.24.39"/>
              <path class="uuid-0664e356-a5ce-4b75-956b-03bbad3e536a" d="M407.63,120.18l2.16-.43,2.08-1.02,1.9-1.57,1-1.12,1.86-2.29,1.08-1.18.9-.86.65-.55.69-.47.67-.39.67-.29,1.04-.24"/>
            </g>
          </g>
          <g id="uuid-6a0c84e5-4ecb-4440-b786-86a4725bbcaa" data-name="Actor .3">
            <g>
              <path class="uuid-a0808ad5-580c-446f-9723-a5c4050adbb6" d="M391.55,101.32v.02l.06.02.12.02.27.04.24.02,8,.55,3.53-.18-10-.69"/>
              <path class="uuid-a0808ad5-580c-446f-9723-a5c4050adbb6" d="M402.94,107.66l-2.69.12v-5.8"/>
              <path class="uuid-a0808ad5-580c-446f-9723-a5c4050adbb6" d="M400.25,107.79l2.69.18"/>
              <path class="uuid-a0808ad5-580c-446f-9723-a5c4050adbb6" d="M400.25,97.91l.02-5.8"/>
              <path class="uuid-a0808ad5-580c-446f-9723-a5c4050adbb6" d="M402.94,102.17l7.92.55.67.02.53.02.61.02h.9l.59-.02.94-.02,1.37-.06-9.98-.69"/>
              <path class="uuid-a0808ad5-580c-446f-9723-a5c4050adbb6" d="M403.78,101.81v.33"/>
              <path class="uuid-a0808ad5-580c-446f-9723-a5c4050adbb6" d="M416.47,102.69l.08-1.47-.04-2.31-.02-.31"/>
            </g>
            <g>
              <path class="uuid-0664e356-a5ce-4b75-956b-03bbad3e536a" d="M400.39,116.32l-1.02-.51-1-.67-.33-.22-.94-.8-.88-.92-.84-1.04-.18-.27-.73-1.1-.67-1.22-.59-1.29-.53-1.39-.43-1.43-.33-1.49-.24-1.51-.12-1.14.02-.02.14-.04.41-.04.43-.02,1.22-.08-.06-1.45.04-2.2"/>
              <path class="uuid-0664e356-a5ce-4b75-956b-03bbad3e536a" d="M420.1,110.6l.55-1.1.73-1.96.55-2.12.35-2.22.16-2.27-.04-2.31-.27-2.31-.45-2.22-.63-2.14-.82-2-.98-1.82-1.14-1.63-1.04-1.14-.2-.24-1.37-1.12-1.45-.86-1.49-.57-1.53-.24-1.51.04-6.1.29-1.08.08-.45.08-1.06.24-1.04.39-.39.18-1,.53-.96.67-1.18,1.08-.84.92-.76,1.04-.69,1.14-.16.27-.59,1.22-.53,1.31-.43,1.37-.35,1.45-.24,1.47-.12,1.14.02.04.1.02.22.04.24.02,8.1.55,2.71-.14"/>
              <path class="uuid-0664e356-a5ce-4b75-956b-03bbad3e536a" d="M401.86,116.85l-1.47-.53"/>
              <path class="uuid-0664e356-a5ce-4b75-956b-03bbad3e536a" d="M400.27,92.11l2.69.18v5.8l7.9.55.63.02.82.04h1.65l.96-.02,1.57-.08"/>
              <path class="uuid-0664e356-a5ce-4b75-956b-03bbad3e536a" d="M401.86,116.85l1.08.22,1.53.12,7.31-.37,1.51-.2,1.41-.49"/>
              <path class="uuid-0664e356-a5ce-4b75-956b-03bbad3e536a" d="M406.49,101.99l-3.55.18v5.8"/>
            </g>
          </g>
          <g id="uuid-91a68f5a-2e2f-4b71-98fa-e56f9cfd8d4a" data-name="Actor .4">
            <g>
              <path class="uuid-a0808ad5-580c-446f-9723-a5c4050adbb6" d="M472.33,344.88h-.04"/>
              <path class="uuid-a0808ad5-580c-446f-9723-a5c4050adbb6" d="M470.94,337.48l1.67,1.78.08.1.06.14.02.16.02.16-.02.16-.06.14-.06.12-.08.08-1.63,1.1"/>
              <path class="uuid-a0808ad5-580c-446f-9723-a5c4050adbb6" d="M476.25,318.33l-.71,1.53-.8,1-.16.18-1.12.82-1.22.37-1.27-.08h-.02"/>
              <path class="uuid-a0808ad5-580c-446f-9723-a5c4050adbb6" d="M470.94,306.43h.02l1.27.08,1.22.53,1.12.98.96,1.33.71,1.61"/>
              <path class="uuid-a0808ad5-580c-446f-9723-a5c4050adbb6" d="M470.94,287.13l1.63,1.35.08.08.06.14.06.14.02.16-.02.16-.02.16-.06.12-.08.1-1.67,1.55"/>
              <path class="uuid-a0808ad5-580c-446f-9723-a5c4050adbb6" d="M475.05,338.62l.1-.06,6.61-4.53.08-.08.06-.08.04-.12.04-.12v-37.15l-.04-.12-.04-.12-.06-.1-.08-.08-6.61-5.45-.1-.06-.12-.02"/>
            </g>
            <g>
              <path class="uuid-0664e356-a5ce-4b75-956b-03bbad3e536a" d="M479.23,338.39l.45.47.08.12.06.14.04.16v.16l-.02.14-.04.14-.08.12-.08.08-7.12,4.9-.08.04h-.1l-1.39.08"/>
              <path class="uuid-0664e356-a5ce-4b75-956b-03bbad3e536a" d="M470.94,294.11l3.78-3.51.1-.06.1-.02,7.08-.39.1.02.1.06,6.61,5.45.08.08.06.1.06.12.02.14.02.12v36.88l-.02.12-.02.14-.06.1-.06.1-.08.06-6.61,4.55-.1.04-7.18.39-.1-.04-.1-.08-3.78-4.02"/>
              <path class="uuid-0664e356-a5ce-4b75-956b-03bbad3e536a" d="M478.45,290.33l1.22-1.14.08-.1.06-.14.04-.14v-.16l-.02-.16-.04-.16-.08-.12-.08-.1-7.12-5.86-.08-.04-.1-.04-1.39-.08"/>
              <path class="uuid-0664e356-a5ce-4b75-956b-03bbad3e536a" d="M476.25,318.33l.45-1.76.14-1.88-.14-1.92-.45-1.82"/>
            </g>
          </g>
          <g id="uuid-866ff8fe-4df0-49e5-baad-521cbb815617" data-name="Actor .5">
            <g>
              <path class="uuid-a0808ad5-580c-446f-9723-a5c4050adbb6" d="M443.49,404.83l-400.86-27.49"/>
              <path class="uuid-a0808ad5-580c-446f-9723-a5c4050adbb6" d="M42.63,330.31l9.37.65-2.35-.16"/>
              <path class="uuid-a0808ad5-580c-446f-9723-a5c4050adbb6" d="M42.63,303.6l337.74,23.14"/>
              <path class="uuid-a0808ad5-580c-446f-9723-a5c4050adbb6" d="M52,330.96l2.33.16-2.33-.16"/>
              <path class="uuid-a0808ad5-580c-446f-9723-a5c4050adbb6" d="M54.33,331.13l32.78,2.25-2.35-.16"/>
              <path class="uuid-a0808ad5-580c-446f-9723-a5c4050adbb6" d="M87.1,333.37l35.1,2.41-2.35-.16"/>
              <path class="uuid-a0808ad5-580c-446f-9723-a5c4050adbb6" d="M122.21,335.78l32.76,2.25-2.33-.16"/>
              <path class="uuid-a0808ad5-580c-446f-9723-a5c4050adbb6" d="M154.97,338.03l35.1,2.41-2.33-.16"/>
              <path class="uuid-a0808ad5-580c-446f-9723-a5c4050adbb6" d="M190.07,340.43l32.78,2.25-2.35-.16"/>
              <path class="uuid-a0808ad5-580c-446f-9723-a5c4050adbb6" d="M222.85,342.68l2.33.16-2.33-.16"/>
              <path class="uuid-a0808ad5-580c-446f-9723-a5c4050adbb6" d="M225.17,342.84l32.78,2.25-2.35-.16"/>
              <path class="uuid-a0808ad5-580c-446f-9723-a5c4050adbb6" d="M257.95,345.09l35.1,2.39-2.35-.14"/>
              <path class="uuid-a0808ad5-580c-446f-9723-a5c4050adbb6" d="M293.06,347.48l32.76,2.25-2.33-.14"/>
              <path class="uuid-a0808ad5-580c-446f-9723-a5c4050adbb6" d="M325.81,349.72l35.1,2.41-2.33-.14"/>
              <path class="uuid-a0808ad5-580c-446f-9723-a5c4050adbb6" d="M360.92,352.13l32.78,2.25-2.35-.14"/>
              <path class="uuid-a0808ad5-580c-446f-9723-a5c4050adbb6" d="M393.69,354.37l2.33.16-2.33-.16"/>
              <path class="uuid-a0808ad5-580c-446f-9723-a5c4050adbb6" d="M396.02,354.54l3.84.27"/>
              <path class="uuid-a0808ad5-580c-446f-9723-a5c4050adbb6" d="M400.08,254.43l.63.06-.86-.06"/>
              <path class="uuid-a0808ad5-580c-446f-9723-a5c4050adbb6" d="M400.72,254.49l3.31.22v106.64"/>
              <path class="uuid-a0808ad5-580c-446f-9723-a5c4050adbb6" d="M403.04,254.65l1.2.06h-.22"/>
              <path class="uuid-a0808ad5-580c-446f-9723-a5c4050adbb6" d="M404.25,254.72v106.64"/>
              <path class="uuid-a0808ad5-580c-446f-9723-a5c4050adbb6" d="M404.02,66.52V.72"/>
              <path class="uuid-a0808ad5-580c-446f-9723-a5c4050adbb6" d="M404.25.72v65.78"/>
              <path class="uuid-a0808ad5-580c-446f-9723-a5c4050adbb6" d="M445.58,414.4l1.08-.14,1-.55.86-.94.65-1.24.43-1.49.14-1.63V.72"/>
              <path class="uuid-a0808ad5-580c-446f-9723-a5c4050adbb6" d="M466.25,413.24l.53.04"/>
              <path class="uuid-a0808ad5-580c-446f-9723-a5c4050adbb6" d="M486.86,390.09l.59.04"/>
            </g>
            <g>
              <path class="uuid-0664e356-a5ce-4b75-956b-03bbad3e536a" d="M42.63,386.78l402.94,27.61,21.21-1.12,1.08-.14,1-.57.86-.92.67-1.27.41-1.49.14-1.61V.72"/>
              <path class="uuid-0664e356-a5ce-4b75-956b-03bbad3e536a" d="M42.63,377.38l400.86,27.47V.72"/>
              <path class="uuid-0664e356-a5ce-4b75-956b-03bbad3e536a" d="M404.25,361.35l-361.61-24.76"/>
              <path class="uuid-0664e356-a5ce-4b75-956b-03bbad3e536a" d="M386.59.72v335.9l-343.96-23.57"/>
              <path class="uuid-0664e356-a5ce-4b75-956b-03bbad3e536a" d="M42.63,303.64l337.74,23.14V.72"/>
              <path class="uuid-0664e356-a5ce-4b75-956b-03bbad3e536a" d="M399.86,354.8v-100.37l.22.02"/>
              <path class="uuid-0664e356-a5ce-4b75-956b-03bbad3e536a" d="M399.86.72v65.51l4.39.27"/>
              <path class="uuid-0664e356-a5ce-4b75-956b-03bbad3e536a" d="M491.62,321.13v63l-.14,1.63-.41,1.49-.67,1.24-.86.94-1,.55-1.08.14-16.51.88"/>
              <path class="uuid-0664e356-a5ce-4b75-956b-03bbad3e536a" d="M491.62.72v304.69"/>
            </g>
          </g>
          <g id="uuid-d22d0d5e-04e9-4555-a60f-5e1cd1d45172" data-name="Actor .6">
            <g>
              <path class="uuid-a0808ad5-580c-446f-9723-a5c4050adbb6" d="M148.66,394.05l.94.22.94-.1"/>
              <path class="uuid-a0808ad5-580c-446f-9723-a5c4050adbb6" d="M161.8,402.89l.1-.02.08-.04.08-.06.06-.08.04-.12,2.53-7.41"/>
              <path class="uuid-a0808ad5-580c-446f-9723-a5c4050adbb6" d="M168.88,402.5h-.04"/>
            </g>
            <path class="uuid-0664e356-a5ce-4b75-956b-03bbad3e536a" d="M171.48,395.6l-2.22,6.59-.06.1-.06.1-.08.06-.08.04h-.08l-7.08.39-24.43-1.67-.08-.02-.08-.06-.08-.08-.06-.1-.06-.12-2.51-7.76"/>
          </g>
          <path class="uuid-f996c48a-664a-44cd-9145-5ad727f8bfe1" d="M441.43,114.87l-2,9.12-3.04,8.39-3.98,7.39-4.8,6.18-5.47,4.78-5.98,3.25-6.31,1.59-6.45-.1-6.37-1.8-6.12-3.41-5.67-4.96-5.06-6.33-4.29-7.53-3.39-8.49-2.39-9.18-1.33-9.59-.2-9.76.92-9.57,2-9.1,3.04-8.39,3.98-7.39,4.82-6.18,5.47-4.8,5.98-3.22,6.29-1.59,6.45.1,6.37,1.78,6.12,3.43,5.67,4.96,3.61-8.14,10.86,31.35-22.94-4.18,3.61-8.14-4.31-3.76-4.65-2.61-4.84-1.37-4.9-.06-4.8,1.2-4.55,2.47-4.16,3.63-3.63,4.69-3.04,5.63-2.31,6.37-1.53,6.94-.69,7.27.16,7.41,1,7.31,1.82,6.98,2.57,6.45,3.27,5.74,3.86,4.82,4.31,3.76,4.65,2.61,4.86,1.35,4.88.08,4.8-1.2,4.55-2.47,4.16-3.63,3.65-4.69,3.02-5.63,2.31-6.37,1.53-6.94.69-7.27,8.84,1.29-.92,9.57Z"/>
        </g>
        <path class="uuid-200a87e5-00b5-4850-a976-7b4e812a4b80" d="M440.17,77.64c-3.62-10.45-7.24-20.9-10.86-31.35-1.2,2.71-2.41,5.43-3.61,8.14-1.95-2.25-6.84-7.28-14.72-9.2-9.93-2.43-18.1,1.66-20.45,2.84-22.21,11.12-22.59,47.73-22.59,50.98.01,5.53.07,33.17,19.88,48.5,3.56,2.75,11.71,9.06,22.04,8.02,15.28-1.54,23.82-17.97,26.53-23.19,5.77-11.11,6.15-21.65,5.96-27.08-2.95-.43-5.89-.86-8.84-1.29.03,3.18-.29,7.72-1.92,12.81-.44,1.38-8.13,24.59-24.04,25.37-13.06.65-23.16-13.86-25.95-21.77-.8-2.26-2.03-6.93-2.92-11.81-.64-3.55-1.18-6.52-1.21-10.54-.04-5.58.92-9.81,1.67-12.99,1.06-4.54,1.97-8.42,4.2-12.5,1.97-3.61,6.8-12.52,16.51-14.48,11.08-2.25,19.99,6.25,20.98,7.22-1.2,2.71-2.41,5.43-3.61,8.14,7.65,1.39,15.29,2.79,22.94,4.18Z"/>
      </g>
    </g>
    <g>
      <path class="uuid-cd8b4442-7571-419c-bedd-9809162a830c" d="M299.79,90.57c21.19.43,42.38.87,63.56,1.3,3.24.58,27.01,4.92,26.78,8.94-.23,4.02-24.19,5.6-27.51,5.81-22.09-.53-44.18-1.06-66.27-1.59"/>
      <path class="uuid-f3a5044d-7446-403a-bcfc-6e3a19300158" d="M376.32,95.28c.83,2.73,2.34,3.89,3,4.32,1.3.84,2.71.96,5.48,1.17,2.19.16,4.02.13,5.33.06"/>
      <path class="uuid-f3a5044d-7446-403a-bcfc-6e3a19300158" d="M375.65,105.83c.98-2.68,2.56-3.75,3.24-4.14,1.35-.76,2.76-.8,5.54-.85,2.19-.04,4.02.1,5.33.24"/>
    </g>
    <g>
      <ellipse class="uuid-37faa79f-a70e-4bdb-90ed-91f4fd349b9e" cx="413.06" cy="131.59" rx="121.32" ry="121.55"/>
      <ellipse class="uuid-12f0fe86-c72c-42f2-b718-7693b5b52f0f" cx="412.94" cy="131.74" rx="118.72" ry="118.94"/>
    </g>
  </g>
</svg>