<?xml version="1.0" encoding="utf-8"?>
<!-- Generator: Adobe Illustrator 28.3.0, SVG Export Plug-In . SVG Version: 6.00 Build 0)  -->
<svg version="1.1" id="uuid-e0be12e9-df68-4d51-af18-1f928e07031d"
	 xmlns="http://www.w3.org/2000/svg" xmlns:xlink="http://www.w3.org/1999/xlink" x="0px" y="0px" viewBox="0 0 590.4 286.2"
	 style="enable-background:new 0 0 590.4 286.2;" xml:space="preserve">
<style type="text/css">
	.st0{fill:none;stroke:#FFFFFF;stroke-width:0.23;stroke-miterlimit:9.9996;}
	.st1{clip-path:url(#SVGID_00000159455871636296595570000013827589234826855042_);}
	.st2{fill-rule:evenodd;clip-rule:evenodd;fill:#FFFFFF;}
	.st3{fill:none;}
	.st4{fill-rule:evenodd;clip-rule:evenodd;fill:#FFFFFF;stroke:#1E1E1C;stroke-width:0.6299;stroke-miterlimit:9.9996;}
	.st5{fill-rule:evenodd;clip-rule:evenodd;fill:#0A0D1C;}
	.st6{fill-rule:evenodd;clip-rule:evenodd;fill:#080915;}
	.st7{fill-rule:evenodd;clip-rule:evenodd;fill:#CDCCCC;}
	.st8{fill:none;stroke:#010101;stroke-width:0.6299;stroke-linecap:round;stroke-linejoin:round;stroke-miterlimit:3.9998;}
	.st9{fill:none;stroke:#010101;stroke-width:1.2597;stroke-linecap:round;stroke-linejoin:round;stroke-miterlimit:3.9998;}
	
		.st10{fill-rule:evenodd;clip-rule:evenodd;fill:#1E1E1C;stroke:#1E1E1C;stroke-width:0.8898;stroke-linecap:round;stroke-linejoin:round;stroke-miterlimit:3.9998;}
	.st11{fill:none;stroke:#FFFFFF;stroke-width:3.5292;stroke-miterlimit:9.9996;}
	.st12{fill:none;stroke:#010101;stroke-width:1.1898;stroke-miterlimit:9.9996;}
	.st13{fill:none;stroke:#FFFFFF;stroke-width:3.5343;stroke-miterlimit:9.9996;}
	.st14{clip-path:url(#SVGID_00000030456196083217386050000003056576175471010467_);}
	.st15{fill-rule:evenodd;clip-rule:evenodd;fill:#FFFFFF;stroke:#010101;stroke-width:0.72;stroke-miterlimit:9.9996;}
	.st16{fill:#FFFFFF;}
	.st17{fill:none;stroke:#010101;stroke-width:0.72;stroke-linecap:round;stroke-linejoin:round;stroke-miterlimit:3.9998;}
	.st18{fill:none;stroke:#010101;stroke-width:1.4399;stroke-linecap:round;stroke-linejoin:round;stroke-miterlimit:3.9998;}
	.st19{fill-rule:evenodd;clip-rule:evenodd;}
	.st20{fill:#FFFFFF;stroke:#010101;stroke-width:0.72;stroke-miterlimit:9.9996;}
	.st21{fill-rule:evenodd;clip-rule:evenodd;fill:#FFFFFF;stroke:#1E1E1C;stroke-width:1.4399;stroke-miterlimit:9.9996;}
	.st22{fill:none;stroke:#1E1E1C;stroke-width:0.72;stroke-linecap:round;stroke-miterlimit:9.9996;}
	.st23{fill:none;stroke:#010101;stroke-width:1.2199;stroke-miterlimit:9.9996;}
	.st24{fill:none;stroke:#FFFFFF;stroke-width:3.6398;stroke-miterlimit:9.9996;}
	.st25{fill:none;stroke:#000000;stroke-width:0.7309;stroke-miterlimit:10;}
</style>
<g>
	<ellipse class="st0" cx="137" cy="146.2" rx="115.4" ry="115.6"/>
	<g>
		<g>
			<g>
				<defs>
					<ellipse id="SVGID_1_" cx="149.8" cy="144" rx="118" ry="118.2"/>
				</defs>
				<clipPath id="SVGID_00000069356495913873348880000017195625037629814716_">
					<use xlink:href="#SVGID_1_"  style="overflow:visible;"/>
				</clipPath>
				<g style="clip-path:url(#SVGID_00000069356495913873348880000017195625037629814716_);">
					<g>
						<path class="st2" d="M128.8,11.3c-9.7,1.8-19.2,4.3-28.4,7.5c-14,6.9-27.4,15.4-40.1,24.6C48.4,53.3,37.4,64.1,27.4,76
							c-3.7,5.1-7.1,10.4-10.3,15.8c-1,17.2,0,34.5,0.7,51.7c0.5,10.7,0.9,21.5,0.5,32.2c-0.3,8.2-1.6,16.2-1.8,24.3
							c0.9,3.2,1.9,6.3,3.1,9.5c5.2,11.7,10.6,23.3,15.3,35.3c1.8,4.7,2.7,9.6,3,14.6c4,8.4,7.2,17,9.7,25.8
							c11.3,3.6,22.7,6.7,34.4,8.8c33.4,3.1,67.4,1.3,100.8,1.2c4.2,0,8.5,0,12.7,0V10.6C173.2,9.7,150.9,9.3,128.8,11.3z"/>
						<path class="st3" d="M166.1,126.6l0.2,41.7l-7.1,0.2l0.1-43.9L166.1,126.6L166.1,126.6z"/>
						<path class="st4" d="M171,240.8l2.1,4.2v1.6l-3,2.4l-5.2,3.8l-1.9,0.4l-2.7-0.2l-10.2-2.9l-12.8-3.9l-2-1.5l-0.3-0.3v-0.6
							l0.6,0.3l22.1,6.6h1.7l1.8-0.6l2.7-1.8l0.1-0.6l-63.3-107.9l1.9-1.7l5.7-4.3L171,240.8L171,240.8L171,240.8z"/>
						<path class="st5" d="M104,111.1v-1.2l0.1,0.1L104,111.1L104,111.1z"/>
						<path class="st5" d="M68.4,129.8l-0.7-0.1l0.5-0.2l0.3,0.1L68.4,129.8L68.4,129.8z"/>
						<path class="st5" d="M166.5,170.3l-0.2-2h0.2V170.3L166.5,170.3z"/>
						<path class="st6" d="M166.1,126.6l0.4,0.1l0.1,41.6h-0.2L166.1,126.6L166.1,126.6L166.1,126.6z"/>
						<path class="st6" d="M213.4,293.5l0.1-282.1c-0.1,0-0.3,0-0.4,0l0.1,282.1H213.4z"/>
						<path class="st6" d="M248.2,13.2l0.1,283.7c0.1,0,0.2,0,0.3,0l0.1-283.7C248.5,13.2,248.4,13.2,248.2,13.2z"/>
						<path class="st7" d="M67.2,125.2l1.8,3l0.3,1l-0.8,0.5l-0.3-0.1l-2.5-4.1l-0.1-0.5h0.7L67.2,125.2L67.2,125.2L67.2,125.2z"/>
						<path class="st7" d="M75.3,131.8l-2.7,1.9v0.8l1.5,2.4l0.3,1l-0.9,0.6l-3.1-4.9v-0.3l2-1.5l0.3-0.6L75.3,131.8L75.3,131.8
							L75.3,131.8z"/>
						<path class="st7" d="M73.5,141.8h-0.6l-0.7-0.9h0.3L73.5,141.8L73.5,141.8z"/>
						<path class="st7" d="M75.1,143.2l-0.7-0.2l-0.4-0.6h0.3L75.1,143.2L75.1,143.2L75.1,143.2z"/>
						<path class="st7" d="M78.9,148.4v0.4l-0.3-0.1V148L78.9,148.4L78.9,148.4z"/>
						<path class="st7" d="M81.9,153.4v0.4l-0.3-0.1v-0.6L81.9,153.4L81.9,153.4L81.9,153.4z"/>
						<g id="uuid-f67f698a-7740-43b7-96ba-6d25f5f2bcd3">
							<g>
								<path class="st8" d="M89.3,145.2l-0.9,0.6l-1.2,0.1l-1.6-0.5l-1.1-0.6"/>
								<path class="st8" d="M90.1,141.3l-0.7-0.3"/>
								<path class="st8" d="M93.9,134.6l2.3,0.7h0.2h0.3l0.4-0.1l0.9-0.3l0.8-0.3l0.8-0.4l0.7-0.5l4.2-3.1"/>
							</g>
							<g>
								<path class="st9" d="M66.1,111.4l-0.5-1.9l-0.2-1.5v-0.8v-1.3l0.4-1.9l0.5-0.8l0.4-0.7l0.6-0.6l0.7-0.6l4.4-3.2l1.3-0.3
									l1.7,0.3l2,0.8l2.3,1.3l2.5,1.9l2.7,2.3l2.8,2.7l2.8,3l2.7,3.2l2.6,3.4l2.4,3.5l2.2,3.5l4.1,6.9l0.4,0.1l0.4,0.2l0.5,0.4
									l0.5,0.5l0.6,0.6l0.5,0.7l0.5,0.7L171.5,242l0.7,1.4l0.5,1.2l0.2,1l-0.1,0.7l-0.4,0.3l-6.3,4.7l-0.5,0.4L165,252l-0.6,0.3
									l-0.6,0.2l-0.5,0.1l-1.7,0.1l-0.5-0.1l-1.3-0.2l-21.8-6.5l-1.2-0.6l-0.5-0.3l-1.1-0.9l-0.9-1.1l-1.1-2l0.1,0.1"/>
								<path class="st9" d="M106.7,196.2l1.2,2L76.1,144"/>
								<path class="st9" d="M103.1,190L76,144"/>
								<path class="st9" d="M107.9,198.2l23,39.1l-54.3-93.1"/>
								<path class="st9" d="M89.3,145.2l0.5-1.1l0.1-0.8v-0.8l0.2-1.3l0.3-1.3l0.4-1.1l0.4-0.8l0.4-0.8l0.5-0.8l0.6-0.7l1-1"/>
								<path class="st9" d="M104.3,192l1.2,2"/>
								<path class="st9" d="M113,206.8l0.9,1.6"/>
								<path class="st9" d="M130.9,237.4l2.4,4.1"/>
							</g>
						</g>
						<g id="uuid-dc30198c-f0c1-4de2-bde5-4fab7fdebf5f">
							<g>
								<path class="st8" d="M64.4,131.4L64.4,131.4l0.3,0.2h0.1l5.7,1.7l3,5.1l1.1-0.8"/>
								<path class="st8" d="M65.3,124.6l3,5.1"/>
								<path class="st8" d="M69.4,128.9L69.4,128.9"/>
								<path class="st8" d="M70.4,133.3l2.8-2.1"/>
								<path class="st8" d="M73.4,138.4l2,0.6"/>
								<path class="st8" d="M72.3,133.8l5.7,1.7l0.2,0.1h0.4l0.3-0.1l0.4-0.1l0.2-0.1l0.4-0.1l0.4-0.2l0.6-0.3l0.6-0.3l0.4-0.3
									l1.5-1.1l-5.2-1.6"/>
								<path class="st8" d="M75.2,131.8L75.2,131.8"/>
								<path class="st8" d="M83.5,133l-0.7-1.3l-1.2-2l-0.2-0.3"/>
								<path class="st8" d="M97.9,104.9l0.2,0.1l0.3,0.1l0.7,0.4l0.8,0.7l0.8,0.8l0.8,1l0.8,1l0.6,1l0.5,1l0.3,0.9l0.1,0.7"/>
								<path class="st8" d="M103.5,113.3L103.5,113.3"/>
							</g>
							<g>
								<path class="st9" d="M69.4,128.9l-1.1,0.8l-5.7-1.7l-0.1-0.1l-0.1-0.1l-0.1-0.1l-0.4-0.8l-0.5-1.2l-0.5-1.1l-0.4-1.1l-0.3-1
									l-0.1-0.5l-0.2-1l-0.1-0.9v-1.4l0.1-0.7l0.1-0.6l0.2-0.5l0.2-0.6l0.3-0.4l0.4-0.5l0.5-0.4l0.4-0.3l7.6-5.7l0.6-0.4l0.8-0.1
									l1,0.2l1.2,0.5l1.3,0.7l1.4,1l1.5,1.2l0.7,0.6l0.9,0.8l1.6,1.6l1.6,1.8l1.6,1.9l1.5,2l1.5,2l1.3,2.1l1.2,2l1.1,2l0.9,1.9
									l0.7,1.8l0.5,1.6l0.3,1.4"/>
								<path class="st9" d="M66.2,133.9l-0.4-0.5l-1.4-2.1v-0.1V131v-0.2l0.1-0.2l0.1-0.1l0.2-0.2l0.1-0.1l0.2-0.3l0.3-0.3l0.2-0.1
									l0.3-0.3l0.3-0.2"/>
								<path class="st9" d="M65.3,124.6l1.9,0.6l3,5.1l5.7,1.7H76h0.3h0.1h0.3l0.4-0.1l0.5-0.2l0.6-0.2l0.4-0.2l0.6-0.3l0.4-0.2
									l0.4-0.3l1.3-1"/>
								<path class="st9" d="M65.8,133.5L65.8,133.5l0.9,1.2l1,1.2l1,1.2l1,1.2l1,1.1l1,1l1,0.9l1,0.9l1,0.8l0.9,0.7l0.9,0.6
									l0.5,0.2l0.9,0.5l0.8,0.3l1.3,0.4l0.7,0.1l0.6,0.1l0.6-0.1l0.6-0.1l1.1-0.4l0.5-0.3l6.2-4.7"/>
								<path class="st9" d="M75.4,139l-3-5.1l2.8-2.1"/>
								<path class="st9" d="M90.6,110.2l6.9-5.1l0.4-0.1l2.4,0.4l0.2,0.1l0.5,0.3l0.5,0.4l0.5,0.5l0.5,0.6l0.5,0.7l0.4,0.7l0.3,0.7
									l0.2,0.6l0.1,0.5l-0.2,2.2l-0.1,0.5l-6.9,5.2"/>
							</g>
						</g>
						<g id="uuid-c49fba32-07c6-4b78-8931-5e746b531880">
							<g>
								<path class="st8" d="M152.5,293.4c0.9-9.2-1.1-18.2,0.9-28.2c0-3-1-5-3.9-5.8"/>
								<path class="st8" d="M149.8,259.4l3,0.9h-0.3"/>
								<path class="st8" d="M152.8,260.3c-0.4,10.9-0.4,22.9,0,33.4"/>
								<path class="st8" d="M152.5,56.4c-0.1-14.1-0.1-29.1,0-43.5"/>
								<path class="st8" d="M152.8,56.4c-0.4-14.1-0.4-29.1,0-43.5"/>
								<path class="st8" d="M159.1,168.6l7.5-0.5"/>
								<path class="st8" d="M185.4,292.5c0-93.3,0-186.2,0-279.6"/>
							</g>
							<g>
								<path class="st9" d="M135.7,293.6c-0.3-16.5-0.3-32.5,0-48.8"/>
								<path class="st9" d="M135.7,180.9c-0.3-55.8-0.3-110.8,0-167"/>
								<path class="st9" d="M140.1,293.5c0.3-15.3,0.3-31.3,0-46.5"/>
								<path class="st9" d="M140.1,188.6V188V188.6"/>
								<path class="st9" d="M140.1,187.9c0.3-57.8,0.3-115.8,0-174.1"/>
								<path class="st9" d="M149.5,293.5c-0.1-11.3-0.1-23.3,0.3-34"/>
								<path class="st9" d="M152.8,56.4c-1.4-0.1-2.4-0.1-2.4-0.1c-3-14,0-28-0.9-42.3"/>
								<path class="st9" d="M160.2,169l-1.1-0.3v-44.2l7.5,2.2v44.2L160.2,169"/>
								<path class="st9" d="M180.9,292.5c0.5-93.3,0.5-186.2,0-279.6"/>
								<path class="st9" d="M213.3,13.8c0.1,93.4,0.1,186.3,0,279.8"/>
								<path class="st9" d="M269.8,296.6c-0.4-93.4-0.4-186.3,0-279.7"/>
								<path class="st9" d="M248.4,294.6c0-93.4,0-185.3,0-278.6"/>
							</g>
						</g>
						<path class="st10" d="M159.6,77.2c0-0.9,0.8-1.9,1.6-1.8c0.7,0.1,1.2,1.1,1.2,1.8c0,0.9-0.5,2-1.3,2
							C160.4,79.3,159.6,78.2,159.6,77.2L159.6,77.2L159.6,77.2z"/>
						<path class="st4" d="M103.1,102.3c12.6-6.6,25.2-13.1,37.7-19.7c-1.1-2.1-2.2-4.3-3.3-6.4c8.1,0.3,16.1,0.5,24.2,0.8
							c-4.3,6.9-8.7,13.8-13,20.7c-1.1-2.1-2.2-4.3-3.3-6.4c-12.6,6.6-25.2,13.1-37.7,19.7C106.2,108.1,104.6,105.2,103.1,102.3
							L103.1,102.3z"/>
					</g>
				</g>
			</g>
		</g>
	</g>
	<ellipse class="st11" cx="149.7" cy="144.2" rx="115.4" ry="115.6"/>
	<g>
		<ellipse class="st12" cx="149.8" cy="144" rx="118" ry="118.2"/>
		<ellipse class="st13" cx="149.7" cy="143.9" rx="115.4" ry="115.9"/>
	</g>
</g>
<g>
	<g>
		<g>
			<g>
				<defs>
					<ellipse id="SVGID_00000151515879846230354910000017928023039345027236_" cx="434.5" cy="147.5" rx="118.7" ry="118.9"/>
				</defs>
				<clipPath id="SVGID_00000158715776790429541780000005598010614396000919_">
					<use xlink:href="#SVGID_00000151515879846230354910000017928023039345027236_"  style="overflow:visible;"/>
				</clipPath>
				<g style="clip-path:url(#SVGID_00000158715776790429541780000005598010614396000919_);">
					<g>
						<g>
							<path class="st2" d="M81.9,293.9c33.4,3.1,67.4,1.3,100.8,1.2c32.6-0.2,64.9,0.9,97.3,4.9c32.5,4,65,9.4,97.8,10.3
								c15.7,0.4,31.4-0.9,47.1-1.4c15.4-0.6,30.8-0.7,46.2-0.8l0.1-289.2c-13.2-0.2-26.4-0.7-39.7-0.7c-36.1,0-72.3,0.9-108.4-0.8
								c-4.1-0.2-8.3-0.4-12.4-0.6H106.4c-2,0.6-4.1,1.3-6.1,2C87.8,25,75.7,32.5,64.1,40.6v249.3C70,291.5,75.9,292.8,81.9,293.9z"
								/>
							<path class="st2" d="M547.5,308.3c1.7-5.9,3.1-11.9,4.1-18.1c2.2-19.3,3.9-38.6,7.2-57.9c3.3-19,7-37.9,9.9-57
								c3.9-32.2,6.2-65.5,3.5-97.8c-0.2-0.9-0.4-1.7-0.6-2.6c-0.4-0.4-0.8-0.8-1.3-1.2c-8.8-5.9-17.9-11.3-26.5-17.6
								c-10.5-7.7-20.6-15.8-30.8-24v276c3.5,0,6.9,0,10.4,0C531.4,308.2,539.5,308.4,547.5,308.3z"/>
							<path class="st7" d="M424.2,118.2l-0.2,5.3h-2.2V118h2.3L424.2,118.2L424.2,118.2z"/>
							<path class="st6" d="M425.2,118.1l-1,0.1l-0.1-0.3h1.1V118.1L425.2,118.1z"/>
							<path class="st15" d="M416.2,253.6l24.9,1.7h4.7l3.4-2.1l1.2-1.5l0.3-122.3l1.2-1.2l5.6-0.2l0.4-0.4v103.1l-0.2,22.5
								l-0.2,0.9l-1,2l-1.6,1.2l-1,0.2l-3.1,0.1h-5.5l-29.3-2l-2.4-1l-1.2-1.4L416.2,253.6L416.2,253.6z"/>
							<path class="st16" d="M496.9,306.4l-1,0.3l-1.4,1.3c3.9,0,7.7,0,11.6,0l-2.5-2.1L496.9,306.4z"/>
							<path class="st5" d="M454.8,112l-0.2-1l0.1,0.1L454.8,112L454.8,112z"/>
							<path class="st5" d="M420.5,113.9l1.3-0.2l1.7,0.2C423.5,113.8,420.5,113.9,420.5,113.9z"/>
							<path class="st5" d="M455.1,114.5l-0.2-1.4l0.1,0.1L455.1,114.5L455.1,114.5z"/>
							<path class="st5" d="M415.2,117l-1.9-0.1l1.9-0.3V117z"/>
							<path class="st5" d="M425.2,118.1v-0.2h0.9C426.1,117.9,425.2,118.1,425.2,118.1z"/>
							<path class="st5" d="M492.7,306.6l-0.1,0.4h-0.2v-8.9l0.3,0.1V306.6L492.7,306.6z"/>
							<path class="st6" d="M422.8,108.2l-0.9,0.1l0.1-0.2L422.8,108.2z"/>
							<path class="st6" d="M424.4,114l-0.3-0.2v-5.4h0.2L424.4,114L424.4,114z"/>
							<path class="st6" d="M492.7,298.2l0.7-0.2l-0.5-0.4l-0.1-278.9c-0.2,0-0.3,0-0.5,0l0.1,279.3L492.7,298.2z"/>
							<path class="st7" d="M424.1,113.8l-0.6,0.1l-1.7-0.2l0.1-5.4l0.9-0.1l1.4,0.2L424.1,113.8L424.1,113.8z"/>
							<path class="st2" d="M501.1,304v0.4l-6,0.2l-1,0.4l-1.4,1.5v-8.4l0.7-0.2l0.6,0.2L501.1,304L501.1,304z"/>
							<g id="uuid-4e2f422a-eead-4983-b7a4-9522017fc719">
								<g>
									<path class="st17" d="M429,136.1l-2.2-0.1l-2.2-0.7l-2.1-1.3l-1.9-1.8l-0.7-0.9"/>
									<path class="st17" d="M431.2,135.7l-2-0.7l-2.1-1.3l-0.6-0.6"/>
									<path class="st17" d="M438.6,91.7h-0.1"/>
									<path class="st17" d="M443.8,125.7l3.5,0.2h1.9h1.6l4.5-0.2"/>
								</g>
								<g>
									<path class="st18" d="M414.5,123.8l-0.7,0.2l-0.5,0.3l-0.8,0.5l-0.4,0.4l-0.7,1.3l-0.1,0.5v0.8v0.4l-0.2,121l0.1,1.4
										l0.5,1.3l0.7,1.1l1,1l1.2,0.8l1.4,0.5h0.1l1.2,0.1l30.3,2.1l5.9-0.3l1.1-0.1l1-0.5l0.9-0.9l0.7-1.3l0.4-1.5l0.1-1.6
										l0.2-122.3l-0.1-0.8l-0.2-0.8l-0.3-0.7l-0.4-0.5l-0.5-0.3l-0.5-0.1h-0.6v-7.9l-0.2-3.9l-0.6-3.9l-1-3.7l-1.4-3.4l-1.7-3.1
										l-2-2.7l-2.2-2.2l-2.4-1.7l-2.5-1.1l-2.6-0.5l-5.6,0.2l-1.8,0.3l-0.6,0.1l-1.8,0.6l-1.7,1l-0.5,0.3l-1.6,1.2l-1.5,1.5
										l-1.4,1.8l-0.2,0.4"/>
									<path class="st18" d="M429,136.1l2.2-0.4l2.1-1l1.9-1.6l1-1.1l1.9-2.3l1.1-1.2l0.9-0.9l0.6-0.5l0.7-0.5l0.7-0.4l0.7-0.3
										l1-0.2"/>
								</g>
							</g>
							<g id="uuid-6a0c84e5-4ecb-4440-b786-86a4725bbcaa">
								<g>
									<path class="st17" d="M413,117.3L413,117.3L413,117.3l0.2,0.1h0.3h0.2l8,0.5l3.5-0.2l-10-0.7"/>
									<path class="st17" d="M424.3,123.6l-2.7,0.1v-5.8"/>
									<path class="st17" d="M421.7,123.7l2.7,0.2"/>
									<path class="st17" d="M421.7,113.8V108"/>
									<path class="st17" d="M424.3,118.1l7.9,0.5h0.7h0.5h0.6h0.9h0.6h0.9l1.4-0.1l-10-0.7"/>
									<path class="st17" d="M425.2,117.7v0.3"/>
									<path class="st17" d="M437.9,118.6l0.1-1.5v-2.3v-0.3"/>
								</g>
								<g>
									<path class="st18" d="M421.8,132.3l-1-0.5l-1-0.7l-0.3-0.2l-0.9-0.8l-0.9-0.9l-0.8-1l-0.2-0.3l-0.7-1.1l-0.7-1.2l-0.6-1.3
										l-0.5-1.4l-0.4-1.4l-0.3-1.5l-0.2-1.5l-0.1-1.1l0,0h0.1h0.4h0.4l1.2-0.1l-0.1-1.4v-2.2"/>
									<path class="st18" d="M441.5,126.5l0.5-1.1l0.7-2l0.5-2.1l0.4-2.2l0.2-2.3v-2.3l-0.3-2.3l-0.4-2.2l-0.6-2.1l-0.8-2l-1-1.8
										l-1.1-1.6l-1-1.1l-0.2-0.2l-1.4-1.1l-1.4-0.9l-1.5-0.6l-1.5-0.2h-1.5l-6.1,0.3l-1.1,0.1l-0.4,0.1l-1.1,0.2l-1,0.4l-0.4,0.2
										l-1,0.5l-1,0.7l-1.2,1.1l-0.8,0.9l-0.8,1l-0.7,1.1l-0.2,0.3l-0.6,1.2l-0.5,1.3l-0.4,1.4l-0.4,1.4l-0.2,1.5l-0.1,1.1l0,0
										h0.1h0.2h0.2l8.1,0.5l2.7-0.1"/>
									<path class="st18" d="M423.3,132.8l-1.5-0.5"/>
									<path class="st18" d="M421.7,108l2.7,0.2v5.8l7.9,0.5h0.6h0.8h1.6h1l1.6-0.1"/>
									<path class="st18" d="M423.3,132.8l1.1,0.2l1.5,0.1l7.3-0.4l1.5-0.2l1.4-0.5"/>
									<path class="st18" d="M427.9,117.9l-3.5,0.2v5.8"/>
								</g>
							</g>
							<g id="uuid-91a68f5a-2e2f-4b71-98fa-e56f9cfd8d4a">
								<g>
									<path class="st17" d="M492.3,303.1c0.8,0.7,2.5,1.5,1.5,2.6"/>
								</g>
								<g>
									<path class="st18" d="M500.5,305.7c2.6-1.5-6-8-8.1-7.7"/>
								</g>
							</g>
							<g id="uuid-866ff8fe-4df0-49e5-baad-521cbb815617">
								<g>
									<path class="st17" d="M421.5,270.4l0.6,0.1l-0.9-0.1"/>
									<path class="st17" d="M422.1,270.4c1.3-0.3,3.3-0.3,3.3,0.7c0,12,0,23,0,35.3"/>
									<path class="st17" d="M424.4,270.6l1.2,0.1h-0.2"/>
									<path class="st17" d="M425.7,270.7c-0.3,11.5-0.3,23.5,0,35.8"/>
									<path class="st17" d="M425.4,82.5c0-20.3,0-41.3,0-61.7"/>
									<path class="st17" d="M425.7,20.8c-0.3,20.4-0.3,41.4,0,61.7"/>
									<path class="st17" d="M471.1,305.6c0.3-94.4,0.3-189.4,0-283.8"/>
								</g>
								<g>
									<path class="st18" d="M492.3,305.5c0.1-95.3,0.1-189.3,0-284.7"/>
									<path class="st18" d="M464.9,305.7c-0.5-94.5-0.5-188.5,0-283.9"/>
									<path class="st18" d="M408,20.8c0.4,96.4,0.4,191.4,0,286.9"/>
									<path class="st18" d="M401.8,307.6c-0.4-95.4-0.4-191.4,0-286.8"/>
									<path class="st18" d="M421.3,306.6c0.1-12.4,0.1-24.4,0.2-36.2"/>
									<path class="st18" d="M421.3,20.8c0.1,20.4-0.9,41.4,0.1,61.4c0,0,3,0,4.3,0.3"/>
									<path class="st18" d="M513,35.7c0.4,90.4,0.4,179.4,0,269.8"/>
								</g>
							</g>
							<path class="st19" d="M462.8,130.8l-2,9.1l-3,8.4l-4,7.4l-4.8,6.2l-5.5,4.8l-6,3.2l-6.3,1.6l-6.4-0.1l-6.4-1.8l-6.1-3.4
								l-5.7-5l-5.1-6.3l-4.3-7.5l-3.4-8.5l-2.4-9.2l-1.3-9.6l-0.2-9.8l0.9-9.6l2-9.1l3-8.4l4-7.4l4.8-6.2l5.5-4.8l6-3.2l6.3-1.6
								l6.4,0.1l6.4,1.8l6.1,3.4l5.7,5l3.6-8.1l10.9,31.3l-22.9-4.2l3.6-8.1l-4.3-3.8l-4.6-2.6l-4.8-1.4l-4.9-0.1l-4.8,1.2l-4.5,2.5
								l-4.2,3.6l-3.6,4.7l-3,5.6l-2.3,6.4l-1.5,6.9l-0.7,7.3l0.2,7.4l1,7.3l1.8,7l2.6,6.4l3.3,5.7l3.9,4.8l4.3,3.8l4.6,2.6l4.9,1.3
								l4.9,0.1l4.8-1.2l4.5-2.5l4.2-3.6l3.6-4.7l3-5.6l2.3-6.4l1.5-6.9l0.7-7.3l8.8,1.3L462.8,130.8L462.8,130.8z"/>
						</g>
						<path class="st20" d="M461.6,93.6c-3.6-10.4-7.2-20.9-10.9-31.3c-1.2,2.7-2.4,5.4-3.6,8.1c-1.9-2.2-6.8-7.3-14.7-9.2
							c-9.9-2.4-18.1,1.7-20.4,2.8c-22.2,11.1-22.6,47.7-22.6,51c0,5.5,0.1,33.2,19.9,48.5c3.6,2.7,11.7,9.1,22,8
							c15.3-1.5,23.8-18,26.5-23.2c5.8-11.1,6.1-21.6,6-27.1c-2.9-0.4-5.9-0.9-8.8-1.3c0,3.2-0.3,7.7-1.9,12.8
							c-0.4,1.4-8.1,24.6-24,25.4c-13.1,0.6-23.2-13.9-25.9-21.8c-0.8-2.3-2-6.9-2.9-11.8c-0.6-3.5-1.2-6.5-1.2-10.5
							c0-5.6,0.9-9.8,1.7-13c1.1-4.5,2-8.4,4.2-12.5c2-3.6,6.8-12.5,16.5-14.5c11.1-2.2,20,6.2,21,7.2c-1.2,2.7-2.4,5.4-3.6,8.1
							C446.3,90.8,453.9,92.2,461.6,93.6L461.6,93.6z"/>
					</g>
				</g>
			</g>
		</g>
	</g>
	<g>
		<path class="st21" d="M321.2,106.5c21.2,0.4,42.4,0.9,63.6,1.3c3.2,0.6,27,4.9,26.8,8.9s-24.2,5.6-27.5,5.8
			c-22.1-0.5-44.2-1.1-66.3-1.6"/>
		<path class="st22" d="M397.7,111.2c0.8,2.7,2.3,3.9,3,4.3c1.3,0.8,2.7,1,5.5,1.2c2.2,0.2,4,0.1,5.3,0.1"/>
		<path class="st22" d="M397.1,121.8c1-2.7,2.6-3.7,3.2-4.1c1.3-0.8,2.8-0.8,5.5-0.8c2.2,0,4,0.1,5.3,0.2"/>
	</g>
	<g>
		<ellipse class="st23" cx="434.5" cy="147.5" rx="121.3" ry="121.5"/>
		<ellipse class="st24" cx="434.3" cy="147.7" rx="118.7" ry="118.9"/>
	</g>
</g>
<rect x="0.4" class="st25" width="590" height="286.2"/>
</svg>
