<svg version="1.1" id="uuid-5ae7548f-e7c6-4d21-a5cc-3455110fe2d1" x="0" y="0" viewBox="0 0 836.4 303.3" style="enable-background:new 0 0 836.4 303.3" xml:space="preserve" xmlns:xlink="http://www.w3.org/1999/xlink" xmlns="http://www.w3.org/2000/svg"><style type="text/css" id="style1">.st0{fill:#010101;stroke:#010101;stroke-width:.27;stroke-miterlimit:10}.st10,.st17{fill:none;stroke:#010101;stroke-linecap:round;stroke-linejoin:round}.st3{stroke-width:.66}.st3,.st4,.st9{fill:none;stroke:#010101;stroke-linecap:round;stroke-linejoin:round}.st4{stroke-width:1.32}.st9{stroke-width:.67}.st10{stroke-width:1.34}.st17{stroke-width:.99}</style><path style="enable-background:new 0 0 836.4 303.3;display:inline;opacity:1;fill:#fff;stroke:#fff;stroke-width:9.61188" id="rect247" d="M5.296 5.308h825.803v292.696H5.296z"/><g id="g2"><path class="st0" d="M33.4 29.9c.6 0 1.1-.3 1.6-.7.5-.4.7-1 .7-1.6s-.3-1.1-.7-1.6-1-.7-1.6-.7c-.7 0-1.2.2-1.6.7-.5.4-.7 1-.7 1.6s.3 1.2.7 1.6c.4.5 1 .7 1.6.7z" id="path1"/><path class="st0" d="M37 45.2c-.6-.1-1.1-.2-1.3-.5s-.3-.9-.3-1.9V31.9h-5.8v.5c.6.1 1.1.2 1.3.5.2.3.3.9.3 1.9v8.1c0 1-.1 1.6-.3 1.8-.3.3-.8.5-1.4.5v.5H37v-.5z" id="path2"/><circle cx="33.1" cy="36.3" id="ellipse2" style="fill:none;stroke:#010101;stroke-width:.97;stroke-miterlimit:10.0003" r="17.7"/></g><g id="g57"><g id="g56"><g id="g54"><g id="g53"><g id="g52"><defs id="defs2"><ellipse id="SVGID_1_" cx="424.6" cy="152.1" rx="119.8" ry="122.2"/></defs><clipPath id="SVGID_00000000905413001974096170000004095574273993038507_"><use xlink:href="#SVGID_1_" style="overflow:visible" id="use2"/></clipPath><g style="clip-path:url(#SVGID_00000000905413001974096170000004095574273993038507_)" clip-path="url(#SVGID_00000000905413001974096170000004095574273993038507_)" id="g51"><g id="g50"><g id="uuid-080fe87b-4745-4f39-9186-7a5c18384722"><path class="st3" d="M479.5 326.6h0l.7.9.5.9.3 1 .2.9v.1l.1 1-.1 1-.2 1-.4 1-.5.9-.6.8" id="path3"/></g><g id="uuid-dc91cd67-633f-44b9-948d-73ee147bed7f"><g id="g21"><path class="st3" d="m391.1 253.1.1.1.4.1.6.1.8.1.8.1h2.6" id="path4"/><path class="st3" d="m391.1 244 .1.1.3.1.6.1.8.1h1.8v9.3l.1 1.3.2 1.3.4 1.3.7 1.2 1 .8 1.1.1h1.8" id="path5"/><path class="st3" d="M392.8 257.6h0" id="path6"/><path class="st3" d="M394.1 258.8h0" id="path7"/><path class="st3" d="m453.3 251.5-.2.4-.6.4-.9.4-1.2.4-1.6.4-1.9.3-2.2.3-2.4.3-2.6.2-2.8.2-3 .2-3.1.1-3.2.1h-6.4l-3.2-.1-3.1-.1-3-.2-2.8-.2-2.6-.2-2.4-.3-2.2-.3-1.9-.3-1.6-.4-1.2-.4-.9-.4-.6-.4-.2-.4" id="path8"/><path class="st3" d="M394.7 244.5h1.1" id="path9"/><path class="st3" d="m395.8 245.6.3.6 1.1.6 1.7.5 2.3.5 2.9.4 3.4.4 3.8.3 4.2.2 4.4.1h9l4.4-.1 4.2-.2 3.8-.3 3.4-.4 2.9-.4 2.3-.5 1.7-.5 1.1-.6.3-.6" id="path10"/><path class="st3" d="M396.3 253.3h0" id="path11"/><path class="st3" d="m409.1 259.9-.7-.1-.7-.2-.7-.3-.4-.3-.6-.7-.3-.6-.2-.5" id="path12"/><path class="st3" d="M419 258.2h-.2" id="path13"/><path class="st3" d="m418.3 245.9.2-.2.6-.2 1-.2 1.3-.1 1.5-.1h3.2l1.5.1 1.3.1 1 .2.6.2.2.2" id="path14"/><path class="st3" d="M430.2 258.2h.2" id="path15"/><path class="st3" d="m440 259.9.7-.1.7-.2.7-.3.3-.3.6-.7.3-.6.2-.5" id="path16"/><path class="st3" d="M453.3 244.5h1.1v9.3l-.1 1.3-.2 1.3-.4 1.3-.7 1.2-1 .8-1.1.1h-1.6" id="path17"/><path class="st3" d="M452.8 253.3h0" id="path18"/><path class="st3" d="m458 253.1-.1.1-.4.1-.6.1-.8.1-.8.1h-2.7" id="path19"/><path class="st3" d="M455 258.8h0l.1-.1" id="path20"/><path class="st3" d="M454.4 244.5h1.8l.8-.1.6-.1.4-.1.1-.1" id="path21"/></g><g id="g30"><path class="st4" d="M391.1 250.1v-13 16.3l.2 1.3.5 1.4.9 1.4.3.3 1.5 1.2-.2-.2" id="path22"/><path class="st4" d="M391.1 241.4v-13.1 8.7" id="path23"/><path class="st4" d="M391.1 228.3V226l.2-.2.7-.2 1.1-.2 1.5-.1 1.7-.1h56.1l1.7.1 1.3.1h.2l1.1.2.7.2.2.2v27.3l-.2 1.3-.5 1.4-.8 1.4" id="path24"/><path class="st4" d="m393.8 258.5.3.2.3.2.3.2 1.6.6-.2-.1" id="path25"/><path class="st4" d="M395.8 251.5v-1.4 1.4l.1.9.5 1.3.6.7 1.2.9.8.4.8.3 1.1.4 1.4.3 1.7.3 2 .3 2.2.3 2.4.2 2.6.2 2.7.2 3 .1 2.8.1h5.6l2.8-.1 3-.1 2.7-.2 2.7-.2 2.2-.2 2.2-.3 2-.3 1.7-.3 1.4-.3 1.1-.4.8-.3.8-.4 1.2-.9.6-.7.2-.4.4-.9.1-.9v-7" id="path26"/><path class="st4" d="M395.8 250.1v-5.6 1.2" id="path27"/><path class="st4" d="m396.3 259.8.2.1h1.9l10.8.1 1.2-.1 1.7-.2 3.3-.2 3.6-.2 3.8-.1h3.8l3.8.1 3.6.2 3.3.2 1.7.2 1.2.1 10.8-.1h1.9l.2-.1" id="path28"/><path class="st4" d="m418.3 245.9.2.2.6.2 1 .2 1.3.1 1.5.1h3.2l1.5-.1 1.3-.1 1-.2.6-.2.2-.2" id="path29"/><path class="st4" d="m453.5 259.5-.7.3-.2.1 1.8-.7.3-.2.3-.2 1.2-1 .3-.3" id="path30"/></g></g><g id="uuid-d86ec4f0-b5cb-4222-814b-71835c23287e"><path class="st3" d="m479.5 324.4 1.4 1.2 1.2 1.8.8 2 .3 2.2-.3 2.2-.8 2-1.2 1.8-1.4 1.2" id="path31"/><g id="g33"><path class="st4" d="M492.1 312v-1.7l-.1-.1-.1-.1-.1-.1-11.4-5.7-.2-.1h-.4l-.2.1" id="path32"/><path class="st4" d="M492.1 311v39.2" id="path33"/></g></g><g id="uuid-475a7e3c-1338-4076-bb06-6749de0ad017"><g id="g38"><path class="st3" d="M393.3 43.2h7.2" id="path34"/><path class="st3" d="M393.3 43.2h7.2" id="path35"/><path class="st3" d="M427.1 122.4h-11.5" id="path36"/><path class="st3" d="M427.1 156.5h3.6" id="path37"/><path class="st3" d="M433.5 122.4h-2.9" id="path38"/></g><g id="g49"><path class="st4" d="M114.1 341h245V-45.9" id="path39"/><path class="st4" d="M369.9-45.9v396.1" id="path40"/><path class="st4" d="M393.3 350.2v-92.1" id="path41"/><path class="st4" d="M393.3 43.2h0v-2 2" id="path42"/><path class="st4" d="M393.3 41.1V-46" id="path43"/><path class="st4" d="M400.5 350.2v-90.3" id="path44"/><path class="st4" d="M400.5 43.2V-46" id="path45"/><path class="st4" d="M427.1 159.1h6.5v-46.4h-18v46.4h11.5V126v2.2" id="path46"/><path class="st4" d="M427.1 126v-7.4h3.6v40.5" id="path47"/><path class="st4" d="M468.8-45.9v396.1" id="path48"/><path class="st4" d="M479.5 350.2V-45.9" id="path49"/></g></g></g></g></g></g></g><g id="g55"><ellipse cx="424.5" cy="152.3" rx="122.5" ry="124.8" id="ellipse54" style="fill:none;stroke:#010101;stroke-width:1.25;stroke-miterlimit:10"/><ellipse cx="424.3" cy="152.4" rx="119.8" ry="122.2" id="ellipse55" style="fill:none;stroke:#fff;stroke-width:3.7;stroke-miterlimit:10"/></g></g><path d="m508.6 150.5-.5.6c-3.2 4.8-5.8 7.3-7.9 7.3-2.4 0-4.7-1.9-7-5.8h.7c2.7 0 5.7-2 9-6.1l.8-1-1.1-1.2c-3-3.2-4.5-5.9-4.5-8.1 0-1.8 1.7-4 5-6.5.5 3.2 1.9 6.3 4.2 9.3l.9 1.2.7-1c3.4-4.4 6.5-6.5 9.3-6.5 2.2 0 3.8 1.6 5 5-.3 0-.6-.1-.7-.1-1 0-2.4.7-4.2 2s-3.3 2.8-4.5 4.5l-.9 1.3.9.9c3.3 3.2 6.8 4.8 10.3 4.8-1.9 3.9-3.9 5.9-6 5.9-1.9 0-4.6-1.7-8.2-5l-1.3-1.5z" id="path56" style="fill:#e40521"/></g><g id="g118"><g id="g117"><g id="g115"><g id="g114"><g id="g113"><defs id="defs57"><ellipse id="SVGID_00000152249307922269572160000012681054141027320231_" cx="689.4" cy="152.3" rx="121.8" ry="123.3"/></defs><clipPath id="SVGID_00000158743157094004405970000016937307915844793735_"><use xlink:href="#SVGID_00000152249307922269572160000012681054141027320231_" style="overflow:visible" id="use57"/></clipPath><g style="clip-path:url(#SVGID_00000158743157094004405970000016937307915844793735_)" clip-path="url(#SVGID_00000158743157094004405970000016937307915844793735_)" id="g112"><g id="g111"><g id="uuid-98838d5b-c831-428b-a6e2-85d11dec4258"><path class="st9" d="M749.2 343.2h0l.7.9.5.9.3 1 .2.9v.1l.1 1-.1 1-.2 1-.4 1-.5.9-.6.8" id="path57"/></g><g id="uuid-4e0d2a1e-4ae6-4487-b68d-e483ddcf038b"><g id="g67"><path class="st9" d="m708.7 107.9 12.2.1 2.2-1.1 2.1-.8 1.5-.5.9-.2h.5l.2.1-.6 141.9-.2 1.6-.6 1.5-.9 1.4-1.2 1.2-1.4.8-1.5.5-1.6.2-53.3-.2-1.6-.2-1.5-.5-1.4-.9-1.2-1.2-.9-1.4-.4-1.3-.1-.2-.2-1.6.2-.3.5-.3.9-.2 1.2-.2 1.4-.1 1.5-.1h1.6l53.3.2v10.1" id="path58"/><path class="st9" d="m660.3 105.3.2-.2h.5l.9.2 1.5.5 2 .8 2.3 1.1-.7 138.7v9.6" id="path59"/><path class="st9" d="M679.7 107.8h-12.2l-1.1-2.2-1-1.8-.7-1.2-.4-.6-.2-.2" id="path60"/><path class="st9" d="M665.1 93.2h0l.5-.2.6-.1.8-.1h1.8l.2-2.8.5-2.8.8-2.8 1.1-2.6 1.4-2.5 1.7-2.3 1.9-2.1 2.2-1.9 2.3-1.6 2.5-1.4 2.7-1.1 2.8-.8 2.8-.5 2.9-.1 2.9.2 2.8.5 2.8.8 2.7 1.1 2.5 1.4 2.3 1.7 2.1 1.9 1.9 2.1 1.6 2.3 1.4 2.5 1.1 2.6.8 2.7.5 2.8.2 2.9h1.8l.8.1.6.1.4.1.1.2v8.4" id="path61"/><path class="st9" d="M668.7 92.6v9.1" id="path62"/><path class="st9" d="M712.6 70.6h0" id="path63"/><path class="st9" d="M727.6 249v-1.6l-.2-.3-.5-.3-.9-.2-1.2-.2-1.4-.1-1.6-.1h-1.6l.6-138.2 1.1-2.2 1-1.9.8-1.2.4-.6.2-.2" id="path64"/><path class="st9" d="M719.8 92.8v9.1" id="path65"/><path class="st9" d="M723.5 94.4h0" id="path66"/><path class="st9" d="M728.2 107.2v-.2" id="path67"/></g><g id="g71"><path class="st10" d="m660 250.9.6 1.5 1.1 1.5 1.5 1.2 1.8.7 1.9.2 53.3.2 1.9-.2 1.8-.7 1.5-1.2 1.2-1.5.7-1.8.2-1.9.6-141.8v-1.6l-.1-1-.4-.9-.6-.8-.8-.6-1-.4-.9-.1H722l-8.1-.1-.4.4-1.7 2.2-.7.8-.8.8-.7.7-1.2 1.1-1.7 1.4-3.3 2-3.7 1.3-3.8.6H692l-3.8-.7-3.6-1.4-3.3-2-1.7-1.4-1.2-1.1-.7-.7-.7-.8-1-1.3-1.3-1.7-.3-.4h-10.5l-.9.1-1 .4-.8.6-.6.8-.4.9-.1 1-.6 141.8v1.6l.2 1.9.3.4" id="path68"/><path class="st10" d="M665 101.6v-8.4l.2-3.3.5-3.2.9-3.1 1.3-3 1.6-2.9 1.9-2.7 2.2-2.4 2.5-2.2 2.7-1.9 2.8-1.6 3-1.2 3.1-.9 3.2-.5 3.3-.1 3.3.2 3.2.5 3.1.9 3 1.3 2.8 1.6 2.7 1.9 2.5 2.2 2.2 2.4 1.9 2.7 1.6 2.9 1.2 3 .9 3.1.6 3.2.2 3.3v8.4" id="path69"/><path class="st10" d="M664.1 101.6h2.3" id="path70"/><path class="st10" d="M722.1 101.9h2.3" id="path71"/></g></g><g id="uuid-5544dd61-81e6-423f-abc5-64d57c692725"><g id="g87"><path class="st9" d="m674.3 91.2.2 1.5.4 1.8.6 1.8.8 1.7 1 1.6 1.1 1.5 1.2 1.4 1.4 1.3 1.5 1.2 1.6 1 1.7.9 1.8.7 1.8.5 1.9.4 1.9.2h1.9l1.9-.2 1.9-.3 1.8-.5 1.8-.7 1.7-.9 1.6-1 1.5-1.2 1.4-1.3 1.2-1.4 1.1-1.5.9-1.6.8-1.7.6-1.8.5-1.9.2-1.5" id="path72"/><path class="st9" d="m674.2 89.9.1 1.7" id="path73"/><path class="st9" d="m674.3 86.8 17.6.1v-7.6 7.6" id="path74"/><path class="st9" d="M714.2 86.7h0l-.2-.2h-.1l-.2-.1-.3-.1-.5-.1h-2.5l-.1-.8-.4-1.5-.5-1.5-.7-1.4-.8-1.4-.9-1.2-1-1.2-1-1.2-1.2-1-1.3-.8-1.4-.7-1.4-.6-1.5-.5-1.5-.3-1.6-.2h-1.6l-1.5.1-1.5.3-1.5.4-1.5.6-1.4.7-1.3.8-1.2.9-1.1 1.1-1 1.2-.9 1.2-.8 1.3-.7 1.4-.5 1.5-.4 1.5-.2.8h-1.4l-.6.3-.6.1-.3.1-.4.1-.2.1-.1.1-.1.1v.1" id="path75"/><path class="st9" d="m678 90.6.1.8.4 1.5.5 1.5.7 1.4.8 1.4.9 1.3 1 1.2 1.1 1.1 1.2 1 1.3.9 1.4.7 1.5.6 1.5.4 1.5.3 1.6.2h1.6l1.6-.1 1.5-.3 1.5-.4 1.4-.6 1.4-.7 1.3-.8 1.2-1 1.1-1 1-1.2.9-1.3.8-1.3.7-1.4.5-1.5.4-1.5.2-.8" id="path76"/><path class="st9" d="M691.9 85.9H678" id="path77"/><path class="st9" d="M677.5 78h0" id="path78"/><path class="st9" d="M691.9 91.6v5.8" id="path79"/><path class="st9" d="M691.9 97.4v-6.7" id="path80"/><path class="st9" d="M691.9 80.2h4.8" id="path81"/><path class="st9" d="M691.9 79.3h0l4.8-.1" id="path82"/><path class="st9" d="m696.7 86 13.9.1" id="path83"/><path class="st9" d="m696.7 86.9 17.6.1" id="path84"/><path class="st9" d="M711.2 78.1h0" id="path85"/><path class="st9" d="m714.3 90-.1 1.7" id="path86"/><path class="st9" d="m714.2 86.7-.2-1.5" id="path87"/></g><g id="g91"><path class="st10" d="m674.3 92.6-.1-1.1v-1.6l.1-2.7v-.7l.2-1.5.5-1.8.7-1.8.8-1.7 1-1.6 1.2-1.6 1.2-1.4 1.4-1.3 1.5-1.1 1.6-1 1.7-.9 1.8-.7 1.8-.5 1.9-.4 1.9-.2h1.9l1.9.2 1.8.4 1.8.5 1.8.7 1.7.9 1.6 1 1.5 1.2 1.4 1.3 1.2 1.4 1.2 1.6.9 1.6.8 1.7.6 1.8.4 1.8.2 1.5v.8l.1 2.7v1.6l-.3 2.6-.6 2.6-1 2.5-1.3 2.3-1.6 2.1-1.7 1.7-.2.2-2.1 1.6-2.3 1.4-2.5 1-2.6.7-2.7.3h-2.6l-2.7-.4-2.6-.7-2.5-1-2.3-1.4-2.1-1.7-1.9-1.9-1.6-2.2-1.3-2.3-1-2.5-.6-2.6.1-1.4" id="path88"/><path class="st10" d="M691.9 91.6v-1h-15.8l-.6.1-.4.1-.3.1-.3.1-.2.1h-.1v.4" id="path89"/><path class="st10" d="M691.9 97.4h4.8v-6.7h15.5l.6.1h.4l.3.1.4.1.2.1h.1l.1.1h0v.3" id="path90"/><path class="st10" d="M696.7 86.9v-7.7" id="path91"/></g></g><g id="uuid-fc402827-4d80-4902-b123-cd41ddf2de57"><g id="g93"><path class="st9" d="m749.2 340.9 1.4 1.3 1.3 1.8.8 2.1.3 2.2-.3 2.2-.8 2.1-1.3 1.8-1.4 1.3" id="path92"/><path class="st9" d="m761.8 366.7.2-39.8" id="path93"/></g><path class="st10" d="m761.9 366.7.2-37.9v-2.1l-.1-.2-.1-.1-.1-.1-.2-.1-11.6-5.8-.2-.1h-.4l-.2.1" id="path94"/></g><g id="uuid-3b8999e2-eb4c-4df4-a273-f532b87b40da"><g id="g101"><path class="st9" d="M662.7 55.8h7.3v-.1l-7.3.1" id="path95"/><path class="st9" d="m668.7 367.3.4-90.1v2.2" id="path96"/><path class="st9" d="M669 277.2V274" id="path97"/><path class="st9" d="M669.1 274.1v.9" id="path98"/><path class="st9" d="M670 55.8v-.5.5" id="path99"/><path class="st9" d="m670 55.2.4-87.9" id="path100"/><path class="st9" d="m749 366.8 1.7-399.9" id="path101"/></g><g id="g110"><path class="st10" d="m378.9 358.4 188.7.8h-2.2" id="path102"/><path class="st10" d="m567.6 359.2 59.1.2 1.7-391.8" id="path103"/><path class="st10" d="m637.6 367.5.7-153.8v2.2" id="path104"/><path class="st10" d="m638.3 213.7.9-206.6v2.2" id="path105"/><path class="st10" d="m639.1 7.1.2-39.6" id="path106"/><path class="st10" d="m661.4 367.3.4-93.3h7.3v.1" id="path107"/><path class="st10" d="m662.7 55.8.4-88.4" id="path108"/><path class="st10" d="m738 366.8 1.7-399.9" id="path109"/><path class="st10" d="m749.1 366.8 1.7-399.9" id="path110"/></g></g></g></g></g></g></g><g id="g116"><ellipse cx="689.4" cy="152.3" rx="124.5" ry="126" id="ellipse115" style="fill:none;stroke:#010101;stroke-width:1.26;stroke-miterlimit:10"/><ellipse cx="689.3" cy="152.4" rx="121.8" ry="123.3" id="ellipse116" style="fill:none;stroke:#fff;stroke-width:3.75;stroke-miterlimit:10"/></g></g><path d="m800.5 119.9 1.1 1.5c-4.4 3.3-9.3 8.4-14.6 15.3s-9.5 13.3-12.3 19.3l-2.3 1.5c-1.9 1.3-3.2 2.3-3.8 2.9-.3-1-.8-2.5-1.8-4.7l-.9-2c-1.2-2.9-2.4-5-3.4-6.4-1.1-1.4-2.2-2.3-3.6-2.7 2.2-2.3 4.2-3.5 6.1-3.5 1.6 0 3.3 2.1 5.3 6.4l.9 2.1c3.5-5.8 7.9-11.5 13.3-17 5.5-5.6 10.8-9.8 16-12.7z" id="path117" style="fill:#11a438"/></g><circle cx="424.3" cy="79" r="7.3" id="circle118" style="fill:#010101"/><g id="g244"><g id="g242"><g id="g241"><ellipse cx="150.8" cy="155" rx="123" ry="122.1" id="ellipse118" style="fill:none"/><g id="g240"><path id="polygon118" d="m156 194.2.3-2.9-1.6-2.5-1.2-.2 1.2 5.6z"/><path id="polygon119" d="m198.2 141.6 1.3-14.5-2.5-1.5h-2.8l.3 17.3z"/><path id="polygon120" d="m159.6 203.5 3.4-5 6-1.2 33.6-21.5.5-4.8-36.5 22.6.4 2.8-2.4-1.5-6.5 2.3-2.2 2.8.7 4z"/><g id="uuid-04d103b5-a954-4870-848f-5c118710b49a"><g id="g132"><path class="st17" d="m163.1 198 .2-.1.1-.2v-.7l-.9.5-1 .5-.8.3-.2.1-1.1.4-1.1.4-1.2.3-1.2.3-1.2.2-1.2.1-1.2.1h-3.2l-1-.1-.9-.2-.8-.2-.7-.3-.6-.4-.4-.4-.3-.5-.2-.5" id="path120"/><path class="st17" d="m163 195.1 2.2-1.4.3 2-2.2 1.4-.3-2-1.2.7-1.4.6-1.6.6-1.6.5-1.7.4-1.7.2-1.7.1h-1.7l-1.5-.1-1.4-.2-1.2-.3-1-.4-.8-.5-.6-.6-.2-.7" id="path121"/><path class="st17" d="M148.3 190.3h.3l-.2.2-.1-.2-.2-.1-.2-.1v-.1" id="path122"/><path class="st17" d="m148.3 190.5-.4.2" id="path123"/><path class="st17" d="m156.2 192.8.3.2.1.2v.3l-.2.2-.3.3-.5.2-.5.2-.6.2h-1.7l-.4-.1-.3-.1-.1-.2v-.3l.2-.3h0" id="path124"/><path class="st17" d="m167.9 198 .2-.3v-1.3l-.3.1-.3.1-.4.1h-1l-.6-3.1h-.3" id="path125"/><path class="st17" d="m163.7 197.6 1.5-.9.9.2.1.5.1.4.2.3.2.2" id="path126"/><path class="st17" d="M165.6 195.6v.6l-.1.2-.2.2" id="path127"/><path class="st17" d="M163.8 197.7h.4" id="path128"/><path class="st17" d="M163.8 197.7h.3" id="path129"/><path class="st17" d="M202.7 170.5v.3l-.2.3-.4.3-34.6 21.9-.3.1-.3.1-.4.1h-.9" id="path130"/><path class="st17" d="m167.5 193.3.6 3.1 34.6-22v1.1l-.2.4-.3.3" id="path131"/><path class="st17" d="M203.3 173.8v.1l-.2.3-.3.2-.6-3.1" id="path132"/></g><g id="g134"><path class="st17" d="m203 175.5-.1.2-.2.3-.3.3-34.5 21.7-.1.1-.2.1h-.8l-3-.6h0v-.1l-.7.4-.8.5-.9.4-1 .4-1 .4-1 .3-1.1.3-1.1.2-1.1.2-1.1.1-1.1.1h-2.1l-1-.1-.9-.1-.8-.2-1-.3-.6-.3-.6-.4-.2-.2-.4-.4-.2-.3-.3-.4-.3-.8-.3-2v-.7l.2-.8.5-.8.8-.7 1-.8 1.6-1-.1-.8v-.1l.1-.1.2-.1 3.3-2.1" id="path133"/><path class="st17" d="m203.2 173-.5-2.5-.1-.3-.3-.2-.5-.1-15.2-3-.6-.1h-1.4l-.7.2-.7.2-.5.3-29.8 18.9" id="path134"/></g></g><g id="uuid-38fa878e-e094-4f52-9dc4-9758099ff4e8"><g id="g143"><path class="st17" d="m161.6 202.2.1-.1v-.1h0v-.6l-.1-.6-.4.3-.7.4h-.1l.1.6-.4.2-.6.2-.6.2-.7.2-.7.2-.7.2-.7.1-.7.1-.7.1h-3.3l-.6-.1-.6-.1-.5-.1-.4-.2-.4-.2-.3-.2-.2-.2h0l-.2-.2-.1-.3" id="path135"/><path class="st17" d="M152.3 194.4v.2" id="path136"/><path class="st17" d="M155.2 187.2v.2l-.1.2-.2.2-.4.2-.4.1-.5.1-.5.1h-1.4l-.3-.1-.2-.2v-.2" id="path137"/><path class="st17" d="m154.1 186.5.2.1v.2l-.1.1-.1.1-.2.1-.3.1-.3.1H152l-.2-.1-.1-.1v-.2" id="path138"/><path class="st17" d="M156.4 193.6v.2" id="path139"/><path class="st17" d="M160.4 203h0" id="path140"/><path class="st17" d="M163 199.3v.3l-.1.3-.1.3-.2.3-.3.3-.3.3-.3.2" id="path141"/><path class="st17" d="m161.6 202.2.3-.3" id="path142"/><path class="st17" d="M160.6 202.1v.2h0" id="path143"/></g><g id="g146"><path class="st17" d="M163 199.3v1l-.1.2-.1.3-.2.3-.1.2-.2.3-.3.3-.1.1-.2.2h-.2 0-.5v.4h0v.1l-.1.1h0l-.5.2-.5.2-.5.2-.6.2-.6.2-.6.1-.6.1-.6.1h-.6l-.7.1h-2.5l-.5-.1-.5-.1-.4-.1-.4-.1-.2-.1-.4-.2-.3-.2-.2-.1-.2-.2-.1-.1-.2-.3-.2-.5-.1-.2v-.3l-.3-1.5" id="path144"/><path class="st17" d="m156.4 193.6-1.2-6.4-.2-.2-.2-.1-.7-.4H153l-.3.1-.3.1-.3.1-.2.2-.7.8v.2l1.2 6.5" id="path145"/><path class="st17" d="m163 199.3-.2-1.1" id="path146"/></g></g><g id="uuid-d868e009-3577-4f62-b13b-46cc20fc271e"><g id="g207"><path class="st17" d="M215 46.7c0 .6-.1 1.2-.1 1.8l-.3 4.4L202 246.8 41.8 214.9" id="path148"/><path class="st17" d="m203.3 251 .6-.2.4-.3.4-.5.3-.6.1-.7c4.3-66.6 8.7-133.3 13-199.9" id="path150"/><path class="st17" d="M193.5 36c-1.3 20.5-2.7 41-4 61.5l2.2.4c1.3-20.3 2.6-40.5 3.9-60.8" id="path151"/><path class="st17" d="M176.5 192.6c-.4 6.9-.9 13.7-1.3 20.6-6.1-1.2-15.1-3-21.2-4.2-40.8-8.1-81.6-16.1-122.5-24" id="path152"/><path class="st17" d="M25.8 179.4c5.4 1.1 10.9 2.1 16.3 3.2l-3.5-.7" id="path156"/><path class="st17" d="m36 193.2 2.5.5-2.7-.6" id="path157"/><path class="st17" d="M39.4 196.6c48 9.5 95.9 19.1 143.9 28.6l2.5-38.5" id="path158"/><path class="st17" d="m40.3 194 4.2.9c-2-.4-4-.9-6-1.3" id="path159"/><path class="st17" d="m48.9 195.8 3.5.7-10.4-2.1" id="path160"/><path class="st17" d="m42 182.7 17.3 3.4-3.5-.7" id="path161"/><path class="st17" d="m48.9 216.3 3.5.7" id="path162"/><path class="st17" d="m66.2 199.2 3.5.7-17.3-3.4" id="path163"/><path class="st17" d="m59.3 186.1 6.9 1.4-3.5-.7" id="path164"/><path class="st17" d="m66.2 219.8 3.5.7" id="path165"/><path class="st17" d="m66.2 187.5 10.4 2.1-3.5-.7" id="path166"/><path class="st17" d="m83.5 202.6 3.5.7-17.3-3.4" id="path167"/><path class="st17" d="m76.6 189.6 17.3 3.4-3.5-.7" id="path168"/><path class="st17" d="m83.5 223.2 3.5.7" id="path169"/><path class="st17" d="m87 203.3 17.3 3.4-3.5-.7" id="path170"/><path class="st17" d="m93.9 193 17.3 3.4-3.5-.7" id="path171"/><path class="st17" d="m100.8 226.6 3.5.7" id="path172"/><path class="st17" d="m104.2 206.8 17.3 3.4-3.5-.7" id="path173"/><path class="st17" d="m111.1 196.4 10.4 2.1-3.5-.7" id="path174"/><path class="st17" d="m118.1 230.1 3.5.7" id="path175"/><path class="st17" d="m121.5 210.2 17.3 3.4-3.5-.7" id="path176"/><path class="st17" d="m121.5 198.5 6.9 1.4-3.5-.7" id="path177"/><path class="st17" d="m128.4 199.9 13.9 2.7-3.5-.7" id="path178"/><path class="st17" d="m138.8 234.2-3.5-.7" id="path179"/><path class="st17" d="m138.8 213.6 17.3 3.4-3.5-.7" id="path180"/><path class="st17" d="m143.8 202.9 1.9.4-3.4-.7 1.5.3" id="path181"/><path class="st17" d="m145.7 203.3 4.4.8" id="path182"/><path class="st17" d="m149.2 204 1.1.2" id="path183"/><path class="st17" d="M152.6 204.6h0-.2" id="path184"/><path class="st17" d="m152.6 204.7 3.5.7-3.5-.7" id="path185"/><path class="st17" d="M186.9 33.6c-3 45.6-5.9 91.2-8.9 136.8" id="path186"/><path class="st17" d="m156.1 237.6-3.5-.7" id="path187"/><path class="st17" d="m156.1 217 17.3 3.4-3.5-.7" id="path188"/><path class="st17" d="m156.1 205.3 6.9 1.4-3.4-.7" id="path189"/><path class="st17" d="m163 206.7 3.5.7-3.5-.7" id="path190"/><path class="st17" d="m169.9 240.4 3.5.7" id="path191"/><path class="st17" d="m169.9 208.1-3.4-.7 5.9 1.2-2.5-.5" id="path192"/><path class="st17" d="m173.4 220.5 8 1.6 2.2-34" id="path193"/><path class="st17" d="m172.4 208.6.9-13.9" id="path194"/><path class="st17" d="M183.8 32.7c-3 46.7-6 93.3-9.1 140" id="path195"/><path class="st17" d="m179 155 .2-3.4-.2 3.4" id="path196"/><path class="st17" d="m180.1 137.8.2-3.4" id="path197"/><path class="st17" d="m183.7 243.1-3.5-.7" id="path198"/><path class="st17" d="m185.9 186.6-2.5 38.5h-.1" id="path199"/><path class="st17" d="m183.7 83 .2-3.4" id="path200"/><path class="st17" d="m187.2 243.8 6.9 1.4" id="path201"/><path class="st17" d="m194.1 142.7-.9.1 1.1-17.6 5.2 1v1h-.1l-1 14.3h.1v.5l-4.4.7" id="path202"/><path class="st17" d="m193.2 142.8 5.2 1 .1-1.6" id="path203"/><path class="st17" d="M0 303.3h0" id="path205"/><path class="st17" d="m198.5 141.6 1-14.4" id="path206"/><path class="st17" d="m205 248.7 6.8-.8 1.1-9.7c3.7-60.6 7.3-121.2 11-181.9" id="path207"/></g><g id="g209"><path class="st17" d="M211.8 247.9c-.6.8-1.1 1.5-1.7 2.3-2.3.2-4.5.5-6.8.8h-.6C149.1 240.4 95.6 229.7 42 219.1" id="path209"/></g></g><g id="g239"><path d="M34.9 206.6c.1-6.7 1.1-17.2 5.6-28.9 3.2-8.4 7.1-18.5 17.2-26.8 11.8-9.6 25.1-11 31.2-11.2" id="path210" style="fill:none;stroke:#fff;stroke-width:6.96;stroke-miterlimit:10"/><g id="uuid-246571f1-4e4f-4df1-812d-731deb6366d3"><g id="g236"><path class="st17" d="m79 144.7.7-.4.6-.7.4-.9.1-1.1-.1-.8v-.4l-.3-1-.6-.9-.7-.5-.4-.1h-.4" id="path211"/><path class="st17" d="M77.2 143.5H77l1.5-.1.5-.1.4-.3.3-.4.2-.7v-.7l-.1-.5-.3-.7-.4-.4-.5-.2h-.5" id="path212"/><path class="st17" d="M77 143.5h-.2" id="path213"/><path class="st17" d="m78.1 139.3-1.7.2" id="path214"/><path class="st17" d="M85.7 144.2v3.2l.1.8c.1.4.2.9.2 1.3" id="path215"/><path class="st17" d="m107.7 129.5-14.2 1.2.1.1v.1l-.5.1-.6.4-.4.7-.3.8v.6l-.1 5.3-.2 3.5-.3 3.5-.3 2.6h-.3l-4.9-1.1" id="path216"/><path class="st17" d="m85.8 144.2 3.4-.3.7-.4.6-.7.3-.9.1-1.1-.1-1.1-.4-1-.6-.8-.7-.6-.4-.1h-.4c-.7-.1-1.4-.1-2.2-.2.1-.6.1-1.3.2-1.9l.3-2.5" id="path217"/><path class="st17" d="M86.2 137.3h0" id="path218"/><path class="st17" d="M91.7 150.9h0l-.6-.4-.4-.6-.1-.8v-.6l.3-2.6.3-3.5.2-4.9v-3.9l-4.8-1.1.2-.9.4-.8.5-.6.6-.4.7-.2 4.4 1-.4.1-.6.4-.5.6-.3.9-.1.9h.4" id="path219"/><path class="st17" d="m89 129.7 14.3-1.2" id="path220"/><path class="st17" d="M90.9 148.5v.8l.1.7.4.5.4.2.6.1-.1.2 14.2-1.2" id="path221"/><path class="st17" d="m106.6 149.6-14.2 1.2" id="path222"/><path class="st17" d="M92.2 151h0" id="path223"/><path class="st17" d="m93.7 131 14.2-1.2" id="path224"/><path class="st17" d="m119.5 130.7-11.6.9v5.1l-.4 6.5-.6 4.3c4.2-.3 8.3-.7 12.5-1" id="path225"/><path class="st17" d="m106.9 147.4 11.5-1" id="path226"/><path class="st17" d="M107.9 131.7v-1.4l8-.7" id="path227"/><path class="st17" d="m107.9 131.4 11.4-1" id="path228"/><path class="st17" d="M113.4 145.5v.1l-.1.1-1.4.1-.1-.1v-.1l.1-2.2v-.2l.1-.1 1.5-.1.2.1v.2l-.3 2.2h0l-.2.2h-.1.1" id="path229"/><path class="st17" d="m113.1 145.8-1.4.1" id="path230"/><path class="st17" d="m113.3 145.5.1-2.2h.1" id="path231"/><path class="st17" d="M113.5 143.3v-.2" id="path232"/><path class="st17" d="M114.1 134.7v.1l-.1.2-1.4.1-.2-.1v-.1l.1-2.2v-.2l.1-.1 1.6-.1.1.1v.2l-.2 2.1h0l-.1.1-.1.1h.1" id="path233"/><path class="st17" d="m113.9 134.9-1.4.1" id="path234"/><path class="st17" d="m114.1 134.6.1-2.2h.1" id="path235"/><path class="st17" d="M114.2 132.5v-.2" id="path236"/></g><g id="g238"><path class="st17" d="M32.7 202c0-7.5 1.1-18.6 6.6-30.4 1.8-4 3.9-7.5 5.9-10.4" id="path237"/><path class="st17" d="M45.2 161.1C53 150.3 64 142.3 77 139.3c.5 0 .8-.5 1-1 .6-1.2 1-1 1-1 .5-.5 2.2-.9 7.1-.3.1-1.3.3-2.6.4-3.9 0-.2-.1-1.6.8-2.6.5-.5 1.1-.7 1.3-.8 1.6-.5 7.7-1.1 15.9-1.4 1 .4 2.1.8 3.1 1.2.1.2.1.4.2.6 3.4-.3 6.7-.6 10.1-.9l1.5 1.5c-.2 5.3-.4 10.7-.6 16 0-.3 0-.6.1-.9-4 .3-8 .7-11.9 1-.2 1-.3 2-.5 3-.2.1-.3.2-.5.3-5.1.3-10.1.6-15.2.9-1.7-.4-3.3-.8-5-1.2v-5.7c-2.2.2-4.4.4-6.5.5-.2 0-.7-.1-1.1-.5-.4-.3-.5-.6-.6-.8-2.7.5-6.7 1.6-10.9 3.9-2.2 1.2-6.2 3.7-11 9.2-9.1 10.4-12.6 21.9-14.3 27.7s-3.6 14.3-3.7 24.9" id="path238"/></g></g></g><path d="M145.1 142.2c15.4-.5 30.9-.9 46.4-1.4.3-5.2.7-10.4 1-15.6-15.8 2.1-31.5 4.3-47.1 6.5.5-2.4 1.1-4.8 1.6-7.2-8.6 4.8-17.1 9.5-25.7 14.3 7.9 3 15.9 6.1 23.9 9.1 0-1.9-.1-3.8-.1-5.7z" id="path239" style="fill:#fff;stroke:#010101;stroke-width:.99;stroke-linecap:round;stroke-linejoin:round"/></g></g></g><g id="g243"><ellipse cx="148" cy="152.4" rx="123.9" ry="123" id="ellipse242" style="fill:none;stroke:#fff;stroke-width:4.0295;stroke-miterlimit:10"/><ellipse cx="148.1" cy="152.3" rx="125.7" ry="124.7" id="ellipse243" style="fill:none;stroke:#010101;stroke-width:1.2;stroke-miterlimit:10"/></g></g><path id="rect246" style="fill:none;stroke:#000;stroke-miterlimit:10" d="M0 0h836.4v303.3H0z"/></svg>