<?xml version="1.0" encoding="utf-8"?>
<!-- Generator: Adobe Illustrator 28.3.0, SVG Export Plug-In . SVG Version: 6.00 Build 0)  -->
<svg version="1.1" id="uuid-5ae7548f-e7c6-4d21-a5cc-3455110fe2d1"
	 xmlns="http://www.w3.org/2000/svg" xmlns:xlink="http://www.w3.org/1999/xlink" x="0px" y="0px" viewBox="0 0 836.4 303.3"
	 style="enable-background:new 0 0 836.4 303.3;" xml:space="preserve">
<style type="text/css">
	.st0{fill:#010101;stroke:#010101;stroke-width:0.27;stroke-miterlimit:10;}
	.st1{fill:none;stroke:#010101;stroke-width:0.97;stroke-miterlimit:10.0003;}
	.st2{clip-path:url(#SVGID_00000163051932998251147570000017801410313125758115_);}
	.st3{fill:none;stroke:#010101;stroke-width:0.66;stroke-linecap:round;stroke-linejoin:round;}
	.st4{fill:none;stroke:#010101;stroke-width:1.32;stroke-linecap:round;stroke-linejoin:round;}
	.st5{fill:none;stroke:#010101;stroke-width:1.25;stroke-miterlimit:10;}
	.st6{fill:none;stroke:#FFFFFF;stroke-width:3.7;stroke-miterlimit:10;}
	.st7{fill:#E40521;}
	.st8{clip-path:url(#SVGID_00000093154972833681173400000009594694470838672824_);}
	.st9{fill:none;stroke:#010101;stroke-width:0.67;stroke-linecap:round;stroke-linejoin:round;}
	.st10{fill:none;stroke:#010101;stroke-width:1.34;stroke-linecap:round;stroke-linejoin:round;}
	.st11{fill:none;stroke:#010101;stroke-width:1.26;stroke-miterlimit:10;}
	.st12{fill:none;stroke:#FFFFFF;stroke-width:3.75;stroke-miterlimit:10;}
	.st13{fill:#11A438;}
	.st14{fill:none;stroke:#010101;stroke-width:1.14;stroke-miterlimit:10;}
	.st15{fill:#010101;}
	.st16{fill:none;}
	.st17{fill:none;stroke:#010101;stroke-width:0.99;stroke-linecap:round;stroke-linejoin:round;}
	.st18{fill:none;stroke:#FFFFFF;stroke-width:6.96;stroke-miterlimit:10;}
	.st19{fill:#FFFFFF;stroke:#010101;stroke-width:0.99;stroke-linecap:round;stroke-linejoin:round;}
	.st20{fill:none;stroke:#FFFFFF;stroke-width:4.0295;stroke-miterlimit:10;}
	.st21{fill:none;stroke:#010101;stroke-width:1.2;stroke-miterlimit:10;}
	.st22{fill:none;stroke:#000000;stroke-miterlimit:10;}
</style>
<g>
	<path class="st0" d="M33.4,29.9c0.6,0,1.1-0.3,1.6-0.7c0.5-0.4,0.7-1,0.7-1.6S35.4,26.5,35,26s-1-0.7-1.6-0.7
		c-0.7,0-1.2,0.2-1.6,0.7c-0.5,0.4-0.7,1-0.7,1.6s0.3,1.2,0.7,1.6C32.2,29.7,32.8,29.9,33.4,29.9z"/>
	<path class="st0" d="M37,45.2c-0.6-0.1-1.1-0.2-1.3-0.5s-0.3-0.9-0.3-1.9V31.9h-5.8v0.5c0.6,0.1,1.1,0.2,1.3,0.5
		c0.2,0.3,0.3,0.9,0.3,1.9v8.1c0,1-0.1,1.6-0.3,1.8c-0.3,0.3-0.8,0.5-1.4,0.5v0.5H37V45.2z"/>
	<ellipse class="st1" cx="33.1" cy="36.3" rx="17.7" ry="17.7"/>
</g>
<g>
	<g>
		<g>
			<g>
				<g>
					<defs>
						<ellipse id="SVGID_1_" cx="424.6" cy="152.1" rx="119.8" ry="122.2"/>
					</defs>
					<clipPath id="SVGID_00000000905413001974096170000004095574273993038507_">
						<use xlink:href="#SVGID_1_"  style="overflow:visible;"/>
					</clipPath>
					<g style="clip-path:url(#SVGID_00000000905413001974096170000004095574273993038507_);">
						<g>
							<g id="uuid-080fe87b-4745-4f39-9186-7a5c18384722">
								<path class="st3" d="M479.5,326.6L479.5,326.6l0.7,0.9l0.5,0.9l0.3,1l0.2,0.9v0.1l0.1,1l-0.1,1l-0.2,1l-0.4,1l-0.5,0.9
									l-0.6,0.8"/>
							</g>
							<g id="uuid-dc91cd67-633f-44b9-948d-73ee147bed7f">
								<g>
									<path class="st3" d="M391.1,253.1l0.1,0.1l0.4,0.1l0.6,0.1l0.8,0.1l0.8,0.1h0.9h1.7"/>
									<path class="st3" d="M391.1,244l0.1,0.1l0.3,0.1l0.6,0.1l0.8,0.1h0.8h1v9.3l0.1,1.3l0.2,1.3l0.4,1.3l0.7,1.2l1,0.8l1.1,0.1
										h1.8"/>
									<path class="st3" d="M392.8,257.6L392.8,257.6"/>
									<path class="st3" d="M394.1,258.8L394.1,258.8"/>
									<path class="st3" d="M453.3,251.5l-0.2,0.4l-0.6,0.4l-0.9,0.4l-1.2,0.4l-1.6,0.4l-1.9,0.3l-2.2,0.3l-2.4,0.3l-2.6,0.2
										l-2.8,0.2l-3,0.2l-3.1,0.1l-3.2,0.1h-3.2h-3.2l-3.2-0.1l-3.1-0.1l-3-0.2l-2.8-0.2l-2.6-0.2l-2.4-0.3l-2.2-0.3l-1.9-0.3
										l-1.6-0.4l-1.2-0.4l-0.9-0.4l-0.6-0.4l-0.2-0.4"/>
									<path class="st3" d="M394.7,244.5h1.1"/>
									<path class="st3" d="M395.8,245.6l0.3,0.6l1.1,0.6l1.7,0.5l2.3,0.5l2.9,0.4l3.4,0.4l3.8,0.3l4.2,0.2l4.4,0.1h4.5h4.5
										l4.4-0.1l4.2-0.2l3.8-0.3l3.4-0.4l2.9-0.4l2.3-0.5l1.7-0.5l1.1-0.6l0.3-0.6"/>
									<path class="st3" d="M396.3,253.3L396.3,253.3"/>
									<path class="st3" d="M409.1,259.9l-0.7-0.1l-0.7-0.2l-0.7-0.3l-0.4-0.3l-0.6-0.7l-0.3-0.6l-0.2-0.5"/>
									<path class="st3" d="M419,258.2h-0.2"/>
									<path class="st3" d="M418.3,245.9l0.2-0.2l0.6-0.2l1-0.2l1.3-0.1l1.5-0.1h1.6h1.6l1.5,0.1l1.3,0.1l1,0.2l0.6,0.2l0.2,0.2"
										/>
									<path class="st3" d="M430.2,258.2h0.2"/>
									<path class="st3" d="M440,259.9l0.7-0.1l0.7-0.2l0.7-0.3l0.3-0.3l0.6-0.7l0.3-0.6l0.2-0.5"/>
									<path class="st3" d="M453.3,244.5h1.1v9.3l-0.1,1.3l-0.2,1.3l-0.4,1.3l-0.7,1.2l-1,0.8l-1.1,0.1h-1.6"/>
									<path class="st3" d="M452.8,253.3L452.8,253.3"/>
									<path class="st3" d="M458,253.1l-0.1,0.1l-0.4,0.1l-0.6,0.1l-0.8,0.1l-0.8,0.1h-1h-1.7"/>
									<path class="st3" d="M455,258.8L455,258.8l0.1-0.1"/>
									<path class="st3" d="M454.4,244.5h1h0.8l0.8-0.1l0.6-0.1l0.4-0.1l0.1-0.1"/>
								</g>
								<g>
									<path class="st4" d="M391.1,250.1v-13v16.3l0.2,1.3l0.5,1.4l0.9,1.4l0.3,0.3l1.5,1.2l-0.2-0.2"/>
									<path class="st4" d="M391.1,241.4v-13.1v8.7"/>
									<path class="st4" d="M391.1,228.3V226l0.2-0.2l0.7-0.2l1.1-0.2l1.5-0.1l1.7-0.1h1.8h52.5h1.8l1.7,0.1l1.3,0.1h0.2l1.1,0.2
										l0.7,0.2l0.2,0.2v27.3l-0.2,1.3l-0.5,1.4l-0.8,1.4"/>
									<path class="st4" d="M393.8,258.5l0.3,0.2l0.3,0.2l0.3,0.2l1.6,0.6l-0.2-0.1"/>
									<path class="st4" d="M395.8,251.5v-1.4V251.5l0.1,0.9l0.5,1.3l0.6,0.7l1.2,0.9l0.8,0.4l0.8,0.3l1.1,0.4l1.4,0.3l1.7,0.3
										l2,0.3l2.2,0.3l2.4,0.2l2.6,0.2l2.7,0.2l3,0.1l2.8,0.1h2.8h2.8l2.8-0.1l3-0.1l2.7-0.2l2.7-0.2l2.2-0.2l2.2-0.3l2-0.3
										l1.7-0.3l1.4-0.3l1.1-0.4l0.8-0.3l0.8-0.4l1.2-0.9l0.6-0.7l0.2-0.4l0.4-0.9l0.1-0.9v-7"/>
									<path class="st4" d="M395.8,250.1v-5.6v1.2"/>
									<path class="st4" d="M396.3,259.8l0.2,0.1h0.2h0.2h1.5l10.8,0.1l1.2-0.1l1.7-0.2l3.3-0.2l3.6-0.2l3.8-0.1h3.8l3.8,0.1
										l3.6,0.2l3.3,0.2l1.7,0.2l1.2,0.1l10.8-0.1h1.5h0.2h0.2l0.2-0.1"/>
									<path class="st4" d="M418.3,245.9l0.2,0.2l0.6,0.2l1,0.2l1.3,0.1l1.5,0.1h1.6h1.6l1.5-0.1l1.3-0.1l1-0.2l0.6-0.2l0.2-0.2"
										/>
									<path class="st4" d="M453.5,259.5l-0.7,0.3l-0.2,0.1l1.8-0.7l0.3-0.2l0.3-0.2l1.2-1l0.3-0.3"/>
								</g>
							</g>
							<g id="uuid-d86ec4f0-b5cb-4222-814b-71835c23287e">
								<path class="st3" d="M479.5,324.4l1.4,1.2l1.2,1.8l0.8,2l0.3,2.2l-0.3,2.2l-0.8,2l-1.2,1.8l-1.4,1.2"/>
								<g>
									<path class="st4" d="M492.1,312v-1.3v-0.2v-0.2l-0.1-0.1l-0.1-0.1l-0.1-0.1l-11.4-5.7l-0.2-0.1H480h-0.2l-0.2,0.1"/>
									<path class="st4" d="M492.1,311v39.2"/>
								</g>
							</g>
							<g id="uuid-475a7e3c-1338-4076-bb06-6749de0ad017">
								<g>
									<path class="st3" d="M393.3,43.2h7.2"/>
									<path class="st3" d="M393.3,43.2h7.2"/>
									<path class="st3" d="M427.1,122.4h-11.5"/>
									<path class="st3" d="M427.1,156.5h3.6"/>
									<path class="st3" d="M433.5,122.4h-2.9"/>
								</g>
								<g>
									<path class="st4" d="M114.1,341h245V-45.9"/>
									<path class="st4" d="M369.9-45.9v396.1"/>
									<path class="st4" d="M393.3,350.2v-92.1"/>
									<path class="st4" d="M393.3,43.2L393.3,43.2v-2V43.2"/>
									<path class="st4" d="M393.3,41.1V-46"/>
									<path class="st4" d="M400.5,350.2v-90.3"/>
									<path class="st4" d="M400.5,43.2V-46"/>
									<path class="st4" d="M427.1,159.1h6.5v-46.4h-18v46.4H427.1V126v2.2"/>
									<path class="st4" d="M427.1,126v-7.4h3.6v40.5"/>
									<path class="st4" d="M468.8-45.9v396.1"/>
									<path class="st4" d="M479.5,350.2V-45.9"/>
								</g>
							</g>
						</g>
					</g>
				</g>
			</g>
		</g>
		<g>
			<ellipse class="st5" cx="424.5" cy="152.3" rx="122.5" ry="124.8"/>
			<ellipse class="st6" cx="424.3" cy="152.4" rx="119.8" ry="122.2"/>
		</g>
	</g>
	<path class="st7" d="M508.6,150.5l-0.5,0.6c-3.2,4.8-5.8,7.3-7.9,7.3c-2.4,0-4.7-1.9-7-5.8c0.3,0,0.5,0,0.7,0c2.7,0,5.7-2,9-6.1
		l0.8-1l-1.1-1.2c-3-3.2-4.5-5.9-4.5-8.1c0-1.8,1.7-4,5-6.5c0.5,3.2,1.9,6.3,4.2,9.3l0.9,1.2l0.7-1c3.4-4.4,6.5-6.5,9.3-6.5
		c2.2,0,3.8,1.6,5,5c-0.3,0-0.6-0.1-0.7-0.1c-1,0-2.4,0.7-4.2,2s-3.3,2.8-4.5,4.5l-0.9,1.3l0.9,0.9c3.3,3.2,6.8,4.8,10.3,4.8
		c-1.9,3.9-3.9,5.9-6,5.9c-1.9,0-4.6-1.7-8.2-5L508.6,150.5L508.6,150.5z"/>
</g>
<g>
	<g>
		<g>
			<g>
				<g>
					<defs>
						<ellipse id="SVGID_00000152249307922269572160000012681054141027320231_" cx="689.4" cy="152.3" rx="121.8" ry="123.3"/>
					</defs>
					<clipPath id="SVGID_00000158743157094004405970000016937307915844793735_">
						<use xlink:href="#SVGID_00000152249307922269572160000012681054141027320231_"  style="overflow:visible;"/>
					</clipPath>
					<g style="clip-path:url(#SVGID_00000158743157094004405970000016937307915844793735_);">
						<g>
							<g id="uuid-98838d5b-c831-428b-a6e2-85d11dec4258">
								<path class="st9" d="M749.2,343.2L749.2,343.2l0.7,0.9l0.5,0.9l0.3,1l0.2,0.9v0.1l0.1,1l-0.1,1l-0.2,1l-0.4,1l-0.5,0.9
									l-0.6,0.8"/>
							</g>
							<g id="uuid-4e0d2a1e-4ae6-4487-b68d-e483ddcf038b">
								<g>
									<path class="st9" d="M708.7,107.9l12.2,0.1l2.2-1.1l2.1-0.8l1.5-0.5l0.9-0.2h0.5l0.2,0.1l-0.6,141.9l-0.2,1.6l-0.6,1.5
										l-0.9,1.4l-1.2,1.2l-1.4,0.8l-1.5,0.5l-1.6,0.2l-53.3-0.2l-1.6-0.2l-1.5-0.5l-1.4-0.9l-1.2-1.2l-0.9-1.4l-0.4-1.3l-0.1-0.2
										l-0.2-1.6l0.2-0.3l0.5-0.3l0.9-0.2l1.2-0.2l1.4-0.1l1.5-0.1h1.6l53.3,0.2v10.1"/>
									<path class="st9" d="M660.3,105.3l0.2-0.2h0.5l0.9,0.2l1.5,0.5l2,0.8l2.3,1.1L667,246.4v9.6"/>
									<path class="st9" d="M679.7,107.8h-12.2l-1.1-2.2l-1-1.8l-0.7-1.2l-0.4-0.6l-0.2-0.2"/>
									<path class="st9" d="M665.1,93.2L665.1,93.2l0.5-0.2l0.6-0.1l0.8-0.1h0.9h0.9L669,90l0.5-2.8l0.8-2.8l1.1-2.6l1.4-2.5
										l1.7-2.3l1.9-2.1l2.2-1.9l2.3-1.6l2.5-1.4l2.7-1.1l2.8-0.8l2.8-0.5l2.9-0.1l2.9,0.2l2.8,0.5l2.8,0.8l2.7,1.1l2.5,1.4
										l2.3,1.7l2.1,1.9l1.9,2.1l1.6,2.3l1.4,2.5l1.1,2.6l0.8,2.7l0.5,2.8l0.2,2.9h0.9h0.9l0.8,0.1l0.6,0.1l0.4,0.1l0.1,0.2v8.4"
										/>
									<path class="st9" d="M668.7,92.6v9.1"/>
									<path class="st9" d="M712.6,70.6L712.6,70.6"/>
									<path class="st9" d="M727.6,249v-1.6l-0.2-0.3l-0.5-0.3l-0.9-0.2l-1.2-0.2l-1.4-0.1l-1.6-0.1h-1.6l0.6-138.2l1.1-2.2l1-1.9
										l0.8-1.2l0.4-0.6l0.2-0.2"/>
									<path class="st9" d="M719.8,92.8v9.1"/>
									<path class="st9" d="M723.5,94.4L723.5,94.4"/>
									<path class="st9" d="M728.2,107.2V107"/>
								</g>
								<g>
									<path class="st10" d="M660,250.9l0.6,1.5l1.1,1.5l1.5,1.2l1.8,0.7l1.9,0.2l53.3,0.2l1.9-0.2l1.8-0.7l1.5-1.2l1.2-1.5
										l0.7-1.8l0.2-1.9l0.6-141.8v-1.6l-0.1-1l-0.4-0.9l-0.6-0.8l-0.8-0.6l-1-0.4l-0.9-0.1H722l-8.1-0.1l-0.4,0.4l-1.7,2.2
										l-0.7,0.8l-0.8,0.8l-0.7,0.7l-1.2,1.1l-1.7,1.4l-3.3,2l-3.7,1.3l-3.8,0.6H692l-3.8-0.7l-3.6-1.4l-3.3-2l-1.7-1.4l-1.2-1.1
										l-0.7-0.7l-0.7-0.8l-1-1.3l-1.3-1.7l-0.3-0.4h-8.7h-1.8l-0.9,0.1l-1,0.4l-0.8,0.6l-0.6,0.8l-0.4,0.9l-0.1,1L659.5,247v1.6
										l0.2,1.9L660,250.9"/>
									<path class="st10" d="M665,101.6v-8.4l0.2-3.3l0.5-3.2l0.9-3.1l1.3-3l1.6-2.9l1.9-2.7l2.2-2.4l2.5-2.2l2.7-1.9l2.8-1.6
										l3-1.2l3.1-0.9l3.2-0.5l3.3-0.1l3.3,0.2l3.2,0.5l3.1,0.9l3,1.3l2.8,1.6l2.7,1.9l2.5,2.2l2.2,2.4l1.9,2.7l1.6,2.9l1.2,3
										l0.9,3.1l0.6,3.2l0.2,3.3v8.4"/>
									<path class="st10" d="M664.1,101.6h2.3"/>
									<path class="st10" d="M722.1,101.9h2.3"/>
								</g>
							</g>
							<g id="uuid-5544dd61-81e6-423f-abc5-64d57c692725">
								<g>
									<path class="st9" d="M674.3,91.2l0.2,1.5l0.4,1.8l0.6,1.8l0.8,1.7l1,1.6l1.1,1.5l1.2,1.4l1.4,1.3l1.5,1.2l1.6,1l1.7,0.9
										l1.8,0.7l1.8,0.5l1.9,0.4l1.9,0.2h1.9l1.9-0.2l1.9-0.3l1.8-0.5l1.8-0.7l1.7-0.9l1.6-1l1.5-1.2l1.4-1.3l1.2-1.4l1.1-1.5
										l0.9-1.6l0.8-1.7l0.6-1.8l0.5-1.9l0.2-1.5"/>
									<path class="st9" d="M674.2,89.9l0.1,1.7"/>
									<path class="st9" d="M674.3,86.8l17.6,0.1V86v-6.7v0.9v6.7"/>
									<path class="st9" d="M714.2,86.7L714.2,86.7l-0.2-0.2h-0.1l-0.2-0.1l-0.3-0.1l-0.5-0.1h-0.4h-0.6h-0.7h-0.8l-0.1-0.8
										l-0.4-1.5l-0.5-1.5l-0.7-1.4l-0.8-1.4l-0.9-1.2l-1-1.2l-1-1.2l-1.2-1l-1.3-0.8l-1.4-0.7l-1.4-0.6l-1.5-0.5l-1.5-0.3
										l-1.6-0.2h-1.6L692,72l-1.5,0.3l-1.5,0.4l-1.5,0.6l-1.4,0.7l-1.3,0.8l-1.2,0.9l-1.1,1.1l-1,1.2l-0.9,1.2l-0.8,1.3l-0.7,1.4
										l-0.5,1.5l-0.4,1.5l-0.2,0.8h-0.9h-0.5L676,86l-0.6,0.1l-0.3,0.1l-0.4,0.1l-0.2,0.1l-0.1,0.1l-0.1,0.1v0.1"/>
									<path class="st9" d="M678,90.6l0.1,0.8l0.4,1.5l0.5,1.5l0.7,1.4l0.8,1.4l0.9,1.3l1,1.2l1.1,1.1l1.2,1l1.3,0.9l1.4,0.7
										l1.5,0.6l1.5,0.4l1.5,0.3l1.6,0.2h1.6l1.6-0.1l1.5-0.3l1.5-0.4l1.4-0.6l1.4-0.7l1.3-0.8l1.2-1l1.1-1l1-1.2l0.9-1.3l0.8-1.3
										l0.7-1.4l0.5-1.5l0.4-1.5l0.2-0.8"/>
									<path class="st9" d="M691.9,85.9H678"/>
									<path class="st9" d="M677.5,78L677.5,78"/>
									<path class="st9" d="M691.9,91.6v5.8"/>
									<path class="st9" d="M691.9,97.4v-6.7"/>
									<path class="st9" d="M691.9,80.2h4.8"/>
									<path class="st9" d="M691.9,79.3L691.9,79.3l4.8-0.1"/>
									<path class="st9" d="M696.7,86l13.9,0.1"/>
									<path class="st9" d="M696.7,86.9l17.6,0.1"/>
									<path class="st9" d="M711.2,78.1L711.2,78.1"/>
									<path class="st9" d="M714.3,90l-0.1,1.7"/>
									<path class="st9" d="M714.2,86.7l-0.2-1.5"/>
								</g>
								<g>
									<path class="st10" d="M674.3,92.6l-0.1-1.1v-1.6l0.1-2.7v-0.4v-0.3l0.2-1.5l0.5-1.8l0.7-1.8l0.8-1.7l1-1.6l1.2-1.6l1.2-1.4
										l1.4-1.3l1.5-1.1l1.6-1l1.7-0.9l1.8-0.7l1.8-0.5l1.9-0.4l1.9-0.2h1.9l1.9,0.2l1.8,0.4l1.8,0.5l1.8,0.7l1.7,0.9l1.6,1
										l1.5,1.2l1.4,1.3l1.2,1.4l1.2,1.6l0.9,1.6l0.8,1.7l0.6,1.8l0.4,1.8l0.2,1.5V87v0.4l0.1,2.7v1.6l-0.3,2.6l-0.6,2.6l-1,2.5
										l-1.3,2.3l-1.6,2.1l-1.7,1.7l-0.2,0.2l-2.1,1.6l-2.3,1.4l-2.5,1l-2.6,0.7l-2.7,0.3h-1.3h-1.3l-2.7-0.4l-2.6-0.7l-2.5-1
										l-2.3-1.4l-2.1-1.7l-1.9-1.9l-1.6-2.2l-1.3-2.3l-1-2.5l-0.6-2.6L674.3,92.6"/>
									<path class="st10" d="M691.9,91.6v-1h-2.3H678h-0.7h-0.5h-0.7l-0.6,0.1l-0.4,0.1l-0.3,0.1l-0.3,0.1l-0.2,0.1h-0.1v0.1v0.3"
										/>
									<path class="st10" d="M691.9,97.4h4.8v-6.7h13.9h0.5h0.5h0.6l0.6,0.1h0.4l0.3,0.1l0.4,0.1l0.2,0.1h0.1l0.1,0.1l0,0v0.3"/>
									<path class="st10" d="M696.7,86.9v-1v-6.7"/>
								</g>
							</g>
							<g id="uuid-fc402827-4d80-4902-b123-cd41ddf2de57">
								<g>
									<path class="st9" d="M749.2,340.9l1.4,1.3l1.3,1.8l0.8,2.1l0.3,2.2l-0.3,2.2l-0.8,2.1l-1.3,1.8l-1.4,1.3"/>
									<path class="st9" d="M761.8,366.7l0.2-39.8"/>
								</g>
								<path class="st10" d="M761.9,366.7l0.2-37.9v-1.9v-0.2l-0.1-0.2l-0.1-0.1l-0.1-0.1l-0.2-0.1l-11.6-5.8l-0.2-0.1h-0.2h-0.2
									l-0.2,0.1"/>
							</g>
							<g id="uuid-3b8999e2-eb4c-4df4-a273-f532b87b40da">
								<g>
									<path class="st9" d="M662.7,55.8h7.3v-0.1L662.7,55.8"/>
									<path class="st9" d="M668.7,367.3l0.4-90.1v2.2"/>
									<path class="st9" d="M669,277.2V274"/>
									<path class="st9" d="M669.1,274.1v0.9"/>
									<path class="st9" d="M670,55.8v-0.5V55.8"/>
									<path class="st9" d="M670,55.2l0.4-87.9"/>
									<path class="st9" d="M749,366.8l1.7-399.9"/>
								</g>
								<g>
									<path class="st10" d="M378.9,358.4l188.7,0.8h-2.2"/>
									<path class="st10" d="M567.6,359.2l59.1,0.2l1.7-391.8"/>
									<path class="st10" d="M637.6,367.5l0.7-153.8v2.2"/>
									<path class="st10" d="M638.3,213.7l0.9-206.6v2.2"/>
									<path class="st10" d="M639.1,7.1l0.2-39.6"/>
									<path class="st10" d="M661.4,367.3l0.4-93.3h7.3v0.1"/>
									<path class="st10" d="M662.7,55.8l0.4-88.4"/>
									<path class="st10" d="M738,366.8l1.7-399.9"/>
									<path class="st10" d="M749.1,366.8l1.7-399.9"/>
								</g>
							</g>
						</g>
					</g>
				</g>
			</g>
		</g>
		<g>
			<ellipse class="st11" cx="689.4" cy="152.3" rx="124.5" ry="126"/>
			<ellipse class="st12" cx="689.3" cy="152.4" rx="121.8" ry="123.3"/>
		</g>
	</g>
	<path class="st13" d="M800.5,119.9l1.1,1.5c-4.4,3.3-9.3,8.4-14.6,15.3s-9.5,13.3-12.3,19.3l-2.3,1.5c-1.9,1.3-3.2,2.3-3.8,2.9
		c-0.3-1-0.8-2.5-1.8-4.7l-0.9-2c-1.2-2.9-2.4-5-3.4-6.4c-1.1-1.4-2.2-2.3-3.6-2.7c2.2-2.3,4.2-3.5,6.1-3.5c1.6,0,3.3,2.1,5.3,6.4
		l0.9,2.1c3.5-5.8,7.9-11.5,13.3-17C790,127,795.3,122.8,800.5,119.9L800.5,119.9z"/>
</g>
<path class="st14" d="M829.2,293"/>
<circle class="st15" cx="424.3" cy="79" r="7.3"/>
<g>
	<g>
		<g>
			<ellipse class="st16" cx="150.8" cy="155" rx="123" ry="122.1"/>
			<g>
				<polygon points="156,194.2 156.3,191.3 154.7,188.8 153.5,188.6 154.7,194.2 				"/>
				<polygon points="198.2,141.6 199.5,127.1 197,125.6 194.2,125.6 194.5,142.9 				"/>
				<polygon points="159.6,203.5 163,198.5 169,197.3 202.6,175.8 203.1,171 166.6,193.6 167,196.4 164.6,194.9 158.1,197.2 
					155.9,200 156.6,204 				"/>
				<g id="uuid-04d103b5-a954-4870-848f-5c118710b49a">
					<g>
						<path class="st17" d="M163.1,198l0.2-0.1l0.1-0.2v-0.3V197l-0.9,0.5l-1,0.5l-0.8,0.3l-0.2,0.1l-1.1,0.4l-1.1,0.4l-1.2,0.3
							l-1.2,0.3l-1.2,0.2l-1.2,0.1l-1.2,0.1h-1.1h-1.1h-0.6h-0.4l-1-0.1l-0.9-0.2l-0.8-0.2l-0.7-0.3l-0.6-0.4l-0.4-0.4l-0.3-0.5
							l-0.2-0.5"/>
						<path class="st17" d="M163,195.1l2.2-1.4l0.3,2l-2.2,1.4L163,195.1l-1.2,0.7l-1.4,0.6l-1.6,0.6l-1.6,0.5l-1.7,0.4l-1.7,0.2
							l-1.7,0.1h-1.7l-1.5-0.1l-1.4-0.2l-1.2-0.3l-1-0.4l-0.8-0.5l-0.6-0.6l-0.2-0.7"/>
						<path class="st17" d="M148.3,190.3h0.3l-0.2,0.2L148.3,190.3l-0.2-0.1l-0.2-0.1V190"/>
						<path class="st17" d="M148.3,190.5l-0.4,0.2"/>
						<path class="st17" d="M156.2,192.8l0.3,0.2l0.1,0.2v0.3l-0.2,0.2l-0.3,0.3l-0.5,0.2l-0.5,0.2l-0.6,0.2h-0.6h-0.6h-0.5
							l-0.4-0.1l-0.3-0.1l-0.1-0.2v-0.3l0.2-0.3l0,0"/>
						<path class="st17" d="M167.9,198l0.2-0.3v-0.4v-0.4v-0.5l-0.3,0.1l-0.3,0.1l-0.4,0.1h-0.3h-0.7l-0.6-3.1h-0.3"/>
						<path class="st17" d="M163.7,197.6l1.5-0.9l0.9,0.2l0.1,0.5l0.1,0.4l0.2,0.3l0.2,0.2"/>
						<path class="st17" d="M165.6,195.6v0.3v0.3l-0.1,0.2l-0.2,0.2"/>
						<path class="st17" d="M163.8,197.7h0.4"/>
						<path class="st17" d="M163.8,197.7h0.3"/>
						<path class="st17" d="M202.7,170.5v0.3l-0.2,0.3l-0.4,0.3l-34.6,21.9l-0.3,0.1l-0.3,0.1l-0.4,0.1h-0.3h-0.3h-0.3"/>
						<path class="st17" d="M167.5,193.3l0.6,3.1l34.6-22v0.6v0.5l-0.2,0.4l-0.3,0.3"/>
						<path class="st17" d="M203.3,173.8v0.1l-0.2,0.3l-0.3,0.2l-0.6-3.1"/>
					</g>
					<g>
						<path class="st17" d="M203,175.5l-0.1,0.2l-0.2,0.3l-0.3,0.3L167.9,198l-0.1,0.1l-0.2,0.1h-0.2H167h-0.2l-3-0.6l0,0v-0.1
							l-0.7,0.4l-0.8,0.5l-0.9,0.4l-1,0.4l-1,0.4l-1,0.3l-1.1,0.3l-1.1,0.2l-1.1,0.2l-1.1,0.1l-1.1,0.1h-2.1l-1-0.1l-0.9-0.1
							l-0.8-0.2l-1-0.3l-0.6-0.3l-0.6-0.4l-0.2-0.2l-0.4-0.4l-0.2-0.3l-0.3-0.4l-0.3-0.8l-0.3-2v-0.7l0.2-0.8l0.5-0.8l0.8-0.7l1-0.8
							l1.6-1l-0.1-0.8v-0.1l0.1-0.1l0.2-0.1l3.3-2.1"/>
						<path class="st17" d="M203.2,173l-0.5-2.5l-0.1-0.3l-0.3-0.2l-0.5-0.1l-15.2-3l-0.6-0.1h-0.7h-0.7l-0.7,0.2l-0.7,0.2l-0.5,0.3
							l-29.8,18.9"/>
					</g>
				</g>
				<g id="uuid-38fa878e-e094-4f52-9dc4-9758099ff4e8">
					<g>
						<path class="st17" d="M161.6,202.2l0.1-0.1V202l0,0v-0.1v-0.2v-0.2v-0.1l-0.1-0.6l-0.4,0.3l-0.7,0.4h-0.1l0.1,0.6l-0.4,0.2
							l-0.6,0.2l-0.6,0.2l-0.7,0.2l-0.7,0.2l-0.7,0.2l-0.7,0.1l-0.7,0.1l-0.7,0.1H154h-0.7H152h-0.6l-0.6-0.1l-0.6-0.1l-0.5-0.1
							l-0.4-0.2l-0.4-0.2l-0.3-0.2l-0.2-0.2l0,0l-0.2-0.2l-0.1-0.3"/>
						<path class="st17" d="M152.3,194.4v0.2"/>
						<path class="st17" d="M155.2,187.2v0.2l-0.1,0.2l-0.2,0.2l-0.4,0.2l-0.4,0.1l-0.5,0.1l-0.5,0.1h-0.5h-0.5h-0.2h-0.2l-0.3-0.1
							l-0.2-0.2v-0.2"/>
						<path class="st17" d="M154.1,186.5l0.2,0.1v0.1v0.1l-0.1,0.1l-0.1,0.1l-0.2,0.1l-0.3,0.1l-0.3,0.1h-0.4h-0.8H152l-0.2-0.1
							l-0.1-0.1V187v-0.1"/>
						<path class="st17" d="M156.4,193.6v0.2"/>
						<path class="st17" d="M160.4,203L160.4,203"/>
						<path class="st17" d="M163,199.3v0.3l-0.1,0.3l-0.1,0.3l-0.2,0.3l-0.3,0.3l-0.3,0.3l-0.3,0.2"/>
						<path class="st17" d="M161.6,202.2l0.3-0.3"/>
						<path class="st17" d="M160.6,202.1v0.2l0,0"/>
					</g>
					<g>
						<path class="st17" d="M163,199.3v0.2v0.3v0.2v0.3l-0.1,0.2l-0.1,0.3l-0.2,0.3l-0.1,0.2l-0.2,0.3l-0.3,0.3l-0.1,0.1l-0.2,0.2
							h-0.1h-0.1l0,0h-0.1h-0.1H161v0.1v0.1v0.1v0.1l0,0v0.1l-0.1,0.1l0,0l-0.5,0.2l-0.5,0.2l-0.5,0.2l-0.6,0.2l-0.6,0.2l-0.6,0.1
							L157,204l-0.6,0.1h-0.6l-0.7,0.1h-0.6h-0.6h-0.6h-0.7l-0.5-0.1l-0.5-0.1l-0.4-0.1l-0.4-0.1l-0.2-0.1l-0.4-0.2l-0.3-0.2
							l-0.2-0.1l-0.2-0.2l-0.1-0.1l-0.2-0.3l-0.2-0.5l-0.1-0.2v-0.3l-0.3-1.5"/>
						<path class="st17" d="M156.4,193.6l-1.2-6.4L155,187l-0.2-0.1l-0.7-0.4h-0.2h-0.3h-0.3H153l-0.3,0.1l-0.3,0.1l-0.3,0.1
							l-0.2,0.2l-0.7,0.8v0.2l1.2,6.5"/>
						<path class="st17" d="M163,199.3l-0.2-1.1"/>
					</g>
				</g>
				<g id="uuid-4937a43d-9ee4-4ded-b0eb-34a3b40d4cf2">
					<g>
						<path class="st17" d="M373.9-50.5"/>
					</g>
				</g>
				<g id="uuid-d868e009-3577-4f62-b13b-46cc20fc271e">
					<g>
						<path class="st17" d="M215,46.7c0,0.6-0.1,1.2-0.1,1.8l-0.3,4.4L202,246.8L41.8,214.9"/>
						<path class="st17" d="M25,193.8"/>
						<path class="st17" d="M203.3,251l0.6-0.2l0.4-0.3l0.4-0.5l0.3-0.6l0.1-0.7c4.3-66.6,8.7-133.3,13-199.9"/>
						<path class="st17" d="M193.5,36c-1.3,20.5-2.7,41-4,61.5l2.2,0.4c1.3-20.3,2.6-40.5,3.9-60.8"/>
						<path class="st17" d="M176.5,192.6c-0.4,6.9-0.9,13.7-1.3,20.6c-6.1-1.2-15.1-3-21.2-4.2c-40.8-8.1-81.6-16.1-122.5-24"/>
						<path class="st17" d="M49.8,216.5"/>
						<path class="st17" d="M17.8,189.6"/>
						<path class="st17" d="M17.5,210.1"/>
						<path class="st17" d="M25.8,179.4c5.4,1.1,10.9,2.1,16.3,3.2l-3.5-0.7"/>
						<path class="st17" d="M36,193.2l2.5,0.5l-2.7-0.6"/>
						<path class="st17" d="M39.4,196.6c48,9.5,95.9,19.1,143.9,28.6l2.5-38.5"/>
						<path class="st17" d="M40.3,194c1.4,0.3,2.8,0.6,4.2,0.9c-2-0.4-4-0.9-6-1.3"/>
						<path class="st17" d="M48.9,195.8l3.5,0.7L42,194.4"/>
						<path class="st17" d="M42,182.7l17.3,3.4l-3.5-0.7"/>
						<path class="st17" d="M48.9,216.3l3.5,0.7"/>
						<path class="st17" d="M66.2,199.2l3.5,0.7l-17.3-3.4"/>
						<path class="st17" d="M59.3,186.1l6.9,1.4l-3.5-0.7"/>
						<path class="st17" d="M66.2,219.8l3.5,0.7"/>
						<path class="st17" d="M66.2,187.5l10.4,2.1l-3.5-0.7"/>
						<path class="st17" d="M83.5,202.6l3.5,0.7l-17.3-3.4"/>
						<path class="st17" d="M76.6,189.6l17.3,3.4l-3.5-0.7"/>
						<path class="st17" d="M83.5,223.2l3.5,0.7"/>
						<path class="st17" d="M87,203.3l17.3,3.4l-3.5-0.7"/>
						<path class="st17" d="M93.9,193l17.3,3.4l-3.5-0.7"/>
						<path class="st17" d="M100.8,226.6l3.5,0.7"/>
						<path class="st17" d="M104.2,206.8l17.3,3.4l-3.5-0.7"/>
						<path class="st17" d="M111.1,196.4l10.4,2.1l-3.5-0.7"/>
						<path class="st17" d="M118.1,230.1l3.5,0.7"/>
						<path class="st17" d="M121.5,210.2l17.3,3.4l-3.5-0.7"/>
						<path class="st17" d="M121.5,198.5l6.9,1.4l-3.5-0.7"/>
						<path class="st17" d="M128.4,199.9l13.9,2.7l-3.5-0.7"/>
						<path class="st17" d="M138.8,234.2l-3.5-0.7"/>
						<path class="st17" d="M138.8,213.6l17.3,3.4l-3.5-0.7"/>
						<path class="st17" d="M143.8,202.9l1.9,0.4l-3.4-0.7L143.8,202.9"/>
						<path class="st17" d="M145.7,203.3l4.4,0.8"/>
						<path class="st17" d="M149.2,204l1.1,0.2"/>
						<path class="st17" d="M152.6,204.6L152.6,204.6h-0.2"/>
						<path class="st17" d="M152.6,204.7l3.5,0.7L152.6,204.7"/>
						<path class="st17" d="M186.9,33.6c-3,45.6-5.9,91.2-8.9,136.8"/>
						<path class="st17" d="M156.1,237.6l-3.5-0.7"/>
						<path class="st17" d="M156.1,217l17.3,3.4l-3.5-0.7"/>
						<path class="st17" d="M156.1,205.3l6.9,1.4l-3.4-0.7"/>
						<path class="st17" d="M163,206.7l3.5,0.7L163,206.7"/>
						<path class="st17" d="M169.9,240.4l3.5,0.7"/>
						<path class="st17" d="M169.9,208.1l-3.4-0.7l5.9,1.2L169.9,208.1"/>
						<path class="st17" d="M173.4,220.5l8,1.6l2.2-34"/>
						<path class="st17" d="M172.4,208.6l0.9-13.9"/>
						<path class="st17" d="M183.8,32.7c-3,46.7-6,93.3-9.1,140"/>
						<path class="st17" d="M179,155l0.2-3.4L179,155"/>
						<path class="st17" d="M180.1,137.8l0.2-3.4"/>
						<path class="st17" d="M183.7,243.1l-3.5-0.7"/>
						<path class="st17" d="M185.9,186.6l-2.5,38.5h-0.1"/>
						<path class="st17" d="M183.7,83l0.2-3.4"/>
						<path class="st17" d="M187.2,243.8l6.9,1.4"/>
						<path class="st17" d="M194.1,142.7l-0.9,0.1l1.1-17.6l5.2,1v1h-0.1l-1,14.3h0.1v0.5L194.1,142.7"/>
						<path class="st17" d="M193.2,142.8l5.2,1l0.1-1.6"/>
						<path class="st17" d="M191.6,97.9"/>
						<path class="st17" d="M0,303.3L0,303.3"/>
						<path class="st17" d="M198.5,141.6l1-14.4"/>
						<path class="st17" d="M205,248.7l6.8-0.8l1.1-9.7c3.7-60.6,7.3-121.2,11-181.9"/>
					</g>
					<g>
						<path class="st17" d="M44,219.5"/>
						<path class="st17" d="M211.8,247.9c-0.6,0.8-1.1,1.5-1.7,2.3c-2.3,0.2-4.5,0.5-6.8,0.8h-0.6C149.1,240.4,95.6,229.7,42,219.1"
							/>
					</g>
				</g>
				<g>
					<path class="st18" d="M34.9,206.6c0.1-6.7,1.1-17.2,5.6-28.9c3.2-8.4,7.1-18.5,17.2-26.8c11.8-9.6,25.1-11,31.2-11.2"/>
					<g id="uuid-246571f1-4e4f-4df1-812d-731deb6366d3">
						<g>
							<path class="st17" d="M79,144.7l0.7-0.4l0.6-0.7l0.4-0.9l0.1-1.1l-0.1-0.8v-0.4l-0.3-1l-0.6-0.9l-0.7-0.5l-0.4-0.1h-0.4"/>
							<path class="st17" d="M77.2,143.5H77l1.5-0.1l0.5-0.1l0.4-0.3l0.3-0.4l0.2-0.7v-0.7l-0.1-0.5l-0.3-0.7l-0.4-0.4l-0.5-0.2
								h-0.5"/>
							<path class="st17" d="M77,143.5h-0.2"/>
							<path class="st17" d="M78.1,139.3l-1.7,0.2"/>
							<path class="st17" d="M85.7,144.2v3.2l0.1,0.8c0.1,0.4,0.2,0.9,0.2,1.3"/>
							<path class="st17" d="M107.7,129.5l-14.2,1.2l0.1,0.1v0.1l-0.5,0.1l-0.6,0.4l-0.4,0.7l-0.3,0.8v0.6l-0.1,5.3l-0.2,3.5
								l-0.3,3.5l-0.3,2.6h-0.3l-4.9-1.1"/>
							<path class="st17" d="M85.8,144.2l3.4-0.3l0.7-0.4l0.6-0.7l0.3-0.9l0.1-1.1l-0.1-1.1l-0.4-1l-0.6-0.8l-0.7-0.6l-0.4-0.1h-0.4
								c-0.7-0.1-1.4-0.1-2.2-0.2c0.1-0.6,0.1-1.3,0.2-1.9l0.3-2.5"/>
							<path class="st17" d="M86.2,137.3L86.2,137.3"/>
							<path class="st17" d="M91.7,150.9L91.7,150.9l-0.6-0.4l-0.4-0.6l-0.1-0.8v-0.6l0.3-2.6l0.3-3.5l0.2-4.9v-3.9l-4.8-1.1
								l0.2-0.9l0.4-0.8l0.5-0.6l0.6-0.4l0.7-0.2l4.4,1l-0.4,0.1l-0.6,0.4l-0.5,0.6l-0.3,0.9l-0.1,0.9h0.4"/>
							<path class="st17" d="M89,129.7l14.3-1.2"/>
							<path class="st17" d="M90.9,148.5v0.8L91,150l0.4,0.5l0.4,0.2l0.6,0.1l-0.1,0.2l14.2-1.2"/>
							<path class="st17" d="M106.6,149.6l-14.2,1.2"/>
							<path class="st17" d="M92.2,151L92.2,151"/>
							<path class="st17" d="M93.7,131l14.2-1.2"/>
							<path class="st17" d="M119.5,130.7l-11.6,0.9v5.1l-0.4,6.5l-0.6,4.3c4.2-0.3,8.3-0.7,12.5-1"/>
							<path class="st17" d="M106.9,147.4l11.5-1"/>
							<path class="st17" d="M107.9,131.7v-1.4l8-0.7"/>
							<path class="st17" d="M107.9,131.4l11.4-1"/>
							<path class="st17" d="M113.4,145.5v0.1l-0.1,0.1l-1.4,0.1l-0.1-0.1v-0.1l0.1-2.2v-0.2l0.1-0.1l1.5-0.1l0.2,0.1v0.2
								L113.4,145.5L113.4,145.5l-0.2,0.2h-0.1h0.1"/>
							<path class="st17" d="M113.1,145.8l-1.4,0.1"/>
							<path class="st17" d="M113.3,145.5l0.1-2.2h0.1"/>
							<path class="st17" d="M113.5,143.3v-0.2"/>
							<path class="st17" d="M114.1,134.7v0.1L114,135l-1.4,0.1l-0.2-0.1v-0.1l0.1-2.2v-0.2l0.1-0.1l1.6-0.1l0.1,0.1v0.2
								L114.1,134.7L114.1,134.7l-0.1,0.1l-0.1,0.1h0.1"/>
							<path class="st17" d="M113.9,134.9l-1.4,0.1"/>
							<path class="st17" d="M114.1,134.6l0.1-2.2h0.1"/>
							<path class="st17" d="M114.2,132.5v-0.2"/>
						</g>
						<g>
							<path class="st17" d="M32.7,202c0-7.5,1.1-18.6,6.6-30.4c1.8-4,3.9-7.5,5.9-10.4"/>
							<path class="st17" d="M45.2,161.1C53,150.3,64,142.3,77,139.3c0.5,0,0.8-0.5,1-1c0.6-1.2,1-1,1-1c0.5-0.5,2.2-0.9,7.1-0.3
								c0.1-1.3,0.3-2.6,0.4-3.9c0-0.2-0.1-1.6,0.8-2.6c0.5-0.5,1.1-0.7,1.3-0.8c1.6-0.5,7.7-1.1,15.9-1.4c1,0.4,2.1,0.8,3.1,1.2
								c0.1,0.2,0.1,0.4,0.2,0.6c3.4-0.3,6.7-0.6,10.1-0.9c0.5,0.5,1,1,1.5,1.5c-0.2,5.3-0.4,10.7-0.6,16c0-0.3,0-0.6,0.1-0.9
								c-4,0.3-8,0.7-11.9,1c-0.2,1-0.3,2-0.5,3c-0.2,0.1-0.3,0.2-0.5,0.3c-5.1,0.3-10.1,0.6-15.2,0.9c-1.7-0.4-3.3-0.8-5-1.2
								c0-1.9,0-3.8,0-5.7c-2.2,0.2-4.4,0.4-6.5,0.5c-0.2,0-0.7-0.1-1.1-0.5c-0.4-0.3-0.5-0.6-0.6-0.8c-2.7,0.5-6.7,1.6-10.9,3.9
								c-2.2,1.2-6.2,3.7-11,9.2c-9.1,10.4-12.6,21.9-14.3,27.7s-3.6,14.3-3.7,24.9"/>
						</g>
					</g>
				</g>
				<path class="st19" d="M145.1,142.2c15.4-0.5,30.9-0.9,46.4-1.4c0.3-5.2,0.7-10.4,1-15.6c-15.8,2.1-31.5,4.3-47.1,6.5
					c0.5-2.4,1.1-4.8,1.6-7.2c-8.6,4.8-17.1,9.5-25.7,14.3c7.9,3,15.9,6.1,23.9,9.1C145.2,146,145.1,144.1,145.1,142.2z"/>
			</g>
		</g>
	</g>
	<g>
		<ellipse class="st20" cx="148" cy="152.4" rx="123.9" ry="123"/>
		<ellipse class="st21" cx="148.1" cy="152.3" rx="125.7" ry="124.7"/>
	</g>
</g>
<path class="st17" d="M218,50.1"/>
<path class="st17" d="M86.1,137"/>
<path class="st17" d="M33.2,202.1"/>
<rect class="st22" width="836.4" height="303.3"/>
</svg>
