<?xml version="1.0" encoding="utf-8"?>
<!-- Generator: Adobe Illustrator 28.3.0, SVG Export Plug-In . SVG Version: 6.00 Build 0)  -->
<svg version="1.1" id="uuid-d213e557-a409-4201-8042-c6c7e4df8d1f"
	 xmlns="http://www.w3.org/2000/svg" xmlns:xlink="http://www.w3.org/1999/xlink" x="0px" y="0px" viewBox="0 0 607 291.3"
	 style="enable-background:new 0 0 607 291.3;" xml:space="preserve">
<style type="text/css">
	.st0{fill:none;stroke:#FFFFFF;stroke-width:3.5398;stroke-miterlimit:9.9995;}
	.st1{clip-path:url(#SVGID_00000028304522574038894650000015825293072919405975_);}
	.st2{fill:none;stroke:#1E1E1C;stroke-width:0.63;stroke-miterlimit:9.9995;}
	.st3{fill-rule:evenodd;clip-rule:evenodd;fill:#080915;}
	.st4{fill-rule:evenodd;clip-rule:evenodd;fill:#0A0D1C;}
	.st5{fill-rule:evenodd;clip-rule:evenodd;fill:#CDCCCC;}
	.st6{fill:none;stroke:#010101;stroke-width:0.63;stroke-linecap:round;stroke-linejoin:round;stroke-miterlimit:3.9998;}
	.st7{fill:none;stroke:#010101;stroke-width:1.2599;stroke-linecap:round;stroke-linejoin:round;stroke-miterlimit:3.9998;}
	.st8{fill:#FFFFFF;stroke:#010101;stroke-width:0.63;stroke-miterlimit:9.9995;}
	.st9{fill:none;stroke:#010101;stroke-width:1.1899;stroke-miterlimit:9.9995;}
	.st10{clip-path:url(#SVGID_00000061435333921397290850000007969291176265547152_);}
	.st11{fill-rule:evenodd;clip-rule:evenodd;fill:#FFFFFF;}
	.st12{fill-rule:evenodd;clip-rule:evenodd;fill:#010101;}
	.st13{fill:none;stroke:#1E1E1C;stroke-width:0.8;stroke-miterlimit:9.9995;}
	.st14{fill-rule:evenodd;clip-rule:evenodd;fill:#080914;}
	.st15{fill:none;stroke:#010101;stroke-width:0.8;stroke-linecap:round;stroke-linejoin:round;stroke-miterlimit:3.9998;}
	.st16{fill:none;stroke:#010101;stroke-width:1.5999;stroke-linecap:round;stroke-linejoin:round;stroke-miterlimit:3.9998;}
	.st17{fill:#FFFFFF;stroke:#010101;stroke-width:0.8;stroke-miterlimit:9.9995;}
	.st18{fill:none;stroke:#010101;stroke-width:1.2099;stroke-miterlimit:9.9995;}
	.st19{fill:none;stroke:#FFFFFF;stroke-width:3.5898;stroke-miterlimit:9.9995;}
	.st20{fill-rule:evenodd;clip-rule:evenodd;fill:#FFFFFF;stroke:#1E1E1C;stroke-width:1.5999;stroke-miterlimit:9.9995;}
	.st21{fill:none;stroke:#1E1E1C;stroke-width:0.8;stroke-linecap:round;stroke-miterlimit:9.9995;}
	.st22{fill:none;stroke:#000000;stroke-width:0.8523;stroke-miterlimit:10;}
</style>
<ellipse class="st0" cx="453.3" cy="150" rx="115.4" ry="115.6"/>
<g>
	<defs>
		<ellipse id="SVGID_1_" cx="453.4" cy="149.9" rx="117.9" ry="118.2"/>
	</defs>
	<clipPath id="SVGID_00000078756709000377534940000016566131441825470394_">
		<use xlink:href="#SVGID_1_"  style="overflow:visible;"/>
	</clipPath>
	<g style="clip-path:url(#SVGID_00000078756709000377534940000016566131441825470394_);">
		<g>
			<path class="st2" d="M477.5,247.4l2.1,4.2l0,1.6l-3,2.4l-5.2,3.8l-1.9,0.4l-2.7-0.2l-10.2-2.9l-12.8-3.9l-2-1.5l-0.3-0.3v-0.6
				l0.6,0.3l22,6.6l1.7,0l1.8-0.6l2.7-1.8l0.1-0.6l-63.3-107.9l1.9-1.7l5.7-4.3L477.5,247.4L477.5,247.4z"/>
			<path class="st3" d="M472.6,133.2l0.4,0.1l0,41.6h-0.2L472.6,133.2L472.6,133.2z"/>
			<path class="st3" d="M520,7.3l-0.1,292.8h-0.2L519.6,7.3l0-0.2h0.3L520,7.3L520,7.3z"/>
			<path class="st3" d="M555.2,7.3l0-0.2h-0.3l0,0.2l0.1,298.7c0.1,0,0.2,0,0.3,0L555.2,7.3L555.2,7.3z"/>
			<path class="st4" d="M410.6,117.7l0-1.2l0.1,0.1L410.6,117.7L410.6,117.7z"/>
			<path class="st4" d="M374.9,136.4l-0.7-0.1l0.5-0.2l0.3,0.1L374.9,136.4L374.9,136.4z"/>
			<path class="st4" d="M473,176.9l-0.2-2h0.2L473,176.9L473,176.9z"/>
			<path class="st5" d="M373.7,131.8l1.8,3l0.3,1l-0.8,0.5l-0.3-0.1l-2.5-4.1l-0.1-0.5l0.7,0L373.7,131.8L373.7,131.8z"/>
			<path class="st5" d="M381.8,138.3l-2.7,1.9l0,0.8l1.5,2.4l0.3,1L380,145l-3-4.9l0-0.3l2-1.5l0.3-0.6L381.8,138.3L381.8,138.3z"/>
			<path class="st5" d="M380,148.5h-0.6l-0.7-0.9h0.3L380,148.5L380,148.5z"/>
			<path class="st5" d="M381.6,149.9l-0.7-0.2l-0.4-0.6h0.3L381.6,149.9L381.6,149.9z"/>
			<path class="st5" d="M385.4,155v0.4l-0.3-0.1v-0.7L385.4,155z"/>
			<path class="st5" d="M388.4,160.1v0.4l-0.3-0.1v-0.6L388.4,160.1L388.4,160.1z"/>
			<g id="uuid-01254042-b823-450a-9a2f-a5216f6a8485">
				<g>
					<path class="st6" d="M395.9,151.8l-0.9,0.6l-1.2,0.1l-1.6-0.5l-1.1-0.6"/>
					<path class="st6" d="M396.7,148l-0.7-0.4"/>
					<path class="st6" d="M400.4,141.3l2.3,0.7l0.2,0h0.3l0.4,0l0.9-0.3l0.8-0.3l0.8-0.4l0.7-0.5l4.2-3.1"/>
				</g>
				<g>
					<path class="st7" d="M372.6,118l-0.5-1.9l-0.2-1.5l0-0.8l0-1.3l0.4-1.9l0.5-0.8l0.4-0.7l0.6-0.6l0.7-0.6l4.4-3.2l1.3-0.3
						l1.7,0.3l2,0.8l2.3,1.4l2.5,1.9l2.7,2.3l2.8,2.7l2.8,3l2.7,3.2l2.6,3.4l2.4,3.5l2.2,3.5l4.1,6.9l0.4,0.1l0.5,0.2l0.5,0.4
						l0.5,0.5l0.6,0.6l0.5,0.7l0.5,0.7l63.6,108.3l0.7,1.4l0.5,1.2l0.2,1l-0.1,0.7l-0.4,0.3l-6.3,4.7l-0.5,0.4l-0.6,0.3l-0.6,0.3
						l-0.6,0.2l-0.5,0.1l-1.7,0.1l-0.5,0l-1.4-0.2l-21.8-6.5l-1.2-0.6l-0.5-0.3l-1.1-0.9l-0.9-1.1l-1.1-2l0,0.1"/>
					<path class="st7" d="M420.4,215l-37.8-64.4"/>
					<path class="st7" d="M409.6,196.6l-27-46"/>
					<path class="st7" d="M439.9,248.1L383.2,151"/>
					<path class="st7" d="M395.9,151.8l0.5-1.1l0.1-0.8l0-0.8l0.2-1.3l0.3-1.3l0.4-1.1l0.4-0.8l0.4-0.8l0.5-0.8l0.6-0.7l1-1"/>
					<path class="st7" d="M410.9,198.7l1.2,2"/>
					<path class="st7" d="M414.5,204.9l-1.2-2"/>
					<path class="st7" d="M419.5,213.4l18,30.6"/>
				</g>
			</g>
			<g id="uuid-b4f06ddc-218b-4859-be3c-bb36f97e9387">
				<g>
					<path class="st6" d="M370.9,138l0.1,0.1l0.2,0.1l0,0l5.7,1.7l3,5.1l1.1-0.8"/>
					<path class="st6" d="M371.8,131.2l3,5.1"/>
					<path class="st6" d="M375.9,135.5L375.9,135.5"/>
					<path class="st6" d="M376.9,139.9l2.8-2.1"/>
					<path class="st6" d="M381.9,145.6L380,145"/>
					<path class="st6" d="M378.9,140.5l5.7,1.7l0.2,0.1h0.4l0.3-0.1l0.4-0.1l0.2-0.1l0.4-0.1l0.4-0.2l0.6-0.3l0.6-0.3l0.4-0.3
						l1.5-1.1l-5.2-1.6"/>
					<path class="st6" d="M381.7,138.3L381.7,138.3"/>
					<path class="st6" d="M390,139.7l-0.7-1.3l-1.2-2l-0.2-0.3"/>
					<path class="st6" d="M404.4,111.5l0.2,0.1l0.3,0.1l0.7,0.4l0.1,0.1l0.7,0.6l0.8,0.8l0.8,1l0.8,1l0.6,1l0.5,1l0.3,0.9l0.1,0.7"
						/>
					<path class="st6" d="M410,119.9L410,119.9"/>
				</g>
				<g>
					<path class="st7" d="M375.9,135.5l-1.1,0.8l-5.7-1.7l-0.1-0.1l-0.1-0.1l-0.1-0.1l-0.4-0.8l-0.5-1.2l-0.5-1.1l-0.4-1.1l-0.3-1
						l-0.1-0.5l-0.2-1l-0.1-0.9l0-1.4l0.1-0.7l0.1-0.6l0.2-0.5l0.2-0.6l0.3-0.4l0.4-0.5l0.5-0.4l0.4-0.3l7.6-5.7l0.6-0.4l0.8-0.1
						l1,0.2l1.2,0.5l1.3,0.7l1.4,1l1.5,1.2l1.6,1.4l1.6,1.6l1.6,1.8l1.6,1.9l1.5,2l1.5,2l1.4,2.1l1.2,2l1.1,2l0.9,1.9l0.7,1.8
						l0.5,1.6l0.3,1.4"/>
					<path class="st7" d="M372.7,140.5l-0.3-0.5l-1.4-2.1l0-0.1l0-0.2l0-0.2l0.1-0.2l0.1-0.1l0.2-0.2l0.1-0.1l0.2-0.3l0.3-0.3
						l0.2-0.1l0.3-0.3l0.3-0.2"/>
					<path class="st7" d="M371.8,131.2l1.9,0.6l3,5.1l5.7,1.7l0.1,0l0.3,0h0.1l0.3,0l0.4-0.1l0.5-0.2l0.6-0.2l0.4-0.2l0.6-0.3
						l0.4-0.3l0.4-0.3l1.3-1"/>
					<path class="st7" d="M372.4,140.1l0.9,1.2l1,1.2l1,1.2l1,1.2l1,1.1l1,1l1,0.9l1,0.9l1,0.8l0.9,0.7l0.9,0.6l0.5,0.2l0.9,0.5
						l0.8,0.3l1.3,0.4l0.7,0.1l0.6,0.1l0.6-0.1l0.6-0.1l1.1-0.4l0.5-0.3l6.2-4.7"/>
					<path class="st7" d="M381.9,145.6l-3-5.1l2.8-2.1"/>
					<path class="st7" d="M403.4,124.8l6.9-5.2l0.1-0.5l0.2-2.2l-0.1-0.5l-0.2-0.6l-0.3-0.7l-0.4-0.7l-0.5-0.7l-0.5-0.6l-0.5-0.5
						l-0.5-0.4L407,112l-0.2-0.1l-2.4-0.4l-0.4,0.1l-6.9,5.1"/>
				</g>
			</g>
			<g id="uuid-c9c2e538-bf86-4855-9fe6-bb2af37cd336">
				<g>
					<path class="st6" d="M459,302c-1-12.5,2-23.5-1-35.5c0,0-1,0-1.9-0.4"/>
					<path class="st6" d="M456.4,266l3,0.9l-0.3,0"/>
					<path class="st6" d="M459.4,302c-0.4-12.5-0.4-23.5,0-35"/>
					<path class="st6" d="M459,62.9V7.1"/>
					<path class="st6" d="M459.4,62.9V7.1"/>
					<path class="st6" d="M465.6,175.3l7.5-0.5"/>
					<path class="st6" d="M491.9,304.1c0.1-98.6,0.1-197.6,0-297"/>
				</g>
				<g>
					<path class="st7" d="M278.4,293c-18.4-5.5-36.4-10.5-54.1-16.1"/>
					<path class="st7" d="M442.2,251.5c-0.2,16-0.2,33,0,49.5"/>
					<path class="st7" d="M442.2,187.6V7.1"/>
					<path class="st7" d="M446.6,302.2c0.4-15.7,0.4-32.7,0-48.6"/>
					<path class="st7" d="M446.7,195.2l0-0.6L446.7,195.2"/>
					<path class="st7" d="M446.6,7.1v187.5"/>
					<path class="st7" d="M456.4,266.1c-0.4,12.3-0.4,24.3-0.3,35.9"/>
					<path class="st7" d="M456.1,7.1v55l3,0.9l0.3,0"/>
					<path class="st7" d="M465.6,175.3v-44.2l7.5,2.2v44.2L465.6,175.3"/>
					<path class="st7" d="M487.5,302.9c-0.5-98.4-0.5-197.4,0-295.9"/>
					<path class="st7" d="M519.8,304.1c0.2-98.6,0.2-197.6,0-297"/>
					<path class="st7" d="M576.3,303c-0.3-98.5-0.3-196.5,0-295.9"/>
					<path class="st7" d="M554.9,304.1c0.1-98.6,0.1-197.6,0-297"/>
				</g>
			</g>
			<path class="st8" d="M410.7,112.6c6.7-6.3,13.4-12.7,20.1-19c0.7,2.3,1.4,4.6,2.1,6.9c13.6-4.2,27.1-8.4,40.7-12.6
				c1,3.1,1.9,6.3,2.9,9.4c-13.6,4.2-27.1,8.4-40.7,12.6c0.7,2.3,1.4,4.6,2.1,6.9C428.9,115.4,419.8,114,410.7,112.6L410.7,112.6z"
				/>
		</g>
	</g>
</g>
<g>
	<ellipse class="st9" cx="455.8" cy="150" rx="117.9" ry="118.2"/>
	<ellipse class="st0" cx="455.7" cy="149.8" rx="115.4" ry="115.9"/>
</g>
<g>
	<g>
		<defs>
			<ellipse id="SVGID_00000161625272477979110540000009511736536652072858_" cx="148.4" cy="149.8" rx="117.2" ry="117.5"/>
		</defs>
		<clipPath id="SVGID_00000092450485621997028660000001005670078911191691_">
			<use xlink:href="#SVGID_00000161625272477979110540000009511736536652072858_"  style="overflow:visible;"/>
		</clipPath>
		<g style="clip-path:url(#SVGID_00000092450485621997028660000001005670078911191691_);">
			<g>
				<g>
					<path class="st11" d="M215.5,20.2l0,255c12.5-2.1,25-5.8,35.3-13.3c6.4-4.6,12.3-10.1,17.5-16.1c1.9-9.4,3.9-18.9,5.5-28.4
						c2.7-24.7,3.3-49.4,4.5-74.2c1.2-23.3,2.2-46.7,0.2-70c-0.2-1-0.4-1.9-0.6-2.9c-5.2-6.4-10.8-12.5-16.6-18.3
						C248,38.6,232.4,28.1,215.5,20.2z"/>
					<path class="st11" d="M116.9,8.5c-4.8-0.8-9.6-1.7-14.5-2.6c-3.9,0.9-7.8,1.9-11.6,3C99.4,8.1,108.2,8.1,116.9,8.5z"/>
					<path class="st11" d="M166.9,15.2c0,2.5-1.7,4.9-4.8,5c-9.6,0.2-19.3-0.3-28.9-0.8c-18.8-1-38.6-2.8-57.1,1.9
						C62.1,24.8,49.2,32.9,39,42.9C18.3,63.2,15,95.6,13.3,123c-0.8,12.8-2.4,26-1.4,39c0.2,0.8,0.4,1.6,0.7,2.5
						c1.2,4.9,2.1,9.8,2.9,14.8c2.5,6.3,6.2,12,9.5,18c4.4,7.9,7.6,16.4,11.3,24.5c3.4,7.4,7.3,14.8,13,20.7
						c5.3,5.6,11.6,9.9,18.4,13.6c13.8,7.6,28.5,11.8,43.9,14.9c4.5,0.9,9,2,13.3,3.9c3.9,1.7,7.4,4.1,11.5,5
						c5.3,1.2,11,1.1,16.5,0.7c8.4-1,16.8-1.8,25.2-2.5l0.1-262.2C174.4,15.7,170.6,15.5,166.9,15.2z"/>
					<path class="st11" d="M83,273.8c-15.1-5.5-30.2-13-41.3-24.9c-11.5-12.3-16.3-28.7-23.7-43.4c0.4,4.9,0.7,9.8,1.1,14.6
						c1,4.8,2.2,9.5,3.7,14.1c8.6,16.9,20.2,32.2,29.5,48.7c6.1-0.2,12.2-0.2,18.3-0.1c16.8,0.3,33.5,1.9,50.2,1.1
						c-4.1-1.8-8.5-2.7-12.9-3.6C99.4,278.8,91.3,276.8,83,273.8z"/>
					<path class="st11" d="M19.4,12.9c-0.7,3.3-1.4,6.6-1.9,9.9c-1.4,13.5-2.1,27.1-3.2,40.6c1.2-3,2.5-6,4-8.9
						C25.5,40.5,37,30,50.2,21.7c7.4-4.7,15.2-7.8,23.2-9.8c-1.5-1-2.5-2.8-2.5-4.5C59.8,9,48.7,10.4,37.6,11.4
						C31.5,12,25.5,12.4,19.4,12.9z"/>
					<path class="st11" d="M262.5,276.2c0.7-4.2,1.5-8.4,2.3-12.6c-5.5,4.8-11.5,8.9-17.9,12.3C252,275.9,257.3,276,262.5,276.2z"/>
					<path class="st11" d="M259.2,17.8C259.2,17.8,259.2,17.7,259.2,17.8c-2.5-0.8-5-1.4-7.4-1.9c-8-0.6-16.1-0.7-24.1-0.7
						c16.4,8.8,31.1,20,44.1,33.3c-2.4-7.2-5.1-14.2-7.9-21.2C262.3,24.1,260.8,20.9,259.2,17.8z"/>
					<path class="st12" d="M197.1,15.8c-0.2,0-0.4,0-0.5,0l0.1,260.8c0.1,0,0.3,0,0.4,0V15.8z"/>
					<path class="st13" d="M149.6,256.9l6,0l2.4-1.4l1.5-1.5l0.4-109l1-0.9l5.1-0.2l0.2,110.2l-0.2,1.8l-0.8,1.5l-1.6,1.4l-3.9,0.3
						h-4.2l-22.3-1.5l-4.2-0.4l-2-0.7l-0.9-1.1L149.6,256.9L149.6,256.9L149.6,256.9z"/>
					<path class="st14" d="M134.9,126.2l1.4,0.1l0,4.8l-0.3-0.1l-0.2-4.3L134.9,126.2L134.9,126.2L134.9,126.2z"/>
					<path class="st14" d="M136.3,139.7l-0.2,0.1l0-4.8l0.2,0L136.3,139.7L136.3,139.7L136.3,139.7z"/>
					<path class="st4" d="M163.6,131.1l-0.2-1.5l0.2,0.1L163.6,131.1L163.6,131.1L163.6,131.1z"/>
					<path class="st4" d="M136.3,131.4l-5.1-0.2l2.6-0.2l2.3,0l0.3,0.1L136.3,131.4L136.3,131.4L136.3,131.4z"/>
					<path class="st4" d="M142.6,132l4.5-0.2l0.8,0.2L142.6,132L142.6,132L142.6,132z"/>
					<path class="st4" d="M163.9,141.6l-0.2,0.1l0.1-7.9l0.2,0.1L163.9,141.6L163.9,141.6L163.9,141.6z"/>
					<path class="st4" d="M166.1,254.2l-0.2-110.2l0.3-0.2L166.1,254.2L166.1,254.2L166.1,254.2z"/>
					<path class="st12" d="M215.5,20.2c-0.2-0.1-0.3-0.1-0.5-0.2l0.1,255.2c0.1,0,0.3,0,0.4-0.1L215.5,20.2z"/>
					<g id="uuid-493ee2bb-dde1-4cff-9286-5ef12548f111">
						<g>
							<path class="st15" d="M140.5,151.1l-2-0.1l-1.9-0.7l-1.8-1.2l-1.7-1.6l-0.6-0.8"/>
							<path class="st15" d="M142.4,150.7l-1.8-0.6l-1.8-1.2l-0.6-0.5"/>
							<path class="st15" d="M153.6,141.8l3.1,0.2l1.7,0.1l1.4,0l3.9-0.2"/>
						</g>
						<g>
							<path class="st16" d="M127.6,140.2l-0.6,0.2l-0.5,0.2l-0.7,0.5l-0.4,0.4l-0.6,1.2l-0.1,0.4l0,0.7l-0.1,0.4l-0.2,107.6
								l0.1,1.2l0.4,1.2l0.7,1l0.9,0.9l1,0.7l1.2,0.4l0.1,0l1.1,0.1l27,1.8l5.2-0.3l0.9-0.1l0.9-0.5l0.8-0.8l0.6-1.1l0.4-1.3
								l0.1-1.4l0.1-108.8l-0.1-0.7l-0.2-0.7l-0.3-0.6l-0.4-0.5l-0.4-0.3l-0.5-0.1l-0.6-0.1l0-7l-0.2-3.5l-0.5-3.4l-0.9-3.3
								l-1.2-3.1l-1.5-2.8l-1.8-2.4l-2-1.9l-2.1-1.5l-2.2-1l-2.3-0.4l-5,0.2l-1.6,0.3l-0.5,0.1l-1.6,0.6l-1.5,0.9l-0.4,0.3l-1.4,1.1
								l-1.3,1.3l-1.2,1.6l-0.2,0.3"/>
							<path class="st16" d="M140.5,151.1l1.9-0.4l1.8-0.9l1.7-1.4l0.9-1l1.7-2l0.9-1l0.8-0.8l0.6-0.5l0.6-0.4l0.6-0.3l0.6-0.2
								l0.9-0.2"/>
						</g>
					</g>
					<g id="uuid-ce6349c6-71d7-4172-ae78-bd4adef1662b">
						<g>
							<path class="st15" d="M126.2,134.3L126.2,134.3L126.2,134.3l0.2,0l0.2,0l0.2,0l7.1,0.5l0,5.2l2.4,0.2"/>
							<path class="st15" d="M128.2,134.1l8.9,0.6l-3.1,0.2"/>
							<path class="st15" d="M133.9,140.1l2.4-0.1"/>
							<path class="st15" d="M133.9,131.3v-5.1"/>
							<path class="st15" d="M137.1,134.7v0.3"/>
							<path class="st15" d="M136.4,135.1l7,0.5l0.6,0l0.5,0h1.9l0.8,0l1.2-0.1l-8.9-0.6"/>
							<path class="st15" d="M148.4,135.5l0.1-1.3l-0.1-2v-0.3"/>
						</g>
						<g>
							<path class="st16" d="M128.2,130.9l-0.1,1.9l0.1,1.3l-1.1,0.1l-0.4,0l-0.4,0.1l-0.1,0l0,0l0.1,1l0.2,1.3l0.3,1.3l0.4,1.3
								l0.5,1.2l0.5,1.2l0.6,1.1l0.7,1l0.2,0.2l0.7,0.9l0.8,0.8l0.8,0.7l0.3,0.2l0.9,0.6l0.9,0.5"/>
							<path class="st16" d="M136.4,131.2l-2.4,0.1l-7.2-0.5l-0.2,0l-0.2,0l-0.1,0l0,0l0.1-1l0.2-1.3l0.3-1.3l0.4-1.2l0.5-1.2
								l0.5-1.1l0.1-0.2l0.6-1l0.7-0.9l0.7-0.8l1.1-0.9l0.9-0.6l0.9-0.5l0.3-0.2l0.9-0.3l0.9-0.2l0.4-0.1l1-0.1l5.4-0.3l1.3-0.1
								l1.4,0.2l1.3,0.5l1.3,0.7l1.2,1l1.1,1.2l1,1.4l0.9,1.6l0.7,1.8l0.6,1.9l0.4,2l0.2,2l0.1,2l-0.1,2l-0.3,2l-0.5,1.9l-0.7,1.7
								l-0.5,1"/>
							<path class="st16" d="M135.4,148.1l-1.3-0.5"/>
							<path class="st16" d="M133.9,126.1l2.4,0.2v5.2l7,0.5l0.6,0l0.7,0h1.4l0.9,0l1.4-0.1"/>
							<path class="st16" d="M146.8,147.5l-1.2,0.4l-1.3,0.2l-6.5,0.3l-1.4-0.1l-0.9-0.2"/>
							<path class="st16" d="M136.3,140.2l0-5.2l3.1-0.2"/>
						</g>
					</g>
					<g id="uuid-db3cff68-68d3-4f16-828e-365b299c55a6">
						<g>
							<path class="st15" d="M133.6,270.5l1.6,0.1l-1.4-0.1"/>
							<path class="st15" d="M137.3,278.3c0-2,0.3-4.1,0-6.1c-0.3-1.9,0.4-1.5-2.1-1.7c0.5,0,2.3,0.3,2.1,0.2"/>
							<path class="st15" d="M137.5,278.3c0-2.6,0-5.1,0-7.7"/>
							<path class="st15" d="M137.3,103.4c-0.3-27.9-0.3-54.9,0-82.4"/>
							<path class="st15" d="M137.5,103.4c0.5-27.9,0.5-54.9,0-82.4"/>
							<path class="st15" d="M177.9,275.2c0.1-85.7,0.1-170.7,0-256.7"/>
						</g>
						<g>
							<path class="st16" d="M196.8,274.2c0.2-84.7,0.2-170.7,0-255.4"/>
							<path class="st16" d="M172.4,276.5c-0.4-86-0.4-172,0-257.6"/>
							<path class="st16" d="M116.3,270.7c-0.3-83.2-0.3-167.2,0-250.5"/>
							<path class="st16" d="M121.8,272.1c0.2-83.6,0.2-167.6,0-251.8"/>
							<path class="st16" d="M133.8,270.5c-0.9,1.1-0.2,5.3-0.2,6.8"/>
							<path class="st16" d="M133.6,20.6c0.4,26.9-0.6,54.9,0.4,81.9c0,2,3,1,3.5,0.9"/>
							<path class="st16" d="M215.2,22.1c-0.2,84.4-0.2,167.4,0,250.9"/>
						</g>
					</g>
				</g>
				<path class="st17" d="M109.5,104.5c3.9-8.3,7.7-16.5,11.6-24.8l2.6,7.9c2.1-1.4,5.9-3.6,11-4.1c8.8-0.9,15.4,3.9,18.3,5.9
					c8.2,5.9,11.3,13.9,13.9,20.2c1.2,3,4.5,11.9,4.5,24.2c0.1,8.3,0.2,25.4-11.6,38.3c-3.3,3.6-9.5,10.4-18.9,10.8
					c-11.3,0.5-19.6-8.5-21.3-10.4c-2.6-2.9-4.4-5.9-6.1-9.7c-3-6.5-7.1-18-7.5-34.6c2.6,0.4,5.2,0.8,7.9,1.2
					c-0.1,3.1,0,7.3,0.9,12.1c0.5,2.7,1.5,7.5,4.3,13c1.9,3.6,3.7,7.1,7.5,10.2c1.2,1,9.6,7.6,18.6,5c3.5-1,5.8-3,7.3-4.4
					c3.9-3.4,5.7-7.2,7.1-10.5c3.1-6.9,3.6-12.8,3.8-16.1c0.1-1.7,0.5-8.1-1.4-16.4c-1-4.6-1.9-8.5-4.5-12.8
					c-0.9-1.6-9.3-15.1-21.3-14.3c-3.9,0.3-7,2-8.8,3.3c0.9,2.7,1.8,5.4,2.7,8.1C123.1,106,116.3,105.3,109.5,104.5L109.5,104.5
					L109.5,104.5z"/>
			</g>
		</g>
	</g>
	<g>
		<ellipse class="st18" cx="148.4" cy="149.8" rx="119.8" ry="120"/>
		<ellipse class="st19" cx="148.3" cy="150" rx="117.2" ry="117.5"/>
	</g>
	<g>
		<path class="st20" d="M35,119.6c19.3,0.4,38.7,0.8,58,1.2c3.6,0.6,30,5.5,29.7,9.9c-0.3,4.5-26.9,6.2-30.6,6.5
			c-19.8-0.4-39.6-0.9-59.4-1.3"/>
		<path class="st21" d="M107.4,124.6c0.9,3,2.6,4.3,3.3,4.8c1.4,0.9,3,1.1,6.1,1.3c2.4,0.2,4.5,0.1,5.9,0.1"/>
		<path class="st21" d="M106.7,136.4c1.1-3,2.8-4.2,3.6-4.6c1.5-0.8,3.1-0.9,6.2-0.9c2.4-0.1,4.5,0.1,5.9,0.3"/>
	</g>
</g>
<rect class="st22" width="607" height="291.3"/>
</svg>
