<?xml version="1.0" encoding="UTF-8"?>
<svg id="uuid-d213e557-a409-4201-8042-c6c7e4df8d1f" data-name="Ebene 1" xmlns="http://www.w3.org/2000/svg" width="216.49mm" height="104.23mm" xmlns:xlink="http://www.w3.org/1999/xlink" viewBox="0 0 613.66 295.47">
  <defs>
    <style>
      .uuid-5396fcb6-4963-4e2c-847e-9b1f91e20031 {
        fill: #080915;
      }

      .uuid-5396fcb6-4963-4e2c-847e-9b1f91e20031, .uuid-a3fc2fc6-0b69-47d3-9ccb-b79c83e5624a, .uuid-4b3d09e3-2f93-4fe3-ac4e-d9e1a1e6697c, .uuid-4fba51cc-4241-459e-8fb2-99a50cae3eeb, .uuid-c6197601-7cf4-4855-84cf-ce578bb982b4, .uuid-7958ce32-a00d-4842-965a-d56eed7ac37c, .uuid-1758fa3f-2325-41b1-ba1c-251221b13781, .uuid-79f94f1c-fe6b-432a-b9e5-84e7113a4768 {
        fill-rule: evenodd;
      }

      .uuid-5396fcb6-4963-4e2c-847e-9b1f91e20031, .uuid-52765813-b41b-42ab-b9d7-04e4f3df2f44, .uuid-4b3d09e3-2f93-4fe3-ac4e-d9e1a1e6697c, .uuid-4fba51cc-4241-459e-8fb2-99a50cae3eeb, .uuid-c6197601-7cf4-4855-84cf-ce578bb982b4, .uuid-7958ce32-a00d-4842-965a-d56eed7ac37c, .uuid-1758fa3f-2325-41b1-ba1c-251221b13781 {
        stroke-width: 0px;
      }

      .uuid-8a40dedd-29cb-4818-a8f9-517282ccd227, .uuid-b50da7cb-0ef3-43c8-a489-ba1dd31c6e88, .uuid-cad85c69-d28f-41e6-a91c-5cd63d5acb27, .uuid-e905e4cb-2bb4-47cf-928b-7442e27401a0, .uuid-55ac5788-30d0-4bb4-9992-a9944afed0cd, .uuid-83e8ff8c-6c7f-45e3-980d-5a63390be93a, .uuid-adfe66c7-40d1-42ba-a190-5501a998ba97, .uuid-63b5db07-1f99-468e-96a6-512ab0f0565d {
        stroke: #010101;
      }

      .uuid-8a40dedd-29cb-4818-a8f9-517282ccd227, .uuid-39a84883-e968-4b20-a66b-e0a193d4d593, .uuid-a3fc2fc6-0b69-47d3-9ccb-b79c83e5624a, .uuid-adfe66c7-40d1-42ba-a190-5501a998ba97, .uuid-aa32f834-dbbc-49f4-9b8b-0934eece6955 {
        stroke-miterlimit: 10;
      }

      .uuid-8a40dedd-29cb-4818-a8f9-517282ccd227, .uuid-a3fc2fc6-0b69-47d3-9ccb-b79c83e5624a {
        stroke-width: .63px;
      }

      .uuid-8a40dedd-29cb-4818-a8f9-517282ccd227, .uuid-cad85c69-d28f-41e6-a91c-5cd63d5acb27, .uuid-1758fa3f-2325-41b1-ba1c-251221b13781, .uuid-79f94f1c-fe6b-432a-b9e5-84e7113a4768 {
        fill: #fff;
      }

      .uuid-b50da7cb-0ef3-43c8-a489-ba1dd31c6e88 {
        stroke-width: .63px;
      }

      .uuid-b50da7cb-0ef3-43c8-a489-ba1dd31c6e88, .uuid-39a84883-e968-4b20-a66b-e0a193d4d593, .uuid-a3fc2fc6-0b69-47d3-9ccb-b79c83e5624a, .uuid-52765813-b41b-42ab-b9d7-04e4f3df2f44, .uuid-e905e4cb-2bb4-47cf-928b-7442e27401a0, .uuid-b149f711-b773-40ae-b426-35056f90947f, .uuid-55ac5788-30d0-4bb4-9992-a9944afed0cd, .uuid-83e8ff8c-6c7f-45e3-980d-5a63390be93a, .uuid-adfe66c7-40d1-42ba-a190-5501a998ba97, .uuid-aa32f834-dbbc-49f4-9b8b-0934eece6955, .uuid-3cbc15a8-b4ea-46fc-ae2b-e67b4e4415af, .uuid-63b5db07-1f99-468e-96a6-512ab0f0565d, .uuid-b39dadfa-52de-4ff2-9bf6-8c669bed6bae {
        fill: none;
      }

      .uuid-b50da7cb-0ef3-43c8-a489-ba1dd31c6e88, .uuid-55ac5788-30d0-4bb4-9992-a9944afed0cd, .uuid-83e8ff8c-6c7f-45e3-980d-5a63390be93a, .uuid-63b5db07-1f99-468e-96a6-512ab0f0565d {
        stroke-linejoin: round;
      }

      .uuid-b50da7cb-0ef3-43c8-a489-ba1dd31c6e88, .uuid-55ac5788-30d0-4bb4-9992-a9944afed0cd, .uuid-83e8ff8c-6c7f-45e3-980d-5a63390be93a, .uuid-63b5db07-1f99-468e-96a6-512ab0f0565d, .uuid-b39dadfa-52de-4ff2-9bf6-8c669bed6bae {
        stroke-linecap: round;
      }

      .uuid-39a84883-e968-4b20-a66b-e0a193d4d593 {
        stroke-width: 3.54px;
      }

      .uuid-39a84883-e968-4b20-a66b-e0a193d4d593, .uuid-aa32f834-dbbc-49f4-9b8b-0934eece6955, .uuid-3cbc15a8-b4ea-46fc-ae2b-e67b4e4415af {
        stroke: #fff;
      }

      .uuid-a3fc2fc6-0b69-47d3-9ccb-b79c83e5624a, .uuid-b149f711-b773-40ae-b426-35056f90947f, .uuid-79f94f1c-fe6b-432a-b9e5-84e7113a4768, .uuid-b39dadfa-52de-4ff2-9bf6-8c669bed6bae {
        stroke: #1e1e1c;
      }

      .uuid-4b3d09e3-2f93-4fe3-ac4e-d9e1a1e6697c {
        fill: #cdcccc;
      }

      .uuid-4fba51cc-4241-459e-8fb2-99a50cae3eeb {
        fill: #010101;
      }

      .uuid-cad85c69-d28f-41e6-a91c-5cd63d5acb27, .uuid-e905e4cb-2bb4-47cf-928b-7442e27401a0, .uuid-b149f711-b773-40ae-b426-35056f90947f, .uuid-79f94f1c-fe6b-432a-b9e5-84e7113a4768, .uuid-3cbc15a8-b4ea-46fc-ae2b-e67b4e4415af, .uuid-b39dadfa-52de-4ff2-9bf6-8c669bed6bae {
        stroke-miterlimit: 10;
      }

      .uuid-cad85c69-d28f-41e6-a91c-5cd63d5acb27, .uuid-b149f711-b773-40ae-b426-35056f90947f, .uuid-63b5db07-1f99-468e-96a6-512ab0f0565d, .uuid-b39dadfa-52de-4ff2-9bf6-8c669bed6bae {
        stroke-width: .8px;
      }

      .uuid-e905e4cb-2bb4-47cf-928b-7442e27401a0 {
        stroke-width: 1.21px;
      }

      .uuid-c6197601-7cf4-4855-84cf-ce578bb982b4 {
        fill: #0a0d1c;
      }

      .uuid-7958ce32-a00d-4842-965a-d56eed7ac37c {
        fill: #080914;
      }

      .uuid-55ac5788-30d0-4bb4-9992-a9944afed0cd, .uuid-79f94f1c-fe6b-432a-b9e5-84e7113a4768 {
        stroke-width: 1.6px;
      }

      .uuid-83e8ff8c-6c7f-45e3-980d-5a63390be93a {
        stroke-width: 1.26px;
      }

      .uuid-6800e397-8ce6-4914-a46b-0b3556af0dae {
        clip-path: url(#uuid-ae5a065e-353b-403c-9d96-789946bb8a6d);
      }

      .uuid-adfe66c7-40d1-42ba-a190-5501a998ba97 {
        stroke-width: 1.19px;
      }

      .uuid-aa32f834-dbbc-49f4-9b8b-0934eece6955 {
        stroke-width: 3.54px;
      }

      .uuid-3cbc15a8-b4ea-46fc-ae2b-e67b4e4415af {
        stroke-width: 3.59px;
      }

      .uuid-7f005aae-e09e-4493-b25a-b7d3e5bbe9c8 {
        clip-path: url(#uuid-9b6bc7db-a6f4-4e4b-9e86-7b44f1c017e0);
      }
    </style>
    <clipPath id="uuid-ae5a065e-353b-403c-9d96-789946bb8a6d">
      <ellipse class="uuid-52765813-b41b-42ab-b9d7-04e4f3df2f44" cx="425.39" cy="174.84" rx="117.95" ry="118.17"/>
    </clipPath>
    <clipPath id="uuid-9b6bc7db-a6f4-4e4b-9e86-7b44f1c017e0">
      <ellipse class="uuid-52765813-b41b-42ab-b9d7-04e4f3df2f44" cx="120.43" cy="174.81" rx="117.25" ry="117.47"/>
    </clipPath>
  </defs>
  <path class="uuid-1758fa3f-2325-41b1-ba1c-251221b13781" d="M613.56.31h-30.05l-.08-.31h30.23l-.1.31Z"/>
  <path class="uuid-1758fa3f-2325-41b1-ba1c-251221b13781" d="M582.9.31h-49.65l-.08-.31h49.8l-.08.31Z"/>
  <ellipse class="uuid-aa32f834-dbbc-49f4-9b8b-0934eece6955" cx="425.27" cy="174.98" rx="115.43" ry="115.64"/>
  <g class="uuid-6800e397-8ce6-4914-a46b-0b3556af0dae">
    <g>
      <path class="uuid-a3fc2fc6-0b69-47d3-9ccb-b79c83e5624a" d="M449.5,272.42l2.09,4.16.02,1.63-2.98,2.38-5.16,3.79-1.91.41-2.68-.18-10.25-2.93-12.82-3.88-2.05-1.52-.32-.32v-.57l.59.32,22.05,6.57,1.71-.02,1.79-.61,2.7-1.8.13-.57-63.34-107.95,1.89-1.66,5.7-4.29,62.86,107.04Z"/>
      <path class="uuid-5396fcb6-4963-4e2c-847e-9b1f91e20031" d="M444.59,158.14l.43.09.05,41.65h-.23l-.25-41.73Z"/>
      <path class="uuid-5396fcb6-4963-4e2c-847e-9b1f91e20031" d="M492,32.31l-.07,292.77h-.21l-.14-292.77.05-.21h.32l.05.21Z"/>
      <path class="uuid-5396fcb6-4963-4e2c-847e-9b1f91e20031" d="M527.18,32.31l-.07,318.36-.29-.02-.07-318.34.05-.21h.32l.05.21Z"/>
      <path class="uuid-c6197601-7cf4-4855-84cf-ce578bb982b4" d="M382.59,142.64l.02-1.21.13.11-.14,1.11Z"/>
      <path class="uuid-c6197601-7cf4-4855-84cf-ce578bb982b4" d="M346.92,161.34l-.66-.11.46-.16.3.09-.11.18Z"/>
      <path class="uuid-c6197601-7cf4-4855-84cf-ce578bb982b4" d="M445.04,201.88l-.2-2h.23l-.04,2Z"/>
      <path class="uuid-4b3d09e3-2f93-4fe3-ac4e-d9e1a1e6697c" d="M345.74,156.77l1.8,2.96.3.96-.82.46-.3-.09-2.46-4.07-.11-.55.7-.04.89.36Z"/>
      <path class="uuid-4b3d09e3-2f93-4fe3-ac4e-d9e1a1e6697c" d="M353.8,163.3l-2.7,1.91-.02.79,1.54,2.38.3.96-.89.63-3.05-4.88-.02-.3,2.05-1.5.34-.59,2.45.61Z"/>
      <path class="uuid-4b3d09e3-2f93-4fe3-ac4e-d9e1a1e6697c" d="M352.03,173.45h-.57l-.71-.95h.34l.95.95Z"/>
      <path class="uuid-4b3d09e3-2f93-4fe3-ac4e-d9e1a1e6697c" d="M353.6,174.84l-.7-.21-.38-.63h.34l.73.84Z"/>
      <path class="uuid-4b3d09e3-2f93-4fe3-ac4e-d9e1a1e6697c" d="M357.42,179.98v.41l-.32-.07v-.66l.32.32Z"/>
      <path class="uuid-4b3d09e3-2f93-4fe3-ac4e-d9e1a1e6697c" d="M360.41,185.06v.41l-.32-.09v-.64l.32.32Z"/>
      <g id="uuid-01254042-b823-450a-9a2f-a5216f6a8485" data-name="Actor .1">
        <g>
          <path class="uuid-b50da7cb-0ef3-43c8-a489-ba1dd31c6e88" d="M367.87,176.81l-.89.59-1.25.05-1.59-.48-1.14-.61"/>
          <path class="uuid-b50da7cb-0ef3-43c8-a489-ba1dd31c6e88" d="M368.66,172.97l-.68-.36"/>
          <path class="uuid-b50da7cb-0ef3-43c8-a489-ba1dd31c6e88" d="M372.43,166.23l2.3.68.21.05h.27l.43-.05.91-.27.79-.34.79-.43.73-.5,4.2-3.14"/>
        </g>
        <g>
          <path class="uuid-83e8ff8c-6c7f-45e3-980d-5a63390be93a" d="M344.62,142.93l-.48-1.93-.18-1.48-.04-.79.02-1.32.45-1.89.46-.84.41-.75.61-.61.68-.57,4.38-3.25,1.34-.27,1.71.29,2.04.82,2.3,1.36,2.52,1.86,2.66,2.29,2.77,2.7,2.77,3.02,2.73,3.25,2.61,3.45,2.43,3.52,2.18,3.52,4.07,6.95.45.13.45.21.54.38.55.54.59.64.54.71.48.73,63.56,108.29.73,1.41.5,1.25.2,1.02-.11.7-.39.34-6.27,4.73-.54.36-.57.34-.59.29-.57.21-.52.12-1.68.14-.48-.05-1.36-.25-21.84-6.5-1.23-.57-.48-.27-1.13-.91-.88-1.14-1.14-1.96.05.07"/>
          <path class="uuid-83e8ff8c-6c7f-45e3-980d-5a63390be93a" d="M392.39,239.93l-37.82-64.38"/>
          <path class="uuid-83e8ff8c-6c7f-45e3-980d-5a63390be93a" d="M381.64,221.59l-26.97-45.97"/>
          <path class="uuid-83e8ff8c-6c7f-45e3-980d-5a63390be93a" d="M411.86,273.11l-56.7-97.18"/>
          <path class="uuid-83e8ff8c-6c7f-45e3-980d-5a63390be93a" d="M367.87,176.81l.5-1.09.09-.84.04-.79.2-1.3.34-1.34.43-1.14.38-.8.45-.8.52-.77.57-.7,1.05-1"/>
          <path class="uuid-83e8ff8c-6c7f-45e3-980d-5a63390be93a" d="M382.85,223.67l1.2,2.05"/>
          <path class="uuid-83e8ff8c-6c7f-45e3-980d-5a63390be93a" d="M386.48,229.84l-1.21-2.05"/>
          <path class="uuid-83e8ff8c-6c7f-45e3-980d-5a63390be93a" d="M391.5,238.42l17.97,30.57"/>
        </g>
      </g>
      <g id="uuid-b4f06ddc-218b-4859-be3c-bb36f97e9387" data-name="Actor .2">
        <g>
          <path class="uuid-b50da7cb-0ef3-43c8-a489-ba1dd31c6e88" d="M342.91,162.95l.11.13.18.09.05.04,5.7,1.68,3.02,5.14,1.11-.84"/>
          <path class="uuid-b50da7cb-0ef3-43c8-a489-ba1dd31c6e88" d="M343.8,156.14l3.02,5.13"/>
          <path class="uuid-b50da7cb-0ef3-43c8-a489-ba1dd31c6e88" d="M347.94,160.45h-.02"/>
          <path class="uuid-b50da7cb-0ef3-43c8-a489-ba1dd31c6e88" d="M348.94,164.88l2.84-2.13"/>
          <path class="uuid-b50da7cb-0ef3-43c8-a489-ba1dd31c6e88" d="M353.91,170.59l-1.95-.57"/>
          <path class="uuid-b50da7cb-0ef3-43c8-a489-ba1dd31c6e88" d="M350.89,165.47l5.68,1.68.25.05h.39l.34-.05.38-.09.16-.05.41-.14.43-.18.59-.29.57-.34.41-.27,1.52-1.14-5.23-1.57"/>
          <path class="uuid-b50da7cb-0ef3-43c8-a489-ba1dd31c6e88" d="M353.71,163.32v.02"/>
          <path class="uuid-b50da7cb-0ef3-43c8-a489-ba1dd31c6e88" d="M362.01,164.64l-.7-1.29-1.23-2.05-.18-.27"/>
          <path class="uuid-b50da7cb-0ef3-43c8-a489-ba1dd31c6e88" d="M376.39,136.45l.25.05.3.13.7.41.09.09.7.57.84.82.8.98.77,1.04.64,1.05.5,1,.3.88.13.7"/>
          <path class="uuid-b50da7cb-0ef3-43c8-a489-ba1dd31c6e88" d="M382.02,144.86h0"/>
        </g>
        <g>
          <path class="uuid-83e8ff8c-6c7f-45e3-980d-5a63390be93a" d="M347.94,160.43l-1.13.84-5.68-1.68-.14-.07-.14-.11-.09-.14-.43-.82-.55-1.2-.48-1.14-.39-1.07-.3-1.02-.13-.5-.23-.96-.11-.86-.04-1.38.09-.66.13-.63.2-.55.25-.59.3-.45.38-.54.48-.43.41-.32,7.57-5.7.64-.38.84-.07,1.02.18,1.18.46,1.3.73,1.45.96,1.52,1.21,1.57,1.43,1.63,1.61,1.63,1.77,1.61,1.89,1.54,2,1.48,2.04,1.36,2.07,1.23,2.05,1.09,2,.89,1.91.73,1.79.52,1.63.3,1.43"/>
          <path class="uuid-83e8ff8c-6c7f-45e3-980d-5a63390be93a" d="M344.67,165.48l-.34-.46-1.43-2.07-.02-.07-.04-.18.04-.2.07-.21.07-.13.16-.25.07-.11.25-.29.29-.29.16-.13.34-.29.29-.21"/>
          <path class="uuid-83e8ff8c-6c7f-45e3-980d-5a63390be93a" d="M343.8,156.14l1.95.57,3.02,5.14,5.7,1.68.11.04.27.02h.11l.34-.04.36-.07.54-.16.57-.23.43-.2.59-.32.41-.27.39-.27,1.34-1"/>
          <path class="uuid-83e8ff8c-6c7f-45e3-980d-5a63390be93a" d="M344.37,165.07l.91,1.23.98,1.25,1,1.21,1,1.16,1.04,1.11,1.02,1.04,1,.95,1,.88.96.77.91.66.88.57.46.25.86.46.79.34,1.29.39.66.09.63.05.59-.05.64-.07,1.11-.39.55-.34,6.25-4.7"/>
          <path class="uuid-83e8ff8c-6c7f-45e3-980d-5a63390be93a" d="M353.91,170.59l-3.02-5.13,2.84-2.14"/>
          <path class="uuid-83e8ff8c-6c7f-45e3-980d-5a63390be93a" d="M375.44,149.8l6.88-5.16.09-.48.21-2.16-.09-.46-.2-.57-.34-.66-.43-.71-.5-.7-.55-.64-.55-.55-.52-.43-.46-.29-.21-.09-2.38-.45-.39.11-6.86,5.13"/>
        </g>
      </g>
      <g id="uuid-c9c2e538-bf86-4855-9fe6-bb2af37cd336" data-name="Actor .4">
        <g>
          <path class="uuid-b50da7cb-0ef3-43c8-a489-ba1dd31c6e88" d="M431.05,407.05v-115.13l-3-.89"/>
          <path class="uuid-b50da7cb-0ef3-43c8-a489-ba1dd31c6e88" d="M428.38,291.01l2.98.89-.3.02"/>
          <path class="uuid-b50da7cb-0ef3-43c8-a489-ba1dd31c6e88" d="M431.36,407.05v-115.15"/>
          <path class="uuid-b50da7cb-0ef3-43c8-a489-ba1dd31c6e88" d="M431.05,87.91v-55.88"/>
          <path class="uuid-b50da7cb-0ef3-43c8-a489-ba1dd31c6e88" d="M431.36,87.89v-55.86"/>
          <path class="uuid-b50da7cb-0ef3-43c8-a489-ba1dd31c6e88" d="M437.64,200.25l7.48-.52"/>
          <path class="uuid-b50da7cb-0ef3-43c8-a489-ba1dd31c6e88" d="M463.95,407.05V32.03"/>
        </g>
        <g>
          <path class="uuid-83e8ff8c-6c7f-45e3-980d-5a63390be93a" d="M414.2,276.47v90.22l-218-64.83"/>
          <path class="uuid-83e8ff8c-6c7f-45e3-980d-5a63390be93a" d="M414.2,212.54V32.03"/>
          <path class="uuid-83e8ff8c-6c7f-45e3-980d-5a63390be93a" d="M418.64,376.14v-97.6"/>
          <path class="uuid-83e8ff8c-6c7f-45e3-980d-5a63390be93a" d="M418.68,220.18l-.04-.64v.59"/>
          <path class="uuid-83e8ff8c-6c7f-45e3-980d-5a63390be93a" d="M418.64,32.03v187.51"/>
          <path class="uuid-83e8ff8c-6c7f-45e3-980d-5a63390be93a" d="M428.38,291.12v-.11l-.32.02v108.81"/>
          <path class="uuid-83e8ff8c-6c7f-45e3-980d-5a63390be93a" d="M428.05,32.03v54.99l3,.89.3-.02"/>
          <path class="uuid-83e8ff8c-6c7f-45e3-980d-5a63390be93a" d="M437.64,200.25v-44.2l7.48,2.21v44.22l-7.48-2.23"/>
          <path class="uuid-83e8ff8c-6c7f-45e3-980d-5a63390be93a" d="M459.47,407.05V32.03"/>
          <path class="uuid-83e8ff8c-6c7f-45e3-980d-5a63390be93a" d="M491.79,407.05V32.03"/>
          <path class="uuid-83e8ff8c-6c7f-45e3-980d-5a63390be93a" d="M526.92,378.84l21.39-1.55V32.03"/>
          <path class="uuid-83e8ff8c-6c7f-45e3-980d-5a63390be93a" d="M526.92,350.8V32.03"/>
        </g>
      </g>
      <path class="uuid-8a40dedd-29cb-4818-a8f9-517282ccd227" d="M382.73,137.56c6.71-6.34,13.42-12.67,20.12-19.01.71,2.3,1.42,4.6,2.13,6.89,13.57-4.21,27.14-8.42,40.72-12.63.98,3.14,1.95,6.29,2.93,9.43-13.57,4.21-27.14,8.42-40.72,12.63.71,2.3,1.43,4.6,2.14,6.89-9.11-1.4-18.21-2.81-27.32-4.21Z"/>
    </g>
  </g>
  <g>
    <ellipse class="uuid-adfe66c7-40d1-42ba-a190-5501a998ba97" cx="427.8" cy="174.97" rx="117.95" ry="118.17"/>
    <ellipse class="uuid-39a84883-e968-4b20-a66b-e0a193d4d593" cx="427.68" cy="174.81" rx="115.43" ry="115.94"/>
  </g>
  <g>
    <g class="uuid-7f005aae-e09e-4493-b25a-b7d3e5bbe9c8">
      <g>
        <g>
          <path class="uuid-1758fa3f-2325-41b1-ba1c-251221b13781" d="M187.52,340.36l.02-350.4,194.09.05v476.01H-291.62V-10l460.23-.02-.09.27-18.34.14-.25,442.29-.75,3.04-2.02,1.79,1.77.14,16.69-.95,1.41-.54,1.47-1.93.21-1.38.36-15.92,9.75-.48,5.97-.38,1.74-2.04.52-1,.21-2.15.27-55.97,1.52-.16,3.81-.21,2.13-.59,1.38-1.63.89-2.15.22-1.36.14-2.18-.14-.14-.18-1.36-5.08.36-6.96.25v-4.9l1.14-.09,3.34-.18-2.2-.21h0Z"/>
          <path class="uuid-4fba51cc-4241-459e-8fb2-99a50cae3eeb" d="M169.09-9.75v329.75l-.02,7.58v2.66l.02,11.34v.41l-.05,12.47.02,1.16v61.32l-.36,15.92-.18-442.59.09-.27h.38l.09.27h0Z"/>
          <path class="uuid-b149f711-b773-40ae-b426-35056f90947f" d="M121.54,281.9l5.97.02,2.42-1.36,1.47-1.54.36-109.05,1-.9,5.13-.16.16,110.23-.21,1.77-.77,1.5-1.61,1.41-3.94.32h-4.18l-22.34-1.52-4.18-.36-1.98-.75-.93-1.14,23.61,1.54h0Z"/>
          <path class="uuid-7958ce32-a00d-4842-965a-d56eed7ac37c" d="M106.88,151.21l1.43.05.02,4.83-.27-.07-.16-4.35-1.02-.46h0Z"/>
          <path class="uuid-7958ce32-a00d-4842-965a-d56eed7ac37c" d="M108.27,164.66l-.22.05.02-4.76.22.05-.02,4.67h0Z"/>
          <path class="uuid-c6197601-7cf4-4855-84cf-ce578bb982b4" d="M135.59,156.09l-.22-1.52.18.11.05,1.41h0Z"/>
          <path class="uuid-c6197601-7cf4-4855-84cf-ce578bb982b4" d="M108.29,156.36l-5.08-.16,2.56-.21,2.29.02.27.07-.05.27h0Z"/>
          <path class="uuid-c6197601-7cf4-4855-84cf-ce578bb982b4" d="M114.57,156.97l4.46-.22.77.16-5.24.07h0Z"/>
          <path class="uuid-c6197601-7cf4-4855-84cf-ce578bb982b4" d="M135.91,166.54l-.22.07.07-7.89.16.14v7.69h0Z"/>
          <path class="uuid-c6197601-7cf4-4855-84cf-ce578bb982b4" d="M138.04,279.13l-.16-110.23.34-.22-.18,110.46h0Z"/>
          <path class="uuid-4fba51cc-4241-459e-8fb2-99a50cae3eeb" d="M187.52,340.36h-.38l-.07-350.11.09-.27.38-.02-.02,350.4h0Z"/>
          <g id="uuid-493ee2bb-dde1-4cff-9286-5ef12548f111" data-name="uuid-648bee3e-2825-410f-a98c-6fa2148f00a9">
            <g>
              <path class="uuid-63b5db07-1f99-468e-96a6-512ab0f0565d" d="M112.48,176.05l-1.98-.11-1.93-.66-1.84-1.16-1.7-1.63-.62-.79"/>
              <path class="uuid-63b5db07-1f99-468e-96a6-512ab0f0565d" d="M114.37,175.68l-1.79-.62-1.84-1.16-.57-.54"/>
              <path class="uuid-63b5db07-1f99-468e-96a6-512ab0f0565d" d="M125.57,166.79l3.13.21,1.66.05,1.43-.02,3.94-.21"/>
            </g>
            <g>
              <path class="uuid-55ac5788-30d0-4bb4-9992-a9944afed0cd" d="M99.54,165.16l-.59.16-.5.25-.66.5-.36.38-.59,1.16-.11.41-.02.73-.05.36-.16,107.62.14,1.25.41,1.18.68,1.04.89.89,1.04.68,1.22.41.11.02,1.09.11,26.98,1.84,5.24-.27.95-.11.89-.5.77-.84.59-1.11.36-1.31.14-1.43.14-108.78-.07-.73-.18-.7-.3-.59-.38-.48-.43-.3-.48-.14-.57-.05.02-6.96-.18-3.51-.54-3.42-.89-3.31-1.2-3.06-1.5-2.77-1.77-2.4-1.98-1.95-2.15-1.5-2.25-.98-2.31-.43-5.01.21-1.63.32-.52.11-1.58.57-1.54.86-.41.27-1.43,1.09-1.34,1.34-1.22,1.57-.21.34"/>
              <path class="uuid-55ac5788-30d0-4bb4-9992-a9944afed0cd" d="M112.48,176.05l1.95-.38,1.84-.9,1.7-1.38.86-1,1.66-2.04.95-1.04.82-.77.59-.48.62-.43.59-.34.59-.25.93-.22"/>
            </g>
          </g>
          <g id="uuid-ce6349c6-71d7-4172-ae78-bd4adef1662b" data-name="uuid-02ea7436-3b30-4948-8c24-1af66e87804f">
            <g>
              <path class="uuid-63b5db07-1f99-468e-96a6-512ab0f0565d" d="M98.2,159.29h0l.05.02.11.02.22.05.22.02,7.12.48-.02,5.17,2.4.16"/>
              <path class="uuid-63b5db07-1f99-468e-96a6-512ab0f0565d" d="M100.17,159.1l8.89.62-3.13.16"/>
              <path class="uuid-63b5db07-1f99-468e-96a6-512ab0f0565d" d="M105.91,165.05l2.4-.14"/>
              <path class="uuid-63b5db07-1f99-468e-96a6-512ab0f0565d" d="M105.93,156.25v-5.14"/>
              <path class="uuid-63b5db07-1f99-468e-96a6-512ab0f0565d" d="M109.06,159.72v.3"/>
              <path class="uuid-63b5db07-1f99-468e-96a6-512ab0f0565d" d="M108.34,160.03l7.01.5.62.02.48.02h1.88l.84-.02,1.2-.07-8.89-.62"/>
              <path class="uuid-63b5db07-1f99-468e-96a6-512ab0f0565d" d="M120.35,160.49l.07-1.3-.05-2.04v-.3"/>
            </g>
            <g>
              <path class="uuid-55ac5788-30d0-4bb4-9992-a9944afed0cd" d="M100.15,155.86l-.05,1.95.07,1.3-1.09.07-.38.02-.36.05-.11.02-.02.02.09,1.02.22,1.34.3,1.31.38,1.3.46,1.2.54,1.16.59,1.09.66,1,.18.22.73.93.79.79.82.7.3.22.89.59.9.46"/>
              <path class="uuid-55ac5788-30d0-4bb4-9992-a9944afed0cd" d="M108.34,156.13l-2.4.11-7.21-.5-.21-.02-.21-.02-.09-.02-.02-.02.11-1.02.22-1.31.3-1.27.38-1.22.46-1.16.54-1.09.14-.25.62-1.02.68-.93.73-.82,1.06-.95.86-.59.89-.48.34-.16.93-.34.95-.22.38-.07.98-.07,5.42-.27,1.34-.05,1.36.25,1.34.5,1.27.75,1.22,1.02,1.11,1.22,1,1.45.89,1.61.73,1.79.57,1.88.41,1.99.21,2.04.05,2.04-.14,2.04-.32,1.98-.48,1.88-.66,1.74-.5.98"/>
              <path class="uuid-55ac5788-30d0-4bb4-9992-a9944afed0cd" d="M107.36,173.09l-1.31-.48"/>
              <path class="uuid-55ac5788-30d0-4bb4-9992-a9944afed0cd" d="M105.93,151.09l2.4.16v5.17l7.03.48.57.02.73.02h1.45l.86-.02,1.41-.07"/>
              <path class="uuid-55ac5788-30d0-4bb4-9992-a9944afed0cd" d="M118.77,172.46l-1.25.43-1.34.18-6.49.32-1.38-.09-.95-.21"/>
              <path class="uuid-55ac5788-30d0-4bb4-9992-a9944afed0cd" d="M108.31,165.21l.02-5.17,3.13-.16"/>
            </g>
          </g>
          <g id="uuid-db3cff68-68d3-4f16-828e-365b299c55a6" data-name="uuid-ce19829a-a45b-453b-9447-e28a0fc35ce2">
            <g>
              <path class="uuid-63b5db07-1f99-468e-96a6-512ab0f0565d" d="M105.57,295.44l1.63.09-1.41-.11"/>
              <path class="uuid-63b5db07-1f99-468e-96a6-512ab0f0565d" d="M109.27,390.5v-94.82l-2.06-.16,2.29.14-.22.02"/>
              <path class="uuid-63b5db07-1f99-468e-96a6-512ab0f0565d" d="M109.49,390.5v-94.83"/>
              <path class="uuid-63b5db07-1f99-468e-96a6-512ab0f0565d" d="M109.27,128.33V-10.11"/>
              <path class="uuid-63b5db07-1f99-468e-96a6-512ab0f0565d" d="M109.49,128.33V-10.11"/>
              <path class="uuid-63b5db07-1f99-468e-96a6-512ab0f0565d" d="M146.23,437.67l.95-.14.9-.5.75-.82.59-1.11.38-1.34.11-1.43V-10.11"/>
            </g>
            <g>
              <path class="uuid-55ac5788-30d0-4bb4-9992-a9944afed0cd" d="M-291.73,407.64l437.96,30.02,18.86-1,.95-.14.9-.5.75-.82.59-1.14.36-1.31.14-1.43V-10.11"/>
              <path class="uuid-55ac5788-30d0-4bb4-9992-a9944afed0cd" d="M-291.73,399.28l436.12,29.89V-10.11"/>
              <path class="uuid-55ac5788-30d0-4bb4-9992-a9944afed0cd" d="M-291.73,333.72l380,26.03-.02-369.86"/>
              <path class="uuid-55ac5788-30d0-4bb4-9992-a9944afed0cd" d="M-216.6,347.23l310.38,21.27V-10.11"/>
              <path class="uuid-55ac5788-30d0-4bb4-9992-a9944afed0cd" d="M105.79,295.44h-.22v89.23"/>
              <path class="uuid-55ac5788-30d0-4bb4-9992-a9944afed0cd" d="M105.57-10.11v138.19l3.92.25"/>
              <path class="uuid-55ac5788-30d0-4bb4-9992-a9944afed0cd" d="M187.16-10.11v350.86"/>
            </g>
          </g>
        </g>
        <path class="uuid-cad85c69-d28f-41e6-a91c-5cd63d5acb27" d="M81.49,129.46c3.86-8.26,7.71-16.51,11.57-24.76l2.58,7.88c2.1-1.44,5.89-3.61,10.98-4.11,8.85-.88,15.42,3.87,18.27,5.93,8.18,5.91,11.34,13.86,13.87,20.24,1.22,3.05,4.46,11.9,4.54,24.21.06,8.3.16,25.4-11.62,38.3-3.28,3.58-9.5,10.39-18.91,10.82-11.33.53-19.61-8.53-21.3-10.37-2.65-2.9-4.4-5.88-6.15-9.72-2.96-6.5-7.06-17.98-7.55-34.65,2.62.38,5.25.77,7.87,1.16-.13,3.1-.02,7.3.91,12.14.52,2.71,1.49,7.5,4.35,13,1.88,3.59,3.7,7.1,7.5,10.22,1.22,1.01,9.58,7.65,18.62,5.02,3.48-1.01,5.79-3.02,7.32-4.36,3.94-3.43,5.69-7.23,7.14-10.47,3.08-6.88,3.56-12.84,3.79-16.08.12-1.66.5-8.14-1.38-16.44-1.05-4.6-1.92-8.46-4.47-12.76-.95-1.6-9.26-15.14-21.31-14.31-3.92.27-6.98,1.98-8.85,3.28.89,2.7,1.78,5.4,2.67,8.1-6.82-.75-13.64-1.5-20.46-2.25h0Z"/>
      </g>
    </g>
    <g>
      <ellipse class="uuid-e905e4cb-2bb4-47cf-928b-7442e27401a0" cx="120.43" cy="174.81" rx="119.82" ry="120.05"/>
      <ellipse class="uuid-3cbc15a8-b4ea-46fc-ae2b-e67b4e4415af" cx="120.3" cy="174.97" rx="117.25" ry="117.47"/>
    </g>
    <g>
      <path class="uuid-79f94f1c-fe6b-432a-b9e5-84e7113a4768" d="M6.99,144.58c19.34.42,38.66.82,58,1.24,3.6.65,30.02,5.46,29.75,9.94-.26,4.46-26.88,6.22-30.56,6.46-19.8-.45-39.59-.9-59.39-1.34"/>
      <path class="uuid-b39dadfa-52de-4ff2-9bf6-8c669bed6bae" d="M79.39,149.6c.92,3.03,2.6,4.32,3.34,4.79,1.45.93,3.02,1.06,6.1,1.3,2.43.18,4.46.14,5.92.06"/>
      <path class="uuid-b39dadfa-52de-4ff2-9bf6-8c669bed6bae" d="M78.64,161.33c1.09-2.98,2.84-4.17,3.61-4.6,1.5-.85,3.07-.9,6.16-.95,2.44-.05,4.47.11,5.92.27"/>
    </g>
  </g>
</svg>