<?xml version="1.0" encoding="UTF-8"?>
<svg xmlns="http://www.w3.org/2000/svg" viewBox="0 0 1169.67 467.18" width="1120">
  <defs>
    <style>
      .cls-1 {
        fill: red;
        font-size: 134px;
        stroke-width: .75px;
      }

      .cls-1, .cls-2, .cls-3, .cls-4, .cls-5 {
        stroke: #000;
      }

      .cls-1, .cls-6 {
        font-family: ArialUnicodeMS, 'Arial Unicode MS';
      }

      .cls-1, .cls-6, .cls-7, .cls-5 {
        stroke-miterlimit: 10;
      }

      .cls-2 {
        fill: #e0e0e0;
        stroke-width: .4px;
      }

      .cls-2, .cls-3 {
        fill-rule: evenodd;
      }

      .cls-2, .cls-3, .cls-4 {
        stroke-linecap: round;
        stroke-linejoin: round;
      }

      .cls-3 {
        fill: #dbdbdb;
      }

      .cls-3, .cls-4 {
        stroke-width: .49px;
      }

      .cls-6 {
        fill: #00ff2a;
        font-size: 145px;
      }

      .cls-6, .cls-7 {
        stroke: #000135;
      }

      .cls-6, .cls-5 {
        stroke-width: .5px;
      }

      .cls-7, .cls-4, .cls-5 {
        fill: none;
      }
    </style>
  </defs>
  <g id="Ebene_1" data-name="Ebene 1">
    <path class="cls-3" d="m149.13,79.52l5.13,3.06,4.17,4.05,1.98,4.14v7.88l-1.02,12.31-1.47,3.66-3.88,4.34-3.88,2.78-5.64,4.62-8.85,4.45-4.65,1.02h-19.31l-5.67-.99-7.14-3.12-8.25-2.04-6.63-2.58-5.61-3.12-4.65-5.08-1.05-2.01v-4.51l1.36-2.75,3.12-3.54,5.64-3.6,9.21-3.6,9.24-2.04,9.24-1.02h14.01l17.98,2.24.82-16.13,5.81,1.59Zm355.94,127.16v2.78l-2.01,2.61-3.8,2.35-11.82,2.52-239.98,58.49-3.46,1.19-6.8,2.92-6.18-.03-2.41.65-23.76,16.25-15.34,3.63-.45.6-.4,165.24h-9.98l-.28-130.48-108.25-.48-24.81-.51,3.83-4.42,7.66-6.72,8.05-5.3,10.77-5.1,10.77-3.57,10.24-2.07,11.79-1.02,14.01.51,9.75,1.53,12.82,3.6,12.82,5.16,1.53.17.09-43.35-2.13-.96-13.84-3.6-12.82-2.04-15.91-1.02h-6.83l-16.42,1.02-13.84,2.04-15.4,4.11-12.99,5.47,1.36-1.22,12.13-5.3,15.4-4.08,13.84-2.04,22.23-1.02,16.42,1.02,15.91,2.55,13.84,3.83.48-2.32,3.63,1.08,8.19,3.57,7.74,5.13,1.36.11,1.02-1.62.17-25.74,1.56,2.07,3.06,6.18.51,4.17-.03,18.94.45,6.18.43,1.16,3.71-.54,11.17-2.69-.06-3.06,8.45-3.37,14.69-7.51,1.02.74,4.25-.17,3.63,1.73-.11-2.55,2.5-.68.03-1.05,6.12-2.1,1.62.79,251.86-60.05,5.44-4.28.74-1.59,1.02,1.59ZM48.96,279.52l-1.19.34.62-.91.91-.11-.34.68Zm-1.53,1.02l-1.22.34.65-.88.91-.14-.34.68Zm-2.1,1.5l-2.69,1.42,1.19-1.36,2.38-1.22-.88,1.16Zm-3.09,2.13l-1.05-.06.48-.51.96-.14-.4.71ZM124.01,102.57l4.59,2.07.09,2.72-8.79-1.7h-8.36l-3.6.51-6.15,1.56-5.19,3.01-1.84,2.81-.71-3.23,1.53-3.18,4.68-3.01,4.62-1.53,6.15-1.02h6.83l6.15.99Zm1.56,5.61l.99.57v8.93l-15.03-.23-5.13,1.05-3.6,1.53-3.15,1.98-1.33,2.81v-11.31l1.39-2.21,4.62-2.58,7.2-1.5h8.36l5.67.96Zm-1.59,12.39l3.09,1.5,1.59,2.04v1.73l-.77,1.33-2.86,1.73-5.3,1.39h-8.02l-3.77-.88v-8.87l.99-.57,2.61-.45h8.87l3.57,1.05Z"/>
    <path class="cls-4" d="m79.32,120.34l-1.33-.99-1.16-1.02-1.05-1.02-.88-1.08-.4-.57-.34-.51-.6-1.11-.43-1.11-.28-1.13-.11-1.11v-.6l.03-.54.09-.6.11-.54.14-.6.2-.51.23-.6.26-.51.31-.6.34-.51.4-.57.4-.51.48-.54.45-.51.54-.54.54-.48.62-.51.62-.48.68-.51.65-.45.77-.48,1.56-.91,1.67-.85.85-.4.94-.43,1.87-.77,2.01-.71,2.1-.68,2.18-.6,2.24-.57,2.35-.48,2.38-.43,2.44-.37,1.28-.14,1.22-.17,2.55-.23,2.55-.17,2.58-.09,2.58-.06,2.61.06,2.58.09,2.55.17,2.52.23,1.3.17,1.19.14,2.47.37,2.38.43,2.32.48,2.27.54,2.18.62,2.1.65,2.01.71,1.9.79.94.43.85.37,1.67.88,1.53.88.79.51.65.45.71.51.57.45.65.54.51.48.57.54.45.48.48.57.4.51.4.57.31.51.34.6.23.51.26.6.17.51.17.6.09.54.09.6.03.54.03.6-.14,1.13-.28,1.11-.43,1.11-.6,1.11-.34.51-.4.57-.88,1.08-1.05,1.02-1.16,1.02-1.36.99m-78.51-34.65l.99-1.11,1.13-1.02,1.28-1.02,1.39-.96,1.53-.94,1.67-.91,1.79-.85,1.87-.79,2.01-.77,2.1-.71,2.18-.65,2.27-.57,2.35-.54,2.41-.45,2.47-.43,2.52-.34,2.58-.26,2.58-.23,2.64-.14,2.64-.06h2.64l2.64.06,2.64.14,2.61.2,2.58.26,2.52.34,2.47.4,2.44.45,2.35.51,2.27.6,2.21.62,2.1.71,2.01.74,1.9.79,1.79.85,1.7.91,1.53.94,1.39.94,1.3,1.02m-74.85,29.57h0l1.93.4m-1.93-.4l-.31-1.25m3.63-3.35l-.4.79-.79-.11-.74-.2-.57-.23-.45-.31-.26-.37-.06-.31m1.67,4.79l8.42-.37m-7.23-2.89v.03m-1.02-1.45l.03-.23.17-.17.26-.17.34-.09.4-.06.48.03.54.09.71.2.62.31.85.51,2.52,1.67v.03m-3.74-5.27v-.03l-.6-.26-.4-.26-.17-.23-.14-.31m1.93-.14l.17-.2.2-.11.26-.09.31-.06h.28l.34.06.31.14.17.14.06.17m-2.72,1.13l.94-.71m2.81,5.98l.94.09v.03m0-.03l1.5-3.03m2.92-2.61l-.09.37-.28.34-.2.2-.48.28-.6.23-.74.17-.79.09-.82-.03-.79-.09-.45-.09m-1.45-1.81l1.45.37v.03m3.4-.03l-.17-.23-.23-.17-.34-.11-.45-.09h-.45l-.57.09-.31.09-.54.23-.34.2m47.46,8.17l.34-1.02.11-.28-.03-.45v-.23l-.09-.37-.11-.4-.14-.37-.17-.4-.23-.37-.26-.4-.28-.34-.34-.37-.37-.37-.4-.34-.4-.34-.48-.34-.48-.31-1.08-.65-.6-.28-.57-.28-1.3-.54-1.39-.51-1.47-.43-.82-.2-.74-.2-1.62-.31-1.7-.28-1.7-.2-.96-.09-.79-.06-1.79-.09h-1.79l-1.79.03-1.79.11-.96.11-.77.09-1.7.23-1.64.31-1.59.34-.88.23-.65.2-1.42.45-1.36.54-1.22.54-.65.37-.45.26-.62.37-.4.26-.54.4-.34.28-.45.43-.28.28-.37.45-.23.28-.31.45-.17.31-.2.45-.11.31-.14.45-.09.79.06.77.23.79.2.43m0,1.67l.14-1.11.48-1.11.77-1.05,1.05-1.02,1.33-.94,1.59-.88,1.81-.79,2.01-.68,2.18-.57,2.32-.45,2.44-.31,2.52-.2,2.55-.09,2.55.09,2.5.2,2.44.34,2.32.45,2.18.57,2.01.71,1.79.79,1.59.88,1.3.94,1.05,1.02.74,1.05.45,1.11.14,1.11m-32.29-14.49l-.17.34-.34.28-.54.28-.68.23-.74.14-.79.09h-.85l-.74-.09-.6-.14-.54-.23-.71-.4-3.52-2.52m6.61,30.17l-.77-.62-.31-.31-.34-.34-.48-.65-.37-.68-.2-.71-.03-.34-.03-.37.06-.34.06-.37.11-.34.14-.34.17-.34.23-.34.26-.34.28-.34.31-.31.37-.31.4-.31.43-.31.45-.28.99-.54,1.13-.51.62-.26.6-.2,1.3-.43,1.42-.34.77-.17.68-.14,1.53-.23,1.59-.17.82-.06.77-.06,1.62-.03,1.62.03.85.06.77.03,1.59.17,1.53.23.79.14.68.11,1.42.37,1.33.4.68.23.57.2,1.13.51,1.05.54.48.31.43.28.43.31.34.31.37.34.28.28.28.37.23.31.2.37.14.31.14.37.06.34.06.37v.34l-.03.37-.17.71-.31.68-.48.68-.28.31-.34.34-.77.62m-32.58-13.41l.09-1.02.43-1.02.71-.99,1.02-.94,1.28-.85,1.56-.79,1.76-.68,1.96-.57,2.13-.45,2.24-.34,2.32-.2,2.38-.06,2.35.09,2.32.2,2.21.37,2.1.45,1.96.6,1.73.71,1.53.79,1.25.85.99.94.68.99.37,1.02.06,1.02m-30.82-14.86l-.03-.17-.23-.23-.37-.28-3.32-2.38m30.17,27.93l-.23.88-.48.85-.79.79-1.08.74-1.3.65-1.53.57-1.7.45-1.87.34-1.93.23-2.01.09-1.98-.06-1.96-.2-1.9-.31-1.73-.43-1.56-.57-1.36-.62-1.11-.74-.85-.79-.57-.82-.26-.88m3.18-29.49l2.07,4.42v.03m0-.03l1.93-.17m4.56-.4l-2.07.17-3.18-1.67-.17.03m.17,0v-.03m1.47-1.25v-.17l-.03-.06-.11-.14-.17-.09-.26-.09-.31-.03-.57.03-1.02.09m4.17,3.37v.03m-1.22-1.98l.62-.2.45-.23.31-.28.06-.31m3.43,2.84l3.23.17h.99l.77-.09.65-.17.57-.23.4-.31.17-.34.03-.2m-4.62.45l.34-1.13,1.02.06.65.11.34.11.23.14.11.14v.2m-.17-1.93v-.14l-.11-.11-.17-.11-.31-.09-.57-.06-.51-.03-.28.94m.28-.94v.03m-.51,1.7v-.03m4.14-1.36l-.03.2-.17.28-.37.26-.51.2-.26.06m3.94,3.12h0l-1.76-.43m1.76.43l1.76-.65,3.71.88m-2.15,28.83l1.93,2.21m-3.49-31.9v-.03m1.56-.6l2.95-1.05m2.18-.82l-1.47,4.79m0-.03l-1.81-.43m2.78.91l1.16.68,5.39-1.81m-5.39,1.84v-.03m2.98,7.88l.06-.2m11.09,11.45l-10.41-12.05m.11-4.88v-.03l-1.13-.65m1.13.65l8.19-2.72m-6.58,1.11l2.69-3.32m6.29,22.06l.11-.11m7.6-38.05l-1.13-1.05m2.18,2.18l-1.02-1.11m2.61,27.22l-.17.77.37-1.53.14-1.13,1.22-15.37.06-1.16-.11-1.5-.26-1.16-.4-1.16-.14-.34-.54-1.11-.71-1.11-1.11-1.39-.99-1.05-1.13-1.05-1.3-.99-1.42-.96-1.79-1.11-1.67-.88-1.79-.82-1.87-.79-2.01-.77-2.07-.68-2.18-.62-2.27-.6-2.35-.51-2.41-.45-2.47-.4-2.5-.34-2.55-.26-2.58-.2-2.64-.11-2.61-.09h-2.64l-2.61.09-2.61.14-2.58.2-2.55.28-2.5.34-2.47.4-2.41.45-2.32.54-2.24.57-2.18.65-2.07.71-1.98.74-1.9.79-1.76.85-1.64.91-1.79,1.08-1.39.96-1.28,1.02-1.13,1.05-.99,1.05-.2.28-.85,1.08-.68,1.13-.54,1.13-.14.31-.4,1.16-.23,1.16-.09,1.5,1.28,16.36.14,1.16.37,1.5.45,1.13.57,1.11.96,1.42.88,1.05,1.05,1.05,1.16,1.02,1.59,1.16,1.45.94,1.56.91,1.67.85,1.79.79,1.9.77,2.01.71,2.1.65,2.18.62,2.27.54,2.32.48,2.01.34m-19.96-15l-.31-1.25,10.26-.48.2.85-8.42.37.23.94-1.96-.43m.37-4.62l.45.31.57.23.74.17.79.14.4-.82-.54-.09-.43-.14-.31-.17-.14-.2.03-.23.17-.17.26-.17.34-.09.4-.06h.48l.54.09.71.23.62.31.85.51,2.52,1.67.94.09,1.5-3.06-1.79-.17-.77,1.56-1.05-.65-1.02-.6-.43-.2-.77-.28-.74-.2-.85-.11-.54-.03-.74.03-.77.11-.45.11-.6.26-.37.28-.26.31-.09.31.06.34.26.37m1.36,4.11v-.03m.17-4.65h0m2.21-4.88l-.26.31-.09.34.14.31.17.23.4.26.6.26.96-.71-.2-.14-.11-.14-.03-.2.17-.2.2-.11.26-.09.31-.06h.28l.43.09.23.11.17.14.06.17-.09.26-.26.26,1.47.37.34-.2.54-.23.31-.09.57-.09h.45l.45.09.34.11.23.14.17.26-.03.2-.2.23-.31.17-.37.11-.45.06h-.51l-.57-.06-.99.74.48.09.79.09.82.03.79-.09.74-.17.6-.23.48-.31.2-.17.28-.34.09-.37-.14-.4-.31-.31-.51-.28-.62-.23-.68-.11-.71-.06-.68.03-.65.14-.6.17v-.23l-.17-.31-.06-.06-.37-.26-.54-.17-.71-.14-.68-.03-.79.09-.65.11-.6.23-.45.26-.14.14m1.59.48v.03m2.1.06v-.03m4.54.91v-.03m1.79,7.68v-.06,2.72l.14,1.11.45,1.11.74,1.05,1.05,1.02,1.05.77m-3.43-7.34l-.03-.06.03.03m8.02-12.16l-.11.17-.26.17-.43.17-.51.09-.4.03-.4-.06-.34-.09-.34-.17-.34-.23-3.46-2.5-1.7.45,3.54,2.55.71.4.54.23.6.14.74.09h.85l.79-.09.74-.17.68-.2.54-.28.34-.28.17-.34v-.31l-.2-.31-.4-.37-.45-.34-3.18-2.3-1.7.45,3.35,2.41.37.28.23.23.03.17v-.03m-4.59,14.74v8.53l.03.71.09.43.2.71.37.71.2.34.51.68.65.65,1.05.85.91.57,1.02.54,1.13.51,1.22.45,1.33.4,1.39.34,1.47.28,1.62.23,1.53.14,1.56.09,1.56.03,1.56-.03,1.56-.09,1.5-.17,1.64-.26,1.45-.28,1.39-.37,1.3-.4,1.22-.45,1.13-.51.99-.54.88-.57,1.05-.88.6-.65.48-.68.23-.34.31-.71.2-.71.06-.43.03-.71v-8.31m-4.59,10.01l-.11-.88-.43-.85-.71-.79-.96-.77-1.25-.71-1.47-.6-1.64-.48-1.81-.37-1.93-.26-1.98-.11h-2.01l-1.96.14-1.9.28-1.79.4-1.64.51-1.42.62-1.19.71-.94.77-.65.82-.34.85-.06.88m1.93-24.92v-.2m2.24-2.24l1.08,2.32,1.96-.17-.88-1.87.17-.03,3.18,1.67,2.13-.2-3.35-1.76.62-.2.45-.23.31-.31.06-.28-.06-.31-.11-.17-.31-.31-.48-.26-.6-.2-.65-.09-.71-.03-.91.06-2.89.23.99,2.13m2.15.28v-.03m-.82-1.73l.43.91,1.25-.11.45-.09.2-.09.11-.09.03-.09v-.14l-.03-.06-.11-.14-.17-.09-.26-.09-.31-.03-.57.03-1.02.06h0m2.95,1.45v-.03m-.48-.96h0m5.73,1.56l-.37,1.25,3.23.17h.99l.77-.09.65-.17.57-.26.4-.28.17-.34.03-.2-.09-.31-.31-.31-.48-.23-.6-.2.26-.06.51-.2.37-.26.17-.28.03-.23-.17-.31-.34-.26-.57-.23-.65-.17-.99-.11-2.64-.17-.94,3.23m32.55,24.13l-.54.54-1.08.99-1.13.96-1.16.88-1.19.85-.79.54-1.25.74-1.22.68-1.28.62-1.3.57-1.33.51-1.36.45-1.39.4-.85.23-1.39.28-1.39.23-1.42.2-1.56.11-1.42.06-1.45.03-1.47-.06-1.79-.14-1.81-.26m1.53-33.4v.03l-.09.14-.17.11-.26.09-.31.06-.57.03-1.3-.06.34-1.13h.4-.4m-.34,1.13v-.03m.99-1.84l-.43-.03.28-.94.51.03.57.06.31.09.17.11.11.11v.14l-.03.09-.11.11-.2.11-.28.09-.4.03h-.51m-.43-.03v-.03m.17.79l.62.06.65.11.34.11.23.14.11.14v.2m.45-1.13v-.03m-.62-.77h0m2.75,3.46l8.51-3.12,1.76.43-1.47,4.79-1.81-.43.31-.99-2.13-.51-1.59-.37-1.76.62-1.81-.43m5.13-.79l2.44.6.51-1.64-2.95,1.05v-.03m2.15,1.5v-.03m.79-2.5v-.03m5.36,14.03v2.5l-.14,1.11-.48,1.11-.77,1.05-1.05,1.02-.99.71m.91-16.39l5.39-1.81-2.69,3.32,1.13.68,8.22-2.75-1.19-.68-5.42,1.81,2.72-3.35-1.16-.65-8.19,2.75,1.19.68m5.44.54v.03m-.06-2.41v.03m19.22,10.94l-.45,1.13-.6,1.08-.2.34-.74,1.08-.91,1.08-1.02,1.02-1.19,1.02-1.59,1.19-1.42.94-1.62.91-.34.26M44.19,466.53l.06-132.01m.17.06l3.8-4.51,1.5-1.59,4.42-4,2.32-1.84,5.05-3.46,2.72-1.59,4.79-2.52,3.77-1.67,3.57-1.45,5.61-1.87,9.04-2.21.68-.14,8.68-1.28,1.11-.11,8.87-.45h1.47l8.82.4,1.25.14,9.13,1.33,1.08.2,9.07,2.32.71.23,8.76,3.32,8.45,4.22,4.82,3.09,2.78,2.04,3.91,3.32,2.69,2.61,1.08,1.13,4.03,4.99m.85-.37l-1.28.54-.57.09-57.3-.28-74.65-.34-.57-.09-1.3-.54m135.1,132.29l-.06-131.41m-143.52-43.04l-.11.11-2.15,7.57.03,132.66.06,34.11m2.5-174.85l5.53-6.63,9.47-6.41,12.5-5.33,14.91-4,16.59-2.44,17.41-.77,17.38.94,16.53,2.58,14.66,4.11,12.25,5.44,9.16,6.49,5.61,7.23,1.79,7.57v119.11l-.06,46.95m-135.78,0v-126.79l116.13.54v126.25m302.81-249.5l-1.05-4.39m0-.03l-.85-2.15m-.28-.77l.28.74m2.32,9.95l-.31-2.55m-.11-.77l.09.68m25.72-3.18l.51-.31-.43-3.35-1.05-4.42-1.11-2.92m-25.89,6.12l25.89-6.12m-.34.09l.28-.43,4.17.06,3.91,1.53,1.62,2.15-.34,2.52-2.84,3.35-3.71,1.93-.68-.2-24.67,5.84M36.2,287.43l4.08-5.16,2.44-1.93,3.49-2.86,3.18-1.73,4.45-2.58,3.8-1.5,5.3-2.21,4.34-1.22,6.04-1.84,4.76-.88,6.58-1.39,5.08-.54,6.97-.94,5.25-.17,7.17-.43,5.3.2,7.17.09,5.19.57,7.06.57,4.93.91,6.69,1.08,4.59,1.25,6.18,1.53,4.11,1.56,5.5,1.93,3.52,1.81,4.68,2.3,2.52,1.76,2.98,2.01m-84.86-17.47l-.17.03m85.48-10.43l-13.13-.06-37.26.09-2.78-.17h-1.16l-7.57.91-1.19.28-5.56,1.45-.85.37-3.83,1.76-.71.34-.65.45-2.58,2.13-.45.45m72.92,16.64l2.18.91m5.13-24.72l.85,22.2m1.56-19.71l-2.3-3.03m-.77.34l-.09-.65m-55.26,10.26l3.2.51-3.54-.57-15.76-.71-15.74.94-9.9,1.59-4.85.91-6.46,1.36-10.32,3.03-9.07,3.71-7.57,4.28-5.9,4.79-4.08,5.1-.71,1.05-2.15,5.39-.31,3.97m6.95-11.99l-4.91,5.9-.11.34m154.32,7.43v.51l-1.79-7.6-5.59-7.2-9.16-6.49-12.25-5.44-5.36-1.5-9.38-2.64-16.47-2.58-17.35-.94-17.44.77-16.59,2.47-14.91,3.97-12.5,5.33-9.47,6.44-.62.71m60.16-23.02l1.56-2.32,3.66-2.98,5.39-2.47,6.69-1.73,7.51-.88,3.88.06,50.41.09,1.79.17.2-.09.48.14,2.3,3.01.71,1.05,2.35,5.27.45,4.03.06,1.36m-58.61-4l6.41.99-3.2-.51m3.2.51l4.96.77,4.2.82m-5.95-1.11l1.64.26m4.34.85l.57.14m-.14-.03l10.29,2.64,9.55,3.49,8.14,4.08,5.5,3.74,1.73.88m8.31,20.67l.34-1.16m-.03-.85l.03.26m42.56-20.22l-.31-3.15m-1.56-11.51l.31.03.37.48.54,1.22.62,1.81.65,2.21.6,2.41.48,2.38.31,2.07.17,1.5-.03.65-.11.65m2.07.45l.17-.82-.09-1.59-.31-2.18-.51-2.58-.62-2.72-.71-2.61-.71-2.21-.65-1.62-.54-.85-.37-.03m7.37,15.68l6.63-3.03,226.79-54.98m-282.9,79.7l15.11-3.6,23.48-16.16,3.66-.94,3.35.17m-46.92,7.66l.85,8.99m.03.68l-.03-.4m-.82-9.21l-.03-.09m-.71-12.7l.03,3.26m-.06-5.56v.71m.54-6.24l8.73-2.04,27.87,1.25,3.57-.79,2.89-1.64.57-.71,3.23-.62,7.37-.17,227.59-52.23.88,2.27m.26.65l1.05,4.42.43,3.35-.51.34-226.71,55.29-6.72,3.2-2.52.71-.34-.03-.82-.37"/>
    <polygon class="cls-2" points="107.82 209.4 96.5 209.31 115.95 235.57 135.83 209.63 124.52 209.54 124.89 165.06 108.19 164.91 107.82 209.4"/>
  </g>
  <g id="Ebene_2" data-name="Ebene 2">
    <g>
      <path class="cls-3" d="m748.11,66.13l4.17,2.5-.54,12.02-5.13-2.75-2.61-.48h-3.23l-2.58.48-2.84,1.28-3.35,2.86-.94.17-.94-2.21v-6.55l2.5-4.2,3.52-2.64,4.62-1.53h3.77l3.57,1.05Zm36.6,8.51l-.4-1.33.2-.03.2,1.36Zm.34,1.93l-.34-1.93.31.26.03,1.67Zm.68,3.23l-.31-.2.14-2.24.17,2.44Zm-42.42,1.36l3.26.85,2.1,1.53-.06,1.76-.96-.2-1.59-1.05-2.13-.43-.96-1.59h-2.21l-.51,1.53-1.53.51-2.86,1.79-1.08.34-2.07-1.67-.2-.99,2.27.6,1.08-.31,2.35-1.81,2.21-.85.31-2.75h2.27l.31,2.75Zm43.78,6.49v9.41l-.51,3.06-2.72,8.05-4.48,7.34-6.86,6.97-7.49,4.82-8.7,3.57-7.34,1.39h-13.18l-7.2-1.5-6.63-2.61-6.61-3.66-2.13-1.47v-4.96l.51-4.31,2.13,1.53,6.61,3.63,7.14,2.61,5.67.99,11.65.03,11.26-4.14,9.98-5.39,5.87-4.39,4.31-3.88,3.09-4.11,2.58-5.61,1.53-7.2.17-8.02.28.23,1.08,7.63Zm-35.38-2.38l-.62.43-1.59.14v-2.27l2.24-1.05-.03,2.75Zm-18.49,5.47l4.62,1.56h8.08l4.59-1.56,4.31-2.86,3.03-3.66,1.56-3.57.88-4.28.14-.03-.51,8.93-.68,1.9-3.12,5.08-5.08,3.66-5.67,1.5h-5.47l-5.67-1.5-4.22-2.95.14-4.31,3.06,2.1Zm-3.52,6.1l5.56,2.64,4.14,1.02,5.16.51h-8.25l-4.62-1.53-3.54-2.61-.57-.57v-.96l2.13,1.5Zm402.04,109.27v2.78l-2.01,2.61-3.8,2.35-11.82,2.52-239.98,58.49-3.46,1.19-6.8,2.92-6.18-.03-2.41.65-23.76,16.25-15.34,3.63-.45.6-.4,165.24h-9.98l-.28-130.48-108.25-.48-24.81-.51,3.83-4.42,7.66-6.72,8.05-5.3,10.77-5.1,10.77-3.57,10.24-2.07,11.79-1.02,14.01.51,9.75,1.53,12.82,3.6,12.82,5.16,1.53.17.09-43.35-2.13-.96-13.84-3.6-12.82-2.04-15.91-1.02h-6.83l-16.42,1.02-13.84,2.04-15.4,4.11-12.99,5.47,1.36-1.22,12.13-5.3,15.4-4.08,13.84-2.04,22.23-1.02,16.42,1.02,15.91,2.55,13.84,3.83.48-2.32,3.63,1.08,8.19,3.57,7.74,5.13,1.36.11,1.02-1.62.17-25.74,1.56,2.07,3.06,6.18.51,4.17-.03,18.94.45,6.18.43,1.16,3.71-.54,11.17-2.69-.06-3.06,8.45-3.37,14.69-7.51,1.02.74,4.25-.17,3.63,1.73-.11-2.55,2.5-.68.03-1.05,6.12-2.1,1.62.79,251.86-60.05,5.44-4.28.74-1.59,1.02,1.59Zm-456.11,72.84l-1.19.34.62-.91.91-.11-.34.68Zm-1.53,1.02l-1.22.34.65-.88.91-.14-.34.68Zm-2.1,1.5l-2.69,1.42,1.19-1.36,2.38-1.22-.88,1.16Zm-3.09,2.13l-1.05-.06.48-.51.96-.14-.4.71Z"/>
      <path class="cls-4" d="m744.37,122.78h-2.58l-1.33-.06-1.25-.09-1.33-.11-1.25-.17-1.3-.2-1.25-.2-1.3-.28-1.22-.28-1.28-.34-1.22-.34-1.25-.4-1.16-.43-1.25-.48-1.13-.45-1.19-.54-1.11-.54-1.16-.62-1.08-.6-1.13-.65-1.02-.65-1.08-.74-.99-.68-1.02-.79-.94-.74-.96-.85-.88-.79-.91-.91-.85-.82-.85-.96-.77-.88-.79-.99-.71-.91-.71-1.02-.65-.96-.65-1.08-.6-.99-.57-1.08-.54-1.05-.48-1.11-.45-1.05-.45-1.16-.37-1.08-.65-2.24-.28-1.19-.23-1.11-.37-2.32-.2-2.32-.06-2.32.06-1.19.06-1.13.28-2.32.4-2.3.6-2.3.34-1.13.37-1.08.88-2.21.99-2.13,1.16-2.1.65-1.02.65-.99,1.42-1.96,1.56-1.84,1.67-1.79.88-.85.91-.82,1.9-1.59,1.98-1.47,2.1-1.36,1.08-.62,1.11-.62,2.27-1.13,2.32-.99,2.41-.88,1.22-.37,1.25-.37,2.5-.62,2.52-.48,2.58-.31,1.25-.11,1.33-.09,2.58-.06,2.58.06,2.61.23,1.22.17,1.33.2,2.52.51,2.52.62,2.44.77,1.16.43,1.25.48,2.32,1.02,2.27,1.16,2.18,1.28.99.65,1.11.71,1.98,1.5,1.9,1.62.85.79.94.91,1.67,1.79,1.56,1.87,1.42,1.96.62.96.65,1.08,1.16,2.1,1.02,2.15.85,2.18.37,1.08.37,1.19.57,2.27.4,2.3.14,1.13.11,1.19.11,2.35-.06,2.32-.2,2.32-.17,1.13-.17,1.19-.54,2.27-.65,2.27-.4,1.08-.43,1.13-.45,1.05-.51,1.11-.51,1.02-.57,1.08m-74.45-18.85l-.06.6m.09-.71l.23-.65.45-.6.4-.34.68-.37.71-.2.54-.06.91.11.82.26.88.45.51.34,1.28.99,1.33,1.16m-4.82,9.7l.65,1.81m-3.01-2.98l9.81-2.81.6,1.64m-8.45-4.54v-1.73m0,0l-.57-.09-.51-.17-.37-.31-.23-.34-.09-.48m2.24-8.19l-.23-.2-.2-.31-.11-.4m-1.9-.03l.09-.71.11-.28.31-.62.45-.54.6-.4.74-.26.68-.09.68.11.68.28.48.43.09.11.31.57.14.51h0m.82,5.13l.6-1.67.6.06.51-.09.4-.23.34-.31.2-.37.09-.51m-4.88-.82l-.11.57m1.45-1.76l.45-.48.6-.37.65-.2.71-.03.71.11.74.31.62.48.48.6.31.77.09.77m-1.73,10.43l.03-5.42-1.84-.03m1.84.03v-.03m-2.24-3.49h0m.65-14.54l1.42-1.22m0,.03l4.59,4.42.43.37.43.28.37.11.4.03.4-.11.45-.28.34-.4.17-.4.03-.37m-3.94-6.78l-1.42,1.22m1.42-1.19l4.25,4.05.57.6.57.65.34.6.17.62v.71m-4.62,11.96l-.17.45-.45,1.56-.28,1.59-.17,1.62v1.62l.14,1.62.28,1.59.43,1.56.57,1.53.74,1.5.85,1.42.96,1.36,1.11,1.28,1.22,1.19,1.33,1.11.43.34.71.48m-.2-.06l.68.2,2.78.91,1.42.43,1.3.31,1.08.23,1.25.17,1.25.09,1.62.03.94-.03,1.28-.09,1.28-.17,1.36-.23,1.19-.26,1.7-.48.77-.23,1.19-.45,1.16-.51,1.39-.68.85-.45-2.24,1.11-2.35.88-2.47.6-2.52.31-2.55.06-2.55-.23-2.5-.51-2.41-.77-2.3-1.05-2.13-1.25-1.96-1.5-1.73-1.67-1.5-1.87-1.25-2.01-.96-2.13-.68-2.24-.37-2.27-.06-2.3m38.84.28l-.09,2.15-.4,2.1-.71,2.01-.99,1.93-1.28,1.81-1.5,1.62-1.76,1.42-1.96,1.19-2.13.96-2.21.68-2.32.43-2.35.14-2.38-.17-2.32-.43-2.24-.71-2.1-.96-1.96-1.22-1.76-1.45-1.53-1.62-.68-.88-.6-.94-.99-1.93-.71-2.04-.4-2.1-.09-2.13m2.15,2.3l-.34-.71-.54-1.39-.4-1.42-.23-1.45-.09-1.45.06-1.47.23-1.42.37-1.42.51-1.39.65-1.33.79-1.28.91-1.19,1.05-1.11.51-.48.62-.54,1.25-.94,1.36-.79,1.42-.71,1.47-.57,1.56-.43,1.59-.31,1.59-.17,1.62-.03,1.62.09,1.62.26,1.56.37,1.53.48.71.31.74.31,1.42.77,1.3.85,1.22.96,1.11,1.08.99,1.13.88,1.25.74,1.3.6,1.36.45,1.39.31,1.42.17,1.47v1.45l-.14,1.45-.28,1.45-.43,1.39-.6,1.36-.71,1.3-.88,1.22-.45.57-.51.6-.51.51-.6.57-.57.48-.62.48-.62.43-.68.43-.65.37-.74.4-.68.31-.77.31-.74.26-.79.26-.74.2-.82.17-.74.14-.85.11-.77.06-.85.03h-.77l-.85-.03-.77-.06-.85-.11-.74-.11-.85-.17-.71-.2-.82-.26-.71-.26-.79-.31-.68-.31-.74-.37-.65-.37-.71-.43-.6-.43-.68-.51-.54-.45-.62-.54-.51-.51-.54-.62-.94-1.19-.82-1.25-.31-.62m-1.33-28.24l1.93-.77.79-.28.85-.23.68-.09.71.06.68.28.57.4.48.57.17.34.23.62.06.62m-4.25,42.56l15.93,22.51m-14.91-45.56l.26-1.79.54-1.76.82-1.64,1.11-1.5,1.33-1.33,1.56-1.13,1.7-.88,1.9-.68,1.96-.4,2.01-.11,1.98.17,1.96.43,1.84.68,1.73.94,1.53,1.16,1.33,1.36,1.08,1.53.82,1.67.51,1.73.23,1.81m-25.91-17.04l1.76,3.63m-3.37-7l.85,1.79.57-.23.6-.28.4-.26.17-.2.06-.2v-.14m-1.79,1.3v-.03m11.54,23.39l-1.59.43-1.47.68-1.3.91-1.11,1.11-2.75-1.28v.96m0-.96l-.31.6m-.71-.96l.62-.82,1.33-1.33,1.56-1.13,1.73-.91,1.87-.68,1.96-.37,1.98-.14,2.01.17,1.96.43,1.84.71,1.73.94,1.53,1.16,1.33,1.36.82,1.16m-17.75-21.8l-4.11-2.95m3.29,27.87l.06-2.01m7.34-30.39l-.09-.45-.28-.6-.48-.48-.68-.37-.68-.2-1.02-.06-1.05.03-1.62.11m5.1,6.21l-.03.34-.09.26-.2.2-.31.17-.54.17-.79.09-.48.03-.23-2.38m.23,2.38h0m-.57-5.9l.2,1.96.43-.03.51-.09.37-.14.23-.23.14-.23.06-.28m-1.73.99v-.03m4.37,28.04l.06-2.35,1.62.31,1.56.57,1.39.82,1.22,1.05-.06,2.32m-5.95-4.2l.09-3.63-2.69.09m2.69-.09l.14,2.75m-1.7-25.32l.68.28.57.4.43.54.26.6.09.45m.45,64.73l.43-.03.6-.11m.03.14l1.5-.4,1.47-.43,2.21-.68,2.18-.74,1.45-.51,1.45-.57,1.76-.71,1.39-.6,1.36-.62,1.36-.65,1.33-.65,1.3-.68,1.28-.71,1.28-.74,1.22-.74,1.98-1.25,1.16-.79,1.16-.82,1.11-.82,1.05-.85,1.05-.85.99-.88.65-.6.96-.91.91-.94.85-.91,1.11-1.28m-35.7-41.68l6.8-7.88,1.93.51.85,9.98m-2.92,21.86l.06-2.92-2.58,1.5m.51-25.6l2.64.74m-1.7,26.88l.09.31m1.05-3.83l1.25,1.76m-1.16-31.19v-.03m13.38,60.73l-11.2-15.82.79-.48,1.28-.82.94-.71.91-.77.57-.51,1.08-1.11.71-.82.62-.85.65-.99.54-.96.34-.68.31-.71.2-.54.31-.99.23-1.02.14-.91.09-1.13m-9.7,14.01l2.07-1.33,1.84-1.56,1.64-1.76,1.42-1.9,1.13-2.07.82-2.15.57-2.24.23-2.3m-1.25-25.32l-6.72,7.03m-2.01-10.77h0m6.86,14.52l1.05-7.2m.82-3.57l1.42,1.11m-.17,21.21l-.03.6.03,2.21m.51-3.37l15.93,22.51m-16.44-21.69l-.23-.94-.11-.4m-.54-12.9l4.42-4.62m0,0l1.47,1.16m11.91,40.29l.17-.23.31-.48m5.67-15.79l.34,2.58.2,2.38v2.41l-.14,2.41-.31,2.38-.48,2.52-.6,2.32-.77,2.3-.91,2.27-1.08,2.18-1.19,2.15-1.36,2.07-1.47,1.98-.99,1.22-.6.68-1.73,1.81-1.84,1.73-1.96,1.62-2.15,1.59-2.15,1.39-2.24,1.3-2.3,1.13-2.41,1.05-2.47.91-2.5.77-2.55.62-2.61.48-2.64.37-2.64.23-2.67.06-2.64-.06-2.67-.23-2.64-.34-2.58-.48-2.58-.65-2.52-.74-2.47-.91-2.41-1.02-2.32-1.16-2.27-1.28-2.15-1.39-2.07-1.5-2.07-1.7-1.87-1.73-1.76-1.81-1.62-1.9-1.5-1.98-1.39-2.07-1.22-2.13-1.08-2.21-.96-2.24-.79-2.3-.62-2.32-.51-2.38-.34-2.55-.17-2.38-.03-2.41.14-2.41.31-2.38,1.81-9.53.57-2.3.74-2.27.88-2.24,1.02-2.15,1.16-2.1,1.42-2.21,1.42-1.96,1.56-1.87,1.7-1.79,1.81-1.7,1.93-1.59,2.01-1.5,2.1-1.36,2.21-1.28,2.27-1.13,2.38-.99,2.41-.91,2.47-.74,2.52-.62,2.58-.48,2.58-.34,2.61-.2,2.61-.06,2.61.09,2.61.23,2.58.37,2.55.51,2.52.65,2.5.77,2.41.91,2.35,1.05,2.3,1.16,2.18,1.28,2.13,1.39,2.01,1.5,1.9,1.62,1.81,1.73,1.7,1.79,1.56,1.9,1.42,1.98,1.3,2.04.14.23m-65.72,17.78l-1.33-1.16-1.28-1.02-.51-.34-.88-.43-.82-.26-.91-.11-.54.03-.71.2-.68.37-.4.34-.45.62-.23.65-.09.71.06.6.2.71.43.68.6.54.68.37.79.23.85.11v-1.73l-.57-.09-.51-.2-.37-.31-.23-.34-.09-.45h0m2.78,7.94l6.83-1.96.6,1.67-8.05,2.32.65,1.81-2.1-.45-.91-2.52,2.98-.88-2.01.6m6.21-8.28v-3.32h1.84l-.03,6.49-.94-.03-3.29-2.92-1.05-.88-.77-.48-.79-.31-.57-.09-.48.06-.37.2-.28.26-.2.34-.06.43m.17-7.83l.28.4.51.45.71.4.6-1.62-.26-.23-.2-.31-.11-.4.09-.4.14-.28.2-.2.28-.17.28-.03.34.03.11.06.28.17.23.26.14.34.03.54-.14.57,1.62.48.23-.51.43-.57.26-.2.54-.26.43-.09.48.06.4.17.31.28.28.45.06.43-.09.48-.2.4-.34.31-.4.2-.51.09-.6-.03-.62,1.67.54.09.82.06.82-.11.74-.31.62-.48.48-.6.31-.65.14-.4.09-.77-.09-.79-.31-.74-.48-.6-.62-.48-.74-.31-.71-.14-.71.03-.65.2-.6.37-.45.51-.14-.51-.31-.57-.09-.11-.48-.43-.6-.28-.77-.11-.68.06-.74.28-.6.4-.45.51-.31.65-.11.28-.09.68.09.68.28.65m3.52-.43l.14-.57m12.42-9.81l-.03.37-.17.4-.34.4-.45.28-.4.09h-.4l-.37-.11-.43-.31-.43-.37-4.59-4.42-1.45,1.22,4.68,4.48.91.71.62.37.65.17.77.03.85-.14.71-.31.65-.45.57-.6.4-.62.2-.68v-.71l-.17-.62-.34-.6-.57-.68-.57-.57-4.22-4.08-1.45,1.22,4.42,4.25.48.51.34.45.11.34-.11-.34m4.71,2.38l-.17.11-1.87,1.56-1.64,1.76-1.39,1.9-1.13,2.07-.82,2.15-.57,2.24-.23,2.3-.03,1.08v-.09m3.43-.82l.11-3.66.06-1.5.23-1.47.37-1.45.6-1.62.68-1.36.79-1.28.94-1.25,1.08-1.13,1.16-1.02,1.28-.94,1.39-.85,1.45-.68,1.53-.6,1.56-.45,1.62-.31,1.64-.17,1.64-.03,1.67.09,1.62.26,1.62.37,1.56.51,1.47.65,1.45.77,1.33.88,1.25.99,1.13,1.08,1.02,1.16.88,1.28.77,1.33.62,1.39.51,1.62.34,1.45.17,1.5v1.5l-.09,3.06-.03-.03m-35.58-16.39l-.03.37m1.62-8.82l-.6-1.22,1.93-.74.79-.28.85-.26.68-.09.71.09.68.26.57.43.48.57.17.34.23.62.06.62-.14.62-.34.6-.48.51,4.08,2.95-1.98.77-3.91-2.81-.14.09,1.73,3.63-1.81.71-3.54-7.4m3.32,19.85l.09,1.81.37,1.76.65,1.7.96,1.62,1.19,1.45,1.45,1.25,1.64,1.08,1.79.79,1.9.57,1.98.31h2.01l1.98-.26,1.9-.51,1.81-.79,1.64-1.02,1.16-.96.28-.28,1.25-1.42.96-1.59.68-1.67.4-1.79.09-1.79m-24.89-19.93v.11l-.06.2-.17.2-.4.28-.6.26-.57.23-.85-1.76.96-.34.54-.14.34.03.26.09.23.17.2.26.11.43m9.61,21.89l.14,2.78-.06,2.32-.82.2-1.16.37-1.08.54-.99.65-.88.79-.37.37m1.42-33.48l.77,8.22,3.26-.26.94-.17.71-.31.57-.45.43-.6.26-.68.03-.68-.09-.45-.26-.62-.43-.51-.57-.4-.68-.28.2-.2.43-.48.23-.6.03-.6-.09-.45-.28-.6-.48-.45-.68-.4-.68-.17-1.02-.06-1.05.03-1.62.11.09,1.05m2.58,6.41l-.23-2.38,1.02-.06.68.11.4.17.28.23.2.28.09.37-.03.34-.09.26-.2.23-.31.17-.54.14-.79.09-.48.06m-.57-5.9l.54-.06.57.03.34.11.26.17.14.23.09.31v.17l-.06.26-.14.26-.23.2-.37.14-.51.09-.43.03-.2-1.93h.03m11.79,32.61l-1.47.09-.6-.57-.96-.71-1.05-.57-1.13-.45-1.19-.31-.85-.11-.17-1.47-2.47.09m1.08-23.93v-.03m4.79,3.09l-1.53-.4,6.8-7.91,1.93.54.85,9.98-1.96-.54-.17-2.04-4.05-1.13-1.45,1.64-.43-.14m5.76-2.24l-2.64-.71,2.35-2.72.28,3.46m-1.73,27.25l.03-.37,1.59-.91m11.09-22.37l.62-4.31-1.42-1.11-6.72,7.03,1.47,1.13,4.42-4.59-1.05,7.2,1.42,1.13,6.72-7.03-1.47-1.16-4.42,4.62.43-2.92-.43,2.92m.85,18.29l.03-1.3-.06-2.3-.37-2.3-.68-2.21-.96-2.13-1.25-2.01-1.5-1.87-1.73-1.67-.54-.4m5.02-6.86h0m2.04,23.05v-.23m-.85-18.06l2.24-2.35m15.96,2.64l1.22,2.21,1.02,2.18.88,2.24.74,2.27.57,2.3.43,2.35.94,6.83v-.09m.28,2.1l-.43-3.18m-.45-3.2l-.34-2.41m-115.28,386.53l.06-132.01m.17.06l3.8-4.51,1.5-1.59,4.42-4,2.32-1.84,5.05-3.46,2.72-1.59,4.79-2.52,3.77-1.67,3.57-1.45,5.61-1.87,9.33-2.27,9.07-1.36,1.11-.11,8.87-.45h1.47l8.82.4,1.25.14,9.13,1.33,1.08.2,9.07,2.32.71.23,8.76,3.32,8.45,4.22,4.82,3.09,2.78,2.04,3.91,3.32,2.69,2.61,1.08,1.13,4.03,4.99m.85-.37l-1.28.54-.57.09-12.48-.06-119.48-.57-.57-.09-1.3-.54m135.1,132.29l-.06-131.41m-143.52-43.04l-.11.11-2.15,7.57.03,132.66.06,34.11m156.22,0l.06-46.95v-119.11l-1.79-7.57-5.61-7.23-9.16-6.49-12.25-5.44-14.66-4.11-16.53-2.58-17.38-.94-17.41.77-16.59,2.44-14.91,4-12.5,5.33-9.47,6.41-5.53,6.63m17.95,174.85v-126.79l116.13.54v126.25m302.81-249.5l-1.05-4.39m0-.03l-.85-2.15m-.28-.77l.28.74m2.01,7.4l.31,2.55m-.43-3.32l.09.68m25.72-3.18l.51-.31-.43-3.35-1.05-4.42-1.11-2.92m0,0l-25.89,6.12m25.55-6.04l.28-.43,4.17.06,3.91,1.53,1.62,2.15-.34,2.52-2.84,3.35-3.71,1.93-.68-.2-24.67,5.84m-437.26,67.03l4.08-5.16,2.44-1.93,3.49-2.86,3.18-1.73,4.45-2.58,3.8-1.5,5.3-2.21,4.34-1.22,6.04-1.84,4.76-.88,6.58-1.39,5.08-.54,6.97-.94,5.25-.17,7.17-.43,5.3.2,7.17.09,5.19.57,7.06.57,4.93.91,6.69,1.08,4.59,1.25,6.18,1.53,4.11,1.56,5.5,1.93,3.52,1.81,4.68,2.3,2.52,1.76,2.98,2.01m-84.86-17.47l-.17.03m85.48-10.43l-13.13-.06-37.26.09-2.78-.17h-1.16l-7.57.91-4.39,1.11-2.35.62-.85.37-3.83,1.76-.71.34-.65.45-2.58,2.13-.45.45m72.92,16.64l2.18.91m5.98-2.52l-.85-22.2m2.41,2.5l-2.3-3.03m-.77.34l-.09-.65m-55.26,10.26l3.2.51-3.54-.57-15.76-.71-15.74.94-9.9,1.59-4.85.91-6.46,1.36-10.32,3.03-9.07,3.71-7.57,4.28-5.9,4.79-4.08,5.1-.71,1.05-2.15,5.39-.31,3.97m6.95-11.99l-4.91,5.9-.11.34m153.98,9.1l.34-1.16-1.79-7.6-5.59-7.2-9.16-6.49-12.25-5.44-5.36-1.5-9.38-2.64-16.47-2.58-17.35-.94-17.44.77-16.59,2.47-14.91,3.97-12.5,5.33-9.47,6.44-.62.71m60.16-23.02l1.56-2.32,3.66-2.98,5.39-2.47,6.69-1.73,7.51-.88,3.88.06,50.41.09,1.79.17.2-.09.48.14,2.3,3.01.71,1.05,2.35,5.27.45,4.03.06,1.36m-58.61-4l6.41.99-3.2-.51m3.2.51l4.96.77,4.2.82m-5.95-1.11l1.67.26m39.95,15.79l-1.73-.88-5.5-3.74-8.14-4.08-9.55-3.49-10.72-2.75.14.03m44.15,33.91v.51m-.03-.85l.03.26m42.56-20.22l-.31-3.15m-1.56-11.51l.31.03.37.48.54,1.22.62,1.81.65,2.21.6,2.41.48,2.38.31,2.07.17,1.5-.03.65-.11.65m2.1.45l.14-.82-.09-1.42-.31-2.35-.51-2.58-.62-2.72-.71-2.61-.71-2.21-.65-1.62-.54-.85-.37-.03m7.37,15.68l6.63-3.03,226.79-54.98m-282.9,79.7l15.11-3.6,23.48-16.16,3.66-.94,3.35.17m-46.92,7.66l.85,8.99m.03.68l-.03-.4m-.82-9.21l-.03-.09m-.71-12.7l.03,3.26m-.06-5.56v.71m.54-6.24l8.73-2.04,27.87,1.25,3.57-.79,2.89-1.64.57-.71,3.23-.62,7.37-.17,227.59-52.23.88,2.27m.26.65l1.05,4.42.43,3.35-.51.34-226.71,55.29-6.72,3.2-2.5.71-.37-.03-.82-.37"/>
      <polygon class="cls-2" points="734.5 208.83 723.19 208.75 742.64 235 762.51 209.06 751.2 208.97 751.57 164.49 734.87 164.35 734.5 208.83"/>
    </g>
    <text class="cls-6" transform="translate(202.38 174.97)"><tspan x="0" y="0">✔</tspan></text>
    <line class="cls-7" x1="575.48" y1="24.16" x2="575.48" y2="450.21"/>
    <text class="cls-1" transform="translate(826.34 148.1)"><tspan x="0" y="0">✘</tspan></text>
    <rect class="cls-5" x=".25" y=".25" width="1169.17" height="466.68"/>
  </g>
</svg>