<?xml version="1.0" encoding="utf-8"?>
<!-- Generator: Adobe Illustrator 27.9.0, SVG Export Plug-In . SVG Version: 6.00 Build 0)  -->
<svg version="1.1" id="Auto_actions" xmlns="http://www.w3.org/2000/svg" xmlns:xlink="http://www.w3.org/1999/xlink" x="0px"
	 y="0px" viewBox="0 0 43.74 45.43" style="enable-background:new 0 0 43.74 45.43;" xml:space="preserve">
<style type="text/css">
	.st0{fill:none;stroke:#000000;stroke-width:1.25;stroke-linecap:square;stroke-miterlimit:10;}
	.st1{fill:#FFFFFF;}
	.st2{fill:none;stroke:#000000;stroke-width:2;stroke-linecap:square;stroke-miterlimit:10;}
</style>
<g id="Links_1_">
</g>
<path class="st0" d="M12.59,33.33c-2.12,0-3.84-1.74-3.84-3.88c0-1.16,0.6-2.31,1.6-3.08l0.18-0.14V11.34
	c0-1.21,0.93-2.15,2.11-2.15s2.11,0.95,2.11,2.15v14.89l0.18,0.14c0.97,0.75,1.53,1.87,1.53,3.08
	C16.47,31.59,14.73,33.33,12.59,33.33z"/>
<path d="M13.4,27.32v-7.79c0-0.44-0.36-0.8-0.8-0.8c-0.44,0-0.8,0.36-0.8,0.8v7.79c-0.9,0.33-1.55,1.18-1.55,2.2
	c0,1.3,1.05,2.35,2.35,2.35c1.3,0,2.35-1.05,2.35-2.35C14.96,28.5,14.31,27.65,13.4,27.32z"/>
<path class="st0" d="M29.8,26.14c-5.22,0-9.36-5.23-9.54-5.45c-0.08-0.1-0.08-0.25,0-0.35c0.17-0.22,4.32-5.45,9.54-5.45
	s9.36,5.23,9.54,5.45c0.08,0.1,0.08,0.25,0,0.35C39.17,20.91,35.02,26.14,29.8,26.14z"/>
<ellipse cx="29.8" cy="20.41" rx="3.96" ry="4.14"/>
<path class="st1" d="M29.87,19.03c0-0.74-0.58-1.35-1.29-1.35c-0.71,0-1.29,0.6-1.29,1.35c0,0.74,0.58,1.35,1.29,1.35
	C29.29,20.37,29.87,19.77,29.87,19.03z"/>
<g>
	<g>
		<g>
			<path class="st2" d="M1,22.93C1,10.82,10.66,1,22.58,1c7.24,0,13.65,3.62,17.56,9.18"/>
			<g>
				<polygon points="34.88,11.26 43.27,16.65 43.74,6.69 				"/>
			</g>
		</g>
	</g>
	<g>
		<g>
			<path class="st2" d="M42.74,22.5c0,12.11-9.66,21.93-21.58,21.93c-7.24,0-13.65-3.62-17.56-9.18"/>
			<g>
				<polygon points="8.86,34.17 0.48,28.78 0,38.74 				"/>
			</g>
		</g>
	</g>
</g>
</svg>
