<svg version="1.1" id="Alarm" xmlns="http://www.w3.org/2000/svg" x="0" y="0" viewBox="0 0 45.6 39.8" style="enable-background:new 0 0 45.6 39.8" xml:space="preserve">
    <style>
        .st0{fill:none;stroke:#000;stroke-width:1.75;stroke-miterlimit:10}
    </style>
    <path class="st0" d="M22.3 1.7c.2-.4.7-.4.9 0l20.9 36.2c.2.4-.1.9-.5.9H1.7c-.3 0-.5-.4-.4-.6l21-36.5z"/>
    <path d="M22.8 26.6c-1 0-1.8-.8-1.8-1.8V14.4c0-1 .8-1.8 1.8-1.8s1.8.8 1.8 1.8v10.5c0 .9-.8 1.7-1.8 1.7M25.7 31.6c0-1.6-1.3-2.9-2.9-2.9s-2.9 1.3-2.9 2.9 1.3 2.9 2.9 2.9 2.9-1.3 2.9-2.9"/>
    <circle class="st0" cx="9.5" cy="9.4" r="6"/>
    <path d="M9.5 12.3V6.5M6.6 9.4h5.8" style="fill:none;stroke:#000;stroke-width:2;stroke-linecap:round;stroke-miterlimit:10"/>
</svg>
