<svg version="1.1" id="Animal_loss" xmlns="http://www.w3.org/2000/svg" x="0" y="0" viewBox="0 0 48 36.2" style="enable-background:new 0 0 48 36.2" xml:space="preserve">
    <style>
        .st3{fill:none;stroke:#fff;stroke-width:1.4173;stroke-linejoin:round;stroke-miterlimit:10}.st3,.st4{stroke-linecap:round}.st4,.st5{fill:none;stroke:#000;stroke-width:1.4173;stroke-miterlimit:10}
    </style>
    <path id="Zunge" d="M22.1 22.6s-.2 1.2.7 2.1c.6.6 1.1.7 1.5.7.5 0 .3.5.3.5s-.7 1.5-2.2 1.7c-1.5.2-3.3.3-5.2-1.3-1.8-1.6-1.6-3.6-1.6-3.6l6.5-.1z" style="fill:none;stroke:#000;stroke-width:1.7008;stroke-miterlimit:10"/>
    <path d="m18.8 22.8-4.4.1c-.6-.3-2.8-12.9-3.8-13.8-1-.9-3.5 1-5.6-.5C2.8 7.1.2 2.4.8 1.5c.6-.8 7.9 1.8 9.3 1.7 1.4 0 4.3-2 5.7-2.3 1.3-.3 3.1-.3 3.1-.3m-.1 22.2 4.4.1c.7-.2 2.8-12.9 3.9-13.8 1-.9 3.5 1 5.6-.5 2.1-1.5 4.8-6.2 4.2-7.1-.6-.8-7.9 1.8-9.3 1.7-1.4 0-4.3-2-5.7-2.3-1.3-.3-3.1-.3-3.1-.3" style="fill:#fff;stroke:#000;stroke-width:1.4173;stroke-miterlimit:10"/>
    <path style="fill:none;stroke:#000;stroke-width:1.4173;stroke-linecap:round;stroke-linejoin:round;stroke-miterlimit:10" d="M39.5 31.7V20.9h5.6v-3.7h-5.6v-5.7h-3.8v5.7h-5.6v3.7h5.6v10.8"/>
    <path class="st4" d="m21.2 7.1 3.2 3.3M21.2 10.4l3.2-3.3M13.7 7.1l3.2 3.3M13.7 10.4l3.2-3.3"/>
    <g id="Hügel">
        <path class="st5" d="M47.4 35.7c-2-2-5.7-3.4-10-3.4"/>
        <path class="st5" d="M27.7 35.7c2-2 5.7-3.4 10-3.4"/>
    </g>
</svg>
