<?xml version="1.0" encoding="utf-8"?>
<!-- Generator: Adobe Illustrator 27.9.0, SVG Export Plug-In . SVG Version: 6.00 Build 0)  -->
<svg version="1.1" id="_x31_16_x__x_58" xmlns="http://www.w3.org/2000/svg" xmlns:xlink="http://www.w3.org/1999/xlink" x="0px"
	 y="0px" viewBox="0 0 41.21 44.35" style="enable-background:new 0 0 41.21 44.35;" xml:space="preserve">
<style type="text/css">
	.st0{fill:none;stroke:#000000;stroke-width:1.25;stroke-miterlimit:10;}
	.st1{stroke:#000000;stroke-miterlimit:10;}
	.st2{stroke:#000000;stroke-width:1.25;stroke-miterlimit:10;}
</style>
<path class="st0" d="M32.37,4.53c-0.23,0-1.08,3.33-1.5,7.59s-2.25,8.98-1.16,14.5c1.11,3.89,2.4,4.31,3.44,4.6
	c1.29,0.36,3.66,0.6,4.97-1.57c0.63-1.05,0.75-2.35,0.49-3.51c-0.26-1.16-1.23-2.02-2.32-3.25c-1.08-1.23-2.09-1.91-2.54-3.7
	c-0.45-1.79-0.93-7.96-0.93-9.08S32.59,4.53,32.37,4.53z"/>
<path class="st1" d="M38.61,26.14c3.27-1.72,2.09-3.98,0.69-5.74c0,0-2.11-1.98-4.58,0.65"/>
<path class="st0" d="M2.88,43.57c1.32,0.56,8.83-0.45,13.93-3.31c4.03-2.26,7.23-5.83,7.51-9.48s-0.01-6.41-0.34-7.51
	c-0.84-2.86-0.84-3.64-3.08-7.68c-0.66-1.2-3.44-4.96-4.09-5.94c0,0,4.88-2.02,4.77-4.85c-0.11-2.84-0.08-4.09-2.8-4.18
	c-2.64,0.06-8.86,0.06-8.86,0.06s0.84,5.38,3.64,9.98c1.09,1.78,4.99,5.66,4.77,8.3c-0.22,2.64-1.35,3.81-5.16,4.43
	c-3.93,0.64-5.66,1.35-7.74,3.14c-3.06,2.65-4.36,5.37-4.81,13.05"/>
<path class="st2" d="M3.28,43.61C14.59,42.05,17.1,30.62,17.1,30.62S7.34,41.16,0.67,39.31C0.37,41.84,1.66,43.83,3.28,43.61z"/>
<path class="st0" d="M36.22,4c0.01,0.38-16.05,3.6-16.05,3.6s1.54-1.79,1.51-3.24s-0.36-2.26-0.36-2.26S36.2,3.62,36.22,4z"/>
<circle cx="17.67" cy="4.5" r="1.39"/>
</svg>
