<?xml version="1.0" encoding="utf-8"?>
<!-- Generator: Adobe Illustrator 27.9.0, SVG Export Plug-In . SVG Version: 6.00 Build 0)  -->
<svg version="1.1" id="History" xmlns="http://www.w3.org/2000/svg" xmlns:xlink="http://www.w3.org/1999/xlink" x="0px" y="0px"
	 viewBox="0 0 31.56 36.82" style="enable-background:new 0 0 31.56 36.82;" xml:space="preserve">
<style type="text/css">
	.st0{fill:#FFFFFF;}
</style>
<path class="st0" d="M27.02,36.08H4.09c-1.93,0-3.5-1.57-3.5-3.5V12.4h29.92v20.18C30.51,34.51,28.95,36.08,27.02,36.08z"/>
<path id="Digit_5" d="M25.64,20.12h-5.62l-0.43,2.92c0.34-0.04,0.63-0.07,1.06-0.07c1.28,0,2.56,0.29,3.55,0.94
	c1.1,0.7,1.91,1.93,1.91,3.71c0,2.79-2.32,5.06-5.91,5.06c-1.69,0-3.1-0.43-3.87-0.85l0.56-2.09c0.63,0.34,1.89,0.77,3.21,0.77
	c1.62,0,3.17-0.92,3.17-2.67c0-1.66-1.24-2.76-4.16-2.76c-0.81,0-1.42,0.04-2,0.13l0.97-7.37h7.55V20.12z"/>
<path id="Digit_1" d="M8.64,20.33H8.6l-2.67,1.35l-0.47-2.09L9,17.83h2.32v14.61H8.64V20.33z"/>
<path d="M28.45,5.46v2.25c0,1.72-1.39,3.11-3.11,3.11c-1.72,0-3.11-1.39-3.11-3.11V5.26H9.33v2.45c0,1.72-1.39,3.11-3.11,3.11
	S3.11,9.43,3.11,7.71V5.46C1.32,5.99,0,7.63,0,9.59v22.9c0,2.39,1.94,4.33,4.33,4.33h22.9c2.39,0,4.33-1.94,4.33-4.33V9.59
	C31.56,7.63,30.24,5.99,28.45,5.46z M30,32.49c0,1.53-1.25,2.78-2.78,2.78H4.33c-1.53,0-2.78-1.25-2.78-2.78V14.27H30V32.49z"/>
<path d="M25.2,9.26c-0.86,0-1.55-0.7-1.55-1.55V1.55C23.65,0.7,24.34,0,25.2,0c0.86,0,1.55,0.7,1.55,1.55v6.15
	C26.76,8.57,26.06,9.26,25.2,9.26z"/>
<path d="M6.11,9.26c-0.86,0-1.55-0.7-1.55-1.55V1.55C4.55,0.7,5.25,0,6.11,0s1.55,0.7,1.55,1.55v6.15C7.66,8.57,6.97,9.26,6.11,9.26
	z"/>
</svg>
