<svg version="1.1" id="Waves" xmlns="http://www.w3.org/2000/svg" x="0" y="0" viewBox="0 0 50.2 48.5" style="enable-background:new 0 0 50.2 48.5" xml:space="preserve">
    <style>
        .st0{fill:none;stroke:#000;stroke-width:1.25;stroke-miterlimit:10}.st2{fill:#fff}
    </style>
    <ellipse class="st0" cx="18.5" cy="17.8" rx="17.9" ry="17.2"/>
    <path d="M14.6 31.7c0-.2.1-.4.3-.6s.3-.3.6-.3c-.2-.1-.4-.3-.5-.5-.1-.2-.1-.5-.1-.7.1-.4.3-.7.6-.9s.8-.3 1.3-.2c.5.1.9.3 1.2.6.3.3.4.6.3 1.1 0 .3-.1.5-.3.6-.2.2-.4.3-.6.4.2.1.3.3.4.5.1.2.1.4.1.6-.1.4-.3.7-.6.9-.3.2-.7.3-1.2.2-.5-.1-.8-.3-1.1-.5-.3-.5-.4-.8-.4-1.2zm1 .1c0 .2 0 .3.1.5.1.1.2.2.4.2s.3 0 .4-.1c.1-.1.2-.2.2-.4s0-.3-.1-.5-.2-.2-.4-.2-.3 0-.5.1c0 0-.1.2-.1.4zm.2-2.1c0 .2 0 .4.1.5s.3.2.5.3c.2 0 .4 0 .5-.1.1-.1.2-.3.3-.5 0-.2 0-.4-.1-.5s-.3-.2-.5-.3c-.2 0-.4 0-.5.1-.1.1-.2.3-.3.5zM11.1 28.2l-.5-.3.4-.7.5.3.5-.9.9.5-.5.9 1.8 1-.2.5-3.3 1.8-.9-.5 1.3-2.6zm1.9 1-1-.5-.8 1.5.1-.1 1.7-.9zM7.5 24.9c.5-.4 1-.7 1.4-.7.4 0 .9.2 1.2.6.4.4.5.8.4 1.3-.1.4-.3.9-.8 1.3l-.6.6c-.5.4-1 .7-1.4.7s-.9-.2-1.2-.6-.6-.9-.5-1.3.3-.9.8-1.3l.7-.6zm-.1 1.4c-.3.3-.5.5-.5.7-.1.2 0 .4.2.6.2.2.3.2.5.2s.4-.2.7-.4l.9-.8c.3-.3.5-.5.5-.7.1-.2 0-.4-.1-.6-.2-.2-.3-.2-.6-.2s-.4.2-.7.4l-.9.8zM7.4 19.4l.2 1-3.6.8.6 1.1-.7.2-1.1-1.8v-.1l4.6-1.2zM7.6 15l-.4 3.4-.6-.1-1.5-1.8c-.2-.2-.4-.4-.5-.6-.2-.1-.3-.2-.5-.2s-.4 0-.5.1-.2.2-.2.5c0 .2 0 .4.2.5s.3.2.6.3l-.1 1c-.3 0-.5-.1-.8-.3-.2-.2-.4-.4-.5-.7-.1-.3-.1-.6-.1-.9.1-.5.2-.9.5-1.1.3-.3.6-.4 1-.3.2 0 .5.1.7.3.2.2.5.4.8.7l1 1.2.2-2.1.7.1zM5.7 12.3l.2-.5c.1-.2.1-.4.1-.6 0-.1-.1-.2-.3-.3-.2-.1-.3-.1-.5 0-.1.1-.3.2-.4.4-.1.2-.1.3-.1.5s.1.3.3.3l-.5.9c-.2-.1-.4-.3-.5-.5s-.1-.5-.1-.8.1-.5.2-.8c.3-.5.6-.8.9-.9.4-.2.8-.2 1.1 0 .2.1.3.3.4.5.1.2.1.4.1.7.2-.2.4-.3.7-.4.2 0 .5 0 .7.1.4.2.6.5.7.9.1.4 0 .8-.2 1.3-.2.4-.5.7-.9.9-.4.2-.7.2-1.1 0l.5-.9c.2.1.3.1.5 0s.3-.2.4-.4c.1-.2.1-.4.1-.6 0-.2-.2-.3-.3-.4-.4-.2-.8-.1-1 .4l-.2.5-.8-.3zM12 6.9l.5-.3.4.6-.5.3.6.9-.8.6-.6-.8-1.6 1-.4-.5L9.5 5l.8-.6L12 6.9zm-1.7 1.2.9-.6-1-1.4v.1l.1 1.9zM13.4 5.6 13 3.2l2.7-.7.3.7-1.9.5.1 1c.2-.2.4-.3.7-.4.5-.1.9-.1 1.2.1s.6.5.7 1c.1.3.1.6 0 .9-.1.3-.2.5-.4.7s-.5.3-.8.4c-.3.1-.6.1-.9 0-.3 0-.5-.2-.7-.3-.2-.2-.3-.4-.4-.6l.9-.3c.1.2.2.3.3.4.1.1.3.1.5 0s.4-.2.4-.4.1-.4 0-.7c-.1-.3-.2-.4-.4-.5-.2-.1-.4-.1-.6-.1-.2.1-.4.2-.5.3l-.1.1-.7.3zM20.7 2.3l-.1.8h-.1c-.4 0-.8.1-1.1.3s-.5.5-.5.9c.3-.2.6-.3 1-.3s.8.2 1 .5.3.7.3 1.2c0 .3-.1.6-.3.8s-.3.4-.6.5c-.3.1-.6.2-.9.2-.5 0-.9-.2-1.2-.6s-.4-.8-.4-1.4v-.3c0-.5.2-1 .4-1.3.2-.4.5-.7.9-.9s.8-.3 1.3-.2l.3-.2zm-1.2 2.4c-.2 0-.3 0-.4.1-.1 0-.2.1-.3.2v.3c0 .3 0 .6.1.8.1.2.3.3.5.3s.4-.1.5-.2.2-.4.2-.6c0-.3 0-.5-.2-.6 0-.2-.1-.3-.4-.3zM28.6 5.9l-4.2 2.8-.9-.6 4-2.6-2.3-1.4.4-.7 3.2 2-.2.5zM31.6 10.5c-.2.2-.4.2-.6.2-.2 0-.5 0-.7-.1.1.3.1.5 0 .8-.1.2-.2.5-.5.6-.4.3-.7.4-1.2.3s-.8-.4-1.1-.8-.5-.9-.5-1.3.2-.8.6-1c.2-.2.5-.3.7-.3.3 0 .5.1.8.2v-.7c0-.2.2-.4.4-.6.3-.3.7-.4 1.1-.3.4.1.7.3 1.1.7.3.4.5.8.4 1.2 0 .5-.1.8-.5 1.1zm-2.4.6c.2-.1.3-.3.3-.5s0-.4-.2-.6c-.1-.2-.3-.3-.5-.3s-.4 0-.5.2c-.2.1-.3.3-.3.5s0 .4.2.6c.1.2.3.3.5.3s.3 0 .5-.2zm1.7-1.4c.2-.1.3-.3.3-.4 0-.2 0-.3-.1-.5s-.3-.2-.4-.3-.3 0-.5.2c-.2.1-.3.3-.3.4 0 .2 0 .3.1.5s.3.2.4.3.4-.1.5-.2zM31.5 15.2c-.3-.2-.5-.5-.6-.8-.1-.5-.1-.9.1-1.2.2-.4.6-.6 1.1-.7.3-.1.6-.1 1 0 .3.1.6.2.8.4s.4.5.5.8c.1.3.1.7 0 1s-.3.6-.5.8c-.3.2-.6.4-1 .5h-.4c-.8.2-1.5.2-2.1-.1-.6-.3-1-.8-1.3-1.6l-.1-.2.8-.2.1.2c.3.8.9 1.2 1.6 1.1zm.2-.8c0 .2.1.3.2.4.1.1.2.2.4.2l.4-.1c.3-.1.6-.2.7-.4s.2-.4.1-.6c-.1-.2-.2-.3-.4-.4-.2-.1-.5-.1-.7 0-.3.1-.5.2-.6.4-.1.1-.1.3-.1.5z"/>
    <path class="st0" d="M9.2 17.8c0 5 4.2 9 9.3 9 5.2 0 9.3-4 9.3-9s-4.2-9-9.3-9c-5.1.1-9.3 4.1-9.3 9z"/>
    <path d="M14.2 17.8c0 2.3 1.9 4.1 4.3 4.1s4.3-1.9 4.3-4.1c0-2.3-1.9-4.1-4.3-4.1-2.3 0-4.3 1.8-4.3 4.1z" style="stroke:#000;stroke-width:.769;stroke-miterlimit:10"/>
    <path class="st2" d="M50.2 48.5H22v-19l7.5-8.6h20.7z"/>
    <path class="st2" d="M39.5 24.6v7.7h8.2v5.2h-8.2v7.7h-5.4v-7.7H26v-5.2h8.2v-7.7h5.3m0-1.2h-5.4c-.7 0-1.2.6-1.2 1.2v6.5H26c-.7 0-1.2.6-1.2 1.2v5.2c0 .7.6 1.2 1.2 1.2h6.9v6.5c0 .7.6 1.2 1.2 1.2h5.4c.7 0 1.2-.6 1.2-1.2v-6.5h6.9c.7 0 1.2-.6 1.2-1.2v-5.2c0-.7-.6-1.2-1.2-1.2h-6.9v-6.5c.1-.6-.5-1.2-1.2-1.2z"/>
    <path d="M39.5 24.6v7.7h8.2v5.2h-8.2v7.7h-5.4v-7.7H26v-5.2h8.2v-7.7h5.3m0-1.2h-5.4c-.7 0-1.2.6-1.2 1.2v6.5H26c-.7 0-1.2.6-1.2 1.2v5.2c0 .7.6 1.2 1.2 1.2h6.9v6.5c0 .7.6 1.2 1.2 1.2h5.4c.7 0 1.2-.6 1.2-1.2v-6.5h6.9c.7 0 1.2-.6 1.2-1.2v-5.2c0-.7-.6-1.2-1.2-1.2h-6.9v-6.5c.1-.6-.5-1.2-1.2-1.2z"/>
</svg>
