<svg version="1.1" id="Eartag_116_x__x_58" xmlns="http://www.w3.org/2000/svg" x="0" y="0" viewBox="0 0 41.4 47.2" style="enable-background:new 0 0 41.4 47.2" xml:space="preserve">
    <style>
        .st1{fill:#fff}.st2{font-family:&quot;Roboto-Medium&quot;}.st3{font-size:14.4px}
    </style>
    <path id="rect2489_1_" d="M14.8.6c-2.4 0-4 2.5-3.6 4.7-.2 5-2.2 8.1-6.8 11C3 17 .8 17.4.7 19.4c-.1 4.1 0 8.2-.1 12.2-.1 1.7-.1 4 1.7 4.9 2.3.3 4.6 0 7 .1 6 0 12 .1 18.1 0 1.8-.6 2.1-2.7 2-4.3 0-4.3.1-8.6 0-12.8-.2-1.8-1.9-2.5-3.4-3-4.2-2.2-6.2-4.5-6.9-8.9-.4-2 .3-4.6-1.6-6.1-.8-.6-1.8-.9-2.7-.9z" style="fill:none;stroke:#fff;stroke-width:1.25;stroke-miterlimit:10"/>
    <path id="path4053_1_" class="st1" d="M17.3 4.5c0 1.3-1 2.4-2.3 2.4-1.3 0-2.3-1.1-2.3-2.4 0-1.3 1-2.4 2.3-2.4 1.2 0 2.3 1.1 2.3 2.4z"/>
    <text transform="translate(2.748 31.252)" class="st1 st2 st3">900</text>
    <path class="st1" d="M34.4 31v5.6h5.7v3.7h-5.7V46h-3.8v-5.6H25v-3.7h5.7V31h3.7m0-1.2h-3.8c-.7 0-1.2.6-1.2 1.2v4.4H25c-.7 0-1.3.6-1.3 1.2v3.7c0 .7.6 1.2 1.3 1.2h4.4V46c0 .7.6 1.2 1.2 1.2h3.8c.7 0 1.2-.6 1.2-1.2v-4.4H40c.7 0 1.2-.6 1.2-1.2v-3.7c0-.7-.6-1.2-1.2-1.2h-4.4V31c.1-.7-.5-1.2-1.2-1.2z"/>
    <path id="rect2489_2_" d="M14.8.6c-2.4 0-4 2.5-3.6 4.7-.2 5-2.2 8.1-6.8 11C3 17 .8 17.4.7 19.4c-.1 4.1 0 8.2-.1 12.2-.1 1.7-.1 4 1.7 4.9 2.3.3 4.6 0 7 .1 6 0 12 .1 18.1 0 1.8-.6 2.1-2.7 2-4.3 0-4.3.1-8.6 0-12.8-.2-1.8-1.9-2.5-3.4-3-4.2-2.2-6.2-4.5-6.9-8.9-.4-2 .3-4.6-1.6-6.1-.8-.6-1.8-.9-2.7-.9z" style="fill:none;stroke:#000;stroke-width:1.25;stroke-miterlimit:10"/>
    <path class="st1" d="M21.9 33.6h4.8v-5.8h14.4v19.1l-19.4-.1z"/>
    <path id="path4053_2_" d="M17.3 4.5c0 1.3-1 2.4-2.3 2.4-1.3 0-2.3-1.1-2.3-2.4 0-1.3 1-2.4 2.3-2.4 1.2 0 2.3 1.1 2.3 2.4z"/>
    <text transform="translate(2.748 31.252)" class="st2 st3">900</text>
    <path d="M34.4 31v5.6h5.7v3.7h-5.7V46h-3.8v-5.6H25v-3.7h5.7V31h3.7m0-1.2h-3.8c-.7 0-1.2.6-1.2 1.2v4.4H25c-.7 0-1.3.6-1.3 1.2v3.7c0 .7.6 1.2 1.3 1.2h4.4V46c0 .7.6 1.2 1.2 1.2h3.8c.7 0 1.2-.6 1.2-1.2v-4.4H40c.7 0 1.2-.6 1.2-1.2v-3.7c0-.7-.6-1.2-1.2-1.2h-4.4V31c.1-.7-.5-1.2-1.2-1.2z"/>
</svg>
