<?xml version="1.0" encoding="utf-8"?>
<!-- Generator: Adobe Illustrator 28.2.0, SVG Export Plug-In . SVG Version: 6.00 Build 0)  -->
<svg version="1.1" id="On_Watch" xmlns="http://www.w3.org/2000/svg" xmlns:xlink="http://www.w3.org/1999/xlink" x="0px" y="0px"
	 viewBox="0 0 45.6 39.8" style="enable-background:new 0 0 45.6 39.8;" xml:space="preserve">
<style type="text/css">
	.st0{fill:none;stroke:#000000;stroke-width:1.75;stroke-miterlimit:10;}
	.st1{fill:none;stroke:#000000;stroke-width:2;stroke-linecap:round;stroke-miterlimit:10;}
	.st2{fill:#FFFFFF;stroke:#000000;stroke-width:1.5;stroke-linecap:round;stroke-linejoin:round;stroke-miterlimit:10;}
	.st3{fill:#FFFFFF;}
</style>
<path class="st0" d="M22.8,0.9c0.1,0,0.3,0,0.4,0.3l21.4,37.1c0.1,0.2,0.1,0.4,0,0.5s-0.2,0.3-0.4,0.3H1.4c-0.3,0-0.4-0.2-0.4-0.3
	c-0.1-0.1-0.1-0.3,0-0.5L22.3,1.1C22.5,0.9,22.7,0.9,22.8,0.9"/>
<circle class="st0" cx="9.5" cy="9.4" r="6"/>
<line class="st1" x1="9.5" y1="12.3" x2="9.5" y2="6.5"/>
<line class="st1" x1="6.6" y1="9.4" x2="12.4" y2="9.4"/>
<path class="st2" d="M34.5,29.1c0,0-5.4,6.5-12,6.5s-12-6.5-12-6.5s5.4-6.5,12-6.5S34.5,29.1,34.5,29.1z"/>
<circle cx="22.6" cy="29" r="4.8"/>
<path class="st3" d="M22.7,27.4c0-0.9-0.7-1.6-1.6-1.6s-1.6,0.7-1.6,1.6s0.7,1.6,1.6,1.6S22.7,28.3,22.7,27.4z"/>
</svg>
