<svg version="1.1" id="On_Watch" xmlns="http://www.w3.org/2000/svg" x="0" y="0" viewBox="0 0 45.6 39.8" style="enable-background:new 0 0 45.6 39.8" xml:space="preserve">
    <style>
        .st0{fill:none;stroke:#000;stroke-width:1.75;stroke-miterlimit:10}
    </style>
    <path class="st0" d="M22.8.9c.1 0 .3 0 .4.3l21.4 37.1c.1.2.1.4 0 .5s-.2.3-.4.3H1.4c-.3 0-.4-.2-.4-.3-.1-.1-.1-.3 0-.5L22.3 1.1c.2-.2.4-.2.5-.2"/>
    <circle class="st0" cx="9.5" cy="9.4" r="6"/>
    <path d="M9.5 12.3V6.5M6.6 9.4h5.8" style="fill:none;stroke:#000;stroke-width:2;stroke-linecap:round;stroke-miterlimit:10"/>
    <path d="M34.5 29.1s-5.4 6.5-12 6.5-12-6.5-12-6.5 5.4-6.5 12-6.5 12 6.5 12 6.5z" style="fill:#fff;stroke:#000;stroke-width:1.5;stroke-linecap:round;stroke-linejoin:round;stroke-miterlimit:10"/>
    <circle cx="22.6" cy="29" r="4.8"/>
    <path d="M22.7 27.4c0-.9-.7-1.6-1.6-1.6s-1.6.7-1.6 1.6c0 .9.7 1.6 1.6 1.6.9 0 1.6-.7 1.6-1.6z" style="fill:#fff"/>
</svg>
