<svg version="1.1" id="Waves" xmlns="http://www.w3.org/2000/svg" x="0" y="0" viewBox="0 0 41.4 48.9" style="enable-background:new 0 0 41.4 48.9" xml:space="preserve">
    <style>
        .st0{fill:none;stroke:#000;stroke-width:1.3;stroke-miterlimit:10}.st2{fill:#fff}.st3{font-family:&quot;Roboto-Medium&quot;}.st4{font-size:14.4px}
    </style>
    <path id="Außen" class="st0" d="M26.7.6c3.4.3 6.7 2.3 8.7 5.5 2 3.2 2.2 7 .9 10.2"/>
    <path id="Mitte" class="st0" d="M26.3 4.3c2.4.1 4.7 1.4 6.1 3.7 1.4 2.3 1.5 4.9.5 7.1"/>
    <circle transform="rotate(-31.34 26.199 11.792)" cx="26.2" cy="11.8" r="1.6"/>
    <path class="st0" d="M25.9 8c1.3 0 2.7.6 3.4 1.9.7 1.2.8 2.7.2 3.8"/>
    <path id="rect2489_1_" d="M14.8 2.3c-2.4 0-4 2.5-3.6 4.7-.2 5-2.2 8.1-6.8 11-1.4.6-3.6 1-3.7 3-.1 4.1 0 8.2-.1 12.2-.1 1.7-.1 4 1.7 4.9 2.3.3 4.6 0 7 .1 6 0 12 .1 18.1 0 1.8-.6 2.1-2.7 2-4.3 0-4.3.1-8.6 0-12.8-.2-1.8-1.9-2.5-3.4-3-4.2-2.2-6.2-4.5-6.9-8.9-.4-2 .3-4.6-1.6-6.1-.8-.5-1.8-.9-2.7-.8z" style="fill:none;stroke:#fff;stroke-width:1.25;stroke-miterlimit:10"/>
    <path id="path4053_1_" class="st2" d="M17.3 6.1c0 1.3-1 2.4-2.3 2.4-1.3 0-2.3-1.1-2.3-2.4 0-1.3 1-2.4 2.3-2.4 1.2.1 2.3 1.1 2.3 2.4z"/>
    <text transform="translate(2.748 32.906)" class="st2 st3 st4">900</text>
    <path class="st2" d="M34.4 32.7v5.6h5.7V42h-5.7v5.6h-3.8V42H25v-3.7h5.7v-5.6h3.7m0-1.3h-3.8c-.7 0-1.2.6-1.2 1.3V37H25c-.7 0-1.3.6-1.3 1.2V42c0 .7.6 1.2 1.3 1.2h4.4v4.4c0 .7.6 1.2 1.2 1.2h3.8c.7 0 1.2-.6 1.2-1.2v-4.4H40c.7 0 1.2-.6 1.2-1.2v-3.7c0-.7-.6-1.2-1.2-1.2h-4.4v-4.4c.1-.7-.5-1.3-1.2-1.3z"/>
    <path id="rect2489_2_" d="M14.8 2.3c-2.4 0-4 2.5-3.6 4.7-.2 5-2.2 8.1-6.8 11-1.4.6-3.6 1-3.7 3-.1 4.1 0 8.2-.1 12.2-.1 1.7-.1 4 1.7 4.9 2.3.3 4.6 0 7 .1 6 0 12 .1 18.1 0 1.8-.6 2.1-2.7 2-4.3 0-4.3.1-8.6 0-12.8-.2-1.8-1.9-2.5-3.4-3-4.2-2.2-6.2-4.5-6.9-8.9-.4-2 .3-4.6-1.6-6.1-.8-.5-1.8-.9-2.7-.8z" style="fill:none;stroke:#000;stroke-width:1.25;stroke-miterlimit:10"/>
    <path class="st2" d="M21.9 35.2h4.8v-5.7h4.2v10.2l-9.2-.1z"/>
    <path id="path4053_2_" d="M17.3 6.1c0 1.3-1 2.4-2.3 2.4-1.3 0-2.3-1.1-2.3-2.4 0-1.3 1-2.4 2.3-2.4 1.2.1 2.3 1.1 2.3 2.4z"/>
    <text transform="translate(2.748 32.906)" class="st3 st4">900</text>
    <path d="M34.4 32.7v5.6h5.7V42h-5.7v5.6h-3.8V42H25v-3.7h5.7v-5.6h3.7m0-1.3h-3.8c-.7 0-1.2.6-1.2 1.3V37H25c-.7 0-1.3.6-1.3 1.2V42c0 .7.6 1.2 1.3 1.2h4.4v4.4c0 .7.6 1.2 1.2 1.2h3.8c.7 0 1.2-.6 1.2-1.2v-4.4H40c.7 0 1.2-.6 1.2-1.2v-3.7c0-.7-.6-1.2-1.2-1.2h-4.4v-4.4c.1-.7-.5-1.3-1.2-1.3z"/>
</svg>
