<svg xmlns="http://www.w3.org/2000/svg" viewBox="0 0 9.93 24.86" style="enable-background:new 0 0 9.93 24.86" xml:space="preserve"><path d="M5.86 17.86V9.77c0-.46-.4-.83-.9-.83s-.9.37-.9.83v8.09c-1.02.34-1.75 1.23-1.75 2.28 0 1.35 1.18 2.44 2.64 2.44 1.46 0 2.64-1.09 2.64-2.44.02-1.05-.71-1.94-1.73-2.28z"/><path d="M7.84 16.68V3.3C7.84 1.73 6.59.5 5 .5 3.41.5 2.16 1.73 2.16 3.3v13.38C1.12 17.53.5 18.76.5 20.01c0 2.4 2 4.36 4.45 4.36 2.47 0 4.48-1.95 4.48-4.36 0-1.29-.58-2.49-1.59-3.33z" style="fill:none;stroke:#000;stroke-miterlimit:10"/></svg>