<svg xmlns="http://www.w3.org/2000/svg" viewBox="0 0 44.1 36.1" style="enable-background:new 0 0 44.1 36.1" xml:space="preserve"><path d="M19.4.6s1.8 0 3.2.3c1.4.3 4.5 2.2 5.9 2.3s9-2.6 9.6-1.7-2.1 5.7-4.3 7.2-4.7-.5-5.8.5-3.4 13.8-4 14.1h-9.2c-.6-.3-2.9-13.1-4-14.1s-3.6 1-5.9-.5S.1 2.3.7 1.5s8.2 1.8 9.6 1.7 4.5-2 5.9-2.3c1.4-.3 3.2-.3 3.2-.3" style="fill:none;stroke:#000;stroke-width:1.25;stroke-miterlimit:10"/><path d="M17.4 27.4c-1.3 0-2.3.8-2.3 1.8v4.5c0 1 1 1.8 2.3 1.8h23.8c1.3 0 2.3-.8 2.3-1.8V29c0-1-1-1.7-2.3-1.7l-23.8.1z" style="fill:#fff;stroke:#000;stroke-width:1.25;stroke-miterlimit:10"/></svg>