<svg version="1.1" id="Weight" xmlns="http://www.w3.org/2000/svg" x="0" y="0" viewBox="0 0 16.66 23.29" style="enable-background:new 0 0 16.66 23.29" xml:space="preserve"><style>.st1{fill:#010202}</style><path id="Contour" d="M14.76 22.66c.7 0 1.28-.58 1.28-1.28V9.99c0-1.11-.91-2.03-2.03-2.03h-1.97c-.47 0-.98-.25-.98-1.6s.34-1.35 1.01-1.35 1.18-.68 1.18-1.35S12.91.62 8.36.62H8.3c-4.56 0-4.89 2.36-4.89 3.04s.51 1.35 1.18 1.35 1.01 0 1.01 1.35-.51 1.6-.98 1.6H2.65c-1.11 0-2.03.91-2.03 2.03v11.39c0 .7.58 1.28 1.28 1.28h12.86z" style="fill:none;stroke:#000;stroke-width:1.25;stroke-miterlimit:10"/><g id="kg"><path class="st1" d="m5.45 16.16-.57.59v1.86h-.9v-7.5h.9v4.54l.48-.58 1.65-1.74h1.1l-2.06 2.21 2.29 3.08H7.29l-1.84-2.46zM8.73 15.92c0-.82.19-1.48.57-1.97s.89-.73 1.51-.73c.64 0 1.15.23 1.51.68l.04-.59h.83v5.16c0 .68-.2 1.22-.61 1.62s-.95.59-1.63.59c-.38 0-.75-.08-1.12-.24s-.64-.38-.83-.67l.47-.54c.39.48.86.72 1.42.72.44 0 .78-.12 1.03-.37s.37-.6.37-1.04v-.45c-.36.42-.85.62-1.48.62-.62 0-1.12-.25-1.5-.75s-.58-1.18-.58-2.04zm.91.1c0 .6.12 1.06.37 1.4s.59.51 1.03.51c.57 0 .99-.26 1.25-.78v-2.41c-.28-.5-.69-.76-1.25-.76-.44 0-.78.17-1.03.51s-.37.86-.37 1.53z"/></g></svg>