<svg xmlns="http://www.w3.org/2000/svg" viewBox="0 0 37.83 25" style="enable-background:new 0 0 37.83 25" xml:space="preserve"><path d="M37.33 12.5s-5.06 6.18-11.29 6.18-11.3-6.18-11.3-6.18 5.06-6.18 11.29-6.18 11.3 6.18 11.3 6.18z" style="fill:#fff;stroke:#000;stroke-linecap:round;stroke-linejoin:round;stroke-miterlimit:10"/><circle cx="26.04" cy="12.38" r="4.79"/><path d="M26.12 10.78c0-.86-.7-1.56-1.56-1.56-.86 0-1.56.7-1.56 1.56s.7 1.56 1.56 1.56c.86 0 1.56-.7 1.56-1.56z" style="fill:#fff"/><path d="M7.93 16.75V3.37c0-1.57-1.25-2.8-2.84-2.8-1.59 0-2.84 1.23-2.84 2.8v13.38C1.21 17.6.59 18.83.59 20.08c0 2.4 2 4.36 4.45 4.36 2.47 0 4.48-1.95 4.48-4.36 0-1.3-.58-2.5-1.59-3.33z" style="fill:#fff;stroke:#1d1d1b;stroke-miterlimit:10"/><path d="M5.95 17.93V9.84c0-.46-.4-.83-.9-.83s-.9.37-.9.83v8.09c-1.02.34-1.75 1.23-1.75 2.28 0 1.35 1.18 2.44 2.64 2.44 1.46 0 2.64-1.09 2.64-2.44.02-1.05-.71-1.94-1.73-2.28z" style="fill:#1d1d1b"/></svg>