<?xml version="1.0" encoding="utf-8"?>
<!-- Generator: Adobe Illustrator 27.9.0, SVG Export Plug-In . SVG Version: 6.00 Build 0)  -->
<svg version="1.1" id="Ebene_1" xmlns="http://www.w3.org/2000/svg" xmlns:xlink="http://www.w3.org/1999/xlink" x="0px" y="0px"
	 viewBox="0 0 37.83 25" style="enable-background:new 0 0 37.83 25;" xml:space="preserve">
<style type="text/css">
	.st0{fill:#FFFFFF;}
	.st1{fill:#FFFFFF;stroke:#000000;stroke-linecap:round;stroke-linejoin:round;stroke-miterlimit:10;}
</style>
<path id="Background_thermometer" class="st0" d="M4.98,24.61c-2.32,0-4.21-1.74-4.21-3.89c0-1.16,0.66-2.32,1.75-3.1l0.2-0.14V2.54
	c0-1.21,1.01-2.16,2.31-2.16c1.3,0,2.31,0.95,2.31,2.16v14.95l0.2,0.14c1.07,0.75,1.68,1.88,1.68,3.1
	C9.23,22.86,7.32,24.61,4.98,24.61z"/>
<path d="M8.21,16.84V2.97C8.21,1.31,6.82,0,5.04,0C3.25,0,1.86,1.31,1.86,2.97v13.86C0.69,17.74,0,19.05,0,20.37
	C0,22.92,2.23,25,4.98,25C7.75,25,10,22.92,10,20.37C10,19,9.35,17.72,8.21,16.84z M4.98,24.1c-2.21,0-4-1.67-4-3.72
	c0-1.11,0.62-2.22,1.67-2.96l0.19-0.14V2.97c0-1.16,0.97-2.07,2.2-2.07c1.23,0,2.2,0.91,2.2,2.07v14.3l0.19,0.14
	c1.01,0.72,1.59,1.8,1.59,2.96C9.02,22.43,7.21,24.1,4.98,24.1z"/>
<path class="st1" d="M37.33,12.5c0,0-5.06,6.18-11.29,6.18S14.74,12.5,14.74,12.5s5.06-6.18,11.29-6.18S37.33,12.5,37.33,12.5z"/>
<ellipse transform="matrix(0.3827 -0.9239 0.9239 0.3827 4.6332 31.6994)" cx="26.04" cy="12.38" rx="4.79" ry="4.79"/>
<path class="st0" d="M26.12,10.78c0-0.86-0.7-1.56-1.56-1.56c-0.86,0-1.56,0.7-1.56,1.56c0,0.86,0.7,1.56,1.56,1.56
	C25.42,12.34,26.12,11.64,26.12,10.78z"/>
<path d="M5.9,17.97V9.88c0-0.46-0.4-0.83-0.9-0.83S4.1,9.42,4.1,9.88v8.09c-1.02,0.34-1.75,1.23-1.75,2.28
	c0,1.35,1.18,2.44,2.64,2.44c1.46,0,2.64-1.09,2.64-2.44C7.64,19.2,6.91,18.31,5.9,17.97z"/>
</svg>
