<svg xmlns="http://www.w3.org/2000/svg" viewBox="0 0 20.8 32.8" style="enable-background:new 0 0 20.8 32.8" xml:space="preserve"><path style="fill:none;stroke:#000;stroke-width:2;stroke-linecap:round;stroke-miterlimit:10" d="m10.8 2.6 9-1.3"/><path d="M11.2 5.3v11.8l-1.4.4-.4 14.1H3l-.4-14.1-1.4-.4V5.3h10m1.3-1.2H0V18l.9.3.5.2.4 13.2v1.2h8.8v-1.2l.4-13.2.5-.2.9-.3V4.1h.1z"/><path style="fill:#fff" d="M1.5.6h9.4V5H1.5z"/><path d="M10.3 1.2v3.2H2.1V1.2h8.2M11.6 0H.9v5.6h10.6V0h.1zM6.2 22.5c-1.5 0-2.7-1.2-2.7-2.7v-3.4h5.3v3.4c.1 1.6-1.1 2.7-2.6 2.7zm2.5-7.4h-5c-.6 0-1.1-.5-1.1-1.1V8c0-.6.5-1.1 1.1-1.1h5c.6 0 1.1.5 1.1 1.1v6c.1.6-.4 1.1-1.1 1.1z"/><circle cx="6.2" cy="20" r="1.4" style="stroke:#fff;stroke-width:.5;stroke-miterlimit:10"/></svg>