<svg version="1.1" id="New_animal" xmlns="http://www.w3.org/2000/svg" x="0" y="0" viewBox="0 0 45.2 31.7" style="enable-background:new 0 0 45.2 31.7" xml:space="preserve"><style>.st0{fill:none;stroke:#000;stroke-width:1.25;stroke-miterlimit:10}</style><path class="st0" d="m19.4 23.2-4.6.1c-.6-.3-2.9-13.1-4-14.1s-3.6 1-5.8-.5S.1 2.3.7 1.5s8.2 1.8 9.6 1.8 4.5-2 5.9-2.3c1.4-.3 3.2-.3 3.2-.3M19.4 23.2l4.6.1c.6-.3 2.9-13.1 4-14.1s3.6 1 5.8-.5 4.9-6.3 4.3-7.2-8.2 1.8-9.6 1.8-4.5-2-5.9-2.3C21.2.7 19.4.7 19.4.7"/><path d="M38.5 15.6h-3.3c-.7 0-1.2.6-1.2 1.3v3.7h-3.7c-.7 0-1.2.6-1.2 1.2V25c0 .7.6 1.2 1.2 1.2H34v3.7c0 .7.6 1.2 1.2 1.2h3.3c.7 0 1.2-.6 1.2-1.2v-3.7h3.7c.7 0 1.2-.6 1.2-1.2v-3.3c0-.7-.6-1.2-1.2-1.2h-3.7v-3.7c.1-.7-.5-1.2-1.2-1.2z" style="fill:#fff;stroke:#000;stroke-width:1.25;stroke-miterlimit:10"/></svg>