<?xml version="1.0" encoding="utf-8"?>
<svg version="1.1" id="Ebene_1" xmlns="http://www.w3.org/2000/svg" xmlns:xlink="http://www.w3.org/1999/xlink" x="0px" y="0px"
	 viewBox="0 0 45.15 31.7" style="enable-background:new 0 0 45.15 31.7;" xml:space="preserve" >
<style type="text/css">
	.st0{fill:none;stroke:#000000;stroke-width:1.25;stroke-miterlimit:10;}
	.st1{fill:none;stroke:#009FE3;stroke-miterlimit:10;}
</style>
<g>
	<path class="st0" d="M19.4,23.18l-4.55,0.09c-0.64-0.27-2.9-13.14-3.96-14.05c-1.06-0.91-3.64,1-5.85-0.54
		c-2.21-1.54-4.93-6.34-4.33-7.2c0.6-0.86,8.18,1.79,9.65,1.75c1.47-0.04,4.49-2.02,5.87-2.33c1.38-0.32,3.17-0.26,3.17-0.26"/>
</g>
<g>
	<path class="st0" d="M19.42,23.18l4.55,0.09c0.64-0.27,2.9-13.14,3.96-14.05c1.06-0.91,3.64,1,5.85-0.54
		c2.21-1.54,4.93-6.34,4.33-7.2c-0.6-0.86-8.18,1.79-9.65,1.75c-1.47-0.04-4.49-2.02-5.87-2.33c-1.38-0.32-3.17-0.26-3.17-0.26"/>
</g>
<g>
	<path d="M38.93,17.33v4.92h4.97v3.28h-4.97v4.92h-3.32v-4.92h-4.97v-3.28h4.97v-4.92H38.93 M38.93,16.08h-3.32
		c-0.69,0-1.25,0.56-1.25,1.25V21h-3.72c-0.69,0-1.25,0.56-1.25,1.25v3.28c0,0.69,0.56,1.25,1.25,1.25h3.72v3.67
		c0,0.69,0.56,1.25,1.25,1.25h3.32c0.69,0,1.25-0.56,1.25-1.25v-3.67h3.72c0.69,0,1.25-0.56,1.25-1.25v-3.28
		c0-0.69-0.56-1.25-1.25-1.25h-3.72v-3.67C40.18,16.64,39.62,16.08,38.93,16.08L38.93,16.08z"/>
</g>
</svg>
