<?xml version="1.0" encoding="UTF-8"?>
<svg id="Feeder_Alma_Pro" xmlns="http://www.w3.org/2000/svg" version="1.1" viewBox="0 0 118.4 88.8">
  <!-- Generator: Adobe Illustrator 29.3.1, SVG Export Plug-In . SVG Version: 2.1.0 Build 151)  -->
  <defs>
    <style>
      .st0, .st1, .st2, .st3 {
        stroke: #000;
      }

      .st0, .st1, .st2, .st3, .st4 {
        stroke-miterlimit: 10;
      }

      .st0, .st3 {
        stroke-width: 1.5px;
      }

      .st1 {
        stroke-linecap: round;
      }

      .st1, .st2 {
        stroke-width: 2px;
      }

      .st1, .st2, .st3 {
        fill: none;
      }

      .st5 {
        fill: #fff;
      }

      .st4 {
        stroke: #fff;
        stroke-width: .5px;
      }
    </style>
  </defs>
  <path class="st2" d="M78.7,22.8h22.3v44.5h-22.3V22.8Z"/>
  <rect x="82.1" y="26.9" width="15.5" height="1.8"/>
  <rect class="st0" x="82.5" y="67.6" width="1.5" height="4.1"/>
  <path class="st2" d="M101,43.2l7.3,3.2h3.8v13.7h-11.1"/>
  <path class="st1" d="M27.8,24.1l13.8-2"/>
  <path d="M28.4,28.3v18.1l-2.1.6-.6,21.6h-9.8l-.6-21.6-2.1-.6v-18.1h15.3M30.4,26.4H11.3v21.3l1.4.5.8.3.6,20.2v1.8h13.5v-1.8l.6-20.2.8-.3,1.4-.5v-21.3s.2,0,.2,0Z"/>
  <path class="st5" d="M13.6,21.1h14.4v6.7h-14.4v-6.7Z"/>
  <path d="M27.1,22v4.9h-12.6v-4.9h12.6M29.1,20.1H12.6v8.6h16.3v-8.6h.2ZM20.8,54.6c-2.3,0-4.1-1.8-4.1-4.1v-5.2h8.1v5.2c.2,2.5-1.7,4.1-4,4.1ZM24.6,43.3h-7.7c-.9,0-1.7-.8-1.7-1.7v-9.2c0-.9.8-1.7,1.7-1.7h7.7c.9,0,1.7.8,1.7,1.7v9.2c.2.9-.6,1.7-1.7,1.7Z"/>
  <circle class="st4" cx="20.8" cy="50.8" r="2.1"/>
  <g>
    <path class="st3" d="M40,44.3c0,7.9,6.4,14.3,14.3,14.3s7.3-1.5,9.9-4l-3-2.9c-1.8,1.7-4.3,2.7-6.9,2.7-5.6,0-10.2-4.6-10.2-10.2h5s-6.7-7.3-6.7-7.3l-6.5,7.3h4.1Z"/>
    <path class="st3" d="M68.5,45.2c0-7.9-6.4-14.3-14.3-14.3s-7.3,1.5-9.9,4l3,2.9c1.8-1.7,4.3-2.7,6.9-2.7,5.6,0,10.2,4.6,10.2,10.2h-5s6.7,7.3,6.7,7.3l6.5-7.3h-4.1Z"/>
  </g>
  <rect class="st0" x="95.5" y="67.6" width="1.5" height="4.1"/>
</svg>