<?xml version="1.0" encoding="UTF-8"?>
<svg id="Feeder_Alma_Pro" xmlns="http://www.w3.org/2000/svg" version="1.1" viewBox="0 0 118.4 88.8">
  <!-- Generator: Adobe Illustrator 29.3.1, SVG Export Plug-In . SVG Version: 2.1.0 Build 151)  -->
  <defs>
    <style>
      .st0 {
        stroke-linecap: round;
      }

      .st0, .st1 {
        fill: none;
        stroke: #000;
        stroke-width: 2px;
      }

      .st0, .st1, .st2 {
        stroke-miterlimit: 10;
      }

      .st3 {
        fill: #fff;
      }

      .st2 {
        stroke: #fff;
        stroke-width: .5px;
      }
    </style>
  </defs>
  <path class="st0" d="M26.8,22.1l13.8-2"/>
  <path d="M27.4,26.3v18.1l-2.1.6-.6,21.6h-9.8l-.6-21.6-2.1-.6v-18.1h15.3M29.4,24.4H10.3v21.3l1.4.5.8.3.6,20.2v1.8h13.5v-1.8l.6-20.2.8-.3,1.4-.5v-21.3s.2,0,.2,0Z"/>
  <path class="st3" d="M12.6,19.1h14.4v6.7h-14.4v-6.7Z"/>
  <path d="M26.1,20v4.9h-12.6v-4.9h12.6M28.1,18.1H11.6v8.6h16.3v-8.6h.2ZM19.8,52.6c-2.3,0-4.1-1.8-4.1-4.1v-5.2h8.1v5.2c.2,2.5-1.7,4.1-4,4.1ZM23.6,41.3h-7.7c-.9,0-1.7-.8-1.7-1.7v-9.2c0-.9.8-1.7,1.7-1.7h7.7c.9,0,1.7.8,1.7,1.7v9.2c.2.9-.6,1.7-1.7,1.7Z"/>
  <circle class="st2" cx="19.8" cy="48.8" r="2.1"/>
  <path id="Außen" class="st1" d="M49.1,23.4c5.9,4.2,9.8,11.1,9.8,18.9s-3.8,14.6-9.7,18.8"/>
  <path id="Mitte" class="st1" d="M44.2,29.4c4.2,2.8,7,7.5,7,13s-2.8,10.2-7,13"/>
  <circle cx="35.7" cy="42.3" r="3.1"/>
  <path class="st1" d="M39.5,35.4c2.5,1.3,4.2,4,4.2,7s-1.6,5.5-3.9,6.9"/>
  <circle class="st1" cx="83.6" cy="42.7" r="16.9" transform="translate(-5.7 71.6) rotate(-45)"/>
  <path class="st1" d="M74.8,42.7c0,4.9,3.9,8.8,8.8,8.8s8.8-3.9,8.8-8.8-3.9-8.8-8.8-8.8-8.8,3.9-8.8,8.8Z"/>
  <path d="M78.9,42.7c0,2.6,2.1,4.7,4.7,4.7s4.7-2.1,4.7-4.7-2.1-4.7-4.7-4.7-4.7,2.1-4.7,4.7Z"/>
  <polygon class="st3" points="113.4 72.8 86.8 72.8 86.8 54.1 93.9 45.7 113.4 45.7 113.4 72.8"/>
  <path d="M103.4,49.4v7.6h7.7v5.1h-7.7v7.6h-5.1v-7.6h-7.7v-5.1h7.7v-7.6h5.1M103.4,47.4h-5.1c-1.1,0-2,.9-2,2v5.6h-5.7c-1.1,0-2,.9-2,2v5.1c0,1.1.9,2,2,2h5.7v5.6c0,1.1.9,2,2,2h5.1c1.1,0,2-.9,2-2v-5.6h5.7c1.1,0,2-.9,2-2v-5.1c0-1.1-.9-2-2-2h-5.7v-5.6c0-1.1-.9-2-2-2h0Z"/>
  <path d="M80.4,54.6c.3-.2.6-.2.9-.2.4,0,.7.3.9.6.2.3.2.7.1,1.2,0,.3-.2.6-.4.8-.2.2-.4.4-.7.5-.3,0-.5.1-.8,0-.3,0-.6-.2-.8-.4-.2-.2-.3-.5-.4-.8,0-.3,0-.6,0-1v-.3c.2-.8.6-1.3,1-1.7.5-.4,1.1-.5,1.8-.4h.2s-.2.8-.2.8h-.2c-.8-.2-1.3.1-1.5.8ZM80.9,55.1c-.1,0-.3,0-.4,0-.1,0-.2.1-.3.2v.4c-.1.3-.1.6,0,.8,0,.2.2.3.4.4.2,0,.3,0,.5-.2.2-.1.3-.3.3-.6,0-.2,0-.5,0-.6,0-.2-.2-.3-.4-.3Z"/>
  <path d="M75.7,52.4c.3-.5.7-.9,1.1-1,.4-.1.8,0,1.3.2.4.3.7.6.7,1s0,.9-.4,1.4l-.5.7c-.3.6-.7.9-1.1,1s-.8,0-1.3-.2c-.4-.3-.7-.6-.7-1,0-.4,0-.9.4-1.4l.5-.7ZM76,53.7c-.2.3-.3.6-.3.8,0,.2,0,.4.3.5.2.1.4.1.5,0,.2,0,.4-.3.6-.6l.6-1c.2-.3.3-.6.3-.8,0-.2,0-.4-.3-.5-.2-.1-.4-.1-.6,0-.2,0-.4.3-.6.6l-.6.9Z"/>
  <path d="M72.8,49.1c.5-.4,1-.6,1.4-.6.4,0,.8.2,1.1.6.3.4.4.8.3,1.2,0,.4-.4.8-.9,1.2l-.7.5c-.5.4-1,.6-1.4.6-.4,0-.8-.2-1.1-.6-.3-.4-.4-.8-.3-1.2,0-.4.4-.8.9-1.2l.7-.5ZM72.7,50.4c-.3.2-.5.5-.6.6,0,.2,0,.4,0,.6.1.2.3.2.5.2s.4-.1.7-.4l.9-.7c.3-.2.5-.5.6-.6,0-.2,0-.4,0-.6-.1-.2-.3-.3-.5-.2-.2,0-.4.2-.7.4l-.9.7Z"/>
  <path d="M73.1,43.9l.2.9-3.5.7.5,1h-.7c0,.1-1-1.6-1-1.6h0c0,0,4.6-1,4.6-1Z"/>
  <path d="M73.3,39.7l-.4,3.2h-.6c0,0-1.4-1.8-1.4-1.8-.2-.2-.4-.4-.5-.5-.2-.1-.3-.2-.5-.2-.2,0-.4,0-.5,0s-.2.2-.2.4c0,.2,0,.4.2.5.1.1.3.2.5.2v.9c-.4,0-.6-.1-.9-.3-.2-.2-.4-.4-.5-.6-.1-.3-.1-.5,0-.9,0-.5.2-.8.5-1.1.3-.2.6-.3,1-.3.2,0,.5.1.7.3.2.1.5.4.8.7l1,1.2.2-2h.7Z"/>
  <path d="M71.4,37.2l.2-.4c.1-.2.1-.4,0-.5s-.2-.3-.3-.4c-.2,0-.3,0-.5,0-.1,0-.3.2-.3.3,0,.2-.1.3,0,.5,0,.2.1.3.3.3l-.4.8c-.2-.1-.4-.3-.5-.5-.1-.2-.2-.4-.2-.7,0-.3,0-.5.2-.8.2-.4.5-.7.8-.9.3-.1.7-.1,1.1,0,.2,0,.3.2.4.4.1.2.1.4.1.6.2-.2.4-.3.6-.3.2,0,.5,0,.7.1.4.2.6.5.7.9,0,.4,0,.8-.2,1.2-.2.4-.5.7-.8.9-.4.2-.7.1-1.1,0l.4-.8c.2,0,.3,0,.5,0s.3-.2.4-.4c0-.2.1-.4,0-.5s-.2-.3-.3-.4c-.4-.2-.7,0-1,.4l-.2.4-.6-.3Z"/>
  <path d="M77.3,32l.4-.3.4.6-.4.3.6.8-.7.5-.6-.8-1.5,1.1-.4-.4-.2-3.6.8-.6,1.7,2.4ZM75.7,33.1l.8-.6-1-1.3h0c0,.1.1,1.9.1,1.9Z"/>
  <path d="M78.6,30.7l-.4-2.4,2.5-.7.2.7-1.8.5.2,1c.2-.2.4-.3.6-.4.4-.1.8,0,1.1.1.3.2.5.5.7,1,0,.3.1.6,0,.8,0,.3-.2.5-.4.7-.2.2-.4.3-.8.4-.3,0-.5,0-.8,0s-.5-.1-.7-.3c-.2-.2-.3-.4-.4-.6l.9-.3c0,.2.2.3.3.4.1,0,.3,0,.5,0,.2,0,.3-.2.4-.4,0-.2,0-.4,0-.7,0-.3-.2-.4-.4-.5-.2,0-.4-.1-.6,0-.2,0-.4.2-.5.3h0c0,.1-.8.1-.8.1Z"/>
  <path d="M85.4,27.4v.8s-.1,0-.1,0c-.4,0-.8,0-1,.3-.3.2-.4.5-.5.9.3-.2.6-.3,1-.3.4,0,.7.2.9.5s.3.7.3,1.2c0,.3,0,.6-.2.8s-.3.4-.6.5-.5.2-.8.2c-.5,0-.9-.2-1.2-.6-.3-.4-.4-.8-.4-1.4v-.3c0-.5.2-.9.4-1.3.2-.4.5-.7.9-.9s.8-.3,1.3-.3h.2ZM84.3,29.7c-.1,0-.3,0-.4,0-.1,0-.2.2-.3.3v.3c0,.3,0,.6.1.7.1.2.3.3.5.3.2,0,.4,0,.5-.2.1-.1.2-.3.2-.6,0-.3,0-.5-.2-.6-.1-.2-.3-.2-.5-.3Z"/>
  <path d="M92.8,31l-4,2.8-.9-.6,3.9-2.6-2.1-1.3.4-.7,3,1.9-.3.5Z"/>
  <path d="M95.5,35.2c-.2.1-.4.2-.6.3-.2,0-.4,0-.7-.1,0,.3,0,.5,0,.8s-.2.4-.4.6c-.4.3-.7.4-1.1.3-.4,0-.7-.3-1.1-.7-.3-.4-.5-.8-.5-1.2,0-.4.2-.7.6-1,.2-.2.5-.3.7-.3.3,0,.5,0,.7.2,0-.2,0-.5,0-.7s.2-.4.4-.5c.3-.3.7-.4,1.1-.3.4,0,.7.3,1,.7.3.4.4.8.4,1.1s-.2.7-.5,1ZM93.2,35.8c.2-.1.3-.3.3-.5,0-.2,0-.4-.2-.5-.1-.2-.3-.3-.5-.3-.2,0-.4,0-.5.2-.2.1-.3.3-.3.5s0,.4.2.5c.1.2.3.3.5.3.2,0,.4,0,.5-.2ZM94.9,34.4c.2-.1.2-.3.3-.4,0-.2,0-.3-.1-.5-.1-.1-.2-.2-.4-.2s-.3,0-.5.2c-.2.1-.3.3-.3.4,0,.2,0,.3.1.5.1.1.3.2.4.2.2,0,.3,0,.5-.2Z"/>
  <path d="M95.5,39.5c-.3-.2-.5-.4-.6-.8-.1-.4,0-.8.1-1.2.2-.3.6-.6,1.1-.7.3,0,.6-.1.9,0,.3,0,.6.2.8.4.2.2.4.5.5.8,0,.3.1.6,0,.9,0,.3-.3.6-.5.8-.3.2-.6.4-1,.5h-.4c-.8.4-1.5.3-2.1,0-.6-.3-1-.7-1.3-1.5v-.2c0,0,.7-.2.7-.2v.2c.4.8.9,1.1,1.7,1ZM95.7,38.8c0,.2.1.3.2.4.1,0,.2.1.4.2h.4c.3-.2.6-.4.7-.5.1-.2.2-.4.1-.6,0-.2-.2-.3-.4-.4s-.5,0-.7,0c-.3,0-.5.2-.6.4s-.2.4,0,.6Z"/>
</svg>