<?xml version="1.0" encoding="utf-8"?>
<!-- Generator: Adobe Illustrator 28.3.0, SVG Export Plug-In . SVG Version: 6.00 Build 0)  -->
<svg version="1.1" id="Layer_2" xmlns="http://www.w3.org/2000/svg" xmlns:xlink="http://www.w3.org/1999/xlink" x="0px" y="0px"
	 viewBox="0 0 306.7 72.8" style="enable-background:new 0 0 306.7 72.8;" xml:space="preserve">
<style type="text/css">
	.st0{fill:none;stroke:#000000;stroke-width:1.8425;stroke-miterlimit:10;}
	.st1{fill:none;stroke:#000000;stroke-width:2.126;stroke-miterlimit:10;}
	.st2{fill:none;stroke:#000000;stroke-width:2.8346;stroke-miterlimit:10;}
	.st3{fill:none;stroke:#000000;stroke-width:4.252;stroke-miterlimit:10;}
	.st4{fill:#FFFFFF;stroke:#000000;stroke-miterlimit:10;}
	.st5{fill:none;stroke:#000000;stroke-width:1.25;stroke-miterlimit:10;}
</style>
<path class="st0" d="M62.6,5.3c8.1,0.4,14.6,6.9,15,15.1c0,2-1,5-4,5h-2.8c-0.4,0-0.8,0.5-0.6,0.9c0.9,2.1,3.1,8,3.9,16.6
	c1,10.5-0.5,25.2-0.5,25.2c0,2.1-1.7,3.8-3.8,3.8H53.1c-0.8,0-1.5-0.7-1.5-1.5v-1.6c0-1.4,7.2-4.5,7.2-4.5c0.2-0.2,0.3-0.5,0.2-0.8
	l-1.4-26c0-0.7-0.2-1.3-0.6-1.9l-4-8.9c-0.4-0.8-1.2-1.4-2.1-1.4H37.2c-2.5,0-4.6-2.1-4.6-4.6V7.5c0-1.7,1.2-3.1,3.1-3.1h7.8
	C44.2,4.4,53.8,4.8,62.6,5.3z"/>
<path class="st1" d="M41.6,4.9v20"/>
<path class="st0" d="M58.9,64h15"/>
<path class="st2" d="M6.4,46v19.5 M11.4,46v19.5"/>
<path class="st3" d="M17.4,46v19.5"/>
<path class="st0" d="M42,64.1v4h-4 M42,47v-4h-4 M0.9,64.1v4h4 M0.9,47v-4h4"/>
<polygon class="st4" points="217.1,17.6 156.2,17.6 156.2,72.7 224.1,72.7 224.1,27.8 "/>
<path d="M223.7,34.1h-10.1l-0.1-11.9h3.5l7,9.3L223.7,34.1z"/>
<path id="Außen" class="st0" d="M17.4,30.4c-4.4-3.4-7.2-8.9-7-15C10.5,9.3,13.5,4,18,0.7"/>
<path id="Mitte" class="st0" d="M21.2,25.8c-3.1-2.2-5.2-6-5.1-10.3s2.3-8,5.5-10.1"/>
<path class="st0" d="M24.8,21.2c-1.8-1.1-3.1-3.2-3-5.6c0-2.3,1.3-4.3,3.1-5.3"/>
<polygon class="st4" points="202.9,1.2 142.1,1.2 142.1,56.3 209.9,56.3 209.9,11.3 "/>
<path class="st3" d="M29.4,46v19.5"/>
<path class="st2" d="M23.4,46v19.5 M35.4,46v19.5"/>
<path class="st0" d="M57.4,38.5c0,0-0.3,0.2-0.7,0.4c-1.8,0.8-4.5-1.5-6-5c-1.6-3.5-1.4-7,0.4-7.8c0.4-0.2,1.3-0.6,1.3-0.6"/>
<path class="st5" d="M164.3,22.2c0,0,1.5,0,2.6,0.3c1.1,0.3,3.7,2.1,4.8,2.1s7.4-2.4,7.9-1.6c0.5,0.8-1.7,5.1-3.5,6.4
	c-1.8,1.3-3.8-0.4-4.7,0.4s-2.8,12.3-3.3,12.6l-3.8-0.1l-3.8,0.1c-0.5-0.3-2.4-11.7-3.3-12.6s-2.9,0.9-4.7-0.4
	c-1.8-1.3-4-5.7-3.5-6.4c0.5-0.7,6.7,1.6,7.9,1.6s3.7-1.8,4.8-2.1C162.8,22.2,164.3,22.2,164.3,22.2z"/>
<path d="M209.6,14.1h-10.1l-0.1-13h3.5l7,10.2L209.6,14.1z"/>
<path class="st2" d="M181.2,20.2v23 M185,20.2v23"/>
<path class="st3" d="M189.7,20.2v23"/>
<path class="st3" d="M199,20.2v23"/>
<path class="st2" d="M194.3,20.2v23 M203.6,20.2v23"/>
<path class="st4" d="M334.9,70.8h-17.9c-6.6,0-12-5.4-12-12v-1.4c0-6.6,5.4-12,12-12h17.9c6.6,0,12,5.4,12,12v1.4
	C346.9,65.4,341.5,70.8,334.9,70.8z"/>
<text transform="matrix(1 0 0 1 313.7526 64.5252)" style="font-family:'MyriadPro-Regular'; font-size:21px;">48</text>
</svg>
