<svg version="1.1" id="Layer_2" xmlns="http://www.w3.org/2000/svg" x="0" y="0" viewBox="0 0 78.5 72.8" style="enable-background:new 0 0 78.5 72.8" xml:space="preserve">
    <style>
        .st0,.st2,.st3{fill:none;stroke:#000;stroke-width:1.8425;stroke-miterlimit:10}.st2,.st3{stroke-width:2.8346}.st3{stroke-width:4.252}
    </style>
    <path class="st0" d="M62.6 5.3c8.1.4 14.6 6.9 15 15.1 0 2-1 5-4 5h-2.8c-.4 0-.8.5-.6.9.9 2.1 3.1 8 3.9 16.6 1 10.5-.5 25.2-.5 25.2 0 2.1-1.7 3.8-3.8 3.8H53.1c-.8 0-1.5-.7-1.5-1.5v-1.6c0-1.4 7.2-4.5 7.2-4.5.2-.2.3-.5.2-.8l-1.4-26c0-.7-.2-1.3-.6-1.9l-4-8.9c-.4-.8-1.2-1.4-2.1-1.4H37.2c-2.5 0-4.6-2.1-4.6-4.6V7.5c0-1.7 1.2-3.1 3.1-3.1h7.8c.7 0 10.3.4 19.1.9z"/>
    <path style="fill:none;stroke:#000;stroke-width:2.126;stroke-miterlimit:10" d="M41.6 4.9v20"/>
    <path class="st0" d="M58.9 64h15"/>
    <path class="st2" d="M6.4 46v19.5M11.4 46v19.5"/>
    <path class="st3" d="M17.4 46v19.5"/>
    <path class="st0" d="M42 64.1v4h-4M42 47v-4h-4M.9 64.1v4h4M.9 47v-4h4"/>
    <path id="Außen" class="st0" d="M17.4 30.4c-4.4-3.4-7.2-8.9-7-15C10.5 9.3 13.5 4 18 .7"/>
    <path id="Mitte" class="st0" d="M21.2 25.8c-3.1-2.2-5.2-6-5.1-10.3.1-4.3 2.3-8 5.5-10.1"/>
    <path class="st0" d="M24.8 21.2c-1.8-1.1-3.1-3.2-3-5.6 0-2.3 1.3-4.3 3.1-5.3"/>
    <path class="st3" d="M29.4 46v19.5"/>
    <path class="st2" d="M23.4 46v19.5M35.4 46v19.5"/>
    <path class="st0" d="M57.4 38.5s-.3.2-.7.4c-1.8.8-4.5-1.5-6-5-1.6-3.5-1.4-7 .4-7.8.4-.2 1.3-.6 1.3-.6"/>
</svg>
