<svg version="1.1" id="Storks" xmlns="http://www.w3.org/2000/svg" x="0" y="0" viewBox="0 0 70.8 69.8" style="enable-background:new 0 0 70.8 69.8" xml:space="preserve">
    <style>
        .st0{fill:none;stroke-width:2}.st0,.st1{stroke:#000;stroke-miterlimit:10}
    </style>
    <path class="st0" d="M39.4 5.7c-.3 0-1.3 4-1.8 9.2-.6 5.1-2.8 10.8-1.5 17.5 1.3 4.7 2.9 5.2 4.2 5.6 1.6.4 4.4.7 6-1.9.8-1.3.9-2.8.6-4.2-.3-1.4-1.5-2.4-2.8-3.9-1.3-1.5-2.5-2.3-3.1-4.5s-1.1-9.6-1.1-11-.3-6.8-.5-6.8zM1 48.1c0 3.1 1.1 3.8 2.6 4.3 1.9.6 10.8 0 16.9-3.4 4.9-2.7 8.7-7 9.1-11.4s0-7.7-.4-9.1c-1-3.5-1-4.4-3.7-9.3-.8-1.4-4.2-6-4.9-7.2 0 0 5.9-2.4 5.8-5.9-.1-3.4-.1-4.9-3.4-5-3.2.1-10.7.1-10.7.1s1 6.5 4.4 12.1c1.3 2.2 6 6.8 5.8 10s-1.6 4.6-6.2 5.4c-4.8.8-6.8 1.6-9.3 3.8-3.9 3-6 14-6 15.6z"/>
    <path class="st1" d="M4.6 52.1c12.2-.3 16.7-15.7 16.7-15.7S9.5 49.2 1.4 46.9c-.3 3.1 1.2 5.3 3.2 5.2z"/>
    <path id="Schnabel_00000052803675047793846070000002546349198311030149_" class="st0" d="M44 5.1c0 .5-19.4 4.4-19.4 4.4s1.9-2.2 1.8-3.9-.4-2.8-.4-2.8 18 1.8 18 2.3z"/>
    <circle id="Auge_00000154415696883483763290000013969221236294921888_" cx="21.6" cy="5.7" r="1.7"/>
    <path class="st0" d="M67.3 48.1c4-2.1 2.5-4.8.8-6.9 0 0-2.6-2.4-5.5.8"/>
    <path class="st0" d="M59.7 22c-.3 0-1.3 4-1.8 9.2S55.2 42 56.5 48.7c1.3 4.7 2.9 5.2 4.2 5.6 1.6.4 4.4.7 6-1.9.8-1.3.9-2.8.6-4.2-.3-1.4-1.5-2.4-2.8-3.9-1.3-1.5-2.5-2.3-3.1-4.5s-1.1-9.6-1.1-11c0-1.4-.3-6.8-.6-6.8z"/>
    <path style="fill:#fff" d="M33.3 14H51v28.4H33.3z"/>
    <path class="st0" d="M21.4 64.4c0 3.1 1.1 3.8 2.6 4.3 1.9.6 10.8 0 16.9-3.4 4.9-2.7 8.7-7 9.1-11.4s0-7.7-.4-9.1c-1-3.5-1-4.4-3.7-9.3-.8-1.4-4.2-6-4.9-7.2 0 0 5.9-2.4 5.8-5.9-.1-3.4-.1-4.9-3.4-5-3.2.1-10.7.1-10.7.1s1 6.5 4.4 12.1c1.3 2.2 6 6.8 5.8 10-.3 3.2-1.6 4.6-6.2 5.4-4.8.8-6.8 1.6-9.3 3.8-3.9 3-6 14-6 15.6z"/>
    <path class="st1" d="M25 68.4c12.2-.3 16.7-15.7 16.7-15.7S29.9 65.5 21.8 63.2c-.4 3.1 1.2 5.3 3.2 5.2z"/>
    <path id="Schnabel" class="st0" d="M64.4 21.4c0 .5-19.4 4.4-19.4 4.4s1.9-2.2 1.8-3.9c0-1.7-.4-2.7-.4-2.7s18 1.7 18 2.2z"/>
    <circle id="Auge" cx="42" cy="22" r="1.7"/>
</svg>
