<svg version="1.1" id="Ebene_1" xmlns="http://www.w3.org/2000/svg" x="0" y="0" viewBox="0 0 96.7 57.1" style="enable-background:new 0 0 96.7 57.1" xml:space="preserve">
    <style>
        .st1{fill:#fff;stroke:#000;stroke-width:2;stroke-miterlimit:10}
    </style>
    <path d="m70.4 32 6.1.1c.9-.4 3.9-18 5.3-19.3 1.4-1.2 4.9 1.4 7.9-.7s6.7-8.7 5.8-9.9c-.8-1.2-11 2.5-13 2.4s-6.1-2.8-7.9-3.2C72.8.9 70.4 1 70.4 1s-2.4-.1-4.3.4c-1.9.4-5.9 3.1-7.9 3.2S46 1 45.2 2.2c-.9 1.2 2.8 7.7 5.8 9.9 3 2.1 6.5-.5 7.9.7s4.5 18.9 5.3 19.3l6.2-.1z" style="fill:none;stroke:#000;stroke-width:2;stroke-miterlimit:10"/>
    <path class="st1" d="m48.4 44 6.1.1c.9-.4 3.9-18 5.3-19.3 1.4-1.2 4.9 1.4 7.9-.7s6.7-8.7 5.8-9.9c-.8-1.2-11 2.5-13 2.4s-6.1-2.8-7.9-3.2c-1.9-.4-4.3-.4-4.3-.4s-2.4-.1-4.3.4c-1.9.4-5.9 3.1-7.9 3.2s-12.2-3.6-13-2.4 2.9 7.8 5.8 9.9c3 2.1 6.5-.5 7.9.7s4.5 18.9 5.3 19.3l6.3-.1z"/>
    <path class="st1" d="m26.4 56 6.1.1c.9-.4 3.9-18 5.3-19.3 1.4-1.2 4.9 1.4 7.9-.7 3-2.1 6.7-8.7 5.8-9.9-.8-1.2-11 2.5-13 2.4s-6.1-2.8-7.9-3.2c-1.9-.4-4.3-.4-4.3-.4s-2.4-.1-4.3.4c-1.9.4-5.9 3.1-7.9 3.2S1.9 25 1.1 26.2 4 33.9 7 36.1c3 2.1 6.5-.5 7.9.7s4.5 18.9 5.3 19.3l6.2-.1z"/>
</svg>
