<svg version="1.1" id="Ebene_1" xmlns="http://www.w3.org/2000/svg" x="0" y="0" viewBox="0 0 47 59" style="enable-background:new 0 0 47 59" xml:space="preserve">
    <style>
        .st0{stroke-linecap:square}.st0,.st1{fill:none;stroke:#000;stroke-width:2;stroke-miterlimit:10}
    </style>
    <path d="m40.1 1.5 5.4 5.4v50.6h-44v-56h38.6m0-1.5H1.5C.7 0 0 .7 0 1.5v56c0 .8.7 1.5 1.5 1.5h44c.8 0 1.5-.7 1.5-1.5V6.9c0-.4-.2-.8-.4-1.1L41.2.4c-.4-.2-.8-.4-1.1-.4z"/>
    <path d="M46.5 10.8h-10V.8h2.9l7.1 7.1v2.9z"/>
    <path class="st0" d="M16.1 48h22.7"/>
    <path class="st1" d="M6.5 48.1h4.3"/>
    <path class="st0" d="M16.1 42.1h22.7"/>
    <path class="st1" d="M6.5 42.1h4.3"/>
    <path class="st0" d="M16.1 36.1h22.7"/>
    <path class="st1" d="M6.5 36.2h4.3"/>
    <path class="st0" d="M16.1 30.2h22.7"/>
    <path class="st1" d="M6.5 30.2h4.3"/>
    <path class="st0" d="M16.1 24.2h22.7"/>
    <path class="st1" d="M6.5 24.3h4.3"/>
    <path class="st0" d="M16.1 18.3h22.7"/>
    <path class="st1" d="M6.5 18.3h4.3"/>
</svg>
