<svg version="1.1" id="New_animals" xmlns="http://www.w3.org/2000/svg" x="0" y="0" viewBox="0 0 89.7 67" style="enable-background:new 0 0 89.7 67" xml:space="preserve">
    <style>
        .st0{fill:none;stroke:#000;stroke-width:2;stroke-miterlimit:10}
    </style>
    <path class="st0" d="M51 1s2.7-.1 4.7.4c2.1.5 6.6 3.4 8.8 3.5C66.7 4.9 78 1 78.9 2.3s-3.2 8.4-6.5 10.7-7.1-.5-8.7.8c-1.6 1.4-4.9 20.5-5.9 20.9l-6.8-.1-6.8.1c-1-.4-4.3-19.6-5.9-20.9-1.6-1.4-5.4 1.5-8.7-.8s-7.3-9.5-6.5-10.7C24 1 35.3 4.9 37.5 4.9c2.2-.1 6.7-3 8.8-3.5C48.3.9 51 1 51 1"/>
    <path d="M29 13s2.7-.1 4.7.4c2.1.5 6.6 3.4 8.8 3.5S56 13 56.9 14.3s-3.2 8.4-6.5 10.7-7.1-.5-8.7.8c-1.6 1.4-4.9 20.5-5.9 20.9l-6.8-.1-6.8.1c-1-.4-4.3-19.6-5.9-20.9-1.6-1.4-5.4 1.5-8.7-.8S.3 15.5 1.1 14.3c.9-1.3 12.2 2.6 14.4 2.6 2.2-.1 6.7-3 8.8-3.5 2-.5 4.7-.4 4.7-.4" style="fill:#fff;stroke:#000;stroke-width:2;stroke-miterlimit:10"/>
    <path class="st0" d="M74.9 31h-7.8c-1.1 0-2 .9-2 2v9.6h-9.8c-1.1 0-2 .9-2 2v7.7c0 1.1.9 2 2 2h9.8V64c0 1.1.9 2 2 2h7.8c1.1 0 2-.9 2-2v-9.6h9.8c1.1 0 2-.9 2-2v-7.7c0-1.1-.9-2-2-2H77V33c0-1.1-.9-2-2.1-2z"/>
</svg>
