<svg version="1.1" id="Ebene_1" xmlns="http://www.w3.org/2000/svg" x="0" y="0" viewBox="0 0 82.7 72.2" style="enable-background:new 0 0 82.7 72.2" xml:space="preserve">
    <style>
        .st1{font-family:&quot;RobotoCondensed-Bold&quot;}.st2{font-size:16.7924px}.st3{font-size:9.4458px}
    </style>
    <path id="rect2489_4_" d="M42 7.5c-4 0-6.5 4.3-6.4 7.9-.4 8.5-3.8 13.7-11.4 18.5-2.6 1.1-6.3 1.8-6.4 5.2-.2 6.9 0 17.3-.1 24.2-.1 2.9-.1 4.9 3 4.9h41.5c4.2 0 4.1-1.8 4.1-4.9V39.1c-.3-3-3.3-4.1-5.8-5-7-3.7-10.5-7.6-11.7-14.9-.8-3.4.4-7.8-2.8-10.3-1.2-.9-2.5-1.4-4-1.4z" style="fill:none;stroke:#000;stroke-width:1.5;stroke-miterlimit:10"/>
    <path id="path4053_13_" d="M44.9 13.5c0 1.6-1.3 3-2.9 3-1.6 0-2.9-1.3-2.9-3 0-1.6 1.3-3 2.9-3 1.6 0 2.9 1.3 2.9 3z"/>
    <text transform="translate(20.332 63.246)" class="st1 st2">56789</text>
    <text transform="translate(22.956 45.404)" class="st1 st3">DE 01 234</text>
    <path id="rect2489_5_" d="M45.2 70.2h.5c4.2 0 4.1-1.8 4.1-4.9V41.2c-.3-3-3.3-4.1-5.8-5-7-3.7-10.5-7.6-11.7-14.9-.7-3.4.5-7.8-2.7-10.3" style="fill:none;stroke:#fff;stroke-width:4;stroke-miterlimit:10"/>
    <path id="rect2489_2_" d="M25 10.5c-4 0-6.5 4.3-6.4 7.9-.4 8.5-3.8 13.7-11.4 18.5C4.7 38 1 38.7.9 42.1.7 49 .9 59.4.8 66.3c-.1 2.9-.1 4.9 3 4.9h41.5c4.2 0 4.1-1.8 4.1-4.9V42.1c-.3-3-3.3-4.1-5.8-5-7-3.7-10.5-7.6-11.7-14.9-.7-3.4.5-7.8-2.7-10.3-1.4-.9-2.7-1.4-4.2-1.4z" style="fill:#fff;stroke:#000;stroke-width:1.5;stroke-miterlimit:10"/>
    <text transform="translate(3.332 66.246)" class="st1 st2">56789</text>
    <text transform="translate(5.956 48.404)" class="st1 st3">DE 01 234</text>
    <path id="path4053_4_" d="M27.9 16.5c0 1.6-1.3 3-2.9 3s-2.9-1.3-2.9-3c0-1.6 1.3-3 2.9-3s2.9 1.3 2.9 3z"/>
    <path id="Layer_2" d="M72 1.5v9.1h9.2v6H72v9.1h-6.1v-9.1h-9.2v-6h9.2V1.5H72M72 0h-6.1c-.8 0-1.5.7-1.5 1.5v7.6h-7.7c-.8 0-1.5.7-1.5 1.5v6c0 .8.7 1.5 1.5 1.5h7.7v7.6c0 .8.7 1.5 1.5 1.5H72c.8 0 1.5-.7 1.5-1.5v-7.6h7.7c.8 0 1.5-.7 1.5-1.5v-6c0-.8-.7-1.5-1.5-1.5h-7.7V1.5C73.5.7 72.8 0 72 0z"/>
</svg>
