<svg version="1.1" id="Still_birth" xmlns="http://www.w3.org/2000/svg" x="0" y="0" viewBox="0 0 78 63.7" style="enable-background:new 0 0 78 63.7" xml:space="preserve">
    <style>
        .st0,.st2{fill:none;stroke:#000;stroke-width:2;stroke-miterlimit:10}.st2{stroke-width:1.8425}
    </style>
    <path class="st0" d="M51.9 50.9c4.4-2.3 2.8-5.3.9-7.7 0 0-2.8-2.7-6.1.9M50.8 23.1c-.2.4-17.5-5.3-20.6-6.3-.2-.1-.2-.3 0-.3.9-.4 2.8-1.3 3.5-2.6.9-1.7 1.1-2.9 1.1-2.9s16.2 11.6 16 12.1z"/>
    <circle cx="27.6" cy="9.8" r="1.9"/>
    <path class="st0" d="M43.6 22c-.3 0-1.5 4.5-2 10.2s-3 12-1.6 19.4c1.5 5.2 3.2 5.8 4.6 6.2 1.7.5 4.9.8 6.7-2.1.8-1.4 1-3.2.7-4.7s-1.7-2.7-3.1-4.4c-1.5-1.7-2.8-2.6-3.4-5-.6-2.4-1.3-10.7-1.3-12.2s-.3-7.4-.6-7.4z"/>
    <path style="fill:none;stroke:#000;stroke-width:1.8425;stroke-linecap:round;stroke-linejoin:round;stroke-miterlimit:10" d="M63.9 56.3V38.9H73v-6.1h-9.1v-9.1h-6.1v9.1h-9.1v6.1h9.1v17.4"/>
    <g id="Hügel">
        <path class="st2" d="M77.3 62.8c-3.2-3.3-9.2-5.5-16.1-5.5M44.8 62.8C48 59.5 54 57.3 61 57.3"/>
    </g>
    <path d="M24.2 43.1S10.5 58.8 1.1 56c-.4 3.8 1.4 6.5 3.7 6.4 15.4-.3 19.4-19.3 19.4-19.3z" style="stroke:#000;stroke-miterlimit:10"/>
    <path class="st0" d="M22.8 58.3c5.4-3 9.7-7.8 10.1-12.7.4-4.9 0-8.6-.5-10.1-1.1-3.8-1.1-4.9-4.1-10.3-.9-1.6-5.5-7.4-5.5-8 0-.2 7.2.6 9.9-2.6 3-3.7 3.7-6.8-4.6-10.6-3.1-1.3-5.9-2.5-7.3-3-.6-.2-1.3.1-1.5.7-1.1 3.1-3.9 11.9-.8 16.9 1.5 2.4 6.7 7.6 6.4 11.1-.3 3.5-1.8 5.1-6.9 5.9-5.3.9-7.6 1.8-10.4 4.2C3.4 43.5 1.1 56.1 1 57.4c-.2 2.8.4 5 3.3 5.2s11.6-.5 18.5-4.3z"/>
</svg>
