<?xml version="1.0" encoding="UTF-8"?>
<svg id="Ebene_1" xmlns="http://www.w3.org/2000/svg" version="1.1" xmlns:xlink="http://www.w3.org/1999/xlink" viewBox="0 0 438.6 421">
  <!-- Generator: Adobe Illustrator 29.3.1, SVG Export Plug-In . SVG Version: 2.1.0 Build 151)  -->
  <defs>
    <style>
      .st0 {
        fill: #dcdcdc;
      }

      .st0, .st1, .st2, .st3, .st4, .st5, .st6, .st7 {
        stroke-linecap: round;
        stroke-linejoin: round;
      }

      .st0, .st1, .st2, .st3, .st5, .st6, .st7 {
        stroke: #000;
      }

      .st0, .st4 {
        fill-rule: evenodd;
      }

      .st0, .st6, .st7 {
        stroke-width: .5px;
      }

      .st1 {
        stroke-dasharray: 4.4 5.9;
      }

      .st1, .st2 {
        stroke-width: 1.4px;
      }

      .st1, .st2, .st3, .st5, .st6, .st7 {
        fill: none;
      }

      .st3, .st5 {
        stroke-width: .4px;
      }

      .st4 {
        fill: #fff;
        stroke: #1d1d1b;
        stroke-width: .9px;
      }

      .st5, .st7 {
        stroke-opacity: .2;
      }

      .st8 {
        display: none;
      }
    </style>
  </defs>
  <g id="VitalControl">
    <polyline class="st6" points="437.8 .7 411 33.5 409.5 34.9 407.2 38 270.6 203.9 261.5 211.5 251.8 215.9 242.4 217.4 234.5 217.4 229.4 217 229 216.7"/>
    <line class="st6" x1="415.6" y1="23.7" x2="418.2" y2="11.4"/>
    <polygon class="st6" points="208.1 123.9 208.9 124.5 207.4 124.8 193.4 157.6 197.6 159 202.4 161.9 202.3 163.2 199.3 169.9 198.7 169.9 192.6 165.9 191.8 165.2 187.7 167 181.5 169.2 180.4 169.2 198.9 125 202.5 123.2 205.6 123.2 208.1 123.9"/>
    <polygon class="st6" points="217.9 141.7 214.5 146 213.5 146.1 212.6 145.2 212.8 142.8 214.1 140.9 216.4 140.9 217.9 141.7"/>
    <polygon class="st6" points="215.5 139.7 214.1 140.2 212.4 142.1 212.4 145 212.6 145.2 212.4 146.1 211.6 146.7 210.5 146.9 209.9 145.7 209.9 143.9 210.2 141.7 212 139.8 213 139.5 215.4 139.5 215.5 139.7"/>
    <polygon class="st6" points="237.9 154.3 237.8 154.8 237.3 155.1 236.6 155.2 236.9 154.2 237.5 153.9 237.9 154.3"/>
    <polygon class="st6" points="240 155.4 239.6 158.5 239.1 155 239.6 154.7 240 155.4"/>
    <polygon class="st6" points="231.3 209.8 230.9 210.2 229.9 210.1 227.7 208.3 184.9 181.1 184.1 181.1 178.3 183 175.5 182.9 174 181.1 172.9 179.3 173 178.6 175.2 181.3 177.3 176.9 177.6 176 178 176 231.3 209.8"/>
    <path class="st6" d="M218.6,142c0,0,0,.2,0,.3,0,.1,0,.3-.2.5-.1.2-.2.3-.1.3"/>
    <polyline class="st6" points="218.3 140.9 218 141.2 216 140.5 214.1 140.7 213 141.8 212.5 143 212.3 144.8 213.2 146.7 214.9 148.2 233.9 160.1 236 160.9 237.8 160.7 239 159.6 239.5 158.5 239.8 158.1"/>
    <polyline class="st6" points="234.4 159.3 234.3 159.5 234 159.9 215 148 213.5 146.6 212.7 144.8 212.8 143.2 212.8 143.2"/>
    <polyline class="st6" points="215 148 215.3 147.6 213.9 146.3 213.1 144.7 213.2 143.2 213.1 143.2"/>
    <polyline class="st6" points="213.6 142 213.3 142 212.8 143.2"/>
    <polyline class="st6" points="213.6 142 213.8 142 213.2 143.2 213.4 143"/>
    <line class="st6" x1="213" y1="141.8" x2="213.3" y2="141.5"/>
    <polyline class="st6" points="213.3 142 214.3 141 216 140.8 217.9 141.5 219.8 142.7 217.9 141.5"/>
    <polyline class="st6" points="215.4 147.4 215.3 147.6 234.3 159.5 236 160.1 237.6 160 238.5 159 238.6 159.1"/>
    <polyline class="st6" points="213.8 142 214.7 141.1 216.2 140.9 218 141.5"/>
    <line class="st6" x1="214.6" y1="141.6" x2="214.2" y2="142"/>
    <line class="st6" x1="215.5" y1="147.3" x2="218.3" y2="144"/>
    <polyline class="st6" points="219.1 143.7 222.3 145.7 222.2 145.9 222.1 146 221.9 146 221.7 145.9 221.8 145.7 218.4 143.6 218.3 143.8 218.2 143.7 218.1 143.6 218.1 143.5 218.2 143.2 218.2 143.1 219.1 143.7"/>
    <polyline class="st6" points="218.3 141.9 218.1 142.6 217.9 143.7 218 143.7 218.1 143.4 218.1 143.4"/>
    <polyline class="st6" points="218 143.7 236.6 155.4 236.6 155.4"/>
    <line class="st6" x1="218.3" y1="143.8" x2="221.7" y2="145.9"/>
    <polyline class="st6" points="218.2 143.2 218.2 143.3 218.3 143.5 218.4 143.6"/>
    <polyline class="st6" points="218 141.2 237.1 153.2 237.3 153"/>
    <polyline class="st6" points="218.5 142.3 237.2 154 236.8 154.3 218.4 142.8"/>
    <line class="st6" x1="218.1" y1="143.5" x2="218.1" y2="143.4"/>
    <polyline class="st6" points="221.8 145.7 222 145.8 222.2 145.8 222.3 145.7"/>
    <polyline class="st6" points="239.1 157.8 239.1 157.9 239.2 158.2 239.4 156.6 238.6 154.9 237 153.4 219.8 142.7"/>
    <polyline class="st6" points="232.5 152.4 232.6 152.1 232.5 152.3 232.6 152.4 232.7 152.5 232.6 152.8 232.5 152.6 232.4 152.5 232.5 152.4 232.5 152.4"/>
    <polyline class="st6" points="232.6 152.8 236.1 154.9 236.2 154.7 236.3 154.7 236.4 154.8 236.6 154.7 236.5 155 236.6 154.9 236.4 155.3"/>
    <polyline class="st6" points="232.6 152.1 236.7 154.7 236.8 154.3"/>
    <polyline class="st6" points="234 159.9 235.9 160.6 237.6 160.4 238.7 159.4 238.6 159.2"/>
    <line class="st6" x1="234.6" y1="159.1" x2="238.2" y2="154.7"/>
    <line class="st6" x1="232.7" y1="152.5" x2="236.2" y2="154.7"/>
    <polyline class="st6" points="236.6 155.4 237.7 154.9 238.2 154.6"/>
    <polyline class="st6" points="236.5 155 236.3 155 236.2 155 236.1 154.9"/>
    <line class="st6" x1="236.7" y1="154.7" x2="236.6" y2="154.7"/>
    <line class="st6" x1="239" y1="159.6" x2="239.3" y2="159.2"/>
    <line class="st6" x1="238.7" y1="159.4" x2="239.2" y2="158.2"/>
    <polyline class="st6" points="238.5 159 239.1 157.9 239.2 156.4 238.5 154.8"/>
    <polyline class="st6" points="239.5 158.5 239.7 156.7 238.8 154.8 237.1 153.2"/>
    <line class="st6" x1="237" y1="153.4" x2="237" y2="153.5"/>
    <line class="st6" x1="237.2" y1="154" x2="237.5" y2="153.9"/>
    <line class="st6" x1="239.1" y1="159.5" x2="239.3" y2="159.2"/>
    <path class="st6" d="M176.6,183.3c-.2,0-.4-.2-.7-.3s-.4-.2-.5-.3c-.2-.2-.3-.2-.5-.4-2.9-4.7-3-4.6-5.8-9.4q-2.4-5.5-4.6-11.1c-1.2-5.5-1.1-5.5-2.1-11q-.1-.7-.2-1.4c.1-5.4,0-5.4.3-10.8,1.3-4.9,1.4-4.8,2.9-9.7.3-.5.5-1.1.8-1.6,2.7-4.1,2.6-4.2,5.4-8.3C204.7,79.4,237.8,39.8,271,.3"/>
    <path class="st6" d="M175.6,180.7q-2.9-4.9-5.6-9.8t-3.5-10q-.1-.6-.2-1.2c-.6-4.3-.7-4.3-1.1-8.5q.3-4.5.9-9.1c1.4-4,1.4-4.1,3-8.1,2.4-3.4,2.4-3.5,4.9-6.8q3.3-2.7,6.7-5.2c4.1-1.8,4.2-1.8,8.4-3.3"/>
    <path class="st6" d="M171.6,119c3.7-3.2,3.8-3.2,7.7-6.2,4.5-2,4.6-2,9.3-3.9q1.8-.5,3.6-.9c1.3,0,2.7-.1,4-.2q2,.2,4.1.6t3.9,1.2"/>
    <path class="st6" d="M204,109.6c-.7.7-1.3,1.3-2,1.9q-1.4,1.1-2.9,2.1-3.2,1.9-6.5,3.7-1.8.7-3.7,1.3"/>
    <path class="st6" d="M189.1,118.7q-.6-1.2-1.1-2.4c-.1-.5-.2-.9-.3-1.4,0-.5-.1-.9-.2-1.4q.1-1.3.3-2.6"/>
    <path class="st6" d="M185.8,169.6q-.4-.5-.8-1c-.2-.3-.4-.7-.7-1s-.4-.6-.5-.8c0-.2-.2-.4-.3-.6"/>
    <path class="st6" d="M266.3,167c.9,0,1.7,0,2.5-.2s1.3-.2,1.4-.3c.1,0,.6-.2,1.4-.4q1.3-.6,2.5-1.2t1.7-1.3"/>
    <path class="st6" d="M267.8,149.4c-21.2-13.3-42.5-26.5-63.8-39.7"/>
    <path class="st6" d="M275.9,163.5c-.3-1.3-.7-2.6-1.1-3.9q-.9-1.9-1.8-3.8c-.8-1.2-1.6-2.4-2.4-3.5-1.4-1.5-1.3-1.6-2.8-3"/>
    <path class="st6" d="M215,139.3q1.5.5,3,1.2c6.4,4,12.8,8,19.2,12q1.3,1.1,2.5,2.3"/>
    <path class="st6" d="M229.9,217.1c3.3.2,6.7.4,10,.6h1.2c5.4-.8,5.4-.7,10.8-1.7,4.7-1.9,4.7-2,9.4-4.1.7-.4.6-.4,1.3-.9,3.9-3.2,4-3.1,7.7-6.5,2.8-4.1,2.9-4.1,5.4-8.4,1.5-4.9,1.5-5,2.8-10q.2-5.6,0-11.2t-2.6-11.4"/>
    <path class="st6" d="M265.3,157.6q0,2.5.1,5.1c.4,2.1.5,2.1,1,4.3,1.2,5.1,1.3,5.1,2.5,10.2q.2,4.8.2,9.6t-2,8.7-4,7.5-5.9,6c-3.7,2.2-3.8,2.2-7.6,4.2q-4.5,1.2-9.1,2.1h-10.1"/>
    <path class="st6" d="M407.5.3c-20.1,21.6-40.2,43.2-60.3,64.8-26.4,28.1-52.8,56.3-79.3,84.4-.9,1.6-.9,1.7-1.7,3.4q-.5,2.4-.9,4.8"/>
    <path class="st6" d="M270.2,204.5c46.5-56.2,92.8-112.5,139-168.9,3.3-5.7,3.2-5.8,6.1-11.7,1.5-6.6,1.5-6.7,2.7-13.5-.2-5.1-.2-5.2-.7-10.2"/>
    <path class="st6" d="M275.9,163.5c13.5-15.7,26.9-31.4,40.3-47.1,12.2-14.7,24.3-29.3,36.4-44,11.1-13.4,22.3-26.8,33.4-40.2,9.1-10.7,18.2-21.3,27.3-31.9"/>
    <polyline class="st6" points="174.9 182.3 175.6 180.7 176.5 181 177.5 180.9 177.4 182.5 178.8 182.7 177.7 183.2 176.6 183.3"/>
    <polyline class="st6" points="180.8 178.8 180.5 178.9 178 179.6 177.7 177.9 177.7 175.5 175.6 180.7"/>
    <polyline class="st6" points="189.1 118.7 198.9 124.8 198.2 125.9 180 169.9 181.8 168.2 183.5 166.3 200.3 126.2 198.2 125.9"/>
    <line class="st6" x1="187.7" y1="110.8" x2="188.5" y2="108.9"/>
    <line class="st6" x1="178.8" y1="182.7" x2="184.7" y2="180.9"/>
    <line class="st6" x1="177.7" y1="183.2" x2="184.9" y2="181"/>
    <polyline class="st6" points="177.5 180.9 178 179.6 179.8 178.5 181.8 179.1 177.7 175.5 232.6 210.3 230.6 210.5"/>
    <polyline class="st6" points="178.8 177.7 177.7 175.5 179.3 177.7"/>
    <line class="st6" x1="180.5" y1="178.9" x2="180.7" y2="178.7"/>
    <polyline class="st6" points="182.1 168.6 180 169.9 182.4 169"/>
    <polyline class="st6" points="255.2 159 255 160.4 236.2 199.5 235 199.7 232.7 199.3 233.5 202.1 235.2 204.9 180 169.9 185.8 169.6"/>
    <polyline class="st6" points="183.5 166.3 186.6 164.3 186.6 166.6 187.8 169 185.8 169.6"/>
    <polyline class="st6" points="230.1 211.2 230 212.5 232.6 210.3 229.9 209.6 181.8 179.1"/>
    <polyline class="st6" points="186.6 164.3 191.2 162.2 191.1 163.6 191.9 165.2 193.3 166.4 187.8 169 232.6 197.3 233.7 191.9 193.3 166.4"/>
    <polyline class="st6" points="234.1 202.1 235.2 204.9 255.9 162 256.3 160.7 255.9 154.8 252.6 150.1 251.9 151.4 252 151.6 251.9 151.5 208.8 124.5 208.6 124.3 209.2 123 203.7 122.2 198.9 124.8 199.7 125.3 200.8 125.3 200.3 126.2 204 124.5 188.7 160.9 191.8 158.9 194.9 158.4"/>
    <polyline class="st6" points="188.7 160.9 196.7 159.4 193.6 166.6"/>
    <polyline class="st6" points="188.8 160.8 191.3 158.6 194.2 157.6 194.5 158.2 198.5 159.6 198.4 159.2 194.2 157.6 208 125 205.9 124.3 204 124.5 204.6 123.7"/>
    <polyline class="st6" points="188.5 108.9 226.9 61.7 278.2 .3"/>
    <polyline class="st6" points="198.4 159.2 235.1 182.3 235.1 182.7 237.9 185.4 239 188.6 238.6 192.3 238.9 188.3"/>
    <polyline class="st6" points="197 159.1 196.7 159.4 197.3 159.2"/>
    <line class="st6" x1="203.4" y1="162.7" x2="199.9" y2="170.6"/>
    <line class="st6" x1="235.1" y1="182.7" x2="198.5" y2="159.6"/>
    <polyline class="st6" points="200.8 125.3 204.4 123.7 208.8 124.5"/>
    <polyline class="st6" points="252 151.6 254.7 155.1 255.3 159.4 255.5 160.1 256.3 160.7 266.3 167"/>
    <line class="st6" x1="204" y1="109.6" x2="286.5" y2=".3"/>
    <polyline class="st6" points="208 125 208.2 124.7 208.6 124.5"/>
    <polyline class="st6" points="212.4 142.5 210.1 142.5 209.9 145.2 211.2 148 213.7 150.3 214.7 148.7"/>
    <polyline class="st6" points="210.1 142.5 210.6 141.4 213 141.3 212.8 141.6"/>
    <polyline class="st6" points="210.6 141.4 212.3 139.6 215 139.3"/>
    <polyline class="st6" points="239.7 154.8 241 157.6 240.8 160.3 240.2 161.4 238.5 163.1 235.7 163.4 232.7 162.2 233.9 160.3"/>
    <line class="st6" x1="209.2" y1="123" x2="252.6" y2="150.1"/>
    <line class="st6" x1="213" y1="141.3" x2="213.5" y2="140.8"/>
    <line class="st6" x1="213.7" y1="150.3" x2="232.7" y2="162.2"/>
    <polyline class="st6" points="218 140.5 218.4 140.7 216.2 139.8 214.2 140.1 213.7 140.6"/>
    <line class="st6" x1="219.8" y1="141.6" x2="218.4" y2="140.7"/>
    <polyline class="st6" points="228.7 216.3 229.2 216.8 229.9 217.1 230.2 215.3 229.3 213.8 230 212.5"/>
    <path class="st6" d="M275.9,163.5"/>
    <polyline class="st6" points="229.3 213.8 228.6 214.9 228.6 216.3 229.2 216.8"/>
    <polyline class="st6" points="230.2 215.3 232.6 210.3 230.8 211.1"/>
    <polyline class="st6" points="228.6 214.9 228.4 214.2 229.1 209.1"/>
    <polyline class="st6" points="230 212.2 230.2 211.4 229.9 210.2 229.3 209.2 228.7 208.8"/>
    <polyline class="st6" points="233.7 191.9 235.4 192.6 236.9 192.5 237.9 191.6 237 196.2 235.3 197.4 232.6 197.3 232.7 199.3"/>
    <line class="st6" x1="230.8" y1="190.1" x2="234.5" y2="182.3"/>
    <polyline class="st6" points="234.7 202.1 235.2 204.9 235.6 202.1 237 196.2"/>
    <line class="st6" x1="238.5" y1="187.1" x2="235.9" y2="192.5"/>
    <polyline class="st6" points="235.1 182.3 238.6 185.6 237.9 185.4"/>
    <polyline class="st6" points="253.7 153.8 238.6 185.6 239.2 188.8 238.6 192.3 255.1 157.9"/>
    <polyline class="st6" points="240.2 161.4 239.5 159.5 239.4 159.6"/>
    <polyline class="st6" points="239.5 159.5 240.1 158.3 240.8 160.3"/>
    <polyline class="st6" points="240 155.8 240.3 156.4 240.1 158.3"/>
    <line class="st6" x1="239.9" y1="155.7" x2="239.4" y2="154.5"/>
    <polyline class="st6" points="255.9 162 255.2 161.4 255 160.4 255.3 159.4"/>
    <polyline class="st6" points="409.6 35.2 409.7 35 415.4 24.3"/>
    <line class="st6" x1="409.7" y1="35" x2="438.4" y2=".3"/>
    <polyline class="st6" points="415.6 23.8 415.9 23.3 418.6 9.9 417.9 .3"/>
  </g>
  <g id="Stick" class="st8">
    <polygon class="st6" points="131.4 292 131.3 293.9 124 302.9 123.1 303 120.8 301.4 130.2 290.2 130.4 290.2 131.4 292"/>
    <polygon class="st6" points="71.2 290 74.8 286.2 76.6 285.5 78.2 285.5 76 291.8 74.8 292.1 73.8 292.1 72 291.7 71.3 291.3 71.2 290"/>
    <polygon class="st6" points="125.9 310.3 128.4 307.2 128.5 307.7 126.7 311.7 126 311.2 125.9 310.3"/>
    <path class="st6" d="M61.6,296.5c3.5-4,7-8,10.5-12q.3-.3.6-.6t.3-.2c.1,0,.2-.1.3-.2,0,0,.2-.1.3-.2.1,0,.4-.2.8-.4s.7-.3.8-.3.4,0,.9-.2c.5-.1.8-.2.9-.1.1,0,.5,0,1,0,.5,0,.9,0,1,0,.1,0,.5.1,1,.1s.9,0,1.1.2.6.2,1.1.3.9.2,1.1.4.6.3,1.1.4.9.2,1.1.5.6.5,1.1.6c.5.1.9.4,1.1.7"/>
    <path class="st6" d="M86.9,286.5c-.1,0-.3-.1-.4-.2s-.3-.1-.4-.1h-.9c-.1,0-.3,0-.6.1s-.4.1-.5.1-.2,0-.5.2c-.3.1-.4.2-.5.3,0,0-.2.2-.5.3-.3.1-.5.3-.6.4s-.4.4-.8.7-.7.6-.8.8-.4.5-.8.8-.6.6-.7.9c0,.3-.2.5-.5.8-.3.3-.4.5-.4.8s0,.5-.3.8c-.2.3-.3.5-.2.7,0,.2,0,.3,0,.4,0,0,0,.2,0,.4,0,.2,0,.4,0,.5,0,.1,0,.2,0,.3s.2.2.2.4,0,.3.3.3.3,0,.3.2"/>
    <path class="st6" d="M78.4,296.4c-.3.3-.6.7-.9,1.1s-.3.5,0,.2c.2-.3.2-.2,0,.2"/>
    <path class="st6" d="M61.9,296.1c.1-.1.3-.3.5-.5q.3-.2.7-.5c.1,0,.2-.1.3-.2,0,0,.3-.2.7-.3.4-.1.7-.2.8-.3.1,0,.3-.1.5-.1s.5,0,.8-.1c.3,0,.7,0,1,0,.3,0,.7,0,1,0,.3,0,.7,0,1,.1s.5.1.5,0c0-.1.4,0,1.1.2s1.1.4,1.1.3c0,0,.2,0,.6.2s.7.3.9.3c.2,0,.5,0,.8.3s.5.3.6.3.4.2,1.1.6c.7.4.9.5.7.4s.1,0,1,.6"/>
    <path class="st6" d="M71.2,290.8h0v-.3c0,0,0-.1,0-.2,0,0,.1-.1.2-.2"/>
    <path class="st6" d="M71.6,290h0v-.2s0,0,0-.1c0-.1,0,0,0,0h-.2"/>
    <path class="st6" d="M71.1,289.6c0,0,0,.1-.2.2-.1,0-.2.1,0,.2,0,0,0,.2,0,.3-.1.1-.1.2,0,.2.1,0,.1,0,0,.2-.1.1-.1.2,0,.2.1,0,.2,0,0,.2,0,.1,0,.2.2.2.2,0,.3,0,.3.2,0,.1.1.2.3.1s.3,0,.3.1c0,.1.1.2.4.1s.4,0,.5.1c0,.1.2.1.4,0,.2-.1.5-.1.8,0h1.2c.2,0,.4,0,.6-.1.1,0,.3,0,.4-.1.2,0,.4-.1.5-.2.1,0,.2,0,.3-.2,0,0,.2-.1.3-.2.1-.1.3-.2.4-.3"/>
    <path class="st6" d="M77.5,291c0,0-.1.1-.2.2s-.2.1-.3.2-.3.1-.4.2-.2.1-.3.1-.3,0-.6.2c-.3.1-.5.1-.5,0,0-.1-.1-.1-.3,0-.2.1-.5.1-.9,0h-.5c-.1,0-.3,0-.4-.1s-.3-.1-.4-.1-.3,0-.5-.2c-.2-.1-.3-.2-.3-.1s0,0-.3-.2"/>
    <path class="st6" d="M71.1,289.6c.9-1,1.8-2,2.7-3,.9-1,1.1-1.1.4-.4s-.5.6.6-.4c1.1-1,1.3-1.1.6-.3-.7.8-.5.7.6-.3,1.1-1,1.3-1.1.6-.2-.7.9-.5.8.5-.1s1.1-.9.4,0c-.7.9-.6.9.4,0h.5c.2,0,.4,0,.6.1.1,0,.3,0,.4.1.1,0,.3.1.5.2,0,0,.2.1.3.2.1,0,.2.2.3.3,0,.1.1.3.2.4,0,.1,0,.3,0,.4v.7c0,.1,0,.3-.2.4q0,.2-.2.4t0,0"/>
    <path class="st6" d="M80.3,287.7q0-.2,0-.4v-.4c0-.1,0-.3,0-.4q0-.2-.2-.3c0-.1-.2-.2-.3-.3,0-.1-.2-.1-.3-.2-.1,0-.3,0-.4-.2-.1-.1-.3-.2-.5-.1s-.4,0-.6,0-.4,0-.6,0-.4.1-.6.1-.4,0-.6.2c-.2.1-.4.2-.7.3-.3,0-.4.2-.5.3,0,.1-.3.3-.6.4l-.4.4"/>
    <path class="st6" d="M74.2,287.1h0v-.2s0,0,0-.1c0-.1,0,0,0,0h-.2"/>
    <path class="st6" d="M72.6,283.9c.1,0,.3-.2.4-.3.1-.1.4-.3.7-.4s.4-.2.3-.2,0,0,.4-.2.5-.2.4-.2.1,0,.8-.2c.4-.1.4,0,.9-.2h2.5c.3,0,.7,0,1.1.1.3,0,.7.1,1,.2.2,0,.4,0,.7.2.4.1.8.2,1.1.3.2,0,.4,0,.6.2.4.1.8.3,1.1.4.3.1.6.3.9.4"/>
    <path class="st6" d="M86.9,286.5c11.2,7.3,22.4,14.5,33.7,21.8,0,0,.1,0,.2.2s.1.2.2.2.1.1.2.4,0,.4,0,.3,0,0,0,.3,0,.4,0,.4,0,.1,0,.4,0,.4,0,.4,0,.2,0,.5,0,.5,0,.5-.2.2-.2.6,0,.6-.2.6-.3.3-.4.9c-.1.6-.3.8-.4.6s-.3,0-.4.6c-.1.6-.4.9-.7.9s-.4.1-.2.3,0,.4-.5.5-.8.4-.8.7-.3.5-.8.5-.7.1-.5.3,0,.3-.5.2-.7,0-.5.2,0,.2-.4.1c-.5-.1-.6-.1-.4,0h-.8c-.1,0-.3,0-.5-.1q-.2,0-.4-.1c0,0-.1,0-.2-.1"/>
    <path class="st6" d="M85.4,284.1c.3.1.5.3.8.4.3.1.5.2.6.3.1,0,.5.3,1.1.7"/>
    <path class="st6" d="M97.3,286.2c2.7-3.2,5.4-6.4,8.1-9.5,0,0,0,0,0-.2s.2-.2.3-.2"/>
    <path class="st6" d="M105.9,276.4c0,0,.2-.1.3-.2.1,0,.2-.1.3-.1s.2,0,.3-.1c.1,0,.2,0,.3,0,0,0,.2,0,.4,0,.2,0,.3,0,.4,0,0,0,.2,0,.4,0,.2,0,.3,0,.4.1s.2.2.4.1c.2,0,.3,0,.4.2s.2.3.4.2c.2,0,.3,0,.4.2"/>
    <path class="st6" d="M110.1,277c-.2-.1-.4-.2-.6-.3s-.4-.2-.6-.3c-.2-.1-.4-.2-.6-.2h-1.9c-.2,0-.3,0-.4.1,0,0-.1.1-.2.1"/>
    <path class="st6" d="M105.9,276.4c.1,0,.3-.1.4-.2.1,0,.3-.1.4-.1h1.1c.2,0,.4,0,.6.1q.3,0,.6.2c.2,0,.4.2.6.3.2.1.4.2.6.3"/>
    <path class="st6" d="M110.1,277c6.1,3.9,12.3,7.9,18.4,11.8.2.1.4.3.6.4.2.1.4.3.5.4s.2.2.2.2c0,0,.1.2.4.5.2.2.2.3.4.5,0,.1.1.3.2.4,0,.1.1.3.2.4,0,.1.1.2.1.3s0,.2.2.5.1.4,0,.5v.7c0,.1,0,.3-.1.4,0,0,0,.1-.1.2"/>
    <path class="st6" d="M111.5,319.5c.4.3.8.5,1.1.7.3.2.7.5,1.1.8s.7.6,1,.8.5.4.7.7.4.5.7.7.4.4.5.6c0,.2.3.5.8.9s.6.6.4.5c-.2,0,0,.3.8,1s1,1.1.7,1q.3.5.6,1l.3.5c.1.3.3.7.5,1,.1.4.3.8.4,1.1,0,.3.2.6.3.9,0,.1,0,.3,0,.5,0,.3.1.7.2,1,0,.1,0,.3,0,.5,0,.1,0,.3,0,.5v1.3c0,.3-.1.6-.2.9,0,.1,0,.3,0,.4,0,.3-.2.5-.3.8-.1.2-.2.4-.3.7,0,.1-.1.2-.2.3-.1.2-.3.4-.5.6,0,0-.2.2-.3.3"/>
    <path class="st6" d="M119.7,322.6c-.1-.1-.3-.3-.4-.5-.1-.2-.3-.4-.4-.7q-.2-.3-.3-.6c0-.2-.1-.4-.2-.6s0-.4,0-.6v-.6c0-.2,0-.3,0-.3v-.3c0-.2,0-.3,0-.2,0-.1,0-.2,0-.3s.1-.2.2-.4c.8-1,1.6-2,2.5-3,0,0,.1-.1.2-.2,0,0,.1,0,.2-.2,0,0,.2,0,.3-.2.1,0,.2,0,.3-.1h1.3c.1,0,.2,0,.3.1.1,0,.2,0,.3.1.1,0,.2.1.3.2.1,0,.2.1.3.2.1,0,.2.2.3.3.1.1.2.2.3.3,0,.1.2.3.3.4l.2.4c0,.1.1.3.2.4,0,.1,0,.3.2.4,0,.1,0,.3,0,.4v2.4c0,.1-.1.3-.2.4,0,.1-.1.3-.2.4"/>
    <path class="st6" d="M126,320.6h0c0-.1-.1-.1-.2-.2,0,0,0,0,0,0h0"/>
    <path class="st6" d="M123.5,323.6c0,0-.2.2-.3.3-.1.1-.2.2-.3.2,0,0-.2,0-.4.1h-.7c0,0-.2,0-.4-.2s-.3-.2-.3-.2c0,0-.2-.1-.5-.3s-.5-.3-.5-.4c0,0-.1-.2-.4-.4"/>
    <path class="st6" d="M119.7,322.3c.1.1.2.3.3.4,0,.1.2.2.3.3.1,0,.3.2.4.3.1.1.2.2.2.1,0,0,0,0,.3.2"/>
    <path class="st6" d="M121.4,323.6h1q0,0,.2-.1s0,0,.2-.1c.1,0,.2-.1.2-.2s.3-.5,1-1.2"/>
    <path class="st6" d="M119.7,322.3c-.1-.1-.2-.3-.3-.4,0-.1-.2-.3-.3-.4l-.2-.4c0-.1-.1-.3-.2-.5,0-.2-.1-.4-.2-.6s0-.4,0-.5v-.8"/>
    <path class="st6" d="M125.6,319.9c0-.1,0-.2,0-.3s0-.2,0-.5v-1.6c0-.2,0-.3,0-.4s0-.2,0-.4,0-.4-.3-.6c-.2-.2-.3-.4-.3-.5s0-.2-.2-.3-.2-.2-.3-.3c0-.1-.2-.2-.4-.3s-.3-.1-.3-.2-.2-.1-.5-.2-.4,0-.3,0,0,0-.5,0-.6,0-.3,0,.2,0-.2,0-.5,0-.3.1.1.2-.2.2-.4.1-.3.3"/>
    <path class="st6" d="M121.1,314.4h0v.2"/>
    <path class="st6" d="M118.8,317.8h0c0-.2,0-.2,0-.2,0,0,0,0,0-.1"/>
    <path class="st6" d="M131.3,294.1v-1.9c0,0,0-.2-.1-.3,0-.1-.1-.3-.2-.6s-.1-.4-.2-.3c0,0-.2-.1-.3-.5-.1-.4-.3-.6-.4-.5q-.1-.1-.2-.2c0,0-.1-.1-.2-.2,0,0-.2-.2-.5-.4s-.4-.3-.5-.4"/>
    <path class="st6" d="M121.5,307.3c.3.2.7.4,1.1.7.4.3.7.5,1,.8.3.3.6.5,1,.8.4.3.7.6.9.9s.5.6.9.9c.4.3.5.4.4.5-.1,0,.1.4.8,1,.7.6.9.9.8,1s.1.4.7,1,.8.9.6,1,0,.4.5,1.1.7,1,.4,1c-.3,0-.2.3.3,1l.2,1c0,.3.1.7.2,1v1"/>
    <path class="st6" d="M121.4,307.4c.3.2.6.4.9.6s.5.4.7.5.5.4,1,.8.6.5.5.4c-.1-.1,0,0,.7.6s.9.8.8.8.2.3.9.9c.7.6.9.9.8,1s.1.4.8,1c.7.6.9.9.6.9s-.1.2.4.6.7.7.6,1c-.1.3,0,.5.3.7.3.2.4.5.3.8-.1.3,0,.5.2.6.3,0,.4.4.3.9,0,.5,0,.7.1.5s.2.1.2,1c0,.9,0,1.2,0,.9v1.4c0,.2,0,.5-.1.8,0,.3-.1.5-.1.4s0,0-.1.4c0,.3-.1.5-.2.6s-.2.2-.3.5c-.1.3-.2.4-.2.3s0,0-.2.3"/>
    <path class="st6" d="M128.6,306.7h0s0,0,.1.1c.1.1,0,0,0,0h0"/>
    <path class="st6" d="M131.3,294.1c0,0,0-.2.2-.3.1-.1.2-.2.1-.3,0,0,0-.2,0-.3,0-.1,0-.2,0-.3,0,0,0-.2,0-.4s0-.3,0-.4c0,0,0-.2-.1-.4s0-.3-.2-.4c-.1,0-.2-.2-.2-.4s0-.3-.2-.4c-.1,0-.2-.2-.3-.4s-.2-.3-.3-.4c-.1,0-.2-.2-.3-.3,0-.1-.2-.2-.4-.3-.2,0-.3-.2-.4-.3,0-.1-.2-.2-.4-.3"/>
    <path class="st6" d="M130.5,326.1c0-.1.1-.3.2-.4,0-.2.1-.2.2-.4,0-.3.2-.5.3-.8s.2-.4.1-.5c0,0,0-.2,0-.4q0-.4.1-.9v-.9"/>
    <line class="st6" x1="87.7" y1="285.6" x2="86.9" y2="286.5"/>
    <line class="st6" x1="71.6" y1="290.1" x2="71.6" y2="290"/>
    <polyline class="st6" points="77.8 291 77.7 291 77.6 291 77.5 291"/>
    <line class="st6" x1="71.5" y1="291.3" x2="71.6" y2="291.4"/>
    <polyline class="st6" points="72.5 291.8 74.1 287.2 71.6 290.1 71.3 291 71.2 290.8 71.2 290.9 71.2 290.7"/>
    <polyline class="st6" points="71.5 291.3 71.3 291.1 71.4 291.2 71.3 291"/>
    <line class="st6" x1="71.3" y1="290.6" x2="71.3" y2="290.7"/>
    <polyline class="st6" points="80.4 288.1 80.3 288 80.2 288 80.1 288.1 77.5 291"/>
    <line class="st6" x1="71.3" y1="290.7" x2="71.3" y2="290.7"/>
    <line class="st6" x1="71.4" y1="291.2" x2="71.4" y2="291.2"/>
    <line class="st6" x1="80.3" y1="287.6" x2="80.3" y2="287.7"/>
    <line class="st6" x1="74.1" y1="287.2" x2="74.2" y2="287.1"/>
    <polyline class="st6" points="85.4 284.1 88.3 280.8 88.3 280.8 88.4 280.8 88.6 280.8 88.7 280.8 88.7 280.8 88.8 280.8 88.7 280.7 88.5 280.7 88.4 280.7 88.3 280.8"/>
    <line class="st6" x1="76.9" y1="291.5" x2="76.9" y2="291.5"/>
    <line class="st6" x1="80.4" y1="288.1" x2="77.8" y2="291"/>
    <polyline class="st6" points="80.2 287.8 80.3 287.8 80.1 288.1 80.2 287.8 80.2 287.9"/>
    <line class="st6" x1="80.1" y1="288.1" x2="80.2" y2="288"/>
    <polyline class="st6" points="80.3 287.7 80.3 287.8 80.3 287.6"/>
    <line class="st6" x1="80.4" y1="287.5" x2="80.4" y2="287.6"/>
    <line class="st6" x1="80.3" y1="287.7" x2="80.3" y2="287.7"/>
    <polyline class="st6" points="87.5 295 88 294.4 111.6 309.7 111.6 310 111 310.6 87.4 295.3 87.5 295 111.1 310.4 111 310.6"/>
    <polyline class="st6" points="87.9 285.5 87.8 285.5 87.7 285.6 121.4 307.4 121.5 307.3 121.5 307.3 87.9 285.5"/>
    <polyline class="st6" points="126.9 311.9 128.9 307.1 128.9 307 128.9 306.8 128.9 306.7 128.8 306.6 128.7 306.6 128.6 306.7 88.7 280.8 85.7 284.2"/>
    <polyline class="st6" points="88.7 299.9 88.7 299.9 88.7 299.7 89.3 299.1 106.2 310.1 106.1 310.3 105.6 310.9 88.7 299.9"/>
    <polyline class="st6" points="88.7 299.7 105.7 310.7 105.6 310.9"/>
    <line class="st6" x1="88.8" y1="280.8" x2="128.8" y2="306.6"/>
    <polyline class="st6" points="94 295.7 92.9 294.9 92.9 294.7 109.8 305.7 109.7 305.9 94 295.7"/>
    <polyline class="st6" points="92.9 294.7 93.5 294.1 110.3 305.1 109.8 305.7"/>
    <line class="st6" x1="105.9" y1="276.4" x2="105.7" y2="276.5"/>
    <line class="st6" x1="110.3" y1="276.8" x2="110.1" y2="277"/>
    <line class="st6" x1="110.1" y1="277" x2="100.5" y2="288.3"/>
    <line class="st6" x1="119.8" y1="339.5" x2="119.8" y2="339.5"/>
    <line class="st6" x1="105.7" y1="310.7" x2="106.2" y2="310.1"/>
    <polyline class="st6" points="109.7 305.9 110.3 305.2 110.3 305.1"/>
    <polyline class="st6" points="110.3 276.8 128.7 288.6 128.5 288.8 111.1 277.6 110.1 277 110.1 277"/>
    <polyline class="st6" points="131.2 294.4 131.3 294.1 131.2 294.2"/>
    <polyline class="st6" points="111.2 319.9 111.3 319.7 111.5 319.5"/>
    <line class="st6" x1="111.1" y1="310.4" x2="111.6" y2="309.7"/>
    <polyline class="st6" points="125.5 320.2 125.4 320.3 122.9 323.3 123 323.3 123.1 323.3 123.3 323.3 123.4 323.5 123.5 323.6"/>
    <line class="st6" x1="119.7" y1="322.3" x2="119.7" y2="322.3"/>
    <line class="st6" x1="121.4" y1="323.7" x2="121.4" y2="323.6"/>
    <line class="st6" x1="118.4" y1="318.7" x2="118.3" y2="318.8"/>
    <line class="st6" x1="121.2" y1="314.8" x2="118.7" y2="320.8"/>
    <polyline class="st6" points="118.4 318.4 118.4 318.4 118.6 318.1 118.8 317.9 118.3 318.9"/>
    <polyline class="st6" points="121.2 314.7 121.2 314.8 118.8 317.9 118.8 317.8"/>
    <line class="st6" x1="118.4" y1="318.4" x2="118.4" y2="318.4"/>
    <polyline class="st6" points="118.4 318.4 118.4 318.7 118.4 318.5"/>
    <line class="st6" x1="118.6" y1="318" x2="118.4" y2="318.6"/>
    <line class="st6" x1="118.5" y1="318.3" x2="118.5" y2="318.3"/>
    <polyline class="st6" points="128.5 288.8 128.5 288.8 119 300.3"/>
    <polyline class="st6" points="120.3 338.9 130 326.8 129.9 326.9"/>
    <line class="st6" x1="131.5" y1="321.9" x2="131.5" y2="321.7"/>
    <line class="st6" x1="120.6" y1="308.4" x2="121.4" y2="307.4"/>
    <line class="st6" x1="123.5" y1="323.6" x2="126" y2="320.6"/>
    <line class="st6" x1="122.4" y1="323.7" x2="122.5" y2="323.7"/>
    <polyline class="st6" points="123.8 303.4 131 294.6 131 294.6"/>
    <line class="st6" x1="124.6" y1="321.3" x2="125.4" y2="320.3"/>
    <line class="st6" x1="125.7" y1="319.7" x2="125.6" y2="320"/>
    <polyline class="st6" points="125.6 319.9 125.5 320.1 125.3 320.3"/>
    <line class="st6" x1="125.4" y1="320.2" x2="125.4" y2="320.2"/>
    <line class="st6" x1="125.6" y1="310.5" x2="128.6" y2="306.7"/>
    <polyline class="st6" points="128.9 307 128.9 307.1 125.9 310.8"/>
    <line class="st6" x1="127.4" y1="310.6" x2="128.9" y2="307.1"/>
    <line class="st6" x1="131.2" y1="294.4" x2="131" y2="294.6"/>
    <path class="st6" d="M59.8,299"/>
    <path class="st6" d="M60.1,302.1c0-1.9.2-4.4,1.5-5.7"/>
    <g>
      <polygon class="st6" points="111.4 327.2 111.8 328.5 108.5 336.4 83.9 366.9 83.8 366.2 86.1 360.7 86 357.5 111.1 326.9 111.4 327.2"/>
      <polygon class="st6" points="47.3 333.8 47.3 334.3 45.1 336.8 45.1 335.7 46 333.4 47.3 333.8"/>
      <path class="st6" d="M82.1,367.1h0c0,.1,0,.1,0,.1,0,0-.1,0-.2,0,0,0-.1,0-.2,0h-.2c0,0-.1-.1-.2-.1s-.1,0-.2-.1"/>
      <path class="st6" d="M62.1,355.5c-6.1-4-12.3-8-18.4-12.1,0,0-.2-.1-.3-.2-.1,0-.2-.1-.3-.2,0,0-.1-.1-.2-.2,0,0-.1-.2-.2-.3,0-.1-.1-.2-.2-.3,0,0-.1-.2,0-.3,0-.1,0-.2,0-.3,0,0,0-.2,0-.3,0-.1,0-.2,0-.2,0,0,0,0,0-.2,0-.1,0-.2,0-.2.9-2.6,1.8-5.2,2.7-7.7q0-.1,0-.2s0,0,0-.2c0,0,0,0,.2-.1h1.3c0,0,.2,0,.3.1.1,0,.2,0,.3.1.1,0,.2.1.3.2"/>
      <path class="st6" d="M47.5,332.9c12.5,8.2,24.9,16.4,37.3,24.5,0,0,.2.1.3.2.1,0,.2.1.3.2,0,0,.2.1.3.2.1,0,.2.2.2.3,0,.1,0,.2.2.3.1,0,.2.2,0,.3,0,.1,0,.2,0,.3.1,0,.1.2,0,.3-.1.1-.1.2,0,.2.1,0,.1,0,0,.2-.1.1-.1.2,0,.2-1,2.5-2,5-3.1,7.5,0,0,0,0,0,.2,0,0,0,0,0,.1,0,0-.1,0-.2.1h-1.3c-.1,0-.2,0-.3-.1-.1,0-.2,0-.3-.1-.1,0-.2-.1-.3-.2-6.1-4.1-12.3-8.1-18.5-12.2"/>
      <path class="st6" d="M62.4,354.9c6.2,4.1,12.4,8.1,18.5,12.2,0,0,.1,0,.2.1s.1.1.2.1h.4"/>
      <path class="st6" d="M62.4,354.8c-6.1-4-12.3-8-18.4-12.1,0,0-.1,0-.2-.1,0,0-.1-.1-.2-.2,0,0-.1-.1-.2-.2,0,0,0-.1,0-.2"/>
      <path class="st6" d="M81.7,367.3c0,0,.1,0,.2,0,0,0,0,0,0,0h0"/>
      <path class="st6" d="M82.2,367c1-2.5,2-5,3.1-7.5h0v-.7c0,0,0-.1,0-.2,0,0-.1-.1-.2-.2,0,0-.1-.1-.2-.2,0,0-.1,0-.2-.1-1.9-1.2-3.7-2.4-5.6-3.7"/>
      <path class="st6" d="M78.9,354.4c-10.6-6.9-21.2-13.9-31.7-20.8,0,0-.1,0-.2-.1s-.1,0-.2,0-.1,0-.2,0h-.4c-.1,0-.2,0,0,0"/>
      <path class="st6" d="M46,333.7c-.9,2.6-1.8,5.2-2.7,7.7h0v.7"/>
      <path class="st6" d="M62.4,354.8c-6.1-4-12.3-8-18.4-12.1,0,0-.1,0-.2-.1,0,0-.1-.1-.2-.2l-.2-.2c0,0,0-.1,0-.2s0-.1,0-.2,0-.1,0-.2v-.2h0c0-.2.5-1.5,1.4-4.1"/>
      <path class="st6" d="M45.1,332.6c8.8-10.2,17.6-20.4,26.4-30.6,0,0,0,0,.2-.1.1,0,.2,0,.2,0s0,0,.2,0c.1,0,.2,0,.3,0,0,0,.2,0,.3,0,.1,0,.2,0,.3,0,0,0,.2.1.3.1s0,0,.3.1c.1,0,.2,0,.3.2,12.1,7.9,24.3,15.8,36.5,23.7,0,0,.2,0,.3.2q0,.1.3.2c0,0,.1.1.2.2,0,0,.1.1.2.2,0,0,.1.2.2.3,0,0,0,.2.2.3,0,0,0,.2,0,.3v.9c-1.1,2.5-2.1,5.1-3.2,7.6,0,0,0,.1,0,.2-8.5,10.5-16.9,20.9-25.3,31.4"/>
      <path class="st6" d="M60.6,304.3c0-.3-.1-.6-.2-.9,0-.3,0-.5,0-.5,0,0,0-.2,0-.7"/>
      <path class="st6" d="M60.1,302.1v.7c0,.1,0,.3,0,.5l.2.9"/>
      <path class="st6" d="M77.5,297.8c11.3,7.3,22.5,14.6,33.8,21.9.3.2.5.4.8.5.3.1.5.3.8.6s.5.5.8.6c.3.1.6.4,1,.9s.7.8,1,.9c.3.1.6.4.9.9.3.5.6.8.8,1,.2.2.5.5.8,1,.3.5.6.8.7,1s.3.5.5.8c.2.3.4.7.6,1s.4.7.5,1,.3.7.4,1,.2.7.3,1c0,.3.1.7.2,1,0,.3,0,.7,0,1s0,.6,0,.9c0,.3,0,.5,0,.7,0,.2,0,.4,0,.7,0,.3,0,.5-.2.8-.1.3-.2.5-.3.8,0,.3-.1.4-.2.4s-.1,0-.2.3-.1.3-.2.3-.1,0-.2.3-.2.3-.3.3-.2,0-.3.3-.2.3-.3.3-.2,0-.3.2-.3.3-.7.4-.7.3-.8.4-.3.2-.6.2c-.3,0-.5,0-.6.2-.1.1-.4.2-.9.2-.5,0-.8,0-.9,0h-1c-.3,0-.7,0-1,0-.3,0-.7,0-1.1-.2-.6-.2-4-1.1-5.2-1.9"/>
      <path class="st6" d="M85.4,319.6c-.3-.2-.7-.4-1-.6-.3-.2-.4-.2,0-.1.3.1.2.1,0-.1-.3-.2-.3-.2,0-.1.3.1.3,0,0-.2h0v-.3h0c0-.1,0-.2.2-.3s.2-.2,0-.1,0,0,0,0,.2,0,.2,0,0,0,.2,0,.2,0,.2,0,0,0,.2,0,.2,0,.2,0"/>
      <path class="st6" d="M85.5,317.7c1.3.8,2.5,1.6,3.7,2.4,0,0,0,0,0,.1s0,.1,0,.1v.2c0,.1,0,.2,0,.1h0v.3h0c0,.1,0,.2-.2.4-.1.2-.2.2,0,.1s0-.1,0,0-.2.1-.2,0c0-.1,0-.1-.2,0s-.2.1-.2,0c0-.1,0-.1-.2,0s-.2.1-.2,0c0-.1-.9-.7-2.8-1.8"/>
      <path class="st6" d="M89.5,321h0v-.3h0c0-.1,0-.1,0-.2s0,0,0-.1"/>
      <path class="st6" d="M89.1,320.3c-1.3-.8-2.5-1.6-3.7-2.4h-1c-.1,0-.2,0,0,0s0,0,0,.1-.2.2-.2.3"/>
      <polyline class="st6" points="83.9 363 83.8 363.1 82.2 367 82.1 367.1"/>
      <polyline class="st6" points="80.9 367 62.4 354.8 62.1 355.5"/>
      <line class="st6" x1="62.2" y1="355.6" x2="62.4" y2="354.9"/>
      <line class="st6" x1="81.7" y1="367.3" x2="81.8" y2="367.3"/>
      <line class="st6" x1="43.3" y1="342.1" x2="43.4" y2="342"/>
      <line class="st6" x1="82.2" y1="367.1" x2="82.2" y2="367"/>
      <polyline class="st6" points="46.1 333.5 46 333.5 46 333.7"/>
      <line class="st6" x1="44.7" y1="337.4" x2="83.8" y2="363.1"/>
      <line class="st6" x1="44.7" y1="337.4" x2="47.7" y2="333.9"/>
      <line class="st6" x1="45.9" y1="332.4" x2="72.3" y2="301.8"/>
      <polyline class="st6" points="61.6 306.9 61.8 307.3 61.4 306.4 61.6 306.8"/>
      <polyline class="st6" points="61.1 305.9 61.4 306.4 60.9 305.3 60.6 304.3 60.8 304.8"/>
      <polyline class="st6" points="62.1 307.9 61.8 307.3 61.9 307.4"/>
      <line class="st6" x1="60.8" y1="304.9" x2="61.1" y2="305.8"/>
      <line class="st6" x1="62.1" y1="355.5" x2="62.3" y2="355.3"/>
      <line class="st6" x1="62.5" y1="354.9" x2="62.4" y2="354.9"/>
      <polyline class="st6" points="63.6 323.2 67.5 318.7 67.8 318 75.6 323.1 71.2 328.2 63.4 323.1 67.8 318"/>
      <polyline class="st6" points="62.8 308.9 62.5 308.5 63.1 309.4 64 310.6 63.8 310.4"/>
      <line class="st6" x1="62.8" y1="308.9" x2="63.1" y2="309.4"/>
      <line class="st6" x1="63.1" y1="309.4" x2="63.4" y2="309.9"/>
      <line class="st6" x1="63.5" y1="309.9" x2="63.8" y2="310.4"/>
      <polyline class="st6" points="64.1 310.7 64 310.6 64.1 310.7"/>
      <line class="st6" x1="61.9" y1="307.4" x2="62.4" y2="308.4"/>
      <polyline class="st6" points="62.2 307.9 62.5 308.5 62.4 308.4"/>
      <line class="st6" x1="67.5" y1="318.7" x2="75.1" y2="323.6"/>
      <line class="st6" x1="82.1" y1="367.1" x2="82.3" y2="366.9"/>
      <polyline class="st6" points="87.2 330.6 82.9 335.8 90.8 341 95 335.8 87.2 330.6 86.9 331.3 83.1 335.9"/>
      <line class="st6" x1="84.8" y1="317.7" x2="84.9" y2="317.5"/>
      <line class="st6" x1="86.1" y1="358.8" x2="111.6" y2="327.4"/>
      <line class="st6" x1="86.9" y1="331.3" x2="94.6" y2="336.4"/>
      <line class="st6" x1="89.4" y1="320.8" x2="89.5" y2="320.5"/>
    </g>
  </g>
  <g id="Assoziationslinie">
    <g>
      <line class="st2" x1="186.6" y1="199.2" x2="188" y2="197.5"/>
      <line class="st1" x1="191.7" y1="193" x2="222.5" y2="155.8"/>
      <line class="st2" x1="224.4" y1="153.5" x2="225.8" y2="151.8"/>
    </g>
  </g>
  <g id="Pfeil">
    <polygon class="st4" points="170.6 237.3 179.9 244.7 183.3 202.7 141.7 216 152 222.6 124.4 256.3 144.3 270.3 170.6 237.3"/>
  </g>
  <path class="st0" d="M128.6,289.6v2.1l-10.7,13.4-.8.2-.8-.5v-1l3.2-3.5-.5-1.1,8.7-10.9h.2l.8,1.2h0ZM124,316.8v1.3l-3.5,11.5-55.9,69-1.5.2,2.5-8.4v-.9l-.4-.8v-1l2.3-3.1,1.4-2.1,54.3-66.8h.2l.7,1.2h0ZM4.8,393.6l-2.3,2.8v-1.2l.7-2.4h.4l1.2.8h0ZM59.9,383.9l-2.4,7.9-2.4,3.3-20.1,24.7v-1.6l1.9-6.8,22.5-27.7.6.3h0Z"/>
  <g id="Actor_.0">
    <g>
      <path class="st7" d="M129.9,308.2l-4.3,5.3v-.7l-.2-.4-.3-.4-.4-.3-7.2-5.1-.6-.4-6.7-4.4-7.4-4.6-7.5-4.3-7.6-4-7.6-3.7-.4-.2h-.7l-.3.2"/>
      <path class="st7" d="M78.6,285.7l4.3-5.3v-.3"/>
      <path class="st7" d="M82.9,280.4l-2.5,8.6"/>
      <path class="st7" d="M80.1,285.4l4.3-5.3"/>
      <path class="st7" d="M126.6,319.5l-4,4.9"/>
      <path class="st7" d="M123.4,321.9l1.7-2.1-.9-.4"/>
      <path class="st7" d="M125.6,313.5l-1.4,4.9"/>
      <path class="st7" d="M125.1,319.8h.4c0,.1.4.2.4.2h.3l.2-.2"/>
      <path class="st7" d="M124.7,311.8l4.3-5.3"/>
    </g>
    <path class="st5" d="M78,287.7l.6-2.1v-.3c0,0,4.4-5.3,4.4-5.3l.3-.2h.7l.4.2,7.6,3.7.3.2,7.2,3.8,7.5,4.3,7.4,4.6,7,4.6.3.2,7.2,5.1.4.3.3.3.2.4v.7l-3.3,11.2v.3c0,0-4,4.8-4,4.8"/>
  </g>
  <g id="Actor_.1">
    <g>
      <path class="st7" d="M75.1,287.6h0"/>
      <path class="st7" d="M76.5,287.1l.7-2.3.3-.5"/>
      <path class="st7" d="M80.1,284.2l-2.9,3.6-.8-.3h-.8"/>
      <path class="st7" d="M77.3,287.8l7.7,3.7,7.7,4,7.6,4.3,7.5,4.6,7.4,4.9,7.2,5.1.7.6"/>
      <path class="st7" d="M75.1,287.4l2.1-2.6"/>
      <path class="st7" d="M121.2,328.7l2.5-3.1"/>
      <path class="st7" d="M120.8,329.2l3.1-10.7"/>
      <path class="st7" d="M123.5,326.1l-.5.3h-.6c0,.1-.4,0-.4,0"/>
      <path class="st7" d="M124.1,318h0"/>
      <path class="st7" d="M124.2,317.3l-.2-.7-.4-.7-.6-.7"/>
      <path class="st7" d="M125.2,310.9l-2.8,3.4"/>
      <path class="st7" d="M124.2,317.8l2.8-3.4"/>
    </g>
    <path class="st5" d="M75,287.3l2.4-3,.5-.3h.7c0-.1.8,0,.8,0l.8.3,7.7,3.7,7.6,4,7.6,4.3,7.5,4.6,7.4,4.9,7.3,5.1.7.6.6.7.4.7.2.7v.6l-3.4,11.2-.3.5-2.3,2.8"/>
  </g>
  <g id="Actor_.2">
    <g>
      <path class="st7" d="M12.5,371.9l2.9-3.6v1.3c.1,0,.5.7.5.7l.6.7.7.6-2.9,3.6"/>
      <path class="st7" d="M15.4,368.3l3.3-11.3-2.9,3.6"/>
      <path class="st7" d="M18.4,372.5l-1.2-.8"/>
      <path class="st7" d="M65.2,397.8l-2.9,3.6,3.3-11.3v-1.3c0,0-.5-.7-.5-.7l-.6-.7-.7-.6-7.3-5.1-7.4-4.9-7.5-4.6-7.6-4.3-7.6-4-7.7-3.7-.8-.3h-1.4l-.5.3"/>
      <path class="st7" d="M18.8,360.1l2.9-3.6"/>
      <path class="st7" d="M18.7,357l.3-.5"/>
      <path class="st7" d="M59.3,402l2.9-3.6-6.9-3.3"/>
      <path class="st7" d="M62.3,401.4l-.3.5"/>
      <path class="st7" d="M62.2,398.4l.8.3h1.5l.5-.3"/>
      <path class="st7" d="M63.8,386.7l2.9-3.6"/>
      <path class="st7" d="M65.6,390.2l2.9-3.6"/>
    </g>
    <g>
      <path class="st5" d="M15.4,376.1l-1.2-.8-.7-.6-.6-.7-.4-.7-.2-.7h0v-.7l3.3-11.2.3-.5,2.9-3.6.5-.3"/>
      <path class="st5" d="M21.1,356.3h-.3"/>
      <path class="st5" d="M21.7,356.5l7.2,3.5"/>
      <path class="st5" d="M29.3,360.2l7.2,3.8"/>
      <path class="st5" d="M37,364.2l7.1,4.1"/>
      <path class="st5" d="M44.5,368.5l7,4.3"/>
      <path class="st5" d="M65.2,397.8l-.3.5-2.9,3.6-.5.3h-.6c0,.1-.8,0-.8,0l-.8-.3-6.9-3.4"/>
      <path class="st5" d="M52,373.1l6.9,4.6"/>
      <path class="st5" d="M59.4,378l6.8,4.8"/>
      <path class="st5" d="M68.5,386.6l-3.3,11.1"/>
      <path class="st5" d="M67.4,383.8l.3.4"/>
      <path class="st5" d="M66.7,383.2l.3.3"/>
      <path class="st5" d="M68.2,384.9l-.2-.4"/>
      <path class="st5" d="M68.4,385.2v.5"/>
      <path class="st5" d="M68.6,385.9v.4"/>
    </g>
  </g>
  <g id="Actor_.3">
    <g>
      <path class="st6" d="M18.9,356.5l.5-.3h.7c0-.1.7,0,.7,0l.8.3,7.7,3.7,7.7,4,7.6,4.3,7.5,4.6,7.4,4.9,7.3,5.1.7.6.6.7.4.7.2.7v.6l-3.3,11.2-.3.5"/>
      <path class="st6" d="M21.7,356.5l55.6-68.6"/>
      <path class="st6" d="M65.2,397.8l55.6-68.6"/>
      <path class="st6" d="M66.7,383.2l55.6-68.6"/>
      <path class="st6" d="M68.5,386.6l55.6-68.6"/>
    </g>
    <path class="st3" d="M18.4,372.5l-1.2-.8-.7-.6-.6-.7-.4-.7-.2-.7v-.6l.3-.7,3.1-10.6.3-.5,55.6-68.6.5-.3h.7c0-.1.8,0,.8,0l.8.3,7.7,3.7,7.7,4,7.6,4.3,7.5,4.6,7.4,4.9,7.2,5.1.7.6.6.7.4.7.2.7v.6l-3.3,11.2-.3.5-55.6,68.6-.5.3h-.7c0,.1-.8,0-.8,0l-.8-.3-6.9-3.3"/>
  </g>
  <g id="Actor_.4">
    <g>
      <path class="st6" d="M2,397.3l32.6,19.3"/>
      <path class="st6" d="M33.7,420.1l1-3.4"/>
    </g>
    <g>
      <path class="st3" d="M33.5,420L1,400.7l1-3.4"/>
      <path class="st3" d="M2.5,396.7l2.2-2.8"/>
    </g>
  </g>
  <g id="Actor_.5">
    <g>
      <path class="st6" d="M94.4,296.1l15.3-18.9"/>
      <path class="st6" d="M126.2,287l-15.5,19.1"/>
    </g>
    <path class="st3" d="M91.6,294.6l14.3-17.7.7-.4h2c0,.1,1.1.6,1.1.6l16.5,9.8,1,.7.8.9.6,1,.3,1v.8l-.4.7-13.5,16.7"/>
  </g>
  <g id="Actor_.6">
    <g>
      <path class="st6" d="M1.9,397.7l-.9,3,32.7,19.4"/>
      <path class="st6" d="M2,397.3l1.4-4.6"/>
      <path class="st6" d="M60.3,383.4l-23.4,28.9v-.3h0c0-.1-.2-.3-.2-.3h-.2c0-.1-33-19.7-33-19.7l23.4-28.9"/>
      <path class="st6" d="M3.3,392h-.4c0-.1-.2-.1-.2-.1h0"/>
      <path class="st6" d="M57.8,391.7l-23.4,28.9h0"/>
      <path class="st6" d="M36.8,412.4l-2.4,8.3"/>
      <path class="st6" d="M36.4,411.6l23.4-28.9"/>
    </g>
    <g>
      <path class="st3" d="M26.1,363.1l-23.4,28.9h0c0,.1-2.4,8.4-2.4,8.4h-.1v.5c.1,0,.2.2.2.2h.2c0,.1,33,19.7,33,19.7h.4c0,.1.3.1.3.1l23.4-29"/>
      <path class="st3" d="M3.3,392.6l32.7,19.4-1.3,4.6"/>
      <path class="st3" d="M33.7,420.1l1-3.2"/>
    </g>
  </g>
</svg>