<?xml version="1.0" encoding="utf-8"?>
<!-- Generator: Adobe Illustrator 27.7.0, SVG Export Plug-In . SVG Version: 6.00 Build 0)  -->
<svg version="1.1" xmlns="http://www.w3.org/2000/svg" xmlns:xlink="http://www.w3.org/1999/xlink" x="0px" y="0px"
	 viewBox="0 0 577.82 537.75" style="enable-background:new 0 0 577.82 537.75;" xml:space="preserve" width="350" >
<style type="text/css">
	.st0{fill:none;stroke:#000000;stroke-width:0.7202;stroke-linecap:round;stroke-linejoin:round;stroke-miterlimit:10;}
	.st1{fill:none;stroke:#000000;stroke-width:2;stroke-linecap:round;stroke-linejoin:round;}
	.st2{fill:none;stroke:#000000;stroke-width:2;stroke-linecap:round;stroke-linejoin:round;stroke-dasharray:6.1123,8.1497;}
	
		.st3{fill-rule:evenodd;clip-rule:evenodd;fill:#FFFFFF;stroke:#1D1D1B;stroke-width:1.2759;stroke-linecap:round;stroke-linejoin:round;stroke-miterlimit:10;}
	.st4{fill:none;stroke:#1D1D1B;stroke-width:0.75;stroke-miterlimit:10;}
</style>
<g id="VitalControl">
	<polyline class="st0" points="576.53,1.55 539.25,47.08 537.21,49.07 534,53.43 344.1,284.14 331.48,294.69 317.96,300.81 
		304.86,302.79 293.91,302.79 286.8,302.34 286.17,301.92 	"/>
	<line class="st0" x1="545.77" y1="33.5" x2="549.31" y2="16.35"/>
	<polygon class="st0" points="257.17,172.8 258.33,173.65 256.15,174.02 236.78,219.66 242.54,221.71 249.17,225.67 249.14,227.43 
		244.89,236.82 244.07,236.87 235.53,231.23 234.54,230.27 228.79,232.76 220.22,235.82 218.69,235.82 244.41,174.38 249.4,171.8 
		253.65,171.8 	"/>
	<polygon class="st0" points="259.72,174.33 258.73,174.36 258.33,173.65 259.27,173.82 	"/>
	<polygon class="st0" points="263.77,176.85 262.67,176.85 262.53,176.31 263.21,176.31 	"/>
	<polygon class="st0" points="267.8,179.37 266.69,179.37 266.55,178.81 267.23,178.81 	"/>
	<polygon class="st0" points="271.83,181.87 270.72,181.87 270.61,181.33 271.26,181.33 	"/>
	<polygon class="st0" points="275.85,184.39 274.75,184.39 274.63,183.85 275.31,183.85 	"/>
	<polygon class="st0" points="279.88,186.92 278.77,186.92 278.66,186.38 279.34,186.38 	"/>
	<polygon class="st0" points="283.9,189.44 282.83,189.44 282.69,188.9 283.37,188.9 	"/>
	<polygon class="st0" points="287.93,191.96 286.85,191.96 286.71,191.4 287.39,191.4 	"/>
	<polygon class="st0" points="291.96,194.49 290.88,194.49 290.74,193.92 291.42,193.92 	"/>
	<polygon class="st0" points="296.01,196.98 294.91,196.98 294.76,196.44 295.44,196.44 	"/>
	<polygon class="st0" points="270.75,197.52 266.04,203.59 264.68,203.64 263.38,202.43 263.66,199.16 265.5,196.47 268.76,196.5 	
		"/>
	<polygon class="st0" points="300.04,199.51 298.93,199.51 298.82,198.97 299.47,198.97 	"/>
	<polygon class="st0" points="304.06,202.03 302.96,202.03 302.84,201.49 303.52,201.49 	"/>
	<polygon class="st0" points="267.46,194.83 265.53,195.48 263.15,198.14 263.09,202.2 263.38,202.43 263.18,203.7 261.99,204.55 
		260.54,204.75 259.66,203.08 259.66,200.7 260.14,197.63 262.53,195 264.03,194.49 267.32,194.54 	"/>
	<polygon class="st0" points="308.09,204.55 306.98,204.55 306.87,204.01 307.55,204.01 	"/>
	<polygon class="st0" points="312.12,207.08 311.01,207.08 310.9,206.51 311.58,206.51 	"/>
	<polygon class="st0" points="314.75,208.95 313.5,208.55 313.42,208.04 314.04,208.01 	"/>
	<polygon class="st0" points="316.14,209.6 315.15,209.63 314.75,208.95 315.69,209.09 	"/>
	<polygon class="st0" points="317.5,210.56 318.07,210.65 318.18,211.21 317.59,211.13 	"/>
	<polygon class="st0" points="298.53,215.1 298.51,215.78 297.83,216.26 296.75,216.32 297.2,215.01 298.05,214.62 	"/>
	<polygon class="st0" points="301.48,216.57 300.97,220.88 300.26,216.09 301,215.67 	"/>
	<polygon class="st0" points="289.38,292.22 288.81,292.79 287.42,292.73 284.41,290.15 224.93,252.35 223.77,252.38 215.72,254.96 
		211.83,254.93 209.79,252.44 208.23,249.89 208.29,248.87 211.38,252.64 214.33,246.54 214.7,245.35 215.32,245.27 	"/>
	<path class="st0" d="M271.71,198.03c-0.03,0.17-0.03,0.17-0.06,0.37c-0.11,0.34-0.11,0.34-0.23,0.71c-0.09,0.23-0.09,0.23-0.2,0.48
		"/>
	<polyline class="st0" points="271.29,196.5 270.92,196.95 268.08,195.88 265.53,196.19 263.94,197.78 263.24,199.42 263.07,201.86 
		264.31,204.52 266.64,206.68 293.06,223.24 295.9,224.31 298.48,224.06 300.09,222.5 300.86,220.88 301.26,220.37 	"/>
	<polyline class="st0" points="293.77,222.07 293.57,222.3 293.2,222.92 266.78,206.37 264.62,204.38 263.49,201.94 263.66,199.68 
		263.75,199.68 	"/>
	<polyline class="st0" points="266.78,206.37 267.18,205.74 265.19,203.96 264.17,201.72 264.31,199.68 264.14,199.68 	"/>
	<polyline class="st0" points="264.77,198.03 264.37,198.03 263.66,199.68 	"/>
	<polyline class="st0" points="264.82,198.03 265.02,198.03 264.31,199.68 264.54,199.39 	"/>
	<line class="st0" x1="263.94" y1="197.78" x2="264.4" y2="197.27"/>
	<polyline class="st0" points="264.37,198.03 265.82,196.58 268.17,196.3 270.78,197.29 273.47,198.99 270.78,197.29 	"/>
	<polyline class="st0" points="267.37,205.52 267.18,205.74 293.57,222.3 295.95,223.24 298.11,223.01 299.47,221.71 299.53,221.85 
			"/>
	<polyline class="st0" points="265.02,198.03 266.35,196.7 268.48,196.44 270.86,197.35 	"/>
	<line class="st0" x1="266.18" y1="197.46" x2="265.67" y2="198.06"/>
	<line class="st0" x1="267.52" y1="205.35" x2="271.4" y2="200.75"/>
	<polyline class="st0" points="272.45,200.36 276.87,203.13 276.73,203.47 276.56,203.56 276.31,203.56 276.08,203.47 
		276.22,203.13 271.43,200.16 271.29,200.47 271.15,200.36 271.06,200.21 271.06,200.07 271.2,199.73 271.23,199.59 272.45,200.36 	
		"/>
	<polyline class="st0" points="271.29,197.8 271.03,198.85 270.78,200.36 270.86,200.41 271.06,199.93 271.12,199.93 	"/>
	<polyline class="st0" points="270.86,200.41 296.75,216.63 296.72,216.6 	"/>
	<line class="st0" x1="271.29" y1="200.47" x2="276.08" y2="203.47"/>
	<polyline class="st0" points="271.2,199.73 271.2,199.87 271.29,200.02 271.43,200.16 	"/>
	<polyline class="st0" points="270.92,196.95 297.49,213.6 297.71,213.34 	"/>
	<polyline class="st0" points="271.66,198.4 297.66,214.67 297.09,215.16 271.43,199.11 	"/>
	<line class="st0" x1="271.06" y1="200.07" x2="271.06" y2="199.93"/>
	<polyline class="st0" points="276.22,203.13 276.48,203.25 276.7,203.25 276.87,203.13 	"/>
	<polyline class="st0" points="300.26,220.03 300.24,220.06 300.43,220.6 300.63,218.36 299.53,215.92 297.34,213.91 273.47,198.99 
			"/>
	<polyline class="st0" points="291.05,212.43 291.19,212.09 291.13,212.26 291.22,212.46 291.39,212.63 291.25,212.97 291.05,212.8 
		290.99,212.6 291.05,212.43 291.05,212.43 	"/>
	<polyline class="st0" points="291.25,212.97 296.04,215.98 296.18,215.64 296.38,215.72 296.55,215.75 296.72,215.72 
		296.58,216.03 296.72,215.98 296.49,216.46 	"/>
	<polyline class="st0" points="291.19,212.09 296.86,215.67 297.09,215.16 	"/>
	<polyline class="st0" points="293.2,222.92 295.81,223.92 298.17,223.66 299.67,222.24 299.53,221.88 	"/>
	<line class="st0" x1="294.03" y1="221.76" x2="299.04" y2="215.61"/>
	<line class="st0" x1="291.39" y1="212.63" x2="296.18" y2="215.64"/>
	<polyline class="st0" points="296.75,216.63 298.34,215.95 298.96,215.52 	"/>
	<polyline class="st0" points="296.58,216.03 296.41,216.09 296.21,216.06 296.04,215.98 	"/>
	<line class="st0" x1="296.86" y1="215.67" x2="296.72" y2="215.72"/>
	<line class="st0" x1="300.09" y1="222.5" x2="300.52" y2="221.99"/>
	<line class="st0" x1="299.67" y1="222.24" x2="300.43" y2="220.6"/>
	<polyline class="st0" points="299.47,221.71 300.24,220.06 300.43,218.02 299.41,215.84 	"/>
	<polyline class="st0" points="300.86,220.88 301.09,218.44 299.87,215.78 297.49,213.6 	"/>
	<line class="st0" x1="297.29" y1="213.88" x2="297.34" y2="213.94"/>
	<line class="st0" x1="297.66" y1="214.67" x2="298" y2="214.53"/>
	<line class="st0" x1="300.26" y1="222.3" x2="300.49" y2="221.99"/>
	<path class="st0" d="M213.33,255.45c-0.48-0.2-0.48-0.2-0.94-0.4c-0.34-0.2-0.34-0.2-0.71-0.43c-0.34-0.28-0.37-0.28-0.68-0.6
		c-4.05-6.52-4.17-6.46-8.05-13.04c-3.29-7.66-3.32-7.68-6.35-15.45c-1.64-7.63-1.5-7.66-2.98-15.34c-0.17-0.96-0.2-0.96-0.31-1.96
		c0.2-7.49,0.06-7.51,0.45-14.97c1.81-6.75,1.98-6.72,4-13.44c0.51-1.13,0.51-1.13,1.08-2.27c3.71-5.76,3.63-5.84,7.51-11.48
		c68.98-82.68,69.01-82.7,138.22-165.18"/>
	<path class="st0" d="M211.89,251.76c-4-6.75-4-6.78-7.74-13.69c-2.55-6.89-2.44-6.95-4.82-13.89c-0.17-0.85-0.14-0.85-0.26-1.7
		c-0.79-5.93-0.94-5.93-1.59-11.88c0.45-6.27,0.45-6.32,1.19-12.59c1.9-5.61,1.93-5.67,4.11-11.2c3.29-4.76,3.32-4.82,6.86-9.41
		c4.56-3.71,4.62-3.77,9.38-7.23c5.73-2.44,5.78-2.47,11.65-4.62"/>
	<path class="st0" d="M206.36,166.08c5.19-4.48,5.25-4.51,10.72-8.68c6.32-2.84,6.41-2.72,12.87-5.36c2.47-0.68,2.47-0.71,4.96-1.3
		c2.75-0.17,2.75-0.17,5.5-0.26c2.81,0.34,2.84,0.34,5.64,0.79c2.72,0.82,2.75,0.82,5.44,1.73"/>
	<path class="st0" d="M251.5,153.01c-1.36,1.36-1.36,1.36-2.75,2.69c-1.98,1.47-1.98,1.5-4,2.92c-4.45,2.58-4.45,2.61-8.99,5.1
		c-2.49,0.96-2.52,0.96-5.08,1.81"/>
	<path class="st0" d="M230.69,165.54c-0.79-1.67-0.79-1.7-1.56-3.4c-0.26-0.96-0.26-0.96-0.48-1.93c-0.14-0.99-0.14-0.99-0.26-1.98
		c0.14-1.81,0.17-1.81,0.37-3.63"/>
	<path class="st0" d="M226.12,236.45c-0.54-0.65-0.54-0.68-1.08-1.33c-0.45-0.65-0.45-0.65-0.94-1.33
		c-0.37-0.57-0.37-0.57-0.71-1.16c-0.2-0.43-0.2-0.43-0.4-0.88"/>
	<path class="st0" d="M338.14,232.73c1.76-0.11,1.76-0.11,3.54-0.23c0.99-0.2,0.99-0.2,1.96-0.43c0.99-0.28,0.99-0.28,1.98-0.62
		c1.76-0.82,1.76-0.79,3.49-1.67c1.19-0.91,1.22-0.91,2.35-1.87"/>
	<path class="st0" d="M340.21,208.27c-44.26-27.73-44.29-27.76-88.72-55.26"/>
	<path class="st0" d="M351.47,227.91c-0.71-2.69-0.71-2.69-1.5-5.36c-1.22-2.67-1.22-2.69-2.52-5.3c-1.64-2.47-1.64-2.47-3.35-4.85
		c-1.93-2.1-1.87-2.18-3.88-4.14"/>
	<path class="st0" d="M266.75,194.26c2.13,0.74,2.15,0.74,4.22,1.62c13.38,8.28,13.38,8.28,26.68,16.7c1.79,1.53,1.81,1.56,3.49,3.2
		"/>
	<path class="st0" d="M287.45,302.48c6.92,0.4,6.92,0.4,13.84,0.77c0.82-0.03,0.82,0,1.67-0.06c7.51-1.16,7.57-0.99,15-2.32
		c6.58-2.67,6.55-2.84,13.07-5.7c0.91-0.6,0.88-0.62,1.76-1.28c5.39-4.48,5.56-4.37,10.77-8.99c3.94-5.7,3.97-5.76,7.57-11.68
		c2.15-6.86,2.15-6.95,3.91-13.92c0.23-7.77,0.23-7.83,0.06-15.59c-1.62-7.91-1.64-7.97-3.63-15.79"/>
	<path class="st0" d="M336.64,219.69c0,3.52,0.03,3.54,0.17,7.06c0.6,2.98,0.65,2.98,1.33,5.98c1.7,7.09,1.87,7.09,3.43,14.2
		c0.28,6.69,0.31,6.72,0.28,13.41c-1.22,6.07-1.25,6.12-2.78,12.13c-2.64,5.25-2.67,5.3-5.61,10.41c-4,4.28-4.03,4.31-8.25,8.34
		c-5.19,3.03-5.27,3.06-10.63,5.81c-6.24,1.62-6.29,1.62-12.65,2.95c-7,0.11-7.06,0.11-14.06-0.06"/>
	<path class="st0" d="M534.4,0.89c-41.93,45.05-41.93,45.05-83.9,90.05c-55.12,58.69-55.26,58.58-110.29,117.32
		c-1.3,2.27-1.28,2.32-2.38,4.71c-0.68,3.32-0.65,3.35-1.19,6.72"/>
	<path class="st0" d="M343.56,284.9c96.91-117.18,96.94-117.24,193.31-234.87c4.54-7.88,4.51-8.02,8.51-16.22
		c2.13-9.24,2.1-9.36,3.71-18.71c-0.28-7.09-0.28-7.17-1.02-14.2"/>
	<path class="st0" d="M351.47,227.91c28.04-32.75,28.04-32.75,56-65.55c25.38-30.54,25.32-30.59,50.64-61.16
		c23.25-27.98,23.22-28.01,46.5-55.94c18.94-22.23,18.94-22.23,37.96-44.37"/>
	<polyline class="st0" points="211.01,254.03 211.89,251.76 213.25,252.24 214.55,252.07 214.44,254.28 216.43,254.62 
		214.84,255.25 213.33,255.45 	"/>
	<polyline class="st0" points="219.12,249.12 218.81,249.26 215.32,250.23 214.92,247.99 214.84,244.61 211.89,251.76 	"/>
	<polyline class="st0" points="230.69,165.54 244.38,174.1 243.45,175.66 218.07,236.85 220.56,234.41 223,231.74 246.25,176 
		243.45,175.66 	"/>
	<line class="st0" x1="228.76" y1="154.59" x2="229.95" y2="152.04"/>
	<line class="st0" x1="216.43" y1="254.62" x2="224.56" y2="252.07"/>
	<line class="st0" x1="214.84" y1="255.25" x2="224.85" y2="252.24"/>
	<polyline class="st0" points="214.55,252.07 215.32,250.23 217.84,248.75 220.62,249.55 214.84,244.61 291.25,292.98 
		288.47,293.27 	"/>
	<polyline class="st0" points="216.43,247.65 214.84,244.61 217.13,247.68 	"/>
	<line class="st0" x1="218.81" y1="249.26" x2="219.03" y2="249.09"/>
	<polyline class="st0" points="221.02,234.95 218.07,236.85 221.44,235.6 	"/>
	<polyline class="st0" points="322.72,221.59 322.35,223.6 296.21,277.99 294.51,278.27 291.42,277.7 292.52,281.56 294.91,285.41 
		218.07,236.85 226.12,236.45 	"/>
	<polyline class="st0" points="223,231.74 227.28,229.08 227.23,232.28 228.99,235.57 226.12,236.45 	"/>
	<polyline class="st0" points="287.76,294.17 287.56,296.02 291.25,292.98 287.53,291.99 220.62,249.55 	"/>
	<polyline class="st0" points="227.28,229.08 233.61,226.13 233.52,228.06 234.63,230.21 236.61,232 228.99,235.57 291.25,274.9 
		292.69,267.35 236.61,232 	"/>
	<polyline class="st0" points="293.35,281.53 294.91,285.41 323.65,225.82 324.19,224.03 323.68,215.84 319.06,209.29 318.1,211.02 
		318.27,211.3 318.1,211.21 258.08,173.73 257.82,173.42 258.73,171.61 250.99,170.42 244.38,174.1 245.51,174.75 246.99,174.78 
		246.25,176 251.41,173.7 230.23,224.23 234.46,221.56 238.85,220.83 	"/>
	<polyline class="st0" points="230.23,224.23 241.35,222.16 237.04,232.25 	"/>
	<polyline class="st0" points="230.35,224.17 233.86,221.14 237.8,219.75 238.26,220.6 243.76,222.53 243.64,221.93 237.8,219.75 
		256.97,174.41 254.11,173.39 251.41,173.7 252.26,172.6 	"/>
	<polyline class="st0" points="229.95,152.04 283.37,86.35 354.62,0.89 	"/>
	<polyline class="st0" points="243.64,221.93 294.71,254.08 294.74,254.62 298.62,258.39 300.15,262.87 299.58,267.98 
		299.95,262.42 	"/>
	<polyline class="st0" points="241.74,221.82 241.35,222.16 242.14,221.96 	"/>
	<line class="st0" x1="250.56" y1="226.78" x2="245.8" y2="237.78"/>
	<line class="st0" x1="294.74" y1="254.62" x2="243.76" y2="222.53"/>
	<polyline class="st0" points="246.99,174.78 252.06,172.54 258.08,173.73 	"/>
	<polyline class="st0" points="318.27,211.3 322.01,216.26 322.8,222.19 323.12,223.21 324.19,224.03 338.14,232.73 	"/>
	<line class="st0" x1="251.5" y1="153.01" x2="366.13" y2="0.89"/>
	<polyline class="st0" points="256.97,174.41 257.34,173.93 257.91,173.7 	"/>
	<polyline class="st0" points="263.18,198.68 259.92,198.74 259.66,202.4 261.51,206.34 264.99,209.54 266.38,207.33 	"/>
	<polyline class="st0" points="259.92,198.74 260.63,197.1 263.92,197.04 263.75,197.38 	"/>
	<polyline class="st0" points="260.63,197.1 262.98,194.71 266.75,194.26 	"/>
	<polyline class="st0" points="301.14,215.78 302.96,219.75 302.62,223.41 301.85,225.02 299.44,227.32 295.59,227.72 291.39,226.1 
		293.01,223.49 	"/>
	<line class="st0" x1="258.73" y1="171.61" x2="319.06" y2="209.29"/>
	<line class="st0" x1="263.92" y1="197.04" x2="264.62" y2="196.3"/>
	<line class="st0" x1="264.99" y1="209.54" x2="291.39" y2="226.1"/>
	<polyline class="st0" points="270.98,195.88 271.43,196.16 268.37,195 265.62,195.31 264.91,196.02 	"/>
	<line class="st0" x1="273.39" y1="197.38" x2="271.43" y2="196.16"/>
	<polyline class="st0" points="285.86,301.35 286.54,302.09 287.45,302.48 287.87,299.93 286.68,297.8 287.56,296.02 	"/>
	<path class="st0" d="M351.47,227.91"/>
	<polyline class="st0" points="286.68,297.8 285.63,299.42 285.69,301.35 286.48,302 	"/>
	<polyline class="st0" points="287.87,299.93 291.25,292.98 288.78,294.06 	"/>
	<polyline class="st0" points="285.63,299.42 285.38,298.34 286.31,291.28 	"/>
	<polyline class="st0" points="287.62,295.62 287.82,294.46 287.51,292.87 286.63,291.51 285.78,290.89 	"/>
	<polyline class="st0" points="292.69,267.35 295.08,268.35 297.23,268.23 298.53,267.04 297.34,273.31 294.96,275.04 291.25,274.9 
		291.42,277.7 	"/>
	<line class="st0" x1="288.7" y1="264.83" x2="293.8" y2="254.03"/>
	<polyline class="st0" points="294.11,281.53 294.91,285.41 295.33,281.64 297.34,273.31 	"/>
	<line class="st0" x1="299.41" y1="260.78" x2="295.84" y2="268.29"/>
	<polyline class="st0" points="294.71,254.08 299.56,258.62 298.62,258.39 	"/>
	<polyline class="st0" points="320.62,214.42 299.56,258.62 300.46,263.1 299.58,267.98 322.55,220.15 	"/>
	<polyline class="st0" points="301.85,225.02 300.86,222.3 300.75,222.41 	"/>
	<polyline class="st0" points="300.86,222.3 301.62,220.68 302.62,223.41 	"/>
	<polyline class="st0" points="301.48,217.17 301.88,218.02 301.62,220.68 	"/>
	<line class="st0" x1="301.43" y1="217" x2="300.66" y2="215.35"/>
	<polyline class="st0" points="323.65,225.82 322.72,224.97 322.35,223.6 322.8,222.19 	"/>
	<polyline class="st0" points="537.35,49.46 537.58,49.21 545.43,34.32 	"/>
	<line class="st0" x1="537.58" y1="49.21" x2="577.38" y2="0.89"/>
	<polyline class="st0" points="545.77,33.64 546.11,32.99 549.85,14.28 548.89,0.89 	"/>
</g>
<g id="Stick">
	<polygon class="st0" points="150.52,406.64 150.35,409.22 140.2,421.78 138.89,421.84 135.69,419.71 148.76,404.12 149.04,404.12 	
		"/>
	<polygon class="st0" points="66.82,403.78 71.72,398.59 74.25,397.6 76.49,397.6 73.4,406.3 71.72,406.7 70.42,406.7 67.84,406.19 
		66.85,405.65 	"/>
	<polygon class="st0" points="142.86,432.02 146.29,427.79 146.49,428.42 143.94,434 142.92,433.35 	"/>
	<path class="st0" d="M53.38,412.79c7.32-8.34,7.32-8.34,14.63-16.67c0.37-0.37,0.4-0.37,0.77-0.77c0.23-0.17,0.23-0.14,0.43-0.31
		c0.26-0.17,0.26-0.17,0.48-0.34c0.26-0.14,0.26-0.14,0.48-0.28c0.51-0.26,0.51-0.26,1.05-0.51c0.54-0.2,0.54-0.2,1.11-0.37
		c0.62-0.17,0.62-0.17,1.22-0.28c0.65-0.09,0.65-0.09,1.3-0.17c0.65-0.03,0.65-0.03,1.33-0.06c0.71,0.03,0.71,0.03,1.42,0.09
		c0.71,0.09,0.71,0.09,1.45,0.17c0.74,0.14,0.74,0.14,1.5,0.31c0.77,0.2,0.77,0.2,1.53,0.43c0.77,0.26,0.77,0.26,1.53,0.51
		c0.79,0.31,0.79,0.31,1.56,0.62c0.77,0.37,0.77,0.37,1.53,0.74c0.79,0.43,0.79,0.43,1.56,0.85c0.77,0.45,0.77,0.45,1.5,0.91"/>
	<path class="st0" d="M88.59,399.01c-0.26-0.14-0.26-0.14-0.54-0.26c-0.31-0.09-0.31-0.09-0.62-0.17c-0.34-0.03-0.34-0.03-0.68-0.06
		c-0.28,0.03-0.28,0.03-0.57,0.06c-0.43,0.09-0.43,0.09-0.85,0.17c-0.34,0.09-0.34,0.09-0.68,0.2c-0.34,0.14-0.34,0.14-0.71,0.28
		c-0.37,0.17-0.37,0.17-0.74,0.37c-0.37,0.2-0.37,0.2-0.74,0.4c-0.4,0.26-0.4,0.26-0.79,0.51c-0.57,0.45-0.57,0.45-1.16,0.91
		c-0.57,0.51-0.57,0.51-1.16,1.05c-0.54,0.57-0.54,0.57-1.05,1.16c-0.45,0.6-0.45,0.6-0.94,1.19c-0.37,0.57-0.37,0.57-0.74,1.16
		c-0.28,0.57-0.28,0.57-0.57,1.16c-0.2,0.51-0.2,0.51-0.37,1.05c-0.11,0.45-0.11,0.45-0.23,0.94c-0.03,0.28-0.03,0.28-0.06,0.57
		c0,0.28,0,0.28,0.03,0.57c0.06,0.37,0.06,0.37,0.11,0.71c0.06,0.2,0.06,0.2,0.14,0.43c0.14,0.26,0.14,0.26,0.28,0.51
		c0.2,0.23,0.2,0.23,0.37,0.45c0.23,0.17,0.23,0.17,0.45,0.34"/>
	<path class="st0" d="M76.8,412.71c-0.65,0.74-0.65,0.74-1.28,1.47c-0.11,0.14-0.11,0.14-0.2,0.31c-0.09,0.14-0.09,0.14-0.14,0.28"
		/>
	<path class="st0" d="M53.83,412.28c0.34-0.34,0.34-0.34,0.68-0.65c0.45-0.34,0.45-0.31,0.91-0.65c0.23-0.14,0.23-0.14,0.48-0.28
		c0.51-0.26,0.51-0.26,1.02-0.48c0.57-0.2,0.57-0.2,1.13-0.4c0.34-0.09,0.34-0.09,0.71-0.17c0.57-0.09,0.57-0.09,1.13-0.2
		c0.68-0.03,0.68-0.03,1.33-0.09c0.68,0,0.68,0,1.39,0.03c0.71,0.06,0.71,0.06,1.45,0.14c0.37,0.06,0.37,0.06,0.74,0.11
		c0.74,0.14,0.74,0.14,1.5,0.31c0.77,0.2,0.77,0.2,1.53,0.43c0.4,0.11,0.4,0.11,0.77,0.26c0.65,0.23,0.65,0.23,1.3,0.48
		c0.51,0.2,0.51,0.2,1.05,0.43c0.4,0.2,0.4,0.2,0.77,0.37c0.79,0.4,0.79,0.4,1.56,0.79c0.51,0.28,0.51,0.28,0.99,0.57
		c0.65,0.4,0.65,0.4,1.33,0.82"/>
	<path class="st0" d="M66.82,404.91c0-0.09,0-0.09,0.03-0.17c0.06-0.14,0.06-0.14,0.11-0.26c0.09-0.14,0.09-0.14,0.14-0.26
		c0.11-0.14,0.11-0.14,0.23-0.28"/>
	<path class="st0" d="M67.33,403.83c0-0.09,0-0.09-0.03-0.14c-0.03-0.09-0.06-0.09-0.09-0.14c-0.06-0.09-0.06-0.09-0.14-0.14
		c-0.06-0.06-0.06-0.06-0.14-0.11c-0.09-0.03-0.09-0.03-0.17-0.06c-0.06-0.03-0.06-0.03-0.14-0.03"/>
	<path class="st0" d="M66.62,403.21c-0.11,0.14-0.11,0.14-0.26,0.31c-0.09,0.14-0.09,0.14-0.17,0.28c-0.09,0.23-0.09,0.23-0.14,0.43
		c-0.03,0.14-0.03,0.14-0.03,0.28c0,0.14,0,0.14,0.03,0.28c0.06,0.11,0.06,0.11,0.11,0.26c0.06,0.14,0.06,0.14,0.17,0.26
		c0.11,0.14,0.11,0.14,0.26,0.28c0.23,0.17,0.23,0.17,0.45,0.34c0.2,0.09,0.2,0.09,0.37,0.2c0.23,0.09,0.23,0.09,0.45,0.2
		c0.28,0.09,0.28,0.09,0.54,0.17c0.37,0.09,0.37,0.09,0.74,0.17c0.26,0.06,0.26,0.06,0.54,0.11c0.57,0.06,0.57,0.06,1.13,0.11
		c0.45,0,0.45,0,0.88,0c0.43-0.03,0.43-0.03,0.88-0.09c0.4-0.09,0.4-0.09,0.82-0.14c0.26-0.09,0.26-0.09,0.51-0.17
		c0.37-0.14,0.37-0.14,0.74-0.28c0.23-0.11,0.23-0.11,0.45-0.26c0.2-0.14,0.2-0.14,0.37-0.26c0.26-0.26,0.26-0.26,0.51-0.48"/>
	<path class="st0" d="M75.58,405.22c-0.14,0.14-0.14,0.14-0.28,0.28c-0.23,0.17-0.23,0.17-0.45,0.34c-0.26,0.17-0.26,0.17-0.51,0.28
		c-0.2,0.11-0.2,0.11-0.43,0.2c-0.43,0.11-0.43,0.11-0.85,0.26c-0.37,0.06-0.37,0.06-0.71,0.11c-0.23,0.03-0.23,0.03-0.48,0.03
		c-0.6,0.03-0.6,0.03-1.19,0c-0.34-0.03-0.34-0.03-0.68-0.06c-0.31-0.06-0.31-0.06-0.62-0.11c-0.28-0.06-0.28-0.06-0.6-0.14
		c-0.34-0.11-0.34-0.11-0.68-0.23c-0.2-0.09-0.2-0.09-0.4-0.2c-0.23-0.14-0.23-0.14-0.48-0.31"/>
	<path class="st0" d="M66.62,403.21c1.84-2.13,1.84-2.13,3.71-4.22c0.31-0.28,0.31-0.28,0.62-0.57c0.43-0.28,0.43-0.28,0.82-0.57
		c0.37-0.2,0.37-0.2,0.77-0.37c0.43-0.2,0.43-0.2,0.85-0.37c0.4-0.11,0.4-0.11,0.82-0.23c0.34-0.09,0.34-0.09,0.71-0.17
		c0.31-0.03,0.31-0.03,0.62-0.09c0.31,0,0.31,0,0.62-0.03c0.34,0.03,0.34,0.03,0.68,0.06c0.4,0.06,0.4,0.06,0.77,0.11
		c0.26,0.09,0.26,0.09,0.54,0.17c0.31,0.14,0.31,0.14,0.65,0.31c0.2,0.14,0.2,0.14,0.4,0.28c0.23,0.2,0.23,0.2,0.45,0.43
		c0.17,0.28,0.17,0.28,0.31,0.54c0.11,0.28,0.11,0.28,0.2,0.57c0,0.26,0,0.26,0.03,0.51c-0.06,0.23-0.06,0.23-0.09,0.45
		c-0.11,0.28-0.11,0.28-0.23,0.54c-0.17,0.28-0.17,0.26-0.34,0.51c0,0.03,0,0.03-0.03,0.03"/>
	<path class="st0" d="M79.49,400.57c0.06-0.26,0.06-0.28,0.14-0.54c0-0.26,0-0.26,0-0.51c-0.06-0.26-0.06-0.26-0.14-0.51
		c-0.11-0.23-0.11-0.26-0.26-0.45c-0.2-0.23-0.2-0.23-0.43-0.43c-0.2-0.14-0.23-0.14-0.43-0.26c-0.28-0.11-0.28-0.11-0.54-0.23
		c-0.37-0.09-0.37-0.09-0.74-0.17c-0.4,0-0.4,0-0.79-0.03c-0.4,0.03-0.4,0.03-0.79,0.09c-0.45,0.09-0.45,0.09-0.88,0.17
		c-0.43,0.14-0.43,0.14-0.85,0.28c-0.45,0.2-0.45,0.2-0.91,0.43c-0.34,0.17-0.34,0.17-0.68,0.37c-0.4,0.28-0.4,0.28-0.77,0.54
		c-0.28,0.28-0.28,0.28-0.57,0.57"/>
	<path class="st0" d="M70.9,399.75c-0.03-0.09-0.03-0.09-0.03-0.14c-0.06-0.09-0.06-0.09-0.09-0.14c-0.09-0.09-0.09-0.09-0.14-0.14
		c-0.06-0.06-0.06-0.06-0.14-0.11c-0.09-0.03-0.09-0.03-0.17-0.06c-0.06-0.03-0.09-0.03-0.14-0.03"/>
	<path class="st0" d="M68.78,395.36c0.26-0.2,0.26-0.2,0.51-0.4c0.48-0.31,0.48-0.31,0.96-0.6c0.23-0.14,0.23-0.14,0.48-0.28
		c0.31-0.14,0.31-0.14,0.62-0.26c0.28-0.11,0.28-0.11,0.57-0.23c0.57-0.17,0.57-0.17,1.16-0.31c0.62-0.14,0.62-0.11,1.25-0.23
		c0.37-0.06,0.37-0.06,0.74-0.09c0.65-0.03,0.65-0.03,1.33-0.06c0.71,0.03,0.71,0.03,1.39,0.09c0.74,0.09,0.74,0.09,1.47,0.17
		c0.68,0.14,0.68,0.14,1.36,0.28c0.45,0.11,0.45,0.11,0.94,0.23c0.77,0.23,0.77,0.23,1.53,0.48c0.37,0.11,0.37,0.11,0.77,0.26
		c0.77,0.31,0.77,0.31,1.53,0.62c0.6,0.28,0.6,0.28,1.19,0.57"/>
	<path class="st0" d="M88.59,399.01c23.42,15.17,23.42,15.17,46.84,30.34c0.17,0.11,0.17,0.11,0.31,0.23
		c0.14,0.11,0.14,0.11,0.26,0.26c0.17,0.26,0.17,0.26,0.34,0.51c0.09,0.2,0.09,0.2,0.17,0.4c0.09,0.23,0.09,0.23,0.14,0.45
		c0.06,0.26,0.06,0.26,0.09,0.51c0.03,0.28,0.03,0.28,0.03,0.6c0,0.31,0,0.31-0.03,0.62c-0.03,0.31-0.03,0.31-0.09,0.65
		s-0.06,0.34-0.14,0.71c-0.11,0.37-0.11,0.37-0.26,0.77c-0.14,0.4-0.14,0.4-0.31,0.82c-0.31,0.62-0.31,0.62-0.62,1.28
		c-0.26,0.4-0.26,0.4-0.51,0.82c-0.28,0.4-0.28,0.4-0.57,0.82c-0.48,0.6-0.48,0.6-0.99,1.19c-0.17,0.2-0.17,0.2-0.34,0.4
		c-0.37,0.34-0.37,0.34-0.74,0.71c-0.54,0.45-0.54,0.45-1.11,0.91c-0.57,0.37-0.57,0.37-1.13,0.74c-0.34,0.2-0.34,0.2-0.68,0.37
		c-0.37,0.17-0.37,0.17-0.74,0.31c-0.34,0.11-0.34,0.11-0.68,0.23c-0.31,0.09-0.31,0.09-0.62,0.17c-0.28,0.03-0.28,0.03-0.57,0.09
		c-0.26,0-0.28,0-0.54,0.03c-0.26-0.03-0.26-0.03-0.51-0.03c-0.34-0.06-0.34-0.06-0.65-0.14s-0.31-0.09-0.6-0.2
		c-0.17-0.11-0.17-0.11-0.34-0.2"/>
	<path class="st0" d="M86.58,395.61c0.54,0.28,0.54,0.28,1.11,0.57c0.37,0.23,0.37,0.23,0.77,0.43c0.74,0.45,0.74,0.45,1.5,0.94"/>
	<path class="st0" d="M103.05,398.59c5.64-6.61,5.64-6.61,11.28-13.18c0.09-0.11,0.09-0.11,0.2-0.23c0.23-0.17,0.23-0.17,0.45-0.34"
		/>
	<path class="st0" d="M114.96,384.87c0.2-0.17,0.2-0.17,0.4-0.31c0.23-0.11,0.23-0.11,0.43-0.2c0.2-0.09,0.2-0.09,0.43-0.14
		c0.26-0.06,0.26-0.06,0.48-0.09c0.26-0.03,0.26-0.03,0.51-0.06c0.28,0.03,0.28,0.03,0.54,0.03c0.28,0.06,0.28,0.06,0.57,0.09
		c0.28,0.09,0.28,0.09,0.57,0.14c0.28,0.09,0.28,0.09,0.57,0.2c0.31,0.11,0.31,0.11,0.6,0.26c0.28,0.14,0.28,0.14,0.6,0.28
		c0.28,0.17,0.28,0.17,0.57,0.34"/>
	<path class="st0" d="M120.92,385.72c-0.4-0.23-0.4-0.23-0.79-0.48c-0.4-0.17-0.4-0.17-0.79-0.37c-0.4-0.11-0.4-0.11-0.79-0.26
		c-0.23-0.06-0.23-0.06-0.43-0.11c-0.4-0.06-0.4-0.06-0.77-0.11c-0.37,0-0.37,0-0.74,0c-0.34,0.03-0.34,0.03-0.68,0.09
		c-0.31,0.11-0.31,0.11-0.62,0.2c-0.14,0.09-0.14,0.09-0.31,0.17"/>
	<path class="st0" d="M114.99,384.84c0.28-0.14,0.28-0.14,0.6-0.26c0.31-0.09,0.31-0.09,0.62-0.14c0.37-0.03,0.37-0.03,0.71-0.06
		c0.4,0.03,0.4,0.03,0.77,0.06c0.4,0.09,0.4,0.09,0.79,0.2s0.4,0.11,0.79,0.26c0.43,0.2,0.43,0.2,0.82,0.37
		c0.4,0.23,0.4,0.23,0.79,0.48"/>
	<path class="st0" d="M120.89,385.75c12.79,8.22,12.79,8.22,25.55,16.44c0.4,0.28,0.4,0.28,0.77,0.54c0.37,0.31,0.37,0.31,0.71,0.62
		c0.17,0.17,0.17,0.17,0.34,0.31c0.31,0.37,0.31,0.37,0.62,0.71c0.26,0.34,0.26,0.37,0.54,0.71c0.17,0.31,0.17,0.31,0.34,0.6
		c0.14,0.26,0.14,0.26,0.26,0.54c0.09,0.17,0.09,0.17,0.17,0.37c0.11,0.37,0.11,0.37,0.23,0.74c0.06,0.37,0.06,0.37,0.11,0.74
		c0,0.28,0,0.28,0,0.6c-0.03,0.2-0.03,0.2-0.06,0.37c-0.09,0.26-0.09,0.26-0.17,0.51c-0.06,0.17-0.06,0.17-0.14,0.34"/>
	<path class="st0" d="M122.84,444.78c0.77,0.51,0.77,0.51,1.5,1.02c0.74,0.57,0.74,0.57,1.47,1.13c0.71,0.57,0.71,0.57,1.39,1.16
		c0.51,0.45,0.51,0.45,1.02,0.94c0.48,0.48,0.48,0.48,0.99,0.96c0.37,0.37,0.37,0.37,0.71,0.77c0.57,0.62,0.57,0.62,1.11,1.25
		c0.28,0.34,0.28,0.34,0.57,0.68c0.51,0.68,0.51,0.68,1.05,1.39c0.48,0.71,0.48,0.71,0.94,1.42c0.43,0.71,0.43,0.74,0.85,1.45
		c0.2,0.37,0.2,0.37,0.4,0.74c0.34,0.71,0.34,0.71,0.65,1.42c0.31,0.79,0.31,0.79,0.62,1.59c0.2,0.62,0.2,0.62,0.37,1.25
		c0.11,0.34,0.11,0.34,0.17,0.68c0.14,0.68,0.14,0.68,0.26,1.36c0.06,0.34,0.06,0.34,0.09,0.68c0.03,0.31,0.03,0.31,0.03,0.65
		c0,0.62,0,0.62,0,1.25c-0.03,0.31-0.03,0.31-0.06,0.62c-0.09,0.6-0.09,0.6-0.2,1.19c-0.06,0.28-0.06,0.28-0.14,0.57
		c-0.2,0.51-0.2,0.51-0.4,1.05c-0.23,0.48-0.23,0.48-0.48,0.99c-0.17,0.23-0.17,0.23-0.31,0.45c-0.34,0.43-0.34,0.43-0.68,0.85
		c-0.2,0.2-0.2,0.2-0.4,0.4"/>
	<path class="st0" d="M134.19,449.11c-0.28-0.34-0.28-0.34-0.6-0.68c-0.31-0.51-0.31-0.51-0.62-0.99c-0.23-0.4-0.23-0.43-0.43-0.82
		c-0.17-0.4-0.17-0.4-0.31-0.82c-0.09-0.4-0.09-0.4-0.2-0.82c-0.03-0.4-0.03-0.4-0.06-0.79c0-0.23,0-0.23,0.03-0.45
		c0.03-0.2,0.03-0.2,0.06-0.4c0.06-0.17,0.06-0.17,0.09-0.31c0.09-0.23,0.09-0.23,0.17-0.43c0.17-0.28,0.17-0.28,0.34-0.57
		c1.73-2.13,1.73-2.13,3.46-4.22c0.14-0.17,0.14-0.17,0.31-0.34c0.17-0.11,0.17-0.11,0.34-0.26c0.17-0.11,0.17-0.11,0.37-0.23
		c0.23-0.06,0.23-0.06,0.43-0.14c0.23-0.06,0.23-0.06,0.45-0.11c0.23,0,0.23,0,0.45-0.03c0.26,0,0.26,0,0.48,0.03
		c0.26,0.03,0.26,0.03,0.51,0.09c0.23,0.09,0.23,0.09,0.48,0.17c0.26,0.09,0.26,0.09,0.48,0.2c0.26,0.14,0.26,0.14,0.48,0.28
		c0.23,0.17,0.23,0.17,0.45,0.34c0.23,0.2,0.23,0.2,0.43,0.4c0.23,0.23,0.23,0.23,0.43,0.48c0.17,0.26,0.17,0.26,0.37,0.51
		c0.17,0.28,0.17,0.28,0.34,0.57c0.14,0.28,0.14,0.28,0.28,0.6c0.11,0.31,0.11,0.31,0.23,0.62c0.09,0.31,0.09,0.31,0.17,0.62
		c0.06,0.34,0.06,0.34,0.11,0.68c0.06,0.31,0.06,0.31,0.09,0.62c0,0.31,0,0.31,0,0.62c0,0.28,0,0.28-0.03,0.6
		c-0.06,0.26-0.06,0.26-0.09,0.54c-0.06,0.23-0.06,0.23-0.11,0.48c-0.14,0.31-0.14,0.31-0.26,0.62c-0.17,0.28-0.17,0.28-0.34,0.54"
		/>
	<path class="st0" d="M142.97,446.31c-0.06-0.06-0.06-0.09-0.11-0.14c-0.14-0.11-0.14-0.11-0.28-0.2c-0.09-0.06-0.09-0.06-0.17-0.09
		c-0.09,0-0.09,0-0.14,0"/>
	<path class="st0" d="M139.57,450.53c-0.2,0.2-0.2,0.2-0.4,0.4c-0.23,0.14-0.23,0.14-0.45,0.26c-0.26,0.09-0.26,0.09-0.51,0.14
		c-0.28,0-0.28,0-0.57,0c-0.26-0.06-0.26-0.06-0.48-0.11c-0.31-0.11-0.31-0.11-0.6-0.23c-0.26-0.11-0.26-0.11-0.48-0.26
		c-0.34-0.23-0.34-0.23-0.71-0.48c-0.34-0.28-0.34-0.28-0.68-0.6c-0.26-0.26-0.26-0.26-0.51-0.54"/>
	<path class="st0" d="M134.16,448.77c0.23,0.26,0.23,0.26,0.48,0.51c0.26,0.23,0.26,0.23,0.48,0.43c0.31,0.26,0.31,0.26,0.62,0.48
		c0.17,0.09,0.17,0.09,0.34,0.2c0.26,0.11,0.26,0.11,0.48,0.23"/>
	<path class="st0" d="M136.54,450.59c0.14,0.06,0.14,0.06,0.31,0.11c0.14,0.03,0.14,0.03,0.31,0.09c0.2,0,0.2,0,0.4,0.03
		c0.23-0.06,0.23-0.06,0.45-0.09c0.14-0.06,0.14-0.09,0.26-0.14c0.11-0.09,0.11-0.09,0.23-0.17c0.11-0.11,0.11-0.11,0.26-0.26
		c0.71-0.88,0.71-0.88,1.39-1.73"/>
	<path class="st0" d="M134.16,448.77c-0.23-0.28-0.23-0.28-0.45-0.54c-0.2-0.31-0.2-0.31-0.4-0.6c-0.17-0.31-0.17-0.31-0.34-0.62
		c-0.14-0.31-0.14-0.31-0.28-0.65c-0.14-0.43-0.14-0.43-0.28-0.85c-0.06-0.34-0.06-0.34-0.11-0.65c0-0.28,0-0.31,0-0.6
		c0.03-0.28,0.03-0.28,0.09-0.6"/>
	<path class="st0" d="M142.41,445.46c0.11-0.26,0.11-0.26,0.2-0.48c0.09-0.34,0.09-0.34,0.17-0.71c0.03-0.43,0.03-0.43,0.06-0.85
		c0-0.31,0-0.31,0-0.62c-0.06-0.43-0.06-0.43-0.11-0.88c-0.06-0.28-0.06-0.28-0.14-0.6c-0.09-0.28-0.09-0.28-0.17-0.6
		c-0.17-0.4-0.17-0.4-0.37-0.79c-0.2-0.34-0.2-0.34-0.43-0.71c-0.17-0.2-0.17-0.2-0.34-0.43c-0.2-0.2-0.2-0.2-0.4-0.4
		c-0.31-0.23-0.31-0.23-0.62-0.48c-0.23-0.11-0.23-0.11-0.45-0.23c-0.31-0.11-0.31-0.11-0.65-0.23c-0.23-0.03-0.23-0.03-0.48-0.09
		c-0.31,0-0.31,0-0.65,0.03c-0.17,0.03-0.17,0.03-0.37,0.06c-0.11,0.06-0.11,0.06-0.26,0.09c-0.2,0.11-0.2,0.11-0.37,0.2
		c-0.17,0.11-0.17,0.11-0.34,0.23c-0.17,0.2-0.17,0.2-0.37,0.37"/>
	<path class="st0" d="M136.11,437.8c0.06,0.06,0.06,0.06,0.11,0.11c0.06,0.09,0.06,0.09,0.09,0.17c0.03,0.06,0.03,0.06,0.03,0.14"/>
	<path class="st0" d="M132.94,442.42c-0.03-0.06-0.03-0.06-0.06-0.14c-0.03-0.06-0.03-0.06-0.06-0.14
		c-0.09-0.06-0.09-0.06-0.14-0.14"/>
	<path class="st0" d="M150.29,409.59c0.06-0.14,0.06-0.14,0.11-0.28c0.06-0.31,0.06-0.31,0.11-0.62c0-0.34,0-0.34,0-0.68
		c-0.06-0.37-0.06-0.37-0.11-0.71c-0.03-0.2-0.03-0.2-0.09-0.37c-0.06-0.2-0.06-0.2-0.14-0.37c-0.14-0.4-0.14-0.4-0.31-0.77
		c-0.11-0.2-0.11-0.2-0.23-0.37c-0.23-0.37-0.23-0.37-0.48-0.74c-0.28-0.37-0.28-0.37-0.57-0.71c-0.14-0.17-0.17-0.17-0.31-0.34
		c-0.17-0.17-0.17-0.17-0.34-0.31c-0.34-0.31-0.34-0.31-0.71-0.62c-0.37-0.26-0.37-0.26-0.74-0.51"/>
	<path class="st0" d="M136.74,427.82c0.74,0.48,0.74,0.48,1.47,0.99c0.74,0.54,0.74,0.54,1.45,1.11c0.68,0.57,0.68,0.57,1.39,1.13
		c0.65,0.62,0.65,0.62,1.3,1.25c0.62,0.62,0.62,0.62,1.25,1.28c0.31,0.31,0.31,0.31,0.6,0.65c0.57,0.68,0.57,0.68,1.11,1.33
		c0.54,0.68,0.54,0.68,1.05,1.39c0.45,0.68,0.45,0.68,0.91,1.39c0.43,0.71,0.43,0.71,0.82,1.42c0.4,0.74,0.4,0.74,0.74,1.47
		c0.31,0.71,0.31,0.71,0.62,1.42c0.23,0.71,0.23,0.71,0.48,1.42c0.17,0.68,0.17,0.68,0.34,1.36c0.14,0.68,0.14,0.68,0.26,1.36
		c0.06,0.68,0.06,0.68,0.09,1.39"/>
	<path class="st0" d="M136.57,427.96c0.65,0.43,0.65,0.43,1.3,0.88c0.45,0.34,0.45,0.34,0.94,0.68c0.71,0.57,0.71,0.57,1.42,1.13
		c0.34,0.28,0.34,0.28,0.68,0.6c0.45,0.4,0.45,0.4,0.91,0.82c0.54,0.51,0.54,0.51,1.08,1.05c0.6,0.65,0.6,0.65,1.19,1.3
		c0.57,0.68,0.57,0.68,1.13,1.36c0.54,0.68,0.54,0.68,1.05,1.39c0.43,0.62,0.43,0.62,0.82,1.25c0.28,0.43,0.28,0.43,0.54,0.88
		c0.4,0.71,0.4,0.71,0.79,1.45c0.23,0.48,0.23,0.48,0.45,0.99c0.26,0.57,0.26,0.57,0.48,1.13c0.17,0.43,0.17,0.43,0.31,0.88
		c0.2,0.62,0.2,0.62,0.37,1.25c0.09,0.34,0.09,0.34,0.17,0.68c0.11,0.68,0.11,0.68,0.23,1.36c0.06,0.65,0.06,0.65,0.11,1.3
		c0,0.54,0,0.54,0,1.08c-0.03,0.4-0.03,0.4-0.09,0.79c-0.09,0.6-0.09,0.6-0.2,1.16c-0.09,0.31-0.09,0.31-0.14,0.6
		c-0.09,0.26-0.09,0.26-0.2,0.54c-0.14,0.4-0.14,0.4-0.31,0.79c-0.2,0.37-0.2,0.37-0.4,0.71c-0.14,0.23-0.14,0.23-0.31,0.45
		c-0.17,0.23-0.17,0.23-0.34,0.45"/>
	<path class="st0" d="M146.66,427.03c0.06,0.06,0.06,0.06,0.11,0.09c0.06,0.09,0.06,0.09,0.14,0.17c0.03,0.06,0.03,0.06,0.06,0.11
		c0.03,0.06,0.03,0.06,0.03,0.09"/>
	<path class="st0" d="M150.29,409.53c0.11-0.17,0.11-0.17,0.23-0.37c0.06-0.23,0.06-0.23,0.14-0.43c0.03-0.23,0.03-0.23,0.06-0.45
		c0.03-0.23,0.03-0.23,0.03-0.48c-0.03-0.26-0.03-0.26-0.03-0.51c-0.06-0.26-0.06-0.26-0.11-0.51c-0.09-0.26-0.09-0.26-0.17-0.54
		c-0.11-0.26-0.11-0.26-0.23-0.54c-0.14-0.26-0.14-0.26-0.28-0.54c-0.14-0.26-0.14-0.26-0.31-0.54c-0.2-0.26-0.2-0.26-0.4-0.51
		c-0.2-0.26-0.2-0.26-0.43-0.51c-0.23-0.26-0.23-0.26-0.45-0.48c-0.26-0.23-0.26-0.23-0.51-0.45c-0.26-0.23-0.26-0.23-0.54-0.43
		c-0.26-0.2-0.26-0.2-0.54-0.4"/>
	<path class="st0" d="M149.21,454.02c0.17-0.28,0.17-0.28,0.31-0.57c0.11-0.26,0.14-0.26,0.26-0.51c0.2-0.51,0.2-0.51,0.37-1.05
		c0.11-0.34,0.11-0.34,0.2-0.68c0.06-0.28,0.06-0.28,0.11-0.57c0.06-0.6,0.09-0.6,0.14-1.19c0-0.62,0-0.65,0-1.28"/>
	<line class="st0" x1="89.76" y1="397.65" x2="88.59" y2="399.01"/>
	<line class="st0" x1="67.33" y1="403.95" x2="67.33" y2="403.83"/>
	<polyline class="st0" points="75.98,405.22 75.84,405.17 75.67,405.17 75.58,405.22 	"/>
	<line class="st0" x1="67.22" y1="405.68" x2="67.27" y2="405.73"/>
	<polyline class="st0" points="68.52,406.33 70.87,399.89 67.33,403.95 66.88,405.22 66.82,405 66.82,405.05 66.82,404.86 	"/>
	<polyline class="st0" points="67.22,405.68 66.93,405.39 67.05,405.54 66.88,405.22 	"/>
	<line class="st0" x1="66.9" y1="404.6" x2="66.85" y2="404.77"/>
	<polyline class="st0" points="79.52,401.11 79.38,401.08 79.24,401.08 79.12,401.14 75.58,405.22 	"/>
	<line class="st0" x1="66.85" y1="404.74" x2="66.85" y2="404.77"/>
	<line class="st0" x1="67.02" y1="405.48" x2="67.05" y2="405.54"/>
	<line class="st0" x1="79.49" y1="400.49" x2="79.49" y2="400.57"/>
	<line class="st0" x1="70.87" y1="399.89" x2="70.9" y2="399.75"/>
	<polyline class="st0" points="86.58,395.61 90.49,391.05 90.58,390.99 90.72,390.96 90.95,391.02 91.06,391.08 91.17,390.96 
		91.23,390.96 91.06,390.88 90.86,390.85 90.64,390.93 90.49,391.08 	"/>
	<line class="st0" x1="74.67" y1="405.96" x2="74.7" y2="405.93"/>
	<line class="st0" x1="79.52" y1="401.11" x2="75.98" y2="405.22"/>
	<polyline class="st0" points="79.35,400.8 79.38,400.74 79.15,401.11 79.35,400.8 79.27,400.94 	"/>
	<line class="st0" x1="79.12" y1="401.14" x2="79.24" y2="401"/>
	<polyline class="st0" points="79.49,400.57 79.38,400.74 79.49,400.55 	"/>
	<line class="st0" x1="79.55" y1="400.4" x2="79.52" y2="400.49"/>
	<line class="st0" x1="79.46" y1="400.57" x2="79.46" y2="400.6"/>
	<polyline class="st0" points="89.39,410.81 90.13,409.96 123.01,431.28 122.9,431.62 122.16,432.5 89.25,411.15 89.39,410.81 
		122.31,432.16 122.19,432.47 	"/>
	<polyline class="st0" points="89.95,397.54 89.87,397.54 89.76,397.65 136.57,427.96 136.68,427.85 136.74,427.82 89.95,397.54 	
		"/>
	<polyline class="st0" points="144.19,434.23 147.06,427.57 147.09,427.4 147.06,427.14 146.97,427.03 146.83,426.89 146.77,426.91 
		146.66,427.03 91.06,391.08 86.95,395.81 	"/>
	<polyline class="st0" points="91.12,417.59 91.06,417.53 91.15,417.3 91.88,416.45 115.42,431.73 115.3,431.99 114.59,432.84 
		91.12,417.59 	"/>
	<polyline class="st0" points="91.15,417.3 114.71,432.61 114.59,432.84 	"/>
	<line class="st0" x1="91.23" y1="390.96" x2="146.83" y2="426.89"/>
	<polyline class="st0" points="98.49,411.72 96.9,410.7 96.99,410.41 120.46,425.64 120.35,425.89 98.49,411.72 	"/>
	<polyline class="st0" points="96.99,410.41 97.72,409.56 121.17,424.76 120.46,425.64 	"/>
	<line class="st0" x1="114.99" y1="384.84" x2="114.76" y2="385.01"/>
	<line class="st0" x1="121.2" y1="385.41" x2="120.92" y2="385.72"/>
	<line class="st0" x1="120.89" y1="385.75" x2="107.51" y2="401.48"/>
	<line class="st0" x1="134.33" y1="472.7" x2="134.36" y2="472.67"/>
	<line class="st0" x1="114.71" y1="432.61" x2="115.42" y2="431.73"/>
	<polyline class="st0" points="120.35,425.89 121.09,424.99 121.17,424.76 	"/>
	<polyline class="st0" points="121.2,385.41 146.75,401.85 146.49,402.19 122.28,386.6 120.92,385.72 120.89,385.75 	"/>
	<polyline class="st0" points="150.15,409.87 150.29,409.59 150.26,409.62 	"/>
	<polyline class="st0" points="122.42,445.46 122.56,445.17 122.84,444.78 	"/>
	<line class="st0" x1="122.31" y1="432.16" x2="123.01" y2="431.28"/>
	<polyline class="st0" points="142.27,445.88 142.15,445.94 138.72,450.19 138.86,450.11 139.01,450.13 139.18,450.16 
		139.43,450.36 139.57,450.53 	"/>
	<line class="st0" x1="134.19" y1="448.8" x2="134.16" y2="448.77"/>
	<line class="st0" x1="136.57" y1="450.62" x2="136.54" y2="450.59"/>
	<line class="st0" x1="132.37" y1="443.67" x2="132.31" y2="443.9"/>
	<line class="st0" x1="136.31" y1="438.34" x2="132.8" y2="446.65"/>
	<polyline class="st0" points="132.46,443.33 132.46,443.36 132.68,442.9 132.91,442.56 132.31,443.95 	"/>
	<polyline class="st0" points="136.34,438.23 136.31,438.34 132.91,442.56 132.94,442.42 	"/>
	<line class="st0" x1="132.46" y1="443.33" x2="132.48" y2="443.27"/>
	<polyline class="st0" points="132.46,443.36 132.37,443.67 132.4,443.47 	"/>
	<line class="st0" x1="132.71" y1="442.82" x2="132.37" y2="443.61"/>
	<line class="st0" x1="132.51" y1="443.19" x2="132.51" y2="443.22"/>
	<polyline class="st0" points="146.49,402.19 146.43,402.19 133.31,418.15 	"/>
	<polyline class="st0" points="135.09,471.85 148.56,454.93 148.45,455.1 	"/>
	<line class="st0" x1="150.6" y1="448.18" x2="150.6" y2="447.92"/>
	<line class="st0" x1="135.43" y1="429.35" x2="136.57" y2="427.96"/>
	<line class="st0" x1="139.57" y1="450.53" x2="142.97" y2="446.31"/>
	<line class="st0" x1="138.01" y1="450.73" x2="138.18" y2="450.64"/>
	<polyline class="st0" points="139.94,422.43 149.95,410.16 149.95,410.19 	"/>
	<line class="st0" x1="140.99" y1="447.36" x2="142.15" y2="445.94"/>
	<line class="st0" x1="142.52" y1="445.17" x2="142.38" y2="445.54"/>
	<polyline class="st0" points="142.44,445.37 142.27,445.74 142.07,446.02 	"/>
	<line class="st0" x1="142.21" y1="445.82" x2="142.18" y2="445.88"/>
	<line class="st0" x1="142.38" y1="432.33" x2="146.66" y2="427.03"/>
	<polyline class="st0" points="147,427.48 147,427.65 142.83,432.78 	"/>
	<line class="st0" x1="144.93" y1="432.47" x2="147.06" y2="427.57"/>
	<line class="st0" x1="150.15" y1="409.87" x2="149.95" y2="410.16"/>
	<path class="st0" d="M50.89,416.33"/>
	<path class="st0" d="M51.36,420.65c-0.06-2.66,0.26-6.06,2.04-7.87"/>
	<g>
		<polygon class="st0" points="122.65,455.55 123.22,457.3 118.65,468.39 84.37,510.75 84.32,509.73 87.43,502.19 87.41,497.62 
			122.22,455.09 		"/>
		<polygon class="st0" points="33.54,464.73 33.59,465.36 30.5,468.96 30.45,467.37 31.78,464.11 		"/>
		<path class="st0" d="M81.99,511.03c-0.09,0.06-0.09,0.09-0.17,0.14c-0.09,0.03-0.09,0.03-0.2,0.06c-0.11,0.03-0.11,0.03-0.23,0.03
			c-0.14,0-0.14,0-0.26-0.03c-0.14-0.03-0.14-0.03-0.28-0.06c-0.14-0.09-0.14-0.09-0.28-0.14c-0.17-0.09-0.17-0.09-0.31-0.17"/>
		<path class="st0" d="M54.15,494.93c-12.76-8.39-12.76-8.39-25.55-16.81c-0.2-0.14-0.2-0.14-0.4-0.28c-0.2-0.17-0.2-0.17-0.37-0.31
			c-0.17-0.17-0.17-0.17-0.34-0.34c-0.17-0.2-0.17-0.2-0.31-0.37c-0.14-0.2-0.14-0.2-0.28-0.4c-0.11-0.17-0.11-0.17-0.2-0.37
			c-0.09-0.2-0.09-0.2-0.17-0.4c-0.06-0.17-0.06-0.17-0.11-0.37c-0.03-0.17-0.03-0.17-0.06-0.34c0-0.17,0-0.17,0.03-0.31
			c0.03-0.17,0.03-0.17,0.06-0.31c1.87-5.36,1.87-5.36,3.77-10.72c0.06-0.14,0.09-0.14,0.14-0.26c0.09-0.11,0.09-0.11,0.17-0.23
			c0.11-0.09,0.11-0.09,0.26-0.17c0.14-0.06,0.14-0.06,0.28-0.11c0.14-0.03,0.14-0.03,0.31-0.06c0.17,0,0.17,0,0.37,0
			s0.2,0,0.37,0.03c0.23,0.06,0.23,0.06,0.43,0.11c0.17,0.06,0.17,0.06,0.37,0.14c0.23,0.09,0.23,0.09,0.45,0.2
			c0.23,0.14,0.23,0.14,0.43,0.26"/>
		<path class="st0" d="M33.79,463.51c25.97,17.04,25.97,17.04,51.94,34.08c0.2,0.14,0.2,0.14,0.4,0.28c0.2,0.17,0.2,0.17,0.37,0.34
			c0.2,0.17,0.2,0.17,0.37,0.34c0.14,0.17,0.14,0.17,0.31,0.37c0.11,0.2,0.11,0.2,0.26,0.4c0.11,0.17,0.11,0.17,0.2,0.37
			c0.09,0.2,0.09,0.2,0.17,0.4c0.06,0.17,0.06,0.17,0.11,0.37c0,0.17,0,0.17,0.03,0.34c0,0.17,0,0.17-0.03,0.34
			c-0.03,0.14-0.03,0.14-0.09,0.28c-2.13,5.22-2.13,5.22-4.28,10.46c-0.06,0.11-0.06,0.11-0.14,0.26c-0.09,0.09-0.09,0.09-0.17,0.2
			c-0.14,0.09-0.14,0.09-0.26,0.14c-0.14,0.06-0.14,0.06-0.28,0.11c-0.17,0.03-0.17,0.03-0.34,0.06c-0.2,0-0.2,0-0.37,0
			c-0.2-0.03-0.2-0.03-0.4-0.06c-0.2-0.06-0.2-0.06-0.4-0.11c-0.23-0.06-0.23-0.06-0.43-0.14c-0.23-0.11-0.23-0.11-0.43-0.2
			c-0.23-0.14-0.23-0.14-0.43-0.26c-12.84-8.45-12.84-8.45-25.66-16.9"/>
		<path class="st0" d="M54.6,494.05c12.87,8.45,12.87,8.45,25.72,16.9c0.14,0.09,0.14,0.09,0.28,0.14c0.14,0.09,0.14,0.09,0.28,0.14
			c0.14,0.03,0.14,0.03,0.28,0.06s0.14,0.03,0.26,0.03"/>
		<path class="st0" d="M54.52,493.96c-12.79-8.39-12.79-8.39-25.57-16.81c-0.14-0.09-0.14-0.09-0.26-0.2
			c-0.14-0.11-0.14-0.11-0.26-0.23c-0.11-0.11-0.11-0.11-0.23-0.26c-0.09-0.11-0.09-0.11-0.17-0.26"/>
		<path class="st0" d="M81.42,511.31c0.14,0,0.14,0,0.26-0.03c0.09-0.03,0.09-0.03,0.2-0.06c0.06-0.06,0.09-0.06,0.14-0.14"/>
		<path class="st0" d="M82.13,510.95c2.13-5.25,2.13-5.25,4.25-10.49c0.03-0.09,0.03-0.09,0.06-0.2c0-0.11,0-0.11,0-0.23
			c-0.03-0.14-0.06-0.14-0.09-0.26c-0.06-0.14-0.06-0.14-0.11-0.26c-0.09-0.14-0.09-0.14-0.17-0.28c-0.11-0.11-0.11-0.11-0.23-0.26
			c-0.11-0.11-0.11-0.11-0.23-0.23c-0.14-0.11-0.14-0.11-0.28-0.2c-3.91-2.55-3.91-2.55-7.8-5.13"/>
		<path class="st0" d="M77.54,493.42c-22.06-14.46-22.06-14.46-44.09-28.92c-0.14-0.09-0.14-0.09-0.28-0.17
			c-0.14-0.06-0.14-0.06-0.31-0.11c-0.11-0.06-0.11-0.06-0.26-0.09c-0.14,0-0.14,0-0.28,0c-0.11,0-0.11,0-0.23,0.03
			c-0.09,0.03-0.09,0.03-0.2,0.09"/>
		<path class="st0" d="M31.66,464.53c-1.9,5.36-1.9,5.36-3.8,10.72c-0.03,0.11-0.03,0.11-0.03,0.2c0,0.14,0,0.14,0,0.26
			c0.03,0.11,0.03,0.11,0.09,0.26c0.06,0.11,0.06,0.11,0.11,0.26"/>
		<path class="st0" d="M54.54,493.93c-12.79-8.39-12.79-8.39-25.55-16.78c-0.14-0.09-0.14-0.09-0.26-0.2
			c-0.14-0.11-0.14-0.11-0.26-0.23s-0.11-0.11-0.23-0.26c-0.09-0.14-0.09-0.14-0.17-0.26c-0.06-0.14-0.06-0.14-0.11-0.26
			c-0.06-0.14-0.06-0.14-0.09-0.26c0-0.11,0-0.14,0-0.26c0-0.09,0-0.09,0.03-0.2c0.96-2.75,0.96-2.75,1.96-5.5"/>
		<path class="st0" d="M30.53,463.12c18.37-21.24,18.37-21.24,36.72-42.5c0.11-0.09,0.11-0.09,0.26-0.17
			c0.14-0.06,0.14-0.06,0.28-0.11c0.14-0.03,0.14-0.03,0.31-0.06c0.17-0.03,0.17-0.03,0.37-0.03c0.17,0.03,0.17,0.03,0.37,0.03
			c0.2,0.06,0.2,0.06,0.4,0.11c0.23,0.06,0.23,0.06,0.43,0.14s0.2,0.09,0.4,0.2c0.23,0.11,0.23,0.11,0.43,0.23
			c25.35,16.5,25.35,16.5,50.72,33c0.2,0.11,0.2,0.11,0.4,0.26c0.17,0.17,0.2,0.17,0.37,0.34c0.17,0.17,0.17,0.17,0.34,0.34
			c0.14,0.17,0.14,0.17,0.28,0.34c0.14,0.2,0.14,0.2,0.26,0.4c0.11,0.17,0.11,0.17,0.23,0.37c0.06,0.2,0.06,0.2,0.14,0.4
			c0.06,0.17,0.06,0.17,0.09,0.37c0.03,0.17,0.03,0.17,0.03,0.34s0,0.17-0.03,0.31c-0.03,0.17-0.03,0.17-0.09,0.31
			C121,463,121,463,118.76,468.25c-0.06,0.14-0.06,0.14-0.14,0.26c-17.61,21.83-17.61,21.83-35.21,43.63"/>
		<path class="st0" d="M51.99,423.65c-0.17-0.62-0.17-0.62-0.31-1.28c-0.09-0.34-0.09-0.34-0.14-0.68
			c-0.09-0.51-0.09-0.51-0.14-1.02"/>
		<path class="st0" d="M51.4,420.67c0.01,0.49,0.06,0.48,0.11,0.99c0.09,0.34,0.09,0.34,0.14,0.68c0.17,0.65,0.17,0.65,0.34,1.3"/>
		<path class="st0" d="M75.5,414.72c23.5,15.25,23.5,15.25,46.98,30.51c0.57,0.37,0.57,0.37,1.11,0.74
			c0.57,0.43,0.57,0.43,1.13,0.82c0.54,0.43,0.54,0.43,1.05,0.85c0.71,0.6,0.71,0.6,1.39,1.19c0.65,0.62,0.65,0.62,1.33,1.25
			c0.62,0.65,0.62,0.65,1.22,1.3c0.6,0.65,0.6,0.65,1.16,1.33c0.54,0.68,0.54,0.68,1.08,1.39c0.48,0.71,0.48,0.71,0.96,1.39
			c0.34,0.57,0.34,0.57,0.68,1.11c0.4,0.71,0.4,0.71,0.79,1.42c0.34,0.71,0.34,0.71,0.68,1.42c0.26,0.71,0.26,0.71,0.54,1.42
			c0.23,0.71,0.23,0.71,0.43,1.42c0.17,0.68,0.17,0.68,0.31,1.36c0.11,0.65,0.11,0.65,0.2,1.33c0.03,0.62,0.03,0.62,0.06,1.28
			c-0.03,0.45-0.03,0.45-0.06,0.91c-0.06,0.45-0.06,0.45-0.11,0.91c-0.11,0.57-0.11,0.57-0.26,1.13c-0.2,0.54-0.2,0.54-0.4,1.05
			c-0.11,0.26-0.11,0.26-0.23,0.51c-0.14,0.23-0.14,0.23-0.26,0.48c-0.14,0.23-0.14,0.23-0.31,0.45c-0.14,0.23-0.14,0.23-0.31,0.43
			c-0.17,0.23-0.17,0.23-0.37,0.43c-0.17,0.2-0.17,0.2-0.37,0.37c-0.2,0.2-0.2,0.2-0.4,0.37c-0.23,0.17-0.23,0.17-0.45,0.34
			c-0.45,0.31-0.45,0.31-0.94,0.6c-0.51,0.26-0.51,0.26-1.05,0.51c-0.4,0.14-0.4,0.14-0.82,0.28c-0.45,0.14-0.45,0.14-0.88,0.26
			c-0.65,0.11-0.65,0.11-1.28,0.23c-0.65,0.06-0.65,0.06-1.3,0.09c-0.68,0-0.68,0-1.36,0c-0.74-0.06-0.74-0.06-1.45-0.11
			c-0.74-0.11-0.74-0.11-1.47-0.23c0,0-5.61-1.52-7.26-2.63"/>
		<path class="st0" d="M86.47,444.94c-0.68-0.45-0.68-0.45-1.36-0.88c-0.09-0.09-0.09-0.09-0.2-0.17c-0.06-0.09-0.06-0.09-0.14-0.17
			c-0.06-0.11-0.06-0.11-0.11-0.2c-0.03-0.11-0.03-0.11-0.06-0.23c0-0.09,0-0.09,0-0.2c0.03-0.09,0.03-0.09,0.06-0.2
			c0.06-0.09,0.06-0.09,0.11-0.17c0.14-0.17,0.14-0.17,0.28-0.34c0.09-0.09,0.09-0.09,0.17-0.14c0.09-0.06,0.09-0.06,0.2-0.11
			c0.11-0.03,0.11-0.03,0.23-0.06c0.11,0,0.11,0,0.23-0.03c0.14,0.03,0.14,0.03,0.26,0.06c0.11,0.03,0.11,0.03,0.26,0.06
			c0.11,0.06,0.11,0.06,0.23,0.11"/>
		<path class="st0" d="M86.61,442.28c2.58,1.7,2.58,1.7,5.16,3.4c0.11,0.06,0.11,0.06,0.2,0.14c0.09,0.09,0.09,0.09,0.17,0.17
			c0.06,0.11,0.06,0.11,0.11,0.23c0.03,0.09,0.03,0.09,0.06,0.2c0,0.11,0,0.11,0,0.2c-0.03,0.11-0.03,0.11-0.06,0.2
			c-0.06,0.09-0.06,0.09-0.11,0.17c-0.14,0.17-0.14,0.17-0.28,0.37c-0.09,0.06-0.09,0.06-0.17,0.14c-0.09,0.06-0.09,0.06-0.2,0.09
			c-0.11,0.06-0.11,0.06-0.23,0.06c-0.11,0.03-0.11,0.03-0.23,0.03c-0.14,0-0.14,0-0.26-0.03c-0.11-0.03-0.11-0.03-0.26-0.09
			c-0.11-0.06-0.11-0.06-0.23-0.11c-1.9-1.25-1.9-1.25-3.83-2.5"/>
		<path class="st0" d="M92.17,446.93c0-0.11,0-0.09,0-0.2c-0.03-0.09-0.03-0.09-0.06-0.2c-0.06-0.11-0.06-0.11-0.11-0.2
			c-0.06-0.09-0.06-0.09-0.14-0.17c-0.11-0.09-0.11-0.09-0.2-0.17"/>
		<path class="st0" d="M91.66,445.99c-2.58-1.7-2.58-1.7-5.19-3.37c-0.11-0.06-0.11-0.06-0.23-0.11c-0.11-0.06-0.11-0.06-0.23-0.09
			c-0.14-0.03-0.14-0.03-0.26-0.03s-0.14,0-0.26,0c-0.11,0.03-0.11,0.03-0.23,0.09c-0.09,0.03-0.09,0.03-0.2,0.09
			c-0.06,0.09-0.06,0.09-0.14,0.14c-0.17,0.2-0.17,0.2-0.34,0.43"/>
		<polyline class="st0" points="84.4,505.36 84.29,505.5 82.1,510.86 81.99,511.03 		"/>
		<polyline class="st0" points="80.26,510.86 54.54,493.93 54.15,494.93 		"/>
		<line class="st0" x1="54.26" y1="494.98" x2="54.6" y2="494.05"/>
		<line class="st0" x1="81.42" y1="511.31" x2="81.48" y2="511.26"/>
		<line class="st0" x1="28.04" y1="476.21" x2="28.09" y2="476.16"/>
		<line class="st0" x1="82.02" y1="511.09" x2="82.13" y2="510.95"/>
		<polyline class="st0" points="31.89,464.25 31.75,464.36 31.66,464.53 		"/>
		<line class="st0" x1="29.88" y1="469.75" x2="84.29" y2="505.5"/>
		<line class="st0" x1="29.88" y1="469.75" x2="34.05" y2="464.9"/>
		<line class="st0" x1="31.55" y1="462.78" x2="68.27" y2="420.25"/>
		<polyline class="st0" points="53.44,427.28 53.72,427.87 53.13,426.63 53.41,427.25 		"/>
		<polyline class="st0" points="52.79,425.89 53.13,426.63 52.5,425.15 51.99,423.65 52.25,424.47 		"/>
		<polyline class="st0" points="54.18,428.67 53.72,427.87 53.78,427.96 		"/>
		<line class="st0" x1="52.28" y1="424.53" x2="52.79" y2="425.83"/>
		<line class="st0" x1="54.15" y1="494.93" x2="54.37" y2="494.67"/>
		<line class="st0" x1="54.63" y1="494.02" x2="54.6" y2="494.05"/>
		<polyline class="st0" points="56.22,450.02 61.63,443.69 62,442.7 72.89,449.82 66.82,456.96 55.91,449.82 62,442.7 		"/>
		<polyline class="st0" points="55.03,430.08 54.74,429.6 55.51,430.79 56.7,432.44 56.53,432.18 		"/>
		<line class="st0" x1="55.06" y1="430.11" x2="55.48" y2="430.76"/>
		<line class="st0" x1="55.51" y1="430.79" x2="55.99" y2="431.47"/>
		<line class="st0" x1="56.02" y1="431.5" x2="56.5" y2="432.15"/>
		<polyline class="st0" points="56.84,432.58 56.7,432.44 56.87,432.64 		"/>
		<line class="st0" x1="53.81" y1="427.99" x2="54.6" y2="429.38"/>
		<polyline class="st0" points="54.2,428.7 54.74,429.6 54.6,429.4 		"/>
		<line class="st0" x1="61.63" y1="443.69" x2="72.21" y2="450.58"/>
		<line class="st0" x1="81.99" y1="511.03" x2="82.19" y2="510.8"/>
		<polyline class="st0" points="88.99,460.34 83.01,467.54 93.98,474.71 99.94,467.45 88.99,460.34 88.62,461.3 83.29,467.71 		"/>
		<line class="st0" x1="85.65" y1="442.39" x2="85.76" y2="442.08"/>
		<line class="st0" x1="87.55" y1="499.49" x2="122.96" y2="455.8"/>
		<line class="st0" x1="88.62" y1="461.3" x2="99.29" y2="468.28"/>
		<line class="st0" x1="92.14" y1="446.64" x2="92.28" y2="446.3"/>
	</g>
</g>
<g id="Assoziationslinie">
	<g>
		<g>
			<line class="st1" x1="227.28" y1="277.56" x2="229.2" y2="275.25"/>
			<line class="st2" x1="234.39" y1="268.97" x2="277.23" y2="217.15"/>
			<line class="st1" x1="279.83" y1="214.01" x2="281.74" y2="211.69"/>
		</g>
	</g>
</g>
<g id="Pfeil">
	<polygon class="st3" points="204.98,330.56 217.93,340.77 222.63,282.47 164.78,300.91 179.11,310.09 140.81,357.01 168.46,376.38 
			"/>
</g>
<g id="Ebene_5">
	<rect x="0.25" y="0.25" class="st4" width="577.32" height="537.25"/>
</g>
</svg>
