<?xml version="1.0" encoding="utf-8"?>
<!-- Generator: Adobe Illustrator 27.7.0, SVG Export Plug-In . SVG Version: 6.00 Build 0)  -->
<svg version="1.1" xmlns="http://www.w3.org/2000/svg" xmlns:xlink="http://www.w3.org/1999/xlink" x="0px" y="0px"
	 viewBox="0 0 660.56 623.57" style="enable-background:new 0 0 660.56 623.57;" xml:space="preserve" width="475" >
<style type="text/css">
	.st0{fill:none;stroke:#000000;stroke-width:0.7202;stroke-linecap:round;stroke-linejoin:round;stroke-miterlimit:10;}
	.st1{display:none;}
	
		.st2{display:inline;fill:none;stroke:#000000;stroke-width:0.7202;stroke-linecap:round;stroke-linejoin:round;stroke-miterlimit:10;}
	.st3{display:inline;}
	.st4{fill:none;stroke:#000000;stroke-width:2;stroke-linecap:round;stroke-linejoin:round;}
	.st5{fill:none;stroke:#000000;stroke-width:2;stroke-linecap:round;stroke-linejoin:round;stroke-dasharray:6.1123,8.1497;}
	
		.st6{fill-rule:evenodd;clip-rule:evenodd;fill:#FFFFFF;stroke:#1D1D1B;stroke-width:1.2759;stroke-linecap:round;stroke-linejoin:round;stroke-miterlimit:10;}
	
		.st7{fill-rule:evenodd;clip-rule:evenodd;fill:#DCDCDC;stroke:#000000;stroke-width:0.6406;stroke-linecap:round;stroke-linejoin:round;stroke-miterlimit:11.3386;}
	
		.st8{fill:none;stroke:#000000;stroke-width:0.6406;stroke-linecap:round;stroke-linejoin:round;stroke-miterlimit:11.3386;stroke-opacity:0.25;}
	
		.st9{fill:none;stroke:#000000;stroke-width:0.5613;stroke-linecap:round;stroke-linejoin:round;stroke-miterlimit:11.3386;stroke-opacity:0.25;}
	.st10{fill:none;stroke:#000000;stroke-width:0.6406;stroke-linecap:round;stroke-linejoin:round;stroke-miterlimit:11.3386;}
	.st11{fill:none;stroke:#000000;stroke-width:0.5613;stroke-linecap:round;stroke-linejoin:round;stroke-miterlimit:11.3386;}
	.st12{fill:none;stroke:#000000;stroke-linecap:round;stroke-linejoin:round;stroke-miterlimit:11.3386;}
</style>
<g id="VitalControl">
	<polyline class="st0" points="658.69,1.57 621.41,47.1 619.37,49.09 616.16,53.45 426.26,284.16 413.64,294.71 400.11,300.83 
		387.02,302.81 376.07,302.81 368.95,302.36 368.33,301.94 	"/>
	<line class="st0" x1="627.93" y1="33.52" x2="631.47" y2="16.37"/>
	<polygon class="st0" points="339.33,172.82 340.49,173.67 338.31,174.04 318.94,219.68 324.7,221.73 331.33,225.7 331.3,227.45 
		327.05,236.84 326.23,236.89 317.69,231.25 316.7,230.29 310.95,232.78 302.38,235.85 300.85,235.85 326.57,174.41 331.56,171.83 
		335.81,171.83 	"/>
	<polygon class="st0" points="341.88,174.35 340.89,174.38 340.49,173.67 341.42,173.84 	"/>
	<polygon class="st0" points="345.93,176.87 344.83,176.87 344.68,176.33 345.37,176.33 	"/>
	<polygon class="st0" points="349.96,179.4 348.85,179.4 348.71,178.83 349.39,178.83 	"/>
	<polygon class="st0" points="353.98,181.89 352.88,181.89 352.77,181.35 353.42,181.35 	"/>
	<polygon class="st0" points="358.01,184.41 356.9,184.41 356.79,183.88 357.47,183.88 	"/>
	<polygon class="st0" points="362.04,186.94 360.93,186.94 360.82,186.4 361.5,186.4 	"/>
	<polygon class="st0" points="366.06,189.46 364.99,189.46 364.84,188.92 365.52,188.92 	"/>
	<polygon class="st0" points="370.09,191.98 369.01,191.98 368.87,191.42 369.55,191.42 	"/>
	<polygon class="st0" points="374.11,194.51 373.04,194.51 372.9,193.94 373.58,193.94 	"/>
	<polygon class="st0" points="378.17,197 377.06,197 376.92,196.46 377.6,196.46 	"/>
	<polygon class="st0" points="352.91,197.54 348.2,203.61 346.84,203.67 345.54,202.45 345.82,199.19 347.66,196.49 350.92,196.52 	
		"/>
	<polygon class="st0" points="382.2,199.53 381.09,199.53 380.98,198.99 381.63,198.99 	"/>
	<polygon class="st0" points="386.22,202.05 385.12,202.05 385,201.51 385.68,201.51 	"/>
	<polygon class="st0" points="349.62,194.85 347.69,195.5 345.31,198.16 345.25,202.22 345.54,202.45 345.34,203.72 344.15,204.57 
		342.7,204.77 341.82,203.1 341.82,200.72 342.3,197.65 344.68,195.02 346.19,194.51 349.48,194.56 	"/>
	<polygon class="st0" points="390.25,204.57 389.14,204.57 389.03,204.03 389.71,204.03 	"/>
	<polygon class="st0" points="394.27,207.1 393.17,207.1 393.05,206.53 393.74,206.53 	"/>
	<polygon class="st0" points="396.91,208.97 395.66,208.57 395.58,208.06 396.2,208.03 	"/>
	<polygon class="st0" points="398.3,209.62 397.31,209.65 396.91,208.97 397.85,209.11 	"/>
	<polygon class="st0" points="399.66,210.58 400.23,210.67 400.34,211.24 399.75,211.15 	"/>
	<polygon class="st0" points="380.69,215.12 380.66,215.8 379.98,216.28 378.91,216.34 379.36,215.03 380.21,214.64 	"/>
	<polygon class="st0" points="383.64,216.59 383.13,220.9 382.42,216.11 383.16,215.69 	"/>
	<polygon class="st0" points="371.53,292.24 370.97,292.81 369.58,292.75 366.57,290.17 307.09,252.38 305.93,252.4 297.87,254.98 
		293.99,254.96 291.95,252.46 290.39,249.91 290.45,248.89 293.54,252.66 296.49,246.56 296.85,245.37 297.48,245.29 	"/>
	<path class="st0" d="M353.87,198.05c-0.03,0.17-0.03,0.17-0.06,0.37c-0.11,0.34-0.11,0.34-0.23,0.71c-0.09,0.23-0.09,0.23-0.2,0.48
		"/>
	<polyline class="st0" points="353.45,196.52 353.08,196.97 350.24,195.9 347.69,196.21 346.1,197.8 345.39,199.44 345.22,201.88 
		346.47,204.54 348.8,206.7 375.22,223.26 378.06,224.33 380.64,224.08 382.25,222.52 383.02,220.9 383.41,220.39 	"/>
	<polyline class="st0" points="375.93,222.09 375.73,222.32 375.36,222.95 348.94,206.39 346.78,204.4 345.65,201.96 345.82,199.7 
		345.9,199.7 	"/>
	<polyline class="st0" points="348.94,206.39 349.33,205.76 347.35,203.98 346.33,201.74 346.47,199.7 346.3,199.7 	"/>
	<polyline class="st0" points="346.92,198.05 346.53,198.05 345.82,199.7 	"/>
	<polyline class="st0" points="346.98,198.05 347.18,198.05 346.47,199.7 346.7,199.41 	"/>
	<line class="st0" x1="346.1" y1="197.8" x2="346.56" y2="197.29"/>
	<polyline class="st0" points="346.53,198.05 347.97,196.61 350.33,196.32 352.94,197.31 355.63,199.02 352.94,197.31 	"/>
	<polyline class="st0" points="349.53,205.54 349.33,205.76 375.73,222.32 378.11,223.26 380.27,223.03 381.63,221.73 
		381.69,221.87 	"/>
	<polyline class="st0" points="347.18,198.05 348.51,196.72 350.64,196.46 353.02,197.37 	"/>
	<line class="st0" x1="348.34" y1="197.48" x2="347.83" y2="198.08"/>
	<line class="st0" x1="349.67" y1="205.37" x2="353.56" y2="200.77"/>
	<polyline class="st0" points="354.61,200.38 359.03,203.15 358.89,203.5 358.72,203.58 358.46,203.58 358.24,203.5 358.38,203.15 
		353.59,200.18 353.45,200.49 353.3,200.38 353.22,200.23 353.22,200.09 353.36,199.75 353.39,199.61 354.61,200.38 	"/>
	<polyline class="st0" points="353.45,197.82 353.19,198.87 352.94,200.38 353.02,200.43 353.22,199.95 353.28,199.95 	"/>
	<polyline class="st0" points="353.02,200.43 378.91,216.65 378.88,216.62 	"/>
	<line class="st0" x1="353.45" y1="200.49" x2="358.24" y2="203.5"/>
	<polyline class="st0" points="353.36,199.75 353.36,199.89 353.45,200.04 353.59,200.18 	"/>
	<polyline class="st0" points="353.08,196.97 379.64,213.62 379.87,213.36 	"/>
	<polyline class="st0" points="353.81,198.42 379.81,214.69 379.25,215.18 353.59,199.13 	"/>
	<line class="st0" x1="353.22" y1="200.09" x2="353.22" y2="199.95"/>
	<polyline class="st0" points="358.38,203.15 358.63,203.27 358.86,203.27 359.03,203.15 	"/>
	<polyline class="st0" points="382.42,220.05 382.39,220.08 382.59,220.62 382.79,218.38 381.69,215.94 379.5,213.93 355.63,199.02 
			"/>
	<polyline class="st0" points="373.21,212.45 373.35,212.11 373.29,212.28 373.38,212.48 373.55,212.65 373.41,212.99 
		373.21,212.82 373.15,212.62 373.21,212.45 373.21,212.45 	"/>
	<polyline class="st0" points="373.41,212.99 378.2,216 378.34,215.66 378.54,215.74 378.71,215.77 378.88,215.74 378.74,216.06 
		378.88,216 378.65,216.48 	"/>
	<polyline class="st0" points="373.35,212.11 379.02,215.69 379.25,215.18 	"/>
	<polyline class="st0" points="375.36,222.95 377.97,223.94 380.32,223.68 381.83,222.26 381.69,221.9 	"/>
	<line class="st0" x1="376.18" y1="221.78" x2="381.2" y2="215.63"/>
	<line class="st0" x1="373.55" y1="212.65" x2="378.34" y2="215.66"/>
	<polyline class="st0" points="378.91,216.65 380.49,215.97 381.12,215.55 	"/>
	<polyline class="st0" points="378.74,216.06 378.57,216.11 378.37,216.08 378.2,216 	"/>
	<line class="st0" x1="379.02" y1="215.69" x2="378.88" y2="215.74"/>
	<line class="st0" x1="382.25" y1="222.52" x2="382.68" y2="222.01"/>
	<line class="st0" x1="381.83" y1="222.26" x2="382.59" y2="220.62"/>
	<polyline class="st0" points="381.63,221.73 382.39,220.08 382.59,218.04 381.57,215.86 	"/>
	<polyline class="st0" points="383.02,220.9 383.24,218.47 382.03,215.8 379.64,213.62 	"/>
	<line class="st0" x1="379.45" y1="213.9" x2="379.5" y2="213.96"/>
	<line class="st0" x1="379.81" y1="214.69" x2="380.15" y2="214.55"/>
	<line class="st0" x1="382.42" y1="222.32" x2="382.65" y2="222.01"/>
	<path class="st0" d="M295.49,255.47c-0.48-0.2-0.48-0.2-0.94-0.4c-0.34-0.2-0.34-0.2-0.71-0.43c-0.34-0.28-0.37-0.28-0.68-0.6
		c-4.05-6.52-4.17-6.46-8.05-13.04c-3.29-7.66-3.32-7.68-6.35-15.45c-1.64-7.63-1.5-7.66-2.98-15.34c-0.17-0.96-0.2-0.96-0.31-1.96
		c0.2-7.49,0.06-7.51,0.45-14.97c1.81-6.75,1.98-6.72,4-13.44c0.51-1.13,0.51-1.13,1.08-2.27c3.71-5.76,3.63-5.84,7.51-11.48
		c68.98-82.68,69.01-82.7,138.22-165.18"/>
	<path class="st0" d="M294.05,251.78c-4-6.75-4-6.78-7.74-13.69c-2.55-6.89-2.44-6.95-4.82-13.89c-0.17-0.85-0.14-0.85-0.26-1.7
		c-0.79-5.93-0.94-5.93-1.59-11.88c0.45-6.27,0.45-6.32,1.19-12.59c1.9-5.61,1.93-5.67,4.11-11.2c3.29-4.76,3.32-4.82,6.86-9.41
		c4.56-3.71,4.62-3.77,9.38-7.23c5.73-2.44,5.78-2.47,11.65-4.62"/>
	<path class="st0" d="M288.52,166.1c5.19-4.48,5.25-4.51,10.72-8.68c6.32-2.84,6.41-2.72,12.87-5.36c2.47-0.68,2.47-0.71,4.96-1.3
		c2.75-0.17,2.75-0.17,5.5-0.26c2.81,0.34,2.84,0.34,5.64,0.79c2.72,0.82,2.75,0.82,5.44,1.73"/>
	<path class="st0" d="M333.66,153.03c-1.36,1.36-1.36,1.36-2.75,2.69c-1.98,1.47-1.98,1.5-4,2.92c-4.45,2.58-4.45,2.61-8.99,5.1
		c-2.49,0.96-2.52,0.96-5.08,1.81"/>
	<path class="st0" d="M312.84,165.56c-0.79-1.67-0.79-1.7-1.56-3.4c-0.26-0.96-0.26-0.96-0.48-1.93c-0.14-0.99-0.14-0.99-0.26-1.98
		c0.14-1.81,0.17-1.81,0.37-3.63"/>
	<path class="st0" d="M308.28,236.47c-0.54-0.65-0.54-0.68-1.08-1.33c-0.45-0.65-0.45-0.65-0.94-1.33
		c-0.37-0.57-0.37-0.57-0.71-1.16c-0.2-0.43-0.2-0.43-0.4-0.88"/>
	<path class="st0" d="M420.3,232.76c1.76-0.11,1.76-0.11,3.54-0.23c0.99-0.2,0.99-0.2,1.96-0.43c0.99-0.28,0.99-0.28,1.98-0.62
		c1.76-0.82,1.76-0.79,3.49-1.67c1.19-0.91,1.22-0.91,2.35-1.87"/>
	<path class="st0" d="M422.37,208.29c-44.26-27.73-44.29-27.76-88.72-55.26"/>
	<path class="st0" d="M433.63,227.94c-0.71-2.69-0.71-2.69-1.5-5.36c-1.22-2.67-1.22-2.69-2.52-5.3c-1.64-2.47-1.64-2.47-3.35-4.85
		c-1.93-2.1-1.87-2.18-3.88-4.14"/>
	<path class="st0" d="M348.91,194.28c2.13,0.74,2.15,0.74,4.22,1.62c13.38,8.28,13.38,8.28,26.68,16.7c1.79,1.53,1.81,1.56,3.49,3.2
		"/>
	<path class="st0" d="M369.61,302.5c6.92,0.4,6.92,0.4,13.84,0.77c0.82-0.03,0.82,0,1.67-0.06c7.51-1.16,7.57-0.99,15-2.32
		c6.58-2.67,6.55-2.84,13.07-5.7c0.91-0.6,0.88-0.62,1.76-1.28c5.39-4.48,5.56-4.37,10.77-8.99c3.94-5.7,3.97-5.76,7.57-11.68
		c2.15-6.86,2.15-6.95,3.91-13.92c0.23-7.77,0.23-7.83,0.06-15.59c-1.62-7.91-1.64-7.97-3.63-15.79"/>
	<path class="st0" d="M418.8,219.71c0,3.52,0.03,3.54,0.17,7.06c0.6,2.98,0.65,2.98,1.33,5.98c1.7,7.09,1.87,7.09,3.43,14.2
		c0.28,6.69,0.31,6.72,0.28,13.41c-1.22,6.07-1.25,6.12-2.78,12.13c-2.64,5.25-2.67,5.3-5.61,10.41c-4,4.28-4.03,4.31-8.25,8.34
		c-5.19,3.03-5.27,3.06-10.63,5.81c-6.24,1.62-6.29,1.62-12.65,2.95c-7,0.11-7.06,0.11-14.06-0.06"/>
	<path class="st0" d="M616.56,0.92c-41.93,45.05-41.93,45.05-83.9,90.05c-55.12,58.69-55.26,58.58-110.29,117.32
		c-1.3,2.27-1.28,2.32-2.38,4.71c-0.68,3.32-0.65,3.35-1.19,6.72"/>
	<path class="st0" d="M425.72,284.92c96.91-117.18,96.94-117.24,193.31-234.87c4.54-7.88,4.51-8.02,8.51-16.22
		c2.13-9.24,2.1-9.36,3.71-18.71c-0.28-7.09-0.28-7.17-1.02-14.2"/>
	<path class="st0" d="M433.63,227.94c28.04-32.75,28.04-32.75,56-65.55c25.38-30.54,25.32-30.59,50.64-61.16
		c23.25-27.98,23.22-28.01,46.5-55.94c18.94-22.23,18.94-22.23,37.96-44.37"/>
	<polyline class="st0" points="293.17,254.05 294.05,251.78 295.41,252.26 296.71,252.09 296.6,254.3 298.58,254.64 297,255.27 
		295.49,255.47 	"/>
	<polyline class="st0" points="301.28,249.14 300.96,249.28 297.48,250.25 297.08,248.01 297,244.63 294.05,251.78 	"/>
	<polyline class="st0" points="312.84,165.56 326.54,174.12 325.6,175.68 300.23,236.87 302.72,234.43 305.16,231.76 328.41,176.02 
		325.6,175.68 	"/>
	<line class="st0" x1="310.92" y1="154.62" x2="312.11" y2="152.06"/>
	<line class="st0" x1="298.58" y1="254.64" x2="306.72" y2="252.09"/>
	<line class="st0" x1="297" y1="255.27" x2="307" y2="252.26"/>
	<polyline class="st0" points="296.71,252.09 297.48,250.25 300,248.77 302.78,249.57 297,244.63 373.41,293 370.63,293.29 	"/>
	<polyline class="st0" points="298.58,247.67 297,244.63 299.29,247.7 	"/>
	<line class="st0" x1="300.96" y1="249.28" x2="301.19" y2="249.11"/>
	<polyline class="st0" points="303.18,234.97 300.23,236.87 303.6,235.62 	"/>
	<polyline class="st0" points="404.88,221.61 404.51,223.63 378.37,278.01 376.67,278.29 373.58,277.72 374.68,281.58 
		377.06,285.43 300.23,236.87 308.28,236.47 	"/>
	<polyline class="st0" points="305.16,231.76 309.44,229.1 309.39,232.3 311.14,235.59 308.28,236.47 	"/>
	<polyline class="st0" points="369.92,294.2 369.72,296.04 373.41,293 369.69,292.01 302.78,249.57 	"/>
	<polyline class="st0" points="309.44,229.1 315.77,226.15 315.68,228.08 316.79,230.23 318.77,232.02 311.14,235.59 373.41,274.92 
		374.85,267.37 318.77,232.02 	"/>
	<polyline class="st0" points="375.5,281.55 377.06,285.43 405.81,225.84 406.35,224.05 405.84,215.86 401.22,209.31 400.26,211.04 
		400.43,211.32 400.26,211.24 340.23,173.75 339.98,173.44 340.89,171.63 333.15,170.44 326.54,174.12 327.67,174.77 329.15,174.8 
		328.41,176.02 333.57,173.72 312.39,224.25 316.62,221.58 321.01,220.85 	"/>
	<polyline class="st0" points="312.39,224.25 323.51,222.18 319.2,232.27 	"/>
	<polyline class="st0" points="312.5,224.19 316.02,221.16 319.96,219.77 320.41,220.62 325.92,222.55 325.8,221.95 319.96,219.77 
		339.13,174.43 336.26,173.41 333.57,173.72 334.42,172.62 	"/>
	<polyline class="st0" points="312.11,152.06 365.52,86.37 436.77,0.92 	"/>
	<polyline class="st0" points="325.8,221.95 376.87,254.1 376.89,254.64 380.78,258.41 382.31,262.89 381.74,268 382.11,262.44 	"/>
	<polyline class="st0" points="323.9,221.84 323.51,222.18 324.3,221.98 	"/>
	<line class="st0" x1="332.72" y1="226.8" x2="327.96" y2="237.8"/>
	<line class="st0" x1="376.89" y1="254.64" x2="325.92" y2="222.55"/>
	<polyline class="st0" points="329.15,174.8 334.22,172.56 340.23,173.75 	"/>
	<polyline class="st0" points="400.43,211.32 404.17,216.28 404.96,222.21 405.27,223.23 406.35,224.05 420.3,232.76 	"/>
	<line class="st0" x1="333.66" y1="153.03" x2="448.29" y2="0.92"/>
	<polyline class="st0" points="339.13,174.43 339.5,173.95 340.06,173.72 	"/>
	<polyline class="st0" points="345.34,198.7 342.08,198.76 341.82,202.42 343.66,206.36 347.15,209.56 348.54,207.35 	"/>
	<polyline class="st0" points="342.08,198.76 342.79,197.12 346.07,197.06 345.9,197.4 	"/>
	<polyline class="st0" points="342.79,197.12 345.14,194.73 348.91,194.28 	"/>
	<polyline class="st0" points="383.3,215.8 385.12,219.77 384.78,223.43 384.01,225.04 381.6,227.34 377.74,227.74 373.55,226.12 
		375.16,223.51 	"/>
	<line class="st0" x1="340.89" y1="171.63" x2="401.22" y2="209.31"/>
	<line class="st0" x1="346.07" y1="197.06" x2="346.78" y2="196.32"/>
	<line class="st0" x1="347.15" y1="209.56" x2="373.55" y2="226.12"/>
	<polyline class="st0" points="353.13,195.9 353.59,196.18 350.53,195.02 347.78,195.33 347.07,196.04 	"/>
	<line class="st0" x1="355.54" y1="197.4" x2="353.59" y2="196.18"/>
	<polyline class="st0" points="368.02,301.37 368.7,302.11 369.61,302.5 370.03,299.95 368.84,297.82 369.72,296.04 	"/>
	<path class="st0" d="M433.63,227.94"/>
	<polyline class="st0" points="368.84,297.82 367.79,299.44 367.85,301.37 368.64,302.02 	"/>
	<polyline class="st0" points="370.03,299.95 373.41,293 370.94,294.08 	"/>
	<polyline class="st0" points="367.79,299.44 367.54,298.36 368.47,291.3 	"/>
	<polyline class="st0" points="369.78,295.64 369.98,294.48 369.66,292.89 368.78,291.53 367.93,290.91 	"/>
	<polyline class="st0" points="374.85,267.37 377.23,268.37 379.39,268.25 380.69,267.06 379.5,273.33 377.12,275.06 373.41,274.92 
		373.58,277.72 	"/>
	<line class="st0" x1="370.85" y1="264.85" x2="375.96" y2="254.05"/>
	<polyline class="st0" points="376.27,281.55 377.06,285.43 377.49,281.66 379.5,273.33 	"/>
	<line class="st0" x1="381.57" y1="260.8" x2="378" y2="268.31"/>
	<polyline class="st0" points="376.87,254.1 381.71,258.64 380.78,258.41 	"/>
	<polyline class="st0" points="402.78,214.44 381.71,258.64 382.62,263.12 381.74,268 404.71,220.17 	"/>
	<polyline class="st0" points="384.01,225.04 383.02,222.32 382.9,222.43 	"/>
	<polyline class="st0" points="383.02,222.32 383.78,220.71 384.78,223.43 	"/>
	<polyline class="st0" points="383.64,217.19 384.04,218.04 383.78,220.71 	"/>
	<line class="st0" x1="383.58" y1="217.02" x2="382.82" y2="215.38"/>
	<polyline class="st0" points="405.81,225.84 404.88,224.99 404.51,223.63 404.96,222.21 	"/>
	<polyline class="st0" points="619.51,49.48 619.73,49.23 627.59,34.34 	"/>
	<line class="st0" x1="619.73" y1="49.23" x2="659.54" y2="0.92"/>
	<polyline class="st0" points="627.93,33.66 628.27,33.01 632.01,14.3 631.05,0.92 	"/>
</g>
<g id="Stick" class="st1">
	<polygon class="st2" points="232.67,406.66 232.5,409.24 222.35,421.8 221.05,421.86 217.85,419.73 230.92,404.14 231.2,404.14 	
		"/>
	<polygon class="st2" points="148.98,403.8 153.88,398.61 156.41,397.62 158.65,397.62 155.56,406.32 153.88,406.72 152.58,406.72 
		150,406.21 149.01,405.67 	"/>
	<polygon class="st2" points="225.02,432.04 228.45,427.81 228.65,428.44 226.1,434.02 225.08,433.37 	"/>
	<path class="st2" d="M135.54,412.81c7.32-8.34,7.32-8.34,14.63-16.67c0.37-0.37,0.4-0.37,0.77-0.77c0.23-0.17,0.23-0.14,0.43-0.31
		c0.26-0.17,0.26-0.17,0.48-0.34c0.26-0.14,0.26-0.14,0.48-0.28c0.51-0.26,0.51-0.26,1.05-0.51c0.54-0.2,0.54-0.2,1.11-0.37
		c0.62-0.17,0.62-0.17,1.22-0.28c0.65-0.09,0.65-0.09,1.3-0.17c0.65-0.03,0.65-0.03,1.33-0.06c0.71,0.03,0.71,0.03,1.42,0.09
		c0.71,0.09,0.71,0.09,1.45,0.17c0.74,0.14,0.74,0.14,1.5,0.31c0.77,0.2,0.77,0.2,1.53,0.43c0.77,0.26,0.77,0.26,1.53,0.51
		c0.79,0.31,0.79,0.31,1.56,0.62c0.77,0.37,0.77,0.37,1.53,0.74c0.79,0.43,0.79,0.43,1.56,0.85c0.77,0.45,0.77,0.45,1.5,0.91"/>
	<path class="st2" d="M170.75,399.04c-0.26-0.14-0.26-0.14-0.54-0.26c-0.31-0.09-0.31-0.09-0.62-0.17
		c-0.34-0.03-0.34-0.03-0.68-0.06c-0.28,0.03-0.28,0.03-0.57,0.06c-0.43,0.09-0.43,0.09-0.85,0.17c-0.34,0.09-0.34,0.09-0.68,0.2
		c-0.34,0.14-0.34,0.14-0.71,0.28c-0.37,0.17-0.37,0.17-0.74,0.37c-0.37,0.2-0.37,0.2-0.74,0.4c-0.4,0.26-0.4,0.26-0.79,0.51
		c-0.57,0.45-0.57,0.45-1.16,0.91c-0.57,0.51-0.57,0.51-1.16,1.05c-0.54,0.57-0.54,0.57-1.05,1.16c-0.45,0.6-0.45,0.6-0.94,1.19
		c-0.37,0.57-0.37,0.57-0.74,1.16c-0.28,0.57-0.28,0.57-0.57,1.16c-0.2,0.51-0.2,0.51-0.37,1.05c-0.11,0.45-0.11,0.45-0.23,0.94
		c-0.03,0.28-0.03,0.28-0.06,0.57c0,0.28,0,0.28,0.03,0.57c0.06,0.37,0.06,0.37,0.11,0.71c0.06,0.2,0.06,0.2,0.14,0.43
		c0.14,0.26,0.14,0.26,0.28,0.51c0.2,0.23,0.2,0.23,0.37,0.45c0.23,0.17,0.23,0.17,0.45,0.34"/>
	<path class="st2" d="M158.96,412.73c-0.65,0.74-0.65,0.74-1.28,1.47c-0.11,0.14-0.11,0.14-0.2,0.31c-0.09,0.14-0.09,0.14-0.14,0.28
		"/>
	<path class="st2" d="M135.99,412.3c0.34-0.34,0.34-0.34,0.68-0.65c0.45-0.34,0.45-0.31,0.91-0.65c0.23-0.14,0.23-0.14,0.48-0.28
		c0.51-0.26,0.51-0.26,1.02-0.48c0.57-0.2,0.57-0.2,1.13-0.4c0.34-0.09,0.34-0.09,0.71-0.17c0.57-0.09,0.57-0.09,1.13-0.2
		c0.68-0.03,0.68-0.03,1.33-0.09c0.68,0,0.68,0,1.39,0.03c0.71,0.06,0.71,0.06,1.45,0.14c0.37,0.06,0.37,0.06,0.74,0.11
		c0.74,0.14,0.74,0.14,1.5,0.31c0.77,0.2,0.77,0.2,1.53,0.43c0.4,0.11,0.4,0.11,0.77,0.26c0.65,0.23,0.65,0.23,1.3,0.48
		c0.51,0.2,0.51,0.2,1.05,0.43c0.4,0.2,0.4,0.2,0.77,0.37c0.79,0.4,0.79,0.4,1.56,0.79c0.51,0.28,0.51,0.28,0.99,0.57
		c0.65,0.4,0.65,0.4,1.33,0.82"/>
	<path class="st2" d="M148.98,404.93c0-0.09,0-0.09,0.03-0.17c0.06-0.14,0.06-0.14,0.11-0.26c0.09-0.14,0.09-0.14,0.14-0.26
		c0.11-0.14,0.11-0.14,0.23-0.28"/>
	<path class="st2" d="M149.49,403.86c0-0.09,0-0.09-0.03-0.14c-0.03-0.09-0.06-0.09-0.09-0.14c-0.06-0.09-0.06-0.09-0.14-0.14
		c-0.06-0.06-0.06-0.06-0.14-0.11c-0.09-0.03-0.09-0.03-0.17-0.06c-0.06-0.03-0.06-0.03-0.14-0.03"/>
	<path class="st2" d="M148.78,403.23c-0.11,0.14-0.11,0.14-0.26,0.31c-0.09,0.14-0.09,0.14-0.17,0.28
		c-0.09,0.23-0.09,0.23-0.14,0.43c-0.03,0.14-0.03,0.14-0.03,0.28c0,0.14,0,0.14,0.03,0.28c0.06,0.11,0.06,0.11,0.11,0.26
		c0.06,0.14,0.06,0.14,0.17,0.26c0.11,0.14,0.11,0.14,0.26,0.28c0.23,0.17,0.23,0.17,0.45,0.34c0.2,0.09,0.2,0.09,0.37,0.2
		c0.23,0.09,0.23,0.09,0.45,0.2c0.28,0.09,0.28,0.09,0.54,0.17c0.37,0.09,0.37,0.09,0.74,0.17c0.26,0.06,0.26,0.06,0.54,0.11
		c0.57,0.06,0.57,0.06,1.13,0.11c0.45,0,0.45,0,0.88,0c0.43-0.03,0.43-0.03,0.88-0.09c0.4-0.09,0.4-0.09,0.82-0.14
		c0.26-0.09,0.26-0.09,0.51-0.17c0.37-0.14,0.37-0.14,0.74-0.28c0.23-0.11,0.23-0.11,0.45-0.26c0.2-0.14,0.2-0.14,0.37-0.26
		c0.26-0.26,0.26-0.26,0.51-0.48"/>
	<path class="st2" d="M157.74,405.24c-0.14,0.14-0.14,0.14-0.28,0.28c-0.23,0.17-0.23,0.17-0.45,0.34
		c-0.26,0.17-0.26,0.17-0.51,0.28c-0.2,0.11-0.2,0.11-0.43,0.2c-0.43,0.11-0.43,0.11-0.85,0.26c-0.37,0.06-0.37,0.06-0.71,0.11
		c-0.23,0.03-0.23,0.03-0.48,0.03c-0.6,0.03-0.6,0.03-1.19,0c-0.34-0.03-0.34-0.03-0.68-0.06c-0.31-0.06-0.31-0.06-0.62-0.11
		c-0.28-0.06-0.28-0.06-0.6-0.14c-0.34-0.11-0.34-0.11-0.68-0.23c-0.2-0.09-0.2-0.09-0.4-0.2c-0.23-0.14-0.23-0.14-0.48-0.31"/>
	<path class="st2" d="M148.78,403.23c1.84-2.13,1.84-2.13,3.71-4.22c0.31-0.28,0.31-0.28,0.62-0.57c0.43-0.28,0.43-0.28,0.82-0.57
		c0.37-0.2,0.37-0.2,0.77-0.37c0.43-0.2,0.43-0.2,0.85-0.37c0.4-0.11,0.4-0.11,0.82-0.23c0.34-0.09,0.34-0.09,0.71-0.17
		c0.31-0.03,0.31-0.03,0.62-0.09c0.31,0,0.31,0,0.62-0.03c0.34,0.03,0.34,0.03,0.68,0.06c0.4,0.06,0.4,0.06,0.77,0.11
		c0.26,0.09,0.26,0.09,0.54,0.17c0.31,0.14,0.31,0.14,0.65,0.31c0.2,0.14,0.2,0.14,0.4,0.28c0.23,0.2,0.23,0.2,0.45,0.43
		c0.17,0.28,0.17,0.28,0.31,0.54c0.11,0.28,0.11,0.28,0.2,0.57c0,0.26,0,0.26,0.03,0.51c-0.06,0.23-0.06,0.23-0.09,0.45
		c-0.11,0.28-0.11,0.28-0.23,0.54c-0.17,0.28-0.17,0.26-0.34,0.51c0,0.03,0,0.03-0.03,0.03"/>
	<path class="st2" d="M161.65,400.59c0.06-0.26,0.06-0.28,0.14-0.54c0-0.26,0-0.26,0-0.51c-0.06-0.26-0.06-0.26-0.14-0.51
		c-0.11-0.23-0.11-0.26-0.26-0.45c-0.2-0.23-0.2-0.23-0.43-0.43c-0.2-0.14-0.23-0.14-0.43-0.26c-0.28-0.11-0.28-0.11-0.54-0.23
		c-0.37-0.09-0.37-0.09-0.74-0.17c-0.4,0-0.4,0-0.79-0.03c-0.4,0.03-0.4,0.03-0.79,0.09c-0.45,0.09-0.45,0.09-0.88,0.17
		c-0.43,0.14-0.43,0.14-0.85,0.28c-0.45,0.2-0.45,0.2-0.91,0.43c-0.34,0.17-0.34,0.17-0.68,0.37c-0.4,0.28-0.4,0.28-0.77,0.54
		c-0.28,0.28-0.28,0.28-0.57,0.57"/>
	<path class="st2" d="M153.06,399.77c-0.03-0.09-0.03-0.09-0.03-0.14c-0.06-0.09-0.06-0.09-0.09-0.14
		c-0.09-0.09-0.09-0.09-0.14-0.14c-0.06-0.06-0.06-0.06-0.14-0.11c-0.09-0.03-0.09-0.03-0.17-0.06c-0.06-0.03-0.09-0.03-0.14-0.03"
		/>
	<path class="st2" d="M150.93,395.38c0.26-0.2,0.26-0.2,0.51-0.4c0.48-0.31,0.48-0.31,0.96-0.6c0.23-0.14,0.23-0.14,0.48-0.28
		c0.31-0.14,0.31-0.14,0.62-0.26c0.28-0.11,0.28-0.11,0.57-0.23c0.57-0.17,0.57-0.17,1.16-0.31c0.62-0.14,0.62-0.11,1.25-0.23
		c0.37-0.06,0.37-0.06,0.74-0.09c0.65-0.03,0.65-0.03,1.33-0.06c0.71,0.03,0.71,0.03,1.39,0.09c0.74,0.09,0.74,0.09,1.47,0.17
		c0.68,0.14,0.68,0.14,1.36,0.28c0.45,0.11,0.45,0.11,0.94,0.23c0.77,0.23,0.77,0.23,1.53,0.48c0.37,0.11,0.37,0.11,0.77,0.26
		c0.77,0.31,0.77,0.31,1.53,0.62c0.6,0.28,0.6,0.28,1.19,0.57"/>
	<path class="st2" d="M170.75,399.04c23.42,15.17,23.42,15.17,46.84,30.34c0.17,0.11,0.17,0.11,0.31,0.23
		c0.14,0.11,0.14,0.11,0.26,0.26c0.17,0.26,0.17,0.26,0.34,0.51c0.09,0.2,0.09,0.2,0.17,0.4c0.09,0.23,0.09,0.23,0.14,0.45
		c0.06,0.26,0.06,0.26,0.09,0.51c0.03,0.28,0.03,0.28,0.03,0.6c0,0.31,0,0.31-0.03,0.62c-0.03,0.31-0.03,0.31-0.09,0.65
		s-0.06,0.34-0.14,0.71c-0.11,0.37-0.11,0.37-0.26,0.77c-0.14,0.4-0.14,0.4-0.31,0.82c-0.31,0.62-0.31,0.62-0.62,1.28
		c-0.26,0.4-0.26,0.4-0.51,0.82c-0.28,0.4-0.28,0.4-0.57,0.82c-0.48,0.6-0.48,0.6-0.99,1.19c-0.17,0.2-0.17,0.2-0.34,0.4
		c-0.37,0.34-0.37,0.34-0.74,0.71c-0.54,0.45-0.54,0.45-1.11,0.91c-0.57,0.37-0.57,0.37-1.13,0.74c-0.34,0.2-0.34,0.2-0.68,0.37
		c-0.37,0.17-0.37,0.17-0.74,0.31c-0.34,0.11-0.34,0.11-0.68,0.23c-0.31,0.09-0.31,0.09-0.62,0.17c-0.28,0.03-0.28,0.03-0.57,0.09
		c-0.26,0-0.28,0-0.54,0.03c-0.26-0.03-0.26-0.03-0.51-0.03c-0.34-0.06-0.34-0.06-0.65-0.14s-0.31-0.09-0.6-0.2
		c-0.17-0.11-0.17-0.11-0.34-0.2"/>
	<path class="st2" d="M168.74,395.63c0.54,0.28,0.54,0.28,1.11,0.57c0.37,0.23,0.37,0.23,0.77,0.43c0.74,0.45,0.74,0.45,1.5,0.94"/>
	<path class="st2" d="M185.21,398.61c5.64-6.61,5.64-6.61,11.28-13.18c0.09-0.11,0.09-0.11,0.2-0.23c0.23-0.17,0.23-0.17,0.45-0.34"
		/>
	<path class="st2" d="M197.12,384.89c0.2-0.17,0.2-0.17,0.4-0.31c0.23-0.11,0.23-0.11,0.43-0.2c0.2-0.09,0.2-0.09,0.43-0.14
		c0.26-0.06,0.26-0.06,0.48-0.09c0.26-0.03,0.26-0.03,0.51-0.06c0.28,0.03,0.28,0.03,0.54,0.03c0.28,0.06,0.28,0.06,0.57,0.09
		c0.28,0.09,0.28,0.09,0.57,0.14c0.28,0.09,0.28,0.09,0.57,0.2c0.31,0.11,0.31,0.11,0.6,0.26c0.28,0.14,0.28,0.14,0.6,0.28
		c0.28,0.17,0.28,0.17,0.57,0.34"/>
	<path class="st2" d="M203.07,385.74c-0.4-0.23-0.4-0.23-0.79-0.48c-0.4-0.17-0.4-0.17-0.79-0.37c-0.4-0.11-0.4-0.11-0.79-0.26
		c-0.23-0.06-0.23-0.06-0.43-0.11c-0.4-0.06-0.4-0.06-0.77-0.11c-0.37,0-0.37,0-0.74,0c-0.34,0.03-0.34,0.03-0.68,0.09
		c-0.31,0.11-0.31,0.11-0.62,0.2c-0.14,0.09-0.14,0.09-0.31,0.17"/>
	<path class="st2" d="M197.15,384.86c0.28-0.14,0.28-0.14,0.6-0.26c0.31-0.09,0.31-0.09,0.62-0.14c0.37-0.03,0.37-0.03,0.71-0.06
		c0.4,0.03,0.4,0.03,0.77,0.06c0.4,0.09,0.4,0.09,0.79,0.2s0.4,0.11,0.79,0.26c0.43,0.2,0.43,0.2,0.82,0.37
		c0.4,0.23,0.4,0.23,0.79,0.48"/>
	<path class="st2" d="M203.05,385.77c12.79,8.22,12.79,8.22,25.55,16.44c0.4,0.28,0.4,0.28,0.77,0.54c0.37,0.31,0.37,0.31,0.71,0.62
		c0.17,0.17,0.17,0.17,0.34,0.31c0.31,0.37,0.31,0.37,0.62,0.71c0.26,0.34,0.26,0.37,0.54,0.71c0.17,0.31,0.17,0.31,0.34,0.6
		c0.14,0.26,0.14,0.26,0.26,0.54c0.09,0.17,0.09,0.17,0.17,0.37c0.11,0.37,0.11,0.37,0.23,0.74c0.06,0.37,0.06,0.37,0.11,0.74
		c0,0.28,0,0.28,0,0.6c-0.03,0.2-0.03,0.2-0.06,0.37c-0.09,0.26-0.09,0.26-0.17,0.51c-0.06,0.17-0.06,0.17-0.14,0.34"/>
	<path class="st2" d="M205,444.8c0.77,0.51,0.77,0.51,1.5,1.02c0.74,0.57,0.74,0.57,1.47,1.13c0.71,0.57,0.71,0.57,1.39,1.16
		c0.51,0.45,0.51,0.45,1.02,0.94c0.48,0.48,0.48,0.48,0.99,0.96c0.37,0.37,0.37,0.37,0.71,0.77c0.57,0.62,0.57,0.62,1.11,1.25
		c0.28,0.34,0.28,0.34,0.57,0.68c0.51,0.68,0.51,0.68,1.05,1.39c0.48,0.71,0.48,0.71,0.94,1.42c0.43,0.71,0.43,0.74,0.85,1.45
		c0.2,0.37,0.2,0.37,0.4,0.74c0.34,0.71,0.34,0.71,0.65,1.42c0.31,0.79,0.31,0.79,0.62,1.59c0.2,0.62,0.2,0.62,0.37,1.25
		c0.11,0.34,0.11,0.34,0.17,0.68c0.14,0.68,0.14,0.68,0.26,1.36c0.06,0.34,0.06,0.34,0.09,0.68c0.03,0.31,0.03,0.31,0.03,0.65
		c0,0.62,0,0.62,0,1.25c-0.03,0.31-0.03,0.31-0.06,0.62c-0.09,0.6-0.09,0.6-0.2,1.19c-0.06,0.28-0.06,0.28-0.14,0.57
		c-0.2,0.51-0.2,0.51-0.4,1.05c-0.23,0.48-0.23,0.48-0.48,0.99c-0.17,0.23-0.17,0.23-0.31,0.45c-0.34,0.43-0.34,0.43-0.68,0.85
		c-0.2,0.2-0.2,0.2-0.4,0.4"/>
	<path class="st2" d="M216.34,449.13c-0.28-0.34-0.28-0.34-0.6-0.68c-0.31-0.51-0.31-0.51-0.62-0.99c-0.23-0.4-0.23-0.43-0.43-0.82
		c-0.17-0.4-0.17-0.4-0.31-0.82c-0.09-0.4-0.09-0.4-0.2-0.82c-0.03-0.4-0.03-0.4-0.06-0.79c0-0.23,0-0.23,0.03-0.45
		c0.03-0.2,0.03-0.2,0.06-0.4c0.06-0.17,0.06-0.17,0.09-0.31c0.09-0.23,0.09-0.23,0.17-0.43c0.17-0.28,0.17-0.28,0.34-0.57
		c1.73-2.13,1.73-2.13,3.46-4.22c0.14-0.17,0.14-0.17,0.31-0.34c0.17-0.11,0.17-0.11,0.34-0.26c0.17-0.11,0.17-0.11,0.37-0.23
		c0.23-0.06,0.23-0.06,0.43-0.14c0.23-0.06,0.23-0.06,0.45-0.11c0.23,0,0.23,0,0.45-0.03c0.26,0,0.26,0,0.48,0.03
		c0.26,0.03,0.26,0.03,0.51,0.09c0.23,0.09,0.23,0.09,0.48,0.17c0.26,0.09,0.26,0.09,0.48,0.2c0.26,0.14,0.26,0.14,0.48,0.28
		c0.23,0.17,0.23,0.17,0.45,0.34c0.23,0.2,0.23,0.2,0.43,0.4c0.23,0.23,0.23,0.23,0.43,0.48c0.17,0.26,0.17,0.26,0.37,0.51
		c0.17,0.28,0.17,0.28,0.34,0.57c0.14,0.28,0.14,0.28,0.28,0.6c0.11,0.31,0.11,0.31,0.23,0.62c0.09,0.31,0.09,0.31,0.17,0.62
		c0.06,0.34,0.06,0.34,0.11,0.68c0.06,0.31,0.06,0.31,0.09,0.62c0,0.31,0,0.31,0,0.62c0,0.28,0,0.28-0.03,0.6
		c-0.06,0.26-0.06,0.26-0.09,0.54c-0.06,0.23-0.06,0.23-0.11,0.48c-0.14,0.31-0.14,0.31-0.26,0.62c-0.17,0.28-0.17,0.28-0.34,0.54"
		/>
	<path class="st2" d="M225.13,446.33c-0.06-0.06-0.06-0.09-0.11-0.14c-0.14-0.11-0.14-0.11-0.28-0.2c-0.09-0.06-0.09-0.06-0.17-0.09
		c-0.09,0-0.09,0-0.14,0"/>
	<path class="st2" d="M221.73,450.55c-0.2,0.2-0.2,0.2-0.4,0.4c-0.23,0.14-0.23,0.14-0.45,0.26c-0.26,0.09-0.26,0.09-0.51,0.14
		c-0.28,0-0.28,0-0.57,0c-0.26-0.06-0.26-0.06-0.48-0.11c-0.31-0.11-0.31-0.11-0.6-0.23c-0.26-0.11-0.26-0.11-0.48-0.26
		c-0.34-0.23-0.34-0.23-0.71-0.48c-0.34-0.28-0.34-0.28-0.68-0.6c-0.26-0.26-0.26-0.26-0.51-0.54"/>
	<path class="st2" d="M216.32,448.79c0.23,0.26,0.23,0.26,0.48,0.51c0.26,0.23,0.26,0.23,0.48,0.43c0.31,0.26,0.31,0.26,0.62,0.48
		c0.17,0.09,0.17,0.09,0.34,0.2c0.26,0.11,0.26,0.11,0.48,0.23"/>
	<path class="st2" d="M218.7,450.61c0.14,0.06,0.14,0.06,0.31,0.11c0.14,0.03,0.14,0.03,0.31,0.09c0.2,0,0.2,0,0.4,0.03
		c0.23-0.06,0.23-0.06,0.45-0.09c0.14-0.06,0.14-0.09,0.26-0.14c0.11-0.09,0.11-0.09,0.23-0.17c0.11-0.11,0.11-0.11,0.26-0.26
		c0.71-0.88,0.71-0.88,1.39-1.73"/>
	<path class="st2" d="M216.32,448.79c-0.23-0.28-0.23-0.28-0.45-0.54c-0.2-0.31-0.2-0.31-0.4-0.6c-0.17-0.31-0.17-0.31-0.34-0.62
		c-0.14-0.31-0.14-0.31-0.28-0.65c-0.14-0.43-0.14-0.43-0.28-0.85c-0.06-0.34-0.06-0.34-0.11-0.65c0-0.28,0-0.31,0-0.6
		c0.03-0.28,0.03-0.28,0.09-0.6"/>
	<path class="st2" d="M224.57,445.48c0.11-0.26,0.11-0.26,0.2-0.48c0.09-0.34,0.09-0.34,0.17-0.71c0.03-0.43,0.03-0.43,0.06-0.85
		c0-0.31,0-0.31,0-0.62c-0.06-0.43-0.06-0.43-0.11-0.88c-0.06-0.28-0.06-0.28-0.14-0.6c-0.09-0.28-0.09-0.28-0.17-0.6
		c-0.17-0.4-0.17-0.4-0.37-0.79c-0.2-0.34-0.2-0.34-0.43-0.71c-0.17-0.2-0.17-0.2-0.34-0.43c-0.2-0.2-0.2-0.2-0.4-0.4
		c-0.31-0.23-0.31-0.23-0.62-0.48c-0.23-0.11-0.23-0.11-0.45-0.23c-0.31-0.11-0.31-0.11-0.65-0.23c-0.23-0.03-0.23-0.03-0.48-0.09
		c-0.31,0-0.31,0-0.65,0.03c-0.17,0.03-0.17,0.03-0.37,0.06c-0.11,0.06-0.11,0.06-0.26,0.09c-0.2,0.11-0.2,0.11-0.37,0.2
		c-0.17,0.11-0.17,0.11-0.34,0.23c-0.17,0.2-0.17,0.2-0.37,0.37"/>
	<path class="st2" d="M218.27,437.82c0.06,0.06,0.06,0.06,0.11,0.11c0.06,0.09,0.06,0.09,0.09,0.17c0.03,0.06,0.03,0.06,0.03,0.14"
		/>
	<path class="st2" d="M215.1,442.44c-0.03-0.06-0.03-0.06-0.06-0.14c-0.03-0.06-0.03-0.06-0.06-0.14c-0.09-0.06-0.09-0.06-0.14-0.14
		"/>
	<path class="st2" d="M232.45,409.61c0.06-0.14,0.06-0.14,0.11-0.28c0.06-0.31,0.06-0.31,0.11-0.62c0-0.34,0-0.34,0-0.68
		c-0.06-0.37-0.06-0.37-0.11-0.71c-0.03-0.2-0.03-0.2-0.09-0.37c-0.06-0.2-0.06-0.2-0.14-0.37c-0.14-0.4-0.14-0.4-0.31-0.77
		c-0.11-0.2-0.11-0.2-0.23-0.37c-0.23-0.37-0.23-0.37-0.48-0.74c-0.28-0.37-0.28-0.37-0.57-0.71c-0.14-0.17-0.17-0.17-0.31-0.34
		c-0.17-0.17-0.17-0.17-0.34-0.31c-0.34-0.31-0.34-0.31-0.71-0.62c-0.37-0.26-0.37-0.26-0.74-0.51"/>
	<path class="st2" d="M218.9,427.84c0.74,0.48,0.74,0.48,1.47,0.99c0.74,0.54,0.74,0.54,1.45,1.11c0.68,0.57,0.68,0.57,1.39,1.13
		c0.65,0.62,0.65,0.62,1.3,1.25c0.62,0.62,0.62,0.62,1.25,1.28c0.31,0.31,0.31,0.31,0.6,0.65c0.57,0.68,0.57,0.68,1.11,1.33
		c0.54,0.68,0.54,0.68,1.05,1.39c0.45,0.68,0.45,0.68,0.91,1.39c0.43,0.71,0.43,0.71,0.82,1.42c0.4,0.74,0.4,0.74,0.74,1.47
		c0.31,0.71,0.31,0.71,0.62,1.42c0.23,0.71,0.23,0.71,0.48,1.42c0.17,0.68,0.17,0.68,0.34,1.36c0.14,0.68,0.14,0.68,0.26,1.36
		c0.06,0.68,0.06,0.68,0.09,1.39"/>
	<path class="st2" d="M218.73,427.98c0.65,0.43,0.65,0.43,1.3,0.88c0.45,0.34,0.45,0.34,0.94,0.68c0.71,0.57,0.71,0.57,1.42,1.13
		c0.34,0.28,0.34,0.28,0.68,0.6c0.45,0.4,0.45,0.4,0.91,0.82c0.54,0.51,0.54,0.51,1.08,1.05c0.6,0.65,0.6,0.65,1.19,1.3
		c0.57,0.68,0.57,0.68,1.13,1.36c0.54,0.68,0.54,0.68,1.05,1.39c0.43,0.62,0.43,0.62,0.82,1.25c0.28,0.43,0.28,0.43,0.54,0.88
		c0.4,0.71,0.4,0.71,0.79,1.45c0.23,0.48,0.23,0.48,0.45,0.99c0.26,0.57,0.26,0.57,0.48,1.13c0.17,0.43,0.17,0.43,0.31,0.88
		c0.2,0.62,0.2,0.62,0.37,1.25c0.09,0.34,0.09,0.34,0.17,0.68c0.11,0.68,0.11,0.68,0.23,1.36c0.06,0.65,0.06,0.65,0.11,1.3
		c0,0.54,0,0.54,0,1.08c-0.03,0.4-0.03,0.4-0.09,0.79c-0.09,0.6-0.09,0.6-0.2,1.16c-0.09,0.31-0.09,0.31-0.14,0.6
		c-0.09,0.26-0.09,0.26-0.2,0.54c-0.14,0.4-0.14,0.4-0.31,0.79c-0.2,0.37-0.2,0.37-0.4,0.71c-0.14,0.23-0.14,0.23-0.31,0.45
		c-0.17,0.23-0.17,0.23-0.34,0.45"/>
	<path class="st2" d="M228.82,427.05c0.06,0.06,0.06,0.06,0.11,0.09c0.06,0.09,0.06,0.09,0.14,0.17c0.03,0.06,0.03,0.06,0.06,0.11
		c0.03,0.06,0.03,0.06,0.03,0.09"/>
	<path class="st2" d="M232.45,409.55c0.11-0.17,0.11-0.17,0.23-0.37c0.06-0.23,0.06-0.23,0.14-0.43c0.03-0.23,0.03-0.23,0.06-0.45
		c0.03-0.23,0.03-0.23,0.03-0.48c-0.03-0.26-0.03-0.26-0.03-0.51c-0.06-0.26-0.06-0.26-0.11-0.51c-0.09-0.26-0.09-0.26-0.17-0.54
		c-0.11-0.26-0.11-0.26-0.23-0.54c-0.14-0.26-0.14-0.26-0.28-0.54c-0.14-0.26-0.14-0.26-0.31-0.54c-0.2-0.26-0.2-0.26-0.4-0.51
		c-0.2-0.26-0.2-0.26-0.43-0.51c-0.23-0.26-0.23-0.26-0.45-0.48c-0.26-0.23-0.26-0.23-0.51-0.45c-0.26-0.23-0.26-0.23-0.54-0.43
		c-0.26-0.2-0.26-0.2-0.54-0.4"/>
	<path class="st2" d="M231.37,454.04c0.17-0.28,0.17-0.28,0.31-0.57c0.11-0.26,0.14-0.26,0.26-0.51c0.2-0.51,0.2-0.51,0.37-1.05
		c0.11-0.34,0.11-0.34,0.2-0.68c0.06-0.28,0.06-0.28,0.11-0.57c0.06-0.6,0.09-0.6,0.14-1.19c0-0.62,0-0.65,0-1.28"/>
	<line class="st2" x1="171.91" y1="397.67" x2="170.75" y2="399.04"/>
	<line class="st2" x1="149.49" y1="403.97" x2="149.49" y2="403.86"/>
	<polyline class="st2" points="158.14,405.24 157.99,405.19 157.82,405.19 157.74,405.24 	"/>
	<line class="st2" x1="149.37" y1="405.7" x2="149.43" y2="405.75"/>
	<polyline class="st2" points="150.68,406.35 153.03,399.91 149.49,403.97 149.03,405.24 148.98,405.02 148.98,405.07 
		148.98,404.88 	"/>
	<polyline class="st2" points="149.37,405.7 149.09,405.41 149.2,405.56 149.03,405.24 	"/>
	<line class="st2" x1="149.06" y1="404.62" x2="149.01" y2="404.79"/>
	<polyline class="st2" points="161.68,401.13 161.54,401.1 161.4,401.1 161.28,401.16 157.74,405.24 	"/>
	<line class="st2" x1="149.01" y1="404.76" x2="149.01" y2="404.79"/>
	<line class="st2" x1="149.18" y1="405.5" x2="149.2" y2="405.56"/>
	<line class="st2" x1="161.65" y1="400.51" x2="161.65" y2="400.59"/>
	<line class="st2" x1="153.03" y1="399.91" x2="153.06" y2="399.77"/>
	<polyline class="st2" points="168.74,395.63 172.65,391.07 172.74,391.01 172.88,390.98 173.11,391.04 173.22,391.1 173.33,390.98 
		173.39,390.98 173.22,390.9 173.02,390.87 172.79,390.95 172.65,391.1 	"/>
	<line class="st2" x1="156.83" y1="405.98" x2="156.86" y2="405.95"/>
	<line class="st2" x1="161.68" y1="401.13" x2="158.14" y2="405.24"/>
	<polyline class="st2" points="161.51,400.82 161.54,400.76 161.31,401.13 161.51,400.82 161.42,400.96 	"/>
	<line class="st2" x1="161.28" y1="401.16" x2="161.4" y2="401.02"/>
	<polyline class="st2" points="161.65,400.59 161.54,400.76 161.65,400.57 	"/>
	<line class="st2" x1="161.71" y1="400.42" x2="161.68" y2="400.51"/>
	<line class="st2" x1="161.62" y1="400.59" x2="161.62" y2="400.62"/>
	<polyline class="st2" points="171.55,410.83 172.28,409.98 205.17,431.3 205.06,431.64 204.32,432.52 171.4,411.17 171.55,410.83 
		204.46,432.18 204.35,432.49 	"/>
	<polyline class="st2" points="172.11,397.56 172.03,397.56 171.91,397.67 218.73,427.98 218.84,427.87 218.9,427.84 172.11,397.56 
			"/>
	<polyline class="st2" points="226.35,434.25 229.22,427.59 229.24,427.42 229.22,427.16 229.13,427.05 228.99,426.91 
		228.93,426.93 228.82,427.05 173.22,391.1 169.11,395.83 	"/>
	<polyline class="st2" points="173.28,417.61 173.22,417.55 173.3,417.32 174.04,416.47 197.57,431.75 197.46,432.01 196.75,432.86 
		173.28,417.61 	"/>
	<polyline class="st2" points="173.3,417.32 196.87,432.63 196.75,432.86 	"/>
	<line class="st2" x1="173.39" y1="390.98" x2="228.99" y2="426.91"/>
	<polyline class="st2" points="180.65,411.74 179.06,410.72 179.14,410.43 202.62,425.66 202.51,425.91 180.65,411.74 	"/>
	<polyline class="st2" points="179.14,410.43 179.88,409.58 203.33,424.78 202.62,425.66 	"/>
	<line class="st2" x1="197.15" y1="384.86" x2="196.92" y2="385.03"/>
	<line class="st2" x1="203.36" y1="385.43" x2="203.07" y2="385.74"/>
	<line class="st2" x1="203.05" y1="385.77" x2="189.66" y2="401.5"/>
	<line class="st2" x1="216.49" y1="472.72" x2="216.51" y2="472.7"/>
	<line class="st2" x1="196.87" y1="432.63" x2="197.57" y2="431.75"/>
	<polyline class="st2" points="202.51,425.91 203.24,425.01 203.33,424.78 	"/>
	<polyline class="st2" points="203.36,385.43 228.9,401.87 228.65,402.21 204.44,386.62 203.07,385.74 203.05,385.77 	"/>
	<polyline class="st2" points="232.31,409.89 232.45,409.61 232.42,409.64 	"/>
	<polyline class="st2" points="204.58,445.48 204.72,445.19 205,444.8 	"/>
	<line class="st2" x1="204.46" y1="432.18" x2="205.17" y2="431.3"/>
	<polyline class="st2" points="224.42,445.9 224.31,445.96 220.88,450.21 221.02,450.13 221.16,450.16 221.33,450.18 221.59,450.38 
		221.73,450.55 	"/>
	<line class="st2" x1="216.34" y1="448.82" x2="216.32" y2="448.79"/>
	<line class="st2" x1="218.73" y1="450.64" x2="218.7" y2="450.61"/>
	<line class="st2" x1="214.53" y1="443.69" x2="214.47" y2="443.92"/>
	<line class="st2" x1="218.47" y1="438.36" x2="214.95" y2="446.67"/>
	<polyline class="st2" points="214.61,443.35 214.61,443.38 214.84,442.93 215.07,442.58 214.47,443.97 	"/>
	<polyline class="st2" points="218.5,438.25 218.47,438.36 215.07,442.58 215.1,442.44 	"/>
	<line class="st2" x1="214.61" y1="443.35" x2="214.64" y2="443.29"/>
	<polyline class="st2" points="214.61,443.38 214.53,443.69 214.56,443.49 	"/>
	<line class="st2" x1="214.87" y1="442.84" x2="214.53" y2="443.63"/>
	<line class="st2" x1="214.67" y1="443.21" x2="214.67" y2="443.24"/>
	<polyline class="st2" points="228.65,402.21 228.59,402.21 215.46,418.17 	"/>
	<polyline class="st2" points="217.25,471.87 230.72,454.95 230.6,455.12 	"/>
	<line class="st2" x1="232.76" y1="448.2" x2="232.76" y2="447.94"/>
	<line class="st2" x1="217.59" y1="429.37" x2="218.73" y2="427.98"/>
	<line class="st2" x1="221.73" y1="450.55" x2="225.13" y2="446.33"/>
	<line class="st2" x1="220.17" y1="450.75" x2="220.34" y2="450.67"/>
	<polyline class="st2" points="222.1,422.45 232.11,410.18 232.11,410.21 	"/>
	<line class="st2" x1="223.15" y1="447.38" x2="224.31" y2="445.96"/>
	<line class="st2" x1="224.68" y1="445.19" x2="224.54" y2="445.56"/>
	<polyline class="st2" points="224.59,445.39 224.42,445.76 224.23,446.04 	"/>
	<line class="st2" x1="224.37" y1="445.85" x2="224.34" y2="445.9"/>
	<line class="st2" x1="224.54" y1="432.35" x2="228.82" y2="427.05"/>
	<polyline class="st2" points="229.16,427.5 229.16,427.67 224.99,432.8 	"/>
	<line class="st2" x1="227.09" y1="432.49" x2="229.22" y2="427.59"/>
	<line class="st2" x1="232.31" y1="409.89" x2="232.11" y2="410.18"/>
	<path class="st2" d="M133.05,416.35"/>
	<path class="st2" d="M133.51,420.67c-0.06-2.66,0.26-6.06,2.04-7.87"/>
	<g class="st3">
		<polygon class="st0" points="204.81,455.57 205.37,457.32 200.81,468.41 166.53,510.77 166.47,509.75 169.59,502.21 
			169.56,497.64 204.38,455.11 		"/>
		<polygon class="st0" points="115.69,464.75 115.75,465.38 112.66,468.98 112.6,467.39 113.94,464.13 		"/>
		<path class="st0" d="M164.15,511.05c-0.09,0.06-0.09,0.09-0.17,0.14c-0.09,0.03-0.09,0.03-0.2,0.06
			c-0.11,0.03-0.11,0.03-0.23,0.03c-0.14,0-0.14,0-0.26-0.03c-0.14-0.03-0.14-0.03-0.28-0.06c-0.14-0.09-0.14-0.09-0.28-0.14
			c-0.17-0.09-0.17-0.09-0.31-0.17"/>
		<path class="st0" d="M136.31,494.95c-12.76-8.39-12.76-8.39-25.55-16.81c-0.2-0.14-0.2-0.14-0.4-0.28
			c-0.2-0.17-0.2-0.17-0.37-0.31c-0.17-0.17-0.17-0.17-0.34-0.34c-0.17-0.2-0.17-0.2-0.31-0.37c-0.14-0.2-0.14-0.2-0.28-0.4
			c-0.11-0.17-0.11-0.17-0.2-0.37c-0.09-0.2-0.09-0.2-0.17-0.4c-0.06-0.17-0.06-0.17-0.11-0.37c-0.03-0.17-0.03-0.17-0.06-0.34
			c0-0.17,0-0.17,0.03-0.31c0.03-0.17,0.03-0.17,0.06-0.31c1.87-5.36,1.87-5.36,3.77-10.72c0.06-0.14,0.09-0.14,0.14-0.26
			c0.09-0.11,0.09-0.11,0.17-0.23c0.11-0.09,0.11-0.09,0.26-0.17c0.14-0.06,0.14-0.06,0.28-0.11c0.14-0.03,0.14-0.03,0.31-0.06
			c0.17,0,0.17,0,0.37,0s0.2,0,0.37,0.03c0.23,0.06,0.23,0.06,0.43,0.11c0.17,0.06,0.17,0.06,0.37,0.14
			c0.23,0.09,0.23,0.09,0.45,0.2c0.23,0.14,0.23,0.14,0.43,0.26"/>
		<path class="st0" d="M115.95,463.53c25.97,17.04,25.97,17.04,51.94,34.08c0.2,0.14,0.2,0.14,0.4,0.28c0.2,0.17,0.2,0.17,0.37,0.34
			c0.2,0.17,0.2,0.17,0.37,0.34c0.14,0.17,0.14,0.17,0.31,0.37c0.11,0.2,0.11,0.2,0.26,0.4c0.11,0.17,0.11,0.17,0.2,0.37
			s0.09,0.2,0.17,0.4c0.06,0.17,0.06,0.17,0.11,0.37c0,0.17,0,0.17,0.03,0.34c0,0.17,0,0.17-0.03,0.34
			c-0.03,0.14-0.03,0.14-0.09,0.28c-2.13,5.22-2.13,5.22-4.28,10.46c-0.06,0.11-0.06,0.11-0.14,0.26c-0.09,0.09-0.09,0.09-0.17,0.2
			c-0.14,0.09-0.14,0.09-0.26,0.14c-0.14,0.06-0.14,0.06-0.28,0.11c-0.17,0.03-0.17,0.03-0.34,0.06c-0.2,0-0.2,0-0.37,0
			c-0.2-0.03-0.2-0.03-0.4-0.06c-0.2-0.06-0.2-0.06-0.4-0.11c-0.23-0.06-0.23-0.06-0.43-0.14c-0.23-0.11-0.23-0.11-0.43-0.2
			c-0.23-0.14-0.23-0.14-0.43-0.26c-12.84-8.45-12.84-8.45-25.66-16.9"/>
		<path class="st0" d="M136.76,494.07c12.87,8.45,12.87,8.45,25.72,16.9c0.14,0.09,0.14,0.09,0.28,0.14
			c0.14,0.09,0.14,0.09,0.28,0.14c0.14,0.03,0.14,0.03,0.28,0.06s0.14,0.03,0.26,0.03"/>
		<path class="st0" d="M136.67,493.98c-12.79-8.39-12.79-8.39-25.57-16.81c-0.14-0.09-0.14-0.09-0.26-0.2
			c-0.14-0.11-0.14-0.11-0.26-0.23c-0.11-0.11-0.11-0.11-0.23-0.26c-0.09-0.11-0.09-0.11-0.17-0.26"/>
		<path class="st0" d="M163.58,511.34c0.14,0,0.14,0,0.26-0.03c0.09-0.03,0.09-0.03,0.2-0.06c0.06-0.06,0.09-0.06,0.14-0.14"/>
		<path class="st0" d="M164.29,510.97c2.13-5.25,2.13-5.25,4.25-10.49c0.03-0.09,0.03-0.09,0.06-0.2c0-0.11,0-0.11,0-0.23
			c-0.03-0.14-0.06-0.14-0.09-0.26c-0.06-0.14-0.06-0.14-0.11-0.26c-0.09-0.14-0.09-0.14-0.17-0.28c-0.11-0.11-0.11-0.11-0.23-0.26
			c-0.11-0.11-0.11-0.11-0.23-0.23c-0.14-0.11-0.14-0.11-0.28-0.2c-3.91-2.55-3.91-2.55-7.8-5.13"/>
		<path class="st0" d="M159.7,493.45c-22.06-14.46-22.06-14.46-44.09-28.92c-0.14-0.09-0.14-0.09-0.28-0.17
			c-0.14-0.06-0.14-0.06-0.31-0.11c-0.11-0.06-0.11-0.06-0.26-0.09c-0.14,0-0.14,0-0.28,0c-0.11,0-0.11,0-0.23,0.03
			c-0.09,0.03-0.09,0.03-0.2,0.09"/>
		<path class="st0" d="M113.82,464.55c-1.9,5.36-1.9,5.36-3.8,10.72c-0.03,0.11-0.03,0.11-0.03,0.2c0,0.14,0,0.14,0,0.26
			c0.03,0.11,0.03,0.11,0.09,0.26c0.06,0.11,0.06,0.11,0.11,0.26"/>
		<path class="st0" d="M136.7,493.96c-12.79-8.39-12.79-8.39-25.55-16.78c-0.14-0.09-0.14-0.09-0.26-0.2
			c-0.14-0.11-0.14-0.11-0.26-0.23s-0.11-0.11-0.23-0.26c-0.09-0.14-0.09-0.14-0.17-0.26c-0.06-0.14-0.06-0.14-0.11-0.26
			c-0.06-0.14-0.06-0.14-0.09-0.26c0-0.11,0-0.14,0-0.26c0-0.09,0-0.09,0.03-0.2c0.96-2.75,0.96-2.75,1.96-5.5"/>
		<path class="st0" d="M112.69,463.14c18.37-21.24,18.37-21.24,36.72-42.5c0.11-0.09,0.11-0.09,0.26-0.17
			c0.14-0.06,0.14-0.06,0.28-0.11c0.14-0.03,0.14-0.03,0.31-0.06c0.17-0.03,0.17-0.03,0.37-0.03c0.17,0.03,0.17,0.03,0.37,0.03
			c0.2,0.06,0.2,0.06,0.4,0.11c0.23,0.06,0.23,0.06,0.43,0.14s0.2,0.09,0.4,0.2c0.23,0.11,0.23,0.11,0.43,0.23
			c25.35,16.5,25.35,16.5,50.72,33c0.2,0.11,0.2,0.11,0.4,0.26c0.17,0.17,0.2,0.17,0.37,0.34c0.17,0.17,0.17,0.17,0.34,0.34
			c0.14,0.17,0.14,0.17,0.28,0.34c0.14,0.2,0.14,0.2,0.26,0.4c0.11,0.17,0.11,0.17,0.23,0.37c0.06,0.2,0.06,0.2,0.14,0.4
			c0.06,0.17,0.06,0.17,0.09,0.37c0.03,0.17,0.03,0.17,0.03,0.34c0,0.17,0,0.17-0.03,0.31c-0.03,0.17-0.03,0.17-0.09,0.31
			c-2.21,5.27-2.21,5.27-4.45,10.52c-0.06,0.14-0.06,0.14-0.14,0.26c-17.61,21.83-17.61,21.83-35.21,43.63"/>
		<path class="st0" d="M134.15,423.67c-0.17-0.62-0.17-0.62-0.31-1.28c-0.09-0.34-0.09-0.34-0.14-0.68
			c-0.09-0.51-0.09-0.51-0.14-1.02"/>
		<path class="st0" d="M133.56,420.69c0.01,0.49,0.06,0.48,0.11,0.99c0.09,0.34,0.09,0.34,0.14,0.68c0.17,0.65,0.17,0.65,0.34,1.3"
			/>
		<path class="st0" d="M157.66,414.74c23.5,15.25,23.5,15.25,46.98,30.51c0.57,0.37,0.57,0.37,1.11,0.74
			c0.57,0.43,0.57,0.43,1.13,0.82c0.54,0.43,0.54,0.43,1.05,0.85c0.71,0.6,0.71,0.6,1.39,1.19c0.65,0.62,0.65,0.62,1.33,1.25
			c0.62,0.65,0.62,0.65,1.22,1.3c0.6,0.65,0.6,0.65,1.16,1.33c0.54,0.68,0.54,0.68,1.08,1.39c0.48,0.71,0.48,0.71,0.96,1.39
			c0.34,0.57,0.34,0.57,0.68,1.11c0.4,0.71,0.4,0.71,0.79,1.42c0.34,0.71,0.34,0.71,0.68,1.42c0.26,0.71,0.26,0.71,0.54,1.42
			c0.23,0.71,0.23,0.71,0.43,1.42c0.17,0.68,0.17,0.68,0.31,1.36c0.11,0.65,0.11,0.65,0.2,1.33c0.03,0.62,0.03,0.62,0.06,1.28
			c-0.03,0.45-0.03,0.45-0.06,0.91c-0.06,0.45-0.06,0.45-0.11,0.91c-0.11,0.57-0.11,0.57-0.26,1.13c-0.2,0.54-0.2,0.54-0.4,1.05
			c-0.11,0.26-0.11,0.26-0.23,0.51c-0.14,0.23-0.14,0.23-0.26,0.48c-0.14,0.23-0.14,0.23-0.31,0.45c-0.14,0.23-0.14,0.23-0.31,0.43
			c-0.17,0.23-0.17,0.23-0.37,0.43c-0.17,0.2-0.17,0.2-0.37,0.37c-0.2,0.2-0.2,0.2-0.4,0.37c-0.23,0.17-0.23,0.17-0.45,0.34
			c-0.45,0.31-0.45,0.31-0.94,0.6c-0.51,0.26-0.51,0.26-1.05,0.51c-0.4,0.14-0.4,0.14-0.82,0.28c-0.45,0.14-0.45,0.14-0.88,0.26
			c-0.65,0.11-0.65,0.11-1.28,0.23c-0.65,0.06-0.65,0.06-1.3,0.09c-0.68,0-0.68,0-1.36,0c-0.74-0.06-0.74-0.06-1.45-0.11
			c-0.74-0.11-0.74-0.11-1.47-0.23c0,0-5.61-1.53-7.26-2.63"/>
		<path class="st0" d="M168.63,444.96c-0.68-0.45-0.68-0.45-1.36-0.88c-0.09-0.09-0.09-0.09-0.2-0.17
			c-0.06-0.09-0.06-0.09-0.14-0.17c-0.06-0.11-0.06-0.11-0.11-0.2c-0.03-0.11-0.03-0.11-0.06-0.23c0-0.09,0-0.09,0-0.2
			c0.03-0.09,0.03-0.09,0.06-0.2c0.06-0.09,0.06-0.09,0.11-0.17c0.14-0.17,0.14-0.17,0.28-0.34c0.09-0.09,0.09-0.09,0.17-0.14
			c0.09-0.06,0.09-0.06,0.2-0.11c0.11-0.03,0.11-0.03,0.23-0.06c0.11,0,0.11,0,0.23-0.03c0.14,0.03,0.14,0.03,0.26,0.06
			c0.11,0.03,0.11,0.03,0.26,0.06c0.11,0.06,0.11,0.06,0.23,0.11"/>
		<path class="st0" d="M168.77,442.3c2.58,1.7,2.58,1.7,5.16,3.4c0.11,0.06,0.11,0.06,0.2,0.14c0.09,0.09,0.09,0.09,0.17,0.17
			c0.06,0.11,0.06,0.11,0.11,0.23c0.03,0.09,0.03,0.09,0.06,0.2c0,0.11,0,0.11,0,0.2c-0.03,0.11-0.03,0.11-0.06,0.2
			c-0.06,0.09-0.06,0.09-0.11,0.17c-0.14,0.17-0.14,0.17-0.28,0.37c-0.09,0.06-0.09,0.06-0.17,0.14c-0.09,0.06-0.09,0.06-0.2,0.09
			c-0.11,0.06-0.11,0.06-0.23,0.06c-0.11,0.03-0.11,0.03-0.23,0.03c-0.14,0-0.14,0-0.26-0.03c-0.11-0.03-0.11-0.03-0.26-0.09
			c-0.11-0.06-0.11-0.06-0.23-0.11c-1.9-1.25-1.9-1.25-3.83-2.5"/>
		<path class="st0" d="M174.33,446.95c0-0.11,0-0.09,0-0.2c-0.03-0.09-0.03-0.09-0.06-0.2c-0.06-0.11-0.06-0.11-0.11-0.2
			c-0.06-0.09-0.06-0.09-0.14-0.17c-0.11-0.09-0.11-0.09-0.2-0.17"/>
		<path class="st0" d="M173.82,446.01c-2.58-1.7-2.58-1.7-5.19-3.37c-0.11-0.06-0.11-0.06-0.23-0.11s-0.11-0.06-0.23-0.09
			c-0.14-0.03-0.14-0.03-0.26-0.03s-0.14,0-0.26,0c-0.11,0.03-0.11,0.03-0.23,0.09c-0.09,0.03-0.09,0.03-0.2,0.09
			c-0.06,0.09-0.06,0.09-0.14,0.14c-0.17,0.2-0.17,0.2-0.34,0.43"/>
		<polyline class="st0" points="166.56,505.38 166.45,505.52 164.26,510.88 164.15,511.05 		"/>
		<polyline class="st0" points="162.42,510.88 136.7,493.96 136.31,494.95 		"/>
		<line class="st0" x1="136.42" y1="495" x2="136.76" y2="494.07"/>
		<line class="st0" x1="163.58" y1="511.34" x2="163.64" y2="511.28"/>
		<line class="st0" x1="110.19" y1="476.23" x2="110.25" y2="476.18"/>
		<line class="st0" x1="164.18" y1="511.11" x2="164.29" y2="510.97"/>
		<polyline class="st0" points="114.05,464.27 113.91,464.38 113.82,464.55 		"/>
		<line class="st0" x1="112.04" y1="469.77" x2="166.45" y2="505.52"/>
		<line class="st0" x1="112.04" y1="469.77" x2="116.2" y2="464.92"/>
		<line class="st0" x1="113.71" y1="462.8" x2="150.43" y2="420.27"/>
		<polyline class="st0" points="135.6,427.3 135.88,427.89 135.29,426.65 135.57,427.27 		"/>
		<polyline class="st0" points="134.95,425.91 135.29,426.65 134.66,425.17 134.15,423.67 134.41,424.49 		"/>
		<polyline class="st0" points="136.33,428.69 135.88,427.89 135.94,427.98 		"/>
		<line class="st0" x1="134.44" y1="424.55" x2="134.95" y2="425.85"/>
		<line class="st0" x1="136.31" y1="494.95" x2="136.53" y2="494.69"/>
		<line class="st0" x1="136.79" y1="494.04" x2="136.76" y2="494.07"/>
		<polyline class="st0" points="138.38,450.04 143.79,443.71 144.16,442.72 155.05,449.84 148.98,456.98 138.06,449.84 
			144.16,442.72 		"/>
		<polyline class="st0" points="137.19,430.11 136.9,429.62 137.67,430.81 138.86,432.46 138.69,432.2 		"/>
		<line class="st0" x1="137.21" y1="430.13" x2="137.64" y2="430.79"/>
		<line class="st0" x1="137.67" y1="430.81" x2="138.15" y2="431.49"/>
		<line class="st0" x1="138.18" y1="431.52" x2="138.66" y2="432.17"/>
		<polyline class="st0" points="139,432.6 138.86,432.46 139.03,432.66 		"/>
		<line class="st0" x1="135.97" y1="428.01" x2="136.76" y2="429.4"/>
		<polyline class="st0" points="136.36,428.72 136.9,429.62 136.76,429.42 		"/>
		<line class="st0" x1="143.79" y1="443.71" x2="154.37" y2="450.6"/>
		<line class="st0" x1="164.15" y1="511.05" x2="164.35" y2="510.83"/>
		<polyline class="st0" points="171.15,460.36 165.17,467.56 176.14,474.73 182.1,467.47 171.15,460.36 170.78,461.32 
			165.45,467.73 		"/>
		<line class="st0" x1="167.81" y1="442.41" x2="167.92" y2="442.1"/>
		<line class="st0" x1="169.71" y1="499.51" x2="205.12" y2="455.82"/>
		<line class="st0" x1="170.78" y1="461.32" x2="181.44" y2="468.3"/>
		<line class="st0" x1="174.3" y1="446.66" x2="174.44" y2="446.32"/>
	</g>
</g>
<g id="Assoziationslinie">
	<g>
		<g>
			<line class="st4" x1="309.44" y1="277.58" x2="311.35" y2="275.27"/>
			<line class="st5" x1="316.55" y1="268.99" x2="359.39" y2="217.17"/>
			<line class="st4" x1="361.98" y1="214.03" x2="363.9" y2="211.72"/>
		</g>
	</g>
</g>
<g id="Pfeil">
	<polygon class="st6" points="287.14,330.58 300.09,340.79 304.79,282.49 246.94,300.93 261.27,310.11 222.97,357.03 250.62,376.4 	
		"/>
</g>
<g id="Dual_Stick_aktuell">
	<path class="st7" d="M228.73,403.33v2.89l-14.83,18.69l-1.15,0.32l-1.09-0.65l0.03-1.36l4.36-4.83l-0.74-1.56l12.08-15.12h0.29
		L228.73,403.33z M222.37,441.09v1.77l-4.8,15.95l-77.75,95.97l-2.15,0.21l3.42-11.73l0.03-1.21l-0.65-1.06l0.06-1.36l3.18-4.3
		l1.89-2.89l75.48-92.96h0.27L222.37,441.09z M56.54,547.87l-3.18,3.95l-0.03-1.68l0.97-3.36l0.62-0.06L56.54,547.87z
		 M133.26,534.37l-3.39,11.02l-3.39,4.57l-27.94,34.28L98.51,582l2.68-9.49l31.24-38.49L133.26,534.37z"/>
	<g id="Actor_.0_00000165914023544883969050000007668305527033351566_">
		<g>
			<path class="st8" d="M230.53,429.21l-5.95,7.34l0.03-0.44l-0.12-0.5l-0.27-0.5l-0.41-0.5l-0.5-0.44l-9.99-7.07l-0.88-0.56
				l-9.28-6.16l-10.32-6.34l-10.43-5.95l-10.52-5.54l-10.58-5.13l-0.56-0.21l-0.53-0.06l-0.44,0.09l-0.35,0.24"/>
			<path class="st8" d="M159.23,397.82l5.95-7.34l0.18-0.35"/>
			<path class="st8" d="M165.19,390.48l-3.51,11.91"/>
			<path class="st8" d="M161.29,397.41l5.95-7.34"/>
			<path class="st8" d="M225.93,444.83l-5.57,6.87"/>
			<path class="st8" d="M221.48,448.16l2.39-2.92l-1.27-0.62"/>
			<path class="st8" d="M224.58,436.55l-2,6.87"/>
			<path class="st8" d="M223.87,445.24l0.56,0.18l0.53,0.06l0.47-0.09l0.32-0.21"/>
			<path class="st8" d="M223.31,434.16l5.95-7.34"/>
		</g>
		<g>
			<path class="st9" d="M158.38,400.68l0.85-2.86l0.18-0.35l5.95-7.34l0.35-0.24l0.44-0.09l0.53,0.06l0.56,0.21l10.58,5.13
				l0.41,0.21l10.08,5.33l10.43,5.95l10.32,6.34l9.76,6.45l0.44,0.27l9.99,7.07l0.5,0.44l0.41,0.47l0.27,0.53l0.12,0.5l-0.03,0.44
				l-4.6,15.62l-0.18,0.35l-5.42,6.69"/>
		</g>
	</g>
	<g id="Actor_.1_00000081617061478251593540000002431460608331237049_">
		<g>
			<path class="st8" d="M154.4,400.47l-0.15,0.03"/>
			<path class="st8" d="M156.31,399.85l0.94-3.21l0.38-0.71"/>
			<path class="st8" d="M161.38,395.84l-4.04,4.98l-1.12-0.38l-1.06-0.12"/>
			<path class="st8" d="M157.35,400.82l10.67,5.19l10.64,5.6l10.52,6.01l10.43,6.4l10.29,6.81l10.08,7.13l1,0.85"/>
			<path class="st8" d="M154.31,400.26l2.95-3.63"/>
			<path class="st8" d="M218.5,457.62l3.48-4.27"/>
			<path class="st8" d="M217.94,458.33l4.36-14.94"/>
			<path class="st8" d="M221.6,454.03l-0.68,0.47l-0.88,0.18l-0.56-0.09"/>
			<path class="st8" d="M222.51,442.71v-0.06"/>
			<path class="st8" d="M222.57,441.82l-0.24-0.97l-0.53-1.03l-0.83-1"/>
			<path class="st8" d="M224.05,432.95l-3.86,4.77"/>
			<path class="st8" d="M222.69,442.47l3.86-4.75"/>
		</g>
		<g>
			<path class="st9" d="M154.28,400.09l3.36-4.16l0.65-0.44l0.91-0.18l1.06,0.12l1.12,0.41l10.7,5.16l10.61,5.63l10.55,6.01
				l10.4,6.4l10.29,6.78l10.11,7.13l0.97,0.88l0.83,0.97l0.53,1.03l0.27,1l-0.09,0.88l-4.57,15.62l-0.38,0.68l-3.18,3.95"/>
		</g>
	</g>
	<g id="Actor_.2_00000170999939711222705460000009385759318241712015_">
		<g>
			<path class="st8" d="M67.27,517.69l4.04-4.98l-0.09,0.85l0.27,1l0.53,1.03l0.83,0.97l0.97,0.88l-4.04,4.98"/>
			<path class="st8" d="M71.31,512.71l4.57-15.65l-4.04,5.01"/>
			<path class="st8" d="M75.46,518.6l-1.65-1.15"/>
			<path class="st8" d="M140.6,553.77l-4.04,5.01l4.6-15.65l0.06-0.85l-0.24-1l-0.56-1.03l-0.8-1l-1-0.85l-10.11-7.13l-10.26-6.78
				l-10.43-6.43l-10.55-6.01l-10.61-5.6L76,501.27l-1.15-0.41l-1.06-0.12l-0.88,0.18l-0.68,0.44"/>
			<path class="st8" d="M76,501.27l4.04-5.01"/>
			<path class="st8" d="M75.88,497.06l0.38-0.68"/>
			<path class="st8" d="M132.41,559.57l4.07-5.01l-9.58-4.63"/>
			<path class="st8" d="M136.57,558.78l-0.38,0.68"/>
			<path class="st8" d="M136.48,554.56l1.12,0.41l1.06,0.12l0.91-0.18l0.65-0.44"/>
			<path class="st8" d="M138.63,538.38l4.04-4.98"/>
			<path class="st8" d="M141.16,543.13l4.04-4.98"/>
		</g>
		<g>
			<path class="st9" d="M71.4,523.59l-1.62-1.15l-1-0.85l-0.8-1l-0.53-1.03l-0.24-0.91l-0.03-0.06l0.09-0.88l4.57-15.62l0.38-0.71
				l4.04-4.98l0.68-0.44"/>
			<path class="st9" d="M79.33,496.03l-0.44-0.15"/>
			<path class="st9" d="M80.03,496.26l10.02,4.86"/>
			<path class="st9" d="M90.7,501.45l9.99,5.25"/>
			<path class="st9" d="M101.34,507.05l9.87,5.66"/>
			<path class="st9" d="M111.87,513.06l9.79,6.01"/>
			<path class="st9" d="M140.63,553.74l-0.41,0.74l-4.04,4.98l-0.68,0.44l-0.88,0.18l-1.06-0.12l-1.15-0.38l-9.61-4.69"/>
			<path class="st9" d="M122.3,519.46l9.64,6.4"/>
			<path class="st9" d="M132.56,526.27l9.49,6.69"/>
			<path class="st9" d="M145.2,538.15l-4.54,15.44"/>
			<path class="st9" d="M143.67,534.26l0.41,0.5"/>
			<path class="st9" d="M142.67,533.4l0.47,0.38"/>
			<path class="st9" d="M144.79,535.82l-0.32-0.56"/>
			<path class="st9" d="M145.02,536.29l0.15,0.65"/>
			<path class="st9" d="M145.26,537.26l-0.03,0.56"/>
		</g>
	</g>
	<g id="Actor_.3_00000179605674773144178930000010232650373992295827_">
		<g>
			<path class="st10" d="M76.26,496.38l0.68-0.44l0.91-0.18l1.03,0.12l1.15,0.38l10.67,5.19l10.64,5.6l10.52,6.01l10.43,6.4
				l10.26,6.81l10.11,7.13l1,0.85l0.8,1l0.56,1.03l0.24,0.97l-0.06,0.88l-4.57,15.62l-0.41,0.71"/>
			<path class="st10" d="M80.03,496.26l77.31-95.44"/>
			<path class="st10" d="M140.63,553.77l77.31-95.44"/>
			<path class="st10" d="M142.67,533.4l77.31-95.44"/>
			<path class="st10" d="M145.2,538.15l77.31-95.44"/>
		</g>
		<g>
			<path class="st11" d="M75.46,518.6l-1.65-1.15l-0.97-0.88l-0.83-0.97l-0.53-1.03l-0.27-1l0.09-0.85l0.27-0.91l4.3-14.74
				l0.38-0.68l77.34-95.44l0.65-0.44l0.91-0.18l1.06,0.12l1.12,0.38l10.67,5.19l10.64,5.6l10.52,6.01l10.43,6.4l10.29,6.81
				l10.08,7.13l1,0.85l0.83,1l0.53,1.03l0.24,0.97l-0.06,0.88l-4.57,15.62l-0.38,0.71l-77.34,95.44l-0.65,0.44l-0.91,0.18
				l-1.06-0.12l-1.12-0.41l-9.58-4.63"/>
		</g>
	</g>
	<g id="Actor_.4_00000125567818515028715370000003489692604877708438_">
		<g>
			<path class="st10" d="M52.68,553l45.27,26.82"/>
			<path class="st10" d="M96.75,584.72l1.41-4.77"/>
		</g>
		<g>
			<path class="st11" d="M96.57,584.6L51.3,557.78l1.39-4.77"/>
			<path class="st11" d="M53.33,552.21l3.09-3.83"/>
		</g>
	</g>
	<g id="Actor_.5_00000174573552889222837210000005315513580477523881_">
		<g>
			<path class="st10" d="M181.13,412.35l21.31-26.32"/>
			<path class="st10" d="M225.4,399.65l-21.49,26.53"/>
		</g>
		<g>
			<path class="st11" d="M177.33,410.26l19.9-24.58l0.94-0.53l1.27-0.12l1.47,0.29l1.53,0.71l22.96,13.62l1.41,1.03l1.18,1.27
				l0.85,1.39l0.38,1.33l-0.06,1.18l-0.56,0.91L209.78,430"/>
		</g>
	</g>
	<g id="Actor_.6_00000007423964090957498950000008584015745171603584_">
		<g>
			<path class="st10" d="M52.5,553.59l-1.21,4.19l45.45,26.94"/>
			<path class="st10" d="M52.68,553l1.89-6.43"/>
			<path class="st10" d="M133.71,533.75l-32.6,40.23v-0.21l-0.06-0.24l-0.12-0.18l-0.21-0.24l-0.24-0.18l-45.95-27.23l32.6-40.23"/>
			<path class="st10" d="M54.54,545.72l-0.27-0.12l-0.24-0.06l-0.21,0.03l-0.15,0.09"/>
			<path class="st10" d="M130.32,545.25l-32.57,40.23l-0.09,0.18"/>
			<path class="st10" d="M101.11,573.99l-3.36,11.49"/>
			<path class="st10" d="M100.49,572.96l32.6-40.23"/>
		</g>
		<g>
			<path class="st11" d="M86.25,505.43l-32.57,40.23l-0.12,0.15l-3.36,11.52v0.18l0.06,0.24l0.15,0.24l0.18,0.21l0.24,0.18
				l45.95,27.23l0.27,0.12l0.24,0.03h0.21l0.18-0.09l32.57-40.23"/>
			<path class="st11" d="M54.57,546.58l45.45,26.97l-1.86,6.4"/>
			<path class="st11" d="M96.75,584.72l1.33-4.51"/>
		</g>
	</g>
	<rect x="0.5" y="0.5" class="st12" width="659.56" height="622.57"/>
</g>
</svg>
