<?xml version="1.0" encoding="utf-8"?>
<!-- Generator: Adobe Illustrator 27.7.0, SVG Export Plug-In . SVG Version: 6.00 Build 0)  -->
<svg version="1.1" id="Ebene_1" xmlns="http://www.w3.org/2000/svg" xmlns:xlink="http://www.w3.org/1999/xlink" x="0px" y="0px"
	 viewBox="0 0 591.94 423.5" style="enable-background:new 0 0 591.94 423.5;" xml:space="preserve" width="300" >
<style type="text/css">
	.st0{fill-rule:evenodd;clip-rule:evenodd;fill:#E5E5E5;}
	.st1{fill:none;stroke:#000000;stroke-width:1.0009;stroke-linecap:round;stroke-linejoin:round;stroke-miterlimit:10;}
	.st2{font-family:'MyriadPro-Regular';}
	.st3{font-size:72px;}
	.st4{fill:none;stroke:#1D1D1B;stroke-width:3;stroke-miterlimit:10;}
	.st5{fill:none;stroke:#1D1D1B;stroke-width:0.75;stroke-miterlimit:10;}
</style>
<g>
	<path class="st0" d="M304.61,128.09l4.03,2.52l3.06,3.03l-1.02,0.06l-8.59-3.09l-3.54-2.58l-0.2-0.94l3.26-0.03L304.61,128.09z
		 M365.06,147.74l3.57,2.47l3.49,4.59l3.03,8.02l1.5,11.11v10.24l-0.96,10.55l-24.72-8.22h-1.7l-4.85,4.22l-18.15,16.1l-72.75,64.76
		l-3.32,5.76l-1.5,6.07l-3.52,47.35l-0.17,8.56l191.04,62.83l1.53,0.2l4.05-55.49l1.5-6.04l3.06-5.5l12.59-11.6l79.56-70.54
		l3.49-3.06l2.1-0.2l0.51,0.54l0.99,3.6l-3.57,49.48l-0.99,8.08l-1.16,3.37l-2.38,4.68l-5.02,5.05l-32.24,28.69l-10.55,9.07
		l-0.6-0.62l-0.43,1.67l-40.54,36.01l-6.97,6.15l-2.41-0.03l-176.3-57.98l-1.45,0.2l-12.33,10.89l-6.35,3.71l-5.19,1.36h-3.37
		l-17.64-5.53l-17.64-7.06l-21.66-7.06l-6.58-0.99l-18.06-6.1l-4.03-3.52l-3.06-5.02l-1.05-2.98l-0.96-6.1l-0.14-3.06l0.6-0.03
		l76.18,24.89l0.79-16.25l2.5-16.13l3.66-14.97l5.59-16.61l5.53-12.56l2.52-5.05l4.82-8.79l7.31-10.83l7.06-8.05l3.26-2.75
		l84.83-75.36l6.04-4.54l3.88-1.67l2.01-0.51h4.2L365.06,147.74z M270.44,157.55l-33.03,29.43l-9.38,8.31v-0.99l40.32-35.81
		l2.58-2.15L270.44,157.55z M303.25,167.13l-1.64,1.93l-9.07,8.05l-32.27,28.75v-0.99l4.56-4.08l27.7-24.7l9.07-8.02l1.56-1.16
		L303.25,167.13z M295.62,154.94l-3.09,3.03l-52.85,46.9l-4.08,3.52v-1.53l3.83-3.26l55.97-49.87l0.23,0.09V154.94z M42.18,227.33
		l76.04,25.21l3.6,1.42l-0.06,4.82l-1.53-0.17l-74.99-24.78l-2.55-1.47l-1.56-2.98l0.06-2.61L42.18,227.33z M396.59,242.55v-0.54
		l12.84-11.45l5.87-5.36l0.65,0.06l-0.48,4.28l-15.34,13.92l-2.35-0.48L396.59,242.55z M179.69,238.04l1.56-4.45l3.52-4.05
		l3.83-2.21l4.56-1.02l1.64-0.03v5.25l-1.5,20.64l-0.51,2.58l-8.05-2.72l-2.5-2.07l-1.56-2.47l-1.02-3.01L179.69,238.04z
		 M339.94,237.02l-3.09,1.05l-5.19,4.37l-3.57,3.54l-0.99,0.17l0.17-0.99l9.07-8.11l1.84-1.19l1.76,0.03V237.02z M347.25,286.22
		l4.2-3.83l14.72-13.13l0.45-0.14l-0.54,4.22l-4.03,4.03l-11.28,9.92l-1.3,0.03L347.25,286.22z M542.43,256.98l-0.06,6.27
		l-1.47,20.61l-0.45-0.03l-1.59,1.08l-91.69,81.6l-4.51,4.08l-0.03-5.08l1.5-20.16l0.99-4.05l1.87-2.67l14.29-12.42l14.09-12.59
		l59.43-52.91l5.1-4.51l0.48-0.17L542.43,256.98z"/>
	<path class="st1" d="M42.32,222.34l-0.06,3.83l0.2,1.98l0.23,1.22l0.51,1.7l0.4,0.82l0.37,0.62l0.57,0.62l-0.43-0.43l-0.34-0.68
		l-0.65-1.56l-0.26-0.91l-0.31-2.07l-0.14-2.35l0.11-2.61L42.32,222.34l0.31-2.75l0.48-2.86l0.71-2.95l1.28-4.14l1.19-3.12
		l1.25-2.78l1.3-2.47l1.45-2.35l1.5-2.07l1.47-1.67l0.62-0.57l-1.56-0.51 M44.53,233.14l1.02,0.82 M43.85,233.03l0.48,0.14
		 M44.59,233.22l0.06,0.09 M42.52,222.54l0.51-4.22l0.99-4.45l0.88-2.98l1.62-4.39l1.59-3.4l1.73-3.12l2.21-3.15l1.5-1.7l0.74-0.68
		l-0.2-0.03l-0.2,0.2 M46.29,234.22l-0.17-0.03 M124.82,226.25l-0.45,0.65l-0.11,0.77l0.34,0.4l0.6,0.31l0.14-0.77l0.28-0.77
		l0.57-0.82l-0.71-0.09L124.82,226.25l7.12-6.32l-77.66-25.49l48.48-43.18l1.47-1.11l1.39-0.74l1.11-0.26l0.85-0.03 M54.08,194.41
		l48.26-42.95l-1.53-0.51 M102.34,151.46l0.23-0.2h0.2l77.66,25.52l-48.48,43.15 M102.45,151.37l0.77-0.68l1.53-0.96l0.68-0.28
		l0.79-0.2 M106.31,149.22l0.28-0.06 M108.44,149.39l-0.28-0.11 M119.3,294.98v0.34l0.17,0.23l0.77,0.48l4.96-67.65l32.61,10.69
		l1.11-2.3l-32.72-10.75l103.88-92.49l-0.71-0.06l-0.62,0.28 M157.8,239.07l-3.46,7.91l-3.09,8.08l-2.75,8.31l-2.32,8.31l-1.9,8.28
		l-1.45,8.11l-0.96,7.83l-0.45,7.09l-21.18-6.95l0.03,0.6l0.23,0.34 M121.93,259.08l2.32-31.64 M141.41,302.97v0.85 M167.86,342.44
		l-15.11-5.1l-1.93-1.28l-1.73-1.7l-0.82-1.02l-1.47-2.38l-1.28-2.78l-1.08-3.09l-0.85-3.57l-0.65-3.86l-0.43-4.14l-0.11-2.21
		l-0.09-4.62l0.14-4.85l0.37-5.08l0.6-5.19l0.82-5.44l1.62-8.31l1.36-5.61l2.35-8.48l1.81-5.61l3.01-8.28l2.21-5.36l2.32-5.22
		l3.71-7.49l2.61-4.68l4.05-6.49l4.14-5.84l2.81-3.43l2.84-3.09l2.78-2.67l-0.71-0.09l-0.62,0.31l-2.72,2.61l-2.98,3.26l-2.78,3.37
		l-1.36,1.84l-2.72,3.91l-4,6.41l-2.55,4.62l-2.52,4.93 M154.93,338.19l-0.51-0.17 M155.19,338.27l0.37,0.14 M155.73,338.44
		l0.34,0.11 M169.79,343.09l-0.74-0.26 M171.58,343.26h-0.11l1.53,0.11l2.04,0.37l-1.11-0.28l-1.84-0.26l-1.45-0.03l-0.23,0.03
		l-0.03,0.06l0.11,0.06 M170.56,343.35h0.09 M170.78,343.38l0.11,0.03 M171.29,343.29l0.17-0.03l-0.26,0.03 M179.12,344.85
		l-2.32-0.74l-1.76-0.37l0.51,0.11 M178.89,344.76l20.67,6.8l4.48,1.76l5.64,2.47 M179.18,247.74l-0.77-2.35l-0.43-2.5l-0.06-2.15
		l0.31-2.75l0.51-2.01l1.11-2.64l0.99-1.64l1.73-2.15l1.36-1.28l2.24-1.56l2.47-1.19l2.64-0.82l2.67-0.43l2.72-0.09l2.58,0.28
		l2.52,0.62l-0.48,0.96l-0.26,1.13l-2.18,29.63l7.09,2.32l-0.26,0.03l-0.28,0.23l-0.54,0.88l-19.31-6.32l-1.3-0.57l-1.79-1.16
		l-1.08-1.02l-1.36-1.81L179.18,247.74 M180.17,241.87v-0.4v1.33l0.14,1.33l0.23,1.25l0.6,1.81l0.88,1.81 M181.96,248.9l0.77,1.08
		l0.79,0.91l0.96,0.79l1.08,0.68 M181.16,247.32l-0.03-0.11 M180.17,241.48l0.09-1.25l0.31-1.79l0.45-1.7l0.68-1.67l0.85-1.59
		l1.02-1.45l1.84-1.87l2.07-1.5l1.5-0.79l1.53-0.62l1.62-0.45l1.64-0.28l1.67-0.11l1.67,0.03l1.9,0.26l2.01,0.51l19.28,6.32
		l-1.62,22.14l1.67-1.33l1.11-1.02l2.01-2.18l0.91-1.19l1.08-1.67l1.16-2.44 M180.17,241.14l0.06-0.4 M267.13,128.75l0.62-0.31
		l0.71,0.09l-86.59,77.06l6.41,2.13l-0.65,0.88l-0.23,1.11l0.23,1.28l0.48,1.02l1.16,1.64l1.22,1.28l1.53,1.36l2.89,2.13l3.66,2.24
		l4.34,2.18l5.05,2.18l5.42,1.9l5.59,1.62l5.42,1.22l5.27,0.91l4.76,0.51l5.42,0.26l2.81-0.06l2.84-0.23l2.58-0.43l1.98-0.51
		l1.5-0.65l1.11-0.74l6.41,2.13l-2.78,2.69l-2.84,3.06l-2.81,3.46l-2.78,3.77l-2.72,4.14l-2.69,4.39l-2.61,4.71l-2.5,4.9l-2.41,5.13
		l-2.27,5.33l-2.13,5.42l-1.96,5.53l-1.81,5.61l-1.62,5.64l-1.45,5.64l-1.25,5.59l-1.02,5.53l-0.82,5.39l-0.6,5.25l-0.37,5.08
		l-0.14,4.85l0.09,4.62l0.31,4.31l0.51,4.03l0.77,3.71l0.96,3.32l1.16,2.95l1.39,2.55l1.59,2.18l1.73,1.7l1.93,1.28l0.99,0.45
		l1.11,0.37 M180.54,205.81l72.61-64.64l-23.08-7.63l0.2-0.11h0.31 M180.42,176.77l3.09-2.75 M185.56,253.95l0.57-0.91l0.26-0.2
		l0.28-0.03l-1.16-0.48 M198.85,256.81l-12.19-4 M188.28,207.71l86.62-77.09l0.68-0.48l0.88-0.4l1.02-0.31l1.28-0.26l2.35-0.2
		l2.92,0.06l3.57,0.31l3.86,0.57l4.56,0.91l5.13,1.19l5.33,1.42l5.56,1.64l5.53,1.81l5.16,1.9l4.65,1.87l4,1.84l3.09,1.64l2.5,1.62
		l1.67,1.42l1.02,1.28l0.43,1.11l0.03,0.37l-0.11,0.68l-0.28,0.57l-0.51,0.57l-86.56,77.06 M198.4,351.17l-0.2-0.06 M201.77,225.09
		l19.31,6.32l-0.51,0.99l-0.26,1.11l1.84,0.77l1.76,1.08l1.5,1.39l1.11,1.64l0.48,1.22l0.28,1.3l0.06,1.64l-0.23,1.79
		 M204.86,260.27l0.82,0.23l1.45,0.26h1.56l1.62-0.17l1.64-0.37l1.47-0.51l1.16-0.48l1.84-0.96l2.81-1.81l1.47-1.19l1.59-1.45
		l1.45-1.5l1.3-1.59l1.73-2.61l0.74-1.45l0.68-1.59l0.62-2.3l0.14-1.47l-0.03-1.42l-0.45-1.98l-0.88-1.81l-0.82-1.11l-0.99-0.99
		l-1.16-0.88l-0.85-0.51l-1.3-0.65l-1.39-0.54 M205.94,259.14l1.25,0.31l1.33,0.11l-0.77-0.03l2.04-0.03l2.07-0.4l1.42-0.45
		l2.04-0.88l1.98-1.16l1.39-0.96 M211.24,356.47l-0.06-0.03 M214.99,357.92l0.54,0.2l-0.2-0.09 M215.92,358.23l-0.4-0.11
		 M363.41,147.12l-2.18-0.37l-1.19-0.03L357.6,147l-2.07,0.62l-1.73,0.68l-2.67,1.42l-2.72,1.84l-1.39,1.11l-87.98,78.25l0.68,0.37
		l0.54,0.62l0.28,0.74v0.37l-2.72,2.61l-2.75,3.01l-2.75,3.37l-2.69,3.69l-4,6.12l-2.58,4.45l-2.5,4.68l-3.54,7.43l-3.26,7.8
		l-2.95,8.08l-2.58,8.22l-2.15,8.25l-1.73,8.14l-1.28,7.94l-0.79,7.63l-0.28,7.17l0.06,4.51l0.14,2.13l0.4,4.08l0.28,1.93l0.34,1.81
		l0.82,3.43l1.05,3.09l0.62,1.39l1.33,2.5l0.74,1.08l1.62,1.9l0.88,0.79l0.94,0.68l1.19,0.68l1.79,0.71l1.08,0.23l2.24,0.17
		l1.16-0.11l1.19-0.2l2.47-0.71l2.55-1.19l1.3-0.74l1.3-0.85l2.69-2.01l10.92-9.64l-14.46-4.73l-0.51-0.28l-0.45-0.48l-0.37-0.68
		l-0.28-0.88l-0.17-1.02v-2.47l192.94,63.37v2.47l0.17,1.02l0.26,0.88l0.37,0.68l0.45,0.48l0.54,0.28 M226.13,194.95l-2.18-0.82
		l0.09-1.08l43.29-38.53l4,1.3l-43.27,38.53l-0.11,1.28L226.13,194.95 M224.03,193.05l4.03,1.3 M228.74,362.43l2.78,0.94
		 M227.06,244.57l-0.06,0.17l0.31-1.76l-0.06,0.48 M227.01,244.74l-0.45,1.28 M227.23,243.69l0.11-1.7 M227.94,195.63l43.29-38.53
		l0.09-1.28 M232.39,207.93l-1.08-0.34l0.11-1.56l4.03,1.3l-0.11,1.59L232.39,207.93 M231.43,206.03l60.62-53.96l4.03,1.33
		l-60.62,53.93 M233.13,363.76l0.09,0.03 M235.34,208.93l60.62-53.96l0.11-1.56 M244.84,336.71l3.8-51.94l192.94,63.4l-3.8,51.91
		l2.58-2.32l0.03-0.26l0.09,0.03l0.06,1.64l0.17,0.6l0.28,0.43l0.34,0.23l-0.57-0.17l-0.14-0.26l-0.17-0.6l-0.09-1.64
		 M251.53,355.74l-0.23,0.62l-0.28,0.28 M248.64,284.77l0.43-2.84l0.34-1.5l0.45-1.47l1.11-2.89l1.36-2.58l1.47-2.01l0.74-0.77
		l93.51-83.22l192.94,63.37l-0.34,4.73l0.45-0.34l0.45-0.17h0.45l0.37,0.26l0.26,0.43l0.2,0.6l0.06,0.77v0.88l-3.63-1.19l-92.12,82
		l0.34-4.71l-192.94-63.4 M253.15,141.16l0.23-0.2 M256.1,204.87l4.03,1.13l0.09-1.08l-4.03-1.33L256.1,204.87 M256.18,203.6
		l43.29-38.53l4.03,1.33l-43.29,38.53 M260.55,233.03l86.59-77.06l2.69-2.21l1.33-0.96l2.64-1.59l2.55-1.19l2.47-0.71l2.35-0.31
		l2.24,0.17l1.05,0.23l2.04,0.82l1.87,1.25l0.88,0.79l1.62,1.87l1.45,2.32l1.25,2.67l0.54,1.5l0.96,3.26l0.37,1.76l0.62,3.74
		l0.26,2.01l0.28,4.22l0.06,2.21l-0.11,7l-0.37,4.93l-0.54,4.91l-24.89-8.17l-0.6-0.09l-0.65,0.14l-0.71,0.37l-0.74,0.57
		 M260.12,206.01l43.29-38.53l0.09-1.08 M261.09,347.26l0.37,0.11 M274.9,130.62l-6.44-2.1l2.38-1.98l1.76-1.28l1.36-0.88l2.67-1.42
		l1.73-0.71l2.1-0.6l2.41-0.28l1.16,0.03l1.13,0.11 M276.54,122.99l28.81,8.96l-0.65-0.2l-2.72-1.22l-1.62-0.88l-1.33-0.96
		l-0.65-0.65l-0.37-0.51l-0.11-0.4l0.17-0.45l0.62-0.23l0.65-0.03l1.81,0.28l-3.01-0.99 M288.56,122.54l3.32,1.11l-2.95-0.99
		 M287.12,122.05l-0.37-0.11 M291.88,123.64l6.07,2.01 M299.08,128.21l0.37,0.48l0.54-0.09l0.94,0.17l2.78,1.05l9.33,4.56
		 M299.45,128.69l1.08,0.85l1.73,0.99l-0.17-0.09l2.32,1.05l1.98,0.71h-0.28l-0.77-0.26 M299.19,128.4l-0.03-0.09 M301.15,126.7
		l1.16,0.34 M302.51,127.1l0.23,0.09 M306.11,132.2l19.45,6.38l3.23,0.94l5.27,1.02l4.76,0.6l-0.37-0.09l0.43-0.48l0.34-0.09
		 M306.4,132.2l19.28,6.32l-0.11,0.06 M308.32,129.37l0.65,0.31 M319.92,134.13l-0.34,0.11l-0.4,0.48l-0.4,0.77l-0.2,0.71
		 M325.67,138.53l2.92,0.85l3.09,0.68l3.12,0.54l3.66,0.45 M336.79,238.16l0.48-0.31l1.3-0.43l1.59-0.06l1.59,0.31l0.11-1.59
		l1.59,0.54l-0.11,1.56l1.25,0.62l0.37,0.43l-9.53,8.48l-0.45,0.31l-0.62,0.26l-0.71,0.14l-1.59,0.09l-0.82-0.11l-2.35-0.71
		l-1.22-0.62l-0.4-0.4l0.11-1.59l9.53-8.48L336.79,238.16l-9.53,8.51l-0.26-0.4l-0.06-0.43l0.14-0.43l0.28-0.34 M336.9,236.6
		l0.48-0.34l1.3-0.4l1.59-0.06l1.59,0.28 M341.75,237.68l1.59,0.51 M339.2,151.74l6.78,2.27l0.57,0.45l0.31,0.4l0.26,0.74l0.03,0.37
		 M339.94,141.25l-0.11-0.06l2.15,0.23l-3.15-0.28l0.62,0.06 M342.66,141.48l-0.68-0.06l4.88,0.4l0.82,0.14l0.4,0.17 M344.95,239.24
		l0.31-0.37l0.11-0.43l-0.06-0.4l-0.23-0.43l-0.4-0.37l-1.25-0.62 M348.22,285.31l-1.25,1.11l32.15,10.58l19.9-17.75l-32.15-10.55
		L348.22,285.31 M348.13,142.16l0.09,0.03l-0.43-0.2 M347.88,142.07l-0.31-0.11 M350.6,287.61l15.93-14.2l28.52,9.38 M348.92,142.35
		l2.44,0.85l-2.5-0.85 M351.05,143.09l0.31,0.11l-3.15-1.02L351.05,143.09 M351.36,143.2l5.33,1.73 M362.22,146.75l-7.74-2.52
		 M354.76,144.28l1.67,0.54 M360.75,146.27l0.57,0.17 M366.53,273.4l0.34-4.71 M365.51,147.97l-0.23-0.11 M375.63,194.67l0.14,0.06
		 M405.6,238.64l10.26-9.16l0.37-4.71L396.3,242.5l32.18,10.55l5.67-5.05L405.6,238.64l-5.67,5.05 M415.86,229.48l28.55,9.38
		l3.97-3.54l-32.15-10.55 M434.15,248l10.26-9.13 M440.76,400.25l0.48,0.43l0.4,0.03l0.48-0.17l0.51-0.37l-0.37,4.73 M442.46,400.11
		l46.7-41.51l0.11,0.03l-46.64,41.54L442.46,400.11l-0.71,0.37l-0.43-0.06 M440.48,397.53l1.96-26.74l98.53-87.69l-2.01,27.79
		l-0.51,2.04l-0.82,1.93l-0.96,1.56l-0.54,0.54l-0.34,4.71 M442.43,370.79l-0.09-0.03l-1.96,26.74 M543.68,249.87l-0.6-0.06
		l-0.68,0.14l-0.68,0.34l-0.74,0.57l-93.51,83.24l-0.74,0.74l-1.47,2.04l-1.36,2.55l-1.11,2.89l-0.45,1.5l-0.34,1.47l-0.43,2.86
		l2.61-2.32l0.34-1.98l0.65-2.01l0.94-1.79l1.02-1.25 M442.35,370.76l1.84-24.92 M488.96,363.14l0.31-4.51 M489.1,363.19l0.37-4.71
		l46.64-41.54l-0.11-0.06l-46.7,41.59h0.17 M489.16,358.6l0.14-0.11 M540.96,283.1l-22.8-7.51 M536,316.89l1.05-1.22l0.91-1.79
		l0.68-2.01l0.34-1.98 M545.44,255.71l-2.55,2.3l-3.83,51.91l2.61-2.32 M540.65,255.6l-1.39,1.22 M288.56,122.54l-2.3-0.77
		l-1.47-0.31l-2.3-0.17l-1.56,0.11l-1.25,0.2l-1.59,0.43l-1.28,0.43l-2.61,1.19l-2.98,1.84l-2.69,2.01l-15.11,13.41l-22.85-7.49
		l-0.65-0.11l-0.74,0.14l-0.43,0.28l-45.25,40.29l-75.36-24.75l-0.68-0.14l-0.88,0.03l-0.85-0.28l-0.91-0.03l-0.94,0.2l-0.99,0.43
		l-1.05,0.62l-1.05,0.85L52.33,194.1l-1.08,1.05l-1.08,1.25l-2.13,3.01l-0.99,1.73l-1.9,3.83l-1.64,4.17l-1.33,4.31l-0.91,4.28
		l-0.31,2.04l-0.28,3.88v1.79l0.14,1.62l0.26,1.47l0.37,1.33l0.45,1.08l0.57,0.91l0.65,0.71l0.74,0.48l0.79,0.28l0.82,0.6l0.65,0.28
		l75.82,24.89l-2.67,36.01l0.17,0.91l0.43,0.6l0.62,0.37l20.92,6.86l0.03,6.38l0.31,4.28l0.26,2.32l0.62,3.8l0.43,1.79l0.94,3.32
		l0.68,1.81l0.62,1.42l1.36,2.55l0.99,1.42l1.64,1.93l1.19,1.05l1.93,1.28l1.36,0.65l1.96,0.62 M155.19,338.27l-0.31-0.09l2.18,0.71
		 M155.28,338.3l0.85,0.28l-0.06-0.03 M208.81,355.42l-6.1-2.64l-4.31-1.62l-19.31-6.32l-3.49-0.99l-3.29-0.26l-1.76-0.26l-15-4.93
		 M165.91,341.76l-0.17-0.06l0.31,0.11 M165.37,341.59l0.37,0.11l-0.51-0.17 M169.79,343.09l0.65,0.2 M169.05,342.84l-1.19-0.4
		 M211.19,356.45l-2.58-1.13 M215.33,358.03l-4.31-1.67 M215.92,358.23l0.82,0.28l-1.5-0.51 M216.74,358.52l9.38,3.06l-3.01-0.99
		 M222.87,360.5h-0.06 M228.74,362.43l-2.61-0.85l5.47,1.81l-0.09-0.03 M356.69,144.93l7.8,2.55l1.36,0.62l1.93,1.3l1.19,1.02
		l0.85,0.91l1.02,1.33l1.47,2.32l1.39,3.09l0.57,1.5l0.96,3.29l0.74,3.66l0.51,4l0.34,4.54l0.09,4.54l-0.17,4.79l-0.37,4.99
		l-0.6,5.33l167.9,55.15l0.54,0.28l0.45,0.48l0.37,0.68l0.26,0.88l0.17,1.02v2.47l-3.8,51.91l-0.4,2.86l-0.79,2.98l-1.13,2.89
		l-1.36,2.55l-1.45,2.04l-0.77,0.74l-43.63,38.84l-3.03,2.69l-0.14-0.06l-0.03,0.23l-46.67,41.54l-0.71,0.57l-0.71,0.34l-0.65,0.14
		l-0.62-0.06l-178.11-58.52l-11.74,10.41l-2.72,2.04l-1.33,0.88l-2.95,1.59l-2.55,0.96l-1.62,0.43l-1.22,0.2l-1.56,0.11l-1.16-0.03
		l-1.5-0.2l-1.08-0.26l-2.49-0.82 M229.84,362.8l1.05,0.34 M287.12,122.05l0.88,0.28l-1.25-0.4 M287.99,122.34l0.94,0.31
		 M288.76,122.59l9.38,3.12l-0.2-0.06 M298.14,125.71l4.37,1.39 M301.26,126.7l3.8,1.33l4.11,1.7l-0.14-0.03 M347.88,142.07
		l0.28,0.09l-0.54-0.23l-0.88-0.14l-4.08-0.37l-3.49-0.96l-19.31-6.35l-4.31-1.62l-6.38-2.75 M309.68,129.96l-0.09-0.03
		 M347.62,141.93l0.54,0.23l-0.09-0.03 M356.44,144.82l1.19,0.4l-9.47-3.06l0.77,0.2 M348.16,142.16l0.71,0.2 M363.38,147.12
		l-1.16-0.37 M362.99,146.98l0.45,0.17l-2.69-0.88l0.48,0.14 M360.75,146.27l2.01,0.65"/>
</g>
<text transform="matrix(1 0 0 1 18.7878 78.3856)" class="st2 st3">USB-C</text>
<text transform="matrix(1 0 0 1 350.6521 78.6259)" class="st2 st3">USB-A</text>
<line class="st4" x1="88.89" y1="86.58" x2="113.17" y2="181.17"/>
<line class="st4" x1="460.17" y1="268.69" x2="472.67" y2="89.55"/>
<rect x="0.38" y="0.38" class="st5" width="591.19" height="422.75"/>
</svg>
