<?xml version="1.0" encoding="UTF-8"?>
<svg id="uuid-e0be12e9-df68-4d51-af18-1f928e07031d" xmlns="http://www.w3.org/2000/svg" version="1.1" xmlns:xlink="http://www.w3.org/1999/xlink" viewBox="0 0 525.2 244.5">
  <!-- Generator: Adobe Illustrator 29.3.1, SVG Export Plug-In . SVG Version: 2.1.0 Build 151)  -->
  <defs>
    <style>
      .st0 {
        stroke-width: 3.5px;
      }

      .st0, .st1, .st2, .st3, .st4, .st5, .st6, .st7, .st8, .st9 {
        fill: none;
      }

      .st0, .st6, .st7, .st10, .st11, .st8, .st12, .st13, .st9 {
        stroke-miterlimit: 10;
      }

      .st0, .st8 {
        stroke: #fff;
      }

      .st1 {
        stroke-width: 1.3px;
      }

      .st1, .st2, .st4, .st5, .st6, .st11, .st12, .st9 {
        stroke: #010101;
      }

      .st1, .st2, .st4, .st5, .st7, .st14 {
        stroke-linecap: round;
      }

      .st1, .st2, .st4, .st5, .st14 {
        stroke-linejoin: round;
      }

      .st2, .st10 {
        stroke-width: .6px;
      }

      .st4, .st7, .st11, .st12 {
        stroke-width: .7px;
      }

      .st5, .st13 {
        stroke-width: 1.4px;
      }

      .st6 {
        stroke-width: 1.2px;
      }

      .st15 {
        fill: #0a0d1c;
      }

      .st15, .st10, .st11, .st16, .st17, .st13, .st18, .st14 {
        fill-rule: evenodd;
      }

      .st7, .st10, .st13, .st14 {
        stroke: #1e1e1c;
      }

      .st10, .st11, .st12, .st13 {
        fill: #fff;
      }

      .st16 {
        fill: #cdcccc;
      }

      .st8 {
        stroke-width: 3.6px;
      }

      .st17 {
        fill: #080915;
      }

      .st9 {
        stroke-width: 1.2px;
      }

      .st14 {
        fill: #1e1e1c;
        stroke-width: .9px;
      }

      .st19 {
        clip-path: url(#clippath);
      }
    </style>
    <clipPath id="clippath">
      <ellipse class="st3" cx="403.3" cy="122.4" rx="118.7" ry="118.9"/>
    </clipPath>
  </defs>
  <ellipse class="st3" cx="121.7" cy="122" rx="121.1" ry="121.3"/>
  <path class="st3" d="M138.4,104.1l.2,42.8-7.3.2v-45.1c.1,0,7.1,2.1,7.1,2.1h0Z"/>
  <path class="st10" d="M143.5,221.4l2.2,4.3v1.6l-3.1,2.5-5.3,3.9-2,.4-2.8-.2-10.5-3-13.1-4-2.1-1.5-.3-.3v-.6l.6.3,22.7,6.8h1.7l1.8-.6,2.8-1.8v-.6c.1,0-64.9-110.7-64.9-110.7l2-1.7,5.9-4.4,64.4,109.8h0Z"/>
  <path class="st15" d="M74.7,88.2v-1.2h.1c0,.1-.1,1.2-.1,1.2h0Z"/>
  <path class="st15" d="M38.2,107.4h-.7c0-.1.5-.3.5-.3h.3c0,.1-.1.3-.1.3h0Z"/>
  <path class="st15" d="M138.8,149l-.2-2.1h.2v2.1h0Z"/>
  <path class="st17" d="M138.4,104.1h.4c0,.1.1,42.8.1,42.8h-.2l-.3-42.8h0Z"/>
  <path class="st16" d="M36.9,102.7l1.8,3.1.3,1-.8.5h-.3c0-.1-2.6-4.3-2.6-4.3v-.5c-.1,0,.6,0,.6,0l.9.2h0Z"/>
  <path class="st16" d="M45.2,109.5l-2.8,2v.8l1.5,2.5.3,1-.9.6-3.2-5v-.3l2.1-1.5.3-.6,2.7.6h0Z"/>
  <path class="st16" d="M43.4,119.7h-.6l-.7-.9h.3l1,.9h0Z"/>
  <path class="st16" d="M45,121.2l-.7-.2-.4-.6h.3l.8.8h0Z"/>
  <path class="st16" d="M48.9,126.5v.4h-.3v-.8l.3.4h0Z"/>
  <path class="st16" d="M52,131.6v.4h-.3v-.7l.3.3h0Z"/>
  <g id="uuid-f67f698a-7740-43b7-96ba-6d25f5f2bcd3">
    <path class="st2" d="M59.6,123.2l-.9.6h-1.2c0,.1-1.6-.4-1.6-.4l-1.1-.6"/>
    <path class="st2" d="M60.4,119.2l-.7-.3"/>
    <path class="st2" d="M64.3,112.4l2.4.7h.9c0-.1.9-.4.9-.4l.8-.3.8-.4.7-.5,4.3-3.2"/>
    <path class="st1" d="M35.8,88.5l-.5-2-.2-1.5v-2.2l.4-2,.5-.8.4-.7.6-.6.7-.6,4.5-3.3,1.3-.3,1.7.3,2.1.8,2.4,1.3,2.6,2,2.8,2.4,2.9,2.8,2.9,3.1,2.8,3.3,2.7,3.5,2.5,3.6,2.3,3.6,4.2,7.1h.4c0,.1.4.3.4.3l.5.4.5.5.6.6.5.7.5.7,65.3,111.1.7,1.4.5,1.2.2,1v.7c-.1,0-.5.3-.5.3l-6.5,4.8-.5.4-.6.3-.6.3-.6.2h-.5c0,.1-1.7.2-1.7.2h-.5c0-.1-1.3-.3-1.3-.3l-22.4-6.7-1.2-.6-.5-.3-1.1-.9-.9-1.1-1.1-2.1h.1"/>
    <path class="st1" d="M77.5,175.6l1.2,2.1-32.6-55.6"/>
    <path class="st1" d="M73.8,169.2l-27.8-47.2"/>
    <path class="st1" d="M78.7,177.6l23.6,40.1-55.7-95.6"/>
    <path class="st1" d="M59.6,123.2l.5-1.1v-.8c.1,0,.1-.8.1-.8l.2-1.3.3-1.3.4-1.1.4-.8.4-.8.5-.8.6-.7,1-1"/>
    <path class="st1" d="M75,171.3l1.2,2.1"/>
    <path class="st1" d="M83.9,186.5l.9,1.6"/>
    <path class="st1" d="M102.3,217.9l2.5,4.2"/>
  </g>
  <g id="uuid-dc30198c-f0c1-4de2-bde5-4fab7fdebf5f">
    <path class="st2" d="M34.1,109.1h0l.3.2h.1l5.9,1.7,3.1,5.2,1.1-.8"/>
    <path class="st2" d="M35,102.1l3.1,5.2"/>
    <path class="st2" d="M39.2,106.5h0"/>
    <path class="st2" d="M40.2,111l2.9-2.2"/>
    <path class="st2" d="M43.3,116.3l2.1.6"/>
    <path class="st2" d="M42.2,111.5l5.9,1.7h.2c0,.1.4.1.4.1h.3c0-.1.4-.2.4-.2h.2c0-.1.4-.2.4-.2l.4-.2.6-.3.6-.3.4-.3,1.5-1.1-5.3-1.6"/>
    <path class="st2" d="M45.1,109.5h0"/>
    <path class="st2" d="M53.7,110.7l-.7-1.3-1.2-2.1-.2-.3"/>
    <path class="st2" d="M68.4,81.9h.2c0,.1.3.2.3.2l.7.4.8.7.8.8.8,1,.8,1,.6,1,.5,1,.3.9v.7"/>
    <path class="st2" d="M74.2,90.5h0"/>
    <path class="st1" d="M39.2,106.5l-1.1.8-5.9-1.7h-.1c0-.1-.1-.2-.1-.2h-.1c0-.1-.4-.9-.4-.9l-.5-1.2-.5-1.1-.4-1.1-.3-1v-.5c-.1,0-.3-1-.3-1v-.9c-.1,0-.1-1.4-.1-1.4v-.7c.1,0,.2-.6.2-.6l.2-.5.2-.6.3-.4.4-.5.5-.4.4-.3,7.8-5.9.6-.4h.8c0-.1,1,.1,1,.1l1.2.5,1.3.7,1.4,1,1.5,1.2.7.6.9.8,1.6,1.6,1.6,1.8,1.6,2,1.5,2.1,1.5,2.1,1.3,2.2,1.2,2.1,1.1,2.1.9,2,.7,1.8.5,1.6.3,1.4"/>
    <path class="st1" d="M35.9,111.6l-.4-.5-1.4-2.2v-.7c.1,0,.2-.1.2-.1l.2-.2h.1c0-.1.2-.4.2-.4l.3-.3h.2c0-.1.3-.4.3-.4l.3-.2"/>
    <path class="st1" d="M35,102.1l2,.6,3.1,5.2,5.9,1.7h1.2c0-.1.5-.3.5-.3l.6-.2.4-.2.6-.3.4-.2.4-.3,1.3-1"/>
    <path class="st1" d="M35.5,111.2h0l.9,1.2,1,1.2,1,1.2,1,1.2,1,1.1,1,1,1,.9,1,.9,1,.8.9.7.9.6.5.2.9.5.8.3,1.3.4h.7c0,.1.6.2.6.2h.6c0-.1.6-.2.6-.2l1.1-.4.5-.3,6.4-4.8"/>
    <path class="st1" d="M45.3,116.9l-3.1-5.2,2.9-2.2"/>
    <path class="st1" d="M60.9,87.3l7.1-5.2h.4c0-.1,2.5.3,2.5.3h.2c0,.1.5.4.5.4l.5.4.5.5.5.6.5.7.4.7.3.7.2.6v.5c.1,0-.1,2.3-.1,2.3v.5c-.1,0-7.2,5.3-7.2,5.3"/>
  </g>
  <path class="st2" d="M121.7,240.4l3.1.9h-.3"/>
  <path class="st2" d="M124.5,32.1"/>
  <path class="st2" d="M124.8,32.1c-.4-12.6-.4-18.8-.2-31.4"/>
  <path class="st2" d="M131.3,147.2l7.7-.5"/>
  <path class="st2" d="M158.2,236.5V7.1"/>
  <path class="st1" d="M107,240.9c0-8.7,0-6.8.2-15.4"/>
  <path class="st1" d="M107.2,159.9c-.3-55.1-.3-103.2,0-158.4"/>
  <path class="st1" d="M112,242.1c0-8.1,0-6.3-.2-14.4"/>
  <path class="st1" d="M111.8,167.8v-.6.6"/>
  <path class="st1" d="M111.8,175.2c.3-58.2.3-115.7,0-173.7"/>
  <path class="st1" d="M124.8,32.1c-2.5-.2-3.5-2.3-3.5-3.3-1-11.3,0-17.1.3-28.1"/>
  <path class="st1" d="M132.4,147.7l-1.1-.3v-45.4l7.7,2.3v45.4l-6.6-2"/>
  <path class="st1" d="M153.7,238.5c.4-83.1.4-149.5,0-232.7"/>
  <path class="st1" d="M186.9,20.7c0,74,0,128.3,0,202.6"/>
  <path class="st1" d="M222.9,186.5V57.4"/>
  <path class="st14" d="M131.8,53.4c0-.9.8-2,1.6-1.8.7.1,1.2,1.1,1.2,1.8s-.5,2.1-1.3,2.1c-.7.1-1.5-1-1.5-2.1h0Z"/>
  <path class="st10" d="M73.8,79.2c12.9-6.8,25.9-13.4,38.7-20.2-1.1-2.2-2.3-4.4-3.4-6.6,8.3.3,16.5.5,24.8.8-4.4,7.1-8.9,14.2-13.3,21.2-1.1-2.2-2.3-4.4-3.4-6.6-12.9,6.8-25.9,13.4-38.7,20.2-1.5-3-3.2-6-4.7-8.9h0Z"/>
  <ellipse class="st0" cx="121.6" cy="122.2" rx="118.4" ry="118.7"/>
  <ellipse class="st9" cx="121.7" cy="122" rx="121.1" ry="121.3"/>
  <ellipse class="st0" cx="121.6" cy="121.9" rx="118.4" ry="119"/>
  <g class="st19">
    <g>
      <path class="st16" d="M393,93.1l-.2,5.3h-2.2v-5.5h2.3v.2h.1Z"/>
      <path class="st17" d="M394,93h-1c0,0-.1-.2-.1-.2h1.1v.2h0Z"/>
      <path class="st11" d="M385,228.5l24.9,1.7h4.7l3.4-2.1,1.2-1.5.3-122.3,1.2-1.2,5.6-.2.4-.4v103.1l-.2,22.5-.2.9-1,2-1.6,1.2-1,.2h-3.1c0,.1-5.5.1-5.5.1l-29.3-2-2.4-1-1.2-1.4,3.8.4h0Z"/>
      <path class="st15" d="M423.6,86.9l-.2-1h.1c0,0,.1,1,.1,1h0Z"/>
      <path class="st15" d="M389.3,88.8l1.3-.2,1.7.2c0,0-3,0-3,0Z"/>
      <path class="st15" d="M423.9,89.4l-.2-1.4h.1c0,0,.1,1.4.1,1.4h0Z"/>
      <path class="st15" d="M384,91.9h-1.9c0,0,1.9-.4,1.9-.4v.4Z"/>
      <path class="st15" d="M394,93v-.2h.9l-.9.2Z"/>
      <path class="st17" d="M391.6,83.1h-.9c0,0,.1,0,.1,0h.8Z"/>
      <path class="st17" d="M393.2,88.9l-.3-.2v-5.4h.2v5.6h.1,0Z"/>
      <path class="st17" d="M461.1,0v242.5c.3,0,.4,0,.6-.1V.2c-.2,0-.4-.1-.5-.2,0,0,0,0,0,0Z"/>
      <path class="st16" d="M392.9,88.7h-.6c0,0-1.7,0-1.7,0v-5.4c.1,0,1,0,1,0l1.4.2v5.4h-.1,0Z"/>
      <g id="uuid-4e2f422a-eead-4983-b7a4-9522017fc719">
        <path class="st4" d="M397.8,111h-2.2c0-.1-2.2-.8-2.2-.8l-2.1-1.3-1.9-1.8-.7-.9"/>
        <path class="st4" d="M400,110.6l-2-.7-2.1-1.3-.6-.6"/>
        <path class="st4" d="M407.4,66.6h-.1"/>
        <path class="st4" d="M412.6,100.6l3.5.2h3.5l4.5-.2"/>
        <path class="st5" d="M383.3,98.7l-.7.2-.5.3-.8.5-.4.4-.7,1.3v.5c-.1,0-.1,1.2-.1,1.2l-.2,121v1.4c.1,0,.6,1.3.6,1.3l.7,1.1,1,1,1.2.8,1.4.5h1.3c0,.1,30.3,2.2,30.3,2.2l5.9-.3h1.1c0-.1,1-.6,1-.6l.9-.9.7-1.3.4-1.5v-1.6c.1,0,.3-122.3.3-122.3v-.8c-.1,0-.3-.8-.3-.8l-.3-.7-.4-.5-.5-.3h-.5c0,0-.6,0-.6,0v-7.9l-.2-3.9-.6-3.9-1-3.7-1.4-3.4-1.7-3.1-2-2.7-2.2-2.2-2.4-1.7-2.5-1.1-2.6-.5-5.6.2-1.8.3h-.6c0,0-1.8.7-1.8.7l-1.7,1-.5.3-1.6,1.2-1.5,1.5-1.4,1.8-.2.4"/>
        <path class="st5" d="M397.8,111l2.2-.4,2.1-1,1.9-1.6,1-1.1,1.9-2.3,1.1-1.2.9-.9.6-.5.7-.5.7-.4.7-.3,1-.2"/>
      </g>
      <g id="uuid-6a0c84e5-4ecb-4440-b786-86a4725bbcaa">
        <path class="st4" d="M381.8,92.2h.2c0,0,.5,0,.5,0l8,.5,3.5-.2-10-.7"/>
        <path class="st4" d="M393.1,98.5h-2.7c0,0,0-5.7,0-5.7"/>
        <path class="st4" d="M390.5,98.6l2.7.2"/>
        <path class="st4" d="M390.5,88.7v-5.8"/>
        <path class="st4" d="M393.1,93l7.9.5h5.6c0,0-10-.8-10-.8"/>
        <path class="st4" d="M394,92.6v.3"/>
        <path class="st4" d="M406.7,93.5v-1.5c.1,0,.1-2.6.1-2.6"/>
        <path class="st5" d="M390.6,107.2l-1-.5-1-.7-.3-.2-.9-.8-.9-.9-.8-1-.2-.3-.7-1.1-.7-1.2-.6-1.3-.5-1.4-.4-1.4-.3-1.5-.2-1.5v-1.1c-.1,0,.8,0,.8,0h1.2c0,0-.1-1.5-.1-1.5v-2.2"/>
        <path class="st5" d="M410.3,101.4l.5-1.1.7-2,.5-2.1.4-2.2.2-2.3v-2.3l-.3-2.3-.4-2.2-.6-2.1-.8-2-1-1.8-1.1-1.6-1-1.1-.2-.2-1.4-1.1-1.4-.9-1.5-.6-1.5-.2h-1.5l-6.1.3h-1.1c0,0-.4.2-.4.2l-1.1.2-1,.4-.4.2-1,.5-1,.7-1.2,1.1-.8.9-.8,1-.7,1.1-.2.3-.6,1.2-.5,1.3-.4,1.4-.4,1.4-.2,1.5v1.1c-.1,0,.4,0,.4,0l8.1.5h2.7"/>
        <path class="st5" d="M392.1,107.7l-1.5-.5"/>
        <path class="st5" d="M390.5,82.9l2.7.2v5.8l7.9.5h5.6"/>
        <path class="st5" d="M392.1,107.7l1.1.2h1.5c0,.1,7.3-.3,7.3-.3l1.5-.2,1.4-.5"/>
        <path class="st5" d="M396.7,92.8l-3.5.2v5.8"/>
      </g>
      <g id="uuid-866ff8fe-4df0-49e5-baad-521cbb815617">
        <path class="st4" d="M394.2,57.4"/>
        <path class="st4" d="M394.5,1.5c-.3,20.4-.3,35.6,0,55.9"/>
        <path class="st4" d="M440,238.2c.2-83,.2-148.3-.1-231.7"/>
        <path class="st5" d="M461.1,228.9c0-78.8,0-133.3,0-212.7"/>
        <path class="st5" d="M433.5,239.5c.7-83.2-2.3-150.6.2-234"/>
        <path class="st5" d="M376.8,4.8c.4,83.4.4,152.9.1,235.7"/>
        <path class="st5" d="M370.4,238.9c-.3-81.8-.3-150.2.1-232.6"/>
        <path class="st5" d="M390.1,2.6c.1,20.4-.9,34.4.1,54.4,0,0,3,0,4.3.3"/>
        <path class="st5" d="M481.8,30.6c.4,73.3.4,111.3.2,184.1"/>
      </g>
      <path class="st18" d="M431.6,105.7l-2,9.1-3,8.4-4,7.4-4.8,6.2-5.5,4.8-6,3.2-6.3,1.6h-6.4c0-.1-6.4-1.9-6.4-1.9l-6.1-3.4-5.7-5-5.1-6.3-4.3-7.5-3.4-8.5-2.4-9.2-1.3-9.6-.2-9.8.9-9.6,2-9.1,3-8.4,4-7.4,4.8-6.2,5.5-4.8,6-3.2,6.3-1.6h6.4c0,0,6.4,1.9,6.4,1.9l6.1,3.4,5.7,5,3.6-8.1,10.9,31.3-22.9-4.2,3.6-8.1-4.3-3.8-4.6-2.6-4.8-1.4h-4.9c0,0-4.8,1.1-4.8,1.1l-4.5,2.5-4.2,3.6-3.6,4.7-3,5.6-2.3,6.4-1.5,6.9-.7,7.3.2,7.4,1,7.3,1.8,7,2.6,6.4,3.3,5.7,3.9,4.8,4.3,3.8,4.6,2.6,4.9,1.3h4.9c0,.1,4.8-1.1,4.8-1.1l4.5-2.5,4.2-3.6,3.6-4.7,3-5.6,2.3-6.4,1.5-6.9.7-7.3,8.8,1.3-1.1,9.8h0Z"/>
      <path class="st12" d="M430.4,68.5c-3.6-10.4-7.2-20.9-10.9-31.3-1.2,2.7-2.4,5.4-3.6,8.1-1.9-2.2-6.8-7.3-14.7-9.2-9.9-2.4-18.1,1.7-20.4,2.8-22.2,11.1-22.6,47.7-22.6,51,0,5.5.1,33.2,19.9,48.5,3.6,2.7,11.7,9.1,22,8,15.3-1.5,23.8-18,26.5-23.2,5.8-11.1,6.1-21.6,6-27.1-2.9-.4-5.9-.9-8.8-1.3,0,3.2-.3,7.7-1.9,12.8-.4,1.4-8.1,24.6-24,25.4-13.1.6-23.2-13.9-25.9-21.8-.8-2.3-2-6.9-2.9-11.8-.6-3.5-1.2-6.5-1.2-10.5s.9-9.8,1.7-13c1.1-4.5,2-8.4,4.2-12.5,2-3.6,6.8-12.5,16.5-14.5,11.1-2.2,20,6.2,21,7.2-1.2,2.7-2.4,5.4-3.6,8.1,7.4,1.5,15,2.9,22.7,4.3h0Z"/>
    </g>
  </g>
  <path class="st13" d="M290,81.4c21.2.4,42.4.9,63.6,1.3,3.2.6,27,4.9,26.8,8.9s-24.2,5.6-27.5,5.8c-22.1-.5-44.2-1.1-66.3-1.6"/>
  <path class="st7" d="M366.5,86.1c.8,2.7,2.3,3.9,3,4.3,1.3.8,2.7,1,5.5,1.2,2.2.2,4,0,5.3,0"/>
  <path class="st7" d="M365.9,96.7c1-2.7,2.6-3.7,3.2-4.1,1.3-.8,2.8-.8,5.5-.8s4,0,5.3.2"/>
  <ellipse class="st6" cx="403.3" cy="122.4" rx="121.3" ry="121.5"/>
  <ellipse class="st8" cx="403.1" cy="122.6" rx="118.7" ry="118.9"/>
</svg>