<?xml version="1.0" encoding="UTF-8"?><svg id="uuid-e0be12e9-df68-4d51-af18-1f928e07031d" xmlns="http://www.w3.org/2000/svg" width="208.4mm" height="101.22mm" xmlns:xlink="http://www.w3.org/1999/xlink" viewBox="0 0 590.73 286.93"><defs><style>.cls-1{stroke-width:3.53px;}.cls-1,.cls-2,.cls-3,.cls-4,.cls-5,.cls-6,.cls-7,.cls-8,.cls-9,.cls-10{stroke-miterlimit:10;}.cls-1,.cls-2,.cls-4,.cls-11,.cls-12,.cls-13,.cls-5,.cls-6,.cls-14,.cls-15,.cls-16,.cls-10{fill:none;}.cls-1,.cls-2,.cls-5{stroke:#fff;}.cls-2{stroke-width:3.64px;}.cls-3,.cls-4,.cls-17,.cls-9{stroke:#1e1e1c;}.cls-3,.cls-17,.cls-18,.cls-19,.cls-8,.cls-20,.cls-21,.cls-9{fill-rule:evenodd;}.cls-3,.cls-7,.cls-8,.cls-9{fill:#fff;}.cls-3,.cls-15{stroke-width:.63px;}.cls-4,.cls-17,.cls-11,.cls-14,.cls-15,.cls-16{stroke-linecap:round;}.cls-4,.cls-11,.cls-7,.cls-8{stroke-width:.72px;}.cls-17{fill:#1e1e1c;stroke-width:.89px;}.cls-17,.cls-11,.cls-14,.cls-15,.cls-16{stroke-linejoin:round;}.cls-11,.cls-6,.cls-7,.cls-14,.cls-15,.cls-16,.cls-8,.cls-10{stroke:#010101;}.cls-13{stroke:#000;stroke-miterlimit:10;stroke-width:.73px;}.cls-5{stroke-width:3.53px;}.cls-6{stroke-width:1.19px;}.cls-22{clip-path:url(#clippath-1);}.cls-18{fill:#0a0d1c;}.cls-14,.cls-9{stroke-width:1.44px;}.cls-19{fill:#cdcccc;}.cls-16{stroke-width:1.26px;}.cls-20{fill:#080915;}.cls-23{clip-path:url(#clippath);}.cls-10{stroke-width:1.22px;}</style><clipPath id="clippath"><ellipse class="cls-12" cx="149.77" cy="144.37" rx="118" ry="118.2"/></clipPath><clipPath id="clippath-1"><ellipse class="cls-12" cx="434.47" cy="147.87" rx="118.7" ry="118.9"/></clipPath></defs><g class="cls-23"><path class="cls-12" d="M166.07,126.97l.2,41.7-7.1.2.1-43.9,6.8,2h0Z"/><path class="cls-3" d="M170.97,241.17l2.1,4.2v1.6l-3,2.4-5.2,3.8-1.9.4-2.7-.2-10.2-2.9-12.8-3.9-2-1.5-.3-.3v-.6l.6.3,22.1,6.6h1.7l1.8-.6,2.7-1.8.1-.6-63.3-107.9,1.9-1.7,5.7-4.3,62.7,107h0Z"/><path class="cls-18" d="M103.97,111.47v-1.2l.1.1-.1,1.1h0Z"/><path class="cls-18" d="M68.37,130.17l-.7-.1.5-.2.3.1-.1.2h0Z"/><path class="cls-18" d="M166.47,170.67l-.2-2h.2v2h0Z"/><path class="cls-20" d="M166.07,126.97l.4.1.1,41.6h-.2l-.3-41.7h0Z"/><path class="cls-20" d="M213.38,255.3l.08-223.36c-.13-.02-.26-.03-.39-.05l.08,223.61c.08-.06.15-.13.23-.19Z"/><path class="cls-20" d="M248.24,226.99c.12-.09.23-.19.35-.28l.06-176.06c-.16-.13-.32-.26-.47-.4l.06,176.73Z"/><path class="cls-19" d="M67.17,125.57l1.8,3,.3,1-.8.5-.3-.1-2.5-4.1-.1-.5h.7l.9.2h0Z"/><path class="cls-19" d="M75.27,132.17l-2.7,1.9v.8l1.5,2.4.3,1-.9.6-3.1-4.9v-.3l2-1.5.3-.6,2.6.6h0Z"/><path class="cls-19" d="M73.47,142.17h-.6l-.7-.9h.3l1,.9h0Z"/><path class="cls-19" d="M75.07,143.57l-.7-.2-.4-.6h.3l.8.8h0Z"/><path class="cls-19" d="M78.87,148.77v.4l-.3-.1v-.7l.3.4h0Z"/><path class="cls-19" d="M81.87,153.77v.4l-.3-.1v-.6l.3.3h0Z"/><g id="uuid-f67f698a-7740-43b7-96ba-6d25f5f2bcd3"><path class="cls-15" d="M89.27,145.57l-.9.6-1.2.1-1.6-.5-1.1-.6"/><path class="cls-15" d="M90.07,141.67l-.7-.3"/><path class="cls-15" d="M93.87,134.97l2.3.7h.5l.4-.1.9-.3.8-.3.8-.4.7-.5,4.2-3.1"/><path class="cls-16" d="M66.07,111.77l-.5-1.9-.2-1.5v-2.1l.4-1.9.5-.8.4-.7.6-.6.7-.6,4.4-3.2,1.3-.3,1.7.3,2,.8,2.3,1.3,2.5,1.9,2.7,2.3,2.8,2.7,2.8,3,2.7,3.2,2.6,3.4,2.4,3.5,2.2,3.5,4.1,6.9.4.1.4.2.5.4.5.5.6.6.5.7.5.7,63.6,108.2.7,1.4.5,1.2.2,1-.1.7-.4.3-6.3,4.7-.5.4-.6.3-.6.3-.6.2-.5.1-1.7.1-.5-.1-1.3-.2-21.8-6.5-1.2-.6-.5-.3-1.1-.9-.9-1.1-1.1-2,.1.1"/><path class="cls-16" d="M106.67,196.57l1.2,2-31.8-54.2"/><path class="cls-16" d="M103.07,190.37l-27.1-46"/><path class="cls-16" d="M107.87,198.57l23,39.1-54.3-93.1"/><path class="cls-16" d="M89.27,145.57l.5-1.1.1-.8v-.8l.2-1.3.3-1.3.4-1.1.4-.8.4-.8.5-.8.6-.7,1-1"/><path class="cls-16" d="M104.27,192.37l1.2,2"/><path class="cls-16" d="M112.97,207.17l.9,1.6"/><path class="cls-16" d="M130.87,237.77l2.4,4.1"/></g><g id="uuid-dc30198c-f0c1-4de2-bde5-4fab7fdebf5f"><path class="cls-15" d="M64.37,131.77h0l.3.2h.1l5.7,1.7,3,5.1,1.1-.8"/><path class="cls-15" d="M65.27,124.97l3,5.1"/><path class="cls-15" d="M69.37,129.27h0"/><path class="cls-15" d="M70.37,133.67l2.8-2.1"/><path class="cls-15" d="M73.37,138.77l2,.6"/><path class="cls-15" d="M72.27,134.17l5.7,1.7.2.1h.4l.3-.1.4-.1.2-.1.4-.1.4-.2.6-.3.6-.3.4-.3,1.5-1.1-5.2-1.6"/><path class="cls-15" d="M75.17,132.17h0"/><path class="cls-15" d="M83.47,133.37l-.7-1.3-1.2-2-.2-.3"/><path class="cls-15" d="M97.87,105.27l.2.1.3.1.7.4.8.7.8.8.8,1,.8,1,.6,1,.5,1,.3.9.1.7"/><path class="cls-15" d="M103.47,113.67h0"/><path class="cls-16" d="M69.37,129.27l-1.1.8-5.7-1.7-.1-.1-.1-.1-.1-.1-.4-.8-.5-1.2-.5-1.1-.4-1.1-.3-1-.1-.5-.2-1-.1-.9v-1.4l.1-.7.1-.6.2-.5.2-.6.3-.4.4-.5.5-.4.4-.3,7.6-5.7.6-.4.8-.1,1,.2,1.2.5,1.3.7,1.4,1,1.5,1.2.7.6.9.8,1.6,1.6,1.6,1.8,1.6,1.9,1.5,2,1.5,2,1.3,2.1,1.2,2,1.1,2,.9,1.9.7,1.8.5,1.6.3,1.4"/><path class="cls-16" d="M66.17,134.27l-.4-.5-1.4-2.1v-.5l.1-.2.1-.1.2-.2.1-.1.2-.3.3-.3.2-.1.3-.3.3-.2"/><path class="cls-16" d="M65.27,124.97l1.9.6,3,5.1,5.7,1.7h.8l.4-.1.5-.2.6-.2.4-.2.6-.3.4-.2.4-.3,1.3-1"/><path class="cls-16" d="M65.77,133.87h0l.9,1.2,1,1.2,1,1.2,1,1.2,1,1.1,1,1,1,.9,1,.9,1,.8.9.7.9.6.5.2.9.5.8.3,1.3.4.7.1.6.1.6-.1.6-.1,1.1-.4.5-.3,6.2-4.7"/><path class="cls-16" d="M75.37,139.37l-3-5.1,2.8-2.1"/><path class="cls-16" d="M90.57,110.57l6.9-5.1.4-.1,2.4.4.2.1.5.3.5.4.5.5.5.6.5.7.4.7.3.7.2.6.1.5-.2,2.2-.1.5-6.9,5.2"/></g><g id="uuid-c49fba32-07c6-4b78-8931-5e746b531880"><path class="cls-15" d="M152.58,271.59c.27-4.06,2.47-10.38-3.12-11.82"/><path class="cls-15" d="M149.77,259.77l3,.9h-.3"/><path class="cls-15" d="M152.77,260.67c-.13,3.65-.22,7.3-.26,10.95"/><path class="cls-15" d="M152.47,56.77c-.09-12.27-.1-24.54-.04-36.82"/><path class="cls-15" d="M152.77,56.77c-.35-12.27-.39-24.55-.16-36.82"/><path class="cls-15" d="M159.07,168.97l7.5-.5"/><path class="cls-15" d="M185.37,269.14V27.94"/><path class="cls-16" d="M135.44,270.52c0-8.45.07-16.9.22-25.35"/><path class="cls-16" d="M135.67,181.27c-.3-53.7-.3-107.7-.03-161.41"/><path class="cls-16" d="M140.29,270.92c0-7.85-.07-15.7-.22-23.55"/><path class="cls-16" d="M140.07,188.97v-.6.6"/><path class="cls-16" d="M140.07,188.27c.3-56.7.3-112.7.02-169.2"/><path class="cls-16" d="M149.47,272.02c.05-4.05.14-8.1.29-12.15"/><path class="cls-16" d="M152.77,56.77c-2.4-.2-3.4-2.2-3.4-3.2-1-11,0-23,.27-33.77"/><path class="cls-16" d="M160.17,169.37l-1.1-.3v-44.2l7.5,2.2v44.2l-6.4-1.9"/><path class="cls-16" d="M180.98,270.54c.39-80.97.39-162.97-.04-244"/><path class="cls-16" d="M213.29,34.42c.08,72.14.08,145.14.02,217.61"/><path class="cls-16" d="M269.49,193.7c-.12-38.14-.12-76.14.07-114.31"/><path class="cls-16" d="M248.37,223.24V53.29"/></g><path class="cls-17" d="M159.57,77.57c0-.9.8-1.9,1.6-1.8.7.1,1.2,1.1,1.2,1.8,0,.9-.5,2-1.3,2-.7.1-1.5-1-1.5-2h0Z"/><path class="cls-3" d="M103.07,102.67c12.6-6.6,25.2-13.1,37.7-19.7-1.1-2.1-2.2-4.3-3.3-6.4,8.1.3,16.1.5,24.2.8-4.3,6.9-8.7,13.8-13,20.7-1.1-2.1-2.2-4.3-3.3-6.4-12.6,6.6-25.2,13.1-37.7,19.7-1.5-2.9-3.1-5.8-4.6-8.7h0Z"/></g><ellipse class="cls-5" cx="149.67" cy="144.57" rx="115.4" ry="115.6"/><ellipse class="cls-6" cx="149.77" cy="144.37" rx="118" ry="118.2"/><ellipse class="cls-1" cx="149.67" cy="144.27" rx="115.4" ry="115.9"/><g class="cls-22"><path class="cls-19" d="M424.17,118.57l-.2,5.3h-2.2v-5.5h2.3l.1.2h0Z"/><path class="cls-20" d="M425.17,118.47l-1,.1-.1-.3h1.1v.2h0Z"/><path class="cls-8" d="M416.17,253.97l24.9,1.7h4.7l3.4-2.1,1.2-1.5.3-122.3,1.2-1.2,5.6-.2.4-.4v103.1l-.2,22.5-.2.9-1,2-1.6,1.2-1,.2-3.1.1h-5.5l-29.3-2-2.4-1-1.2-1.4,3.8.4h0Z"/><path class="cls-18" d="M454.77,112.37l-.2-1,.1.1.1.9h0Z"/><path class="cls-18" d="M420.47,114.27l1.3-.2,1.7.2c0-.1-3,0-3,0Z"/><path class="cls-18" d="M455.07,114.87l-.2-1.4.1.1.1,1.3h0Z"/><path class="cls-18" d="M415.17,117.37l-1.9-.1,1.9-.3v.4Z"/><path class="cls-18" d="M425.17,118.47v-.2h.9s-.9.2-.9.2Z"/><path class="cls-20" d="M422.77,108.57l-.9.1.1-.2.8.1Z"/><path class="cls-20" d="M424.37,114.37l-.3-.2v-5.4h.2l.1,5.6h0Z"/><path class="cls-20" d="M492.27,25.49l.09,242.53c.17-.04.33-.08.5-.12l-.09-242.17c-.15-.07-.29-.14-.44-.21-.02-.01-.04-.02-.06-.03Z"/><path class="cls-19" d="M424.07,114.17l-.6.1-1.7-.2.1-5.4.9-.1,1.4.2-.1,5.4h0Z"/><g id="uuid-4e2f422a-eead-4983-b7a4-9522017fc719"><path class="cls-11" d="M428.97,136.47l-2.2-.1-2.2-.7-2.1-1.3-1.9-1.8-.7-.9"/><path class="cls-11" d="M431.17,136.07l-2-.7-2.1-1.3-.6-.6"/><path class="cls-11" d="M438.57,92.07h-.1"/><path class="cls-11" d="M443.77,126.07l3.5.2h3.5l4.5-.2"/><path class="cls-14" d="M414.47,124.17l-.7.2-.5.3-.8.5-.4.4-.7,1.3-.1.5v1.2l-.2,121,.1,1.4.5,1.3.7,1.1,1,1,1.2.8,1.4.5h.1l1.2.1,30.3,2.1,5.9-.3,1.1-.1,1-.5.9-.9.7-1.3.4-1.5.1-1.6.2-122.3-.1-.8-.2-.8-.3-.7-.4-.5-.5-.3-.5-.1h-.6v-7.9l-.2-3.9-.6-3.9-1-3.7-1.4-3.4-1.7-3.1-2-2.7-2.2-2.2-2.4-1.7-2.5-1.1-2.6-.5-5.6.2-1.8.3-.6.1-1.8.6-1.7,1-.5.3-1.6,1.2-1.5,1.5-1.4,1.8-.2.4"/><path class="cls-14" d="M428.97,136.47l2.2-.4,2.1-1,1.9-1.6,1-1.1,1.9-2.3,1.1-1.2.9-.9.6-.5.7-.5.7-.4.7-.3,1-.2"/></g><g id="uuid-6a0c84e5-4ecb-4440-b786-86a4725bbcaa"><path class="cls-11" d="M412.97,117.67h0l.2.1h.5l8,.5,3.5-.2-10-.7"/><path class="cls-11" d="M424.27,123.97l-2.7.1v-5.8"/><path class="cls-11" d="M421.67,124.07l2.7.2"/><path class="cls-11" d="M421.67,114.17v-5.8"/><path class="cls-11" d="M424.27,118.47l7.9.5h4.2l1.4-.1-10-.7"/><path class="cls-11" d="M425.17,118.07v.3"/><path class="cls-11" d="M437.87,118.97l.1-1.5v-2.6"/><path class="cls-14" d="M421.77,132.67l-1-.5-1-.7-.3-.2-.9-.8-.9-.9-.8-1-.2-.3-.7-1.1-.7-1.2-.6-1.3-.5-1.4-.4-1.4-.3-1.5-.2-1.5-.1-1.1h.9l1.2-.1-.1-1.4v-2.2"/><path class="cls-14" d="M441.47,126.87l.5-1.1.7-2,.5-2.1.4-2.2.2-2.3v-2.3l-.3-2.3-.4-2.2-.6-2.1-.8-2-1-1.8-1.1-1.6-1-1.1-.2-.2-1.4-1.1-1.4-.9-1.5-.6-1.5-.2h-1.5l-6.1.3-1.1.1-.4.1-1.1.2-1,.4-.4.2-1,.5-1,.7-1.2,1.1-.8.9-.8,1-.7,1.1-.2.3-.6,1.2-.5,1.3-.4,1.4-.4,1.4-.2,1.5-.1,1.1h.5l8.1.5,2.7-.1"/><path class="cls-14" d="M423.27,133.17l-1.5-.5"/><path class="cls-14" d="M421.67,108.37l2.7.2v5.8l7.9.5h4l1.6-.1"/><path class="cls-14" d="M423.27,133.17l1.1.2,1.5.1,7.3-.4,1.5-.2,1.4-.5"/><path class="cls-14" d="M427.87,118.27l-3.5.2v5.8"/></g><g id="uuid-866ff8fe-4df0-49e5-baad-521cbb815617"><path class="cls-11" d="M421.47,270.77l.6.1-.9-.1"/><path class="cls-11" d="M422.07,270.77c1.11-.26,2.77-.48,3.3.7"/><path class="cls-11" d="M424.37,270.97l1.2.1h-.2"/><path class="cls-11" d="M425.37,82.87V21.17"/><path class="cls-11" d="M425.67,21.17c-.3,20.4-.3,41.4,0,61.7"/><path class="cls-11" d="M471.16,270.54c.2-82.97.2-164.97-.1-248.37"/><path class="cls-14" d="M492.3,265.39c.06-78.83.06-157.83-.03-237.23"/><path class="cls-14" d="M464.7,270.73c.66-83.17-2.34-165.17.16-248.57"/><path class="cls-14" d="M407.97,21.17c.4,83.4.4,165.4.14,248.17"/><path class="cls-14" d="M401.62,268.34c-.26-81.77-.26-164.77.14-247.17"/><path class="cls-14" d="M421.27,21.17c.1,20.4-.9,41.4.1,61.4,0,0,3,0,4.3.3"/><path class="cls-14" d="M512.98,40.26c.38,73.31.38,145.31.16,218.19"/></g><path class="cls-21" d="M462.77,131.17l-2,9.1-3,8.4-4,7.4-4.8,6.2-5.5,4.8-6,3.2-6.3,1.6-6.4-.1-6.4-1.8-6.1-3.4-5.7-5-5.1-6.3-4.3-7.5-3.4-8.5-2.4-9.2-1.3-9.6-.2-9.8.9-9.6,2-9.1,3-8.4,4-7.4,4.8-6.2,5.5-4.8,6-3.2,6.3-1.6,6.4.1,6.4,1.8,6.1,3.4,5.7,5,3.6-8.1,10.9,31.3-22.9-4.2,3.6-8.1-4.3-3.8-4.6-2.6-4.8-1.4-4.9-.1-4.8,1.2-4.5,2.5-4.2,3.6-3.6,4.7-3,5.6-2.3,6.4-1.5,6.9-.7,7.3.2,7.4,1,7.3,1.8,7,2.6,6.4,3.3,5.7,3.9,4.8,4.3,3.8,4.6,2.6,4.9,1.3,4.9.1,4.8-1.2,4.5-2.5,4.2-3.6,3.6-4.7,3-5.6,2.3-6.4,1.5-6.9.7-7.3,8.8,1.3-1.1,9.8h0Z"/><path class="cls-7" d="M461.57,93.97c-3.6-10.4-7.2-20.9-10.9-31.3-1.2,2.7-2.4,5.4-3.6,8.1-1.9-2.2-6.8-7.3-14.7-9.2-9.9-2.4-18.1,1.7-20.4,2.8-22.2,11.1-22.6,47.7-22.6,51,0,5.5.1,33.2,19.9,48.5,3.6,2.7,11.7,9.1,22,8,15.3-1.5,23.8-18,26.5-23.2,5.8-11.1,6.1-21.6,6-27.1-2.9-.4-5.9-.9-8.8-1.3,0,3.2-.3,7.7-1.9,12.8-.4,1.4-8.1,24.6-24,25.4-13.1.6-23.2-13.9-25.9-21.8-.8-2.3-2-6.9-2.9-11.8-.6-3.5-1.2-6.5-1.2-10.5,0-5.6.9-9.8,1.7-13,1.1-4.5,2-8.4,4.2-12.5,2-3.6,6.8-12.5,16.5-14.5,11.1-2.2,20,6.2,21,7.2-1.2,2.7-2.4,5.4-3.6,8.1,7.4,1.5,15,2.9,22.7,4.3h0Z"/></g><path class="cls-9" d="M321.17,106.87c21.2.4,42.4.9,63.6,1.3,3.2.6,27,4.9,26.8,8.9s-24.2,5.6-27.5,5.8c-22.1-.5-44.2-1.1-66.3-1.6"/><path class="cls-4" d="M397.67,111.57c.8,2.7,2.3,3.9,3,4.3,1.3.8,2.7,1,5.5,1.2,2.2.2,4,.1,5.3.1"/><path class="cls-4" d="M397.07,122.17c1-2.7,2.6-3.7,3.2-4.1,1.3-.8,2.8-.8,5.5-.8,2.2,0,4,.1,5.3.2"/><ellipse class="cls-10" cx="434.47" cy="147.87" rx="121.3" ry="121.5"/><ellipse class="cls-2" cx="434.27" cy="148.07" rx="118.7" ry="118.9"/><rect class="cls-13" x=".37" y=".37" width="590" height="286.2"/></svg>