<?xml version="1.0" encoding="UTF-8" standalone="no"?>
<svg
   id="uuid-fd9ef6ba-fed5-48fc-889c-5fa33fe764c3"
   data-name="uuid-114865fb-7ab2-43ae-a773-31fcaf129738"
   width="279.63025mm"
   height="89.35186mm"
   viewBox="0 0 792.64998 253.27933"
   version="1.1"
   xmlns="http://www.w3.org/2000/svg"
   xmlns:svg="http://www.w3.org/2000/svg">
  <defs
     id="defs3">
    <style
       id="style1">
      .uuid-15f5dcaf-bf85-4369-ac65-7bd5330ec6e4 {
        fill: #11a438;
      }

      .uuid-e890dedb-740b-4002-91f3-32742beb2411 {
        fill: #e40521;
      }

      .uuid-48cc12ac-8723-4857-8dcb-10aec86cca8f {
        clip-path: url(#uuid-f3c80b27-4cc5-4fe8-bc21-622479dac0f1);
      }

      .uuid-67c34de6-ec47-4102-8d21-34160a062cf1, .uuid-29874ce7-3dde-4422-9646-bd42ac80fdf5, .uuid-cdafdb80-6baa-4aa8-ba90-4f28bd4ca75f, .uuid-447e7d91-b3e2-43ef-be8a-c2481cf5b650, .uuid-13263231-2b88-43cc-b215-41cd1c967acc, .uuid-aaff758e-4014-4fa7-90a4-1317177a3d79, .uuid-df1eaf7d-80e8-41bf-a5a9-62121f1b8a57, .uuid-481b85e2-70aa-4cc3-aa3d-376c067c5205, .uuid-96516352-2cf3-4ea2-9997-3e6566451b0c, .uuid-1cf06e30-c657-4964-a00c-3468119c4b01, .uuid-b66539b1-d0e2-4851-986f-77754a80e046, .uuid-1a557059-804c-4a97-b3cf-fce3ec8f9fd4, .uuid-1be5a483-c54e-4e19-92b5-8fd3ad169bd1, .uuid-77e9aab4-d950-453c-9c8e-22c1934a18ec, .uuid-a8ae6892-77d5-4597-a42a-c6af3bc0c0bb {
        fill: none;
      }

      .uuid-67c34de6-ec47-4102-8d21-34160a062cf1, .uuid-cdafdb80-6baa-4aa8-ba90-4f28bd4ca75f, .uuid-2edf54ec-4f91-47a5-a444-ae3d4a1815e4, .uuid-1488f37c-36ec-4784-834b-b26d2e8a08ed, .uuid-aaff758e-4014-4fa7-90a4-1317177a3d79, .uuid-df1eaf7d-80e8-41bf-a5a9-62121f1b8a57, .uuid-481b85e2-70aa-4cc3-aa3d-376c067c5205, .uuid-96516352-2cf3-4ea2-9997-3e6566451b0c, .uuid-9132aa70-1541-4f20-88bb-1f05688adbdc, .uuid-b66539b1-d0e2-4851-986f-77754a80e046, .uuid-2ac727a7-a868-41a1-8ab9-77be4229cae2, .uuid-1a557059-804c-4a97-b3cf-fce3ec8f9fd4, .uuid-1be5a483-c54e-4e19-92b5-8fd3ad169bd1, .uuid-a8ae6892-77d5-4597-a42a-c6af3bc0c0bb, .uuid-4c0c3278-7522-485e-b57b-4bb5a01f678e {
        stroke: #010101;
      }

      .uuid-67c34de6-ec47-4102-8d21-34160a062cf1, .uuid-447e7d91-b3e2-43ef-be8a-c2481cf5b650, .uuid-2ac727a7-a868-41a1-8ab9-77be4229cae2 {
        stroke-width: .99px;
      }

      .uuid-67c34de6-ec47-4102-8d21-34160a062cf1, .uuid-96516352-2cf3-4ea2-9997-3e6566451b0c, .uuid-b66539b1-d0e2-4851-986f-77754a80e046, .uuid-2ac727a7-a868-41a1-8ab9-77be4229cae2, .uuid-1a557059-804c-4a97-b3cf-fce3ec8f9fd4, .uuid-1be5a483-c54e-4e19-92b5-8fd3ad169bd1 {
        stroke-linecap: round;
        stroke-linejoin: round;
      }

      .uuid-29874ce7-3dde-4422-9646-bd42ac80fdf5 {
        stroke-width: 3.75px;
      }

      .uuid-29874ce7-3dde-4422-9646-bd42ac80fdf5, .uuid-cdafdb80-6baa-4aa8-ba90-4f28bd4ca75f, .uuid-2edf54ec-4f91-47a5-a444-ae3d4a1815e4, .uuid-447e7d91-b3e2-43ef-be8a-c2481cf5b650, .uuid-1488f37c-36ec-4784-834b-b26d2e8a08ed, .uuid-aaff758e-4014-4fa7-90a4-1317177a3d79, .uuid-df1eaf7d-80e8-41bf-a5a9-62121f1b8a57, .uuid-481b85e2-70aa-4cc3-aa3d-376c067c5205, .uuid-1cf06e30-c657-4964-a00c-3468119c4b01, .uuid-9132aa70-1541-4f20-88bb-1f05688adbdc, .uuid-77e9aab4-d950-453c-9c8e-22c1934a18ec, .uuid-a8ae6892-77d5-4597-a42a-c6af3bc0c0bb, .uuid-4c0c3278-7522-485e-b57b-4bb5a01f678e {
        stroke-miterlimit: 10;
      }

      .uuid-29874ce7-3dde-4422-9646-bd42ac80fdf5, .uuid-447e7d91-b3e2-43ef-be8a-c2481cf5b650, .uuid-1cf06e30-c657-4964-a00c-3468119c4b01, .uuid-77e9aab4-d950-453c-9c8e-22c1934a18ec {
        stroke: #fff;
      }

      .uuid-29719c5d-ca72-497c-b0b9-f03473d90fe7, .uuid-2edf54ec-4f91-47a5-a444-ae3d4a1815e4 {
        fill: #010101;
      }

      .uuid-cdafdb80-6baa-4aa8-ba90-4f28bd4ca75f {
        stroke-width: 1.26px;
      }

      .uuid-2edf54ec-4f91-47a5-a444-ae3d4a1815e4 {
        stroke-width: .27px;
      }

      .uuid-1488f37c-36ec-4784-834b-b26d2e8a08ed, .uuid-481b85e2-70aa-4cc3-aa3d-376c067c5205 {
        stroke-width: .5px;
      }

      .uuid-1488f37c-36ec-4784-834b-b26d2e8a08ed, .uuid-9132aa70-1541-4f20-88bb-1f05688adbdc, .uuid-2ac727a7-a868-41a1-8ab9-77be4229cae2, .uuid-4c0c3278-7522-485e-b57b-4bb5a01f678e {
        fill: #fff;
      }

      .uuid-aaff758e-4014-4fa7-90a4-1317177a3d79 {
        stroke-width: 1.25px;
      }

      .uuid-df1eaf7d-80e8-41bf-a5a9-62121f1b8a57 {
        stroke-width: .97px;
      }

      .uuid-c32a38b7-371f-4c23-bdd4-f4633d841cb6 {
        clip-path: url(#uuid-199effb4-580c-4c90-ba7a-c71b2a5aab56);
      }

      .uuid-96516352-2cf3-4ea2-9997-3e6566451b0c {
        stroke-width: .67px;
      }

      .uuid-7b7b9ba1-fa6f-4822-b8e9-132f6a8672e7 {
        clip-path: url(#uuid-21a4989e-e63b-4cde-ae14-770b8eba3535);
      }

      .uuid-1cf06e30-c657-4964-a00c-3468119c4b01 {
        stroke-width: 6.96px;
      }

      .uuid-9132aa70-1541-4f20-88bb-1f05688adbdc {
        stroke-width: 1.14px;
      }

      .uuid-b66539b1-d0e2-4851-986f-77754a80e046 {
        stroke-width: .66px;
      }

      .uuid-1a557059-804c-4a97-b3cf-fce3ec8f9fd4 {
        stroke-width: 1.32px;
      }

      .uuid-f7a6758d-3209-4b5b-8489-fe68e09f9768 {
        fill: #ccc;
      }

      .uuid-8e49b89a-4a53-4d0c-b08b-a672cc2f7619 {
        fill: #c6c6c6;
      }

      .uuid-1be5a483-c54e-4e19-92b5-8fd3ad169bd1 {
        stroke-width: 1.34px;
      }

      .uuid-77e9aab4-d950-453c-9c8e-22c1934a18ec {
        stroke-width: 3.7px;
      }

      .uuid-a8ae6892-77d5-4597-a42a-c6af3bc0c0bb {
        stroke-width: 1.2px;
      }

      .uuid-4c0c3278-7522-485e-b57b-4bb5a01f678e {
        stroke-width: 1.09px;
      }
    </style>
    <clipPath
       id="uuid-199effb4-580c-4c90-ba7a-c71b2a5aab56">
      <ellipse
         class="uuid-13263231-2b88-43cc-b215-41cd1c967acc"
         cx="417.92001"
         cy="143.11"
         rx="119.85"
         ry="122.15"
         id="ellipse1" />
    </clipPath>
    <clipPath
       id="uuid-21a4989e-e63b-4cde-ae14-770b8eba3535">
      <ellipse
         class="uuid-13263231-2b88-43cc-b215-41cd1c967acc"
         cx="682.71002"
         cy="143.25999"
         rx="121.8"
         ry="123.31"
         id="ellipse2" />
    </clipPath>
    <clipPath
       id="uuid-f3c80b27-4cc5-4fe8-bc21-622479dac0f1">
      <ellipse
         class="uuid-13263231-2b88-43cc-b215-41cd1c967acc"
         cx="144.19"
         cy="145.94"
         rx="123.05"
         ry="122.06"
         id="ellipse3" />
    </clipPath>
  </defs>
  <g
     class="uuid-c32a38b7-371f-4c23-bdd4-f4633d841cb6"
     clip-path="url(#uuid-199effb4-580c-4c90-ba7a-c71b2a5aab56)"
     id="g47"
     transform="translate(-15.150006,-16.620327)">
    <g
       id="g46">
      <g
         id="uuid-5e3cb15c-c3af-45aa-b3ec-bd3cdbe1bd15"
         data-name="uuid-b1720e10-249c-40fc-a9c6-94631d2e3b25">
        <path
           class="uuid-b66539b1-d0e2-4851-986f-77754a80e046"
           d="m 384.49,244.07 0.11,0.13 0.37,0.11 0.56,0.09 0.76,0.06 0.85,0.06 0.93,0.02 h 1.71"
           id="path4" />
        <path
           class="uuid-b66539b1-d0e2-4851-986f-77754a80e046"
           d="m 384.49,235.02 0.11,0.11 0.35,0.11 0.57,0.09 0.76,0.08 0.85,0.04 0.95,0.02 v 9.32 l 0.07,1.34 0.24,1.34 0.43,1.34 0.72,1.23 1,0.75 1.11,0.08 h 1.84"
           id="path5" />
        <path
           class="uuid-b66539b1-d0e2-4851-986f-77754a80e046"
           d="m 386.16,248.58 v 0"
           id="path6" />
        <path
           class="uuid-b66539b1-d0e2-4851-986f-77754a80e046"
           d="m 387.44,249.75 0.07,0.04"
           id="path7" />
        <path
           class="uuid-b66539b1-d0e2-4851-986f-77754a80e046"
           d="m 446.64,242.43 -0.17,0.42 -0.56,0.42 -0.89,0.4 -1.22,0.38 -1.56,0.36 -1.87,0.34 -2.15,0.32 -2.39,0.26 -2.63,0.25 -2.82,0.21 -2.99,0.15 -3.1,0.11 -3.17,0.08 -3.23,0.02 -3.23,-0.02 -3.17,-0.08 -3.1,-0.11 -2.99,-0.15 -2.82,-0.21 -2.63,-0.25 -2.39,-0.26 -2.15,-0.32 -1.87,-0.34 -1.56,-0.36 -1.22,-0.38 -0.89,-0.4 -0.56,-0.42 -0.17,-0.42"
           id="path8" />
        <path
           class="uuid-b66539b1-d0e2-4851-986f-77754a80e046"
           d="m 388.09,235.47 h 1.08"
           id="path9" />
        <path
           class="uuid-b66539b1-d0e2-4851-986f-77754a80e046"
           d="m 389.16,236.62 0.35,0.58 1.06,0.57 1.72,0.53 2.35,0.51 2.93,0.43 3.43,0.38 3.84,0.3 4.17,0.23 4.38,0.13 4.51,0.04 4.51,-0.04 4.38,-0.13 4.17,-0.23 3.84,-0.3 3.43,-0.38 2.93,-0.43 2.35,-0.51 1.72,-0.53 1.06,-0.57 0.35,-0.58"
           id="path10" />
        <path
           class="uuid-b66539b1-d0e2-4851-986f-77754a80e046"
           d="m 389.65,244.24 0.02,0.04"
           id="path11" />
        <path
           class="uuid-b66539b1-d0e2-4851-986f-77754a80e046"
           d="m 402.46,250.92 -0.69,-0.06 -0.72,-0.19 -0.65,-0.32 -0.37,-0.26 -0.61,-0.7 -0.35,-0.62 -0.22,-0.55"
           id="path12" />
        <path
           class="uuid-b66539b1-d0e2-4851-986f-77754a80e046"
           d="m 412.3,249.21 h -0.15"
           id="path13" />
        <path
           class="uuid-b66539b1-d0e2-4851-986f-77754a80e046"
           d="m 411.61,236.87 0.2,-0.21 0.63,-0.21 1,-0.17 1.3,-0.11 1.52,-0.09 1.63,-0.02 1.63,0.02 1.52,0.09 1.3,0.11 1,0.17 0.63,0.21 0.2,0.21"
           id="path14" />
        <path
           class="uuid-b66539b1-d0e2-4851-986f-77754a80e046"
           d="m 423.5,249.21 h 0.15"
           id="path15" />
        <path
           class="uuid-b66539b1-d0e2-4851-986f-77754a80e046"
           d="m 433.34,250.92 0.69,-0.06 0.72,-0.19 0.65,-0.32 0.35,-0.26 0.63,-0.7 0.35,-0.62 0.22,-0.55"
           id="path16" />
        <path
           class="uuid-b66539b1-d0e2-4851-986f-77754a80e046"
           d="m 446.64,235.47 h 1.08 v 9.32 l -0.07,1.34 -0.24,1.34 -0.43,1.34 -0.72,1.23 -1,0.75 -1.11,0.08 h -1.56"
           id="path17" />
        <path
           class="uuid-b66539b1-d0e2-4851-986f-77754a80e046"
           d="m 446.15,244.24 -0.02,0.04"
           id="path18" />
        <path
           class="uuid-b66539b1-d0e2-4851-986f-77754a80e046"
           d="m 451.31,244.07 -0.11,0.13 -0.37,0.09 -0.56,0.11 -0.76,0.06 -0.85,0.06 -0.95,0.02 h -1.69"
           id="path19" />
        <path
           class="uuid-b66539b1-d0e2-4851-986f-77754a80e046"
           d="m 448.32,249.77 0.04,-0.02 0.07,-0.08"
           id="path20" />
        <path
           class="uuid-b66539b1-d0e2-4851-986f-77754a80e046"
           d="m 447.71,235.47 0.95,-0.02 0.85,-0.04 0.76,-0.08 0.56,-0.09 0.37,-0.11 0.11,-0.11"
           id="path21" />
        <path
           class="uuid-1a557059-804c-4a97-b3cf-fce3ec8f9fd4"
           d="m 384.49,241.06 v -13.05 16.34 l 0.17,1.34 0.48,1.36 0.87,1.41 0.28,0.32 1.45,1.19 -0.24,-0.19"
           id="path22" />
        <path
           class="uuid-1a557059-804c-4a97-b3cf-fce3ec8f9fd4"
           d="m 384.49,232.36 v -13.07 8.72"
           id="path23" />
        <path
           class="uuid-1a557059-804c-4a97-b3cf-fce3ec8f9fd4"
           d="m 384.49,219.29 v -2.3 l 0.24,-0.25 0.72,-0.23 1.13,-0.19 1.48,-0.13 1.74,-0.09 1.85,-0.04 h 52.47 l 1.85,0.04 1.72,0.09 1.28,0.11 0.22,0.02 1.13,0.19 0.72,0.23 0.24,0.25 v 27.35 l -0.17,1.34 -0.48,1.38 -0.85,1.36"
           id="path24" />
        <path
           class="uuid-1a557059-804c-4a97-b3cf-fce3ec8f9fd4"
           d="m 387.16,249.51 0.28,0.25 0.3,0.21 0.32,0.15 1.58,0.62 -0.24,-0.11"
           id="path25" />
        <path
           class="uuid-1a557059-804c-4a97-b3cf-fce3ec8f9fd4"
           d="m 389.16,242.43 v -1.38 1.38 l 0.11,0.94 0.54,1.28 0.57,0.74 1.24,0.94 0.83,0.38 0.82,0.32 1.13,0.36 1.41,0.32 1.69,0.32 1.95,0.26 2.19,0.26 2.39,0.21 2.56,0.19 2.69,0.15 3.02,0.09 2.78,0.08 2.82,0.02 2.82,-0.02 2.78,-0.08 3.02,-0.09 2.69,-0.15 2.71,-0.19 2.24,-0.21 2.19,-0.26 1.95,-0.26 1.69,-0.32 1.41,-0.32 1.13,-0.36 0.82,-0.32 0.83,-0.38 1.24,-0.94 0.57,-0.74 0.17,-0.42 0.37,-0.87 0.11,-0.94 v -6.96"
           id="path26" />
        <path
           class="uuid-1a557059-804c-4a97-b3cf-fce3ec8f9fd4"
           d="m 389.16,241.06 v -5.58 1.25"
           id="path27" />
        <path
           class="uuid-1a557059-804c-4a97-b3cf-fce3ec8f9fd4"
           d="m 389.63,250.73 0.19,0.06 0.19,0.02 0.19,0.02 1.48,0.04 10.79,0.06 1.19,-0.06 1.71,-0.17 3.3,-0.25 3.58,-0.17 3.76,-0.09 h 3.82 l 3.76,0.09 3.58,0.17 3.3,0.25 1.71,0.17 1.19,0.06 10.79,-0.06 1.48,-0.04 0.19,-0.02 0.19,-0.02 0.24,-0.09"
           id="path28" />
        <path
           class="uuid-1a557059-804c-4a97-b3cf-fce3ec8f9fd4"
           d="m 411.61,236.87 0.2,0.21 0.63,0.19 1,0.17 1.3,0.13 1.52,0.08 1.63,0.04 1.63,-0.04 1.52,-0.08 1.3,-0.13 1,-0.17 0.63,-0.19 0.2,-0.21"
           id="path29" />
        <path
           class="uuid-1a557059-804c-4a97-b3cf-fce3ec8f9fd4"
           d="m 446.84,250.47 -0.67,0.26 -0.19,0.06 1.76,-0.68 0.32,-0.15 0.3,-0.21 1.15,-0.98 0.28,-0.32"
           id="path30" />
      </g>
      <g
         id="uuid-5eb4a19d-8183-43c5-9a7d-002dde8a856d"
         data-name="uuid-07b6d85c-6382-454d-be22-a3748268ee59">
        <path
           class="uuid-b66539b1-d0e2-4851-986f-77754a80e046"
           d="m 386.64,34.13 h 7.19"
           id="path31" />
        <path
           class="uuid-b66539b1-d0e2-4851-986f-77754a80e046"
           d="m 386.64,34.21 h 7.19"
           id="path32" />
        <path
           class="uuid-b66539b1-d0e2-4851-986f-77754a80e046"
           d="m 420.42,113.4 h -11.5"
           id="path33" />
        <path
           class="uuid-b66539b1-d0e2-4851-986f-77754a80e046"
           d="M 420.42,147.43 H 424"
           id="path34" />
        <path
           class="uuid-b66539b1-d0e2-4851-986f-77754a80e046"
           d="M 426.87,113.4 H 424"
           id="path35" />
        <path
           class="uuid-1a557059-804c-4a97-b3cf-fce3ec8f9fd4"
           d="M 352.62,242.66 C 352.21,176.05 352.21,110.05 352.5,43.22"
           id="path36" />
        <path
           class="uuid-1a557059-804c-4a97-b3cf-fce3ec8f9fd4"
           d="m 363.28,36.41 c 0.47,72.54 0.47,144.54 0.19,217.36"
           id="path37" />
        <path
           class="uuid-1a557059-804c-4a97-b3cf-fce3ec8f9fd4"
           d="m 386.7,264.2 c -0.01,-5.05 -0.03,-10.09 -0.07,-15.14"
           id="path38" />
        <path
           class="uuid-1a557059-804c-4a97-b3cf-fce3ec8f9fd4"
           d="m 386.64,34.13 v 0.08 -2.11 2.04"
           id="path39" />
        <path
           class="uuid-1a557059-804c-4a97-b3cf-fce3ec8f9fd4"
           d="M 386.64,32.09 V 25.74"
           id="path40" />
        <path
           class="uuid-1a557059-804c-4a97-b3cf-fce3ec8f9fd4"
           d="m 393.77,268.11 c 0,-5.74 0.03,-11.48 0.06,-17.22"
           id="path41" />
        <path
           class="uuid-1a557059-804c-4a97-b3cf-fce3ec8f9fd4"
           d="M 393.84,34.21 V 23.68"
           id="path42" />
        <path
           class="uuid-1a557059-804c-4a97-b3cf-fce3ec8f9fd4"
           d="m 420.42,150.09 h 6.45 v -46.35 h -17.95 v 46.37 l 11.5,-0.02 v -33.11 2.19"
           id="path43" />
        <path
           class="uuid-1a557059-804c-4a97-b3cf-fce3ec8f9fd4"
           d="m 420.42,116.98 v -7.36 H 424 v 40.46"
           id="path44" />
        <path
           class="uuid-1a557059-804c-4a97-b3cf-fce3ec8f9fd4"
           d="m 462.1,29.93 c 0.11,77.12 0.11,153.12 -0.12,230.4"
           id="path45" />
        <path
           class="uuid-1a557059-804c-4a97-b3cf-fce3ec8f9fd4"
           d="m 472.83,255.62 c 0.38,-73.57 0.38,-146.57 0.05,-221.04"
           id="path46" />
      </g>
    </g>
  </g>
  <path
     class="uuid-aaff758e-4014-4fa7-90a4-1317177a3d79"
     d="m 402.64999,1.8096726 c -54.61,0 -100.86,36.4400004 -116.66,86.7500004 -0.2,1.15 -0.53,2.26 -0.99,3.32 -3.13,11.029997 -4.82,22.699997 -4.82,34.759997 0,68.94 54.83,124.83 122.47,124.83 67.64,0 122.47,-55.89 122.47,-124.83 0,-68.939997 -54.83,-124.8299974 -122.47,-124.8299974 z"
     id="path47" />
  <ellipse
     class="uuid-77e9aab4-d950-453c-9c8e-22c1934a18ec"
     cx="402.51999"
     cy="126.79967"
     rx="119.85"
     ry="122.15"
     id="ellipse47" />
  <path
     class="uuid-e890dedb-740b-4002-91f3-32742beb2411"
     d="m 489.10161,136.98807 -0.79971,1.13002 c -5.56317,8.41431 -10.11803,12.62146 -13.69931,12.62146 -4.10286,0 -8.13616,-3.33791 -12.08254,-9.99634 0.53894,0.0348 0.9214,0.0522 1.18218,0.0522 4.67654,0 9.87464,-3.56391 15.61167,-10.69173 l 1.44294,-1.82543 -1.87757,-2.03403 c -5.23286,-5.56317 -7.85799,-10.29188 -7.85799,-14.16872 0,-3.16405 2.86851,-6.91919 8.60554,-11.23063 0.81709,5.52838 3.26837,10.9177 7.31906,16.15057 l 1.59942,2.03404 1.28648,-1.65157 c 5.94564,-7.59722 11.35236,-11.38713 16.20276,-11.38713 3.77252,0 6.64104,2.86851 8.60553,8.60554 -0.57369,-0.0696 -0.97355,-0.10435 -1.23432,-0.10435 -1.70373,0 -4.12023,1.14741 -7.21475,3.44222 -3.11191,2.29481 -5.71965,4.88516 -7.85798,7.78845 l -1.59942,2.19049 1.54725,1.49512 c 5.73703,5.56317 11.73483,8.34476 17.97603,8.34476 -3.3553,6.78013 -6.84967,10.17018 -10.48312,10.17018 -3.28575,0 -8.03184,-2.88589 -14.22088,-8.65769 l -2.45127,-2.24266 z"
     id="path48"
     style="stroke-width:1.73849" />
  <g
     class="uuid-7b7b9ba1-fa6f-4822-b8e9-132f6a8672e7"
     clip-path="url(#uuid-21a4989e-e63b-4cde-ae14-770b8eba3535)"
     id="g96"
     transform="translate(-15.150006,-16.620327)">
    <g
       id="g95">
      <g
         id="uuid-4ed13cff-350f-4573-85dc-69d356b1576b"
         data-name="uuid-ae1b3c0d-6cd1-49da-b349-0cd6b3493e16">
        <path
           class="uuid-96516352-2cf3-4ea2-9997-3e6566451b0c"
           d="m 702.01,98.85 12.17,0.06 2.25,-1.06 2.05,-0.81 1.47,-0.49 0.88,-0.18 h 0.49 l 0.17,0.15 -0.6,141.86 -0.18,1.62 -0.56,1.53 -0.88,1.38 -1.16,1.15 -1.39,0.85 -1.54,0.54 -1.62,0.18 -53.33,-0.23 -1.62,-0.18 -1.53,-0.54 -1.38,-0.87 -1.16,-1.17 -0.88,-1.37 -0.44,-1.29 -0.08,-0.25 -0.18,-1.64 0.19,-0.27 0.53,-0.27 0.87,-0.23 1.17,-0.2 1.37,-0.14 1.54,-0.09 1.62,-0.03 53.33,0.21 v 10.11"
           id="path49" />
        <path
           class="uuid-96516352-2cf3-4ea2-9997-3e6566451b0c"
           d="m 653.59,96.28 0.19,-0.19 h 0.47 l 0.87,0.2 1.47,0.49 2.02,0.84 2.27,1.07 -0.6,138.72 -0.02,9.56"
           id="path50" />
        <path
           class="uuid-96516352-2cf3-4ea2-9997-3e6566451b0c"
           d="m 673.03,98.73 -12.15,-0.04 -1.13,-2.2 -1.01,-1.84 -0.72,-1.23 -0.44,-0.63 -0.25,-0.23"
           id="path51" />
        <path
           class="uuid-96516352-2cf3-4ea2-9997-3e6566451b0c"
           d="m 658.39,84.14 0.13,-0.15 0.36,-0.15 0.58,-0.14 0.75,-0.1 0.89,-0.04 0.94,-0.03 0.17,-2.84 0.49,-2.82 0.81,-2.75 1.1,-2.62 1.4,-2.5 1.68,-2.32 1.91,-2.13 2.16,-1.9 2.33,-1.63 2.52,-1.37 2.67,-1.08 2.75,-0.78 2.82,-0.48 2.86,-0.15 2.87,0.17 2.83,0.5 2.76,0.8 2.65,1.11 2.5,1.39 2.33,1.66 2.12,1.91 1.92,2.14 1.64,2.33 1.39,2.5 1.07,2.64 0.79,2.74 0.47,2.82 0.15,2.86 0.94,0.03 0.89,0.05 0.75,0.11 0.58,0.13 0.36,0.15 0.13,0.17 -0.04,8.44"
           id="path52" />
        <path
           class="uuid-96516352-2cf3-4ea2-9997-3e6566451b0c"
           d="M 662.04,83.53 662,92.61"
           id="path53" />
        <path
           class="uuid-96516352-2cf3-4ea2-9997-3e6566451b0c"
           d="m 705.93,61.59 -0.04,-0.02"
           id="path54" />
        <path
           class="uuid-96516352-2cf3-4ea2-9997-3e6566451b0c"
           d="m 720.91,239.94 v -1.56 l -0.2,-0.28 -0.53,-0.26 -0.87,-0.24 -1.17,-0.22 -1.38,-0.14 -1.55,-0.1 -1.62,-0.05 0.59,-138.17 1.14,-2.18 1.02,-1.85 0.75,-1.2 0.45,-0.63 0.24,-0.23"
           id="path55" />
        <path
           class="uuid-96516352-2cf3-4ea2-9997-3e6566451b0c"
           d="m 713.17,83.73 -0.04,9.08"
           id="path56" />
        <path
           class="uuid-96516352-2cf3-4ea2-9997-3e6566451b0c"
           d="m 716.84,85.39 -0.02,-0.13"
           id="path57" />
        <path
           class="uuid-96516352-2cf3-4ea2-9997-3e6566451b0c"
           d="M 721.51,98.13 V 98"
           id="path58" />
        <path
           class="uuid-1be5a483-c54e-4e19-92b5-8fd3ad169bd1"
           d="m 653.35,241.86 0.61,1.46 1.14,1.5 1.51,1.17 1.76,0.73 1.89,0.25 53.33,0.21 1.88,-0.24 1.77,-0.72 1.52,-1.15 1.16,-1.49 0.74,-1.76 0.25,-1.89 0.6,-141.81 v -1.58 l -0.13,-0.99 -0.36,-0.87 -0.57,-0.76 -0.76,-0.59 -1.02,-0.41 -0.89,-0.13 -2.3,0.03 -8.12,-0.06 -0.37,0.42 -1.66,2.2 -0.65,0.8 -0.75,0.82 -0.69,0.69 -1.22,1.13 -1.74,1.36 -3.34,1.96 -3.65,1.34 -3.84,0.65 h -3.88 l -3.83,-0.71 -3.63,-1.35 -3.35,-1.98 -1.72,-1.4 -1.21,-1.13 -0.66,-0.7 -0.74,-0.83 -1.03,-1.27 -1.27,-1.74 -0.34,-0.42 -8.69,-0.02 -1.75,-0.05 -0.88,0.12 -1.02,0.41 -0.77,0.58 -0.58,0.75 -0.37,0.88 -0.13,0.99 -0.6,141.81 v 1.58 l 0.25,1.88 0.11,0.3"
           id="path59" />
        <path
           class="uuid-1be5a483-c54e-4e19-92b5-8fd3ad169bd1"
           d="m 658.35,92.58 0.04,-8.44 0.21,-3.26 0.55,-3.2 0.92,-3.13 1.28,-3.02 1.58,-2.85 1.91,-2.66 2.21,-2.41 2.51,-2.24 2.68,-1.86 2.85,-1.56 3.03,-1.22 3.14,-0.9 3.2,-0.53 3.26,-0.15 3.26,0.19 3.21,0.55 3.13,0.91 3.02,1.26 2.84,1.58 2.65,1.89 2.52,2.25 2.16,2.44 1.9,2.67 1.56,2.87 1.24,3.02 0.89,3.14 0.55,3.21 0.17,3.26 -0.04,8.44"
           id="path60" />
        <path
           class="uuid-1be5a483-c54e-4e19-92b5-8fd3ad169bd1"
           d="m 657.39,92.6 h 2.32"
           id="path61" />
        <path
           class="uuid-1be5a483-c54e-4e19-92b5-8fd3ad169bd1"
           d="m 715.41,92.84 h 2.32"
           id="path62" />
      </g>
      <g
         id="uuid-299289e7-d23a-426f-889f-8838ca317f79"
         data-name="uuid-095810b7-ce6b-4ece-8e43-4123120ef189">
        <path
           class="uuid-96516352-2cf3-4ea2-9997-3e6566451b0c"
           d="m 667.65,82.2 0.24,1.54 0.44,1.84 0.63,1.79 0.78,1.73 0.95,1.63 1.1,1.55 1.25,1.42 1.37,1.32 1.5,1.17 1.61,1.02 1.68,0.88 1.76,0.71 1.83,0.52 1.87,0.37 1.9,0.2 h 1.9 l 1.88,-0.18 1.88,-0.34 1.82,-0.53 1.77,-0.7 1.71,-0.87 1.6,-1 1.52,-1.17 1.39,-1.3 1.25,-1.42 1.12,-1.53 0.95,-1.64 0.82,-1.72 0.63,-1.78 0.46,-1.85 0.25,-1.53"
           id="path63" />
        <path
           class="uuid-96516352-2cf3-4ea2-9997-3e6566451b0c"
           d="m 667.53,80.83 0.12,1.69"
           id="path64" />
        <path
           class="uuid-96516352-2cf3-4ea2-9997-3e6566451b0c"
           d="m 667.66,77.8 17.58,0.06 v -7.6 7.6"
           id="path65" />
        <path
           class="uuid-96516352-2cf3-4ea2-9997-3e6566451b0c"
           d="m 707.55,77.64 -0.04,-0.09 -0.13,-0.09 -0.06,-0.02 -0.21,-0.09 -0.28,-0.07 -0.47,-0.09 -0.4,-0.05 -0.62,-0.05 -0.68,-0.05 h -0.81 l -0.14,-0.83 -0.37,-1.5 -0.5,-1.48 -0.65,-1.41 -0.78,-1.35 -0.91,-1.25 -1.01,-1.17 -1.14,-1.08 -1.21,-0.96 -1.31,-0.83 -1.38,-0.71 -1.45,-0.58 -1.49,-0.45 -1.53,-0.29 -1.55,-0.16 h -1.56 l -1.54,0.13 -1.54,0.3 -1.49,0.43 -1.45,0.56 -1.39,0.71 -1.31,0.83 -1.24,0.94 -1.14,1.07 -1.03,1.17 -0.9,1.24 -0.8,1.34 -0.65,1.41 -0.54,1.45 -0.37,1.51 -0.15,0.82 -0.9,0.02 -0.51,0.02 -0.64,0.06 -0.56,0.06 -0.34,0.08 -0.38,0.1 -0.19,0.08 -0.06,0.06 -0.09,0.08 -0.02,0.06"
           id="path66" />
        <path
           class="uuid-96516352-2cf3-4ea2-9997-3e6566451b0c"
           d="m 671.32,81.58 0.14,0.84 0.37,1.5 0.52,1.46 0.65,1.41 0.78,1.35 0.89,1.27 1.02,1.17 1.12,1.06 1.23,0.96 1.31,0.85 1.38,0.71 1.45,0.58 1.49,0.43 1.53,0.29 1.55,0.16 h 1.55 l 1.56,-0.13 1.52,-0.3 1.5,-0.43 1.45,-0.56 1.39,-0.69 1.31,-0.83 1.24,-0.96 1.12,-1.05 1.03,-1.17 0.92,-1.26 0.78,-1.34 0.67,-1.39 0.52,-1.47 0.39,-1.51 0.15,-0.82"
           id="path67" />
        <path
           class="uuid-96516352-2cf3-4ea2-9997-3e6566451b0c"
           d="M 685.24,76.92 671.35,76.86"
           id="path68" />
        <path
           class="uuid-96516352-2cf3-4ea2-9997-3e6566451b0c"
           d="m 670.79,68.98 0.04,-0.06"
           id="path69" />
        <path
           class="uuid-96516352-2cf3-4ea2-9997-3e6566451b0c"
           d="m 685.22,82.6 -0.02,5.77"
           id="path70" />
        <path
           class="uuid-96516352-2cf3-4ea2-9997-3e6566451b0c"
           d="m 685.18,88.37 0.03,-6.72"
           id="path71" />
        <path
           class="uuid-96516352-2cf3-4ea2-9997-3e6566451b0c"
           d="m 685.26,71.13 4.75,0.03"
           id="path72" />
        <path
           class="uuid-96516352-2cf3-4ea2-9997-3e6566451b0c"
           d="M 685.25,70.26 V 70.2 H 690"
           id="path73" />
        <path
           class="uuid-96516352-2cf3-4ea2-9997-3e6566451b0c"
           d="m 689.99,76.93 13.87,0.06"
           id="path74" />
        <path
           class="uuid-96516352-2cf3-4ea2-9997-3e6566451b0c"
           d="m 689.99,77.88 17.56,0.08"
           id="path75" />
        <path
           class="uuid-96516352-2cf3-4ea2-9997-3e6566451b0c"
           d="m 704.5,69.11 h -0.02"
           id="path76" />
        <path
           class="uuid-96516352-2cf3-4ea2-9997-3e6566451b0c"
           d="m 707.67,80.99 -0.14,1.7"
           id="path77" />
        <path
           class="uuid-96516352-2cf3-4ea2-9997-3e6566451b0c"
           d="m 707.55,77.64 -0.24,-1.52"
           id="path78" />
        <path
           class="uuid-1be5a483-c54e-4e19-92b5-8fd3ad169bd1"
           d="m 667.64,83.55 -0.1,-1.14 v -1.58 l 0.09,-2.67 0.04,-0.36 v -0.32 l 0.25,-1.53 0.46,-1.83 0.65,-1.79 0.8,-1.72 0.97,-1.62 1.18,-1.63 1.25,-1.42 1.37,-1.28 1.5,-1.15 1.61,-1.02 1.69,-0.85 1.77,-0.7 1.82,-0.53 1.86,-0.35 1.88,-0.16 h 1.9 l 1.89,0.19 1.85,0.37 1.83,0.54 1.76,0.71 1.68,0.87 1.59,1.02 1.5,1.17 1.36,1.31 1.25,1.44 1.16,1.61 0.95,1.65 0.78,1.73 0.63,1.79 0.44,1.84 0.24,1.52 v 0.32 l 0.04,0.36 0.07,2.67 v 1.58 l -0.28,2.65 -0.62,2.59 -0.98,2.5 -1.29,2.33 -1.61,2.14 -1.7,1.72 -0.17,0.19 -2.12,1.65 -2.31,1.35 -2.48,1.03 -2.58,0.7 -2.67,0.34 -1.34,0.05 -1.34,-0.05 -2.66,-0.38 -2.59,-0.71 -2.46,-1.05 -2.31,-1.38 -2.1,-1.66 -1.86,-1.93 -1.58,-2.16 -1.28,-2.33 -0.96,-2.51 -0.62,-2.61 -0.14,-1.5"
           id="path79" />
        <path
           class="uuid-1be5a483-c54e-4e19-92b5-8fd3ad169bd1"
           d="m 685.22,82.6 v -0.95 h -2.32 l -11.57,-0.06 -0.72,0.02 -0.47,0.02 -0.66,0.04 -0.56,0.06 -0.38,0.06 -0.32,0.08 -0.28,0.1 -0.19,0.1 -0.06,0.04 -0.04,0.1 v 0.32"
           id="path80" />
        <path
           class="uuid-1be5a483-c54e-4e19-92b5-8fd3ad169bd1"
           d="m 685.18,88.37 4.75,0.03 0.03,-6.72 13.89,0.04 0.53,0.02 0.51,0.02 0.64,0.05 0.62,0.07 0.38,0.05 0.34,0.07 0.36,0.11 0.17,0.08 0.06,0.04 0.08,0.09 v 0.36"
           id="path81" />
        <path
           class="uuid-1be5a483-c54e-4e19-92b5-8fd3ad169bd1"
           d="M 689.99,77.88 V 70.21"
           id="path82" />
      </g>
      <g
         id="uuid-7cb34741-52a5-4611-bb29-b57eaffd4e7b"
         data-name="uuid-03320e3d-5742-42dc-92d5-8e5f267e3ee8">
        <path
           class="uuid-96516352-2cf3-4ea2-9997-3e6566451b0c"
           d="m 656.01,46.79 7.29,0.03 v -0.08 l -7.29,-0.03"
           id="path83" />
        <path
           class="uuid-96516352-2cf3-4ea2-9997-3e6566451b0c"
           d="M 662.37,268.16 662.39,265"
           id="path84" />
        <path
           class="uuid-96516352-2cf3-4ea2-9997-3e6566451b0c"
           d="m 662.39,265.05 v 0.91"
           id="path85" />
        <path
           class="uuid-96516352-2cf3-4ea2-9997-3e6566451b0c"
           d="m 663.3,46.74 0.02,-0.53 -0.02,0.61"
           id="path86" />
        <path
           class="uuid-96516352-2cf3-4ea2-9997-3e6566451b0c"
           d="m 663.32,46.21 c 0.03,-7.68 0.06,-15.36 0.1,-23.05"
           id="path87" />
        <path
           class="uuid-96516352-2cf3-4ea2-9997-3e6566451b0c"
           d="m 742.35,261.92 c -0.62,-76.97 1.38,-154.97 1.42,-232.39"
           id="path88" />
        <path
           class="uuid-1be5a483-c54e-4e19-92b5-8fd3ad169bd1"
           d="m 620.38,259.7 c 1.34,-73.75 -1.66,-148.75 0.98,-222.84"
           id="path89" />
        <path
           class="uuid-1be5a483-c54e-4e19-92b5-8fd3ad169bd1"
           d="m 631.57,261.96 c 0.15,-19.11 0.12,-38.21 0.03,-57.32 v 1.03 -1.03 2.19"
           id="path90" />
        <path
           class="uuid-1be5a483-c54e-4e19-92b5-8fd3ad169bd1"
           d="m 631.6,204.63 c 0.24,-57.95 0.49,-115.89 0.73,-173.84"
           id="path91" />
        <path
           class="uuid-1be5a483-c54e-4e19-92b5-8fd3ad169bd1"
           d="m 654.73,270.84 v -5.88 c 2.55,0 5.11,0 7.66,0.11"
           id="path92" />
        <path
           class="uuid-1be5a483-c54e-4e19-92b5-8fd3ad169bd1"
           d="m 656.01,46.79 c 0.03,-8.05 0.07,-16.1 0.1,-24.15"
           id="path93" />
        <path
           class="uuid-1be5a483-c54e-4e19-92b5-8fd3ad169bd1"
           d="m 731.8,256.51 c 0.32,-75.18 0.64,-150.37 0.96,-225.55"
           id="path94" />
        <path
           class="uuid-1be5a483-c54e-4e19-92b5-8fd3ad169bd1"
           d="m 742.84,249.87 c 0.3,-70.75 0.61,-141.49 0.91,-212.24"
           id="path95" />
      </g>
    </g>
  </g>
  <ellipse
     class="uuid-cdafdb80-6baa-4aa8-ba90-4f28bd4ca75f"
     cx="667.56"
     cy="126.63966"
     rx="124.46"
     ry="126.01"
     id="ellipse96" />
  <path
     class="uuid-29874ce7-3dde-4422-9646-bd42ac80fdf5"
     d="m 667.43999,3.4896727 c 67.27,0 121.8,55.2100003 121.8,123.3099973 0,68.1 -54.53,123.31 -121.8,123.31 -67.27,0 -121.8,-55.21 -121.8,-123.31 0,-68.099997 55.27,-112.869997 102.37,-121.7499973 9.07,-1.71 16.07,-1.56 19.43,-1.56 z"
     id="path96" />
  <path
     class="uuid-15f5dcaf-bf85-4369-ac65-7bd5330ec6e4"
     d="m 785.79326,104.71281 1.42668,2.03435 c -5.79921,4.35931 -12.2457,11.08322 -19.33949,20.15851 -7.09379,9.07529 -12.50991,17.55614 -16.24835,25.44253 l -3.01188,2.03434 c -2.4967,1.73052 -4.18758,3.0251 -5.08587,3.85733 -0.35667,-1.26816 -1.12285,-3.35535 -2.31175,-6.26155 l -1.13607,-2.64201 c -1.62483,-3.79128 -3.13077,-6.59181 -4.53104,-8.41479 -1.40026,-1.80978 -2.95905,-3.0251 -4.68956,-3.61955 2.91942,-3.09115 5.61426,-4.63672 8.04491,-4.63672 2.08719,0 4.39894,2.82694 6.94848,8.49405 l 1.25495,2.84016 c 4.58388,-7.71467 10.46235,-15.21797 17.6354,-22.5099 7.17305,-7.29194 14.20079,-12.87979 21.04359,-16.78996 v 0 z"
     id="path97"
     style="stroke-width:1.321" />
  <circle
     class="uuid-29719c5d-ca72-497c-b0b9-f03473d90fe7"
     cx="402.51999"
     cy="53.39967"
     r="7.3200002"
     id="circle97" />
  <g
     class="uuid-48cc12ac-8723-4857-8dcb-10aec86cca8f"
     clip-path="url(#uuid-f3c80b27-4cc5-4fe8-bc21-622479dac0f1)"
     id="g280"
     transform="translate(-15.150006,-16.620327)">
    <g
       id="g279">
      <polygon
         points="149.66,182.27 148,179.77 146.81,179.58 148,185.19 149.38,185.15 "
         id="polygon97" />
      <polygon
         class="uuid-f7a6758d-3209-4b5b-8489-fe68e09f9768"
         points="191.54,132.55 192.83,118.04 190.31,116.53 187.55,116.62 187.88,133.87 "
         id="polygon98" />
      <polygon
         class="uuid-8e49b89a-4a53-4d0c-b08b-a672cc2f7619"
         points="156.32,189.43 162.32,188.26 195.97,166.81 196.45,162.01 159.99,184.58 160.37,187.36 157.99,185.85 151.42,188.16 149.28,190.94 149.95,195 152.99,194.48 "
         id="polygon99" />
      <polygon
         points="318.67,112.34 325.14,112.39 327.42,90.85 332.99,79.68 337.94,73.88 341.51,71.38 350.51,71.8 350.52,71.81 350.57,70.4 340.72,69.27 337.1,67.86 333.1,67.81 327.06,71.44 322.63,77.76 318.63,78.61 314.87,80.82 310.59,89.68 310.54,96.61 311.54,99.2 315.44,101.27 316.58,107.3 "
         id="polygon100" />
      <polygon
         points="324.67,117.85 326.24,120.3 326.25,120.3 333.72,120.58 333.62,119.31 329.91,117.9 "
         id="polygon101" />
      <path
         d="m 357.94,84.01 -33.17,74.3 c 6.32,11.09 10.14,22.79 4.26,36.04 -1.44,3.24 -4.08,5.37 -7.18,6.56 0.39,1.79 0.81,3.58 1.3,5.34 0.45,1.61 0.97,3.18 1.5,4.77 0.06,0.19 0.11,0.34 0.16,0.49 1.18,2.25 2.15,4.61 3.34,6.86 2.59,4.89 5.5,9.59 8.72,14.09 0,-0.07 2.02,2.52 2.37,2.91 0.82,0.92 1.66,1.81 2.55,2.66 0.52,0.5 0.94,0.86 1.2,1.08 0.75,0.48 1.5,0.94 2.31,1.34 1.46,0.72 2.69,1.66 3.73,2.77 l 7.36,-120.13 0.1,-18.99 2.09,-3.68 0.05,-15.79 -0.68,-0.62 z"
         id="path101" />
      <g
         id="uuid-09ebd6be-8e75-49c4-9e28-9d59fb28d2fd"
         data-name="uuid-bc8b190d-7022-48c8-86ad-562aa6d7f1b7">
        <path
           class="uuid-67c34de6-ec47-4102-8d21-34160a062cf1"
           d="m 156.42,188.96 0.19,-0.14 0.1,-0.24 0.05,-0.28 v -0.33 l -0.86,0.52 -0.95,0.47 -0.81,0.33 -0.19,0.09 -1.09,0.38 -1.14,0.38 -1.19,0.28 -1.24,0.28 -1.24,0.19 -1.19,0.14 -1.24,0.09 h -1.14 l -1.14,-0.05 -0.62,-0.05 -0.43,-0.05 -0.95,-0.14 -0.9,-0.24 -0.81,-0.24 -0.67,-0.33 -0.57,-0.38 -0.43,-0.38 -0.29,-0.47 -0.19,-0.47"
           id="path102" />
        <path
           class="uuid-67c34de6-ec47-4102-8d21-34160a062cf1"
           d="m 156.37,186.04 2.24,-1.41 0.33,1.98 -2.19,1.37 -0.38,-1.93 -1.19,0.66 -1.38,0.61 -1.57,0.57 -1.62,0.47 -1.71,0.38 -1.71,0.24 -1.67,0.14 -1.67,0.05 -1.52,-0.09 -1.38,-0.19 -1.24,-0.33 -1,-0.42 -0.76,-0.52 -0.57,-0.57 -0.24,-0.66"
           id="path103" />
        <path
           class="uuid-67c34de6-ec47-4102-8d21-34160a062cf1"
           d="m 141.62,181.23 0.29,0.05 -0.24,0.19 -0.05,-0.24 -0.24,-0.09 -0.19,-0.09 -0.05,-0.14"
           id="path104" />
        <path
           class="uuid-67c34de6-ec47-4102-8d21-34160a062cf1"
           d="m 141.67,181.47 -0.38,0.24"
           id="path105" />
        <path
           class="uuid-67c34de6-ec47-4102-8d21-34160a062cf1"
           d="m 149.57,183.78 0.29,0.19 0.14,0.24 -0.05,0.28 -0.19,0.24 -0.33,0.28 -0.48,0.24 -0.52,0.19 -0.62,0.19 -0.62,0.05 h -0.62 l -0.52,-0.05 -0.43,-0.14 -0.29,-0.14 -0.14,-0.24 0.05,-0.28 0.19,-0.28 h 0.05"
           id="path106" />
        <path
           class="uuid-67c34de6-ec47-4102-8d21-34160a062cf1"
           d="m 161.27,189.01 0.19,-0.28 0.05,-0.38 -0.05,-0.42 -0.05,-0.52 -0.29,0.14 -0.29,0.09 -0.38,0.09 -0.33,0.05 h -0.67 l -0.57,-3.11 -0.29,-0.05"
           id="path107" />
        <path
           class="uuid-67c34de6-ec47-4102-8d21-34160a062cf1"
           d="m 157.09,188.54 1.52,-0.94 0.86,0.19 0.14,0.47 0.14,0.42 0.19,0.33 0.19,0.19"
           id="path108" />
        <path
           class="uuid-67c34de6-ec47-4102-8d21-34160a062cf1"
           d="m 158.94,186.61 0.05,0.28 -0.05,0.28 -0.14,0.24 -0.19,0.19"
           id="path109" />
        <path
           class="uuid-67c34de6-ec47-4102-8d21-34160a062cf1"
           d="m 157.13,188.63 0.38,0.05"
           id="path110" />
        <path
           class="uuid-67c34de6-ec47-4102-8d21-34160a062cf1"
           d="m 157.18,188.63 0.29,0.05"
           id="path111" />
        <path
           class="uuid-67c34de6-ec47-4102-8d21-34160a062cf1"
           d="m 196.07,161.44 -0.05,0.28 -0.19,0.33 -0.38,0.33 -34.6,21.91 -0.29,0.14 -0.29,0.14 -0.38,0.09 -0.33,0.05 h -0.33 l -0.33,-0.05"
           id="path112" />
        <path
           class="uuid-67c34de6-ec47-4102-8d21-34160a062cf1"
           d="m 160.85,184.3 0.57,3.11 34.6,-21.96 0.05,0.57 -0.05,0.47 -0.19,0.42 -0.29,0.33"
           id="path113" />
        <path
           class="uuid-67c34de6-ec47-4102-8d21-34160a062cf1"
           d="m 196.64,164.79 -0.05,0.14 -0.24,0.28 -0.33,0.24 -0.57,-3.06"
           id="path114" />
        <path
           class="uuid-67c34de6-ec47-4102-8d21-34160a062cf1"
           d="m 196.3,166.44 -0.14,0.19 -0.24,0.28 -0.33,0.33 -34.32,21.77 -0.14,0.09 -0.19,0.09 -0.19,0.05 h -0.38 l -0.24,-0.05 -2.95,-0.57 h -0.05 l -0.05,-0.09 -0.67,0.42 -0.81,0.47 -0.86,0.42 -0.95,0.42 -1.05,0.38 -1.05,0.33 -1.14,0.28 -1.14,0.24 -1.14,0.19 -1.14,0.09 -1.14,0.09 h -2.14 l -1,-0.09 -0.9,-0.14 -0.81,-0.24 -1.05,-0.33 -0.62,-0.28 -0.57,-0.38 -0.24,-0.19 -0.43,-0.38 -0.19,-0.28 -0.29,-0.42 -0.29,-0.8 -0.33,-1.98 v -0.71 l 0.24,-0.75 0.52,-0.75 0.81,-0.71 1,-0.75 1.57,-0.99 -0.14,-0.8 v -0.14 l 0.1,-0.14 0.19,-0.14 3.28,-2.12"
           id="path115" />
        <path
           class="uuid-67c34de6-ec47-4102-8d21-34160a062cf1"
           d="m 196.54,163.99 -0.48,-2.54 -0.14,-0.28 -0.33,-0.19 -0.48,-0.14 -15.23,-3.02 -0.57,-0.09 -0.71,0.05 -0.71,0.05 -0.67,0.19 -0.67,0.24 -0.52,0.28 -29.79,18.9"
           id="path116" />
      </g>
      <g
         id="uuid-d4297bc6-7576-437c-af62-463b3540b714"
         data-name="uuid-3e65fbf9-cbd7-474e-b7b1-82d86fcdb023">
        <path
           class="uuid-67c34de6-ec47-4102-8d21-34160a062cf1"
           d="m 154.94,193.2 0.1,-0.09 0.05,-0.09 0.05,-0.05 v -0.14 l 0.05,-0.19 v -0.19 l -0.05,-0.14 -0.1,-0.61 -0.38,0.28 -0.67,0.42 -0.1,0.05 0.1,0.61 -0.43,0.24 -0.57,0.24 -0.62,0.24 -0.67,0.24 -0.67,0.19 -0.71,0.19 -0.67,0.14 -0.71,0.14 -0.71,0.09 -0.71,0.05 -0.71,0.05 h -1.33 l -0.62,-0.05 -0.57,-0.09 -0.57,-0.09 -0.48,-0.14 -0.43,-0.19 -0.43,-0.19 -0.33,-0.19 -0.24,-0.24 -0.05,-0.05 -0.19,-0.19 -0.14,-0.28"
           id="path117" />
        <path
           class="uuid-67c34de6-ec47-4102-8d21-34160a062cf1"
           d="m 145.62,185.33 0.05,0.19"
           id="path118" />
        <path
           class="uuid-67c34de6-ec47-4102-8d21-34160a062cf1"
           d="m 148.52,178.17 v 0.24 l -0.14,0.19 -0.24,0.24 -0.38,0.24 -0.43,0.14 -0.48,0.14 -0.52,0.09 -0.52,0.05 -0.48,-0.05 h -0.19 l -0.19,-0.05 -0.29,-0.14 -0.19,-0.19 -0.05,-0.19"
           id="path119" />
        <path
           class="uuid-67c34de6-ec47-4102-8d21-34160a062cf1"
           d="m 147.47,177.46 0.19,0.09 0.05,0.14 v 0.14 l -0.1,0.14 -0.14,0.14 -0.24,0.14 -0.29,0.14 -0.33,0.09 -0.38,0.05 h -0.76 l -0.14,-0.05 -0.19,-0.09 -0.1,-0.09 -0.05,-0.14 0.05,-0.14"
           id="path120" />
        <path
           class="uuid-67c34de6-ec47-4102-8d21-34160a062cf1"
           d="m 149.71,184.58 0.05,0.19"
           id="path121" />
        <path
           class="uuid-67c34de6-ec47-4102-8d21-34160a062cf1"
           d="m 153.71,194.01 v 0"
           id="path122" />
        <path
           class="uuid-67c34de6-ec47-4102-8d21-34160a062cf1"
           d="m 156.37,190.24 0.05,0.28 -0.1,0.33 -0.1,0.28 -0.19,0.33 -0.29,0.33 -0.29,0.28 -0.33,0.24"
           id="path123" />
        <path
           class="uuid-67c34de6-ec47-4102-8d21-34160a062cf1"
           d="m 154.94,193.2 0.33,-0.28"
           id="path124" />
        <path
           class="uuid-67c34de6-ec47-4102-8d21-34160a062cf1"
           d="m 153.99,193.06 0.05,0.19 v 0.05"
           id="path125" />
        <path
           class="uuid-67c34de6-ec47-4102-8d21-34160a062cf1"
           d="m 156.37,190.24 0.05,0.24 v 0.33 l -0.05,0.24 -0.05,0.28 -0.1,0.24 -0.1,0.28 -0.19,0.33 -0.14,0.19 -0.24,0.28 -0.29,0.28 -0.14,0.14 -0.24,0.19 -0.1,0.05 -0.14,0.05 h -0.05 l -0.14,0.05 -0.14,-0.05 -0.29,-0.05 v 0.09 l -0.05,0.09 v 0.14 l -0.05,0.14 -0.05,0.05 -0.05,0.09 -0.1,0.09 h -0.05 l -0.48,0.24 -0.52,0.24 -0.52,0.19 -0.57,0.19 -0.62,0.19 -0.62,0.14 -0.62,0.14 -0.62,0.14 -0.62,0.05 -0.67,0.09 h -0.62 l -0.57,0.05 -0.57,-0.05 -0.71,-0.05 -0.52,-0.09 -0.52,-0.09 -0.43,-0.09 -0.43,-0.14 -0.19,-0.09 -0.38,-0.19 -0.33,-0.19 -0.19,-0.14 -0.24,-0.24 -0.14,-0.14 -0.24,-0.28 -0.24,-0.47 -0.1,-0.24 -0.05,-0.28 -0.29,-1.46"
           id="path126" />
        <path
           class="uuid-67c34de6-ec47-4102-8d21-34160a062cf1"
           d="m 149.71,184.58 -1.19,-6.41 -0.14,-0.19 -0.24,-0.14 -0.67,-0.38 -0.24,-0.05 -0.29,-0.05 h -0.33 l -0.33,0.05 -0.33,0.09 -0.29,0.09 -0.29,0.09 -0.19,0.19 -0.71,0.75 -0.05,0.24 1.19,6.46"
           id="path127" />
        <path
           class="uuid-67c34de6-ec47-4102-8d21-34160a062cf1"
           d="m 156.37,190.24 -0.19,-1.13"
           id="path128" />
      </g>
      <g
         id="uuid-187f6a1b-a8e5-4df8-9b45-dff435dcf2f7"
         data-name="uuid-c446b7eb-80fd-4933-872c-797625bf0eab">
        <path
           class="uuid-67c34de6-ec47-4102-8d21-34160a062cf1"
           d="m 334.75,122.33 c 0.46,32.72 0.46,66.72 -0.08,99.92"
           id="path129" />
        <path
           class="uuid-67c34de6-ec47-4102-8d21-34160a062cf1"
           d="m 330.04,69.35 c -1.67,-1.9 -3.72,-3.46 -5.99,-4.57"
           id="path130" />
      </g>
      <g
         id="uuid-2013fe36-f260-48b9-b8a0-f33af156815b"
         data-name="uuid-36ccd4c7-0261-48c4-a2c5-3038089d2365">
        <path
           class="uuid-67c34de6-ec47-4102-8d21-34160a062cf1"
           d="m 355.98,107.9 c -2.77,43.15 -4.77,87.15 -7.63,130.62"
           id="path131" />
        <path
           class="uuid-67c34de6-ec47-4102-8d21-34160a062cf1"
           d="m 348.94,239.14 c 0.48,-7.09 0.97,-14.19 1.27,-21.29 -0.01,0.26 -0.03,0.51 -0.04,0.77 0.01,-0.26 0.03,-0.51 0.04,-0.77 l -0.19,3.39"
           id="path132" />
        <path
           class="uuid-67c34de6-ec47-4102-8d21-34160a062cf1"
           d="m 350.22,217.85 1.28,-20.55 -0.24,3.39"
           id="path133" />
        <path
           class="uuid-67c34de6-ec47-4102-8d21-34160a062cf1"
           d="m 351.51,197.3 0.19,-3.44 -0.19,3.44"
           id="path134" />
        <path
           class="uuid-67c34de6-ec47-4102-8d21-34160a062cf1"
           d="m 351.7,193.86 2.95,-47.93 -0.24,3.39"
           id="path135" />
        <path
           class="uuid-67c34de6-ec47-4102-8d21-34160a062cf1"
           d="m 354.65,145.94 2.57,-42.18"
           id="path136" />
        <path
           class="uuid-67c34de6-ec47-4102-8d21-34160a062cf1"
           d="M 358.41,84.25 361.08,40.8"
           id="path137" />
        <path
           class="uuid-67c34de6-ec47-4102-8d21-34160a062cf1"
           d="m 360.93,43.2 0.05,-0.94"
           id="path138" />
        <path
           class="uuid-67c34de6-ec47-4102-8d21-34160a062cf1"
           d="m 361.22,38.86 0.14,-2.54 -0.24,4.01"
           id="path139" />
        <path
           class="uuid-67c34de6-ec47-4102-8d21-34160a062cf1"
           d="m 361.36,36.32 c 0.05,-1.6 0.11,-3.19 0.18,-4.79"
           id="path140" />
        <path
           class="uuid-67c34de6-ec47-4102-8d21-34160a062cf1"
           d="m 349.31,239.24 c 2.9,-45.19 3.9,-91.19 7.99,-135.77"
           id="path141" />
        <path
           class="uuid-67c34de6-ec47-4102-8d21-34160a062cf1"
           d="m 360.17,56.87 0.24,-3.39"
           id="path142" />
        <path
           class="uuid-67c34de6-ec47-4102-8d21-34160a062cf1"
           d="m 361.07,40.8 0.14,-1.93"
           id="path143" />
        <path
           class="uuid-67c34de6-ec47-4102-8d21-34160a062cf1"
           d="m 361.12,40.32 -0.14,1.93"
           id="path144" />
      </g>
      <g
         id="uuid-f49db9eb-82c6-4909-8061-0a2e5f378dc6"
         data-name="uuid-e1be13e7-8d69-4795-be06-9f078d746e5e">
        <path
           class="uuid-67c34de6-ec47-4102-8d21-34160a062cf1"
           d="m 363.03,253.88 c 0.71,-13.16 0.88,-26.36 2.41,-39.47 -0.02,0.34 -0.04,0.69 -0.06,1.03 0.02,-0.34 0.04,-0.68 0.06,-1.03 l -0.19,3.44"
           id="path145" />
        <path
           class="uuid-67c34de6-ec47-4102-8d21-34160a062cf1"
           d="m 365.45,214.41 0.19,-3.44 -0.19,3.44"
           id="path146" />
        <path
           class="uuid-67c34de6-ec47-4102-8d21-34160a062cf1"
           d="m 365.64,210.97 1.71,-27.38 -0.24,3.44"
           id="path147" />
        <path
           class="uuid-67c34de6-ec47-4102-8d21-34160a062cf1"
           d="m 367.36,183.59 0.19,-3.44 -0.19,3.44"
           id="path148" />
        <path
           class="uuid-67c34de6-ec47-4102-8d21-34160a062cf1"
           d="m 367.55,180.15 0.19,-3.39 -0.19,3.39"
           id="path149" />
        <path
           class="uuid-67c34de6-ec47-4102-8d21-34160a062cf1"
           d="m 367.74,176.76 0.67,-10.27 -0.24,3.39"
           id="path150" />
        <path
           class="uuid-67c34de6-ec47-4102-8d21-34160a062cf1"
           d="m 368.4,166.48 0.62,-10.27 -0.24,3.39"
           id="path151" />
        <path
           class="uuid-67c34de6-ec47-4102-8d21-34160a062cf1"
           d="m 369.02,156.21 4.81,-78.8 -0.19,3.44"
           id="path152" />
        <path
           class="uuid-67c34de6-ec47-4102-8d21-34160a062cf1"
           d="m 373.83,77.41 2.09,-34.21 -0.19,3.39"
           id="path153" />
        <path
           class="uuid-67c34de6-ec47-4102-8d21-34160a062cf1"
           d="m 375.92,43.2 c 0.34,-5.59 0.68,-11.19 1.02,-16.78"
           id="path154" />
      </g>
      <g
         id="uuid-bdbd838a-ef65-4a41-8d7f-559fc3d72d6a"
         data-name="uuid-7df95e1e-2efc-43c0-a557-2b60b823a541">
        <path
           class="uuid-67c34de6-ec47-4102-8d21-34160a062cf1"
           d="m 320.14,78.45 -1.19,0.19 -1.19,0.42 -1.14,0.61 -1.14,0.9 -1.05,1.04 -0.48,0.61 -0.48,0.66 -0.86,1.41 -0.76,1.56 -0.62,1.65 -0.43,1.74 -0.33,1.74 -0.05,1.13 -0.05,0.66 v 1.7 l 0.19,1.7 0.38,1.56 0.52,1.41 0.62,1.32 0.1,0.09 0.71,0.99 0.9,0.9 1,0.66"
           id="path155" />
        <path
           class="uuid-67c34de6-ec47-4102-8d21-34160a062cf1"
           d="m 312.43,84.25 -0.1,0.09 -0.71,1.56 -0.57,1.6 -0.48,1.7 -0.29,1.74 -0.14,1.74 0.05,1.7 0.05,0.57"
           id="path156" />
        <path
           class="uuid-67c34de6-ec47-4102-8d21-34160a062cf1"
           d="m 319.81,112.66 4.81,0.99 -0.19,-0.38 -0.52,-1.27 -0.52,-1.32 -0.43,-1.41 -0.33,-1.41 -0.19,-0.85 -0.19,-1.13 -4.81,-0.94 0.1,0.47 0.29,1.46 0.33,1.41 0.24,0.8 0.48,1.37 0.52,1.32 0.43,0.9 -0.19,-0.05"
           id="path157" />
        <path
           class="uuid-67c34de6-ec47-4102-8d21-34160a062cf1"
           d="m 317.43,104.94 -0.33,-0.09 -0.33,-0.19 -0.14,-0.09 -0.29,-0.33 -0.24,-0.42 -0.19,-0.47 v -0.19 l 0.05,0.42"
           id="path158" />
        <path
           class="uuid-67c34de6-ec47-4102-8d21-34160a062cf1"
           d="m 315.91,103.14 -0.1,-0.33 v -0.28 l -0.05,-0.66 0.05,-0.71 0.05,-0.66 0.24,-2.73 0.05,-1.13 v -2.17 l -0.05,-1.65 0.05,-0.75 v -0.19 l 0.05,-0.52 0.05,-0.24 v 0.14"
           id="path159" />
        <path
           class="uuid-67c34de6-ec47-4102-8d21-34160a062cf1"
           d="m 319.86,80.57 -0.05,0.14 -0.67,1.32 -0.33,0.8 -0.67,1.65 -0.52,1.46 -0.48,1.46 -0.38,1.51 -0.33,1.51 -0.19,0.71 0.1,-0.24 0.1,-0.28 0.24,-0.28 0.24,-0.14 0.33,-0.09 0.33,-0.05 0.38,0.05 0.29,-1.04 0.43,-1.6 0.48,-1.56 0.57,-1.56 0.62,-1.56 0.33,-0.8 0.29,-0.61 -0.52,-0.14 -0.29,-0.09 -0.19,-0.14 -0.1,-0.19 v -0.09 l 0.05,-0.24 0.14,-0.28 0.24,-0.33 1.24,-1.27"
           id="path160" />
        <path
           class="uuid-67c34de6-ec47-4102-8d21-34160a062cf1"
           d="m 317.95,90.09 4.81,0.94 0.24,-0.99 0.24,-0.9 0.48,-1.6 0.52,-1.6 0.57,-1.51 0.67,-1.46 0.29,-0.66 0.48,0.09 0.48,0.05 h 1.09 l 0.62,-0.05 0.52,-0.05 0.62,-0.14 0.33,-0.09 0.71,-0.28 0.67,-0.33 0.29,-0.19 0.76,-0.57 0.71,-0.66 0.67,-0.75 0.24,-0.33 0.52,-0.75 0.43,-0.8 0.38,-0.8 0.29,-0.8 0.14,-0.8 0.05,-0.71 -0.05,-0.66 -0.14,-0.52 -0.14,-0.28 -0.24,-0.42 -0.33,-0.33 -0.33,-0.28 -0.43,-0.14 -0.1,-0.05 0.52,-0.38 1.05,-0.75 1.09,-0.61 0.62,-0.28 1.09,-0.52 1.09,-0.38 0.62,-0.19"
           id="path161" />
        <path
           class="uuid-67c34de6-ec47-4102-8d21-34160a062cf1"
           d="m 320.95,81.37 4.81,0.94"
           id="path162" />
        <path
           class="uuid-67c34de6-ec47-4102-8d21-34160a062cf1"
           d="m 319.91,80.48 -0.1,0.19"
           id="path163" />
        <path
           class="uuid-67c34de6-ec47-4102-8d21-34160a062cf1"
           d="M 321.52,78.59 320.9,78.5"
           id="path164" />
        <path
           class="uuid-67c34de6-ec47-4102-8d21-34160a062cf1"
           d="m 328.57,121.01 -1.05,-0.38 -0.19,-0.09 4.81,0.94 0.43,0.05 0.29,-0.05 h 0.05 l 0.38,-0.14 0.24,-0.19 0.29,-0.28 0.14,-0.33 0.1,-0.42 0.05,-0.52 -0.05,-0.19 -0.1,-0.61 -0.24,-0.66 -0.29,-0.57 -0.48,-0.71 -0.52,-0.61 -0.57,-0.52 -0.52,-0.42 -0.62,-0.33 -0.62,-0.28 -0.52,-0.19 -0.57,-0.14 -0.67,-0.14 -0.86,-0.19 -2,-0.24 -0.86,-0.14"
           id="path165" />
        <path
           class="uuid-67c34de6-ec47-4102-8d21-34160a062cf1"
           d="m 322.24,105.88 0.43,0.05 0.43,-0.05 0.52,-0.14 0.43,-0.19 0.48,-0.33 0.38,-0.33 0.48,-0.52 0.43,-0.61 0.1,-0.19 0.43,-0.85 0.29,-0.9 0.19,-0.8 0.19,-1.13 0.05,-1.13 v -1.08 l -0.05,-0.9 -0.14,-0.9 -0.19,-0.85 -0.24,-0.61 -0.33,-0.66 -0.33,-0.61 -0.19,-0.19 -0.43,-0.52 -0.48,-0.47 -0.48,-0.33 -0.48,-0.28 -0.14,-0.05 -0.48,-0.19 -0.33,-0.09"
           id="path166" />
        <path
           class="uuid-67c34de6-ec47-4102-8d21-34160a062cf1"
           d="m 327.33,120.53 v 0 l -0.14,-0.05"
           id="path167" />
        <path
           class="uuid-67c34de6-ec47-4102-8d21-34160a062cf1"
           d="m 328.76,109.22 -0.38,-1.23 -0.33,-1.23 -0.14,-0.71 -0.24,-1.32 -0.14,-1.32 -0.14,-1.37 v -0.66 l -0.05,-0.75 v -1.41 l 0.05,-0.75 0.1,-1.46 0.14,-1.41 0.19,-1.41 0.29,-1.41 0.33,-1.41 0.19,-0.75 0.38,-1.41 0.14,-0.33 0.33,-1.04 0.52,-1.32 0.57,-1.27 0.57,-1.23 0.38,-0.71 0.67,-1.18 0.71,-1.13 0.76,-1.08 0.33,-0.47 0.43,-0.52 0.81,-0.94 0.48,-0.52 0.86,-0.85 0.9,-0.8 0.9,-0.71 0.9,-0.61 0.95,-0.52 0.52,-0.28 0.95,-0.42 1,-0.33 0.95,-0.24 0.95,-0.19 0.95,-0.09 h 0.52 l 0.95,0.09 0.9,0.14 0.9,0.19 0.9,0.33 0.86,0.38 0.48,0.28 0.81,0.52 0.81,0.61 0.76,0.66 0.71,0.75 0.67,0.85 0.33,0.47 0.62,0.94 0.57,1.04 0.52,1.04 0.48,1.13 0.38,1.13 0.19,0.66 0.33,1.27 0.29,1.27 0.19,1.32 0.19,1.37 0.1,1.37 v 2.12 l -0.05,1.46 -0.05,0.75 -0.05,0.66 -0.19,1.41 -0.19,1.46 -0.14,0.75 -0.33,1.41 -0.38,1.41 -0.38,1.37 -0.48,1.37 -0.52,1.32 -0.33,0.71 -0.57,1.23 -0.67,1.23 -0.67,1.18 -0.33,0.52 -0.76,1.13 -0.76,1.04 -0.81,0.94 -0.86,0.9 -0.86,0.85 -0.48,0.42 -0.9,0.71 -0.95,0.66 -0.9,0.57 -0.95,0.47 -0.95,0.42 -0.52,0.19 -1,0.28 -0.95,0.19 -0.95,0.09 h -0.95 l -0.95,-0.05 -0.48,-0.09 -0.95,-0.19 -0.9,-0.28 -0.86,-0.38 -0.81,-0.47 -0.86,-0.52 -0.43,-0.33 -0.76,-0.71 -0.71,-0.71 -0.71,-0.8 -0.62,-0.9 -0.62,-0.94 -0.29,-0.57 -0.52,-1.04 -0.48,-1.13 -0.43,-1.13"
           id="path168" />
        <path
           class="uuid-67c34de6-ec47-4102-8d21-34160a062cf1"
           d="m 328.95,108.23 0.24,0.9 0.48,1.23 0.57,1.27 0.62,1.04 0.62,1.04 0.71,0.9 0.71,0.85 0.86,0.85 0.86,0.66 0.86,0.57 0.9,0.47 0.9,0.38 1.67,0.42 h 2.24 l 2.24,-0.42 2.24,-0.94 1,-0.66 1.19,-0.75 2.09,-1.79 1.95,-2.21 1.71,-2.54 1.52,-2.87 1.24,-3.06 1,-3.2 0.62,-3.35 0.33,-3.35 0.05,-3.3 -0.33,-3.2 -0.62,-2.83 -0.05,-0.14 -0.95,-2.78 -1.24,-2.4 -1.52,-2.07 -1.71,-1.7 1.19,0.8 -0.81,-0.71 -0.95,-0.66 -0.9,-0.52 -0.1,-0.05 -0.81,-0.38 -0.95,-0.33 -0.67,-0.14 -1.52,-0.19 -0.86,-0.05 -1.05,0.09 -1,0.19 -1.05,0.28 -1.09,0.47 -1,0.47 -1,0.57 -1,0.71 -0.95,0.75 -1.05,0.94 -0.9,0.94 -0.86,0.99 -0.29,0.42 -0.52,0.66 -0.81,1.18 -0.81,1.37 -0.71,1.27 -0.62,1.32 -0.57,1.37 -0.57,1.41 -0.52,1.6 -0.38,1.51 -0.33,1.46 -0.29,1.51 -0.19,1.56 -0.19,1.65 -0.05,1.51 v 1.51 l 0.1,1.46 0.1,1.46 0.24,1.56 0.29,1.37 0.33,1.32 0.14,0.38"
           id="path169" />
        <path
           class="uuid-67c34de6-ec47-4102-8d21-34160a062cf1"
           d="m 328.81,104.84 -0.05,-0.14 -0.38,-3.06 v -3.16 l 0.24,-3.25 0.62,-3.2 0.9,-3.11 1.19,-2.97 1.43,-2.73 1.71,-2.5 1.86,-2.12 2,-1.7 2.09,-1.32 2.19,-0.9 2.19,-0.38 2.09,0.09 0.57,0.14 -0.9,-0.14 h -0.95 l -1,0.05 -1,0.19 -1,0.28 -0.9,0.38 -1,0.42 -0.95,0.57 -0.95,0.66 -0.95,0.75 -0.86,0.75 -0.86,0.94 -0.86,0.94 -0.81,1.08 -0.76,1.13 -0.67,1.08 -0.71,1.23 -0.52,1.18 -0.67,1.46 -0.57,1.51 -0.38,1.23 -0.38,1.41 -0.33,1.41 -0.29,1.51 -0.19,1.46 -0.14,1.41 -0.05,1.46 v 1.41 l 0.05,1.46 0.14,1.41 0.19,1.27 0.24,1.37 0.33,1.27 0.38,1.23 0.43,1.18 0.52,1.08 0.52,1.04 0.62,0.99 0.67,0.9 0.71,0.8 0.71,0.71 0.81,0.66 0.24,0.14 0.62,0.42 0.86,0.42 0.9,0.38 0.9,0.28 0.86,0.14 -0.86,-0.14 -1.81,-0.52 -1.9,-1.04 -1.71,-1.51 -1.52,-1.89 -1.28,-2.26 -0.95,-2.59 -0.67,-2.69"
           id="path170" />
        <path
           class="uuid-67c34de6-ec47-4102-8d21-34160a062cf1"
           d="m 327.38,98.48 -0.33,-0.8"
           id="path171" />
        <path
           class="uuid-67c34de6-ec47-4102-8d21-34160a062cf1"
           d="m 327.42,71.15 0.43,-0.24 0.48,-0.14 0.43,-0.09 0.43,0.05 1,-0.75 0.62,-0.38 1.09,-0.61 1.09,-0.57 1.09,-0.42 1.19,-0.38"
           id="path172" />
        <path
           class="uuid-67c34de6-ec47-4102-8d21-34160a062cf1"
           d="m 332.14,121.48 0.62,0.28 1.05,0.33 1.05,0.24"
           id="path173" />
        <path
           class="uuid-67c34de6-ec47-4102-8d21-34160a062cf1"
           d="M 329.19,70.72 334,71.66"
           id="path174" />
        <path
           class="uuid-67c34de6-ec47-4102-8d21-34160a062cf1"
           d="m 334.23,67.66 v 0"
           id="path175" />
        <path
           class="uuid-67c34de6-ec47-4102-8d21-34160a062cf1"
           d="m 334.18,67.7 v 0"
           id="path176" />
        <path
           class="uuid-67c34de6-ec47-4102-8d21-34160a062cf1"
           d="m 336.56,122.51 v 0"
           id="path177" />
        <path
           class="uuid-67c34de6-ec47-4102-8d21-34160a062cf1"
           d="m 353.13,76 0.76,0.8 0.14,0.14 0.57,0.75 0.67,0.94 0.67,1.13 0.57,1.13 0.52,1.18 0.43,1.23 0.38,1.27 0.33,1.51 0.24,1.41 v 0.19 l 0.14,1.23 0.14,1.46 v 3.11 l -0.1,1.56 -0.19,1.51 -0.24,1.51 -0.29,1.51 -0.43,1.6 -0.43,1.51 -0.48,1.41 -0.57,1.41 -0.57,1.37 -0.76,1.41 -0.71,1.27 -0.76,1.18 -0.9,1.27 -0.9,1.13 -0.9,0.94 -0.9,0.9 -0.95,0.8 -1.05,0.8 -1,0.61 -1.05,0.52 -1,0.47 -1,0.33 -1.09,0.24 -1.09,0.14 -1,0.05 -1,-0.09 -0.95,-0.19 -1.09,-0.28"
           id="path178" />
        <path
           class="uuid-67c34de6-ec47-4102-8d21-34160a062cf1"
           d="m 339.51,117.47 1.05,0.09 h 0.95 l 1,-0.14 0.95,-0.19 1,-0.33 1,-0.42 0.95,-0.52 1,-0.57 0.86,-0.66 0.95,-0.8 0.86,-0.85 0.9,-0.94 0.81,-0.99 0.86,-1.23 0.76,-1.13 0.67,-1.23 0.62,-1.18 0.62,-1.32 0.05,-0.19 0.48,-1.18 0.48,-1.37 0.43,-1.46 0.05,-0.19 0.29,-1.18 0.29,-1.46 0.24,-1.46 0.1,-0.75 0.1,-0.71 0.1,-1.46 v -2.83 l -0.1,-1.41 -0.19,-1.37 -0.24,-1.37 -0.24,-1.27 -0.38,-1.23 -0.43,-1.23 -0.48,-1.13 -0.52,-1.08 -0.14,-0.19 -0.43,-0.75 -0.62,-0.94 -0.71,-0.85 -0.76,-0.8 -0.76,-0.71 -0.57,-0.38 -0.24,-0.19 -0.86,-0.47 -0.86,-0.42 -0.95,-0.33 -0.95,-0.19"
           id="path179" />
        <path
           class="uuid-67c34de6-ec47-4102-8d21-34160a062cf1"
           d="m 338.9,117.38 h -0.05"
           id="path180" />
        <path
           class="uuid-67c34de6-ec47-4102-8d21-34160a062cf1"
           d="m 341.99,69.35 0.52,0.28 0.38,0.24 1.38,0.9 0.19,0.75"
           id="path181" />
        <path
           class="uuid-67c34de6-ec47-4102-8d21-34160a062cf1"
           d="m 344.27,70.77 0.67,0.38 0.62,0.38 0.57,0.24 0.76,0.28 0.71,0.14 0.71,0.09 0.57,-0.05 0.57,-0.09 0.48,-0.14 0.33,-0.14 0.33,-0.19 0.19,-0.24 0.05,-0.14 0.1,-0.24 -0.05,-0.24 -0.14,-0.24 -0.24,-0.19"
           id="path182" />
        <path
           class="uuid-67c34de6-ec47-4102-8d21-34160a062cf1"
           d="m 349.18,117.57 -0.1,-0.05 h -0.14"
           id="path183" />
        <path
           class="uuid-67c34de6-ec47-4102-8d21-34160a062cf1"
           d="m 347.94,73.22 -0.29,-0.09 -1.09,-0.09 h -0.14"
           id="path184" />
        <path
           class="uuid-67c34de6-ec47-4102-8d21-34160a062cf1"
           d="m 347.94,73.22 2.09,0.75 1.9,1.23"
           id="path185" />
        <path
           class="uuid-67c34de6-ec47-4102-8d21-34160a062cf1"
           d="m 356.31,106.77 -0.05,0.14"
           id="path186" />
        <path
           class="uuid-67c34de6-ec47-4102-8d21-34160a062cf1"
           d="M 359.65,88.16 359.6,87.55"
           id="path187" />
        <path
           class="uuid-67c34de6-ec47-4102-8d21-34160a062cf1"
           d="m 359.46,86.74 0.1,0.19"
           id="path188" />
        <path
           class="uuid-67c34de6-ec47-4102-8d21-34160a062cf1"
           d="m 310.24,94.94 0.14,1.04 0.33,1.56 0.57,1.51 0.62,1.27 0.81,1.08 0.95,0.99 1,0.66 1.24,0.52 h 0.05 l 0.14,0.99 0.29,1.41 0.33,1.37 0.24,0.75 0.43,1.32 0.52,1.27 0.76,1.65 0.1,0.05 0.1,0.05 0.24,0.09 0.52,0.09 0.33,0.19 0.38,0.28 0.62,0.47 0.57,0.52 0.52,0.66 0.43,0.57 0.48,0.61 1.14,1.79 0.57,0.75 0.43,0.52 0.43,0.47 0.48,0.42 0.43,0.28 0.14,0.09 0.43,0.19 0.19,0.05 1.38,0.52 1.05,0.28 5.24,1.04 0.62,0.09 1.09,0.09 h 1.86 l 0.48,-0.05 h 0.19 l 0.52,-0.14 0.57,-0.24 0.57,-0.24 0.52,-0.33 0.29,-0.14 0.57,-0.42 1.71,-1.27 0.67,-0.47 0.62,-0.38 0.71,-0.42 0.76,-0.33 0.71,-0.24 0.48,-0.14 0.52,-0.09 0.43,-0.05 0.19,-0.05 0.24,0.05 1.14,-1.08 0.95,-1.04 0.9,-1.04 0.86,-1.18 0.81,-1.23 0.38,-0.57 0.76,-1.32 0.19,-0.33 0.14,-0.28 0.14,-0.24 0.24,-0.57 0.24,-0.66 0.19,-0.66 0.76,-2.64 0.38,-1.08 0.38,-1.04 1,-2.54 0.29,-0.75 0.05,-0.14 0.14,-0.57 0.05,-0.47 0.24,-1.56 0.19,-1.51 0.14,-1.56 0.05,-1.74 v -1.56 l -0.05,-0.85 -0.1,-1.51 -0.05,-0.33 v -0.38 l -0.05,-0.14 -0.1,-0.28 -0.14,-0.38 -0.71,-1.7 -0.29,-0.66 -0.29,-0.9 -0.29,-1.04 -0.24,-0.99 -0.33,-1.7 -0.24,-0.85 -0.29,-0.94 -0.24,-0.66 -0.24,-0.47 -0.29,-0.47 -0.71,-1.08 -0.43,-0.57 -0.76,-0.94 -0.81,-0.85 -0.86,-0.75 -0.57,-0.47 -0.9,-0.71 -0.43,-0.28 -0.33,-0.14 -0.29,-0.09 -4.81,-0.94 -0.48,-0.05 h -1.05 l -0.48,0.05 -0.62,0.14 -0.38,0.05 -0.48,-0.28 -0.52,-0.24 -0.48,-0.14 -0.43,-0.14 -4.81,-0.94 -0.29,-0.05 h -0.48 l -0.29,0.09 -1.62,0.52 -1.05,0.42 -1.09,0.52 -1.05,0.61 -0.62,0.38 -1.81,1.37 -0.38,0.33 -0.48,0.52 -0.62,0.75 -0.48,0.75 -1,1.51 -0.57,0.85 -0.62,0.8 -0.57,0.71 -0.76,0.9 -0.19,-0.05 -1.19,-0.09 h -0.1 l -1.19,0.19 -1.33,0.47 -1.14,0.61 -1.09,0.85 -1.14,1.13 -0.95,1.27 -0.76,1.27"
           id="path189" />
      </g>
      <g
         id="uuid-0ed3eb0e-3eed-4981-ba3f-da7db59b3497"
         data-name="uuid-d4a51f98-e146-4ced-85ff-20884fee9f43">
        <path
           class="uuid-67c34de6-ec47-4102-8d21-34160a062cf1"
           d="m 208.25,38.97 c -4.32,66.26 -8.63,132.51 -12.95,198.77 L 35.19,205.88"
           id="path190" />
        <path
           class="uuid-67c34de6-ec47-4102-8d21-34160a062cf1"
           d="m 196.64,241.98 0.57,-0.19 0.38,-0.28 0.38,-0.52 0.29,-0.61 0.1,-0.71 c 4.3,-66.13 8.6,-132.25 12.9,-198.38"
           id="path191" />
        <path
           class="uuid-67c34de6-ec47-4102-8d21-34160a062cf1"
           d="m 186.72,28.76 -3.89,59.68 c 0.73,0.14 1.46,0.28 2.19,0.42 1.28,-19.7 2.56,-39.41 3.84,-59.11"
           id="path192" />
        <path
           class="uuid-67c34de6-ec47-4102-8d21-34160a062cf1"
           d="m 169.89,183.59 c -0.44,6.88 -0.89,13.76 -1.33,20.64 -19.51,-3.88 -39.05,-7.4 -58.51,-11.58 -30.3,-6.7 -61.3,-9.7 -91.46,-18.06"
           id="path193" />
        <path
           class="uuid-67c34de6-ec47-4102-8d21-34160a062cf1"
           d="m 29.52,204.76 c 4.57,0.91 9.14,1.81 13.71,2.72"
           id="path194" />
        <path
           class="uuid-67c34de6-ec47-4102-8d21-34160a062cf1"
           d="m 16.36,169.86 c 0.58,0.11 1.17,0.23 1.75,0.34 l -1.74,-0.33"
           id="path195" />
        <path
           class="uuid-67c34de6-ec47-4102-8d21-34160a062cf1"
           d="m 29.86,184.25 c -3.34,-0.66 -6.68,-1.33 -10.01,-1.99"
           id="path196" />
        <path
           class="uuid-67c34de6-ec47-4102-8d21-34160a062cf1"
           d="m 18.11,170.21 17.28,3.44 -3.47,-0.66"
           id="path197" />
        <path
           class="uuid-67c34de6-ec47-4102-8d21-34160a062cf1"
           d="m 29.39,184.16 2.52,0.52 -2.67,-0.57"
           id="path198" />
        <path
           class="uuid-67c34de6-ec47-4102-8d21-34160a062cf1"
           d="m 32.74,187.57 143.91,28.59 2.52,-38.5"
           id="path199" />
        <path
           class="uuid-67c34de6-ec47-4102-8d21-34160a062cf1"
           d="m 33.68,185 1.71,0.33 -3.47,-0.66"
           id="path200" />
        <path
           class="uuid-67c34de6-ec47-4102-8d21-34160a062cf1"
           d="m 42.29,186.75 3.47,0.66 -10.38,-2.07"
           id="path201" />
        <path
           class="uuid-67c34de6-ec47-4102-8d21-34160a062cf1"
           d="m 35.39,173.65 17.28,3.44 -3.47,-0.66"
           id="path202" />
        <path
           class="uuid-67c34de6-ec47-4102-8d21-34160a062cf1"
           d="m 42.29,207.3 3.47,0.71"
           id="path203" />
        <path
           class="uuid-67c34de6-ec47-4102-8d21-34160a062cf1"
           d="m 59.57,190.14 3.47,0.71 -17.28,-3.44"
           id="path204" />
        <path
           class="uuid-67c34de6-ec47-4102-8d21-34160a062cf1"
           d="m 52.67,177.09 6.9,1.37 -3.47,-0.66"
           id="path205" />
        <path
           class="uuid-67c34de6-ec47-4102-8d21-34160a062cf1"
           d="m 59.57,210.74 3.47,0.71"
           id="path206" />
        <path
           class="uuid-67c34de6-ec47-4102-8d21-34160a062cf1"
           d="m 59.57,178.45 10.38,2.07 -3.47,-0.71"
           id="path207" />
        <path
           class="uuid-67c34de6-ec47-4102-8d21-34160a062cf1"
           d="m 76.84,193.58 3.47,0.71 -17.28,-3.44"
           id="path208" />
        <path
           class="uuid-67c34de6-ec47-4102-8d21-34160a062cf1"
           d="m 69.94,180.53 17.28,3.44 -3.47,-0.71"
           id="path209" />
        <path
           class="uuid-67c34de6-ec47-4102-8d21-34160a062cf1"
           d="m 76.84,214.18 3.47,0.71"
           id="path210" />
        <path
           class="uuid-67c34de6-ec47-4102-8d21-34160a062cf1"
           d="m 80.32,194.29 17.28,3.44 -3.47,-0.71"
           id="path211" />
        <path
           class="uuid-67c34de6-ec47-4102-8d21-34160a062cf1"
           d="m 87.22,183.97 17.28,3.44 -3.47,-0.71"
           id="path212" />
        <path
           class="uuid-67c34de6-ec47-4102-8d21-34160a062cf1"
           d="m 94.12,217.62 3.47,0.66"
           id="path213" />
        <path
           class="uuid-67c34de6-ec47-4102-8d21-34160a062cf1"
           d="m 97.59,197.73 17.28,3.44 -3.47,-0.71"
           id="path214" />
        <path
           class="uuid-67c34de6-ec47-4102-8d21-34160a062cf1"
           d="m 104.49,187.41 10.38,2.07 -3.47,-0.71"
           id="path215" />
        <path
           class="uuid-67c34de6-ec47-4102-8d21-34160a062cf1"
           d="m 111.4,221.06 3.47,0.66"
           id="path216" />
        <path
           class="uuid-67c34de6-ec47-4102-8d21-34160a062cf1"
           d="m 114.87,201.17 17.28,3.39 -3.47,-0.66"
           id="path217" />
        <path
           class="uuid-67c34de6-ec47-4102-8d21-34160a062cf1"
           d="m 114.87,189.48 6.9,1.37 -3.47,-0.71"
           id="path218" />
        <path
           class="uuid-67c34de6-ec47-4102-8d21-34160a062cf1"
           d="m 121.77,190.85 13.85,2.73 -3.47,-0.71"
           id="path219" />
        <path
           class="uuid-67c34de6-ec47-4102-8d21-34160a062cf1"
           d="m 132.15,225.16 -3.47,-0.66"
           id="path220" />
        <path
           class="uuid-67c34de6-ec47-4102-8d21-34160a062cf1"
           d="m 132.15,204.56 17.28,3.44 -3.47,-0.66"
           id="path221" />
        <path
           class="uuid-67c34de6-ec47-4102-8d21-34160a062cf1"
           d="m 137.14,193.86 1.9,0.42 -3.43,-0.71 1.52,0.28"
           id="path222" />
        <path
           class="uuid-67c34de6-ec47-4102-8d21-34160a062cf1"
           d="m 139.05,194.29 4.43,0.85"
           id="path223" />
        <path
           class="uuid-67c34de6-ec47-4102-8d21-34160a062cf1"
           d="m 142.52,194.95 1.14,0.24"
           id="path224" />
        <path
           class="uuid-67c34de6-ec47-4102-8d21-34160a062cf1"
           d="m 145.95,195.61 v 0.05 l -0.24,-0.05"
           id="path225" />
        <path
           class="uuid-67c34de6-ec47-4102-8d21-34160a062cf1"
           d="m 145.95,195.66 3.47,0.66 -3.47,-0.66"
           id="path226" />
        <path
           class="uuid-67c34de6-ec47-4102-8d21-34160a062cf1"
           d="m 180.05,27.08 c -2.91,44.8 -5.83,89.61 -8.74,134.41"
           id="path227" />
        <path
           class="uuid-67c34de6-ec47-4102-8d21-34160a062cf1"
           d="m 149.42,228.6 -3.47,-0.71"
           id="path228" />
        <path
           class="uuid-67c34de6-ec47-4102-8d21-34160a062cf1"
           d="m 149.42,208 17.28,3.44 -3.47,-0.66"
           id="path229" />
        <path
           class="uuid-67c34de6-ec47-4102-8d21-34160a062cf1"
           d="m 149.42,196.32 6.9,1.37 -3.43,-0.66"
           id="path230" />
        <path
           class="uuid-67c34de6-ec47-4102-8d21-34160a062cf1"
           d="m 156.32,197.68 3.47,0.71 -3.47,-0.71"
           id="path231" />
        <path
           class="uuid-67c34de6-ec47-4102-8d21-34160a062cf1"
           d="m 163.23,231.33 3.47,0.71"
           id="path232" />
        <path
           class="uuid-67c34de6-ec47-4102-8d21-34160a062cf1"
           d="m 163.23,199.1 -3.43,-0.71 5.9,1.18 -2.47,-0.47"
           id="path233" />
        <path
           class="uuid-67c34de6-ec47-4102-8d21-34160a062cf1"
           d="m 166.7,211.44 8.04,1.6 2.19,-33.98"
           id="path234" />
        <path
           class="uuid-67c34de6-ec47-4102-8d21-34160a062cf1"
           d="m 165.7,199.57 0.9,-13.9"
           id="path235" />
        <path
           class="uuid-67c34de6-ec47-4102-8d21-34160a062cf1"
           d="m 176.93,26.69 c -2.97,45.64 -5.93,91.28 -8.9,136.92"
           id="path236" />
        <path
           class="uuid-67c34de6-ec47-4102-8d21-34160a062cf1"
           d="m 172.32,145.94 0.24,-3.44 -0.24,3.44"
           id="path237" />
        <path
           class="uuid-67c34de6-ec47-4102-8d21-34160a062cf1"
           d="m 173.46,128.78 0.24,-3.39"
           id="path238" />
        <path
           class="uuid-67c34de6-ec47-4102-8d21-34160a062cf1"
           d="m 177.08,234.11 -3.47,-0.71"
           id="path239" />
        <path
           class="uuid-67c34de6-ec47-4102-8d21-34160a062cf1"
           d="m 179.27,177.61 -2.52,38.55 h -0.1"
           id="path240" />
        <path
           class="uuid-67c34de6-ec47-4102-8d21-34160a062cf1"
           d="m 177.03,74.02 0.19,-3.44"
           id="path241" />
        <path
           class="uuid-67c34de6-ec47-4102-8d21-34160a062cf1"
           d="m 180.55,234.77 6.9,1.37"
           id="path242" />
        <path
           class="uuid-67c34de6-ec47-4102-8d21-34160a062cf1"
           d="m 187.45,133.64 -0.9,0.09 1.14,-17.58 5.19,1.04 -0.05,1.04 h -0.1 l -0.95,14.33 0.1,0.05 -0.05,0.52 -4.38,0.52"
           id="path243" />
        <path
           class="uuid-67c34de6-ec47-4102-8d21-34160a062cf1"
           d="m 186.55,133.73 5.19,1.04 0.1,-1.65"
           id="path244" />
        <path
           class="uuid-67c34de6-ec47-4102-8d21-34160a062cf1"
           d="m 191.88,132.6 0.95,-14.37"
           id="path245" />
        <path
           class="uuid-67c34de6-ec47-4102-8d21-34160a062cf1"
           d="m 198.35,239.67 6.81,-0.75 1.13,-9.73 c 3.65,-60.62 7.31,-121.24 10.96,-181.87"
           id="path246" />
        <path
           class="uuid-67c34de6-ec47-4102-8d21-34160a062cf1"
           d="m 31.87,209.36 c 1.82,0.36 3.65,0.73 5.47,1.09"
           id="path247" />
        <path
           class="uuid-67c34de6-ec47-4102-8d21-34160a062cf1"
           d="m 205.16,238.92 c -2.41,3.03 -6.41,3.03 -10.41,3.03 -56,-11 -109,-22 -163.06,-32.64"
           id="path248" />
      </g>
      <path
         class="uuid-1cf06e30-c657-4964-a00c-3468119c4b01"
         d="m 28.96,203.82 c -0.23,-24.91 6.62,-52.41 28.93,-66.64 7.22,-4.6 15.78,-6.84 24.33,-6.39"
         id="path249" />
      <g
         id="uuid-3080dadb-1fd2-48b5-9d7e-d37161fbdf58"
         data-name="uuid-ef503bb5-ade5-41ce-9d8d-9898fd55df5f">
        <path
           class="uuid-67c34de6-ec47-4102-8d21-34160a062cf1"
           d="m 72.37,135.69 0.71,-0.38 0.57,-0.71 0.38,-0.94 0.14,-1.08 -0.1,-0.75 -0.05,-0.38 -0.33,-1.04 -0.57,-0.85 -0.71,-0.52 -0.38,-0.14 -0.38,-0.05"
           id="path250" />
        <path
           class="uuid-67c34de6-ec47-4102-8d21-34160a062cf1"
           d="m 70.51,134.51 h -0.14 l 1.52,-0.14 0.48,-0.14 0.38,-0.33 0.29,-0.42 0.19,-0.71 v -0.66 l -0.14,-0.52 -0.29,-0.71 -0.38,-0.38 -0.48,-0.24 h -0.52"
           id="path251" />
        <path
           class="uuid-67c34de6-ec47-4102-8d21-34160a062cf1"
           d="m 70.37,134.51 -0.24,0.05"
           id="path252" />
        <path
           class="uuid-67c34de6-ec47-4102-8d21-34160a062cf1"
           d="m 71.46,130.27 -1.71,0.19"
           id="path253" />
        <path
           class="uuid-67c34de6-ec47-4102-8d21-34160a062cf1"
           d="m 79.08,135.13 h 0.05 l -0.05,3.25 0.1,0.8 0.38,0.9 0.38,0.42 0.57,0.38"
           id="path254" />
        <path
           class="uuid-67c34de6-ec47-4102-8d21-34160a062cf1"
           d="m 101.07,120.47 -14.23,1.18 0.14,0.14 0.05,0.14 -0.52,0.14 -0.57,0.42 -0.38,0.66 -0.29,0.8 -0.05,0.61 -0.1,5.28 -0.19,3.53 -0.33,3.53 -0.33,2.59 h -0.33 l -4.9,-1.13"
           id="path255" />
        <path
           class="uuid-67c34de6-ec47-4102-8d21-34160a062cf1"
           d="m 79.13,135.13 3.38,-0.28 0.71,-0.38 0.62,-0.71 0.33,-0.94 0.14,-1.08 -0.1,-1.13 -0.38,-1.04 -0.57,-0.8 -0.71,-0.57 -0.38,-0.14 h -0.38 l -2.24,0.19 0.19,-2.26 0.33,-2.5 -0.05,-0.05"
           id="path256" />
        <path
           class="uuid-67c34de6-ec47-4102-8d21-34160a062cf1"
           d="m 79.56,128.25 h -0.1"
           id="path257" />
        <path
           class="uuid-67c34de6-ec47-4102-8d21-34160a062cf1"
           d="m 80.7,140.92 h 0.05"
           id="path258" />
        <path
           class="uuid-67c34de6-ec47-4102-8d21-34160a062cf1"
           d="m 85.03,141.91 -0.14,-0.05 -0.52,-0.38 -0.38,-0.61 -0.14,-0.8 0.05,-0.61 0.33,-2.59 0.33,-3.53 0.24,-4.9 0.05,-3.86 -4.76,-1.08 0.19,-0.85 0.43,-0.8 0.52,-0.61 0.57,-0.38 0.67,-0.24 4.38,1.04 -0.43,0.09 -0.62,0.42 -0.52,0.61 -0.33,0.85 -0.1,0.94 h 0.38"
           id="path259" />
        <path
           class="uuid-67c34de6-ec47-4102-8d21-34160a062cf1"
           d="m 82.36,120.66 14.33,-1.18"
           id="path260" />
        <path
           class="uuid-67c34de6-ec47-4102-8d21-34160a062cf1"
           d="m 84.27,139.51 v 0.75 l 0.14,0.66 0.38,0.52 0.38,0.24 0.57,0.09 -0.14,0.19 14.23,-1.18"
           id="path261" />
        <path
           class="uuid-67c34de6-ec47-4102-8d21-34160a062cf1"
           d="m 99.97,140.59 -14.23,1.18"
           id="path262" />
        <path
           class="uuid-67c34de6-ec47-4102-8d21-34160a062cf1"
           d="m 85.5,141.96 h 0.05"
           id="path263" />
        <path
           class="uuid-67c34de6-ec47-4102-8d21-34160a062cf1"
           d="m 87.03,121.93 14.23,-1.18"
           id="path264" />
        <path
           class="uuid-67c34de6-ec47-4102-8d21-34160a062cf1"
           d="m 112.82,121.69 -11.57,0.94 -0.05,5.09 -0.43,6.5 -0.57,4.34 11.42,-0.94"
           id="path265" />
        <path
           class="uuid-67c34de6-ec47-4102-8d21-34160a062cf1"
           d="m 100.26,138.38 11.52,-0.99"
           id="path266" />
        <path
           class="uuid-67c34de6-ec47-4102-8d21-34160a062cf1"
           d="m 101.26,122.64 v -1.37 l 8,-0.66"
           id="path267" />
        <path
           class="uuid-67c34de6-ec47-4102-8d21-34160a062cf1"
           d="m 101.26,122.35 11.37,-0.99"
           id="path268" />
        <path
           class="uuid-67c34de6-ec47-4102-8d21-34160a062cf1"
           d="m 106.78,136.49 -0.05,0.14 -0.14,0.14 -1.43,0.09 -0.14,-0.09 -0.05,-0.14 0.14,-2.17 0.05,-0.19 0.1,-0.09 1.48,-0.14 0.19,0.09 v 0.19 l -0.14,2.17 -0.1,-0.05 -0.1,0.24 -0.1,0.05 0.1,0.05"
           id="path269" />
        <path
           class="uuid-67c34de6-ec47-4102-8d21-34160a062cf1"
           d="m 106.49,136.73 -1.38,0.14"
           id="path270" />
        <path
           class="uuid-67c34de6-ec47-4102-8d21-34160a062cf1"
           d="m 106.68,136.45 0.14,-2.17 0.1,0.05"
           id="path271" />
        <path
           class="uuid-67c34de6-ec47-4102-8d21-34160a062cf1"
           d="m 106.83,134.28 -0.05,-0.19"
           id="path272" />
        <path
           class="uuid-67c34de6-ec47-4102-8d21-34160a062cf1"
           d="m 107.49,125.65 -0.05,0.14 -0.14,0.14 -1.43,0.09 -0.19,-0.09 v -0.14 l 0.14,-2.17 0.05,-0.19 0.1,-0.09 1.57,-0.14 0.1,0.09 v 0.19 l -0.14,2.17 -0.1,-0.05 -0.05,0.19 -0.14,0.09 0.1,0.05"
           id="path273" />
        <path
           class="uuid-67c34de6-ec47-4102-8d21-34160a062cf1"
           d="m 107.21,125.89 -1.43,0.14"
           id="path274" />
        <path
           class="uuid-67c34de6-ec47-4102-8d21-34160a062cf1"
           d="m 107.4,125.61 0.14,-2.17 0.1,0.05"
           id="path275" />
        <path
           class="uuid-67c34de6-ec47-4102-8d21-34160a062cf1"
           d="m 107.54,123.44 -0.05,-0.19"
           id="path276" />
        <path
           class="uuid-67c34de6-ec47-4102-8d21-34160a062cf1"
           d="m 25.78,196.24 c 0.65,-15.04 3.6,-31.73 12.8,-44.12"
           id="path277" />
        <path
           class="uuid-67c34de6-ec47-4102-8d21-34160a062cf1"
           d="m 38.59,152.09 c 3.05,-4.37 8.59,-11.02 17.51,-16.24 4.73,-2.77 9.21,-4.43 12.86,-5.46 0.9,-0.51 1.79,-1.02 2.69,-1.53 2.37,-0.3 4.73,-0.6 7.1,-0.9 0.33,-2.12 1.37,-6.16 4.35,-7.64 0.46,-0.23 1,-0.36 1.65,-0.36 6,0 11,-2 16.52,1.32 2.32,-0.19 0.17,-3.01 0,0 4.48,0.68 9.48,-2.32 10.48,0.68 2,4 3,11 0,15 -3,3 -8,-1 -12,2 v 2 c -6,0 -13,3 -19,0 -2,-1 -3,-3 -1.72,-5.83 -2.07,0.18 0,2.26 0,0 -3.28,0.83 -6.28,0.83 -9.28,-0.17 -2.72,0.92 -6.27,2.38 -10.11,4.75 -1.84,1.13 -7.09,4.53 -11.89,10.25 -5.83,6.94 -7.97,13.66 -10.77,22.83 -1.94,6.35 -4.14,15.34 -5.05,26.48"
           id="path278" />
      </g>
      <path
         class="uuid-2ac727a7-a868-41a1-8ab9-77be4229cae2"
         d="m 185.81,116.17 c -0.33,5.19 -0.67,10.38 -1,15.56 -15.47,0.45 -30.95,0.91 -46.42,1.36 0.03,1.9 0.07,3.81 0.1,5.71 -7.98,-3.04 -15.95,-6.08 -23.93,-9.13 8.56,-4.78 17.13,-9.55 25.69,-14.33 -0.54,2.41 -1.07,4.81 -1.61,7.22 15.72,-2.13 31.44,-4.27 47.17,-6.4 v 0 z"
         id="path279" />
    </g>
  </g>
  <ellipse
     class="uuid-a8ae6892-77d5-4597-a42a-c6af3bc0c0bb"
     cx="126.34"
     cy="126.63966"
     rx="125.74"
     ry="124.74"
     id="ellipse280" />
  <path
     class="uuid-447e7d91-b3e2-43ef-be8a-c2481cf5b650"
     d="m 126.21999,4.7396727 c 66.67,0 123.05,54.6000003 123.05,122.0599973 0,67.46 -56.38,122.06 -123.05,122.06 -66.669996,0 -123.0499967,-54.65 -123.0499967,-122.06 0,-67.409997 56.3800007,-122.0599973 123.0499967,-122.0599973 z"
     id="path280" />
  <path
     class="uuid-481b85e2-70aa-4cc3-aa3d-376c067c5205"
     d="m 398.78999,204.72967 c 0.01,0.63 2.23,1.16 3.96,1.19 1.76,0.03 4.02,-0.43 4.05,-1.06 0.03,-0.62 -2.09,-1.41 -4.02,-1.44 -1.89,-0.02 -4,0.69 -3.99,1.31 z"
     id="path281" />
  <path
     class="uuid-1488f37c-36ec-4784-834b-b26d2e8a08ed"
     d="m 397.45999,207.36967 c 0.02,4.14 0.05,8.28 0.07,12.42 1.05,0.5 3.04,1.29 5.63,1.27 2.09,-0.01 3.75,-0.54 4.75,-0.95 0.02,-4.19 0.04,-8.38 0.05,-12.56"
     id="path282" />
  <path
     class="uuid-4c0c3278-7522-485e-b57b-4bb5a01f678e"
     d="m 380.92999,231.13967 c 0.08,3.36 0.17,6.71 0.25,10.07 0.82,1.23 1.63,2.47 2.45,3.7 4.37,1.4 10.34,2.78 17.47,2.94 8.41,0.18 15.35,-1.4 20.15,-2.94 0.97,-1.28 1.94,-2.55 2.91,-3.83 -0.03,-3.26 -0.06,-6.51 -0.09,-9.77 -6.68,0.87 -14.38,1.45 -22.92,1.34 -7.45,-0.09 -14.23,-0.69 -20.21,-1.52 z"
     id="path283" />
  <path
     class="uuid-4c0c3278-7522-485e-b57b-4bb5a01f678e"
     d="m 381.17999,241.20967 c 5.48,1.3 12.36,2.41 20.3,2.49 9.01,0.09 16.72,-1.16 22.68,-2.62"
     id="path284" />
  <path
     class="uuid-481b85e2-70aa-4cc3-aa3d-376c067c5205"
     d="m 398.78999,204.72967 c -0.41,0.85 -0.83,1.7 -1.24,2.55 0.83,0.49 2.52,1.33 4.82,1.44 2.69,0.13 4.7,-0.81 5.55,-1.28 l -1.12,-2.59"
     id="path285" />
</svg>
