<?xml version="1.0" encoding="UTF-8"?><svg id="uuid-114865fb-7ab2-43ae-a773-31fcaf129738" xmlns="http://www.w3.org/2000/svg" width="290.39mm" height="100.38mm" xmlns:xlink="http://www.w3.org/1999/xlink" viewBox="0 0 823.16 284.54"><defs><style>.cls-1{fill:#11a438;}.cls-2{stroke-width:.67px;}.cls-2,.cls-3,.cls-4,.cls-5,.cls-6,.cls-7,.cls-8,.cls-9,.cls-10,.cls-11,.cls-12,.cls-13,.cls-14,.cls-15,.cls-16{fill:none;}.cls-2,.cls-3,.cls-4,.cls-5,.cls-6,.cls-9,.cls-10,.cls-11,.cls-13,.cls-14,.cls-17,.cls-18{stroke:#010101;}.cls-2,.cls-4,.cls-5,.cls-6,.cls-11,.cls-18{stroke-linecap:round;stroke-linejoin:round;}.cls-19{fill:#e40521;}.cls-20,.cls-17{fill:#010101;}.cls-3{stroke-width:1.14px;}.cls-3,.cls-7,.cls-9,.cls-10,.cls-12,.cls-13,.cls-14,.cls-17,.cls-15,.cls-16{stroke-miterlimit:10;}.cls-4{stroke-width:1.34px;}.cls-5{stroke-width:1.32px;}.cls-6,.cls-7,.cls-18{stroke-width:.99px;}.cls-7,.cls-12,.cls-15,.cls-16{stroke:#fff;}.cls-9{stroke-width:1.25px;}.cls-10{stroke-width:1.26px;}.cls-21{clip-path:url(#clippath-1);}.cls-11{stroke-width:.66px;}.cls-12{stroke-width:3.75px;}.cls-13{stroke-width:1.2px;}.cls-14{stroke-width:.97px;}.cls-17{stroke-width:.27px;}.cls-22{fill:#ccc;}.cls-15{stroke-width:3.7px;}.cls-16{stroke-width:6.96px;}.cls-23{clip-path:url(#clippath-2);}.cls-24{fill:#c6c6c6;}.cls-18{fill:#fff;}.cls-25{clip-path:url(#clippath);}</style><clipPath id="clippath"><ellipse class="cls-8" cx="417.92" cy="143.11" rx="119.85" ry="122.15"/></clipPath><clipPath id="clippath-1"><ellipse class="cls-8" cx="682.72" cy="143.26" rx="121.8" ry="123.31"/></clipPath><clipPath id="clippath-2"><ellipse class="cls-8" cx="144.19" cy="145.94" rx="123.05" ry="122.06"/></clipPath></defs><path class="cls-17" d="M28.78,22.92v10.94c0,.97.11,1.6.34,1.87s.67.43,1.33.47v.53h-7.46v-.53c.61-.02,1.06-.2,1.36-.53.2-.23.3-.83.3-1.8v-8.06c0-.97-.11-1.6-.34-1.87s-.66-.43-1.31-.47v-.55h5.79-.01ZM26.72,16.23c.64,0,1.18.22,1.62.67s.66.99.66,1.62-.22,1.17-.67,1.61c-.45.44-.99.67-1.62.67s-1.17-.22-1.61-.67c-.44-.44-.66-.98-.66-1.61s.22-1.17.66-1.62.98-.67,1.61-.67h0Z"/><circle class="cls-14" cx="26.48" cy="27.32" r="17.73"/><g class="cls-25"><g id="uuid-b1720e10-249c-40fc-a9c6-94631d2e3b25"><path class="cls-11" d="M384.49,244.07l.11.13.37.11.56.09.76.06.85.06.93.02h1.71"/><path class="cls-11" d="M384.49,235.02l.11.11.35.11.57.09.76.08.85.04.95.02v9.32l.07,1.34.24,1.34.43,1.34.72,1.23,1,.75,1.11.08h1.84"/><path class="cls-11" d="M386.16,248.58h0"/><path class="cls-11" d="M387.44,249.75l.07.04"/><path class="cls-11" d="M446.64,242.43l-.17.42-.56.42-.89.4-1.22.38-1.56.36-1.87.34-2.15.32-2.39.26-2.63.25-2.82.21-2.99.15-3.1.11-3.17.08-3.23.02-3.23-.02-3.17-.08-3.1-.11-2.99-.15-2.82-.21-2.63-.25-2.39-.26-2.15-.32-1.87-.34-1.56-.36-1.22-.38-.89-.4-.56-.42-.17-.42"/><path class="cls-11" d="M388.09,235.47h1.08"/><path class="cls-11" d="M389.16,236.62l.35.58,1.06.57,1.72.53,2.35.51,2.93.43,3.43.38,3.84.3,4.17.23,4.38.13,4.51.04,4.51-.04,4.38-.13,4.17-.23,3.84-.3,3.43-.38,2.93-.43,2.35-.51,1.72-.53,1.06-.57.35-.58"/><path class="cls-11" d="M389.65,244.24l.02.04"/><path class="cls-11" d="M402.46,250.92l-.69-.06-.72-.19-.65-.32-.37-.26-.61-.7-.35-.62-.22-.55"/><path class="cls-11" d="M412.3,249.21h-.15"/><path class="cls-11" d="M411.61,236.87l.2-.21.63-.21,1-.17,1.3-.11,1.52-.09,1.63-.02,1.63.02,1.52.09,1.3.11,1,.17.63.21.2.21"/><path class="cls-11" d="M423.5,249.21h.15"/><path class="cls-11" d="M433.34,250.92l.69-.06.72-.19.65-.32.35-.26.63-.7.35-.62.22-.55"/><path class="cls-11" d="M446.64,235.47h1.08v9.32l-.07,1.34-.24,1.34-.43,1.34-.72,1.23-1,.75-1.11.08h-1.56"/><path class="cls-11" d="M446.15,244.24l-.02.04"/><path class="cls-11" d="M451.31,244.07l-.11.13-.37.09-.56.11-.76.06-.85.06-.95.02h-1.69"/><path class="cls-11" d="M448.32,249.77l.04-.02.07-.08"/><path class="cls-11" d="M447.71,235.47l.95-.02.85-.04.76-.08.56-.09.37-.11.11-.11"/><path class="cls-5" d="M384.49,241.06v-13.05,16.34l.17,1.34.48,1.36.87,1.41.28.32,1.45,1.19-.24-.19"/><path class="cls-5" d="M384.49,232.36v-13.07,8.72"/><path class="cls-5" d="M384.49,219.29v-2.3l.24-.25.72-.23,1.13-.19,1.48-.13,1.74-.09,1.85-.04h52.47l1.85.04,1.72.09,1.28.11.22.02,1.13.19.72.23.24.25v27.35l-.17,1.34-.48,1.38-.85,1.36"/><path class="cls-5" d="M387.16,249.51l.28.25.3.21.32.15,1.58.62-.24-.11"/><path class="cls-5" d="M389.16,242.43v-1.38,1.38l.11.94.54,1.28.57.74,1.24.94.83.38.82.32,1.13.36,1.41.32,1.69.32,1.95.26,2.19.26,2.39.21,2.56.19,2.69.15,3.02.09,2.78.08,2.82.02,2.82-.02,2.78-.08,3.02-.09,2.69-.15,2.71-.19,2.24-.21,2.19-.26,1.95-.26,1.69-.32,1.41-.32,1.13-.36.82-.32.83-.38,1.24-.94.57-.74.17-.42.37-.87.11-.94v-6.96"/><path class="cls-5" d="M389.16,241.06v-5.58,1.25"/><path class="cls-5" d="M389.63,250.73l.19.06.19.02.19.02,1.48.04,10.79.06,1.19-.06,1.71-.17,3.3-.25,3.58-.17,3.76-.09h3.82l3.76.09,3.58.17,3.3.25,1.71.17,1.19.06,10.79-.06,1.48-.04.19-.02.19-.02.24-.09"/><path class="cls-5" d="M411.61,236.87l.2.21.63.19,1,.17,1.3.13,1.52.08,1.63.04,1.63-.04,1.52-.08,1.3-.13,1-.17.63-.19.2-.21"/><path class="cls-5" d="M446.84,250.47l-.67.26-.19.06,1.76-.68.32-.15.3-.21,1.15-.98.28-.32"/></g><g id="uuid-07b6d85c-6382-454d-be22-a3748268ee59"><path class="cls-11" d="M386.64,34.13h7.19"/><path class="cls-11" d="M386.64,34.21h7.19"/><path class="cls-11" d="M420.42,113.4h-11.5"/><path class="cls-11" d="M420.42,147.43h3.58"/><path class="cls-11" d="M426.87,113.4h-2.87"/><path class="cls-5" d="M352.62,242.66c-.41-66.61-.41-132.61-.12-199.44"/><path class="cls-5" d="M363.28,36.41c.47,72.54.47,144.54.19,217.36"/><path class="cls-5" d="M386.7,264.2c-.01-5.05-.03-10.09-.07-15.14"/><path class="cls-5" d="M386.64,34.13v.08-2.11,2.04"/><path class="cls-5" d="M386.64,32.09v-6.35"/><path class="cls-5" d="M393.77,268.11c0-5.74.03-11.48.06-17.22"/><path class="cls-5" d="M393.84,34.21v-10.53"/><path class="cls-5" d="M420.42,150.09h6.45v-46.35h-17.95v46.37l11.5-.02v-33.11,2.19"/><path class="cls-5" d="M420.42,116.98v-7.36h3.58v40.46"/><path class="cls-5" d="M462.1,29.93c.11,77.12.11,153.12-.12,230.4"/><path class="cls-5" d="M472.83,255.62c.38-73.57.38-146.57.05-221.04"/></g></g><path class="cls-9" d="M417.8,18.43c-54.61,0-100.86,36.44-116.66,86.75-.2,1.15-.53,2.26-.99,3.32-3.13,11.03-4.82,22.7-4.82,34.76,0,68.94,54.83,124.83,122.47,124.83s122.47-55.89,122.47-124.83-54.83-124.83-122.47-124.83Z"/><ellipse class="cls-15" cx="417.67" cy="143.42" rx="119.85" ry="122.15"/><path class="cls-19" d="M501.96,141.45l-.46.65c-3.2,4.84-5.82,7.26-7.88,7.26-2.36,0-4.68-1.92-6.95-5.75.31.02.53.03.68.03,2.69,0,5.68-2.05,8.98-6.15l.83-1.05-1.08-1.17c-3.01-3.2-4.52-5.92-4.52-8.15,0-1.82,1.65-3.98,4.95-6.46.47,3.18,1.88,6.28,4.21,9.29l.92,1.17.74-.95c3.42-4.37,6.53-6.55,9.32-6.55,2.17,0,3.82,1.65,4.95,4.95-.33-.04-.56-.06-.71-.06-.98,0-2.37.66-4.15,1.98-1.79,1.32-3.29,2.81-4.52,4.48l-.92,1.26.89.86c3.3,3.2,6.75,4.8,10.34,4.8-1.93,3.9-3.94,5.85-6.03,5.85-1.89,0-4.62-1.66-8.18-4.98l-1.41-1.29v-.02h0Z"/><g class="cls-21"><g id="uuid-ae1b3c0d-6cd1-49da-b349-0cd6b3493e16"><path class="cls-2" d="M702.02,98.85l12.17.06,2.25-1.06,2.05-.81,1.47-.49.88-.18h.49l.17.15-.6,141.86-.18,1.62-.56,1.53-.88,1.38-1.16,1.15-1.39.85-1.54.54-1.62.18-53.33-.23-1.62-.18-1.53-.54-1.38-.87-1.16-1.17-.88-1.37-.44-1.29-.08-.25-.18-1.64.19-.27.53-.27.87-.23,1.17-.2,1.37-.14,1.54-.09,1.62-.03,53.33.21v10.11"/><path class="cls-2" d="M653.6,96.28l.19-.19h.47l.87.2,1.47.49,2.02.84,2.27,1.07-.6,138.72-.02,9.56"/><path class="cls-2" d="M673.04,98.73l-12.15-.04-1.13-2.2-1.01-1.84-.72-1.23-.44-.63-.25-.23"/><path class="cls-2" d="M658.4,84.14l.13-.15.36-.15.58-.14.75-.1.89-.04.94-.03.17-2.84.49-2.82.81-2.75,1.1-2.62,1.4-2.5,1.68-2.32,1.91-2.13,2.16-1.9,2.33-1.63,2.52-1.37,2.67-1.08,2.75-.78,2.82-.48,2.86-.15,2.87.17,2.83.5,2.76.8,2.65,1.11,2.5,1.39,2.33,1.66,2.12,1.91,1.92,2.14,1.64,2.33,1.39,2.5,1.07,2.64.79,2.74.47,2.82.15,2.86.94.03.89.05.75.11.58.13.36.15.13.17-.04,8.44"/><path class="cls-2" d="M662.05,83.53l-.04,9.08"/><path class="cls-2" d="M705.94,61.59l-.04-.02"/><path class="cls-2" d="M720.92,239.94v-1.56l-.2-.28-.53-.26-.87-.24-1.17-.22-1.38-.14-1.55-.1-1.62-.05.59-138.17,1.14-2.18,1.02-1.85.75-1.2.45-.63.24-.23"/><path class="cls-2" d="M713.18,83.73l-.04,9.08"/><path class="cls-2" d="M716.85,85.39l-.02-.13"/><path class="cls-2" d="M721.52,98.13v-.13"/><path class="cls-4" d="M653.36,241.86l.61,1.46,1.14,1.5,1.51,1.17,1.76.73,1.89.25,53.33.21,1.88-.24,1.77-.72,1.52-1.15,1.16-1.49.74-1.76.25-1.89.6-141.81v-1.58l-.13-.99-.36-.87-.57-.76-.76-.59-1.02-.41-.89-.13-2.3.03-8.12-.06-.37.42-1.66,2.2-.65.8-.75.82-.69.69-1.22,1.13-1.74,1.36-3.34,1.96-3.65,1.34-3.84.65h-3.88l-3.83-.71-3.63-1.35-3.35-1.98-1.72-1.4-1.21-1.13-.66-.7-.74-.83-1.03-1.27-1.27-1.74-.34-.42-8.69-.02-1.75-.05-.88.12-1.02.41-.77.58-.58.75-.37.88-.13.99-.6,141.81v1.58l.25,1.88.11.3"/><path class="cls-4" d="M658.36,92.58l.04-8.44.21-3.26.55-3.2.92-3.13,1.28-3.02,1.58-2.85,1.91-2.66,2.21-2.41,2.51-2.24,2.68-1.86,2.85-1.56,3.03-1.22,3.14-.9,3.2-.53,3.26-.15,3.26.19,3.21.55,3.13.91,3.02,1.26,2.84,1.58,2.65,1.89,2.52,2.25,2.16,2.44,1.9,2.67,1.56,2.87,1.24,3.02.89,3.14.55,3.21.17,3.26-.04,8.44"/><path class="cls-4" d="M657.4,92.6h2.32"/><path class="cls-4" d="M715.42,92.84h2.32"/></g><g id="uuid-095810b7-ce6b-4ece-8e43-4123120ef189"><path class="cls-2" d="M667.66,82.2l.24,1.54.44,1.84.63,1.79.78,1.73.95,1.63,1.1,1.55,1.25,1.42,1.37,1.32,1.5,1.17,1.61,1.02,1.68.88,1.76.71,1.83.52,1.87.37,1.9.2h1.9l1.88-.18,1.88-.34,1.82-.53,1.77-.7,1.71-.87,1.6-1,1.52-1.17,1.39-1.3,1.25-1.42,1.12-1.53.95-1.64.82-1.72.63-1.78.46-1.85.25-1.53"/><path class="cls-2" d="M667.54,80.83l.12,1.69"/><path class="cls-2" d="M667.67,77.8l17.58.06v-7.6,7.6"/><path class="cls-2" d="M707.56,77.64l-.04-.09-.13-.09-.06-.02-.21-.09-.28-.07-.47-.09-.4-.05-.62-.05-.68-.05h-.81l-.14-.83-.37-1.5-.5-1.48-.65-1.41-.78-1.35-.91-1.25-1.01-1.17-1.14-1.08-1.21-.96-1.31-.83-1.38-.71-1.45-.58-1.49-.45-1.53-.29-1.55-.16h-1.56l-1.54.13-1.54.3-1.49.43-1.45.56-1.39.71-1.31.83-1.24.94-1.14,1.07-1.03,1.17-.9,1.24-.8,1.34-.65,1.41-.54,1.45-.37,1.51-.15.82-.9.02-.51.02-.64.06-.56.06-.34.08-.38.1-.19.08-.06.06-.09.08-.02.06"/><path class="cls-2" d="M671.33,81.58l.14.84.37,1.5.52,1.46.65,1.41.78,1.35.89,1.27,1.02,1.17,1.12,1.06,1.23.96,1.31.85,1.38.71,1.45.58,1.49.43,1.53.29,1.55.16h1.55l1.56-.13,1.52-.3,1.5-.43,1.45-.56,1.39-.69,1.31-.83,1.24-.96,1.12-1.05,1.03-1.17.92-1.26.78-1.34.67-1.39.52-1.47.39-1.51.15-.82"/><path class="cls-2" d="M685.25,76.92l-13.89-.06"/><path class="cls-2" d="M670.8,68.98l.04-.06"/><path class="cls-2" d="M685.23,82.6l-.02,5.77"/><path class="cls-2" d="M685.19,88.37l.03-6.72"/><path class="cls-2" d="M685.27,71.13l4.75.03"/><path class="cls-2" d="M685.26,70.26v-.06h4.75"/><path class="cls-2" d="M690,76.93l13.87.06"/><path class="cls-2" d="M690,77.88l17.56.08"/><path class="cls-2" d="M704.51,69.11h-.02"/><path class="cls-2" d="M707.68,80.99l-.14,1.7"/><path class="cls-2" d="M707.56,77.64l-.24-1.52"/><path class="cls-4" d="M667.65,83.55l-.1-1.14v-1.58l.09-2.67.04-.36v-.32l.25-1.53.46-1.83.65-1.79.8-1.72.97-1.62,1.18-1.63,1.25-1.42,1.37-1.28,1.5-1.15,1.61-1.02,1.69-.85,1.77-.7,1.82-.53,1.86-.35,1.88-.16h1.9l1.89.19,1.85.37,1.83.54,1.76.71,1.68.87,1.59,1.02,1.5,1.17,1.36,1.31,1.25,1.44,1.16,1.61.95,1.65.78,1.73.63,1.79.44,1.84.24,1.52v.32l.04.36.07,2.67v1.58l-.28,2.65-.62,2.59-.98,2.5-1.29,2.33-1.61,2.14-1.7,1.72-.17.19-2.12,1.65-2.31,1.35-2.48,1.03-2.58.7-2.67.34-1.34.05-1.34-.05-2.66-.38-2.59-.71-2.46-1.05-2.31-1.38-2.1-1.66-1.86-1.93-1.58-2.16-1.28-2.33-.96-2.51-.62-2.61-.14-1.5"/><path class="cls-4" d="M685.23,82.6v-.95h-2.32l-11.57-.06-.72.02-.47.02-.66.04-.56.06-.38.06-.32.08-.28.1-.19.1-.06.04-.04.1v.32"/><path class="cls-4" d="M685.19,88.37l4.75.03.03-6.72,13.89.04.53.02.51.02.64.05.62.07.38.05.34.07.36.11.17.08.06.04.08.09v.36"/><path class="cls-4" d="M690,77.88v-7.67"/></g><g id="uuid-03320e3d-5742-42dc-92d5-8e5f267e3ee8"><path class="cls-2" d="M656.02,46.79l7.29.03v-.08l-7.29-.03"/><path class="cls-2" d="M662.38,268.16l.02-3.16"/><path class="cls-2" d="M662.4,265.05v.91"/><path class="cls-2" d="M663.31,46.74l.02-.53-.02.61"/><path class="cls-2" d="M663.33,46.21c.03-7.68.06-15.36.1-23.05"/><path class="cls-2" d="M742.36,261.92c-.62-76.97,1.38-154.97,1.42-232.39"/><path class="cls-4" d="M620.39,259.7c1.34-73.75-1.66-148.75.98-222.84"/><path class="cls-4" d="M631.58,261.96c.15-19.11.12-38.21.03-57.32v1.03-1.03,2.19"/><path class="cls-4" d="M631.61,204.63c.24-57.95.49-115.89.73-173.84"/><path class="cls-4" d="M654.74,270.84v-5.88c2.55,0,5.11,0,7.66.11"/><path class="cls-4" d="M656.02,46.79c.03-8.05.07-16.1.1-24.15"/><path class="cls-4" d="M731.81,256.51c.32-75.18.64-150.37.96-225.55"/><path class="cls-4" d="M742.85,249.87c.3-70.75.61-141.49.91-212.24"/></g></g><ellipse class="cls-10" cx="682.72" cy="143.26" rx="124.46" ry="126.01"/><path class="cls-12" d="M682.6,20.11c67.27,0,121.8,55.21,121.8,123.31s-54.53,123.31-121.8,123.31-121.8-55.21-121.8-123.31,55.27-112.87,102.37-121.75c9.07-1.71,16.07-1.56,19.43-1.56h0Z"/><path class="cls-1" d="M793.8,110.83l1.08,1.54c-4.39,3.3-9.27,8.39-14.64,15.26-5.37,6.87-9.47,13.29-12.3,19.26l-2.28,1.54c-1.89,1.31-3.17,2.29-3.85,2.92-.27-.96-.85-2.54-1.75-4.74l-.86-2c-1.23-2.87-2.37-4.99-3.43-6.37-1.06-1.37-2.24-2.29-3.55-2.74,2.21-2.34,4.25-3.51,6.09-3.51,1.58,0,3.33,2.14,5.26,6.43l.95,2.15c3.47-5.84,7.92-11.52,13.35-17.04s10.75-9.75,15.93-12.71h0Z"/><rect class="cls-3" x=".57" y=".57" width="822.02" height="283.4"/><circle class="cls-20" cx="417.67" cy="70.02" r="7.32"/><g class="cls-23"><polygon points="149.38 185.15 149.66 182.27 148 179.77 146.81 179.58 148 185.19 149.38 185.15"/><polygon class="cls-22" points="187.88 133.87 191.54 132.55 192.83 118.04 190.31 116.53 187.55 116.62 187.88 133.87"/><polygon class="cls-24" points="160.37 187.36 157.99 185.85 151.42 188.16 149.28 190.94 149.95 195 152.99 194.48 156.32 189.43 162.32 188.26 195.97 166.81 196.45 162.01 159.99 184.58 160.37 187.36"/><polygon points="314.87 80.82 310.59 89.68 310.54 96.61 311.54 99.2 315.44 101.27 316.58 107.3 318.67 112.34 325.14 112.39 327.42 90.85 332.99 79.68 337.94 73.88 341.51 71.38 350.51 71.8 350.52 71.81 350.57 70.4 340.72 69.27 337.1 67.86 333.1 67.81 327.06 71.44 322.63 77.76 318.63 78.61 314.87 80.82"/><polygon points="324.67 117.85 326.24 120.3 326.25 120.3 333.72 120.58 333.62 119.31 329.91 117.9 324.67 117.85"/><path d="M357.94,84.01l-33.17,74.3c6.32,11.09,10.14,22.79,4.26,36.04-1.44,3.24-4.08,5.37-7.18,6.56.39,1.79.81,3.58,1.3,5.34.45,1.61.97,3.18,1.5,4.77.06.19.11.34.16.49,1.18,2.25,2.15,4.61,3.34,6.86,2.59,4.89,5.5,9.59,8.72,14.09,0-.07,2.02,2.52,2.37,2.91.82.92,1.66,1.81,2.55,2.66.52.5.94.86,1.2,1.08.75.48,1.5.94,2.31,1.34,1.46.72,2.69,1.66,3.73,2.77l7.36-120.13.1-18.99,2.09-3.68.05-15.79-.68-.62Z"/><g id="uuid-bc8b190d-7022-48c8-86ad-562aa6d7f1b7"><path class="cls-6" d="M156.42,188.96l.19-.14.1-.24.05-.28v-.33l-.86.52-.95.47-.81.33-.19.09-1.09.38-1.14.38-1.19.28-1.24.28-1.24.19-1.19.14-1.24.09h-1.14l-1.14-.05-.62-.05-.43-.05-.95-.14-.9-.24-.81-.24-.67-.33-.57-.38-.43-.38-.29-.47-.19-.47"/><path class="cls-6" d="M156.37,186.04l2.24-1.41.33,1.98-2.19,1.37-.38-1.93-1.19.66-1.38.61-1.57.57-1.62.47-1.71.38-1.71.24-1.67.14-1.67.05-1.52-.09-1.38-.19-1.24-.33-1-.42-.76-.52-.57-.57-.24-.66"/><path class="cls-6" d="M141.62,181.23l.29.05-.24.19-.05-.24-.24-.09-.19-.09-.05-.14"/><path class="cls-6" d="M141.67,181.47l-.38.24"/><path class="cls-6" d="M149.57,183.78l.29.19.14.24-.05.28-.19.24-.33.28-.48.24-.52.19-.62.19-.62.05h-.62l-.52-.05-.43-.14-.29-.14-.14-.24.05-.28.19-.28h.05"/><path class="cls-6" d="M161.27,189.01l.19-.28.05-.38-.05-.42-.05-.52-.29.14-.29.09-.38.09-.33.05h-.67l-.57-3.11-.29-.05"/><path class="cls-6" d="M157.09,188.54l1.52-.94.86.19.14.47.14.42.19.33.19.19"/><path class="cls-6" d="M158.94,186.61l.05.28-.05.28-.14.24-.19.19"/><path class="cls-6" d="M157.13,188.63l.38.05"/><path class="cls-6" d="M157.18,188.63l.29.05"/><path class="cls-6" d="M196.07,161.44l-.05.28-.19.33-.38.33-34.6,21.91-.29.14-.29.14-.38.09-.33.05h-.33l-.33-.05"/><path class="cls-6" d="M160.85,184.3l.57,3.11,34.6-21.96.05.57-.05.47-.19.42-.29.33"/><path class="cls-6" d="M196.64,164.79l-.05.14-.24.28-.33.24-.57-3.06"/><path class="cls-6" d="M196.3,166.44l-.14.19-.24.28-.33.33-34.32,21.77-.14.09-.19.09-.19.05h-.38l-.24-.05-2.95-.57h-.05l-.05-.09-.67.42-.81.47-.86.42-.95.42-1.05.38-1.05.33-1.14.28-1.14.24-1.14.19-1.14.09-1.14.09h-2.14l-1-.09-.9-.14-.81-.24-1.05-.33-.62-.28-.57-.38-.24-.19-.43-.38-.19-.28-.29-.42-.29-.8-.33-1.98v-.71l.24-.75.52-.75.81-.71,1-.75,1.57-.99-.14-.8v-.14l.1-.14.19-.14,3.28-2.12"/><path class="cls-6" d="M196.54,163.99l-.48-2.54-.14-.28-.33-.19-.48-.14-15.23-3.02-.57-.09-.71.05-.71.05-.67.19-.67.24-.52.28-29.79,18.9"/></g><g id="uuid-3e65fbf9-cbd7-474e-b7b1-82d86fcdb023"><path class="cls-6" d="M154.94,193.2l.1-.09.05-.09.05-.05v-.14l.05-.19v-.19l-.05-.14-.1-.61-.38.28-.67.42-.1.05.1.61-.43.24-.57.24-.62.24-.67.24-.67.19-.71.19-.67.14-.71.14-.71.09-.71.05-.71.05h-1.33l-.62-.05-.57-.09-.57-.09-.48-.14-.43-.19-.43-.19-.33-.19-.24-.24-.05-.05-.19-.19-.14-.28"/><path class="cls-6" d="M145.62,185.33l.05.19"/><path class="cls-6" d="M148.52,178.17v.24l-.14.19-.24.24-.38.24-.43.14-.48.14-.52.09-.52.05-.48-.05h-.19l-.19-.05-.29-.14-.19-.19-.05-.19"/><path class="cls-6" d="M147.47,177.46l.19.09.05.14v.14l-.1.14-.14.14-.24.14-.29.14-.33.09-.38.05h-.76l-.14-.05-.19-.09-.1-.09-.05-.14.05-.14"/><path class="cls-6" d="M149.71,184.58l.05.19"/><path class="cls-6" d="M153.71,194.01h0"/><path class="cls-6" d="M156.37,190.24l.05.28-.1.33-.1.28-.19.33-.29.33-.29.28-.33.24"/><path class="cls-6" d="M154.94,193.2l.33-.28"/><path class="cls-6" d="M153.99,193.06l.05.19v.05"/><path class="cls-6" d="M156.37,190.24l.05.24v.33l-.05.24-.05.28-.1.24-.1.28-.19.33-.14.19-.24.28-.29.28-.14.14-.24.19-.1.05-.14.05h-.05l-.14.05-.14-.05-.29-.05v.09l-.05.09v.14l-.05.14-.05.05-.05.09-.1.09h-.05l-.48.24-.52.24-.52.19-.57.19-.62.19-.62.14-.62.14-.62.14-.62.05-.67.09h-.62l-.57.05-.57-.05-.71-.05-.52-.09-.52-.09-.43-.09-.43-.14-.19-.09-.38-.19-.33-.19-.19-.14-.24-.24-.14-.14-.24-.28-.24-.47-.1-.24-.05-.28-.29-1.46"/><path class="cls-6" d="M149.71,184.58l-1.19-6.41-.14-.19-.24-.14-.67-.38-.24-.05-.29-.05h-.33l-.33.05-.33.09-.29.09-.29.09-.19.19-.71.75-.05.24,1.19,6.46"/><path class="cls-6" d="M156.37,190.24l-.19-1.13"/></g><g id="uuid-c446b7eb-80fd-4933-872c-797625bf0eab"><path class="cls-6" d="M334.75,122.33c.46,32.72.46,66.72-.08,99.92"/><path class="cls-6" d="M330.04,69.35c-1.67-1.9-3.72-3.46-5.99-4.57"/></g><g id="uuid-36ccd4c7-0261-48c4-a2c5-3038089d2365"><path class="cls-6" d="M355.98,107.9c-2.77,43.15-4.77,87.15-7.63,130.62"/><path class="cls-6" d="M348.94,239.14c.48-7.09.97-14.19,1.27-21.29-.01.26-.03.51-.04.77.01-.26.03-.51.04-.77l-.19,3.39"/><path class="cls-6" d="M350.22,217.85l1.28-20.55-.24,3.39"/><path class="cls-6" d="M351.51,197.3l.19-3.44-.19,3.44"/><path class="cls-6" d="M351.7,193.86l2.95-47.93-.24,3.39"/><path class="cls-6" d="M354.65,145.94l2.57-42.18"/><path class="cls-6" d="M358.41,84.25l2.67-43.45"/><path class="cls-6" d="M360.93,43.2l.05-.94"/><path class="cls-6" d="M361.22,38.86l.14-2.54-.24,4.01"/><path class="cls-6" d="M361.36,36.32c.05-1.6.11-3.19.18-4.79"/><path class="cls-6" d="M349.31,239.24c2.9-45.19,3.9-91.19,7.99-135.77"/><path class="cls-6" d="M360.17,56.87l.24-3.39"/><path class="cls-6" d="M361.07,40.8l.14-1.93"/><path class="cls-6" d="M361.12,40.32l-.14,1.93"/></g><g id="uuid-e1be13e7-8d69-4795-be06-9f078d746e5e"><path class="cls-6" d="M363.03,253.88c.71-13.16.88-26.36,2.41-39.47-.02.34-.04.69-.06,1.03.02-.34.04-.68.06-1.03l-.19,3.44"/><path class="cls-6" d="M365.45,214.41l.19-3.44-.19,3.44"/><path class="cls-6" d="M365.64,210.97l1.71-27.38-.24,3.44"/><path class="cls-6" d="M367.36,183.59l.19-3.44-.19,3.44"/><path class="cls-6" d="M367.55,180.15l.19-3.39-.19,3.39"/><path class="cls-6" d="M367.74,176.76l.67-10.27-.24,3.39"/><path class="cls-6" d="M368.4,166.48l.62-10.27-.24,3.39"/><path class="cls-6" d="M369.02,156.21l4.81-78.8-.19,3.44"/><path class="cls-6" d="M373.83,77.41l2.09-34.21-.19,3.39"/><path class="cls-6" d="M375.92,43.2c.34-5.59.68-11.19,1.02-16.78"/></g><g id="uuid-7df95e1e-2efc-43c0-a557-2b60b823a541"><path class="cls-6" d="M320.14,78.45l-1.19.19-1.19.42-1.14.61-1.14.9-1.05,1.04-.48.61-.48.66-.86,1.41-.76,1.56-.62,1.65-.43,1.74-.33,1.74-.05,1.13-.05.66v1.7l.19,1.7.38,1.56.52,1.41.62,1.32.1.09.71.99.9.9,1,.66"/><path class="cls-6" d="M312.43,84.25l-.1.09-.71,1.56-.57,1.6-.48,1.7-.29,1.74-.14,1.74.05,1.7.05.57"/><path class="cls-6" d="M319.81,112.66l4.81.99-.19-.38-.52-1.27-.52-1.32-.43-1.41-.33-1.41-.19-.85-.19-1.13-4.81-.94.1.47.29,1.46.33,1.41.24.8.48,1.37.52,1.32.43.9-.19-.05"/><path class="cls-6" d="M317.43,104.94l-.33-.09-.33-.19-.14-.09-.29-.33-.24-.42-.19-.47v-.19l.05.42"/><path class="cls-6" d="M315.91,103.14l-.1-.33v-.28l-.05-.66.05-.71.05-.66.24-2.73.05-1.13v-2.17l-.05-1.65.05-.75v-.19l.05-.52.05-.24v.14"/><path class="cls-6" d="M319.86,80.57l-.05.14-.67,1.32-.33.8-.67,1.65-.52,1.46-.48,1.46-.38,1.51-.33,1.51-.19.71.1-.24.1-.28.24-.28.24-.14.33-.09.33-.05.38.05.29-1.04.43-1.6.48-1.56.57-1.56.62-1.56.33-.8.29-.61-.52-.14-.29-.09-.19-.14-.1-.19v-.09l.05-.24.14-.28.24-.33,1.24-1.27"/><path class="cls-6" d="M317.95,90.09l4.81.94.24-.99.24-.9.48-1.6.52-1.6.57-1.51.67-1.46.29-.66.48.09.48.05h1.09l.62-.05.52-.05.62-.14.33-.09.71-.28.67-.33.29-.19.76-.57.71-.66.67-.75.24-.33.52-.75.43-.8.38-.8.29-.8.14-.8.05-.71-.05-.66-.14-.52-.14-.28-.24-.42-.33-.33-.33-.28-.43-.14-.1-.05.52-.38,1.05-.75,1.09-.61.62-.28,1.09-.52,1.09-.38.62-.19"/><path class="cls-6" d="M320.95,81.37l4.81.94"/><path class="cls-6" d="M319.91,80.48l-.1.19"/><path class="cls-6" d="M321.52,78.59l-.62-.09"/><path class="cls-6" d="M328.57,121.01l-1.05-.38-.19-.09,4.81.94.43.05.29-.05h.05l.38-.14.24-.19.29-.28.14-.33.1-.42.05-.52-.05-.19-.1-.61-.24-.66-.29-.57-.48-.71-.52-.61-.57-.52-.52-.42-.62-.33-.62-.28-.52-.19-.57-.14-.67-.14-.86-.19-2-.24-.86-.14"/><path class="cls-6" d="M322.24,105.88l.43.05.43-.05.52-.14.43-.19.48-.33.38-.33.48-.52.43-.61.1-.19.43-.85.29-.9.19-.8.19-1.13.05-1.13v-1.08l-.05-.9-.14-.9-.19-.85-.24-.61-.33-.66-.33-.61-.19-.19-.43-.52-.48-.47-.48-.33-.48-.28-.14-.05-.48-.19-.33-.09"/><path class="cls-6" d="M327.33,120.53h0l-.14-.05"/><path class="cls-6" d="M328.76,109.22l-.38-1.23-.33-1.23-.14-.71-.24-1.32-.14-1.32-.14-1.37v-.66l-.05-.75v-1.41l.05-.75.1-1.46.14-1.41.19-1.41.29-1.41.33-1.41.19-.75.38-1.41.14-.33.33-1.04.52-1.32.57-1.27.57-1.23.38-.71.67-1.18.71-1.13.76-1.08.33-.47.43-.52.81-.94.48-.52.86-.85.9-.8.9-.71.9-.61.95-.52.52-.28.95-.42,1-.33.95-.24.95-.19.95-.09h.52l.95.09.9.14.9.19.9.33.86.38.48.28.81.52.81.61.76.66.71.75.67.85.33.47.62.94.57,1.04.52,1.04.48,1.13.38,1.13.19.66.33,1.27.29,1.27.19,1.32.19,1.37.1,1.37v2.12l-.05,1.46-.05.75-.05.66-.19,1.41-.19,1.46-.14.75-.33,1.41-.38,1.41-.38,1.37-.48,1.37-.52,1.32-.33.71-.57,1.23-.67,1.23-.67,1.18-.33.52-.76,1.13-.76,1.04-.81.94-.86.9-.86.85-.48.42-.9.71-.95.66-.9.57-.95.47-.95.42-.52.19-1,.28-.95.19-.95.09h-.95l-.95-.05-.48-.09-.95-.19-.9-.28-.86-.38-.81-.47-.86-.52-.43-.33-.76-.71-.71-.71-.71-.8-.62-.9-.62-.94-.29-.57-.52-1.04-.48-1.13-.43-1.13"/><path class="cls-6" d="M328.95,108.23l.24.9.48,1.23.57,1.27.62,1.04.62,1.04.71.9.71.85.86.85.86.66.86.57.9.47.9.38,1.67.42h2.24l2.24-.42,2.24-.94,1-.66,1.19-.75,2.09-1.79,1.95-2.21,1.71-2.54,1.52-2.87,1.24-3.06,1-3.2.62-3.35.33-3.35.05-3.3-.33-3.2-.62-2.83-.05-.14-.95-2.78-1.24-2.4-1.52-2.07-1.71-1.7,1.19.8-.81-.71-.95-.66-.9-.52-.1-.05-.81-.38-.95-.33-.67-.14-1.52-.19-.86-.05-1.05.09-1,.19-1.05.28-1.09.47-1,.47-1,.57-1,.71-.95.75-1.05.94-.9.94-.86.99-.29.42-.52.66-.81,1.18-.81,1.37-.71,1.27-.62,1.32-.57,1.37-.57,1.41-.52,1.6-.38,1.51-.33,1.46-.29,1.51-.19,1.56-.19,1.65-.05,1.51v1.51l.1,1.46.1,1.46.24,1.56.29,1.37.33,1.32.14.38"/><path class="cls-6" d="M328.81,104.84l-.05-.14-.38-3.06v-3.16l.24-3.25.62-3.2.9-3.11,1.19-2.97,1.43-2.73,1.71-2.5,1.86-2.12,2-1.7,2.09-1.32,2.19-.9,2.19-.38,2.09.09.57.14-.9-.14h-.95l-1,.05-1,.19-1,.28-.9.38-1,.42-.95.57-.95.66-.95.75-.86.75-.86.94-.86.94-.81,1.08-.76,1.13-.67,1.08-.71,1.23-.52,1.18-.67,1.46-.57,1.51-.38,1.23-.38,1.41-.33,1.41-.29,1.51-.19,1.46-.14,1.41-.05,1.46v1.41l.05,1.46.14,1.41.19,1.27.24,1.37.33,1.27.38,1.23.43,1.18.52,1.08.52,1.04.62.99.67.9.71.8.71.71.81.66.24.14.62.42.86.42.9.38.9.28.86.14-.86-.14-1.81-.52-1.9-1.04-1.71-1.51-1.52-1.89-1.28-2.26-.95-2.59-.67-2.69"/><path class="cls-6" d="M327.38,98.48l-.33-.8"/><path class="cls-6" d="M327.42,71.15l.43-.24.48-.14.43-.09.43.05,1-.75.62-.38,1.09-.61,1.09-.57,1.09-.42,1.19-.38"/><path class="cls-6" d="M332.14,121.48l.62.28,1.05.33,1.05.24"/><path class="cls-6" d="M329.19,70.72l4.81.94"/><path class="cls-6" d="M334.23,67.66h0"/><path class="cls-6" d="M334.18,67.7h0"/><path class="cls-6" d="M336.56,122.51h0"/><path class="cls-6" d="M353.13,76l.76.8.14.14.57.75.67.94.67,1.13.57,1.13.52,1.18.43,1.23.38,1.27.33,1.51.24,1.41v.19l.14,1.23.14,1.46v3.11l-.1,1.56-.19,1.51-.24,1.51-.29,1.51-.43,1.6-.43,1.51-.48,1.41-.57,1.41-.57,1.37-.76,1.41-.71,1.27-.76,1.18-.9,1.27-.9,1.13-.9.94-.9.9-.95.8-1.05.8-1,.61-1.05.52-1,.47-1,.33-1.09.24-1.09.14-1,.05-1-.09-.95-.19-1.09-.28"/><path class="cls-6" d="M339.51,117.47l1.05.09h.95l1-.14.95-.19,1-.33,1-.42.95-.52,1-.57.86-.66.95-.8.86-.85.9-.94.81-.99.86-1.23.76-1.13.67-1.23.62-1.18.62-1.32.05-.19.48-1.18.48-1.37.43-1.46.05-.19.29-1.18.29-1.46.24-1.46.1-.75.1-.71.1-1.46v-2.83l-.1-1.41-.19-1.37-.24-1.37-.24-1.27-.38-1.23-.43-1.23-.48-1.13-.52-1.08-.14-.19-.43-.75-.62-.94-.71-.85-.76-.8-.76-.71-.57-.38-.24-.19-.86-.47-.86-.42-.95-.33-.95-.19"/><path class="cls-6" d="M338.9,117.38h-.05"/><path class="cls-6" d="M341.99,69.35l.52.28.38.24,1.38.9.19.75"/><path class="cls-6" d="M344.27,70.77l.67.38.62.38.57.24.76.28.71.14.71.09.57-.05.57-.09.48-.14.33-.14.33-.19.19-.24.05-.14.1-.24-.05-.24-.14-.24-.24-.19"/><path class="cls-6" d="M349.18,117.57l-.1-.05h-.14"/><path class="cls-6" d="M347.94,73.22l-.29-.09-1.09-.09h-.14"/><path class="cls-6" d="M347.94,73.22l2.09.75,1.9,1.23"/><path class="cls-6" d="M356.31,106.77l-.05.14"/><path class="cls-6" d="M359.65,88.16l-.05-.61"/><path class="cls-6" d="M359.46,86.74l.1.19"/><path class="cls-6" d="M310.24,94.94l.14,1.04.33,1.56.57,1.51.62,1.27.81,1.08.95.99,1,.66,1.24.52h.05l.14.99.29,1.41.33,1.37.24.75.43,1.32.52,1.27.76,1.65.1.05.1.05.24.09.52.09.33.19.38.28.62.47.57.52.52.66.43.57.48.61,1.14,1.79.57.75.43.52.43.47.48.42.43.28.14.09.43.19.19.05,1.38.52,1.05.28,5.24,1.04.62.09,1.09.09h1.86l.48-.05h.19l.52-.14.57-.24.57-.24.52-.33.29-.14.57-.42,1.71-1.27.67-.47.62-.38.71-.42.76-.33.71-.24.48-.14.52-.09.43-.05.19-.05.24.05,1.14-1.08.95-1.04.9-1.04.86-1.18.81-1.23.38-.57.76-1.32.19-.33.14-.28.14-.24.24-.57.24-.66.19-.66.76-2.64.38-1.08.38-1.04,1-2.54.29-.75.05-.14.14-.57.05-.47.24-1.56.19-1.51.14-1.56.05-1.74v-1.56l-.05-.85-.1-1.51-.05-.33v-.38l-.05-.14-.1-.28-.14-.38-.71-1.7-.29-.66-.29-.9-.29-1.04-.24-.99-.33-1.7-.24-.85-.29-.94-.24-.66-.24-.47-.29-.47-.71-1.08-.43-.57-.76-.94-.81-.85-.86-.75-.57-.47-.9-.71-.43-.28-.33-.14-.29-.09-4.81-.94-.48-.05h-1.05l-.48.05-.62.14-.38.05-.48-.28-.52-.24-.48-.14-.43-.14-4.81-.94-.29-.05h-.48l-.29.09-1.62.52-1.05.42-1.09.52-1.05.61-.62.38-1.81,1.37-.38.33-.48.52-.62.75-.48.75-1,1.51-.57.85-.62.8-.57.71-.76.9-.19-.05-1.19-.09h-.1l-1.19.19-1.33.47-1.14.61-1.09.85-1.14,1.13-.95,1.27-.76,1.27"/></g><g id="uuid-d4a51f98-e146-4ced-85ff-20884fee9f43"><path class="cls-6" d="M208.25,38.97c-4.32,66.26-8.63,132.51-12.95,198.77l-160.11-31.86"/><path class="cls-6" d="M196.64,241.98l.57-.19.38-.28.38-.52.29-.61.1-.71c4.3-66.13,8.6-132.25,12.9-198.38"/><path class="cls-6" d="M186.72,28.76l-3.89,59.68c.73.14,1.46.28,2.19.42,1.28-19.7,2.56-39.41,3.84-59.11"/><path class="cls-6" d="M169.89,183.59c-.44,6.88-.89,13.76-1.33,20.64-19.51-3.88-39.05-7.4-58.51-11.58-30.3-6.7-61.3-9.7-91.46-18.06"/><path class="cls-6" d="M29.52,204.76c4.57.91,9.14,1.81,13.71,2.72"/><path class="cls-6" d="M16.36,169.86c.58.11,1.17.23,1.75.34-.58-.11-1.16-.22-1.74-.33"/><path class="cls-6" d="M29.86,184.25c-3.34-.66-6.68-1.33-10.01-1.99"/><path class="cls-6" d="M18.11,170.21l17.28,3.44-3.47-.66"/><path class="cls-6" d="M29.39,184.16l2.52.52-2.67-.57"/><path class="cls-6" d="M32.74,187.57l143.91,28.59,2.52-38.5"/><path class="cls-6" d="M33.68,185l1.71.33-3.47-.66"/><path class="cls-6" d="M42.29,186.75l3.47.66-10.38-2.07"/><path class="cls-6" d="M35.39,173.65l17.28,3.44-3.47-.66"/><path class="cls-6" d="M42.29,207.3l3.47.71"/><path class="cls-6" d="M59.57,190.14l3.47.71-17.28-3.44"/><path class="cls-6" d="M52.67,177.09l6.9,1.37-3.47-.66"/><path class="cls-6" d="M59.57,210.74l3.47.71"/><path class="cls-6" d="M59.57,178.45l10.38,2.07-3.47-.71"/><path class="cls-6" d="M76.84,193.58l3.47.71-17.28-3.44"/><path class="cls-6" d="M69.94,180.53l17.28,3.44-3.47-.71"/><path class="cls-6" d="M76.84,214.18l3.47.71"/><path class="cls-6" d="M80.32,194.29l17.28,3.44-3.47-.71"/><path class="cls-6" d="M87.22,183.97l17.28,3.44-3.47-.71"/><path class="cls-6" d="M94.12,217.62l3.47.66"/><path class="cls-6" d="M97.59,197.73l17.28,3.44-3.47-.71"/><path class="cls-6" d="M104.49,187.41l10.38,2.07-3.47-.71"/><path class="cls-6" d="M111.4,221.06l3.47.66"/><path class="cls-6" d="M114.87,201.17l17.28,3.39-3.47-.66"/><path class="cls-6" d="M114.87,189.48l6.9,1.37-3.47-.71"/><path class="cls-6" d="M121.77,190.85l13.85,2.73-3.47-.71"/><path class="cls-6" d="M132.15,225.16l-3.47-.66"/><path class="cls-6" d="M132.15,204.56l17.28,3.44-3.47-.66"/><path class="cls-6" d="M137.14,193.86l1.9.42-3.43-.71,1.52.28"/><path class="cls-6" d="M139.05,194.29l4.43.85"/><path class="cls-6" d="M142.52,194.95l1.14.24"/><path class="cls-6" d="M145.95,195.61v.05l-.24-.05"/><path class="cls-6" d="M145.95,195.66l3.47.66-3.47-.66"/><path class="cls-6" d="M180.05,27.08c-2.91,44.8-5.83,89.61-8.74,134.41"/><path class="cls-6" d="M149.42,228.6l-3.47-.71"/><path class="cls-6" d="M149.42,208l17.28,3.44-3.47-.66"/><path class="cls-6" d="M149.42,196.32l6.9,1.37-3.43-.66"/><path class="cls-6" d="M156.32,197.68l3.47.71-3.47-.71"/><path class="cls-6" d="M163.23,231.33l3.47.71"/><path class="cls-6" d="M163.23,199.1l-3.43-.71,5.9,1.18-2.47-.47"/><path class="cls-6" d="M166.7,211.44l8.04,1.6,2.19-33.98"/><path class="cls-6" d="M165.7,199.57l.9-13.9"/><path class="cls-6" d="M176.93,26.69c-2.97,45.64-5.93,91.28-8.9,136.92"/><path class="cls-6" d="M172.32,145.94l.24-3.44-.24,3.44"/><path class="cls-6" d="M173.46,128.78l.24-3.39"/><path class="cls-6" d="M177.08,234.11l-3.47-.71"/><path class="cls-6" d="M179.27,177.61l-2.52,38.55h-.1"/><path class="cls-6" d="M177.03,74.02l.19-3.44"/><path class="cls-6" d="M180.55,234.77l6.9,1.37"/><path class="cls-6" d="M187.45,133.64l-.9.09,1.14-17.58,5.19,1.04-.05,1.04h-.1l-.95,14.33.1.05-.05.52-4.38.52"/><path class="cls-6" d="M186.55,133.73l5.19,1.04.1-1.65"/><path class="cls-6" d="M191.88,132.6l.95-14.37"/><path class="cls-6" d="M198.35,239.67l6.81-.75,1.13-9.73c3.65-60.62,7.31-121.24,10.96-181.87"/><path class="cls-6" d="M31.87,209.36c1.82.36,3.65.73,5.47,1.09"/><path class="cls-6" d="M205.16,238.92c-2.41,3.03-6.41,3.03-10.41,3.03-56-11-109-22-163.06-32.64"/></g><path class="cls-16" d="M28.96,203.82c-.23-24.91,6.62-52.41,28.93-66.64,7.22-4.6,15.78-6.84,24.33-6.39"/><g id="uuid-ef503bb5-ade5-41ce-9d8d-9898fd55df5f"><path class="cls-6" d="M72.37,135.69l.71-.38.57-.71.38-.94.14-1.08-.1-.75-.05-.38-.33-1.04-.57-.85-.71-.52-.38-.14-.38-.05"/><path class="cls-6" d="M70.51,134.51h-.14l1.52-.14.48-.14.38-.33.29-.42.19-.71v-.66l-.14-.52-.29-.71-.38-.38-.48-.24h-.52"/><path class="cls-6" d="M70.37,134.51l-.24.05"/><path class="cls-6" d="M71.46,130.27l-1.71.19"/><path class="cls-6" d="M79.08,135.13h.05l-.05,3.25.1.8.38.9.38.42.57.38"/><path class="cls-6" d="M101.07,120.47l-14.23,1.18.14.14.05.14-.52.14-.57.42-.38.66-.29.8-.05.61-.1,5.28-.19,3.53-.33,3.53-.33,2.59h-.33l-4.9-1.13"/><path class="cls-6" d="M79.13,135.13l3.38-.28.71-.38.62-.71.33-.94.14-1.08-.1-1.13-.38-1.04-.57-.8-.71-.57-.38-.14h-.38l-2.24.19.19-2.26.33-2.5-.05-.05"/><path class="cls-6" d="M79.56,128.25h-.1"/><path class="cls-6" d="M80.7,140.92h.05"/><path class="cls-6" d="M85.03,141.91l-.14-.05-.52-.38-.38-.61-.14-.8.05-.61.33-2.59.33-3.53.24-4.9.05-3.86-4.76-1.08.19-.85.43-.8.52-.61.57-.38.67-.24,4.38,1.04-.43.09-.62.42-.52.61-.33.85-.1.94h.38"/><path class="cls-6" d="M82.36,120.66l14.33-1.18"/><path class="cls-6" d="M84.27,139.51v.75l.14.66.38.52.38.24.57.09-.14.19,14.23-1.18"/><path class="cls-6" d="M99.97,140.59l-14.23,1.18"/><path class="cls-6" d="M85.5,141.96h.05"/><path class="cls-6" d="M87.03,121.93l14.23-1.18"/><path class="cls-6" d="M112.82,121.69l-11.57.94-.05,5.09-.43,6.5-.57,4.34,11.42-.94"/><path class="cls-6" d="M100.26,138.38l11.52-.99"/><path class="cls-6" d="M101.26,122.64v-1.37l8-.66"/><path class="cls-6" d="M101.26,122.35l11.37-.99"/><path class="cls-6" d="M106.78,136.49l-.05.14-.14.14-1.43.09-.14-.09-.05-.14.14-2.17.05-.19.1-.09,1.48-.14.19.09v.19l-.14,2.17-.1-.05-.1.24-.1.05.1.05"/><path class="cls-6" d="M106.49,136.73l-1.38.14"/><path class="cls-6" d="M106.68,136.45l.14-2.17.1.05"/><path class="cls-6" d="M106.83,134.28l-.05-.19"/><path class="cls-6" d="M107.49,125.65l-.05.14-.14.14-1.43.09-.19-.09v-.14l.14-2.17.05-.19.1-.09,1.57-.14.1.09v.19l-.14,2.17-.1-.05-.05.19-.14.09.1.05"/><path class="cls-6" d="M107.21,125.89l-1.43.14"/><path class="cls-6" d="M107.4,125.61l.14-2.17.1.05"/><path class="cls-6" d="M107.54,123.44l-.05-.19"/><path class="cls-6" d="M25.78,196.24c.65-15.04,3.6-31.73,12.8-44.12"/><path class="cls-6" d="M38.59,152.09c3.05-4.37,8.59-11.02,17.51-16.24,4.73-2.77,9.21-4.43,12.86-5.46.9-.51,1.79-1.02,2.69-1.53,2.37-.3,4.73-.6,7.1-.9.33-2.12,1.37-6.16,4.35-7.64.46-.23,1-.36,1.65-.36,6,0,11-2,16.52,1.32,2.32-.19.17-3.01,0,0,4.48.68,9.48-2.32,10.48.68,2,4,3,11,0,15-3,3-8-1-12,2v2c-6,0-13,3-19,0-2-1-3-3-1.72-5.83-2.07.18,0,2.26,0,0-3.28.83-6.28.83-9.28-.17-2.72.92-6.27,2.38-10.11,4.75-1.84,1.13-7.09,4.53-11.89,10.25-5.83,6.94-7.97,13.66-10.77,22.83-1.94,6.35-4.14,15.34-5.05,26.48"/></g><path class="cls-18" d="M185.81,116.17c-.33,5.19-.67,10.38-1,15.56-15.47.45-30.95.91-46.42,1.36.03,1.9.07,3.81.1,5.71-7.98-3.04-15.95-6.08-23.93-9.13,8.56-4.78,17.13-9.55,25.69-14.33-.54,2.41-1.07,4.81-1.61,7.22,15.72-2.13,31.44-4.27,47.17-6.4h0Z"/></g><ellipse class="cls-13" cx="141.49" cy="143.26" rx="125.74" ry="124.74"/><path class="cls-7" d="M141.37,21.36c66.67,0,123.05,54.6,123.05,122.06s-56.38,122.06-123.05,122.06S18.32,210.83,18.32,143.42,74.7,21.36,141.37,21.36Z"/></svg>