<?xml version="1.0" encoding="UTF-8" standalone="no"?>
<svg
   id="uuid-f03e6858-68f3-4207-8506-60fb813a5add"
   data-name="uuid-e352aa77-d5e2-4960-8477-629dfe23282d"
   width="192.71803mm"
   height="85.093109mm"
   viewBox="0 0 546.2846 241.20999"
   version="1.1"
   xmlns="http://www.w3.org/2000/svg"
   xmlns:svg="http://www.w3.org/2000/svg">
  <defs
     id="defs2">
    <style
       id="style1">
      .uuid-98bb1fec-3542-4c89-a448-ab59d444c304 {
        fill: #010101;
      }

      .uuid-98bb1fec-3542-4c89-a448-ab59d444c304, .uuid-7ff65d48-307b-4333-bdff-10877653d451, .uuid-a0f6a412-7d73-4fdd-9f9b-2f375702c8cc, .uuid-c9c5f0f3-1128-4a39-8ee7-f9ac0e6fe0a1, .uuid-0dfebe10-faf8-4400-a3c6-b556e8a85809, .uuid-f320bec2-cb55-46b8-a477-7b44e7665d70, .uuid-d64af4f2-9dfd-4d6a-b51a-10dad9c73827 {
        fill-rule: evenodd;
      }

      .uuid-cca39122-d9c0-4c36-b199-78142db6a900, .uuid-6fc248ae-41f7-4ddf-9672-d86c28f19b44, .uuid-7acd6aa0-6fc3-48b4-80b6-5317cabb96a7, .uuid-3d5aef1c-4b24-41c6-8c86-70577638a391, .uuid-c1e6c34a-71e5-4607-80d5-c5a645758067, .uuid-51a9bcd4-7315-4f9b-820f-e930b2e051db, .uuid-f929c00c-18e2-4244-84cc-5bf41a4618b0, .uuid-5481da7d-176a-4387-8bd1-7cd51f598063, .uuid-607203b5-7667-4d80-b0aa-777c8a0711de, .uuid-c390d098-788b-4994-993c-27a88ed1de07, .uuid-134d7f19-cd27-46f8-bc90-cb860d628938, .uuid-ef405476-2045-4465-bd9b-30ec81fe908d {
        fill: none;
      }

      .uuid-cca39122-d9c0-4c36-b199-78142db6a900, .uuid-6fc248ae-41f7-4ddf-9672-d86c28f19b44, .uuid-7acd6aa0-6fc3-48b4-80b6-5317cabb96a7, .uuid-9998b556-a384-4d5c-9a11-6750b5594d34, .uuid-c1e6c34a-71e5-4607-80d5-c5a645758067, .uuid-5c46874c-7407-4a94-8d1f-0e794d581fee, .uuid-f929c00c-18e2-4244-84cc-5bf41a4618b0, .uuid-d64af4f2-9dfd-4d6a-b51a-10dad9c73827, .uuid-c390d098-788b-4994-993c-27a88ed1de07, .uuid-e0857c5c-2644-4cd2-af96-1828a65c13ea, .uuid-134d7f19-cd27-46f8-bc90-cb860d628938 {
        stroke-miterlimit: 10;
      }

      .uuid-cca39122-d9c0-4c36-b199-78142db6a900, .uuid-6fc248ae-41f7-4ddf-9672-d86c28f19b44, .uuid-d64af4f2-9dfd-4d6a-b51a-10dad9c73827, .uuid-134d7f19-cd27-46f8-bc90-cb860d628938 {
        stroke: #1e1e1c;
      }

      .uuid-cca39122-d9c0-4c36-b199-78142db6a900, .uuid-9998b556-a384-4d5c-9a11-6750b5594d34, .uuid-607203b5-7667-4d80-b0aa-777c8a0711de, .uuid-134d7f19-cd27-46f8-bc90-cb860d628938 {
        stroke-width: .8px;
      }

      .uuid-7ff65d48-307b-4333-bdff-10877653d451 {
        fill: #080914;
      }

      .uuid-6fc248ae-41f7-4ddf-9672-d86c28f19b44, .uuid-51a9bcd4-7315-4f9b-820f-e930b2e051db, .uuid-e0857c5c-2644-4cd2-af96-1828a65c13ea {
        stroke-width: .63px;
      }

      .uuid-a0f6a412-7d73-4fdd-9f9b-2f375702c8cc, .uuid-9998b556-a384-4d5c-9a11-6750b5594d34, .uuid-5c46874c-7407-4a94-8d1f-0e794d581fee, .uuid-d64af4f2-9dfd-4d6a-b51a-10dad9c73827, .uuid-e0857c5c-2644-4cd2-af96-1828a65c13ea {
        fill: #fff;
      }

      .uuid-7acd6aa0-6fc3-48b4-80b6-5317cabb96a7 {
        stroke-width: 3.59px;
      }

      .uuid-7acd6aa0-6fc3-48b4-80b6-5317cabb96a7, .uuid-f929c00c-18e2-4244-84cc-5bf41a4618b0 {
        stroke: #fff;
      }

      .uuid-9998b556-a384-4d5c-9a11-6750b5594d34, .uuid-c1e6c34a-71e5-4607-80d5-c5a645758067, .uuid-51a9bcd4-7315-4f9b-820f-e930b2e051db, .uuid-5481da7d-176a-4387-8bd1-7cd51f598063, .uuid-607203b5-7667-4d80-b0aa-777c8a0711de, .uuid-c390d098-788b-4994-993c-27a88ed1de07, .uuid-e0857c5c-2644-4cd2-af96-1828a65c13ea, .uuid-ef405476-2045-4465-bd9b-30ec81fe908d {
        stroke: #010101;
      }

      .uuid-c1e6c34a-71e5-4607-80d5-c5a645758067 {
        stroke-width: 1.21px;
      }

      .uuid-51a9bcd4-7315-4f9b-820f-e930b2e051db, .uuid-5481da7d-176a-4387-8bd1-7cd51f598063, .uuid-607203b5-7667-4d80-b0aa-777c8a0711de, .uuid-134d7f19-cd27-46f8-bc90-cb860d628938, .uuid-ef405476-2045-4465-bd9b-30ec81fe908d {
        stroke-linecap: round;
      }

      .uuid-51a9bcd4-7315-4f9b-820f-e930b2e051db, .uuid-5481da7d-176a-4387-8bd1-7cd51f598063, .uuid-607203b5-7667-4d80-b0aa-777c8a0711de, .uuid-ef405476-2045-4465-bd9b-30ec81fe908d {
        stroke-linejoin: round;
      }

      .uuid-c9c5f0f3-1128-4a39-8ee7-f9ac0e6fe0a1 {
        fill: #0a0d1c;
      }

      .uuid-5c46874c-7407-4a94-8d1f-0e794d581fee {
        stroke: #000;
        stroke-width: .85px;
      }

      .uuid-13784d76-c5a7-4897-b71d-9d1651078aa4 {
        clip-path: url(#uuid-f5ca5d65-66b6-47f8-83b2-a11a15165014);
      }

      .uuid-f929c00c-18e2-4244-84cc-5bf41a4618b0 {
        stroke-width: 3.54px;
      }

      .uuid-0dfebe10-faf8-4400-a3c6-b556e8a85809 {
        fill: #cdcccc;
      }

      .uuid-5481da7d-176a-4387-8bd1-7cd51f598063, .uuid-d64af4f2-9dfd-4d6a-b51a-10dad9c73827 {
        stroke-width: 1.6px;
      }

      .uuid-f320bec2-cb55-46b8-a477-7b44e7665d70 {
        fill: #080915;
      }

      .uuid-88b64c91-9bf7-4dde-af8d-2128e526ad87 {
        clip-path: url(#uuid-88a1426c-30ed-4bfb-9795-b894ac7f0df1);
      }

      .uuid-c390d098-788b-4994-993c-27a88ed1de07 {
        stroke-width: 1.19px;
      }

      .uuid-ef405476-2045-4465-bd9b-30ec81fe908d {
        stroke-width: 1.26px;
      }
    </style>
    <clipPath
       id="uuid-f5ca5d65-66b6-47f8-83b2-a11a15165014">
      <ellipse
         class="uuid-3d5aef1c-4b24-41c6-8c86-70577638a391"
         cx="453.81"
         cy="150.32001"
         rx="117.9"
         ry="118.2"
         id="ellipse1" />
    </clipPath>
    <clipPath
       id="uuid-88a1426c-30ed-4bfb-9795-b894ac7f0df1">
      <ellipse
         class="uuid-3d5aef1c-4b24-41c6-8c86-70577638a391"
         cx="148.82001"
         cy="150.22"
         rx="117.2"
         ry="117.5"
         id="ellipse2" />
    </clipPath>
  </defs>
  <ellipse
     class="uuid-f929c00c-18e2-4244-84cc-5bf41a4618b0"
     cx="425.29196"
     cy="120.805"
     rx="115.4"
     ry="115.6"
     id="ellipse3" />
  <g
     class="uuid-13784d76-c5a7-4897-b71d-9d1651078aa4"
     clip-path="url(#uuid-f5ca5d65-66b6-47f8-83b2-a11a15165014)"
     id="g63"
     transform="translate(-28.418024,-29.615001)">
    <g
       id="g62">
      <path
         class="uuid-6fc248ae-41f7-4ddf-9672-d86c28f19b44"
         d="m 477.91,247.82 2.1,4.2 v 1.6 l -3,2.4 -5.2,3.8 -1.9,0.4 -2.7,-0.2 -10.2,-2.9 -12.8,-3.9 -2,-1.5 -0.3,-0.3 v -0.6 l 0.6,0.3 22,6.6 h 1.7 l 1.8,-0.6 2.7,-1.8 0.1,-0.6 -63.3,-107.9 1.9,-1.7 5.7,-4.3 z"
         id="path3" />
      <path
         class="uuid-f320bec2-cb55-46b8-a477-7b44e7665d70"
         d="m 473.01,133.62 0.4,0.1 v 41.6 h -0.2 z"
         id="path4" />
      <path
         class="uuid-f320bec2-cb55-46b8-a477-7b44e7665d70"
         d="m 520.01,43.18 0.07,211.66 c 0.08,-0.05 0.15,-0.1 0.23,-0.15 l 0.07,-211.28 c -0.13,-0.08 -0.25,-0.16 -0.38,-0.24 h 0.01 z"
         id="path5" />
      <path
         class="uuid-f320bec2-cb55-46b8-a477-7b44e7665d70"
         d="m 555.32,83.43 0.05,146.09 c 0.1,-0.09 0.2,-0.19 0.3,-0.28 l -0.05,-145.2 c -0.1,-0.2 -0.2,-0.41 -0.3,-0.61 z"
         id="path6" />
      <path
         class="uuid-c9c5f0f3-1128-4a39-8ee7-f9ac0e6fe0a1"
         d="m 411.01,118.12 v -1.2 l 0.1,0.1 z"
         id="path7" />
      <path
         class="uuid-c9c5f0f3-1128-4a39-8ee7-f9ac0e6fe0a1"
         d="m 375.31,136.82 -0.7,-0.1 0.5,-0.2 0.3,0.1 z"
         id="path8" />
      <path
         class="uuid-c9c5f0f3-1128-4a39-8ee7-f9ac0e6fe0a1"
         d="m 473.41,177.32 -0.2,-2 h 0.2 z"
         id="path9" />
      <path
         class="uuid-0dfebe10-faf8-4400-a3c6-b556e8a85809"
         d="m 374.11,132.22 1.8,3 0.3,1 -0.8,0.5 -0.3,-0.1 -2.5,-4.1 -0.1,-0.5 h 0.7 z"
         id="path10" />
      <path
         class="uuid-0dfebe10-faf8-4400-a3c6-b556e8a85809"
         d="m 382.21,138.72 -2.7,1.9 v 0.8 l 1.5,2.4 0.3,1 -0.9,0.6 -3,-4.9 v -0.3 l 2,-1.5 0.3,-0.6 z"
         id="path11" />
      <path
         class="uuid-0dfebe10-faf8-4400-a3c6-b556e8a85809"
         d="m 380.41,148.92 h -0.6 l -0.7,-0.9 h 0.3 z"
         id="path12" />
      <path
         class="uuid-0dfebe10-faf8-4400-a3c6-b556e8a85809"
         d="m 382.01,150.32 -0.7,-0.2 -0.4,-0.6 h 0.3 z"
         id="path13" />
      <path
         class="uuid-0dfebe10-faf8-4400-a3c6-b556e8a85809"
         d="m 385.81,155.42 v 0.4 l -0.3,-0.1 v -0.7 z"
         id="path14" />
      <path
         class="uuid-0dfebe10-faf8-4400-a3c6-b556e8a85809"
         d="m 388.81,160.52 v 0.4 l -0.3,-0.1 v -0.6 z"
         id="path15" />
      <g
         id="uuid-b9e560f3-2dfb-42f4-ae55-1090e1a630d0"
         data-name="uuid-b11cba06-8f19-4796-bb95-8c5ecde3d346">
        <g
           id="g18">
          <path
             class="uuid-51a9bcd4-7315-4f9b-820f-e930b2e051db"
             d="m 396.31,152.22 -0.9,0.6 -1.2,0.1 -1.6,-0.5 -1.1,-0.6"
             id="path16" />
          <path
             class="uuid-51a9bcd4-7315-4f9b-820f-e930b2e051db"
             d="m 397.11,148.42 -0.7,-0.4"
             id="path17" />
          <path
             class="uuid-51a9bcd4-7315-4f9b-820f-e930b2e051db"
             d="m 400.81,141.72 2.3,0.7 h 0.9 l 0.9,-0.3 0.8,-0.3 0.8,-0.4 0.7,-0.5 4.2,-3.1"
             id="path18" />
        </g>
        <g
           id="g26">
          <path
             class="uuid-ef405476-2045-4465-bd9b-30ec81fe908d"
             d="m 373.01,118.42 -0.5,-1.9 -0.2,-1.5 v -2.1 l 0.4,-1.9 0.5,-0.8 0.4,-0.7 0.6,-0.6 0.7,-0.6 4.4,-3.2 1.3,-0.3 1.7,0.3 2,0.8 2.3,1.4 2.5,1.9 2.7,2.3 2.8,2.7 2.8,3 2.7,3.2 2.6,3.4 2.4,3.5 2.2,3.5 4.1,6.9 0.4,0.1 0.5,0.2 0.5,0.4 0.5,0.5 0.6,0.6 0.5,0.7 0.5,0.7 63.6,108.3 0.7,1.4 0.5,1.2 0.2,1 -0.1,0.7 -0.4,0.3 -6.3,4.7 -0.5,0.4 -0.6,0.3 -0.6,0.3 -0.6,0.2 -0.5,0.1 -1.7,0.1 h -0.5 l -1.4,-0.2 -21.8,-6.5 -1.2,-0.6 -0.5,-0.3 -1.1,-0.9 -0.9,-1.1 -1.1,-2 v 0.1"
             id="path19" />
          <path
             class="uuid-ef405476-2045-4465-bd9b-30ec81fe908d"
             d="m 420.81,215.42 -37.8,-64.4"
             id="path20" />
          <path
             class="uuid-ef405476-2045-4465-bd9b-30ec81fe908d"
             d="m 410.01,197.02 -27,-46"
             id="path21" />
          <path
             class="uuid-ef405476-2045-4465-bd9b-30ec81fe908d"
             d="m 440.31,248.52 -56.7,-97.1"
             id="path22" />
          <path
             class="uuid-ef405476-2045-4465-bd9b-30ec81fe908d"
             d="m 396.31,152.22 0.5,-1.1 0.1,-0.8 v -0.8 l 0.2,-1.3 0.3,-1.3 0.4,-1.1 0.4,-0.8 0.4,-0.8 0.5,-0.8 0.6,-0.7 1,-1"
             id="path23" />
          <path
             class="uuid-ef405476-2045-4465-bd9b-30ec81fe908d"
             d="m 411.31,199.12 1.2,2"
             id="path24" />
          <path
             class="uuid-ef405476-2045-4465-bd9b-30ec81fe908d"
             d="m 414.91,205.32 -1.2,-2"
             id="path25" />
          <path
             class="uuid-ef405476-2045-4465-bd9b-30ec81fe908d"
             d="m 419.91,213.82 18,30.6"
             id="path26" />
        </g>
      </g>
      <g
         id="uuid-a5433950-febd-4348-94a7-5d1e2af03ad3"
         data-name="uuid-663d9b21-1a18-42ea-b43a-51a3da62a62a">
        <g
           id="g36">
          <path
             class="uuid-51a9bcd4-7315-4f9b-820f-e930b2e051db"
             d="m 371.31,138.42 0.1,0.1 0.2,0.1 v 0 l 5.7,1.7 3,5.1 1.1,-0.8"
             id="path27" />
          <path
             class="uuid-51a9bcd4-7315-4f9b-820f-e930b2e051db"
             d="m 372.21,131.62 3,5.1"
             id="path28" />
          <path
             class="uuid-51a9bcd4-7315-4f9b-820f-e930b2e051db"
             d="m 376.31,135.92 v 0"
             id="path29" />
          <path
             class="uuid-51a9bcd4-7315-4f9b-820f-e930b2e051db"
             d="m 377.31,140.32 2.8,-2.1"
             id="path30" />
          <path
             class="uuid-51a9bcd4-7315-4f9b-820f-e930b2e051db"
             d="m 382.31,146.02 -1.9,-0.6"
             id="path31" />
          <path
             class="uuid-51a9bcd4-7315-4f9b-820f-e930b2e051db"
             d="m 379.31,140.92 5.7,1.7 0.2,0.1 h 0.4 l 0.3,-0.1 0.4,-0.1 0.2,-0.1 0.4,-0.1 0.4,-0.2 0.6,-0.3 0.6,-0.3 0.4,-0.3 1.5,-1.1 -5.2,-1.6"
             id="path32" />
          <path
             class="uuid-51a9bcd4-7315-4f9b-820f-e930b2e051db"
             d="m 382.11,138.72 v 0"
             id="path33" />
          <path
             class="uuid-51a9bcd4-7315-4f9b-820f-e930b2e051db"
             d="m 390.41,140.12 -0.7,-1.3 -1.2,-2 -0.2,-0.3"
             id="path34" />
          <path
             class="uuid-51a9bcd4-7315-4f9b-820f-e930b2e051db"
             d="m 404.81,111.92 0.2,0.1 0.3,0.1 0.7,0.4 0.1,0.1 0.7,0.6 0.8,0.8 0.8,1 0.8,1 0.6,1 0.5,1 0.3,0.9 0.1,0.7"
             id="path35" />
          <path
             class="uuid-51a9bcd4-7315-4f9b-820f-e930b2e051db"
             d="m 410.41,120.32 v 0"
             id="path36" />
        </g>
        <g
           id="g42">
          <path
             class="uuid-ef405476-2045-4465-bd9b-30ec81fe908d"
             d="m 376.31,135.92 -1.1,0.8 -5.7,-1.7 -0.1,-0.1 -0.1,-0.1 -0.1,-0.1 -0.4,-0.8 -0.5,-1.2 -0.5,-1.1 -0.4,-1.1 -0.3,-1 -0.1,-0.5 -0.2,-1 -0.1,-0.9 v -1.4 l 0.1,-0.7 0.1,-0.6 0.2,-0.5 0.2,-0.6 0.3,-0.4 0.4,-0.5 0.5,-0.4 0.4,-0.3 7.6,-5.7 0.6,-0.4 0.8,-0.1 1,0.2 1.2,0.5 1.3,0.7 1.4,1 1.5,1.2 1.6,1.4 1.6,1.6 1.6,1.8 1.6,1.9 1.5,2 1.5,2 1.4,2.1 1.2,2 1.1,2 0.9,1.9 0.7,1.8 0.5,1.6 0.3,1.4"
             id="path37" />
          <path
             class="uuid-ef405476-2045-4465-bd9b-30ec81fe908d"
             d="m 373.11,140.92 -0.3,-0.5 -1.4,-2.1 v -0.5 l 0.1,-0.2 0.1,-0.1 0.2,-0.2 0.1,-0.1 0.2,-0.3 0.3,-0.3 0.2,-0.1 0.3,-0.3 0.3,-0.2"
             id="path38" />
          <path
             class="uuid-ef405476-2045-4465-bd9b-30ec81fe908d"
             d="m 372.21,131.62 1.9,0.6 3,5.1 5.7,1.7 h 0.8 l 0.4,-0.1 0.5,-0.2 0.6,-0.2 0.4,-0.2 0.6,-0.3 0.4,-0.3 0.4,-0.3 1.3,-1"
             id="path39" />
          <path
             class="uuid-ef405476-2045-4465-bd9b-30ec81fe908d"
             d="m 372.81,140.52 0.9,1.2 1,1.2 1,1.2 1,1.2 1,1.1 1,1 1,0.9 1,0.9 1,0.8 0.9,0.7 0.9,0.6 0.5,0.2 0.9,0.5 0.8,0.3 1.3,0.4 0.7,0.1 0.6,0.1 0.6,-0.1 0.6,-0.1 1.1,-0.4 0.5,-0.3 6.2,-4.7"
             id="path40" />
          <path
             class="uuid-ef405476-2045-4465-bd9b-30ec81fe908d"
             d="m 382.31,146.02 -3,-5.1 2.8,-2.1"
             id="path41" />
          <path
             class="uuid-ef405476-2045-4465-bd9b-30ec81fe908d"
             d="m 403.81,125.22 6.9,-5.2 0.1,-0.5 0.2,-2.2 -0.1,-0.5 -0.2,-0.6 -0.3,-0.7 -0.4,-0.7 -0.5,-0.7 -0.5,-0.6 -0.5,-0.5 -0.5,-0.4 -0.6,-0.2 -0.2,-0.1 -2.4,-0.4 -0.4,0.1 -6.9,5.1"
             id="path42" />
        </g>
      </g>
      <g
         id="uuid-cedb4fcf-9b9a-4baf-bce2-68a300b20366"
         data-name="uuid-b8331da6-150d-4f69-b49f-26fc0b1c49b2">
        <g
           id="g49">
          <path
             class="uuid-51a9bcd4-7315-4f9b-820f-e930b2e051db"
             d="m 459.43,272.62 c -0.29,-2.54 0.04,-5.83 -2.92,-6.12"
             id="path43" />
          <path
             class="uuid-51a9bcd4-7315-4f9b-820f-e930b2e051db"
             d="m 456.81,266.41 3,0.9 h -0.3"
             id="path44" />
          <path
             class="uuid-51a9bcd4-7315-4f9b-820f-e930b2e051db"
             d="m 459.64,273.12 c 0.04,-1.91 0.1,-3.81 0.17,-5.72"
             id="path45" />
          <path
             class="uuid-51a9bcd4-7315-4f9b-820f-e930b2e051db"
             d="M 459.41,63.32 V 27.49"
             id="path46" />
          <path
             class="uuid-51a9bcd4-7315-4f9b-820f-e930b2e051db"
             d="m 459.81,63.32 c -0.4,-11.6 -0.4,-23.6 0,-35.82"
             id="path47" />
          <path
             class="uuid-51a9bcd4-7315-4f9b-820f-e930b2e051db"
             d="m 466.01,175.72 7.5,-0.5"
             id="path48" />
          <path
             class="uuid-51a9bcd4-7315-4f9b-820f-e930b2e051db"
             d="m 492.34,267.77 c 0.07,-78.06 0.07,-156.05 0,-234.4"
             id="path49" />
        </g>
        <g
           id="g61">
          <path
             class="uuid-ef405476-2045-4465-bd9b-30ec81fe908d"
             d="m 442.61,251.92 c -0.09,6.94 -0.13,13.87 -0.15,20.81"
             id="path50" />
          <path
             class="uuid-ef405476-2045-4465-bd9b-30ec81fe908d"
             d="m 442.61,188.02 c -0.2,-53.3 -0.2,-107.3 0,-160.77"
             id="path51" />
          <path
             class="uuid-ef405476-2045-4465-bd9b-30ec81fe908d"
             d="m 447.29,272.65 c -0.04,-6.22 -0.13,-12.43 -0.28,-18.65"
             id="path52" />
          <path
             class="uuid-ef405476-2045-4465-bd9b-30ec81fe908d"
             d="m 447.11,195.62 v -0.6 0.6"
             id="path53" />
          <path
             class="uuid-ef405476-2045-4465-bd9b-30ec81fe908d"
             d="m 447.01,27.29 c 0.4,56.43 0.4,111.43 0,167.72"
             id="path54" />
          <path
             class="uuid-ef405476-2045-4465-bd9b-30ec81fe908d"
             d="m 456.81,266.51 c -0.07,2.08 -0.12,4.16 -0.17,6.24"
             id="path55" />
          <path
             class="uuid-ef405476-2045-4465-bd9b-30ec81fe908d"
             d="m 456.51,27.41 c -0.1,11.3 -0.1,23.3 -0.1,34.3 0,1 2,2 3.4,1.7"
             id="path56" />
          <path
             class="uuid-ef405476-2045-4465-bd9b-30ec81fe908d"
             d="m 466.01,175.72 v -44.2 l 7.5,2.2 v 44.2 l -7.5,-2.2"
             id="path57" />
          <path
             class="uuid-ef405476-2045-4465-bd9b-30ec81fe908d"
             d="m 487.76,270.64 c -1.35,-58.93 0.65,-117.93 -1.35,-176.92 0,-21 1,-41 0.94,-61.87"
             id="path58" />
          <path
             class="uuid-ef405476-2045-4465-bd9b-30ec81fe908d"
             d="m 520.29,251.06 c 0.11,-68.34 0.11,-135.33 0,-203.76"
             id="path59" />
          <path
             class="uuid-ef405476-2045-4465-bd9b-30ec81fe908d"
             d="m 576.47,184.64 c -0.03,-22.75 -0.04,-45.5 -0.04,-68.25"
             id="path60" />
          <path
             class="uuid-ef405476-2045-4465-bd9b-30ec81fe908d"
             d="m 555.36,224.75 c 0.04,-45.03 0.04,-90.03 0.01,-135.32"
             id="path61" />
        </g>
      </g>
      <path
         class="uuid-e0857c5c-2644-4cd2-af96-1828a65c13ea"
         d="m 411.11,113.02 c 6.7,-6.3 13.4,-12.7 20.1,-19 0.7,2.3 1.4,4.6 2.1,6.9 13.6,-4.2 27.1,-8.4 40.7,-12.6 1,3.1 1.9,6.3 2.9,9.4 -13.6,4.2 -27.1,8.4 -40.7,12.6 0.7,2.3 1.4,4.6 2.1,6.9 -9,-1.4 -18.1,-2.8 -27.2,-4.2 z"
         id="path62" />
    </g>
  </g>
  <g
     id="g64"
     transform="translate(-28.418024,-29.615001)">
    <ellipse
       class="uuid-c390d098-788b-4994-993c-27a88ed1de07"
       cx="456.20999"
       cy="150.42"
       rx="117.9"
       ry="118.2"
       id="ellipse63" />
    <ellipse
       class="uuid-f929c00c-18e2-4244-84cc-5bf41a4618b0"
       cx="456.10999"
       cy="150.22"
       rx="115.4"
       ry="115.9"
       id="ellipse64" />
  </g>
  <g
     id="g111"
     transform="translate(-28.418024,-29.615001)">
    <g
       class="uuid-88b64c91-9bf7-4dde-af8d-2128e526ad87"
       clip-path="url(#uuid-88a1426c-30ed-4bfb-9795-b894ac7f0df1)"
       id="g107">
      <g
         id="g106">
        <g
           id="g105">
          <path
             class="uuid-a0f6a412-7d73-4fdd-9f9b-2f375702c8cc"
             d="m 271.8,82.19 c -16.84,-4.64 -31.35,-16.15 -40.83,-30.63 -2.06,-2.16 -4.23,-4.22 -6.46,-6.2 -2.81,-1.9 -5.68,-3.69 -8.6,-5.41 v 217.79 c 1.71,-0.89 3.39,-1.83 5.03,-2.84 4.6,-4.2 8.98,-8.64 13.46,-12.98 3.33,-3.22 6.74,-6.34 10.35,-9.24 8.06,-6.49 16.23,-13.35 25.33,-18.44 1.51,-0.85 3.1,-1.64 4.72,-2.39 2.19,-22.72 2.81,-45.44 3.91,-68.24 1.02,-19.83 1.89,-39.72 0.9,-59.57 -2.6,-0.42 -5.2,-1.04 -7.81,-1.85 z"
             id="path64" />
          <path
             class="uuid-a0f6a412-7d73-4fdd-9f9b-2f375702c8cc"
             d="m 153.67,20.62 h -0.12 c -10.47,5.77 -22.47,9.05 -34.13,9.08 -9.3,0.02 -18.58,0.46 -27.82,1.35 -9,1.57 -17.89,3.69 -26.54,6.6 -2.44,1.29 -4.83,2.67 -7.16,4.16 -4.94,4.5 -9.53,9.37 -13.86,14.47 -7.59,10.73 -14.27,22.09 -19.93,33.94 -3.54,9.86 -6.14,20.03 -8.02,30.34 -1.07,12.35 -1.06,24.74 0.02,37.09 2.56,14.07 6.45,27.84 11.51,41.22 6.28,13.51 13.64,26.56 22.19,38.76 4.16,4.85 8.58,9.45 13.31,13.73 5.52,3.65 11.27,6.99 16.95,10.38 3.65,0.49 7.31,0.98 10.96,1.47 7.83,1.78 15.4,4.72 22.61,8.47 3.8,0.51 7.59,1.02 11.39,1.53 1.12,0.2 2.24,0.38 3.37,0.57 10.93,1.12 21.89,1.77 32.86,2.37 4.68,-2.59 9.58,-4.63 14.56,-5.94 0.91,-0.24 1.81,-0.48 2.71,-0.73 l 0.09,-239.34 c -8.84,-1.36 -17.28,-4.8 -24.94,-9.5 v 0 z"
             id="path65" />
          <path
             class="uuid-98bb1fec-3542-4c89-a448-ab59d444c304"
             d="m 197.02,31.59 0.09,232.56 c 0.14,-0.04 0.27,-0.08 0.4,-0.13 V 31.73 c -0.16,-0.05 -0.33,-0.09 -0.49,-0.14 z"
             id="path66" />
          <path
             class="uuid-cca39122-d9c0-4c36-b199-78142db6a900"
             d="m 150.02,257.31 h 6 l 2.4,-1.4 1.5,-1.5 0.4,-109 1,-0.9 5.1,-0.2 0.2,110.2 -0.2,1.8 -0.8,1.5 -1.6,1.4 -3.9,0.3 h -4.2 l -22.3,-1.5 -4.2,-0.4 -2,-0.7 -0.9,-1.1 z"
             id="path67" />
          <path
             class="uuid-7ff65d48-307b-4333-bdff-10877653d451"
             d="m 135.32,126.62 1.4,0.1 v 4.8 l -0.3,-0.1 -0.2,-4.3 z"
             id="path68" />
          <path
             class="uuid-7ff65d48-307b-4333-bdff-10877653d451"
             d="m 136.72,140.12 -0.2,0.1 v -4.8 h 0.2 z"
             id="path69" />
          <path
             class="uuid-c9c5f0f3-1128-4a39-8ee7-f9ac0e6fe0a1"
             d="m 164.02,131.52 -0.2,-1.5 0.2,0.1 z"
             id="path70" />
          <path
             class="uuid-c9c5f0f3-1128-4a39-8ee7-f9ac0e6fe0a1"
             d="m 136.72,131.82 -5.1,-0.2 2.6,-0.2 h 2.3 l 0.3,0.1 z"
             id="path71" />
          <path
             class="uuid-c9c5f0f3-1128-4a39-8ee7-f9ac0e6fe0a1"
             d="m 143.02,132.42 4.5,-0.2 0.8,0.2 z"
             id="path72" />
          <path
             class="uuid-c9c5f0f3-1128-4a39-8ee7-f9ac0e6fe0a1"
             d="m 164.32,142.02 -0.2,0.1 0.1,-7.9 0.2,0.1 z"
             id="path73" />
          <path
             class="uuid-c9c5f0f3-1128-4a39-8ee7-f9ac0e6fe0a1"
             d="m 166.52,254.62 -0.2,-110.2 0.3,-0.2 z"
             id="path74" />
          <path
             class="uuid-98bb1fec-3542-4c89-a448-ab59d444c304"
             d="m 215.42,39.65 0.09,218.31 v 0 c 0.14,-0.07 0.27,-0.15 0.41,-0.22 V 39.94 c -0.17,-0.1 -0.33,-0.2 -0.49,-0.3 v 0 z"
             id="path75" />
          <g
             id="uuid-ad3c0287-f6c7-481b-8b9e-b4398516c2b4"
             data-name="uuid-124a6a2b-4659-4690-935b-cc80bce26933">
            <g
               id="g78">
              <path
                 class="uuid-607203b5-7667-4d80-b0aa-777c8a0711de"
                 d="m 140.92,151.52 -2,-0.1 -1.9,-0.7 -1.8,-1.2 -1.7,-1.6 -0.6,-0.8"
                 id="path76" />
              <path
                 class="uuid-607203b5-7667-4d80-b0aa-777c8a0711de"
                 d="m 142.82,151.12 -1.8,-0.6 -1.8,-1.2 -0.6,-0.5"
                 id="path77" />
              <path
                 class="uuid-607203b5-7667-4d80-b0aa-777c8a0711de"
                 d="m 154.02,142.22 3.1,0.2 1.7,0.1 h 1.4 l 3.9,-0.2"
                 id="path78" />
            </g>
            <g
               id="g80">
              <path
                 class="uuid-5481da7d-176a-4387-8bd1-7cd51f598063"
                 d="m 128.02,140.62 -0.6,0.2 -0.5,0.2 -0.7,0.5 -0.4,0.4 -0.6,1.2 -0.1,0.4 v 0.7 l -0.1,0.4 -0.2,107.6 0.1,1.2 0.4,1.2 0.7,1 0.9,0.9 1,0.7 1.2,0.4 h 0.1 l 1.1,0.1 27,1.8 5.2,-0.3 0.9,-0.1 0.9,-0.5 0.8,-0.8 0.6,-1.1 0.4,-1.3 0.1,-1.4 0.1,-108.8 -0.1,-0.7 -0.2,-0.7 -0.3,-0.6 -0.4,-0.5 -0.4,-0.3 -0.5,-0.1 -0.6,-0.1 v -7 l -0.2,-3.5 -0.5,-3.4 -0.9,-3.3 -1.2,-3.1 -1.5,-2.8 -1.8,-2.4 -2,-1.9 -2.1,-1.5 -2.2,-1 -2.3,-0.4 -5,0.2 -1.6,0.3 -0.5,0.1 -1.6,0.6 -1.5,0.9 -0.4,0.3 -1.4,1.1 -1.3,1.3 -1.2,1.6 -0.2,0.3"
                 id="path79" />
              <path
                 class="uuid-5481da7d-176a-4387-8bd1-7cd51f598063"
                 d="m 140.92,151.52 1.9,-0.4 1.8,-0.9 1.7,-1.4 0.9,-1 1.7,-2 0.9,-1 0.8,-0.8 0.6,-0.5 0.6,-0.4 0.6,-0.3 0.6,-0.2 0.9,-0.2"
                 id="path80" />
            </g>
          </g>
          <g
             id="uuid-50ae10ec-460c-4509-88c3-e237a6ca2b6a"
             data-name="uuid-703450c3-bd83-453e-a7ae-ba3311513d5f">
            <g
               id="g87">
              <path
                 class="uuid-607203b5-7667-4d80-b0aa-777c8a0711de"
                 d="m 126.62,134.72 h 0.6 l 7.1,0.5 v 5.2 l 2.4,0.2"
                 id="path81" />
              <path
                 class="uuid-607203b5-7667-4d80-b0aa-777c8a0711de"
                 d="m 128.62,134.52 8.9,0.6 -3.1,0.2"
                 id="path82" />
              <path
                 class="uuid-607203b5-7667-4d80-b0aa-777c8a0711de"
                 d="m 134.32,140.52 2.4,-0.1"
                 id="path83" />
              <path
                 class="uuid-607203b5-7667-4d80-b0aa-777c8a0711de"
                 d="m 134.32,131.72 v -5.1"
                 id="path84" />
              <path
                 class="uuid-607203b5-7667-4d80-b0aa-777c8a0711de"
                 d="m 137.52,135.12 v 0.3"
                 id="path85" />
              <path
                 class="uuid-607203b5-7667-4d80-b0aa-777c8a0711de"
                 d="m 136.82,135.52 7,0.5 h 3.8 l 1.2,-0.1 -8.9,-0.6"
                 id="path86" />
              <path
                 class="uuid-607203b5-7667-4d80-b0aa-777c8a0711de"
                 d="m 148.82,135.92 0.1,-1.3 -0.1,-2 v -0.3"
                 id="path87" />
            </g>
            <g
               id="g93">
              <path
                 class="uuid-5481da7d-176a-4387-8bd1-7cd51f598063"
                 d="m 128.62,131.32 -0.1,1.9 0.1,1.3 -1.1,0.1 h -0.4 l -0.4,0.1 h -0.1 l 0.1,1 0.2,1.3 0.3,1.3 0.4,1.3 0.5,1.2 0.5,1.2 0.6,1.1 0.7,1 0.2,0.2 0.7,0.9 0.8,0.8 0.8,0.7 0.3,0.2 0.9,0.6 0.9,0.5"
                 id="path88" />
              <path
                 class="uuid-5481da7d-176a-4387-8bd1-7cd51f598063"
                 d="m 136.82,131.62 -2.4,0.1 -7.2,-0.5 h -0.5 l 0.1,-1 0.2,-1.3 0.3,-1.3 0.4,-1.2 0.5,-1.2 0.5,-1.1 0.1,-0.2 0.6,-1 0.7,-0.9 0.7,-0.8 1.1,-0.9 0.9,-0.6 0.9,-0.5 0.3,-0.2 0.9,-0.3 0.9,-0.2 0.4,-0.1 1,-0.1 5.4,-0.3 1.3,-0.1 1.4,0.2 1.3,0.5 1.3,0.7 1.2,1 1.1,1.2 1,1.4 0.9,1.6 0.7,1.8 0.6,1.9 0.4,2 0.2,2 0.1,2 -0.1,2 -0.3,2 -0.5,1.9 -0.7,1.7 -0.5,1"
                 id="path89" />
              <path
                 class="uuid-5481da7d-176a-4387-8bd1-7cd51f598063"
                 d="m 135.82,148.52 -1.3,-0.5"
                 id="path90" />
              <path
                 class="uuid-5481da7d-176a-4387-8bd1-7cd51f598063"
                 d="m 134.32,126.52 2.4,0.2 v 5.2 l 7,0.5 h 3.6 l 1.4,-0.1"
                 id="path91" />
              <path
                 class="uuid-5481da7d-176a-4387-8bd1-7cd51f598063"
                 d="m 147.22,147.92 -1.2,0.4 -1.3,0.2 -6.5,0.3 -1.4,-0.1 -0.9,-0.2"
                 id="path92" />
              <path
                 class="uuid-5481da7d-176a-4387-8bd1-7cd51f598063"
                 d="m 136.72,140.62 v -5.2 l 3.1,-0.2"
                 id="path93" />
            </g>
          </g>
          <g
             id="uuid-254aeb4f-c9df-4c3a-a970-91fe9e505572"
             data-name="uuid-50e19891-3ba0-473a-8ea3-922dbcf674e7">
            <g
               id="g98">
              <path
                 class="uuid-607203b5-7667-4d80-b0aa-777c8a0711de"
                 d="m 134.02,270.91 1.6,0.1 -1.4,-0.1"
                 id="path94" />
              <path
                 class="uuid-607203b5-7667-4d80-b0aa-777c8a0711de"
                 d="m 137.64,271.92 c 0,-1.15 -0.99,-1.11 -2.02,-1.02 0.69,0.06 1.43,0.15 2.1,0.2"
                 id="path95" />
              <path
                 class="uuid-607203b5-7667-4d80-b0aa-777c8a0711de"
                 d="m 137.72,103.82 c -0.26,-24.49 -0.3,-48.99 -0.09,-73.48"
                 id="path96" />
              <path
                 class="uuid-607203b5-7667-4d80-b0aa-777c8a0711de"
                 d="m 137.92,103.82 c 0.44,-24.49 0.49,-48.99 0.14,-73.48"
                 id="path97" />
              <path
                 class="uuid-607203b5-7667-4d80-b0aa-777c8a0711de"
                 d="m 178.33,266.55 c 0.09,-77.84 0.09,-155.83 0,-233.69"
                 id="path98" />
            </g>
            <g
               id="g104">
              <path
                 class="uuid-5481da7d-176a-4387-8bd1-7cd51f598063"
                 d="m 197.25,260.82 c 0.17,-75.12 0.17,-151.11 0,-226.33"
                 id="path99" />
              <path
                 class="uuid-5481da7d-176a-4387-8bd1-7cd51f598063"
                 d="m 172.78,267.82 c -0.36,-79.11 -0.36,-157.1 -0.02,-235.93"
                 id="path100" />
              <path
                 class="uuid-5481da7d-176a-4387-8bd1-7cd51f598063"
                 d="m 116.71,269.72 c -0.3,-79.02 -0.3,-158.01 -0.04,-237.33"
                 id="path101" />
              <path
                 class="uuid-5481da7d-176a-4387-8bd1-7cd51f598063"
                 d="m 122.22,269.73 c 0.19,-80.02 0.19,-159.01 0.02,-238.52"
                 id="path102" />
              <path
                 class="uuid-5481da7d-176a-4387-8bd1-7cd51f598063"
                 d="m 134.11,31.74 c 0.31,23.98 -0.69,46.98 0.31,70.98 0,1 3,1 3.5,1.1"
                 id="path103" />
              <path
                 class="uuid-5481da7d-176a-4387-8bd1-7cd51f598063"
                 d="m 215.57,43.27 c -0.15,70.44 -0.15,141.43 0,211.46"
                 id="path104" />
            </g>
          </g>
        </g>
        <path
           class="uuid-9998b556-a384-4d5c-9a11-6750b5594d34"
           d="m 109.92,104.92 c 3.9,-8.3 7.7,-16.5 11.6,-24.8 l 2.6,7.9 c 2.1,-1.4 5.9,-3.6 11,-4.1 8.8,-0.9 15.4,3.9 18.3,5.9 8.2,5.9 11.3,13.9 13.9,20.2 1.2,3 4.5,11.9 4.5,24.2 0.1,8.3 0.2,25.4 -11.6,38.3 -3.3,3.6 -9.5,10.4 -18.9,10.8 -11.3,0.5 -19.6,-8.5 -21.3,-10.4 -2.6,-2.9 -4.4,-5.9 -6.1,-9.7 -3,-6.5 -7.1,-18 -7.5,-34.6 2.6,0.4 5.2,0.8 7.9,1.2 -0.1,3.1 0,7.3 0.9,12.1 0.5,2.7 1.5,7.5 4.3,13 1.9,3.6 3.7,7.1 7.5,10.2 1.2,1 9.6,7.6 18.6,5 3.5,-1 5.8,-3 7.3,-4.4 3.9,-3.4 5.7,-7.2 7.1,-10.5 3.1,-6.9 3.6,-12.8 3.8,-16.1 0.1,-1.7 0.5,-8.1 -1.4,-16.4 -1,-4.6 -1.9,-8.5 -4.5,-12.8 -0.9,-1.6 -9.3,-15.1 -21.3,-14.3 -3.9,0.3 -7,2 -8.8,3.3 0.9,2.7 1.8,5.4 2.7,8.1 -7,-0.6 -13.8,-1.3 -20.6,-2.1 z"
           id="path105" />
      </g>
    </g>
    <g
       id="g108">
      <ellipse
         class="uuid-c1e6c34a-71e5-4607-80d5-c5a645758067"
         cx="148.82001"
         cy="150.22"
         rx="119.8"
         ry="120"
         id="ellipse107" />
      <ellipse
         class="uuid-7acd6aa0-6fc3-48b4-80b6-5317cabb96a7"
         cx="148.72"
         cy="150.42"
         rx="117.2"
         ry="117.5"
         id="ellipse108" />
    </g>
    <g
       id="g110">
      <path
         class="uuid-d64af4f2-9dfd-4d6a-b51a-10dad9c73827"
         d="m 35.42,120.02 c 19.3,0.4 38.7,0.8 58,1.2 3.6,0.6 30,5.5 29.7,9.9 -0.3,4.5 -26.9,6.2 -30.6,6.5 -19.8,-0.4 -39.6,-0.9 -59.4,-1.3"
         id="path108" />
      <path
         class="uuid-134d7f19-cd27-46f8-bc90-cb860d628938"
         d="m 107.82,125.02 c 0.9,3 2.6,4.3 3.3,4.8 1.4,0.9 3,1.1 6.1,1.3 2.4,0.2 4.5,0.1 5.9,0.1"
         id="path109" />
      <path
         class="uuid-134d7f19-cd27-46f8-bc90-cb860d628938"
         d="m 107.12,136.82 c 1.1,-3 2.8,-4.2 3.6,-4.6 1.5,-0.8 3.1,-0.9 6.2,-0.9 2.4,-0.1 4.5,0.1 5.9,0.3"
         id="path110" />
    </g>
  </g>
</svg>
