<?xml version="1.0" encoding="utf-8"?>
<!-- Generator: Adobe Illustrator 27.7.0, SVG Export Plug-In . SVG Version: 6.00 Build 0)  -->
<svg version="1.1" id="Ebene_1" xmlns="http://www.w3.org/2000/svg" xmlns:xlink="http://www.w3.org/1999/xlink" x="0px" y="0px"
	 viewBox="0 0 283.47 203.87" style="enable-background:new 0 0 283.47 203.87;" width="300" xml:space="preserve">
<style type="text/css">
	
		.st0{fill-rule:evenodd;clip-rule:evenodd;fill:#DBDBDB;stroke:#000000;stroke-width:0.6408;stroke-linecap:round;stroke-linejoin:round;stroke-miterlimit:10;}
	.st1{fill:none;stroke:#BFBFBF;stroke-width:0.6408;stroke-linecap:round;stroke-linejoin:round;stroke-miterlimit:10;}
	.st2{fill:none;stroke:#BFBFBF;stroke-width:0.5614;stroke-linecap:round;stroke-linejoin:round;stroke-miterlimit:10;}
	.st3{fill:none;stroke:#000000;stroke-width:0.6408;stroke-linecap:round;stroke-linejoin:round;stroke-miterlimit:10;}
	.st4{fill:none;stroke:#000000;stroke-width:0.5614;stroke-linecap:round;stroke-linejoin:round;stroke-miterlimit:10;}
	.st5{font-family:'Roboto-Regular';}
	.st6{font-size:36px;}
	.st7{fill:none;stroke:#1D1D1B;stroke-miterlimit:10;}
	.st8{fill:none;stroke:#1D1D1B;stroke-width:0.75;stroke-miterlimit:10;}
</style>
<g>
	<path class="st0" d="M34.56,102.91l3.2,1.84l-1.7-0.28l-22.99-9.3l-0.03-0.96L34.56,102.91z M43.35,106.46l-2.18,0.06l-2.55-0.99
		l-0.85-0.77l1.39-0.37L43.35,106.46z M207.8,123.33l0.03,7.34l-0.51,4.14l-1.02-0.14l-5.13-2.15l-1.16-0.03l-29.69,17.41
		l-0.88,1.19l-0.62,6.01l-0.51,10.89l8.36,3.43l-12.93,5.61h-3.49L42.19,129.96l0.03-1.02l116.53,46.58l1.53,0.17l1.02-8.73
		l1.36-16.05l2.01-3.09l8.22-6.58l13.3-8.68l7.14-4.11l13.24-5.59L207.8,123.33z M249.73,168.49l-0.57,1.47l-29.09,17.44l-1.67,0.57
		l1.16-15.91l0.37-1.67l30.2-18l0.6,0.03L249.73,168.49z M249.73,160.84l-0.68,1.84l-28.18,16.9l-0.94,0.23l0.14-6.21l0.51-2.55
		l29.74-17.49L249.73,160.84z"/>
	<path class="st1" d="M28.18,121.85l0.34-0.06l6.69-2.64l6.78-3.26 M27.59,120.49l9.16,3.66l1.81-22.14l0.09-0.6l0.2-0.6l0.28-0.57
		l0.31-0.51l0.37-0.37l-9.16-3.66 M28.52,121.8l9.16,3.66 M29.4,98.35l9.16,3.66 M36.75,124.15v0.51l0.11,0.43l0.2,0.28l0.28,0.14
		 M81.12,75.01l-0.31,0.06l-6.69,2.67l-6.78,3.2l-6.83,3.8l-6.89,4.34l-6.66,4.73l-0.23,0.14l-6.92,5.42 M71.82,81.9l0.77-9.19
		l-0.03-0.51l-0.09-0.43l-0.23-0.28l-0.28-0.14 M72.59,72.72l9.16,3.66 M80.81,75.07l-9.19-3.66"/>
	<polyline class="st2" points="81.66,77.28 81.74,76.37 81.71,75.86 81.63,75.44 81.4,75.16 81.12,75.01 71.96,71.36 71.62,71.41 
		64.96,74.08 58.18,77.31 51.35,81.08 44.46,85.42 37.57,90.32 30.65,95.71 30.28,96.11 29.97,96.59 29.69,97.16 29.49,97.75 
		29.4,98.35 27.59,120.49 27.59,121 27.7,121.43 27.9,121.71 28.18,121.85 37.34,125.51 37.68,125.45 41.34,124.01 	"/>
	<path class="st1" d="M41.2,126.02l-3.88,1.53l-0.65,0.09 M35.44,124.91l5.87,2.35 M37.31,127.55l4.03,1.59 M43.3,105.18l-6.04-2.41
		 M39.78,97.53l6.01,2.41 M43.47,105.24l-1.76,21.6 M44.06,102.88l-0.4,1.19 M43.67,104.1l-0.09,0.54 M45.96,100.05l-0.71,0.71
		l-0.26,0.4 M44.6,101.75l-0.23,0.48 M45.99,100.02l6.95-5.44 M53.14,94.44l6.8-4.82l6.92-4.37 M66.89,85.22l6.89-3.8 M73.8,81.39
		l6.8-3.23 M81.09,77.96l6.29-2.5l0.68-0.09 M81.83,72.89l0.57,0.26l0.34,0.48l-1.59-0.65 M82.96,76.77l0.09-1.16l-0.03-1.05
		l-0.2-0.85l-0.09-0.09l4.11,1.62 M83.05,75.61l1.42,0.54"/>
	<polyline class="st2" points="88.07,75.38 81.83,72.89 81.15,72.97 74.4,75.67 67.57,78.93 60.68,82.75 53.73,87.15 46.76,92.08 
		39.78,97.53 39.04,98.29 38.36,99.25 37.82,100.39 37.43,101.61 37.26,102.77 35.44,124.91 35.44,125.96 35.67,126.81 36.1,127.38 
		36.66,127.64 41.74,129.65 	"/>
	<path class="st1" d="M168.19,180.06l-0.57-0.23l-0.4-0.6l-0.23-0.82l-0.03-1.05l-6.21-2.5 M168.87,179.98l-6.24-2.47l6.75-2.69
		l6.8-3.23 M162.63,177.51l-0.68,0.09 M162.55,152.73l6.24,2.5l0.2-1.19l0.37-1.19l0.57-1.13l0.65-0.99l0.74-0.74l-6.24-2.5
		 M166.97,177.37l1.81-22.14 M171.31,149.98l6.97-5.47l6.97-4.93l6.95-4.37l6.89-3.83l6.86-3.26l6.75-2.69l0.68-0.09 M214.58,128.03
		l-6.21-2.47l-0.77,9.16 M208.37,125.57l-0.03-1.05l-0.23-0.85l-0.4-0.57l-0.57-0.26 M206.47,122.93l6.24,2.5"/>
	<path class="st2" d="M160.99,176.77l0.4,0.54 M160.9,176.52l-0.14-0.6 M161.39,177.34l0.57,0.26l6.24,2.47l0.68-0.09l6.75-2.67
		l6.86-3.29 M160.76,174.87v0.62 M213.84,137.25l0.74-9.21v-1.05l-0.23-0.82l-0.4-0.57l-0.57-0.26l-6.24-2.5l-0.68,0.09l-6.75,2.69
		l-6.83,3.26l-6.92,3.83l-6.95,4.39l-6.97,4.93l-6.97,5.44l-0.74,0.77l-0.65,0.96l-0.54,1.13l-0.4,1.22l-0.2,1.16l-1.76,21.58"/>
	<path class="st3" d="M161.95,177.59l-0.57-0.26l-0.4-0.57l-0.23-0.85v-1.05L41.68,127.41 M43.47,105.24l119.08,47.49l-1.79,22.14
		 M45.99,100.02l119.08,47.46l-0.74,0.77l-0.65,0.96l-0.54,1.13l-0.4,1.22l-0.2,1.16 M87.39,75.47l119.08,47.46l-6.75,2.69
		l-6.83,3.26l-6.92,3.83l-6.95,4.39l-6.97,4.93l-6.97,5.44 M206.47,122.93l0.68-0.09"/>
	<polyline class="st4" points="176.19,171.58 169.38,174.81 162.63,177.51 161.95,177.59 42.87,130.1 42.3,129.85 41.91,129.28 
		41.68,128.46 41.68,127.41 43.47,105.24 43.67,104.07 44.06,102.88 44.6,101.75 45.25,100.76 45.99,100.02 52.96,94.55 
		59.94,89.62 66.89,85.22 73.8,81.39 80.64,78.13 87.39,75.47 88.07,75.38 207.15,122.84 207.71,123.1 208.11,123.67 208.34,124.52 
		208.37,125.57 207.6,134.72 	"/>
	<path class="st3" d="M219.08,187.06l0.54-6.78 M249.68,162.48l-29.43,17.44"/>
	<path class="st4" d="M219.71,186.69l29.43-17.47l0.54-6.75 M249.45,162.4l-8-3.2"/>
	<path class="st3" d="M16.13,85.67l31.33,12.5 M60.85,88.45L31.3,76.66"/>
	<polyline class="st4" points="42.73,107.02 13.58,95.4 12.99,94.75 12.68,93.81 12.65,93.7 12.62,92.31 12.87,90.75 13.44,89.13 
		14.21,87.69 15.14,86.47 16.13,85.67 31.3,76.66 32.27,76.32 33.09,76.49 61.73,87.89 	"/>
	<path class="st3" d="M218.54,188.23l-0.11-0.11l-0.06-0.17v-0.23l-50.18-20.02 M250.95,152.25l-0.14-0.03l-0.14,0.06l-30.37,18
		l-50.21-20.02 M169.52,151.37l50.18,20.02l-1.33,16.33 M200.46,132.26l50.21,20.02 M219.71,186.69l29.43-17.47l0.51-6.29
		 M220.3,170.28l-0.17,0.14l-0.14,0.2l-0.14,0.26l-0.09,0.26l-0.06,0.26 M249.68,162.48l0.74-9.07"/>
	<path class="st4" d="M219.42,187.86l-0.6,0.34l-0.14,0.06l-0.14-0.03l-50.18-20.02 M219.62,187.72l29.57-17.52l0.17-0.14l0.14-0.2
		l0.14-0.26l0.09-0.26l0.06-0.26l1.33-16.33v-0.23l-0.06-0.17l-0.11-0.11l-50.18-20.02 M219.08,187.06l0.51-6.35 M250.41,153.41
		l-30.05,17.81l-0.74,9.07"/>
</g>
<text transform="matrix(1 0 0 1 166.969 80.7129)" class="st5 st6">USB-A</text>
<line class="st7" x1="227.6" y1="152.3" x2="209.44" y2="84.93"/>
<text transform="matrix(1 0 0 1 42.6428 41.2467)" class="st5 st6">USB-C</text>
<line class="st7" x1="35.38" y1="85.26" x2="77.99" y2="45.62"/>
<rect x="0.38" y="0.38" class="st8" width="282.72" height="203.12"/>
</svg>
