<svg xmlns="http://www.w3.org/2000/svg" viewBox="0 0 22.4 26.1" style="enable-background:new 0 0 22.4 26.1" xml:space="preserve">
    <path d="M19.8 25.4H2.6c-1.1 0-2-.9-2-2V2.6c0-1.1.9-2 2-2h17.2c1.1 0 2 .9 2 2v20.8c0 1.1-.9 2-2 2z" style="fill:none;stroke:#000;stroke-width:1.25;stroke-miterlimit:10"/>
    <path d="M3.2 14.8H6v8.8H3.2zm12.9-5.5h2.8v14.3h-2.8zm-4.3 3.4h2.8v11h-2.8zm-4.3-1.1h2.8v12H7.5z"/>
    <path d="m4.7 11.9 4.2-4.3 4.3 2 4.9-5.5" style="fill:none;stroke:#000;stroke-miterlimit:10"/>
    <path d="m16.1 2.7 3.6 3.2-.3-3.4-3.3.2z"/>
</svg>
