<svg version="1.1" id="Retry" xmlns="http://www.w3.org/2000/svg" x="0" y="0" viewBox="0 0 83.2 31.2" style="enable-background:new 0 0 83.2 31.2" xml:space="preserve">
    <style>
        .st0,.st1{fill:none;stroke:#020203;stroke-width:1.75;stroke-miterlimit:10}.st1{stroke-width:2;stroke-linecap:round}
    </style>
    <path d="M3.9 15.8c0 7.6 6.2 13.8 13.8 13.8 3.7 0 7-1.4 9.5-3.8L24.4 23c-1.7 1.6-4.1 2.6-6.7 2.6-5.4 0-9.8-4.4-9.8-9.8h4.8l-6.4-7-6.3 7h3.9zM31.3 16.6c0-7.6-6.2-13.8-13.8-13.8-3.7 0-7 1.4-9.5 3.8l2.8 2.8c1.7-1.6 4.1-2.6 6.7-2.6 5.4 0 9.8 4.4 9.8 9.8h-4.8l6.4 7 6.3-7h-3.9z"/>
    <path class="st0" d="M66.5 2.7c.1 0 .2 0 .3.2l15.5 26.8c.1.1.1.3 0 .4s-.1.2-.3.2H51c-.2 0-.3-.1-.3-.2-.1-.1-.1-.2 0-.4L66.1 2.8c.2-.1.3-.1.4-.1"/>
    <circle class="st0" cx="56.9" cy="8.8" r="4.3"/>
    <path class="st1" d="M56.9 10.9V6.8M54.8 8.8H59"/>
    <path d="M74.9 23.1s-3.9 4.7-8.7 4.7-8.7-4.7-8.7-4.7 3.9-4.7 8.7-4.7 8.7 4.7 8.7 4.7z" style="fill:none;stroke:#020203;stroke-width:1.5;stroke-linecap:round;stroke-linejoin:round;stroke-miterlimit:10"/>
    <path d="M66.3 19.5c-1.9 0-3.5 1.6-3.5 3.5s1.6 3.5 3.5 3.5 3.5-1.6 3.5-3.5-1.5-3.5-3.5-3.5zm-1 3.5c-.7 0-1.2-.5-1.2-1.2s.5-1.2 1.2-1.2 1.2.5 1.2 1.2c-.1.7-.6 1.2-1.2 1.2z"/>
    <path class="st0" d="M35.8 30.3 47.3.3"/>
</svg>
