<svg version="1.1" id="Ebene_1" xmlns="http://www.w3.org/2000/svg" x="0" y="0" viewBox="0 0 28 28" style="enable-background:new 0 0 28 28" xml:space="preserve"><style>.st1,.st3{stroke:#000;stroke-width:1.25;stroke-miterlimit:10}.st3{fill:none;stroke:#fff}</style><path d="M26.8 27.3H1.1c-.3 0-.5-.2-.5-.5V1.1c0-.3.2-.5.5-.5H20c.1 0 .3.1.4.1l6.8 6.7c.1.1.2.2.2.4v19c-.1.3-.3.5-.6.5z" style="fill:none;stroke:#000;stroke-width:1.25;stroke-miterlimit:10"/><path class="st1" d="M18.5 11H5.1c-.5 0-.9-.4-.9-.9V4.8c0-.5.4-.9.9-.9h13.4c.5 0 .9.4.9.9v5.4c0 .4-.4.8-.9.8z"/><path style="fill:#fff" d="M13.7 4.4h3.4v6h-3.4z"/><path class="st1" d="M22.7 24.4H4.6c-.2 0-.4-.2-.4-.4v-8.8c0-.2.2-.4.4-.4h18.1c.2 0 .4.2.4.4V24c0 .2-.2.4-.4.4z"/><path class="st3" d="M21.6 22.3H5.5M21.6 19.3H5.5M21.6 16.3H5.5"/></svg>