<svg xmlns="http://www.w3.org/2000/svg" viewBox="0 0 45.9 27" style="enable-background:new 0 0 45.9 27" xml:space="preserve">
    <path d="m13.3 12.3 7.5 12c.7 1-1.2 2.1-1.2 2.1-.3.2-2.2 1-2.6.2l-7.5-12"/>
    <path d="M43.3 26.3H26.1c-1.1 0-2-.9-2-2V3.5c0-1.1.9-2 2-2h17.2c1.1 0 2 .9 2 2v20.8c0 1.1-.9 2-2 2z" style="fill:none;stroke:#000;stroke-width:1.25;stroke-miterlimit:10"/>
    <path d="M26.7 15.7h2.8v8.8h-2.8zM39.6 10.2h2.8v14.3h-2.8zM35.3 13.6h2.8v11h-2.8zM31 12.5h2.8v12H31z"/>
    <path d="m28.2 12.8 4.2-4.3 4.3 2L41.6 5" style="fill:none;stroke:#000;stroke-miterlimit:10"/>
    <path d="m39.6 3.6 3.6 3.2-.3-3.4-3.3.2z"/>
    <circle cx="8" cy="8" r="7.2" style="fill:none;stroke:#000;stroke-width:1.6;stroke-miterlimit:10"/>
</svg>
