<svg xmlns="http://www.w3.org/2000/svg" viewBox="0 0 47 59" style="enable-background:new 0 0 47 59" xml:space="preserve">
    <text transform="translate(25.785 46.224)" style="font-size:12px;font-family:&quot;Roboto-Regular&quot;">kg</text>
    <path d="m38.5 1.5 7 7.1v48.9h-44v-56h37m0-1.5h-37C.7 0 0 .7 0 1.5v56c0 .8.7 1.5 1.5 1.5h44c.8 0 1.5-.7 1.5-1.5V8.6c0-.4-.2-.8-.4-1.1l-7-7.1c-.3-.2-.7-.4-1.1-.4z"/>
    <path d="M46.5 10.8h-10V.8h2.9l7.1 7.1z"/>
    <path d="M15.1 43.4V29.6c0-1.7-1.3-3-2.9-3-1.6 0-2.9 1.3-2.9 3v13.8c-1.1.9-1.7 2.2-1.7 3.5 0 2.5 2.1 4.6 4.6 4.6 2.5 0 4.6-2.1 4.6-4.6 0-1.4-.6-2.6-1.7-3.5z" style="fill:none;stroke:#000;stroke-miterlimit:10"/>
    <path d="M13 44.5v-8c0-.5-.4-.8-.8-.8-.5 0-.8.4-.8.8v8c-.9.3-1.6 1.2-1.6 2.3 0 1.3 1.1 2.4 2.4 2.4 1.3 0 2.4-1.1 2.4-2.4 0-1.1-.7-2-1.6-2.3z" style="stroke:#000;stroke-miterlimit:10"/>
    <path d="M22.8 20.5c-5.8 0-10.4-5.8-10.6-6.1-.1-.1-.1-.3 0-.4.2-.2 4.8-6 10.6-6s10.4 5.8 10.6 6.1c.1.1.1.3 0 .4-.2.2-4.8 6-10.6 6z" style="fill:none;stroke:#000;stroke-width:1.1;stroke-linecap:square;stroke-miterlimit:10"/>
    <ellipse cx="22.8" cy="14.1" rx="4.2" ry="4.4"/>
    <path d="M31.8 50.8h7c.7 0 1.3-.6 1.3-1.3v-13c0-1.2-1-2.1-2.1-2.1h-2.1c-.5 0-1-.3-1-1.7s.4-1.4 1.1-1.4 1.2-.7 1.2-1.4-.4-3.2-5.1-3.2H32c-4.8 0-5.1 2.5-5.1 3.2 0 .7.5 1.4 1.2 1.4s1.1 0 1.1 1.4-.5 1.7-1 1.7h-2.1c-1.2 0-2.1 1-2.1 2.1v13c0 .7.6 1.3 1.3 1.3h7" style="fill:none;stroke:#000;stroke-width:1.25;stroke-miterlimit:10"/>
</svg>
