<svg xmlns="http://www.w3.org/2000/svg" viewBox="0 0 47 59" style="enable-background:new 0 0 47 59" xml:space="preserve">
    <path d="m38.4 1.5 7 7.1v48.9h-44v-56h37m0-1.5h-37C.6 0-.1.7-.1 1.5v56c0 .8.7 1.5 1.5 1.5h44c.8 0 1.5-.7 1.5-1.5V8.6c0-.4-.2-.8-.4-1.1l-7-7.1c-.3-.2-.7-.4-1.1-.4z"/>
    <path d="M46.5 12.5H34.8V.8h3.4l8.3 8.3v3.4z"/>
    <path d="M23.1 16.8c.1-.3.5-.3.6 0l14.6 25.4c.2.3 0 .6-.3.6H8.6c-.2 0-.4-.2-.3-.4l14.8-25.6z" style="fill:none;stroke:#000;stroke-width:1.75;stroke-miterlimit:10"/>
    <path d="M23.4 34.3c-.7 0-1.3-.6-1.3-1.3v-7.3c0-.7.6-1.3 1.3-1.3.7 0 1.3.6 1.3 1.3v7.4c-.1.6-.6 1.2-1.3 1.2M25.4 37.8c0-1.1-.9-2-2-2s-2 .9-2 2 .9 2 2 2 2-.9 2-2"/>
</svg>
