<svg version="1.1" id="Dry_cows" xmlns="http://www.w3.org/2000/svg" x="0" y="0" viewBox="0 0 47 59" style="enable-background:new 0 0 47 59" xml:space="preserve">
    <style>
        .st2{fill:none;stroke:#000;stroke-width:2;stroke-miterlimit:10}
    </style>
    <path d="m40.1 1.5 5.4 5.4v50.6h-44v-56h38.6m0-1.5H1.5C.7 0 0 .7 0 1.5v56c0 .8.7 1.5 1.5 1.5h44c.8 0 1.5-.7 1.5-1.5V6.9c0-.4-.2-.8-.4-1.1L41.2.4c-.4-.2-.8-.4-1.1-.4z"/>
    <path d="M46.5 10.8h-10V.8h2.9l7.1 7.1z"/>
    <path d="M23.5 8.1c-1.3 0-2.3 1.7-3.7 1.8-1.3 0-2.2-1.5-2.8-2.1-.5-.5-1.1-1.9-1.4-1.9-.4 0-.5 3.8.4 4.6.6.5 2.4 1.4 2.4 1.4s-1.5-.8-2.1-1.1c-.6-.2-1.6-.3-2.7-.1-1.1.3-2.1.3-2.1.8s.7 2.1 2.8 3c2.1.9 2.7.3 3 .3.3 0 .8.1.9.6.5 2 1.5 7.1 2.4 9h5.7c.7-1.7 1.9-7.2 2.4-9 .1-.5.7-.6.9-.6.3 0 .9.6 3-.3 2.1-.9 2.8-2.5 2.8-3s-.9-.6-2.1-.8c-1.1-.3-2.1-.2-2.7.1-.6.2-2.1 1.1-2.1 1.1s1.8-.9 2.4-1.4c.8-.8.7-4.6.4-4.6-.2 0-.9 1.5-1.4 1.9-.6.6-1.5 2.1-2.8 2.1-1.2-.1-2.3-1.8-3.6-1.8z" style="fill:none;stroke:#000;stroke-width:1.75;stroke-linejoin:round;stroke-miterlimit:10"/>
    <path d="M32.7 37.9H13.9c.1.7.4 1.4.7 2.1.8 1.7 2 3.1 3.6 4.1v4.5c0 .6.5 1.1 1.1 1.1.6 0 1.1-.5 1.1-1.1v-3.4c.6.2 1.2.3 1.8.4v3.9c0 .6.5 1.1 1.1 1.1.6 0 1.1-.5 1.1-1.1v-3.8c.6-.1 1.2-.2 1.8-.4v3.4c0 .6.5 1.1 1.1 1.1.6 0 1.1-.5 1.1-1.1v-4.3c2.1-1.5 3.7-3.8 4.3-6.5z"/>
    <path transform="rotate(45.001 23.694 41.24)" style="fill:#fff" d="M5.9 38.8h35.5v4.8H5.9z"/>
    <circle id="Circle" transform="rotate(-45.001 23.468 41.373)" class="st2" cx="23.5" cy="41.4" r="12.5"/>
    <path class="st2" d="m14.4 31.9 18.5 18.5"/>
</svg>
