<svg xmlns="http://www.w3.org/2000/svg" viewBox="0 0 47 59" style="enable-background:new 0 0 47 59" xml:space="preserve">
    <path d="m40.1 1.5 5.4 5.4v50.6h-44v-56h38.6m0-1.5H1.5C.7 0 0 .7 0 1.5v56c0 .8.7 1.5 1.5 1.5h44c.8 0 1.5-.7 1.5-1.5V6.9c0-.4-.2-.8-.4-1.1L41.2.4c-.4-.2-.8-.4-1.1-.4z"/>
    <path d="M24.4 46.4h-6.7v7.1h-2.9V36.7h10.6V39h-7.7v5h6.7v2.4zM33.6 43.6c-.4-.1-.7-.1-1.1-.1-1.3 0-2.1.5-2.6 1.5v8.5h-2.8V41h2.7l.1 1.4c.7-1.1 1.6-1.6 2.8-1.6.4 0 .7.1 1 .2l-.1 2.6z"/>
    <path d="M23.5 11.4c-1.5.1-2.8 2.1-4.4 2.1-1.6.1-2.7-1.8-3.4-2.5-.6-.6-1.4-2.3-1.6-2.3-.4 0-.6 4.6.4 5.5.7.6 2.8 1.7 2.8 1.7s-1.7-1-2.5-1.3c-.7-.3-1.9-.4-3.3-.1-1.4.3-2.5.3-2.5 1s.9 2.6 3.4 3.7 3.3.4 3.6.4 1 .2 1.1.8c.7 2.4 1.9 8.6 2.9 10.8h6.8c.8-2.1 2.3-8.7 2.9-10.8.2-.6.8-.8 1.1-.8s1.1.7 3.6-.4 3.4-3 3.4-3.7-1.1-.7-2.5-1c-1.4-.3-2.5-.2-3.3.1-.5.4-2.3 1.4-2.3 1.4s2.2-1.1 2.8-1.7c1-1 .9-5.5.4-5.5-.3 0-1.1 1.8-1.6 2.3-.7.7-1.8 2.5-3.4 2.5-1.5-.1-2.8-2.2-4.4-2.2z" style="fill:none;stroke:#000;stroke-width:1.75;stroke-linejoin:round;stroke-miterlimit:10"/>
    <path d="M46.5 10.8h-10V.8h2.9l7.1 7.1z"/>
</svg>
