<?xml version="1.0" encoding="UTF-8"?>
<svg xmlns="http://www.w3.org/2000/svg" version="1.1" viewBox="0 0 80 40">
  <defs>
    <style>
      .cls-1 {
        fill: #010101;
      }

      .cls-1, .cls-2 {
        stroke-width: 0px;
      }

      .cls-3 {
        stroke-width: 1.2px;
      }

      .cls-3, .cls-4 {
        fill: none;
        stroke: #1d1d1b;
        stroke-miterlimit: 10;
      }

      .cls-2, .cls-5 {
        fill: #fff;
      }

      .cls-6 {
        fill: #1d1d1b;
        font-family: Roboto-Bold, Roboto;
        font-size: 11px;
        font-weight: 700;
      }

      .cls-5 {
        stroke: #010101;
        stroke-linecap: round;
        stroke-linejoin: round;
        stroke-width: 1.5px;
      }
    </style>
  </defs>
  <g id="Ebene_1" data-name="Ebene 1">
    <rect class="cls-4" x=".6" y="3.4" width="27" height="14.2" rx="7.1" ry="7.1"/>
    <text class="cls-6" transform="translate(6.6 14.3)"><tspan x="0" y="0">OK</tspan></text>
    <rect class="cls-2" x="8.5" y="16.3" width="6.9" height="2.6"/>
    <g>
      <path class="cls-3" d="M11.9,37.1v-2.1s-2.4-1.5-4.9-6-2.6-4.6-2.5-5.3,1.3-.9,2.3-.4c1.7.9,3.5,3.4,3.5,3.4,0-.4,0-3.3-.1-6.1-.1-5.5.8-5.5,1.7-5.5s1.6.7,1.7,3.3,0,6.1,0,6.1c0,0,.1-3,.1-3,0,0,.4-.8,1.4-.8s1.7.6,1.6,1.7c0,0,0,2.6,0,2.6,0,0,0-2.1,0-2.4.1-.5.8-1,1.6-1s1.4,1.3,1.5,2.3v1.6s0-1.8,0-1.8c0,0,.1-.4.7-.4,1.3,0,1.7,3.7,1.2,6.2s-1.2,5.1-2.7,5.5"/>
      <line class="cls-3" x1="20.2" y1="37" x2="20.2" y2="34.1"/>
    </g>
  </g>
  <g id="Ebene_2" data-name="Ebene 2">
    <path class="cls-5" d="M75.1,20s-9.7,11.8-21.6,11.8-21.6-11.8-21.6-11.8c0,0,9.7-11.8,21.6-11.8s21.6,11.8,21.6,11.8Z"/>
    <circle class="cls-1" cx="53.5" cy="19.8" r="9.2"/>
    <path class="cls-2" d="M53.7,16.7c0-1.6-1.3-3-3-3s-3,1.3-3,3,1.3,3,3,3,3-1.3,3-3Z"/>
  </g>
</svg>