<svg id="Calf" xmlns="http://www.w3.org/2000/svg" version="1.1" viewBox="0 0 31.8 23">
    <defs>
        <style>
            .cls-4{fill:#1d1d1b;stroke-width:0}
        </style>
    </defs>
    <path d="M19 20.4c0-1.2-1.4-2.2-3.1-2.2s-3.1 1-3.1 2.2 1.4 2.2 3.1 2.2 3.1-1 3.1-2.2Z" style="fill:#fff;stroke:#1d1d1b;stroke-linecap:round;stroke-linejoin:round;stroke-width:.8px"/>
    <path d="M15.9.6s1.5 0 2.6.2c1.1.3 3.6 1.9 4.8 1.9s7.4-2.2 7.8-1.4c.5.7-1.7 4.7-3.5 6s-3.9-.3-4.8.4c-.7.6-2.9 10.2-3.7 13.2 0 .3-6.3.6-6.4 0-.8-3-3-12.6-3.7-13.2-.9-.7-3 .8-4.8-.4C2.4 6 .2 2 .7 1.3c.5-.7 6.6 1.5 7.8 1.4 1.2 0 3.6-1.7 4.8-1.9 1.1-.3 2.6-.2 2.6-.2" style="fill:none;stroke:#1d1d1b;stroke-linecap:round;stroke-linejoin:round"/>
    <path d="M18.8 21.4H13c-.8 0-1.4-.6-1.3-1.4l.4-2.2c.2-1 1.1-1.7 2.1-1.7h3.4c1.1 0 2 .7 2.1 1.7l.4 2.2c.1.7-.5 1.4-1.3 1.4Z" style="fill:#fff;stroke:#1d1d1b;stroke-linecap:round;stroke-linejoin:round"/>
    <path class="cls-4" d="M13.5 17.8c-.3.2-.6.6-.6 1.1s.4 1.2 1 1.2.9-.4 1-1c-.7-.2-1.3-.7-1.4-1.3ZM18.3 17.8c0 .6-.6 1.1-1.4 1.3 0 .6.5 1 1 1s1-.5 1-1.2-.2-.9-.6-1.1ZM21 9c.5-.7.5-1.4 0-1.7-.4-.3-1.1 0-1.6.7s-.5 1.4 0 1.7 1.1 0 1.6-.7ZM10.8 9c-.5-.7-.5-1.4 0-1.7.4-.3 1.1 0 1.6.7s.5 1.4 0 1.7c-.4.3-1.1 0-1.6-.7Z"/>
</svg>
