<svg id="Cow" xmlns="http://www.w3.org/2000/svg" version="1.1" viewBox="0 0 31.5 26.7">
    <defs>
        <style>
            .cls-3{fill:#1d1d1b;stroke-width:0}
        </style>
    </defs>
    <path d="M15.7 26.1c-3.4 0-5-4.5-5.4-6.2s-1-7.1-1.2-7.8c-.2-.6-.8-.8-1.2-.8s-1.2.8-3.8-.4C1.6 9.6.6 7.5.6 6.8s1.2-.7 2.6-1.1c1.4-.3 2.8 0 3.4.7s1.1 1 1.7 1.5c.3.3.8 0 .9-.3l.2-1S7.2 5.8 6.6 5C5.6 3.8 5.4.6 5.9.6S7 2.5 7.6 3.2c.7.8 1.9 1.3 3.5 1.2 1.7 0 3-.8 4.6-.9h0c1.6 0 3 .8 4.6.9 1.7 0 2.8-.5 3.5-1.2.6-.6 1.4-2.6 1.7-2.6.5 0 .3 3.3-.7 4.4-.7.8-2.8 1.6-2.8 1.6l.2 1c0 .4.6.6.9.3.6-.5 1.4-1.2 1.7-1.5.6-.6 1.9-1.1 3.4-.7 1.4.3 2.6.4 2.6 1.1s-.9 2.9-3.6 4.1c-2.6 1.2-3.4.4-3.8.4s-1 .2-1.2.8-.8 6.1-1.2 7.8c-.4 1.7-1.9 6.2-5.4 6.2h0Z" style="stroke:#1d1d1b;stroke-linecap:round;stroke-linejoin:round;fill:none"/>
    <path class="cls-3" d="M21.5 11.2c.5-.7.6-1.6.1-1.9-.4-.3-1.2 0-1.7.7s-.6 1.6-.1 1.9c.4.3 1.2 0 1.7-.7ZM10 11.2c-.5-.7-.6-1.6-.1-1.9.4-.3 1.2 0 1.7.7s.6 1.6.1 1.9c-.4.3-1.2 0-1.7-.7Z"/>
    <path d="M20 24.1h-8.6c-.8 0-1.4-.7-1.3-1.5l.4-2.8c.2-1.5 1.4-2.5 2.9-2.5H18c1.5 0 2.7 1.1 2.9 2.5l.4 2.8c.1.8-.5 1.5-1.3 1.5Z" style="fill:#fff;stroke:#1d1d1b;stroke-linecap:round;stroke-linejoin:round"/>
    <path class="cls-3" d="M12.6 19.4c-.5.2-.8.8-.8 1.4s.6 1.6 1.3 1.6 1.2-.6 1.3-1.3c-1-.3-1.6-1-1.8-1.7ZM18.8 19.4c-.1.8-.8 1.4-1.8 1.7.1.7.6 1.3 1.3 1.3s1.3-.7 1.3-1.6-.3-1.2-.8-1.4Z"/>
</svg>
