<svg version="1.1" id="Alarm_calf" xmlns="http://www.w3.org/2000/svg" x="0" y="0" viewBox="0 0 38.8 29.3" style="enable-background:new 0 0 38.8 29.3" xml:space="preserve">
    <style>
        .st1{stroke:#fff;stroke-miterlimit:10}
    </style>
    <path d="M19.4 2.6s1.8-.1 3.2.3c1.4.3 4.4 2.3 5.9 2.3s9.1-2.6 9.7-1.7c.6.9-2.1 5.7-4.3 7.2s-4.8-.4-5.9.5-3.3 13.8-4 14l-4.6-.1-4.6.1c-.6-.3-2.9-13.1-4-14s-3.6 1-5.9-.5C2.8 9.1.1 4.3.7 3.5c.6-.9 8.2 1.8 9.7 1.7 1.5 0 4.5-2 5.9-2.3 1.3-.3 3.1-.3 3.1-.3" style="fill:red;stroke:#000;stroke-width:1.25;stroke-miterlimit:10"/>
    <path class="st1" d="M19.4 18.1c-1.4 0-2.5-1.1-2.5-2.5V3c0-1.4 1.1-2.5 2.5-2.5s2.5 1.1 2.5 2.5v12.6c0 1.3-1.1 2.5-2.5 2.5zM19.4 21.4c1.9 0 3.5 1.6 3.5 3.5s-1.6 3.5-3.5 3.5-3.5-1.6-3.5-3.5 1.6-3.5 3.5-3.5"/>
</svg>
