<svg version="1.1" id="Ebene_1" xmlns="http://www.w3.org/2000/svg" x="0" y="0" viewBox="0 0 28.1 35" style="enable-background:new 0 0 28.1 35" xml:space="preserve">
    <style>
        .st0,.st3{fill:none;stroke:#000;stroke-miterlimit:10}.st3{stroke-width:2}
    </style>
    <path style="fill:#fff;stroke:#000;stroke-miterlimit:10" d="M27.6 34.5H4.5V6.3h23.1v5.6z"/>
    <path style="fill:#fff;stroke:#000;stroke-miterlimit:10" d="M23.5 30.3H.5V.5h20.3l2.7 3.2z"/>
    <path d="M23.4 4.1h-3.3V.8h.8l2.5 2.5v.8z"/>
    <path class="st0" d="M12.3 5.7s.8 0 1.4.1c.6.1 1.9 1 2.5 1 .6 0 3.9-1.2 4.1-.8.3.4-.9 2.4-1.8 3.1-.9.6-2-.2-2.5.2s-1.5 5.9-1.7 6.1h-4c-.3-.1-1.2-5.6-1.7-6.1-.5-.4-1.5.5-2.5-.2S4 6.4 4.3 6s3.5.8 4.1.8 1.9-.9 2.5-1 1.4-.1 1.4-.1zM6.4 20.3v6.4"/>
    <path class="st3" d="M9.2 20.3v6.4"/>
    <path class="st0" d="M20.9 26.5V28h-1.6M20.9 20.3v-1.5h-1.6M3.9 26.5V28h1.7M3.9 20.3v-1.5h1.7M12.2 20.3v6.5"/>
    <path d="M18.4 20.3v6.5"/>
    <path class="st3" d="M15.4 20.3v6.5"/>
    <path class="st0" d="M18.2 20.3v6.5"/>
</svg>
