<svg version="1.1" id="Ebene_1" xmlns="http://www.w3.org/2000/svg" x="0" y="0" viewBox="0 0 74.6 45.1" style="enable-background:new 0 0 74.6 45.1" xml:space="preserve">
    <style>
        .st0{fill:#fff;stroke:#000;stroke-width:2;stroke-miterlimit:10}
    </style>
    <path class="st0" d="m48.4 32 6.1.1c.9-.4 3.9-18 5.3-19.3 1.4-1.2 4.9 1.4 7.9-.7s6.7-8.7 5.8-9.9c-.8-1.2-11 2.5-13 2.4s-6.1-2.8-7.9-3.2C50.7 1 48.3 1 48.3 1s-2.4-.1-4.3.4c-1.9.4-5.9 3.1-7.9 3.2S23.9 1 23.1 2.2s2.9 7.8 5.8 9.9c3 2.1 6.5-.5 7.9.7s4.5 18.9 5.3 19.3l6.3-.1z"/>
    <path class="st0" d="m26.4 44 6.1.1c.9-.4 3.9-18 5.3-19.3 1.4-1.2 4.9 1.4 7.9-.7 3-2.1 6.7-8.7 5.8-9.9-.8-1.2-11 2.5-13 2.4s-6.1-2.8-7.9-3.2c-1.9-.4-4.3-.4-4.3-.4s-2.4-.1-4.3.4c-1.9.4-5.9 3.1-7.9 3.2S1.9 13 1.1 14.2 4 21.9 7 24.1c3 2.1 6.5-.5 7.9.7s4.5 18.9 5.3 19.3l6.2-.1z"/>
</svg>
