<?xml version="1.0" encoding="UTF-8"?>
<svg id="Ebene_1" xmlns="http://www.w3.org/2000/svg" version="1.1" xmlns:xlink="http://www.w3.org/1999/xlink" viewBox="0 0 7.6 6.6">
  <!-- Generator: Adobe Illustrator 29.3.1, SVG Export Plug-In . SVG Version: 2.1.0 Build 151)  -->
  <defs>
    <style>
      .st0 {
        fill: #fff;
      }
    </style>
  </defs>
  <path d="M3.8,6.6c1.8,0,3.3-1.5,3.3-3.3S5.6,0,3.8,0,.5,1.5.5,3.3s1.5,3.3,3.3,3.3Z"/>
  <path class="st0" d="M5.3,4.5c0-.7,0-.7.3-.7,0,0,0-.2,0-.3-.1,0-.4,0-.6,0s-.6,0-.8,0c0,0,0,.2,0,.3.5,0,.5,0,.5.7v.4c-.3,0-.5.1-.8.1-1,0-1.3-1-1.3-1.7,0-1,.5-1.6,1.2-1.6s1.1.4,1.2.9c0,0,.2,0,.2,0,0-.3,0-.7,0-1-.2,0-.8-.1-1.3-.1-1.1,0-2.1.7-2.1,2s.8,1.8,1.9,1.8,1.1,0,1.7-.4c0,0,0-.1,0-.2v-.3Z"/>
</svg>