<?xml version="1.0" encoding="UTF-8"?>
<svg id="Ebene_1" xmlns="http://www.w3.org/2000/svg" version="1.1" xmlns:xlink="http://www.w3.org/1999/xlink" viewBox="0 0 7.6 6.6">
  <!-- Generator: Adobe Illustrator 29.3.1, SVG Export Plug-In . SVG Version: 2.1.0 Build 151)  -->
  <defs>
    <style>
      .st0 {
        fill: #fff;
      }
    </style>
  </defs>
  <path d="M3.8,6.6c1.8,0,3.3-1.5,3.3-3.3S5.6,0,3.8,0,.5,1.5.5,3.3s1.5,3.3,3.3,3.3Z"/>
  <path class="st0" d="M5.8,3.3c0-1.1-.9-1.9-1.9-1.9s-2,.8-2,2,.8,1.8,1.9,1.8,2-.9,2-2Z"/>
  <path d="M3.8,1.7c.7,0,1.3.6,1.3,1.7s-.5,1.6-1.2,1.6-1.3-.7-1.3-1.7.6-1.6,1.2-1.6Z"/>
</svg>