<svg version="1.1" id="Ebene_6" xmlns="http://www.w3.org/2000/svg" x="0" y="0" viewBox="0 0 93.1 56.2" style="enable-background:new 0 0 93.1 56.2" xml:space="preserve">
    <style>
        .st6{fill:#fff}.st9{fill:none;stroke:#000;stroke-width:1.75;stroke-miterlimit:10}
    </style>
    <circle cx="72.9" cy="32.8" style="fill:none;stroke:#000;stroke-width:1.25;stroke-miterlimit:9.9999" r="13.8"/>
    <path d="M63.9 40c.1-.1.3-.2.4-.2h.5c-.1-.2-.1-.4 0-.6 0-.2.1-.4.3-.5.2-.2.5-.3.8-.3s.6.2.9.5c.3.3.4.6.4.9 0 .3-.1.6-.3.8-.2.1-.3.2-.5.3-.2 0-.4 0-.6-.1.1.2.1.3 0 .5 0 .2-.1.3-.3.4-.2.2-.5.3-.8.3s-.6-.2-.8-.4c-.3-.3-.4-.5-.4-.8.1-.3.2-.5.4-.8zm.6.6c-.1.1-.2.2-.2.3 0 .1 0 .2.1.3.1.1.2.1.3.1.1 0 .2-.1.3-.2.1-.1.2-.2.2-.3 0-.1 0-.2-.1-.3-.1-.1-.2-.1-.3-.1-.1 0-.2.1-.3.2zm1.1-1.3c-.1.1-.2.2-.2.4 0 .1.1.3.2.4.1.1.2.2.4.2.1 0 .3-.1.4-.2.1-.1.2-.2.2-.4 0-.1-.1-.3-.2-.4-.1-.1-.2-.2-.4-.2-.2.1-.3.1-.4.2zM63.3 36.2l-.2-.4.6-.3.2.4.8-.3.3.7-.8.3.6 1.4-.4.2-2.9-.4-.3-.7 2.1-.9zm.7 1.5-.3-.8-1.2.6h.1l1.4.2zM62.6 32.5c.5 0 .9 0 1.2.2s.5.5.5.9-.1.7-.3 1c-.3.2-.6.4-1.1.4l-.7.1c-.5 0-.9 0-1.2-.2-.3-.2-.5-.5-.5-.9s.1-.7.3-1c.3-.2.6-.4 1.1-.4l.7-.1zm-.7.8c-.3 0-.5.1-.7.2-.1.1-.2.2-.2.4s.1.3.2.4c.1.1.4.1.7.1l.9-.1c.3 0 .5-.1.7-.2.1-.1.2-.2.2-.4s-.1-.3-.2-.4-.4-.1-.7-.1l-.9.1zM65.1 29.1l-.3.7-2.7-1.1-.1.9-.6-.2.1-1.7v-.1l3.6 1.5zM67 23.7l.3-.2c.2-.1.3-.2.3-.3 0-.1 0-.3-.1-.4-.1-.1-.2-.2-.3-.2-.1 0-.3 0-.4.1l-.3.3v.3l-.7.4c-.1-.2-.1-.4-.1-.5s.1-.4.2-.5c.1-.2.3-.3.5-.4.4-.2.7-.3 1-.2.3.1.5.2.7.5.1.2.1.3.1.5s-.1.3-.2.5c.2 0 .4 0 .6.1.2.1.3.2.4.4.2.3.2.6.1.9-.1.3-.3.6-.7.8-.3.2-.6.3-1 .2-.3-.1-.5-.2-.7-.5l.7-.4c.1.1.2.2.3.2.1 0 .3 0 .4-.1.2-.1.3-.2.3-.3 0-.1 0-.3-.1-.4-.2-.3-.5-.4-.8-.2l-.3.2-.2-.8zM73.4 22.8h.4v.6h-.4v.8h-.8v-.8l-1.6.1-.1-.5 1.5-2.6h.8l.2 2.4zm-1.6.1h.8l-.1-1.3v.1l-.7 1.2zM74.9 22.5l.8-1.8 2 .6-.2.7-1.4-.4-.3.8h.6c.3.1.6.3.7.6.1.3.1.6 0 1l-.3.6c-.2.2-.3.3-.6.3h-.7l-.6-.3c-.2-.1-.3-.3-.3-.5-.1-.2-.1-.4 0-.6l.7.2v.4c.1.1.2.2.3.2.2 0 .3 0 .4-.1.1-.1.2-.2.3-.5.1-.2.1-.4 0-.5-.1-.1-.2-.2-.4-.3-.2-.1-.3-.1-.5 0h-.1l-.4-.4zM81 23.4l-.4.5h-.1c-.3-.2-.6-.3-.8-.3-.3 0-.5.1-.7.4.3 0 .6 0 .8.2.3.2.4.5.4.8 0 .3-.1.6-.3.9-.1.2-.3.3-.5.4-.2.1-.4.1-.6.1-.2 0-.4-.1-.6-.3-.3-.2-.5-.5-.5-.9s.1-.7.4-1.1l.2-.2c.2-.3.5-.6.8-.7.3-.2.6-.2 1-.2.3 0 .7.2 1 .4H81zm-1.8 1.1c-.1-.1-.2-.1-.3-.1-.1 0-.2 0-.3.1l-.1.2c-.2.2-.2.4-.2.6 0 .2.1.3.2.4.1.1.3.1.4.1.2 0 .3-.1.4-.3.1-.2.2-.3.2-.5s-.1-.4-.3-.5zM84.6 29.1l-4 .1-.4-.8H84l-.8-1.9.6-.3 1.2 2.6-.4.3zM84.6 33.4c-.2 0-.4 0-.5-.1-.2-.1-.3-.2-.4-.4-.1.2-.2.4-.4.5-.2.1-.4.2-.6.2-.4 0-.7-.1-.9-.3-.2-.2-.4-.6-.4-1s.1-.8.2-1c.2-.3.5-.4.8-.4.2 0 .4 0 .6.1.2.1.3.3.4.4.1-.2.2-.3.3-.4.1-.1.3-.2.5-.2.3 0 .6.1.9.3.2.2.4.5.4.9s-.1.7-.2 1c-.1.2-.3.3-.7.4zm-1.9-.6c.2 0 .3-.1.4-.2.1-.1.1-.3.1-.4s-.1-.3-.2-.4c-.1-.1-.3-.1-.4-.1-.2 0-.3.1-.4.2s-.1.3-.1.4c0 .2.1.3.2.4.1 0 .2.1.4.1zm1.8-.2c.2 0 .3-.1.4-.2.1-.1.1-.2.1-.4s-.1-.3-.2-.3-.2-.1-.4-.1-.3.1-.4.2-.1.2-.1.4.1.3.2.3.2.1.4.1zM82.6 36.4c-.1-.3-.2-.5-.1-.8.1-.3.3-.6.6-.7.3-.1.7-.1 1.1 0 .3.1.5.2.7.4.2.2.3.4.4.6.1.2.1.5 0 .7-.1.3-.2.5-.4.6-.2.2-.4.3-.7.3-.3 0-.6 0-.9-.1l-.3-.1c-.7-.2-1.1-.5-1.4-1-.3-.4-.3-1-.2-1.6l.1-.2.7.2v.2c-.4.8-.2 1.2.4 1.5zm.4-.5v.4c0 .1.1.2.2.3l.3.1c.3.1.5.1.7 0 .2-.1.3-.2.3-.3 0-.2 0-.3-.1-.5-.1-.1-.3-.2-.5-.3-.2-.1-.4-.1-.6 0-.1 0-.2.2-.3.3z"/>
    <path id="SVGID_x5F_1_x5F_" d="M77.7 25.6c4 2.6 5 8 2.4 12s-8 5-12 2.4-5-8-2.4-12c2.7-3.9 8-5 12-2.4z" style="fill:none"/>
    <text style="font-size:12px;font-family:&quot;ArialMT&quot;"> </text>
    <path d="M65.7 32.8c0 4 3.2 7.2 7.2 7.2s7.2-3.2 7.2-7.2-3.2-7.2-7.2-7.2-7.2 3.2-7.2 7.2z" style="fill:none;stroke:#000;stroke-width:1.25;stroke-miterlimit:10"/>
    <path d="M69.6 32.8c0 1.8 1.5 3.3 3.3 3.3s3.3-1.5 3.3-3.3-1.5-3.3-3.3-3.3-3.3 1.5-3.3 3.3z" style="fill:#fff;stroke:#fff;stroke-width:.769;stroke-miterlimit:10"/>
    <path class="st6" d="m50.766 15.76 5.09-5.09L92.98 47.791l-5.092 5.091z"/>
    <path style="fill:none;stroke:#000;stroke-width:2;stroke-miterlimit:10" d="m59.7 19.4 27 27"/>
    <circle cx="72.9" cy="32.8" style="fill:none;stroke:#000;stroke-width:2;stroke-miterlimit:9.9999" r="18.7"/>
    <path d="M44.1 35.8v7h7v4.7h-7v7h-4.7v-7h-7v-4.7h7v-7h4.7m0-1.8h-4.7c-1 0-1.8.8-1.8 1.8V41h-5.3c-1 0-1.8.8-1.8 1.8v4.7c0 1 .8 1.8 1.8 1.8h5.3v5.2c0 1 .8 1.8 1.8 1.8h4.7c1 0 1.8-.8 1.8-1.8v-5.2h5.3c1 0 1.8-.8 1.8-1.8v-4.7c0-1-.8-1.8-1.8-1.8h-5.3v-5.2c0-1-.8-1.8-1.8-1.8z"/>
    <path class="st9" d="m41.3 29-5.7.1c-.8-.3-3.6-16.4-4.9-17.5s-4.5 1.2-7.3-.7-6.2-7.9-5.4-9c.7-1.1 10.2 2.2 12 2.2 1.8-.1 5.6-2.5 7.3-2.9s4-.3 4-.3"/>
    <path class="st6" d="m24.3 38-5.7.1c-.8-.3-3.6-16.4-4.9-17.5s-4.5 1.2-7.3-.7S.2 12 1 10.9c.7-1.1 10.2 2.2 12 2.2 1.8-.1 5.6-2.5 7.3-2.9 1.7-.4 4-.3 4-.3"/>
    <path class="st9" d="m24.3 38-5.7.1c-.8-.3-3.6-16.4-4.9-17.5s-4.5 1.2-7.3-.7S.2 12 1 10.9c.7-1.1 10.2 2.2 12 2.2 1.8-.1 5.6-2.5 7.3-2.9 1.7-.4 4-.3 4-.3"/>
    <path class="st6" d="m24.3 38 5.7.1c.8-.3 3.6-16.4 4.9-17.5 1.3-1.1 4.5 1.2 7.3-.7s6.1-7.9 5.4-9c-.7-1.1-10.2 2.2-12 2.2-1.8-.1-5.6-2.5-7.3-2.9-1.7-.4-4-.3-4-.3"/>
    <path class="st9" d="m24.3 38 5.7.1c.8-.3 3.6-16.4 4.9-17.5 1.3-1.1 4.5 1.2 7.3-.7s6.1-7.9 5.4-9c-.7-1.1-10.2 2.2-12 2.2-1.8-.1-5.6-2.5-7.3-2.9-1.7-.4-4-.3-4-.3"/>
    <path class="st9" d="m41.3 29 5.7.1c.8-.3 3.6-16.4 4.9-17.5 1.3-1.1 4.5 1.2 7.3-.7s6.2-7.9 5.4-9c-.7-1.1-10.2 2.2-12 2.2-1.8-.1-5.6-2.5-7.3-2.9s-4-.3-4-.3"/>
</svg>
