<svg version="1.1" id="Ebene_6" xmlns="http://www.w3.org/2000/svg" x="0" y="0" viewBox="0 0 49.6 62" style="enable-background:new 0 0 49.6 62" xml:space="preserve">
    <style>
        .st1{fill:#fff}.st2{font-family:&quot;Roboto-Medium&quot;}.st3{font-size:11.0346px}
    </style>
    <path id="rect2489_1_" d="M24.6 17.3c-1.8 0-3.1 1.9-2.7 3.6-.2 3.9-1.7 6.2-5.2 8.4-1.2.5-2.8.8-2.9 2.4-.1 3.1 0 6.3 0 9.4-.1 1.3-.1 3.1 1.3 3.7 1.8.2 3.6 0 5.3.1h13.8c1.4-.4 1.6-2.1 1.5-3.3v-9.8c-.1-1.4-1.5-1.9-2.6-2.3-3.2-1.7-4.8-3.5-5.3-6.8-.3-1.7.2-3.7-1.2-4.8-.6-.4-1.3-.7-2-.6z" style="fill:none;stroke:#fff;stroke-width:1.25;stroke-miterlimit:10"/>
    <path id="path4053_1_" class="st1" d="M26.5 20.2c0 1-.8 1.8-1.8 1.8s-1.8-.8-1.8-1.8.8-1.8 1.8-1.8 1.8.8 1.8 1.8z"/>
    <text transform="translate(15.343 40.726)" class="st1 st2 st3">900</text>
    <path id="rect2489_2_" d="M24.6 17.3c-1.8 0-3.1 1.9-2.7 3.6-.2 3.9-1.7 6.2-5.2 8.4-1.2.5-2.8.8-2.9 2.4-.1 3.1 0 6.3 0 9.4-.1 1.3-.1 3.1 1.3 3.7 1.8.2 3.6 0 5.3.1h13.8c1.4-.4 1.6-2.1 1.5-3.3v-9.8c-.1-1.4-1.5-1.9-2.6-2.3-3.2-1.7-4.8-3.5-5.3-6.8-.3-1.7.2-3.7-1.2-4.8-.6-.4-1.3-.7-2-.6z" style="fill:none;stroke:#000;stroke-width:1.25;stroke-miterlimit:10"/>
    <path id="path4053_2_" d="M26.5 20.2c0 1-.8 1.8-1.8 1.8s-1.8-.8-1.8-1.8.8-1.8 1.8-1.8 1.8.8 1.8 1.8z"/>
    <text transform="translate(15.343 40.726)" class="st2 st3">900</text>
    <path d="M47.5 2.1V60H2V2.1h45.5m0-2H2C.9.1 0 1 0 2.1V60c0 1.1.9 2 2 2h45.5c1.1 0 2-.9 2-2V2.1c0-1.1-.9-2-2-2z"/>
    <path d="M38.2 1.4h10.3v10.3H38.2V1.4z"/>
    <path class="st1" d="M49.6 9.5 40 0h9.6v9.5zM2.7 15.7l5.1-5.1 37.1 37.1-5.1 5.1L2.7 15.7z"/>
    <path d="m11.6 19.3 27 27" style="fill:none;stroke:#000;stroke-width:2;stroke-miterlimit:10"/>
    <circle cx="24.8" cy="32.7" r="18.7" style="fill:none;stroke:#000;stroke-width:2;stroke-miterlimit:9.9999"/>
</svg>
