<svg version="1.1" id="Ebene_6" xmlns="http://www.w3.org/2000/svg" x="0" y="0" viewBox="0 0 49.6 62" style="enable-background:new 0 0 49.6 62" xml:space="preserve">
    <style>
        .st0{fill:#fff}
    </style>
    <path d="M47.5 2.1V60H2V2.1h45.5m0-2H2C.9.1 0 1 0 2.1V60c0 1.1.9 2 2 2h45.5c1.1 0 2-.9 2-2V2.1c0-1.1-.9-2-2-2z"/>
    <path d="M38.2 1.4h10.3v10.3H38.2z"/>
    <path class="st0" d="M49.6 9.5 40 0h9.6z"/>
    <circle cx="24.8" cy="32.7" style="fill:none;stroke:#000;stroke-width:1.25;stroke-miterlimit:9.9999" r="13.8"/>
    <path d="M15.8 39.9c.1-.1.3-.2.4-.2h.5c-.1-.2-.1-.4 0-.6 0-.2.1-.4.3-.5.2-.2.5-.3.8-.3s.6.2.9.5.4.6.4.9c0 .3-.1.6-.3.8-.2.1-.3.2-.5.3-.2 0-.4 0-.6-.1.1.2.1.3 0 .5 0 .2-.1.3-.3.4-.2.2-.5.3-.8.3s-.6-.2-.8-.4c-.3-.3-.4-.5-.4-.8.1-.4.2-.6.4-.8zm.6.5c-.1.1-.2.2-.2.3s0 .2.1.3.2.1.3.1c.1 0 .2-.1.3-.2.1-.1.2-.2.2-.3s0-.2-.1-.3-.2-.1-.3-.1-.2.1-.3.2zm1.1-1.3c-.1.1-.2.2-.2.4 0 .1.1.3.2.4.1.1.2.2.4.2.1 0 .3-.1.4-.2.1-.1.2-.2.2-.4 0-.1-.1-.3-.2-.4-.2-.1-.3-.1-.4-.1-.2 0-.3 0-.4.1zM15.3 36l-.2-.4.6-.3.2.4.8-.3.3.7-.8.3.6 1.4-.4.2-2.9-.4-.4-.6 2.2-1zm.6 1.5-.3-.8-1.2.6h.1l1.4.2zM14.5 32.3c.5 0 .9 0 1.2.2s.5.5.5.9-.1.7-.3 1c-.3.2-.6.4-1.1.4l-.7.1c-.5 0-.9 0-1.2-.2s-.5-.5-.5-.9.1-.7.3-1c.3-.2.6-.4 1.1-.4l.7-.1zm-.7.8c-.3 0-.5.1-.7.2-.1.1-.1.2-.1.4s.1.3.2.4c.1.1.4.1.7.1l.9-.1c.3 0 .5-.1.7-.2.1-.1.2-.2.2-.4s-.1-.3-.2-.4c-.2-.1-.5-.1-.8-.1l-.9.1zM17.1 28.9l-.3.7-2.7-1.1-.1.9-.6-.2.1-1.7v-.1l3.6 1.5zM19.1 26.1l-1.7 2-.4-.4-.2-1.7c0-.2-.1-.4-.1-.6-.1-.2-.1-.3-.2-.3-.1-.1-.3-.2-.4-.2s-.2.1-.3.2-.2.3-.1.4c0 .2.1.3.3.4l-.5.6c-.2-.2-.3-.3-.4-.5-.1-.2-.1-.4 0-.7 0-.2.2-.4.3-.6.3-.3.5-.5.8-.5.3 0 .6 0 .8.3.1.1.3.3.3.5.1.2.1.5.2.8l.1 1.3 1.1-1.2.4.2zM19 23.5l.3-.2c.2-.1.3-.2.3-.3 0-.1 0-.3-.1-.4s-.2-.2-.3-.2c-.1 0-.3 0-.4.1l-.3.3v.3l-.5.3c-.1-.2-.1-.4-.1-.5s.1-.4.2-.5c.1-.2.3-.3.5-.4.4-.2.7-.3 1-.2.3.1.5.2.7.5.1.2.1.3.1.5s-.1.3-.2.5c.2 0 .4 0 .6.1s.3.2.4.4c.2.3.2.6.1.9s-.3.6-.7.8c-.3.2-.6.3-1 .2-.3-.1-.5-.2-.7-.5l.7-.4c.1.1.2.2.3.2.1 0 .3 0 .4-.1.2-.1.3-.2.3-.3 0-.1 0-.3-.1-.4-.2-.3-.5-.4-.8-.2l-.3.2-.4-.7zM25.3 22.6h.4v.6h-.4v.8h-.8v-.8l-1.5.1v-.4l1.5-2.6h.8v2.3zm-1.6.1h.8l-.1-1.3v.1l-.7 1.2zM26.8 22.3l.8-1.8 2 .6-.2.6-1.4-.4-.3.8h.6c.3.1.6.3.7.6.1.3.1.6 0 1l-.3.6c-.2.2-.3.3-.6.3h-.7l-.6-.3c-.2-.1-.3-.3-.3-.5-.1-.2-.1-.4 0-.6l.7.2v.4c.1.1.2.2.3.2.2 0 .3 0 .4-.1s.2-.2.3-.5c.1-.2.1-.4 0-.5s-.2-.2-.4-.3c-.2-.1-.3-.1-.5 0h-.1l-.4-.3zM32.9 23.2l-.4.5h-.1c-.3-.2-.6-.3-.8-.3-.3 0-.5.1-.7.4.3 0 .6 0 .8.2.3.2.4.5.4.8s-.1.6-.3.9c-.1.2-.3.3-.5.4s-.4.1-.6.1-.4-.1-.6-.3c-.3-.2-.5-.5-.5-.9s.1-.7.4-1.1l.2-.2c.2-.3.5-.6.8-.7.3-.2.6-.2 1-.2.3 0 .7.2.9.4zm-1.7 1.1c-.1-.1-.2-.1-.3-.1-.1 0-.2 0-.3.1l-.1.2c-.2.2-.2.4-.2.6s.1.3.2.4.3.1.4.1c.2 0 .3-.1.4-.3.1-.2.2-.3.2-.5s-.2-.4-.3-.5zM36.6 28.9l-4 .1-.4-.8H36l-.8-1.9.6-.3 1.2 2.6-.4.3zM36.5 33.2c-.2 0-.4 0-.5-.1-.2-.1-.3-.2-.4-.4-.1.2-.2.4-.4.5s-.4.2-.6.2c-.4 0-.7-.1-.9-.3s-.4-.6-.4-1 .1-.8.2-1c.2-.3.5-.4.8-.4.2 0 .4 0 .6.1.2.1.3.3.4.4.1-.2.2-.3.3-.4s.3-.2.5-.2c.3 0 .6.1.9.3.2.2.4.5.4.9s-.1.7-.2 1-.3.3-.7.4zm-1.9-.6c.2 0 .3-.1.4-.2.1-.1.1-.3.1-.4 0-.2-.1-.3-.2-.4-.1-.1-.3-.1-.4-.1-.2 0-.3.1-.4.2-.1 0-.1.2-.1.3 0 .2.1.3.2.4.1.1.3.2.4.2zm1.8-.2c.2 0 .3-.1.4-.2.1-.1.1-.2.1-.4s-.1-.3-.2-.3c-.1-.1-.2-.1-.4-.1s-.3.1-.4.2c-.1.1-.1.2-.1.4s.1.3.2.3.3.1.4.1zM34.5 36.2c-.1-.3-.2-.5-.1-.8.1-.3.3-.6.6-.7.3-.1.7-.1 1.1 0 .3.1.5.2.7.4s.3.4.4.6c.1.2.1.5 0 .7-.1.3-.2.5-.4.6-.2.2-.4.3-.7.3s-.6 0-.9-.1l-.3-.1c-.7-.2-1.1-.5-1.4-1-.3-.4-.3-1-.2-1.6l.1-.2.7.2v.2c-.4.8-.2 1.2.4 1.5zm.5-.5v.4c0 .1.1.2.2.3l.3.1c.3.1.5.1.7 0s.3-.2.3-.3c0-.2 0-.3-.1-.5-.1-.1-.3-.2-.5-.3s-.4-.1-.6 0c-.2 0-.3.2-.3.3z"/>
    <path d="M17.6 32.7c0 4 3.2 7.2 7.2 7.2s7.2-3.2 7.2-7.2-3.2-7.2-7.2-7.2-7.2 3.2-7.2 7.2z" style="fill:none;stroke:#000;stroke-width:1.25;stroke-miterlimit:10"/>
    <path class="st0" d="m2.667 15.659 5.09-5.091L44.88 47.69l-5.09 5.091z"/>
    <path style="fill:none;stroke:#000;stroke-width:2;stroke-miterlimit:10" d="m11.6 19.3 27 27"/>
    <circle cx="24.8" cy="32.7" style="fill:none;stroke:#000;stroke-width:2;stroke-miterlimit:9.9999" r="18.7"/>
</svg>
