<?xml version="1.0" encoding="UTF-8"?>
<svg id="Layer_2" xmlns="http://www.w3.org/2000/svg" version="1.1" viewBox="0 0 103.3 97.6">
  <!-- Generator: Adobe Illustrator 29.3.0, SVG Export Plug-In . SVG Version: 2.1.0 Build 146)  -->
  <defs>
    <style>
      .st0 {
        stroke-width: 1.8px;
      }

      .st0, .st1, .st2, .st3 {
        fill: none;
        stroke: #000;
        stroke-miterlimit: 10;
      }

      .st1 {
        stroke-width: 2.1px;
      }

      .st2 {
        stroke-width: 2.8px;
      }

      .st3 {
        stroke-width: 4.3px;
      }
    </style>
  </defs>
  <path id="path1" class="st0" d="M72.9,14.6c7.7.4,13.9,6.7,14.3,14.7,0,1.9-1,4.9-3.8,4.9h-2.7c-.4,0-.8.5-.6.9.9,2,3,7.8,3.7,16.1,1,10.2-.5,24.5-.5,24.5,0,2-1.6,3.7-3.6,3.7h-15.9c-.8,0-1.4-.7-1.4-1.5v-1.6c0-1.4,6.9-4.4,6.9-4.4.2-.2.3-.5.2-.8l-1.3-25.2c0-.7-.2-1.3-.6-1.8l-3.8-8.6c-.4-.8-1.1-1.4-2-1.4h-13.1c-2.4,0-4.4-2-4.4-4.5v-12.8c0-1.7,1.1-3,3-3h7.4c.7,0,9.8.4,18.2.9Z"/>
  <path id="path2" class="st1" d="M52.9,14.2v19.4"/>
  <path id="path3" class="st0" d="M69.4,71.6h14.3"/>
  <path id="path4" class="st2" d="M19.4,54.1v18.9M24.1,54.1v18.9"/>
  <path id="path5" class="st3" d="M29.8,54.1v18.9"/>
  <path id="path6" class="st0" d="M53.3,71.7v3.9h-3.8M53.3,55.1v-3.9h-3.8M14.1,71.7v3.9h3.8M14.1,55.1v-3.9h3.8"/>
  <path id="Außen" class="st0" d="M29.8,39c-4.2-3.3-6.9-8.6-6.7-14.6,0-5.9,3-11.1,7.2-14.3"/>
  <path id="Mitte" class="st0" d="M33.5,34.5c-3-2.1-5-5.8-4.9-10,0-4.2,2.2-7.8,5.2-9.8"/>
  <path id="path7" class="st0" d="M36.9,30c-1.9-1.2-2.9-3.2-2.9-5.4,0-2.2,1.2-4.2,3-5.1"/>
  <path id="path8" class="st3" d="M41.3,54.1v18.9"/>
  <path id="path9" class="st2" d="M35.5,54.1v18.9M47,54.1v18.9"/>
  <path id="path10" class="st0" d="M67.9,46.8s-.3.2-.7.4c-1.7.8-4.3-1.5-5.7-4.9-1.5-3.4-1.3-6.8.4-7.6.4-.2,1.2-.6,1.2-.6"/>
</svg>