<?xml version="1.0" encoding="utf-8"?>
<!-- Generator: Adobe Illustrator 27.3.1, SVG Export Plug-In . SVG Version: 6.00 Build 0)  -->
<svg version="1.1" id="Ebene_1" xmlns="http://www.w3.org/2000/svg" xmlns:xlink="http://www.w3.org/1999/xlink" x="0px" y="0px"
	 viewBox="0 0 841.89 595.28" style="enable-background:new 0 0 841.89 595.28;" xml:space="preserve">
<style type="text/css">
	.st0{fill:#EDEDED;}
	.st1{fill:#E40521;}
	.st2{fill:#FFFFFF;}
</style>
<g>
	<path class="st0" d="M597.55,387.3l91.09-91.09L550.35,157.91c3.23-3.1,6.33-6.43,9.24-10c30.03-36.7,20.02-77.6,19.58-79.32
		l-4.03-15.75l-15.55,4.71l-0.42,0.13l-29.94,9.05l-29.94,9.05c-7.59,2.3-15.57,5.05-23.29,7.77l-70.81-70.82L335.9,82.02
		c-0.78-0.19-1.57-0.37-2.33-0.6l-11.64-3.52l-18.67-5.64l-40.01-12.09l-8.65-2.61l-15.55-4.7l-4.02,15.74
		c-0.5,1.96-11.89,48.45,21.44,82.77c1.69,1.75,3.39,3.41,5.08,5.01L121.71,296.21l71.25,71.25l-12.61,80.28
		c-0.7,4.85-1.41,10.6-1.41,16.49c0,16.14,5.72,53.66,58.79,53.66c3.61,0,48.25,0,105.66,0l61.79,61.79l61.79-61.79
		c79.67,0,149.46,0,149.46,0l11.85-76.1c0.86-5.61,1.43-10.33,1.43-15.12C629.71,406.18,616.87,391.09,597.55,387.3z"/>
	<g>
		<path class="st1" d="M421.11,517.88l-15.92,15.93l-15.94-15.93c-7.04,0-13.98,0-20.84,0l36.77,36.77l36.77-36.77
			C435.01,517.88,428.07,517.88,421.11,517.88z"/>
	</g>
	<g>
		<polygon class="st1" points="398.57,65.21 405.18,58.6 411.8,65.21 432.63,65.21 405.18,37.75 377.72,65.21 		"/>
		<path class="st1" d="M286.43,177.35c-7.38-2.52-11.7-4.85-14.2-6.65l-125.51,125.5l55.27,55.26h20.84l-55.26-55.26L286.43,177.35z
			"/>
		<path class="st1" d="M540.06,172.65c-3.01,1.78-7.37,4.1-13.75,7.09l116.46,116.47l-91.63,91.63h0.15H572l91.63-91.63
			L540.06,172.65z"/>
	</g>
	<g>
		<path d="M213.48,372.46h34.16l-12.98,81.49c-0.34,1.88-0.34,3.08-0.34,3.77c0,4.09,2.56,6.66,6.66,6.66c5.47,0,8.37-3.6,9.4-10.43
			l12.98-81.49h34l-12.47,78.25c-2.05,12.48-3.59,23.06-11.1,32.12c-7.86,9.39-19.82,14-36.05,14c-25.45,0-37.76-10.42-37.76-32.63
			c0-4.26,0.52-8.71,1.2-13.49L213.48,372.46z"/>
		<path d="M303.81,408.85h29.22l-1.88,11.96c6.84-8.71,15.21-13.5,25.46-14.35l-4.79,30.07c-0.17,0-0.51,0-0.68,0
			c-15.89,0-21.36,5.63-23.57,19.64l-5.98,38.1h-31.27L303.81,408.85z"/>
		<path d="M370.41,361.35h30.76l-8.89,56.89c7.01-7.86,13.84-11.61,21.87-11.61c13.33,0,21.53,10.6,21.53,29.56
			c0,35.02-15.73,60.3-35.71,60.3c-8.03,0-13.49-3.58-18.28-11.62l-1.54,9.4H349.4L370.41,361.35z M392.63,470.36
			c6.15,0,11.1-11.44,11.1-27.51c0-6.83-2.05-9.91-6.15-9.91c-6.15,0-11.1,11.62-11.1,27.33
			C386.48,466.94,388.52,470.36,392.63,470.36z"/>
		<path d="M483.98,484.87c-7.17,7.86-14,11.79-22.04,11.79c-13.32,0-21.35-10.76-21.35-29.73c0-35.02,15.73-60.47,35.71-60.47
			c8.03,0,13.5,3.59,18.27,11.61l1.54-9.22h30.75l-13.5,85.42h-30.75L483.98,484.87z M472.54,459.76c0,6.67,2.05,10.08,5.65,10.08
			c5.97,0,11.27-11.79,11.27-26.99c0-6.49-1.88-9.74-5.48-9.74C477.84,433.11,472.54,444.9,472.54,459.76z"/>
		<path d="M539.65,408.85h27.84l-1.36,8.88c5.99-6.83,13.49-10.43,21.87-10.43c13.15,0,20.84,7.01,20.84,19.31
			c0,3.58-0.52,7.52-1.19,11.96l-8.71,55.7h-30.92l8.03-50.4c0.17-1.36,0.35-2.56,0.35-2.9c0-3.25-1.88-5.12-5.14-5.12
			c-3.24,0-5.46,2.9-6.32,8.37l-8.02,50.06h-30.75L539.65,408.85z"/>
	</g>
	<path d="M250.1,72.45l87.64,26.49c0,0,1.6-12.62,15.3-14.36c13.7-1.73,19.25,7.92,19.25,7.92s17.29-8.91,34.56-8.91
		c17.28,0,34.06,8.91,34.06,8.91s9.64-10.18,20.24-7.42c13.34,3.46,15.32,13.86,15.32,13.86l87.62-26.49c0,0,8.85,34.58-16.54,65.61
		c-23.69,28.97-51.34,30.21-51.34,30.21l-36.55,106.22c0,0,5.93,27.29-13.18,41.04c-10.99,15.35-18.91,19.61-36.68,19.61
		c-10.86,0-29.56,1.55-42.15-19.61c-7.11-4.68-12.01-12.2-13.88-19.13c-3.1-11.48,0.06-22.21,0.06-22.21l-35.87-106.41
		c0,0-22.71,1.23-50.35-27.24C239.99,112.06,250.1,72.45,250.1,72.45"/>
	<path class="st1" d="M433.14,315.73c0,0-1.54,7.67,4.43,13.92c3.57,3.77,6.89,4.91,9.75,4.84c3.18-0.08,1.83,3.02,1.83,3.02
		s-4.67,9.83-13.7,11.26c-9.81,1.54-20.95,2.24-33.05-8.74c-11.47-10.4-10-24.16-10-24.16L433.14,315.73z"/>
	<path class="st2" d="M406.37,257.34c-27.19,0-49.06,5.46-49.22,30.56c-0.08,11.43,12.83,22.75,12.83,22.75h75.26
		c0,0,9.9-9.78,10.34-22.75C456.44,261.76,433.54,257.34,406.37,257.34z"/>
	<path class="st2" d="M445.9,117.56c0,0-22.23,5.46-37.4,5.49c-15.16,0.03-39.98-5.49-39.98-5.49l38.68,95.34L445.9,117.56z"/>
	<path d="M386.23,284.73c1.58,1.47,3.13,7.89-0.36,11.56c-4.92,5.18-13.63,4.55-17.82-1.95c-4.77-7.41-2.54-14.14-0.45-19.41
		c1.91-4.84,8.6-6.18,8.6-6.18s2.08-0.36,1.68,1.41c-0.37,1.57-0.75,6.59,1.19,9.05C380.57,281.13,382.48,281.24,386.23,284.73
		 M434.35,279.22c1.96-2.46,1.56-7.48,1.2-9.05c-0.41-1.77,1.68-1.41,1.68-1.41s6.68,1.35,8.6,6.18c2.08,5.27,4.32,12-0.46,19.41
		c-4.19,6.5-12.89,7.13-17.81,1.95c-3.48-3.67-1.93-10.1-0.36-11.56C430.95,281.24,432.85,281.13,434.35,279.22"/>
	<path class="st2" d="M464.43,184.7c-1.41-1.7-7.49-5.3-8.76-1.83c-0.79-2.51,0.48-5.75,2.18-7.58c5.44-5.84,14.51-4.54,18.24,2.76
		c3.41,6.67-4.27,21.21-11.83,17.3C465.16,191.3,467.13,187.97,464.43,184.7z"/>
	<path class="st2" d="M348.21,184.7c1.41-1.7,7.49-5.3,8.76-1.83c0.79-2.51-0.49-5.75-2.18-7.58c-5.44-5.84-14.51-4.54-18.24,2.76
		c-3.41,6.67,4.27,21.21,11.82,17.3C347.47,191.3,345.51,187.97,348.21,184.7z"/>
</g>
</svg>
