<?xml version="1.0" encoding="UTF-8"?>
<svg id="CSV" xmlns="http://www.w3.org/2000/svg" version="1.1" viewBox="0 0 102.5 88.2">
  <!-- Generator: Adobe Illustrator 29.3.0, SVG Export Plug-In . SVG Version: 2.1.0 Build 146)  -->
  <defs>
    <style>
      .st0, .st1, .st2 {
        fill: none;
        stroke: #000;
        stroke-miterlimit: 10;
      }

      .st3 {
        isolation: isolate;
      }

      .st1 {
        stroke-width: 1.1px;
      }

      .st2 {
        stroke-width: 1.2px;
      }
    </style>
  </defs>
  <path id="path1" d="M55.6,30.2l6.9,7.2v23.1h-23.8v-30.3h16.9M55.6,29.4h-16.9c-.4,0-.8.4-.8.8v30.3c0,.4.4.8.8.8h23.8c.4,0,.8-.4.8-.8v-23.1c0-.2,0-.3-.2-.6l-6.9-7.2c-.2-.2-.4-.2-.6-.2h0Z"/>
  <path id="path2" class="st3" d="M47.1,53.1c0,.7-.3,1.3-.8,1.7s-1.1.7-1.9.7-1.1-.2-1.5-.4-.7-.7-1-1.2c-.2-.5-.3-1.1-.3-1.7v-.7c0-.7,0-1.2.3-1.7.2-.5.6-.9,1-1.2s1-.4,1.5-.4,1.4.2,1.8.7c.5.4.7,1,.8,1.7h-1.2c0-.5-.2-.8-.4-1.1-.2-.2-.6-.3-1-.3s-.9.2-1.2.6c-.2.4-.4.9-.4,1.7v.6c0,.7.2,1.3.4,1.7s.7.6,1.2.6.8,0,1.1-.3.4-.6.4-1.1h1.3,0Z"/>
  <path id="path3" class="st3" d="M51.8,52.7c-.2-.2-.6-.3-1.2-.5s-1-.3-1.3-.6c-.7-.4-.9-.9-.9-1.6s.2-1,.7-1.4c.5-.3,1.1-.6,1.8-.6s.9,0,1.3.2c.4.2.7.4.9.7s.3.7.3,1.1h-1.2c0-.3,0-.7-.3-.8-.2-.2-.6-.3-1-.3s-.7,0-.9.2-.3.4-.3.7,0,.5.3.7c.2.2.7.3,1.2.5.6.2,1,.3,1.3.6.3.2.6.4.7.7.2.2.2.6.2.9,0,.6-.2,1.1-.7,1.4-.4.3-1.1.5-1.8.5s-1,0-1.4-.2-.7-.4-1-.7c-.2-.3-.3-.7-.3-1.2h1.2c0,.4.2.7.4.9s.7.3,1.2.3.7,0,.9-.2.3-.4.3-.7,0-.4-.5-.7h0Z"/>
  <path id="path4" class="st3" d="M57,53.8l1.7-5.4h1.3l-2.5,6.9h-1.2l-2.5-6.9h1.3l1.7,5.4h.2Z"/>
  <path id="path5" d="M62.8,37.5h-7.1c-.2,0-.3,0-.3-.3h0v-7.5l.9.9v5.8c0,.2,0,.3.3.3h5.3s.9.8.9.8Z"/>
  <rect class="st2" x="32.6" y="20.8" width="35.8" height="49.2" rx="1.7" ry="1.7"/>
  <path class="st0" d="M39.3,20.8"/>
  <polyline class="st2" points="39.3 20.8 39.3 2.5 61.8 2.5 61.8 20.8"/>
  <path class="st0" d="M57.6,70.5"/>
  <polyline class="st1" points="57.6 70.5 57.6 85.6 43.5 85.6 43.5 70.5"/>
  <rect x="43.5" y="11.2" width="4.7" height="4.7"/>
  <rect x="53.5" y="11.2" width="4.7" height="4.7"/>
</svg>